<svg width="1320" height="920" viewBox="0 0 1320 920" fill="none" xmlns="http://www.w3.org/2000/svg">
<g id="aeonpay">
<path id="&#232;&#183;&#175;&#229;&#190;&#132;" d="M1250.49 917.96H68.2083C30.6774 917.96 0 887.102 0 849.593L1.19664 70.4078C1.19664 32.7897 31.9829 2.04102 69.5138 2.04102H1251.68C1289.21 2.04102 1320 32.7897 1320 70.4078L1318.8 849.484C1318.8 887.102 1288.13 917.851 1250.6 917.851" fill="#B50081"/>
<path id="&#229;&#189;&#162;&#231;&#138;&#182;&#231;&#187;&#147;&#229;&#144;&#136;" fill-rule="evenodd" clip-rule="evenodd" d="M750.942 88.2891C656.19 88.2891 581.89 160.69 581.89 253.263C581.89 260.819 582.384 268.24 583.343 275.499C567.325 276.427 550.319 276.927 532.611 276.927C488.572 276.927 448.086 273.915 416.537 268.909V243.781H416.645V216.087C452.678 210.173 500.194 206.489 550.778 206.489C550.778 206.489 558.501 206.816 558.501 203.545C558.393 199.51 551.104 199.947 551.104 199.947C497.258 199.947 452.27 202.796 416.645 207.84V166.582H416.537V132.56H563.397V95.487H333.969L95.4033 410.825H141.746L375.634 101.702V166.582H375.633V215.584C337.782 225.006 318.195 238.069 318.195 253.048C318.195 266.82 339.991 279.403 375.634 288.802V411.043H566.879V373.97H416.537V297.216C449.987 302.519 489.83 305.604 532.611 305.604C552.365 305.604 571.484 304.946 589.63 303.716C610.972 370.843 674.192 418.238 750.942 418.238C845.803 418.238 920.864 345.837 920.864 253.263C920.864 160.69 846.238 88.2891 750.942 88.2891ZM375.633 225.328C359.769 230.384 350.613 236.13 350.613 242.144C350.613 248.555 359.741 254.564 375.634 259.724V243.781H375.633V225.328ZM746.7 253.048C746.7 273.19 700.234 290.789 631.955 299.603C650.555 347.76 697.22 381.932 751.813 381.932C822.741 381.932 880.288 324.251 880.288 253.158C880.288 182.065 822.741 124.384 751.813 124.384C680.885 124.384 623.337 182.065 623.337 253.158C623.337 259.532 623.8 265.798 624.693 271.925C676.954 265.753 711.764 254.545 714.282 242.144C715.696 234.948 703.512 219.355 643.136 213.903H643.245C643.245 213.903 635.739 213.467 636.174 209.978C636.392 206.489 642.375 207.143 642.375 207.143C721.679 214.776 746.7 236.365 746.7 253.048ZM1050.21 634.899L1147.36 506.671H1192.83L953.719 823.099H907.812L907.895 822.989L871.259 823.316V798.019C853.092 813.611 829.486 822.989 803.704 822.989C746.374 822.989 699.596 775.993 699.596 718.53C699.596 661.067 746.265 614.181 803.704 614.181C829.486 614.181 852.983 623.667 871.259 639.26V617.67H871.368H907.92V822.956L1027.37 665.103L907.812 506.78H953.176L1050.21 634.899ZM605.062 507.323H490.729V823.533H527.172V715.585H605.062C662.392 715.585 708.952 668.917 708.952 611.454C708.952 553.991 662.392 507.323 605.062 507.323ZM671.419 611.455C671.419 648.091 641.612 677.968 605.06 677.968H527.17V544.941H605.06C641.612 544.941 671.419 574.818 671.419 611.455ZM736.256 718.966C736.256 756.257 766.607 786.679 803.812 786.679C841.016 786.679 871.368 756.366 871.368 718.966C871.368 681.566 841.016 651.254 803.812 651.254C766.607 651.254 736.256 681.675 736.256 718.966ZM1155.84 95.487V336.679L983.092 95.487H951.87V411.043H990.598V169.742L1163.68 411.043H1194.46V95.487H1155.84Z" fill="white"/>
</g>
</svg>
