<?xml version="1.0" encoding="UTF-8"?>
<svg width="120px" height="90px" viewBox="0 0 120 90" version="1.1" xmlns="http://www.w3.org/2000/svg" xmlns:xlink="http://www.w3.org/1999/xlink">
    <title>alipay</title>
    <g id="LOGO-+-SDK-+-payment-icon" stroke="none" stroke-width="1" fill="none" fill-rule="evenodd">
        <g id="payment" transform="translate(-2318.000000, -155.000000)">
            <g id="alipay" transform="translate(2318.000000, 155.000000)">
                <g id="payment-4:3bg" transform="translate(-20.000000, -15.000000)"></g>
                <g id="Alipay" transform="translate(19.000000, 4.000000)" fill="#1677FF" fill-rule="nonzero">
                    <path d="M13.0486957,0 C5.77565217,0 0,5.77565217 0,13.0486957 L0,68.2382609 C0,75.4043478 5.77565217,81.2869565 13.0486957,81.2869565 L68.3452174,81.2869565 C75.5113043,81.2869565 81.2869565,75.4043478 81.2869565,68.2382609 L81.2869565,67.7034783 C81.0730435,67.5965217 60.1095652,58.9330435 49.5208696,53.7991304 C42.3547826,62.5695652 33.1565217,67.9173913 23.5304348,67.9173913 C7.27304348,67.9173913 1.81826087,53.6921739 9.51913043,44.3869565 C11.2304348,42.3547826 14.0113043,40.4295652 18.5034783,39.36 C25.4556522,37.6486957 36.4721739,40.4295652 46.74,43.8521739 C48.5582609,40.4295652 50.1626087,36.686087 51.3391304,32.6217391 L19.466087,32.6217391 L19.466087,29.4130435 L35.8304348,29.4130435 L35.8304348,23.6373913 L16.0434783,23.6373913 L16.0434783,20.4286957 L35.9373913,20.4286957 L35.9373913,12.1930435 C35.9373913,12.1930435 35.9373913,10.8026087 37.3278261,10.8026087 L45.3495652,10.8026087 L45.3495652,20.4286957 L64.9226087,20.4286957 L64.9226087,23.6373913 L45.2426087,23.6373913 L45.2426087,29.4130435 L61.286087,29.4130435 C59.7886957,35.7234783 57.4356522,41.4991304 54.5478261,46.526087 C59.3608696,48.2373913 63.746087,49.9486957 67.0617391,51.0182609 C77.8643478,54.6547826 80.966087,55.0826087 81.393913,55.1895652 L81.393913,13.0486957 C81.2869565,5.77565217 75.5113043,0 68.2382609,0 L13.0486957,0 L13.0486957,0 Z M21.926087,44.066087 C21.1773913,44.066087 20.5356522,44.066087 19.7869565,44.1730435 C17.7547826,44.3869565 13.9043478,45.2426087 11.8721739,47.1678261 C5.66869565,52.6226087 9.41217391,62.5695652 22.0330435,62.5695652 C29.4130435,62.5695652 36.686087,57.8634783 42.4617391,50.3765217 C35.0817391,46.6330435 28.6643478,43.9591304 21.926087,44.066087 L21.926087,44.066087 Z" id="形状"></path>
                </g>
            </g>
        </g>
    </g>
</svg>