<?xml version="1.0" encoding="UTF-8"?>
<svg width="120px" height="90px" viewBox="0 0 120 90" version="1.1" xmlns="http://www.w3.org/2000/svg" xmlns:xlink="http://www.w3.org/1999/xlink">
    <title>alipayplus</title>
    <g id="LOGO-+-SDK-+-payment-icon" stroke="none" stroke-width="1" fill="none" fill-rule="evenodd">
        <g id="payment" transform="translate(-2318.000000, -555.000000)">
            <g id="alipayplus" transform="translate(2318.000000, 555.000000)">
                <g id="payment-4:3bg" transform="translate(-20.000000, -15.000000)"></g>
                <g id="A+-Partner" transform="translate(8.000000, 25.000000)" fill-rule="nonzero">
                    <path d="M19.2068822,20.0225785 L23.3868924,20.0225785 L23.3868924,0.585766924 L19.2068822,0.585766924 L19.2068822,20.0225785 Z M0,20.0225785 L3.86254105,20.0225785 L4.92077147,16.3482223 L11.5635725,16.3482223 L12.5688914,20.0225785 L17.5185237,20.0225785 L11.8810416,1.24899063 L6.27242033,1.24899063 L0,20.0225785 Z M5.79621664,13.2886794 L8.28305814,4.63288385 L8.38888118,4.63288385 L10.7458489,13.2886794 L5.79621664,13.2886794 Z M39.8471856,20.2113794 C43.5750428,20.2113794 46.9373294,17.4422994 46.9373294,12.5141116 C46.9373294,8.09423386 44.5033995,5.45586218 41.4874428,5.45586218 C39.9530086,5.45586218 38.7600944,6.0416291 37.4132556,7.15991141 L37.4132556,5.74632511 L33.2332455,5.74632511 L33.2332455,24.5441182 L37.4132556,24.5441182 L37.4132556,19.8821881 C38.2069284,20.1048763 38.9476897,20.2113794 39.8471856,20.2113794 M56.8558346,20.0225785 L61.0358448,20.0225785 L60.5307803,16.4547254 L60.5307803,10.4905531 C60.5307803,7.24220924 58.6259655,5.45586218 55.2636788,5.45586218 C53.1183572,5.45586218 51.6368346,5.82862295 48.938347,6.65644232 L49.6791083,9.93383246 C52.1418991,8.81555015 53.2241802,8.33628631 54.364183,8.33628631 C55.7398825,8.33628631 56.3507701,9.31901925 56.3507701,10.8391086 L56.3507701,10.9456117 C51.5598723,11.8508879 50.0831599,12.359198 49.1548032,13.2886794 C48.4669534,13.9809494 48.1783451,14.9685234 48.1783451,16.1110109 C48.1783451,18.8558857 50.294806,20.3178825 52.2813931,20.3178825 C53.7629157,20.3178825 54.95583,19.7611619 56.5672263,18.5363765 L56.8558346,20.0225785 Z M26.2441145,20.0225785 L30.4241247,20.0225785 L30.4241247,5.75116616 L26.2441145,5.75116616 L26.2441145,20.0225785 Z M75.4325887,5.78021246 L75.4614495,5.75116616 L71.5171361,5.75116616 L69.0302946,14.4311669 L68.9004209,14.4311669 L66.0431987,5.75116616 L61.358124,5.75116616 L66.9956061,20.07583 L64.6434485,24.4424562 L64.6434485,24.5489593 L68.3183942,24.5489593 L75.4325887,5.78021246 Z M39.9000971,8.73325232 C41.4633921,8.73325232 42.7044078,9.987084 42.7044078,12.6496609 C42.7044078,16.0577594 40.8765552,17.5778488 38.8418667,17.5778488 C38.365663,17.5778488 37.91351,17.5245972 37.4132556,17.3648426 L37.4132556,9.63852848 C38.2838907,9.02855631 39.0006013,8.73325232 39.9000971,8.73325232 M52.2284816,15.6849986 C52.2284816,15.2880326 52.3054438,14.8862255 52.627723,14.5667163 C53.1279774,14.0584062 54.1092456,13.6904865 56.3555802,13.15313 L56.3555802,16.5612285 C55.2444383,17.1760417 54.6095,17.4132531 53.8687387,17.4132531 C52.8634198,17.4132531 52.2284816,16.7500294 52.2284816,15.6849986" id="形状" fill="#3E3A3A"></path>
                    <path d="M25.9266454,2.3140214 C25.9266454,3.6985614 26.9319643,4.62804281 28.3365247,4.62804281 C29.7362749,4.62804281 30.7415938,3.6985614 30.7415938,2.3140214 C30.7415938,0.953686645 29.7362749,0 28.3365247,0 C26.9319643,0 25.9266454,0.958527694 25.9266454,2.3140214" id="路径" fill="#1677FF"></path>
                    <path d="M103.99519,14.9007487 L94.504787,14.9007487 C91.8928819,14.9007487 89.7764211,12.7706872 89.7764211,10.1419976 L101.715184,10.1419976 C102.975441,10.1419976 104,11.1682999 104,12.4414958 L104,14.9007487 L103.99519,14.9007487 Z" id="路径" fill="#1677FF"></path>
                    <path d="M87.4723648,14.9007487 L82.5660238,14.9007487 C81.3057675,14.9007487 80.2812081,13.8696053 80.2812081,12.6012504 L80.2812081,10.1371565 L87.4723648,10.1371565 L87.4723648,14.9007487 Z" id="路径" fill="#00B6FF"></path>
                    <path d="M89.7764211,10.1419976 L89.7764211,0.585766924 L92.2247815,0.585766924 C93.4850377,0.585766924 94.5095972,1.61691035 94.5095972,2.88526518 L94.5095972,14.9007487 C91.8928819,14.9007487 89.7764211,12.7706872 89.7764211,10.1419976" id="路径" fill="#1677FF"></path>
                    <path d="M89.7764211,22.15264 L89.7764211,17.2341343 L94.504787,17.2341343 L94.504787,24.4521383 L92.0564266,24.4521383 C90.7961704,24.4521383 89.7764211,23.4258359 89.7764211,22.15264" id="路径" fill="#00B6FF"></path>
                    <path d="M6.27723047,30.5373368 C6.73419361,30.5373368 7.15267564,30.6099526 7.5374867,30.750343 C7.92229777,30.8955745 8.25419731,31.0940575 8.53318533,31.3506331 C8.81217335,31.6072087 9.02862957,31.9218768 9.182554,32.2897966 C9.33647842,32.6577163 9.41344064,33.0692054 9.41344064,33.5291051 C9.41344064,33.9890047 9.33647842,34.4004939 9.182554,34.7684136 C9.02862957,35.1363333 8.81698349,35.4510015 8.53318533,35.7124182 C8.25419731,35.9738348 7.92229777,36.1771589 7.5374867,36.3223903 C7.15267564,36.4676218 6.73419361,36.5353965 6.27723047,36.5353965 L3.58355303,36.5353965 L3.58355303,40.737427 L2.50608205,40.737427 L2.50608205,30.5373368 L6.27723047,30.5373368 Z M3.58836317,31.5103877 L3.58836317,35.5671867 L6.19545812,35.5671867 C6.83039637,35.5671867 7.34508117,35.39775 7.73951251,35.0588766 C8.13394385,34.7200031 8.33115952,34.211693 8.33115952,33.5339461 C8.33115952,32.8561993 8.13394385,32.3478891 7.73951251,32.0138568 C7.34508117,31.6798244 6.83039637,31.5103877 6.19545812,31.5103877 L3.58836317,31.5103877 L3.58836317,31.5103877 Z" id="形状" fill="#3E3A3A"></path>
                    <path d="M24.3777809,40.742268 L23.2233477,40.742268 L22.4104343,38.4330877 L17.9802969,38.4330877 L17.1673836,40.742268 L16.0129504,40.742268 L19.7456177,30.5373368 L20.6547338,30.5373368 L24.3777809,40.742268 Z M18.3121965,37.4890831 L22.088155,37.4890831 L20.207391,32.0864725 L18.3121965,37.4890831 Z" id="形状" fill="#3E3A3A"></path>
                    <path d="M36.4560381,30.5373368 C36.8937607,30.5373368 37.2978123,30.6002705 37.668193,30.7309788 C38.0385736,30.8616871 38.3560427,31.045647 38.6206003,31.2876994 C38.8851579,31.5297519 39.0919939,31.8298969 39.2411082,32.1832935 C39.3902225,32.5366901 39.4623745,32.9336561 39.4623745,33.3741915 C39.4623745,34.1197131 39.2555386,34.7296852 38.851487,35.199267 C38.4426252,35.6736898 37.91351,35.9738348 37.2545211,36.1093842 L39.6595902,40.737427 L38.3945238,40.737427 L36.0856575,36.2062052 L33.6517275,36.2062052 L33.6517275,40.737427 L32.5694464,40.737427 L32.5694464,30.5373368 L36.4560381,30.5373368 Z M33.6517275,31.5103877 L33.6517275,35.2525185 L36.3598353,35.2525185 C36.9562925,35.2525185 37.4421165,35.097605 37.8173072,34.7926189 C38.192498,34.4876328 38.3800934,34.018051 38.3800934,33.3887147 C38.3800934,32.7593783 38.192498,32.2849555 37.8173072,31.9751284 C37.4421165,31.6653012 36.9562925,31.5103877 36.3598353,31.5103877 L33.6517275,31.5103877 Z" id="形状" fill="#3E3A3A"></path>
                    <polygon id="路径" fill="#3E3A3A" points="54.0322834 31.5103877 51.0980991 31.5103877 51.0980991 40.742268 50.015818 40.742268 50.015818 31.5103877 47.0816336 31.5103877 47.0816336 30.5373368 54.0322834 30.5373368"></polygon>
                    <polygon id="路径" fill="#3E3A3A" points="69.9682716 40.742268 68.9437121 40.742268 63.5611674 32.5560543 63.5611674 40.742268 62.4788863 40.742268 62.4788863 30.5373368 63.5034457 30.5373368 68.8859905 38.6945043 68.8859905 30.5373368 69.9682716 30.5373368"></polygon>
                    <polygon id="路径" fill="#3E3A3A" points="85.7455252 31.5103877 80.5361454 31.5103877 80.5361454 35.1072871 84.9807132 35.1072871 84.9807132 36.0851789 80.5361454 36.0851789 80.5361454 39.7692172 85.7455252 39.7692172 85.7455252 40.742268 79.4538643 40.742268 79.4538643 30.5373368 85.7455252 30.5373368"></polygon>
                    <path d="M98.43467,30.5373368 C98.8723926,30.5373368 99.2764442,30.6002705 99.6468248,30.7309788 C100.017205,30.8616871 100.334675,31.045647 100.599232,31.2876994 C100.86379,31.5297519 101.070626,31.8298969 101.21974,32.1832935 C101.368854,32.5366901 101.441006,32.9336561 101.441006,33.3741915 C101.441006,34.1197131 101.23417,34.7296852 100.830119,35.199267 C100.421257,35.6736898 99.8921419,35.9738348 99.233153,36.1093842 L101.638222,40.737427 L100.373156,40.737427 L98.0642893,36.2062052 L95.6303594,36.2062052 L95.6303594,40.737427 L94.5480783,40.737427 L94.5480783,30.5373368 L98.43467,30.5373368 Z M95.6303594,31.5103877 L95.6303594,35.2525185 L98.3384672,35.2525185 C98.9349244,35.2525185 99.4207483,35.097605 99.7959391,34.7926189 C100.17113,34.4876328 100.358725,34.018051 100.358725,33.3887147 C100.358725,32.7593783 100.17113,32.2849555 99.7959391,31.9751284 C99.4207483,31.6653012 98.9349244,31.5103877 98.3384672,31.5103877 L95.6303594,31.5103877 Z" id="形状" fill="#3E3A3A"></path>
                </g>
            </g>
        </g>
    </g>
</svg>