<?xml version="1.0" encoding="UTF-8"?>
<svg width="180px" height="30px" viewBox="0 0 180 30" version="1.1" xmlns="http://www.w3.org/2000/svg" xmlns:xlink="http://www.w3.org/1999/xlink">
    <title>alipayplus_horizon</title>
    <g id="LOGO-+-SDK-+-payment-icon" stroke="none" stroke-width="1" fill="none" fill-rule="evenodd">
        <g id="payment_horizon" transform="translate(-2288.000000, -585.000000)">
            <g id="alipayplus_horizon" transform="translate(2288.000000, 585.000000)">
                <g id="payment-4:3bg" transform="translate(-30.000000, -5.000000)"></g>
                <g transform="translate(7.000000, 5.000000)" fill-rule="nonzero">
                    <path d="M16.4471849,17.1246057 L20.0265998,17.1246057 L20.0265998,0.500985804 L16.4471849,0.500985804 L16.4471849,17.1246057 Z M0,17.1246057 L3.30756061,17.1246057 L4.21374159,13.9820584 L9.9020868,13.9820584 L10.7629587,17.1246057 L15.0014144,17.1246057 L10.1739411,1.06821767 L5.37118186,1.06821767 L0,17.1246057 Z M4.96340041,11.3653391 L7.09292573,3.96234227 L7.18354383,3.96234227 L9.20185603,11.3653391 L4.96340041,11.3653391 Z M34.1218332,17.2860804 C37.3181807,17.2860804 40.1932458,14.9177839 40.1932458,10.7028785 C40.1932458,6.92271293 38.1090296,4.66620662 35.5264137,4.66620662 C34.2124513,4.66620662 33.1909382,5.16719243 32.0376169,6.12361987 L32.0376169,4.91876972 L28.458202,4.91876972 L28.458202,20.9958596 L32.0376169,20.9958596 L32.0376169,17.0086751 C32.7172527,17.1949921 33.3515794,17.2860804 34.1218332,17.2860804 M48.6866331,17.1246057 L52.266048,17.1246057 L51.8335525,14.0731467 L51.8335525,8.97220032 C51.8335525,6.19400631 50.2024267,4.66620662 47.3232426,4.66620662 C45.4861666,4.66620662 44.2175132,4.98501577 41.9067517,5.6930205 L42.5410784,8.49605678 C44.6500087,7.53962934 45.5767847,7.12973186 46.5529888,7.12973186 C47.731024,7.12973186 48.2541376,7.97022871 48.2541376,9.27030757 L48.2541376,9.3613959 C44.1516091,10.1356467 42.8829558,10.5703864 42.0921069,11.3653391 C41.5030893,11.9574132 41.255949,12.8020505 41.255949,13.7791798 C41.255949,16.1267744 43.068311,17.3771688 44.7694598,17.3771688 C46.0381132,17.3771688 47.0596263,16.9010252 48.4394928,15.8493691 L48.6866331,17.1246057 Z M22.4732885,17.1246057 L26.0527034,17.1246057 L26.0527034,4.91876972 L22.4732885,4.91876972 L22.4732885,17.1246057 Z M64.5942284,4.94361199 L64.6148235,4.92291009 L61.2372398,4.92291009 L59.1077144,12.3466088 L58.9965013,12.3466088 L56.5498127,4.92291009 L52.5379023,4.92291009 L57.3653755,17.1742902 L55.3470633,20.9089117 L55.3470633,21 L58.4981018,21 L64.5942284,4.94361199 Z M34.1671423,7.4692429 C35.5058187,7.4692429 36.5685219,8.54160095 36.5685219,10.8188091 C36.5685219,13.7336356 35.0033002,15.0337145 33.2609613,15.0337145 C32.8531798,15.0337145 32.4659934,14.9881703 32.0376169,14.8515379 L32.0376169,8.24349369 C32.7831567,7.72180599 33.3968884,7.4692429 34.1671423,7.4692429 M44.7241508,13.4148265 C44.7241508,13.0753155 44.7900548,12.731664 45.0660281,12.4583991 C45.4944046,12.0236593 46.3346815,11.7089905 48.2582566,11.2535489 L48.2582566,14.1683754 C47.3067666,14.6942035 46.763058,14.897082 46.1287313,14.897082 C45.2678594,14.8929416 44.7241508,14.3257098 44.7241508,13.4148265" id="形状" fill="#3E3A3A"></path>
                    <path d="M22.2014342,1.97910095 C22.2014342,3.16324921 23.0623061,3.95820189 24.2650555,3.95820189 C25.4678048,3.95820189 26.3286767,3.16324921 26.3286767,1.97910095 C26.3286767,0.815654574 25.4678048,0 24.2650555,0 C23.0623061,0 22.2014342,0.819794953 22.2014342,1.97910095" id="路径" fill="#1677FF"></path>
                    <path d="M89.0528771,12.7440852 L80.9260812,12.7440852 C78.6894618,12.7440852 76.8770998,10.9223186 76.8770998,8.67409306 L87.100469,8.67409306 C88.1796481,8.67409306 89.0569961,9.55599369 89.0569961,10.6407729 L89.0569961,12.7440852 L89.0528771,12.7440852 Z" id="路径" fill="#1677FF"></path>
                    <path d="M74.9040967,12.7440852 L70.7027121,12.7440852 C69.6235329,12.7440852 68.746185,11.8663249 68.746185,10.7774054 L68.746185,8.66995268 L74.9040967,8.66995268 L74.9040967,12.7440852 Z" id="路径" fill="#00B6FF"></path>
                    <path d="M76.8770998,8.67409306 L76.8770998,0.500985804 L78.9736731,0.500985804 C80.0528523,0.500985804 80.9302002,1.38288644 80.9302002,2.46766562 L80.9302002,12.7440852 C78.6894618,12.7440852 76.8770998,10.9223186 76.8770998,8.67409306" id="路径" fill="#1677FF"></path>
                    <path d="M76.8770998,18.9463722 L76.8770998,14.7397476 L80.9260812,14.7397476 L80.9260812,20.9130521 L78.829508,20.9130521 C77.7503288,20.9130521 76.8770998,20.0352918 76.8770998,18.9463722" id="路径" fill="#00B6FF"></path>
                    <path d="M102.159549,6.8523265 C102.53026,6.8523265 102.872137,6.9102918 103.185182,7.0262224 C103.498226,7.142153 103.77008,7.30776814 103.996625,7.51478707 C104.223171,7.72594637 104.400288,7.97850946 104.523858,8.2807571 C104.647428,8.57886435 104.709213,8.91837539 104.709213,9.29100946 C104.709213,9.66364353 104.647428,10.0031546 104.523858,10.3012618 C104.400288,10.5993691 104.223171,10.8560726 103.996625,11.0713722 C103.77008,11.2866719 103.498226,11.4522871 103.185182,11.5682177 C102.872137,11.6841483 102.53026,11.7421136 102.159549,11.7421136 L99.96412,11.7421136 L99.96412,15.1620662 L99.082653,15.1620662 L99.082653,6.8523265 L102.159549,6.8523265 Z M99.96412,7.64727918 L99.96412,10.9513013 L102.089526,10.9513013 C102.608521,10.9513013 103.028659,10.8146688 103.349942,10.5372634 C103.671224,10.259858 103.831865,9.84582019 103.831865,9.29514984 C103.831865,8.7444795 103.671224,8.33044164 103.349942,8.05717666 C103.028659,7.78391167 102.608521,7.64727918 102.089526,7.64727918 L99.96412,7.64727918 L99.96412,7.64727918 Z" id="形状" fill="#3E3A3A"></path>
                    <path d="M114.598943,15.1662066 L113.65981,15.1662066 L112.99665,13.2864748 L109.384283,13.2864748 L108.721124,15.1662066 L107.781991,15.1662066 L110.825935,6.8523265 L111.567356,6.8523265 L114.598943,15.1662066 Z M109.652019,12.5163644 L112.728915,12.5163644 L111.196645,8.11514196 L109.652019,12.5163644 Z" id="形状" fill="#3E3A3A"></path>
                    <path d="M122.124364,6.8523265 C122.478599,6.8523265 122.808119,6.90615142 123.112925,7.00966088 C123.413613,7.11317035 123.67311,7.26636435 123.891417,7.46510252 C124.109724,7.66384069 124.278604,7.90812303 124.398055,8.19380915 C124.517506,8.48363565 124.579291,8.80658517 124.579291,9.16265773 C124.579291,9.77129338 124.414531,10.2681388 124.080891,10.653194 C123.747252,11.0382492 123.314756,11.2866719 122.779286,11.3943218 L124.744051,15.1662066 L123.710181,15.1662066 L121.827796,11.4771293 L119.842436,11.4771293 L119.842436,15.1662066 L118.960969,15.1662066 L118.960969,6.8523265 L122.124364,6.8523265 Z M119.838317,7.64727918 L119.838317,10.6945978 L122.046103,10.6945978 C122.532146,10.6945978 122.931689,10.5703864 123.236495,10.3219637 C123.541302,10.073541 123.693705,9.69262618 123.693705,9.17921924 C123.693705,8.6658123 123.541302,8.2807571 123.236495,8.02819401 C122.931689,7.77563091 122.532146,7.64727918 122.046103,7.64727918 L119.838317,7.64727918 Z" id="形状" fill="#3E3A3A"></path>
                    <polygon id="路径" fill="#3E3A3A" points="134.135381 7.64727918 131.74224 7.64727918 131.74224 15.1662066 130.860773 15.1662066 130.860773 7.64727918 128.467631 7.64727918 128.467631 6.8523265 134.135381 6.8523265"></polygon>
                    <polygon id="路径" fill="#3E3A3A" points="144.807722 15.1662066 143.971564 15.1662066 139.580705 8.50019716 139.580705 15.1662066 138.699238 15.1662066 138.699238 6.8523265 139.535396 6.8523265 143.926255 13.4976341 143.926255 6.8523265 144.807722 6.8523265"></polygon>
                    <polygon id="路径" fill="#3E3A3A" points="155.352373 7.64727918 151.101561 7.64727918 151.101561 10.5786672 154.726285 10.5786672 154.726285 11.3694795 151.101561 11.3694795 151.101561 14.3712539 155.352373 14.3712539 155.352373 15.1662066 150.220094 15.1662066 150.220094 6.8523265 155.352373 6.8523265"></polygon>
                    <path d="M163.380313,6.8523265 C163.734548,6.8523265 164.064068,6.90615142 164.368874,7.00966088 C164.669562,7.11317035 164.929059,7.26636435 165.147366,7.46510252 C165.365673,7.66384069 165.534552,7.90812303 165.654004,8.19380915 C165.773455,8.48363565 165.83524,8.80658517 165.83524,9.16265773 C165.83524,9.77129338 165.666361,10.2681388 165.33684,10.653194 C165.003201,11.0382492 164.570705,11.2866719 164.035235,11.3943218 L166,15.1662066 L164.96613,15.1662066 L163.083745,11.4771293 L161.098385,11.4771293 L161.098385,15.1662066 L160.216918,15.1662066 L160.216918,6.8523265 L163.380313,6.8523265 Z M161.090147,7.64727918 L161.090147,10.6945978 L163.297933,10.6945978 C163.783976,10.6945978 164.183519,10.5703864 164.488325,10.3219637 C164.793132,10.073541 164.945535,9.69262618 164.945535,9.17921924 C164.945535,8.6658123 164.793132,8.2807571 164.488325,8.02819401 C164.183519,7.77563091 163.783976,7.64727918 163.297933,7.64727918 L161.090147,7.64727918 Z" id="形状" fill="#3E3A3A"></path>
                </g>
            </g>
        </g>
    </g>
</svg>