<svg width="360" height="270" viewBox="0 0 360 270" fill="none" xmlns="http://www.w3.org/2000/svg">
<path d="M258.556 173.192H251.698C250.043 173.192 249.097 171.536 249.806 170.117L255.482 157.111C255.718 156.874 255.718 156.401 255.482 156.165L238.692 115.49C237.982 114.071 239.165 112.416 240.583 112.416H247.441C249.097 112.416 250.752 113.361 251.462 115.017L261.63 140.793C261.867 141.266 262.34 141.266 262.34 140.793L272.982 115.017C273.691 113.361 275.11 112.416 277.002 112.416H283.86C285.515 112.416 286.461 114.071 285.752 115.49L262.576 170.354C261.63 172.482 260.921 173.192 258.556 173.192ZM133.693 171.063V114.78C133.693 113.598 134.639 112.652 135.822 112.652H143.153C144.335 112.652 145.281 113.598 145.281 114.78V119.037C145.281 119.51 145.99 119.746 146.227 119.273C149.065 114.307 154.74 112.652 159.943 112.652C171.294 112.652 181.699 122.348 181.699 136.064C181.699 150.016 171.294 159.476 159.943 159.476C155.923 159.476 149.301 158.293 145.99 153.8C145.754 153.563 145.281 153.563 145.281 154.036V171.063C145.281 172.246 144.335 173.192 143.153 173.192H135.822C134.639 173.192 133.693 172.246 133.693 171.063ZM157.815 149.07C164.909 149.07 170.348 144.104 170.348 135.827C170.348 127.55 164.909 122.584 157.815 122.584C151.43 122.584 145.281 127.787 145.281 135.827C145.281 143.868 151.43 149.07 157.815 149.07ZM231.834 158.293H224.503C223.32 158.293 222.374 157.347 222.374 156.165V152.381C222.374 151.908 221.901 151.672 221.665 152.145C218.827 156.874 213.624 159.476 207.712 159.476C196.361 159.476 185.72 150.016 185.72 136.064C185.72 122.111 196.361 112.416 207.712 112.416C213.151 112.416 218.827 114.307 221.665 119.037C221.901 119.51 222.611 119.273 222.611 118.801V114.78C222.611 113.598 223.557 112.652 224.739 112.652H232.07C233.253 112.652 234.198 113.598 234.198 114.78V156.165C233.962 157.111 233.016 158.293 231.834 158.293ZM222.374 135.827C222.374 127.55 215.989 122.348 209.604 122.348C202.51 122.348 197.071 127.55 197.071 135.827C197.071 144.104 202.51 149.07 209.604 149.07C215.989 149.307 222.374 144.104 222.374 135.827ZM101.295 158.057H93.4913C92.3089 158.057 91.3629 157.111 91.3629 155.928V99.1725C91.3629 97.9901 92.3089 97.0441 93.4913 97.0441H101.295C102.478 97.0441 103.424 97.9901 103.424 99.1725V156.165C103.424 157.111 102.478 158.057 101.295 158.057ZM122.342 158.293H114.538C113.356 158.293 112.41 157.347 112.41 156.165V114.78C112.41 113.598 113.356 112.652 114.538 112.652H122.342C123.525 112.652 124.471 113.598 124.471 114.78V156.165C124.471 157.111 123.525 158.293 122.342 158.293ZM122.342 109.105H114.538C113.356 109.105 112.41 108.159 112.41 106.976V99.1725C112.41 97.9901 113.356 97.0441 114.538 97.0441H122.342C123.525 97.0441 124.471 97.9901 124.471 99.1725V106.976C124.471 107.922 123.525 109.105 122.342 109.105Z" fill="#0066FF"/>
<path d="M337.299 112.653H334.698C333.989 112.653 333.752 112.889 332.806 112.889C328.077 113.835 324.293 116.436 321.455 123.767H333.752C334.462 123.767 335.171 123.294 335.644 122.585L338.955 115.018C339.191 113.835 338.482 112.653 337.299 112.653Z" fill="#00B5FF"/>
<path d="M332.572 112.653C320.747 113.126 309.633 121.876 307.741 134.173L307.268 137.247C307.031 138.429 307.977 139.612 309.16 139.612H316.254C317.2 139.612 318.146 138.902 318.146 137.956L319.329 132.281C319.801 128.97 320.511 126.369 321.457 124.004C324.058 116.673 327.842 114.072 332.808 113.126C333.754 112.889 333.99 112.889 334.7 112.889C334.7 112.653 332.808 112.653 332.572 112.653Z" fill="#0066FF"/>
<path d="M293.319 123.767H295.92C296.63 123.767 296.866 123.531 297.812 123.531C302.542 122.585 306.326 119.984 309.163 112.653H296.866C296.157 112.653 295.447 113.126 294.975 113.835L291.664 121.403C291.191 122.585 292.137 123.767 293.319 123.767Z" fill="#00B5FF"/>
<path d="M298.047 123.767C309.871 123.294 320.986 114.545 322.878 102.247L323.351 99.1732C323.587 97.9908 322.641 96.8083 321.459 96.8083H314.364C313.418 96.8083 312.472 97.5178 312.472 98.4637L311.29 104.139C310.817 107.45 310.108 110.051 309.162 112.416C306.56 119.747 302.777 122.348 297.811 123.294C296.865 123.531 296.628 123.531 295.919 123.531C295.919 123.767 297.811 123.767 298.047 123.767ZM50.4498 114.545C50.9227 113.599 52.1051 113.599 52.5781 114.545C55.6524 122.112 69.1319 155.929 69.1319 155.929C69.6049 157.111 70.7873 158.057 72.2062 158.057H80.7195C81.902 158.057 82.6114 156.875 82.1384 155.929C78.3547 146.706 62.5104 109.342 58.0172 98.7002C57.5442 97.5178 56.3618 96.8083 55.1794 96.8083H47.8485C46.666 96.8083 45.4836 97.5178 45.0107 98.7002C40.754 108.632 24.6732 146.706 21.1259 156.165C20.653 157.111 21.5989 158.294 22.5448 158.294H30.5852C32.0041 158.294 33.423 157.584 33.896 156.165L50.4498 114.545Z" fill="#0066FF"/>
<path d="M88.7593 121.875C87.8133 119.747 86.3944 116.909 85.212 115.253C84.5026 114.307 83.5566 114.071 82.3742 114.307C66.2934 117.618 54.4693 124.949 49.7396 129.915C42.4087 137.483 42.4087 144.577 47.1383 148.597C45.4829 145.523 47.8478 141.266 54.4693 136.773C67.0028 128.26 87.5768 124.476 87.5768 124.476C88.5228 124.24 89.2322 122.821 88.7593 121.875Z" fill="url(#paint0_linear_2812_87660)"/>
<path d="M47.3766 143.868C46.4307 145.76 46.4307 147.415 47.1401 148.598C49.032 150.253 54.2346 153.091 67.9506 152.618L65.3493 145.996C58.9642 146.706 50.6873 146.942 47.3766 143.868Z" fill="url(#paint1_linear_2812_87660)"/>
<defs>
<linearGradient id="paint0_linear_2812_87660" x1="29.9224" y1="149.234" x2="75.346" y2="123.008" gradientUnits="userSpaceOnUse">
<stop stop-color="#0055EF"/>
<stop offset="0.104" stop-color="#0058F2"/>
<stop offset="0.175" stop-color="#0061FA"/>
<stop offset="0.2" stop-color="#0066FF"/>
<stop offset="0.357" stop-color="#006CFF"/>
<stop offset="0.564" stop-color="#007CFF"/>
<stop offset="0.798" stop-color="#0098FF"/>
<stop offset="1" stop-color="#00B5FF"/>
</linearGradient>
<linearGradient id="paint1_linear_2812_87660" x1="43.3729" y1="143.14" x2="69.937" y2="152.807" gradientUnits="userSpaceOnUse">
<stop stop-color="#000ABD"/>
<stop offset="0.115" stop-color="#0014C1"/>
<stop offset="0.307" stop-color="#002ECB"/>
<stop offset="0.554" stop-color="#0058DB"/>
<stop offset="0.843" stop-color="#0092F2"/>
<stop offset="1" stop-color="#00B5FF"/>
</linearGradient>
</defs>
</svg>
