<?xml version="1.0" encoding="UTF-8"?>
<svg width="120px" height="90px" viewBox="0 0 120 90" version="1.1" xmlns="http://www.w3.org/2000/svg" xmlns:xlink="http://www.w3.org/1999/xlink">
    <title>alipayhk</title>
    <g id="LOGO-+-SDK-+-payment-icon" stroke="none" stroke-width="1" fill="none" fill-rule="evenodd">
        <g id="payment" transform="translate(-2318.000000, -355.000000)">
            <g id="alipayhk" transform="translate(2318.000000, 355.000000)">
                <g id="payment-4:3bg" transform="translate(-20.000000, -15.000000)"></g>
                <g id="Alipay-HK" transform="translate(19.000000, 4.000000)">
                    <path d="M60.2069758,8.80464262e-16 C67.3112658,-4.24572632e-16 70.1704594,0.693472583 72.7828223,2.00096591 L73.1300257,2.17893002 C73.1877661,2.20919482 73.2454724,2.2397611 73.3031885,2.27062798 C76.0735589,3.75223827 78.2477617,5.92644115 79.729372,8.69681152 L79.82107,8.86997433 L79.9990341,9.2171777 C81.3065274,11.8295406 82,14.6887342 82,21.7930242 L82.000961,54.3715043 C77.7269641,53.5353045 72.5898736,52.1022592 66.5896896,50.0723684 C63.5455903,49.0855263 59.5195236,47.5065789 55.1006699,45.9276316 C57.7519821,41.2894737 59.9123106,35.9605263 61.2870651,30.1381579 L61.2870651,30.1381579 L46.5575527,30.1381579 L46.5575527,24.8092105 L64.6257546,24.8092105 L64.6257546,21.8486842 L46.6557495,21.8486842 L46.6557495,12.9671053 L39.2909933,12.9671053 C38.0144355,12.9671053 38.0144355,14.25 38.0144355,14.25 L38.0144355,21.8486842 L19.7498402,21.8486842 L19.7498402,24.8092105 L37.9162388,24.8092105 L37.9162388,30.1381579 L22.8921362,30.1381579 L22.8921362,33.0986842 L52.1547674,33.0986842 C51.0746032,36.8486842 49.6016519,40.3026316 47.9323072,43.4605263 C38.5054193,40.3026316 28.3911541,37.7368421 22.0083654,39.3157895 C17.8841019,40.3026316 15.3309865,42.0789474 13.7598385,43.9539474 C6.68967253,52.5394737 11.6977067,65.6644737 26.6236126,65.6644737 C35.4613201,65.6644737 43.9062405,60.7302632 50.4854227,52.6381579 C56.9664081,55.7960526 67.4710852,60.4177755 81.9994538,66.5033266 L81.736,66.393 L81.7073746,66.6565406 C81.3884123,69.4363187 80.8125855,71.157352 79.9990341,72.7828223 L79.82107,73.1300257 C79.7908052,73.1877661 79.7602389,73.2454724 79.729372,73.3031885 C78.2477617,76.0735589 76.0735589,78.2477617 73.3031885,79.729372 L73.1300257,79.82107 L72.7828223,79.9990341 C70.1704594,81.3065274 67.3112658,82 60.2069758,82 L21.7930242,82 C14.6887342,82 11.8295406,81.3065274 9.2171777,79.9990341 L8.86997433,79.82107 C8.81223388,79.7908052 8.75452757,79.7602389 8.69681152,79.729372 C5.92644115,78.2477617 3.75223827,76.0735589 2.27062798,73.3031885 L2.17893002,73.1300257 L2.00096591,72.7828223 C0.693472583,70.1704594 2.83048421e-16,67.3112658 -5.86976174e-16,60.2069758 L0,39.7352159 L39.7352159,0 L60.2069758,8.80464262e-16 Z M25.1506614,43.6578947 C31.3370566,43.5592105 37.2288615,46.0263158 44.0044372,49.4802632 C38.7018128,56.3881579 32.0244338,60.7302632 25.2488581,60.7302632 C13.6616417,60.7302632 10.2247555,51.5526316 15.920167,46.5197368 C17.7859052,44.7434211 21.3209882,43.9539474 23.1867264,43.7565789 C23.8741036,43.6578947 24.4632841,43.6578947 25.1506614,43.6578947 Z" id="形状结合" fill="#00A0E9"></path>
                    <path d="M39.7352159,0 L0,39.7352159 L5.86976174e-16,21.7930242 C-2.83048421e-16,14.6887342 0.693472583,11.8295406 2.00096591,9.2171777 L2.17893002,8.86997433 C2.20919482,8.81223388 2.2397611,8.75452757 2.27062798,8.69681152 C3.75223827,5.92644115 5.92644115,3.75223827 8.69681152,2.27062798 L8.86997433,2.17893002 L8.86997433,2.17893002 L9.2171777,2.00096591 C11.8295406,0.693472583 14.6887342,4.24572632e-16 21.7930242,-8.80464262e-16 L39.7352159,0 Z" id="形状结合" fill="#F8F8F8"></path>
                    <path d="M46.6557495,12.9671053 L46.6557495,21.8486842 L64.6257546,21.8486842 L64.6257546,24.8092105 L46.5575527,24.8092105 L46.5575527,30.1381579 L61.2870651,30.1381579 C59.9123106,35.9605263 57.7519821,41.2894737 55.1006699,45.9276316 C59.5195236,47.5065789 63.5455903,49.0855263 66.5896896,50.0723684 C72.5898736,52.1022592 77.7269641,53.5353045 82.000961,54.3715043 L82,60.2069758 C82,62.7533332 81.9109105,64.7543285 81.7363899,66.3940676 L81.9994538,66.5033266 C67.4710852,60.4177755 56.9664081,55.7960526 50.4854227,52.6381579 C43.9062405,60.7302632 35.4613201,65.6644737 26.6236126,65.6644737 C11.6977067,65.6644737 6.68967253,52.5394737 13.7598385,43.9539474 C15.3309865,42.0789474 17.8841019,40.3026316 22.0083654,39.3157895 C28.3911541,37.7368421 38.5054193,40.3026316 47.9323072,43.4605263 C49.6016519,40.3026316 51.0746032,36.8486842 52.1547674,33.0986842 L22.8921362,33.0986842 L22.8921362,30.1381579 L37.9162388,30.1381579 L37.9162388,24.8092105 L19.7498402,24.8092105 L19.7498402,21.8486842 L38.0144355,21.8486842 L38.0144355,14.25 C38.0144355,14.25 38.0144355,12.9671053 39.2909933,12.9671053 L46.6557495,12.9671053 Z M25.1506614,43.6578947 C24.4632841,43.6578947 23.8741036,43.6578947 23.1867264,43.7565789 C21.3209882,43.9539474 17.7859052,44.7434211 15.920167,46.5197368 C10.2247555,51.5526316 13.6616417,60.7302632 25.2488581,60.7302632 C32.0244338,60.7302632 38.7018128,56.3881579 44.0044372,49.4802632 C37.2288615,46.0263158 31.3370566,43.5592105 25.1506614,43.6578947 Z" id="形状结合" fill="#FFFFFF"></path>
                    <path d="M8.85707209,10.3905215 L16.1763869,17.7098363 L15.3253038,18.5609194 L11.8809203,15.116536 L8.02601446,18.9714418 L11.4703979,22.4158253 L10.6193148,23.2669084 L3.3,15.9475936 L4.15108311,15.0965105 L7.26504603,18.2104734 L11.1199519,14.3555675 L8.00598898,11.2416046 L8.85707209,10.3905215 Z M15.0512653,4.19632825 L15.2865648,10.3191203 L22.7669084,11.1193148 L21.7656341,12.120589 L15.2615329,11.5256558 L15.1764246,12.9724971 L18.0450754,15.8411478 L17.1939922,16.6922309 L9.87467747,9.37291613 L10.7257606,8.52183302 L14.3553797,12.1514522 L14.0449847,5.20260887 L15.0512653,4.19632825 Z" id="形状结合" fill="#00A0E9" fill-rule="nonzero"></path>
                </g>
            </g>
        </g>
    </g>
</svg>