<?xml version="1.0" encoding="UTF-8"?>
<svg width="160px" height="40px" viewBox="0 0 160 40" version="1.1" xmlns="http://www.w3.org/2000/svg" xmlns:xlink="http://www.w3.org/1999/xlink">
    <title>alipayhk_horizon</title>
    <defs>
        <path d="M12.4837948,0 C12.2267224,0 11.9696501,0.0668244466 11.7261078,0.213838229 L11.7261078,0.213838229 C11.5006058,0.356397049 11.3202041,0.556870388 11.2119631,0.78852847 L11.2119631,0.78852847 L0,23.6157594 L3.97334654,23.6157594 L5.98482504,19.7577614 L17.4177802,19.7577614 L19.2804273,23.6157594 L25.2336821,23.6157594 L14.1119198,0 L12.4837948,0 Z M11.8072886,7.6803564 L16.6781334,17.8822219 L6.742512,17.8822219 L11.8072886,7.6803564 Z" id="path-1"></path>
        <path d="M1.04181958,0 C0.775727134,0 0.509634687,0.0980091884 0.30668282,0.298482528 L0.30668282,0.298482528 C0.103730954,0.498955868 0,0.761798691 0,1.02018655 L0,1.02018655 L0,23.6202144 L5.38949956,23.6202144 L5.38949956,0 L1.04181958,0 Z" id="path-3"></path>
        <path d="M1.03730954,0 C0.775727134,0 0.505124645,0.102464151 0.297662737,0.298482528 L0.297662737,0.298482528 C0.0992209124,0.498955868 0,0.752888765 0,1.01127663 L0,1.01127663 L0,17.4144508 L5.41655981,17.4144508 L5.41655981,0 L1.03730954,0 Z" id="path-5"></path>
        <path d="M7.60392993,0.485590979 C6.79212246,0.810803286 6.07953591,1.22065989 5.45264014,1.7151608 L5.45264014,1.7151608 L5.45264014,0.351942085 L1.05534971,0.351942085 C0.784747217,0.351942085 0.51865477,0.4588612 0.311192862,0.650424614 L0.311192862,0.650424614 C0.103730954,0.855352917 0,1.11819574 0,1.3765836 L0,1.3765836 L0,24.6225811 L5.45264014,24.6225811 L5.45264014,17.6371989 C5.94874471,17.8376723 6.45386935,17.9579563 6.97703416,18.0158708 L6.97703416,18.0158708 C7.49568893,18.0648754 8.11356461,18.0960601 8.82615117,18.0960601 L8.82615117,18.0960601 C10.2377941,18.0960601 11.5096258,17.8421272 12.6416463,17.3520813 L12.6416463,17.3520813 C13.7781767,16.8486705 14.7433256,16.1670611 15.550623,15.2760685 L15.550623,15.2760685 C16.3489003,14.3984408 16.9577559,13.3515244 17.3862099,12.1442294 L17.3862099,12.1442294 C17.8191739,10.9413894 18.0311458,9.62272031 18.0311458,8.19267715 L18.0311458,8.19267715 C18.0311458,7.07893638 17.8507442,6.02756508 17.4899408,5.03410831 L17.4899408,5.03410831 C17.1291375,4.04065154 16.6149928,3.1763887 15.9475067,2.43240986 L15.9475067,2.43240986 C15.2845306,1.68397605 14.4772331,1.09146596 13.5436545,0.650424614 L13.5436545,0.650424614 C12.610076,0.213838229 11.5682564,0 10.4272159,0 L10.4272159,0 C9.34931598,0 8.40671731,0.160378672 7.60392993,0.485590979 L7.60392993,0.485590979 Z M7.44607847,15.7349297 C7.0356647,15.574551 6.67486138,15.3562578 6.38621873,15.0845051 L6.38621873,15.0845051 C6.09306603,14.8082974 5.85854388,14.48754 5.70069242,14.1088682 L5.70069242,14.1088682 C5.53382089,13.7346513 5.45264014,13.3381595 5.45264014,12.919393 L5.45264014,12.919393 L5.45264014,5.23903661 C5.67814222,4.95391898 5.92168446,4.6732563 6.1877769,4.40595851 L6.1877769,4.40595851 C6.46288943,4.13866073 6.73800196,3.90700265 7.0356647,3.70652931 L7.0356647,3.70652931 C7.3288174,3.51496589 7.63550022,3.36349715 7.9602232,3.24766811 L7.9602232,3.24766811 C8.28494619,3.13629403 8.61417922,3.08283447 8.95694237,3.08283447 L8.95694237,3.08283447 C9.43500677,3.08283447 9.87699083,3.22539329 10.2783845,3.51051093 L10.2783845,3.51051093 C10.6752682,3.80453849 11.0225414,4.22775999 11.311184,4.80245023 L11.311184,4.80245023 C11.5998267,5.37714047 11.8253287,6.0854796 11.9876902,6.94083252 L11.9876902,6.94083252 C12.1545618,7.78282055 12.2267224,8.7673674 12.2267224,9.89892802 L12.2267224,9.89892802 C12.2267224,10.7676458 12.1320116,11.5829041 11.9470999,12.3313379 L11.9470999,12.3313379 C11.7712082,13.0842266 11.527666,13.7212864 11.2164731,14.2558819 L11.2164731,14.2558819 C10.9097903,14.7949325 10.5580071,15.213699 10.1475933,15.5077266 L10.1475933,15.5077266 C9.72815946,15.815119 9.29519548,15.9710427 8.82615117,15.9710427 L8.82615117,15.9710427 C8.32553656,15.9710427 7.87002237,15.8908534 7.44607847,15.7349297 L7.44607847,15.7349297 Z" id="path-7"></path>
        <path d="M1.74538605,0.841988027 C1.89421742,1.28302937 2.0881492,2.05373799 2.22345045,2.51259919 L2.22345045,2.51259919 C9.34029589,1.27411945 10.7158585,2.23639148 10.7158585,5.23458165 L10.7158585,5.23458165 L10.7158585,6.16566894 C9.4169666,6.07656968 7.8835525,5.85827649 6.62976097,5.84045663 L6.62976097,5.84045663 C1.76342622,5.76917722 0,9.54253098 0,11.9259362 L0,11.9259362 C0,16.0957817 4.06805741,19.9582347 10.7158585,17.1070583 L10.7158585,17.1070583 L10.7158585,17.7753028 L16.2767397,17.7753028 L16.2767397,5.06083809 C16.2767397,2.59278853 14.0893696,1.10037589 12.1365216,0.561325352 L12.1365216,0.561325352 C10.8872401,0.213838229 9.48010718,0 7.85649225,0 L7.85649225,0 C6.09757607,0 4.08609758,0.249477934 1.74538605,0.841988027 L1.74538605,0.841988027 Z M4.38376031,12.0150355 C4.38376031,9.99248225 6.07953591,8.44661005 8.1451349,8.29514131 L8.1451349,8.29514131 C9.45755697,8.20604204 10.2513243,8.43324516 10.7158585,8.7183628 L10.7158585,8.7183628 L10.7158585,14.6835584 C10.0438624,15.3027983 9.13734403,15.6770152 8.1451349,15.6770152 L8.1451349,15.6770152 C6.06600578,15.6770152 4.38376031,14.0420437 4.38376031,12.0150355 L4.38376031,12.0150355 Z" id="path-9"></path>
        <path d="M17.1967881,0 C16.962266,0 16.741274,0.0623694835 16.5383221,0.187108451 L16.5383221,0.187108451 C16.3308602,0.316302381 16.1865389,0.494500905 16.0873179,0.694974245 L16.0873179,0.694974245 L11.4284451,10.749826 L5.75481292,0 L0,0 L8.74046038,16.4922734 L8.10905457,17.8911318 C7.98277341,18.1584296 7.84296212,18.4390923 7.68511067,18.7732145 L7.68511067,18.7732145 C7.52274918,19.1117917 7.27018686,19.5973827 7.0356647,19.8513156 L7.0356647,19.8513156 C5.980315,21.009606 3.55842272,20.9873312 2.83230605,20.9873312 L2.83230605,20.9873312 L2.83230605,23.909787 C3.79745492,23.909787 9.06518336,24.6537658 11.2390234,19.3835445 L11.2390234,19.3835445 L20.2636163,0 L17.1967881,0 Z" id="path-11"></path>
        <path d="M0,2.57496868 C0,3.99164694 1.30340199,5.14993735 2.92250688,5.14993735 L2.92250688,5.14993735 C4.53710172,5.14993735 5.84952379,3.99164694 5.84952379,2.57496868 L5.84952379,2.57496868 C5.84952379,1.14938048 4.53710172,0 2.92250688,0 L2.92250688,0 C1.30340199,0 0,1.14938048 0,2.57496868 L0,2.57496868 Z" id="path-13"></path>
        <path d="M28.2328596,0 C28.1291287,0 28.0253977,0.0490045942 27.9577471,0.12919393 L27.9577471,0.12919393 L21.8827212,7.3907838 C21.8466409,7.43087846 21.7970304,7.45760824 21.7429099,7.45760824 L21.7429099,7.45760824 C21.643689,7.45760824 21.5625083,7.37296394 21.5625083,7.27495475 L21.5625083,7.27495475 L21.5625083,0 L18.3288086,0 C18.1213466,0 17.9634952,0.160378672 17.9634952,0.360852012 L17.9634952,0.360852012 L17.9634952,17.4946401 C17.9634952,17.6906585 18.1213466,17.8554921 18.3288086,17.8554921 L18.3288086,17.8554921 L21.5625083,17.8554921 L21.5625083,12.4872616 L23.9483202,9.72963943 L28.5801328,17.6772936 C28.6432734,17.7842127 28.7695546,17.8554921 28.9003458,17.8554921 L28.9003458,17.8554921 L32.8827124,17.8554921 L26.3296221,7.10121119 L32.4407283,0 L28.2328596,0 Z M10.3415251,0 C10.1430833,0 9.97621174,0.160378672 9.97621174,0.360852012 L9.97621174,0.360852012 L9.97621174,6.93637756 C9.97621174,7.1368509 9.80934021,7.29722957 9.61089838,7.29722957 L9.61089838,7.29722957 L3.65313359,7.29722957 L3.65313359,0 L0.365313359,0 C0.166871535,0 0,0.160378672 0,0.360852012 L0,0.360852012 L0,17.4946401 C0,17.6906585 0.166871535,17.8554921 0.365313359,17.8554921 L0.365313359,17.8554921 L3.65313359,17.8554921 L3.65313359,10.380064 L9.61089838,10.380064 C9.80934021,10.380064 9.97621174,10.5448977 9.97621174,10.745371 L9.97621174,10.745371 L9.97621174,17.4946401 C9.97621174,17.6906585 10.1430833,17.8554921 10.3415251,17.8554921 L10.3415251,17.8554921 L13.6248353,17.8554921 L13.6248353,0 L10.3415251,0 Z" id="path-15"></path>
    </defs>
    <g id="LOGO-+-SDK-+-payment-icon" stroke="none" stroke-width="1" fill="none" fill-rule="evenodd">
        <g id="payment_horizon" transform="translate(-2298.000000, -380.000000)">
            <g id="alipayhk_horizon" transform="translate(2298.000000, 380.000000)">
                <g id="payment-4:3bg" transform="translate(-26.666667, -6.666667)"></g>
                <g id="编组" transform="translate(4.000000, 3.000000)">
                    <polygon id="Fill-1" fill="#3D3A39" points="144.526083 0.653543088 144.526083 1.29951274 145.824975 1.29951274 145.824975 5.36243909 146.546582 5.36243909 146.546582 1.29951274 147.845474 1.29951274 147.845474 0.653543088"></polygon>
                    <polygon id="Fill-2" fill="#3D3A39" points="152.120542 0.653543088 150.763019 3.58045385 149.382947 0.653543088 148.65683 0.653543088 148.65683 5.36243909 149.382947 5.36243909 149.382947 2.21278018 150.496927 4.51154114 151.033622 4.51154114 152.120542 2.21278018 152.120542 5.36243909 152.833128 5.36243909 152.833128 0.653543088"></polygon>
                    <g transform="translate(0.000000, 1.528052)">
                        <mask id="mask-2" fill="white">
                            <use xlink:href="#path-1"></use>
                        </mask>
                        <g id="Clip-4"></g>
                        <polygon id="Fill-3" fill="#000000" mask="url(#mask-2)" points="-1.25830157 24.8586941 26.4964937 24.8586941 26.4964937 -1.24738967 -1.25830157 -1.24738967"></polygon>
                    </g>
                    <g transform="translate(27.502233, 1.528052)">
                        <mask id="mask-4" fill="white">
                            <use xlink:href="#path-3"></use>
                        </mask>
                        <g id="Clip-6"></g>
                        <polygon id="Fill-5" fill="#000000" mask="url(#mask-4)" points="-1.25830157 24.8631491 6.64780113 24.8631491 6.64780113 -1.24293471 -1.25830157 -1.24293471"></polygon>
                    </g>
                    <g transform="translate(37.627276, 7.729361)">
                        <mask id="mask-6" fill="white">
                            <use xlink:href="#path-5"></use>
                        </mask>
                        <g id="Clip-8"></g>
                        <polygon id="Fill-7" fill="#000000" mask="url(#mask-6)" points="-1.26281161 18.6618405 6.67486138 18.6618405 6.67486138 -1.24293471 -1.26281161 -1.24293471"></polygon>
                    </g>
                    <g transform="translate(47.576428, 7.377419)">
                        <mask id="mask-8" fill="white">
                            <use xlink:href="#path-7"></use>
                        </mask>
                        <g id="Clip-10"></g>
                        <polygon id="Fill-9" fill="#000000" mask="url(#mask-8)" points="-1.25830157 25.8699708 19.2894474 25.8699708 19.2894474 -1.24293471 -1.25830157 -1.24293471"></polygon>
                    </g>
                    <g transform="translate(67.533361, 7.368509)">
                        <mask id="mask-10" fill="white">
                            <use xlink:href="#path-9"></use>
                        </mask>
                        <g id="Clip-12"></g>
                        <polygon id="Fill-11" fill="#000000" mask="url(#mask-10)" points="-1.26281161 21.2056244 17.5350413 21.2056244 17.5350413 -1.54141724 -1.26281161 -1.54141724"></polygon>
                    </g>
                    <g transform="translate(85.266844, 7.404149)">
                        <mask id="mask-12" fill="white">
                            <use xlink:href="#path-11"></use>
                        </mask>
                        <g id="Clip-14"></g>
                        <polygon id="Fill-13" fill="#000000" mask="url(#mask-12)" points="-1.25830157 25.8967005 21.5219179 25.8967005 21.5219179 -1.24293471 -1.25830157 -1.24293471"></polygon>
                    </g>
                    <g transform="translate(37.397264, 0.000000)">
                        <mask id="mask-14" fill="white">
                            <use xlink:href="#path-13"></use>
                        </mask>
                        <g id="Clip-16"></g>
                        <polygon id="Fill-15" fill="#00A0E9" mask="url(#mask-14)" points="-1.26281161 6.39287206 7.10331532 6.39287206 7.10331532 -1.24293471 -1.26281161 -1.24293471"></polygon>
                    </g>
                    <g transform="translate(111.028201, 7.475428)">
                        <mask id="mask-16" fill="white">
                            <use xlink:href="#path-15"></use>
                        </mask>
                        <g id="Clip-18"></g>
                        <polygon id="Fill-17" fill="#00A0E9" mask="url(#mask-16)" points="-1.25830157 19.1028818 34.145524 19.1028818 34.145524 -1.24738967 -1.25830157 -1.24738967"></polygon>
                    </g>
                </g>
            </g>
        </g>
    </g>
</svg>