<?xml version="1.0" encoding="UTF-8"?>
<svg width="152px" height="48px" viewBox="0 0 152 48" version="1.1" xmlns="http://www.w3.org/2000/svg" xmlns:xlink="http://www.w3.org/1999/xlink">
    <title>alipay_horizon</title>
    <defs>
        <path d="M6.96315789,0 C3.11722766,0 0,3.07886701 0,6.88670106 L0,6.88670106 L0,36.1087712 C0,39.9120775 3.11722766,43 6.96315789,43 L6.96315789,43 L36.5160955,43 C40.3665239,43 43.4792534,39.9120775 43.4792534,36.1087712 L43.4792534,36.1087712 L43.4792534,6.88670106 C43.4792534,3.07886701 40.3665239,0 36.5160955,0 L36.5160955,0 L6.96315789,0 Z" id="path-1"></path>
        <path d="M16.677495,0 C15.9263016,0 15.9263016,0.733494788 15.9263016,0.733494788 L15.9263016,0.733494788 L15.9263016,5.08918606 L5.31063454,5.08918606 L5.31063454,6.79161841 L15.9263016,6.79161841 L15.9263016,9.84331894 L7.15937995,9.84331894 L7.15937995,11.550279 L24.1624399,11.550279 C23.5416933,13.669264 22.7095329,15.661472 21.7109405,17.4680425 L21.7109405,17.4680425 C16.1961915,15.6705275 10.3125929,14.2080657 6.61060394,15.1045593 L6.61060394,15.1045593 C4.24906783,15.679583 2.72419023,16.711909 1.82455742,17.7895125 L1.82455742,17.7895125 C-2.27776816,22.7292829 0.668529272,30.2408129 9.34548766,30.2408129 L9.34548766,30.2408129 C14.4688965,30.2408129 19.4123787,27.4109719 23.2403163,22.7519217 L23.2403163,22.7519217 C28.9484864,25.4640413 40.2568708,30.1276192 40.2568708,30.1276192 L40.2568708,30.1276192 L40.2568708,23.4854164 C40.2568708,23.4854164 38.8399491,23.3722228 32.5785048,21.2985153 L32.5785048,21.2985153 C30.8422135,20.7189639 28.5031682,19.8405812 25.9077276,18.9123934 L25.9077276,18.9123934 C27.4685905,16.2229125 28.7145819,13.1666842 29.5332478,9.84331894 L29.5332478,9.84331894 L20.9642453,9.84331894 L20.9642453,6.79161841 L31.4629601,6.79161841 L31.4629601,5.08918606 L20.9642453,5.08918606 L20.9642453,0 L16.677495,0 Z M3.11103233,19.2157523 C4.22657701,18.2377593 6.26424531,17.762346 7.34830283,17.6582079 L7.34830283,17.6582079 C11.3696615,17.2597662 15.0896431,18.776561 19.475353,20.895546 L19.475353,20.895546 C16.3896125,24.8754343 12.4627153,27.3611667 8.53131997,27.3611667 L8.53131997,27.3611667 C1.76608129,27.3611667 -0.235601695,22.0953985 3.11103233,19.2157523 L3.11103233,19.2157523 Z" id="path-3"></path>
        <path d="M11.0879743,0 L11.0879743,3.03358955 L0,3.03358955 L0,4.13835948 L0,5.23860166 L0,8.48952301 L5.91058752,8.48952301 L5.91058752,5.23860166 L22.4683293,5.23860166 L22.4683293,8.48952301 L28.3834149,8.48952301 L28.3834149,5.23860166 L28.3834149,4.6364115 C28.3834149,4.62735601 28.3789168,4.62282826 28.3789168,4.61377277 L28.3789168,4.61377277 C28.3789168,3.74897336 27.6951958,3.04717279 26.849541,3.03358955 L26.849541,3.03358955 L17.277448,3.03358955 L17.277448,0 L11.0879743,0 Z" id="path-5"></path>
        <path d="M16.9985618,0 L11.3623623,0 L0,0 L0,2.20501211 L11.3623623,2.20501211 L11.3623623,6.56523113 L0,6.56523113 L0,8.77024323 L11.3623623,8.77024323 L11.3623623,18.029483 L0,18.029483 L0,20.2344951 L29.0626377,20.2344951 L29.0356487,20.1620512 L29.0626377,20.1620512 L27.204896,13.936401 C27.0789474,13.5379594 26.7190942,13.2481836 26.2827723,13.2481836 L26.2827723,13.2481836 L21.3617809,13.2481836 L22.7921971,18.029483 L16.9985618,18.029483 L16.9985618,8.77024323 L28.3699204,8.77024323 L28.3699204,6.56523113 L16.9985618,6.56523113 L16.9985618,2.20501211 L28.3699204,2.20501211 L28.3699204,0 L16.9985618,0 Z" id="path-7"></path>
        <path d="M0,0 L3.42760098,10.7126461 L8.63647491,10.7126461 L5.44727662,0.665578604 C5.25385557,0.276192482 4.85801714,0.0045277456 4.39920441,0 L4.39920441,0 L0,0 Z" id="path-9"></path>
        <path d="M13.0311812,0 L13.0311812,5.47857218 L0,5.47857218 L0,7.68358429 L13.0311812,7.68358429 L13.0311812,27.3747499 C12.9861995,27.8275245 12.6263464,28.1761609 12.1810282,28.2033274 L12.1810282,28.2033274 L9.49112607,28.2033274 L9.49112607,30.4853112 L16.3418299,30.4853112 C17.4258874,30.4400337 18.294033,29.5480678 18.3165239,28.4432979 L18.3165239,28.4432979 L18.3165239,28.2033274 L18.3165239,7.68358429 L20.4621481,7.68358429 L20.4621481,5.47857218 L18.3165239,5.47857218 L18.3165239,0 L13.0311812,0 Z" id="path-11"></path>
        <path d="M12.9322215,0 C12.3564565,0 11.8931457,0.479941034 11.8931457,1.06854796 L11.8931457,1.06854796 L11.8931457,1.06854796 L11.8931457,4.57302306 L0.202417381,4.57302306 L0.202417381,6.81878488 L11.8931457,6.81878488 L11.8931457,10.4273981 L2.02867197,10.4273981 L2.02867197,12.6776877 L21.6811506,12.6776877 C21.6811506,12.6776877 20.5925949,16.8930188 15.1992962,21.4252922 L15.1992962,21.4252922 C10.3682681,17.798568 8.75342717,14.9098663 8.75342717,14.9098663 L8.75342717,14.9098663 L3.48607711,14.9098663 C5.61370869,18.5773402 8.64547124,21.5158471 11.9066401,23.8431084 L11.9066401,23.8431084 C8.91086291,25.7764557 5.0244492,27.6418869 0,29.1315152 L0,29.1315152 L0,31.8209961 C0,31.8209961 7.75483476,30.3721175 15.2532742,25.9892598 L15.2532742,25.9892598 C22.7562118,30.3313678 30.2996328,31.8209961 30.2996328,31.8209961 L30.2996328,31.8209961 L30.2996328,29.2718753 C25.4731028,27.5286933 21.6496634,25.6134569 18.649388,23.7661367 L18.649388,23.7661367 C22.9991126,20.5695483 26.8090575,16.231968 28.3384333,10.4273981 L28.3384333,10.4273981 L18.1815789,10.4273981 L18.1815789,6.81878488 L29.9577723,6.81878488 L29.9577723,4.57302306 L18.1815789,4.57302306 L18.1815789,0 L12.9322215,0 Z" id="path-13"></path>
    </defs>
    <g id="LOGO-+-SDK-+-payment-icon" stroke="none" stroke-width="1" fill="none" fill-rule="evenodd">
        <g id="payment_horizon" transform="translate(-2302.000000, -176.000000)">
            <g id="alipay_horizon" transform="translate(2302.000000, 176.000000)">
                <g id="payment-4:3bg" transform="translate(-25.333333, -8.000000)"></g>
                <g id="编组" transform="translate(2.000000, 2.000000)">
                    <g>
                        <mask id="mask-2" fill="white">
                            <use xlink:href="#path-1"></use>
                        </mask>
                        <g id="Clip-2"></g>
                        <polygon id="Fill-1" fill="#1677FF" mask="url(#mask-2)" points="-1.25498776 44.2587133 44.7342411 44.2587133 44.7342411 -1.26776877 -1.25498776 -1.26776877"></polygon>
                    </g>
                    <g transform="translate(3.217884, 5.700432)">
                        <mask id="mask-4" fill="white">
                            <use xlink:href="#path-3"></use>
                        </mask>
                        <g id="Clip-4"></g>
                        <polygon id="Fill-3" fill="#FFFFFF" mask="url(#mask-4)" points="-3.53725408 31.4995262 41.5118585 31.4995262 41.5118585 -1.26776877 -3.53725408 -1.26776877"></polygon>
                    </g>
                    <g transform="translate(117.937362, 5.496683)">
                        <mask id="mask-6" fill="white">
                            <use xlink:href="#path-5"></use>
                        </mask>
                        <g id="Clip-6"></g>
                        <polygon id="Fill-5" fill="#3E3A39" mask="url(#mask-6)" points="-1.25948592 9.75276403 29.6384027 9.75276403 29.6384027 -1.26324102 -1.25948592 -1.26324102"></polygon>
                    </g>
                    <polygon id="Fill-7" fill="#3E3A39" points="88.0227723 5.77785617 81.9592472 19.9995051 86.6103488 19.9995051 86.6103488 36.9242182 91.6932742 36.9242182 91.6932742 14.4801832 89.8535251 14.4801832 93.6814627 5.77785617"></polygon>
                    <g transform="translate(117.937362, 15.987470)">
                        <mask id="mask-8" fill="white">
                            <use xlink:href="#path-7"></use>
                        </mask>
                        <g id="Clip-9"></g>
                        <polygon id="Fill-8" fill="#3E3A39" mask="url(#mask-8)" points="-1.25948592 21.5022639 30.3176255 21.5022639 30.3176255 -1.26324102 -1.25948592 -1.26324102"></polygon>
                    </g>
                    <g transform="translate(95.581487, 16.770770)">
                        <mask id="mask-10" fill="white">
                            <use xlink:href="#path-9"></use>
                        </mask>
                        <g id="Clip-11"></g>
                        <polygon id="Fill-10" fill="#3E3A39" mask="url(#mask-10)" points="-1.25948592 11.9804149 9.89146267 11.9804149 9.89146267 -1.26324102 -1.25948592 -1.26324102"></polygon>
                    </g>
                    <g transform="translate(93.858690, 6.035485)">
                        <mask id="mask-12" fill="white">
                            <use xlink:href="#path-11"></use>
                        </mask>
                        <g id="Clip-13"></g>
                        <polygon id="Fill-12" fill="#3E3A39" mask="url(#mask-12)" points="-1.25498776 31.7485522 21.7171359 31.7485522 21.7171359 -1.26324102 -1.25498776 -1.26324102"></polygon>
                    </g>
                    <g transform="translate(50.856242, 5.587238)">
                        <mask id="mask-14" fill="white">
                            <use xlink:href="#path-13"></use>
                        </mask>
                        <g id="Clip-15"></g>
                        <polygon id="Fill-14" fill="#3E3A39" mask="url(#mask-14)" points="-1.25948592 33.0887649 31.5546206 33.0887649 31.5546206 -1.26324102 -1.25948592 -1.26324102"></polygon>
                    </g>
                </g>
            </g>
        </g>
    </g>
</svg>