<?xml version="1.0" encoding="UTF-8"?>
<svg width="120px" height="90px" viewBox="0 0 120 90" version="1.1" xmlns="http://www.w3.org/2000/svg" xmlns:xlink="http://www.w3.org/1999/xlink">
    <title>amazonpay</title>
    <g id="LOGO-+-SDK-+-payment-icon" stroke="none" stroke-width="1" fill="none" fill-rule="evenodd">
        <g id="payment" transform="translate(-918.000000, -1155.000000)">
            <g id="amazonpay" transform="translate(918.000000, 1155.000000)">
                <g id="payment-4:3bg" transform="translate(-20.000000, -15.000000)"></g>
                <g id="amazon-pay" transform="translate(10.000000, 14.000000)" fill-rule="nonzero">
                    <g id="pay" transform="translate(13.213563, 0.000000)" fill="#232F3E">
                        <path d="M4.70897915,3.41676245 C5.93215951,2.33738843 7.33220514,1.47455039 8.84465112,0.864613161 C10.2744498,0.294346643 11.7984664,0.00177512492 13.3390125,0.00177512492 C14.8679879,-0.0263249644 16.3837398,0.279470125 17.7837854,0.899325036 C19.1011837,1.50265048 20.2565933,2.41342396 21.1508373,3.553957 C22.1260757,4.81846102 22.8467603,6.2598303 23.2715675,7.79707048 C23.7905927,9.62027039 24.0385347,11.5095882 24.0153934,13.4038648 C24.0368817,15.3378121 23.7707574,17.2651476 23.2203262,19.1214065 C22.7608071,20.6950115 22.0070635,22.1694397 20.9987662,23.4636967 C20.0648515,24.6405946 18.876383,25.5926917 17.5242728,26.2489115 C16.1043918,26.9084371 14.5506222,27.2340675 12.983629,27.2026616 C10.0562609,27.250597 7.22311067,26.16957 5.07262737,24.1827284 L5.07262737,36.1533665 C5.11229808,36.4360203 5.01808014,36.7186741 4.81642067,36.9219866 C4.61476121,37.123646 4.33045442,37.216211 4.05110648,37.1765403 L1.03117335,37.1765403 C0.748519512,37.216211 0.465865672,37.123646 0.264206208,36.9219866 C0.0608937972,36.7186741 -0.0316712028,36.4360203 0.00965245793,36.1533665 L0.00965245793,1.78199843 C-0.0300182564,1.50099754 0.0641996901,1.21669075 0.265859154,1.01668423 C0.467518619,0.816677714 0.748519512,0.720806821 1.03117335,0.760477536 L3.27752755,0.760477536 C3.57175201,0.732377446 3.86267058,0.826595393 4.0841654,1.01999012 C4.30731317,1.21338486 4.44120183,1.48777396 4.45607835,1.78199843 L4.70897915,3.41676245 Z M11.9092138,4.08124691 C9.43475299,4.10108227 7.03302183,4.92590254 5.06766853,6.43008379 L5.06766853,20.6602996 C7.24625192,22.2983695 9.49425907,23.116578 11.8067311,23.11493 C16.5044049,23.11493 18.8532417,19.9511856 18.8532417,13.6270125 C18.8532417,7.3028395 16.5391167,4.11926468 11.9092138,4.07628807 L11.9092138,4.08124691 Z" id="Fill-13"></path>
                        <path d="M30.7751179,5.21004403 L30.3932872,5.34062679 C30.2544397,5.38856224 30.1073275,5.41500938 29.9602153,5.41666233 C29.5287963,5.41666233 29.2957308,5.11086724 29.2957308,4.49431822 L29.2957308,3.12733153 C29.2643248,2.78186572 29.3354015,2.43474697 29.5023491,2.13225778 C29.7238439,1.88431581 30.0048448,1.69753287 30.3189046,1.59339724 C31.6148146,1.06610733 32.9669248,0.687582598 34.350441,0.467740723 C35.9339637,0.180128045 37.5406276,0.0363217053 39.1489445,0.0363217053 C42.3821077,0.0363217053 44.7673094,0.699153223 46.2995907,2.02316331 C47.8302191,3.34882635 48.5988392,5.4083976 48.6004921,8.20353001 L48.6004921,25.6487266 C48.6418158,25.9297275 48.5459449,26.2140343 48.3442854,26.4140408 C48.1442789,26.6157003 47.8616251,26.7115712 47.5789713,26.6702475 L45.3805525,26.6702475 C45.1012046,26.6983476 44.8235096,26.6107414 44.6119324,26.4272644 C44.3987023,26.2437873 44.2714254,25.9809688 44.2582019,25.699968 L44.0003422,24.0156155 C42.7969972,25.0569718 41.4250517,25.8867509 39.9423588,26.4636292 C38.5373543,27.0272839 37.0381319,27.3198555 35.52238,27.3264672 C33.0743663,27.3264672 31.1338072,26.6371886 29.7023556,25.2569783 C28.2692511,23.876768 27.5518723,22.0304269 27.5452605,19.7163019 C27.5452605,17.2319234 28.4312398,15.2483877 30.2015454,13.7656947 C31.973504,12.2813488 34.3553998,11.5424818 37.3521917,11.5457877 C39.5225104,11.5788466 41.6829113,11.8681122 43.7854592,12.4069728 L43.7854592,9.05314447 C43.7854592,7.21176215 43.3771814,5.91915804 42.5606259,5.17202626 C41.7440704,4.42324153 40.3142717,4.04802269 38.269577,4.04636974 C35.7289983,4.07116394 33.2049491,4.46291224 30.7751179,5.21004403 M36.7521721,23.5015955 C37.9555171,23.4866727 39.1472915,23.2635249 40.274601,22.8420236 C41.5407579,22.3775456 42.7275735,21.7229788 43.7986828,20.9014645 L43.7986828,15.6880714 C42.9127035,15.4798002 42.0184595,15.3194644 41.1159507,15.2054111 C40.2101361,15.0863989 39.2993626,15.0268929 38.3852832,15.023587 C34.533918,15.023587 32.6082354,16.5062799 32.6115321,19.4700129 C32.6115321,20.7642699 32.9702307,21.7593437 33.6859565,22.45854 C34.4016823,23.1560834 35.4248562,23.5048551 36.7521721,23.5015955" id="Fill-15"></path>
                        <path d="M65.2207032,31.193866 C64.2967061,33.5427029 63.2322086,35.2287082 62.0239048,36.253535 C60.8172539,37.2767089 59.2370371,37.7858164 57.2816015,37.7825105 C56.2997513,37.795734 55.321207,37.6767219 54.3724158,37.427127 C54.0517442,37.3577032 53.7641315,37.1857968 53.5509014,36.9395078 C53.3575067,36.625448 53.2699005,36.2601468 53.2963477,35.8948456 L53.2963477,34.5658767 C53.2963477,33.9195747 53.5509014,33.5955972 54.0649677,33.5955972 C54.3228274,33.6088207 54.580687,33.6402267 54.8319349,33.6964269 C55.2864952,33.7741154 55.7476672,33.8088272 56.2088393,33.7989096 C57.2915192,33.8666804 58.3642814,33.5410499 59.2271194,32.8815243 C59.9428452,32.2682812 60.5891473,31.1442776 61.1676785,29.5078606 L62.1379581,26.9209995 L52.297968,2.59789279 C52.1111851,2.20945037 51.9921729,1.79456082 51.9442375,1.36810064 C51.9442375,0.963128768 52.1806088,0.754857518 52.6533515,0.754857518 L55.7212201,0.754857518 C56.1129684,0.718492696 56.5080226,0.807751803 56.8468766,1.01106421 C57.1344893,1.33338877 57.3427605,1.71852529 57.4551609,2.13506779 L64.6074601,21.9489366 L71.5068585,2.13506779 C71.6176059,1.71852529 71.8258771,1.33338877 72.1151427,1.01106421 C72.4539968,0.807751803 72.847398,0.718492696 73.2407993,0.754857518 L76.0987436,0.754857518 C76.5780981,0.754857518 76.8161224,0.963128768 76.8161224,1.36810064 C76.7632281,1.79456082 76.642563,2.20945037 76.457433,2.59789279 L65.2207032,31.193866" id="Fill-17"></path>
                    </g>
                    <path d="M94.248206,44.2575179 C95.6408845,46.0351964 92.7101702,53.3757321 91.3940988,56.6482321 C90.9933845,57.6382321 91.8498131,58.0369821 92.7455274,57.2885893 C98.5735631,52.4093036 100.08017,42.1930536 98.895706,40.7159107 C97.7112417,39.2407321 87.5205274,37.9914464 81.2996345,42.3619821 C80.3410631,43.0337679 80.5040988,43.9609107 81.570706,43.8332321 C85.0710631,43.4109107 92.8692774,42.4759107 94.2580274,44.2575179 M89.7283845,49.4019821 C78.8599917,57.4221607 63.0828488,61.700375 49.533206,61.700375 C31.4087417,61.7946607 13.9010631,55.114125 0.443741678,42.972875 C-0.581615465,42.0555536 0.329813106,40.7984107 1.55552739,41.5114464 C15.5353488,49.6435893 32.813206,54.5425179 50.6764202,54.5425179 C63.5523131,54.4718036 76.2867774,51.8593036 88.1510631,46.8562679 C89.985706,46.0784107 91.5276702,48.0643036 89.7283845,49.4176964" id="Fill-19" fill="#FF9900"></path>
                </g>
            </g>
        </g>
    </g>
</svg>