<?xml version="1.0" encoding="UTF-8"?>
<svg width="156px" height="40px" viewBox="0 0 156 40" version="1.1" xmlns="http://www.w3.org/2000/svg" xmlns:xlink="http://www.w3.org/1999/xlink">
    <title>amazonpay_horizon</title>
    <defs>
        <polygon id="path-1" points="0 0 11.7933774 0 11.7933774 16.0797197 0 16.0797197"></polygon>
        <polygon id="path-3" points="0 0 14.658356 0 14.658356 21.8517058 0 21.8517058"></polygon>
    </defs>
    <g id="LOGO-+-SDK-+-payment-icon" stroke="none" stroke-width="1" fill="none" fill-rule="evenodd">
        <g id="payment_horizon" transform="translate(-900.000000, -1180.000000)">
            <g id="amazonpay_horizon" transform="translate(900.000000, 1180.000000)">
                <g id="payment-4:3bg" transform="translate(-26.000000, -6.666667)"></g>
                <g id="编组" transform="translate(5.000000, 6.000000)">
                    <path d="M8.45874784,9.21517957 C8.45874784,10.333937 8.4839013,11.2692326 7.92333857,12.2692794 C7.46338966,13.0786698 6.74112615,13.5750959 5.93262221,13.5750959 C4.83305686,13.5750959 4.18984706,12.7369272 4.18984706,11.4886673 C4.18984706,9.04250962 6.38179106,8.59644557 8.45874784,8.59644557 L8.45874784,9.21877686 L8.45874784,9.21517957 Z M11.3549886,16.2227018 C11.164541,16.3845799 10.8914463,16.4133583 10.6758453,16.2910504 C9.72001398,15.4960491 9.54753314,15.1291255 9.03009062,14.3736944 C7.45260961,15.9816834 6.3350775,16.4637203 4.29764759,16.4637203 C1.87932248,16.4637203 0,14.9708447 0,11.9814961 C0,9.65045175 1.26845284,8.06404655 3.0471615,7.28703176 C4.60667576,6.60354653 6.78065301,6.47764136 8.44437444,6.29058224 L8.44437444,5.91646401 C8.44437444,5.23297877 8.4982747,4.42358837 8.09941276,3.83363269 C7.74726438,3.30123367 7.08249447,3.08539623 6.48599824,3.08539623 C5.39002624,3.08539623 4.41622816,3.65017087 4.17547366,4.81209576 C4.14672685,5.08189257 3.9383125,5.3013273 3.66881119,5.3408975 L0.909117759,5.03872508 C0.772570427,5.01714133 0.646803148,4.94159823 0.56774943,4.83008222 C0.485102361,4.71496891 0.456355555,4.57467458 0.48150901,4.43797753 C1.12112546,1.06012157 4.16828696,0.0384910104 6.89923358,0.0384910104 C8.29704705,0.0384910104 10.1224693,0.409011952 11.2220346,1.47021271 C12.6162547,2.77602923 12.4904875,4.52071522 12.4904875,6.41648741 L12.4904875,10.891517 C12.4904875,12.240501 13.0510502,12.8304567 13.5756794,13.5571094 C13.7589403,13.8089198 13.8020605,14.1290787 13.5756794,14.3197351 C12.9899632,14.8089666 11.9478915,15.7154839 11.3765487,16.2262991 L11.3549886,16.2227018 Z" id="Fill-1" fill="#232F3E"></path>
                    <path d="M19.2158029,16.1101066 L16.3483089,16.1101066 C16.0788076,16.0957175 15.8632065,15.8906719 15.8380531,15.6244724 L15.8380531,0.868385974 C15.8488331,0.573408137 16.093181,0.339584242 16.3878358,0.343181532 L19.0648821,0.343181532 C19.3379768,0.357570695 19.5571712,0.577005428 19.5715446,0.85039952 L19.5715446,2.77495004 L19.6254449,2.77495004 C20.3225549,0.911553462 21.634128,0.0446064046 23.4056499,0.0446064046 C25.1735785,0.0446064046 26.3234508,0.911553462 27.1283614,2.77495004 C27.667364,1.33963105 28.9358168,0.307208625 30.4486175,0.0733847302 C31.9614182,-0.160439165 33.484999,0.440308381 34.4300503,1.64540076 C35.3427614,2.88646605 35.1559071,4.69590327 35.1559071,6.26791931 L35.1559071,15.5777076 C35.1523138,15.7215993 35.0912268,15.8582963 34.9870196,15.9590204 C34.8828125,16.0597446 34.7462651,16.1137039 34.6025311,16.1101066 L31.7314438,16.1101066 C31.4511624,16.0957175 31.2283747,15.8654909 31.2247813,15.5813049 L31.2247813,7.76079495 C31.2247813,7.13846366 31.2750882,5.58803137 31.1421343,4.99807569 C30.9301266,4.00522346 30.2869168,3.72463479 29.4532594,3.72463479 C28.691469,3.74981582 28.0195124,4.22465819 27.739231,4.93332446 C27.4445763,5.68156092 27.4697297,6.91902892 27.4697297,7.76079495 L27.4697297,15.5777076 C27.4661364,15.7215993 27.4086427,15.8582963 27.3044356,15.9590204 C27.2002284,16.0597446 27.0636811,16.1137039 26.919947,16.1101066 L24.041673,16.1101066 C23.7613917,16.0957175 23.5386039,15.8618936 23.5350106,15.5813049 L23.5350106,7.76079495 C23.5350106,6.11323581 23.7865451,3.68866188 21.7563019,3.68866188 C19.7224653,3.68866188 19.7727722,6.04848458 19.7727722,7.76079495 L19.7727722,15.5777076 C19.7691789,15.7215993 19.7080919,15.8582963 19.6074781,15.9590204 C19.5032709,16.0597446 19.3631303,16.1137039 19.2193962,16.1101066" id="Fill-3" fill="#232F3E"></path>
                    <path d="M45.5615324,12.2556097 C45.1051769,13.0614028 44.37932,13.5614262 43.5744094,13.5614262 C42.4748441,13.5614262 41.8316343,12.7196602 41.8316343,11.4785949 C41.8316343,9.02883992 44.0235783,8.58277587 46.1005351,8.58277587 L46.1005351,9.20510716 C46.1005351,10.3274619 46.1220952,11.2591601 45.5615324,12.2556097 M51.2030932,13.547037 C50.678464,12.8203843 50.1179013,12.2304286 50.1179013,10.8850419 L50.1179013,6.406415 C50.1179013,4.50704551 50.2544486,2.76595682 48.8458551,1.46014029 C47.7462897,0.398939538 45.9208675,0.0284185965 44.5266474,0.0284185965 C41.7957008,0.0284185965 38.7449459,1.04645186 38.1053295,4.42790512 C38.0765827,4.56460216 38.1089228,4.70849379 38.1915699,4.8200098 C38.2706236,4.9351231 38.3963909,5.01066621 38.5365316,5.02865266 L41.3177851,5.33082508 C41.5872864,5.28765759 41.7957008,5.07182015 41.8244476,4.80202335 C42.0687954,3.64009845 43.0390002,3.07532382 44.1349722,3.07532382 C44.7242817,3.07532382 45.403425,3.29475855 45.7447933,3.82356028 C46.1472486,4.41351595 46.0969417,5.22290636 46.0969417,5.90639159 L46.0969417,6.27331524 C44.4296269,6.45677707 42.2520563,6.58268224 40.6961354,7.26616748 C38.89946,8.04677956 37.6346005,9.62958746 37.6346005,11.9642291 C37.6346005,14.9499804 39.5175164,16.442856 41.9322481,16.442856 C43.9660847,16.442856 45.0872101,15.9608191 46.6646911,14.3528301 C47.1893204,15.1190531 47.3582079,15.4751848 48.3104458,16.2701861 C48.5296402,16.392494 48.7991415,16.3673129 48.9895891,16.2054349 C49.5609319,15.6946196 50.6030036,14.7881023 51.1887198,14.2952735 C51.436661,14.1190063 51.3971342,13.8096393 51.2030932,13.547037" id="Fill-5" fill="#232F3E"></path>
                    <path d="M53.6329171,2.92639598 L53.6329171,0.818383633 C53.6257304,0.674492005 53.6796306,0.534197668 53.7838378,0.433473529 C53.8844516,0.329152099 54.0245923,0.278790029 54.1683263,0.28598461 L63.6044656,0.28598461 C63.7481996,0.28238732 63.8883403,0.33634668 63.9889541,0.433473529 C64.0931613,0.534197668 64.1506549,0.674492005 64.1470616,0.818383633 L64.1470616,2.62782085 C64.1470616,2.92999327 63.895527,3.32569525 63.4391715,3.95162383 L58.548621,10.9375624 C60.3632632,10.8943949 62.2821125,11.167789 63.9314605,12.09589 C64.2368953,12.257768 64.4309363,12.5707323 64.4417163,12.9160722 L64.4417163,15.1751708 C64.4417163,15.4881351 64.1039414,15.8442669 63.7446063,15.660805 C60.6147977,14.0492188 56.899273,14.0564134 53.7766511,15.6787915 C53.4460628,15.8514614 53.1046945,15.498927 53.1046945,15.18956 L53.1046945,13.0383801 C53.0759477,12.5311621 53.1981216,12.0275414 53.4532495,11.5922693 L59.1199638,3.45160042 L54.1791064,3.45160042 C54.0353724,3.45519771 53.8952317,3.40123835 53.7910245,3.30051421 C53.6904107,3.19979007 53.6329171,3.06309303 53.6329171,2.9192014" id="Fill-7" fill="#232F3E"></path>
                    <path d="M72.2680344,0.020864286 C76.5297485,0.020864286 78.8330864,3.68290621 78.8330864,8.34139766 C78.8330864,12.8416083 76.2925874,16.4101207 72.2680344,16.4101207 C68.0889674,16.4101207 65.810783,12.7480788 65.810783,8.18311687 C65.810783,3.62175227 68.1141209,0.020864286 72.2680344,0.020864286 M72.2967812,3.0317966 C70.1802976,3.0317966 70.0437382,5.91682374 70.0437382,7.71906637 C70.0437382,9.52130901 70.0185968,13.3668128 72.2680344,13.3668128 C74.5174721,13.3668128 74.6001191,10.2623509 74.6001191,8.37017599 C74.6001191,7.1291107 74.5462189,5.63983235 74.1725104,4.459921 C73.8491088,3.44188774 73.205899,3.0317966 72.2967812,3.0317966" id="Fill-9" fill="#232F3E"></path>
                    <g transform="translate(81.019640, 0.000000)">
                        <mask id="mask-2" fill="white">
                            <use xlink:href="#path-1"></use>
                        </mask>
                        <g id="Clip-12"></g>
                        <path d="M3.37056307,16.0795297 L0.510255817,16.0795297 C0.226381102,16.0651405 0.00359335082,15.8349139 0,15.5507279 L0,0.794641515 C0.0323401574,0.51405284 0.269501312,0.30540998 0.553376027,0.312604561 L3.21604899,0.312604561 C3.45680349,0.319799143 3.66521784,0.488871805 3.72271145,0.722695701 L3.72271145,2.97819697 L3.78020507,2.97819697 C4.5815223,0.963714177 5.70983446,-0.00035972907 7.68977076,-0.00035972907 C8.97619036,-0.00035972907 10.2338631,0.467288061 11.0423671,1.73713168 C11.7933774,2.91704302 11.7933774,4.90634478 11.7933774,6.33446919 L11.7933774,15.6154792 C11.7502572,15.8888733 11.513096,16.0867243 11.2400014,16.0795297 L8.35454067,16.0795297 C8.09581941,16.0687378 7.88021836,15.8744841 7.84428485,15.6154792 L7.84428485,7.6043128 C7.84428485,5.99272657 8.03473244,3.63290387 6.04760944,3.63290387 C5.31097252,3.66527949 4.66416937,4.1257327 4.38748136,4.81281522 C3.98502606,5.7121379 3.9311258,6.61146057 3.9311258,7.61150738 L3.9311258,15.5507279 C3.92034575,15.8493031 3.67240454,16.0867243 3.37415642,16.0795297" id="Fill-11" fill="#232F3E" mask="url(#mask-2)"></path>
                    </g>
                    <path d="M103.505752,2.16053279 C104.228015,1.52381234 105.050893,1.01299706 105.942044,0.65326799 C106.786481,0.318719956 107.684819,0.146050002 108.590343,0.146050002 C109.492274,0.128063549 110.387019,0.307928084 111.209896,0.674851734 C111.989653,1.03098351 112.668796,1.56697983 113.197019,2.24327048 C113.768362,2.98790965 114.195971,3.83687026 114.447505,4.7469848 C114.749347,5.82257472 114.896674,6.93413754 114.882301,8.05289495 C114.896674,9.1932361 114.738566,10.32998 114.415165,11.4271536 C114.145664,12.3552546 113.700088,13.225799 113.107185,13.9884246 C112.553809,14.6827017 111.856699,15.2438791 111.058975,15.6323864 C110.221725,16.0208938 109.30542,16.2115502 108.381929,16.1935638 C106.65712,16.2223421 104.986212,15.5856217 103.71776,14.4129049 L103.71776,21.4743865 C103.742913,21.6398619 103.689013,21.8089346 103.570432,21.9276452 C103.451852,22.0463558 103.282964,22.1039124 103.11767,22.0787314 L101.338961,22.0787314 C101.173667,22.1039124 101.00478,22.0463558 100.886199,21.9276452 C100.767618,21.8089346 100.710125,21.6398619 100.735278,21.4743865 L100.735278,1.19645889 C100.713718,1.03098351 100.767618,0.861910851 100.886199,0.743200258 C101.00478,0.628086955 101.173667,0.570530304 101.338961,0.592114048 L102.661314,0.592114048 C102.833795,0.577724886 103.006276,0.631684246 103.13923,0.746797548 C103.268591,0.861910851 103.347644,1.02378893 103.354831,1.19645889 L103.505752,2.16053279 Z M107.749499,2.55263748 C106.290599,2.56342935 104.874818,3.04906359 103.71776,3.9375944 L103.71776,12.3336709 C105.000586,13.3013421 106.326532,13.783379 107.688412,13.783379 C110.455292,13.783379 111.842326,11.9163852 111.842326,8.18599471 C111.842326,4.45200696 110.476852,2.57422122 107.749499,2.54904019 L107.749499,2.55263748 Z" id="Fill-13" fill="#232F3E"></path>
                    <path d="M118.868045,3.21885571 L118.641664,3.29439882 C118.559017,3.32317714 118.472777,3.3411636 118.386536,3.3411636 C118.135002,3.3411636 117.994861,3.16129906 117.994861,2.7979727 L117.994861,1.9885823 C117.976894,1.78713402 118.020014,1.58208845 118.117035,1.40222391 C118.249989,1.25833229 118.415283,1.14681627 118.598544,1.08566233 C119.363928,0.772698041 120.161652,0.549666018 120.973749,0.420163553 C121.90802,0.251090891 122.853071,0.164755914 123.801716,0.164755914 C125.709785,0.164755914 127.114785,0.5568606 128.016716,1.33747268 C128.918648,2.12168205 129.37141,3.33756631 129.375003,4.98512545 L129.375003,15.2769741 C129.396563,15.4424495 129.342663,15.6115222 129.224082,15.7302328 C129.105502,15.8489433 128.936614,15.9029027 128.77132,15.881319 L127.47412,15.881319 C127.31242,15.8957081 127.147126,15.8453461 127.021358,15.7374273 C126.895591,15.6295086 126.823724,15.4748251 126.812944,15.3093497 L126.662023,14.3129002 C125.954133,14.9280369 125.145629,15.4172685 124.272445,15.7590111 C123.442381,16.0899618 122.558417,16.2626318 121.667266,16.2662291 C120.222739,16.2662291 119.080053,15.8597352 118.235616,15.0467475 C117.391178,14.2337598 116.967163,13.1437807 116.963569,11.7768103 C116.963569,10.312713 117.488199,9.1399962 118.53027,8.26585456 C119.572342,7.39171292 120.977342,6.95284346 122.745271,6.95644075 C124.024504,6.9744272 125.29655,7.14709715 126.536256,7.46365873 L126.536256,5.48514885 C126.536256,4.39876706 126.295501,3.63614143 125.813992,3.19727197 C125.332483,2.75480521 124.488046,2.53537048 123.284273,2.53177319 C121.785846,2.54616235 120.298199,2.77638896 118.868045,3.21885571 M122.389529,14.0107735 C123.101013,14.0035332 123.801716,13.8704335 124.466486,13.6222204 C125.213903,13.3488263 125.911013,12.9603189 126.543443,12.478282 L126.543443,9.40259842 C126.022407,9.27669325 125.494184,9.18316369 124.962368,9.11481516 C124.426959,9.04646664 123.89155,9.01049373 123.352547,9.01049373 C121.081549,9.01049373 119.949644,9.88463537 119.949644,11.6329187 C119.949644,12.3955443 120.161652,12.9819027 120.582074,13.3955911 C121.006089,13.8056822 121.606179,14.0143251 122.389529,14.0107735" id="Fill-15" fill="#232F3E"></path>
                    <g transform="translate(131.341644, 0.586886)">
                        <mask id="mask-4" fill="white">
                            <use xlink:href="#path-3"></use>
                        </mask>
                        <g id="Clip-18"></g>
                        <path d="M7.8263181,17.9625437 C7.28372212,19.3475006 6.65488573,20.3439501 5.94340226,20.948295 C5.2319188,21.5490425 4.30124094,21.8512149 3.14777532,21.8512149 C2.56924584,21.8584095 1.99071636,21.7864637 1.43374698,21.6389748 C1.24329939,21.5994046 1.0744119,21.4986805 0.948644618,21.3511915 C0.833657391,21.1677297 0.78335048,20.9518923 0.801317234,20.7360548 L0.801317234,19.9518455 C0.801317234,19.5705326 0.948644618,19.3798762 1.25048609,19.3798762 C1.40500017,19.3870708 1.55592091,19.4050573 1.70324829,19.4374329 C1.9727496,19.4841977 2.24225091,19.5057814 2.51534558,19.4985868 C3.15496202,19.538157 3.78739177,19.3475006 4.29405423,18.9589932 C4.71447628,18.5956669 5.09537147,17.9337654 5.4367398,16.9660942 L6.00808258,15.4408429 L0.208414348,1.09125034 C0.100613823,0.861023738 0.0323401574,0.61640797 0,0.364597622 C0,0.127176436 0.140140682,0.0048685521 0.420422046,0.0048685521 L2.22787751,0.0048685521 C2.45785196,-0.0167151921 2.69141977,0.0336468777 2.89264741,0.152357471 C3.0615349,0.343013877 3.18370883,0.569643191 3.24838915,0.817856249 L7.46698301,12.509051 L11.5310628,0.817856249 C11.5957431,0.569643191 11.7215104,0.343013877 11.8903979,0.152357471 C12.0880322,0.0336468777 12.3216,-0.0167151921 12.5515744,0.0048685521 L14.236856,0.0048685521 C14.5207307,0.0048685521 14.6608714,0.127176436 14.6608714,0.364597622 C14.6285312,0.61640797 14.5566642,0.861023738 14.4488637,1.09125034 L7.8263181,17.9625437 Z" id="Fill-17" fill="#232F3E" mask="url(#mask-4)"></path>
                    </g>
                    <path d="M59.7674856,19.3408334 C60.4574089,20.2221696 59.0056952,23.8662251 58.3517054,25.4922005 C58.1540711,25.9850293 58.5780865,26.1828803 59.023662,25.8087621 C61.912716,23.3877855 62.660133,18.3156056 62.0708235,17.5817583 C61.4851073,16.8515083 56.4292627,16.229177 53.3461677,18.3983433 C52.8718454,18.7328913 52.9508991,19.1933445 53.4791216,19.1285933 C55.2147101,18.9199504 59.0847489,18.4558999 59.7710789,19.3408334 M57.5252347,21.8949098 C52.1352084,25.8771106 44.3124837,27.9995121 37.5929177,27.9995121 C28.6023539,28.0462769 19.9208183,24.7295749 13.2479658,18.7005157 C12.73771,18.2472571 13.1904722,17.6249258 13.7977485,17.9774602 C20.7293222,22.0136204 29.299464,24.4453889 38.1570737,24.4453889 C44.5424581,24.4130133 50.8595689,23.1143914 56.7418842,20.6322608 C57.6545953,20.2437534 58.4163857,21.229411 57.5252347,21.9021044" id="Fill-19" fill="#FF9900"></path>
                </g>
            </g>
        </g>
    </g>
</svg>