<?xml version="1.0" encoding="UTF-8"?>
<svg width="120px" height="90px" viewBox="0 0 120 90" version="1.1" xmlns="http://www.w3.org/2000/svg" xmlns:xlink="http://www.w3.org/1999/xlink">
    <title>applepay</title>
    <g id="LOGO-+-SDK-+-payment-icon" stroke="none" stroke-width="1" fill="none" fill-rule="evenodd">
        <g id="payment" transform="translate(-568.000000, -1155.000000)">
            <g id="applepay" transform="translate(568.000000, 1155.000000)">
                <g id="payment-4:3bg" transform="translate(-20.000000, -15.000000)"></g>
                <g id="编组-2" transform="translate(10.000000, 11.500000)" fill-rule="nonzero">
                    <path d="M8.9554619,0 C8.61357188,0 8.27107771,0 7.92979789,0.0020030746 C7.64130893,0.00406684842 7.35349058,0.00728390763 7.06567223,0.0151748076 C6.43795757,0.0322312912 5.80486595,0.0694399194 5.18500527,0.1813693 C4.55523649,0.295241056 3.96920837,0.4809807 3.39749866,0.773429591 C2.8354554,1.06059765 2.32089854,1.43620449 1.87497947,1.8844076 C1.42886707,2.33261072 1.05501737,2.84873627 0.769253141,3.4140282 C0.478111952,3.98842502 0.293120394,4.57738965 0.180566744,5.21060402 C0.068562874,5.83356022 0.0312806105,6.46950605 0.0143643347,7.09950336 C0.00663118011,7.3886745 0.00331438175,7.67784563 0.00143546683,7.96695606 C0,8.31057441 0,8.65394995 0,8.99817529 L0,58.0024924 C0,58.3467177 0,58.6894924 0.00143546683,59.0337784 C0.00331438175,59.3228888 0.00663118011,59.61206 0.0143643347,59.9012311 C0.0312806105,60.530676 0.068562874,61.1666219 0.180566744,61.789396 C0.293120394,62.4228531 0.478111952,63.011575 0.769253141,63.5860325 C1.05501737,64.1513244 1.42886707,64.6681177 1.87497947,65.1156531 C2.32089854,65.5645846 2.8354554,65.9401307 3.39749866,66.2265704 C3.96920837,66.5198084 4.55523649,66.7056087 5.18500527,66.8194198 C5.80486595,66.9306208 6.43795757,66.9684971 7.06567223,66.9855536 C7.35349058,66.9921091 7.64130893,66.9959939 7.92979789,66.9973292 C8.27107771,67 8.61357188,67 8.9554619,67 L91.0446444,67 C91.3859303,67 91.7284305,67 92.0696439,66.9973292 C92.3574683,66.9959939 92.6452927,66.9921091 92.9344281,66.9855536 C93.5608136,66.9684971 94.1937844,66.9306208 94.8151615,66.8194198 C95.4440844,66.7056087 96.0302334,66.5198084 96.6020035,66.2265704 C97.1646509,65.9401307 97.6776974,65.5645846 98.1245348,65.1156531 C98.5699162,64.6681177 98.9437598,64.1513244 99.2302551,63.5860325 C99.5220548,63.011575 99.7068651,62.4228531 99.818875,61.789396 C99.9309453,61.1666219 99.9673153,60.530676 99.984292,59.9012311 C99.992146,59.61206 99.9960186,59.3228888 99.9973478,59.0337784 C100,58.6894924 100,58.3467238 100,58.0024924 L100,8.99817529 C100,8.65394995 100,8.31057441 99.9973478,7.96695606 C99.9960186,7.67784563 99.992146,7.3886745 99.984292,7.09950336 C99.9673093,6.46950605 99.9309453,5.83356022 99.818875,5.21060402 C99.7068711,4.57738965 99.5220548,3.98842502 99.2302551,3.4140282 C98.9437598,2.84873627 98.5699162,2.33261072 98.1245348,1.8844076 C97.6776974,1.43620449 97.1646509,1.06059765 96.6020035,0.773429591 C96.0302334,0.4809807 95.4440844,0.295241056 94.8151615,0.1813693 C94.1937904,0.0694399194 93.5608196,0.0322312912 92.9344281,0.0151748076 C92.6452927,0.00728390763 92.3574683,0.00406684842 92.0696439,0.0020030746 C91.7284305,0 91.3859303,0 91.0446444,0 L8.9554619,0 Z" id="XMLID_4_" fill="#000000"></path>
                    <path d="M91.9824536,2.14480018 C92.2557999,2.14674162 92.5291522,2.14971444 92.8040138,2.1572375 C93.2821343,2.17022085 93.8414318,2.19624821 94.3627698,2.29016512 C94.8159524,2.37219074 95.1960233,2.49692794 95.5607728,2.68354836 C95.9208679,2.86743865 96.2507851,3.10841925 96.5388491,3.39751104 C96.8280118,3.68854426 97.0681014,4.02065097 97.2534915,4.38655077 C97.4381512,4.75026646 97.561483,5.13042368 97.6426176,5.58920901 C97.7358258,6.10745078 97.7616029,6.6710736 97.7747088,7.15455155 C97.7820677,7.42744449 97.7856898,7.70033743 97.7870239,7.97972205 C97.7895595,8.31759238 97.7895595,8.65528071 97.7895595,8.99381842 L97.7895595,57.9757056 C97.7895595,58.3142433 97.7895595,58.6513249 97.7869635,58.996415 C97.7856898,59.2692472 97.7820737,59.5421402 97.7746485,59.8155185 C97.7616029,60.2982684 97.7358318,60.8615879 97.6414767,61.3859573 C97.561483,61.8384329 97.4382176,62.2186508 97.2525317,62.5841866 C97.0676788,62.9491764 96.8279575,63.2809191 96.5400565,63.5701322 C96.2503565,63.8613474 95.9215259,64.1016 95.5571507,64.287189 C95.1951238,64.4728994 94.8157049,64.5975213 94.3669896,64.6786915 C93.8350932,64.7739432 93.2523609,64.8001525 92.8134855,64.8121045 C92.5373623,64.8183535 92.2625671,64.8221089 91.9810772,64.8234497 C91.6456062,64.825998 91.3089399,64.825998 90.9734145,64.825998 L8.94845489,64.825998 C8.94398766,64.825998 8.93964116,64.825998 8.93511356,64.825998 C8.60345177,64.825998 8.27112593,64.825998 7.93342734,64.8233891 C7.65808889,64.8221089 7.38335412,64.8184141 7.11773492,64.8123472 C6.66883847,64.8001525 6.08574396,64.7740038 5.55818801,64.6792982 C5.10561515,64.5975153 4.72619623,64.4728994 4.35940026,64.2847622 C3.99846603,64.1008113 3.66987697,63.8608014 3.3800502,63.5690401 C3.09245705,63.2804944 2.85346014,62.9497831 2.66867369,62.5842473 C2.48370614,62.2190755 2.35995174,61.8377049 2.27858171,61.3798296 C2.18452233,60.8564916 2.15868482,60.2954169 2.14577211,59.8159432 C2.13840118,59.5414121 2.13532241,59.2669418 2.13357174,58.9940488 L2.13224364,58.188414 L2.13224364,57.9757056 L2.13224364,8.99381842 L2.13224364,8.78110996 L2.13351137,7.97717391 C2.13532241,7.70264289 2.13840118,7.42817253 2.14577211,7.15388418 C2.15868482,6.67392508 2.18452233,6.11260772 2.27936046,5.58490145 C2.3600121,5.13115172 2.48370614,4.7497811 2.66963958,4.38278924 C2.85297719,4.02004427 3.09239668,3.68890828 3.38150507,3.39842109 C3.66946043,3.10890461 3.99912404,2.86822736 4.3623583,2.68257765 C4.72523034,2.49686727 5.10536764,2.37219074 5.55794654,2.29034713 C6.07940532,2.19618754 6.63907705,2.17022085 7.11839897,2.15717683 C7.39162454,2.14971444 7.6648501,2.14674162 7.93602316,2.14486085 L8.94845489,2.14285875 L90.9734085,2.14285875 L91.9824536,2.14480018 Z" id="XMLID_3_" fill="#FFFFFF"></path>
                    <g id="编组" transform="translate(13.543812, 18.967907)" fill="#000000">
                        <g id="路径">
                            <path d="M13.7341911,3.99514537 C14.5897505,2.91967538 15.1703277,1.47563612 15.0172043,0 C13.7647856,0.0625870069 12.2364489,0.830394167 11.351617,1.90670746 C10.5571319,2.82840367 9.85394732,4.3329065 10.0372668,5.74668365 C11.4431711,5.86924279 12.8477775,5.04043817 13.7341911,3.99514537"></path>
                            <path d="M15.0012309,6.02272535 C12.9595187,5.90049989 11.2235644,7.187289 10.2485428,7.187289 C9.2729838,7.187289 7.7799081,6.08431737 6.16502184,6.11404559 C4.06314692,6.14507215 2.11285002,7.33943076 1.04623801,9.23902165 C-1.14760151,13.0391377 0.467284746,18.6760393 2.60067779,21.7710202 C3.63670134,23.3022056 4.88528664,24.9881537 6.53048971,24.9275931 C8.08492949,24.8662923 8.6942056,23.9160327 10.5836938,23.9160327 C12.4717936,23.9160327 13.0206232,24.9275931 14.6660919,24.8969488 C16.372484,24.8662862 17.4392831,23.3649989 18.4752946,21.832321 C19.6638077,20.0868497 20.1503436,18.4014537 20.1809441,18.3089322 C20.1503376,18.2782878 16.890538,17.0214939 16.8603117,13.2529625 C16.8295361,10.0975181 19.4196191,8.59661298 19.5415202,8.50353331 C18.078876,6.32945993 15.7935247,6.08431737 15.0012309,6.02272535"></path>
                        </g>
                        <g transform="translate(24.204435, 1.752345)">
                            <path d="M8.57444132,0 C13.0120689,0 16.1021498,3.0741954 16.1021498,7.54998543 C16.1021498,12.0417559 12.9484832,15.1319196 8.46316499,15.1319196 L3.54986176,15.1319196 L3.54986176,22.9845262 L0,22.9845262 L0,0 L8.57444132,0 L8.57444132,0 Z M3.54985572,12.1373048 L7.62307786,12.1373048 C10.7137685,12.1373048 12.4728015,10.4650256 12.4728015,7.5659598 C12.4728015,4.66720338 10.7137685,3.0105952 7.63897276,3.0105952 L3.54985572,3.0105952 L3.54985572,12.1373048 L3.54985572,12.1373048 Z" id="形状"></path>
                            <path d="M17.0296558,18.2220894 C17.0296558,15.2910687 19.2643705,13.4912919 23.2269321,13.2682392 L27.7911211,12.9975668 L27.7911211,11.7074894 C27.7911211,9.84380288 26.53895,8.72884896 24.4473074,8.72884896 C22.4657218,8.72884896 21.2294455,9.68435041 20.9286318,11.1818095 L17.6954787,11.1818095 C17.8856318,8.15523989 20.4529501,5.92533206 24.573869,5.92533206 C28.6153013,5.92533206 31.1985144,8.07566533 31.1985144,11.4365075 L31.1985144,22.9845323 L27.9176827,22.9845323 L27.9176827,20.2289445 L27.8388119,20.2289445 C26.8721693,22.092631 24.7640221,23.2711791 22.5769981,23.2711791 C19.3120552,23.2711791 17.0296558,21.2323691 17.0296558,18.2220894 Z M27.7911211,16.7089593 L27.7911211,15.3869331 L23.6860971,15.6416312 C21.6415356,15.7851093 20.4847459,16.6929849 20.4847459,18.1265404 C20.4847459,19.5917413 21.6892263,20.5475461 23.5277458,20.5475461 C25.9208118,20.5475461 27.7911211,18.890938 27.7911211,16.7089593 Z" id="形状"></path>
                            <path d="M34.2959301,29.1488853 L34.2959301,26.3613488 C34.5490531,26.424949 35.1195005,26.424949 35.4050291,26.424949 C36.9898098,26.424949 37.8457858,25.7560944 38.3685425,24.0358921 C38.3685425,24.0039373 38.669966,23.0164871 38.669966,23.0005127 L32.6475577,6.22795929 L36.3557708,6.22795929 L40.5720651,19.8627232 L40.635041,19.8627232 L44.8513413,6.22795929 L48.4647887,6.22795929 L42.2198217,23.8604592 C40.7940141,27.9224081 39.1456417,29.2284599 35.6905577,29.2284599 C35.4050351,29.2284599 34.5490592,29.1965051 34.2959301,29.1488853 Z" id="路径"></path>
                        </g>
                    </g>
                </g>
            </g>
        </g>
    </g>
</svg>