<?xml version="1.0" encoding="UTF-8"?>
<svg width="120px" height="90px" viewBox="0 0 120 90" version="1.1" xmlns="http://www.w3.org/2000/svg" xmlns:xlink="http://www.w3.org/1999/xlink">
    <title>atone</title>
    <g id="LOGO-+-SDK-+-payment-icon" stroke="none" stroke-width="1" fill="none" fill-rule="evenodd">
        <g id="payment" transform="translate(-1268.000000, -355.000000)">
            <g id="atone" transform="translate(1268.000000, 355.000000)">
                <g id="payment-4:3bg" transform="translate(-20.000000, -15.000000)"></g>
                <g transform="translate(4.500000, 31.000000)" fill-rule="nonzero">
                    <path d="M18.7860848,15.8288423 C18.7501156,16.8341297 18.7141464,18.0368842 18.7141464,19.2575903 C18.7141464,21.0527463 19.3076386,22.2016461 20.6205154,23.1710304 C21.0161769,23.4223522 21.4478076,23.6018678 21.897423,23.673674 C22.5448691,23.8172865 23.1923151,23.8172865 23.8397612,23.9249959 C24.7389919,24.0865599 25.2965149,24.7866708 25.3504688,25.6842488 C25.4224072,26.492069 25.0267457,27.263986 24.3253458,27.6768719 C24.037592,27.7845813 23.7498382,27.8563875 23.4440997,27.8563875 C22.4189768,27.8563875 21.6995922,27.8743391 20.7643923,27.6409688 C19.8831463,27.389647 19.0378694,27.0306158 18.2465464,26.5459236 C17.6710388,26.1868924 17.1674696,25.7381034 16.7358389,25.2175082 C16.4480851,24.8943801 16.2322697,24.8943801 15.9085467,25.1995566 C15.009316,26.04328 13.9302392,26.653633 12.7432547,26.9588095 C11.8080548,27.2280829 10.4771934,27.263986 9.23625504,27.263986 C8.01330132,27.263986 6.46662456,27.1921798 5.63933233,26.8870033 C4.21854786,26.3843596 2.95962492,25.5406363 1.98845579,24.409688 C1.30504047,23.6377709 0.783486679,22.7401929 0.459763636,21.7528571 C0.0101482974,20.2808292 -0.205667065,18.8088013 0.261932887,17.229064 C0.441779022,16.5648563 0.693563612,15.9006486 0.981317428,15.272344 C1.41294815,14.3927175 2.06039424,13.6746551 2.76179417,13.0104474 C3.67900946,12.130821 4.38040939,11.7897414 5.54940927,11.3589039 C5.92708615,11.233243 6.32274765,11.1434852 6.71840915,11.071679 C7.99531671,10.8024056 9.93765497,10.8562602 11.6461933,10.8383087 C12.3296086,10.8383087 12.9950393,10.8383087 13.66047,10.8383087 C13.8403161,10.8383087 14.0381469,10.8742118 14.1460545,10.6946962 C14.2539622,10.5151806 14.1460545,10.2818103 14.0561315,10.1202463 C13.2648085,8.77387928 11.7541009,8.03786532 10.0635473,8.05581688 C9.25423965,8.07376844 8.66074741,7.85834972 8.19314746,7.194142 C7.68957828,6.45812804 7.77950134,5.23742196 8.42694743,4.60911737 C8.7866397,4.26803773 9.25423965,4.08852213 9.73982422,4.07057057 L10.7649472,4.07057057 C13.0130239,4.07057057 15.1531929,5.12971261 16.7897927,6.96077172 C17.5091773,7.78654348 18.0487157,8.75592772 18.3544541,9.7971182 C18.6601925,10.8203571 18.8040694,11.8615476 18.8040694,12.9206896 L18.8040694,15.8288423 L18.7860848,15.8288423 Z M14.5597006,17.4085796 C14.5597006,16.7264203 14.5597006,16.1878735 14.5597006,15.6313752 C14.5597006,15.3261987 14.451793,15.1287315 14.1100853,15.1466831 C13.5345777,15.1646346 12.9410854,15.1825862 12.3655778,15.1825862 C11.1785933,15.1825862 10.2074242,15.2005377 8.94850122,15.2005377 C7.99531671,15.2005377 7.09608603,15.1287315 6.25080919,15.6134236 C5.13576315,16.2596798 4.41637861,17.1752093 4.21854786,18.4497701 C4.0027325,19.6884277 4.398394,20.9629885 5.26165545,21.8785181 C5.76522463,22.4350164 6.3946861,22.8119992 7.11407064,23.0094663 C8.13919362,23.2787397 9.1823012,23.2428366 10.2433934,23.2069335 C11.3584394,23.1710304 12.3835624,22.8479023 13.2108546,22.0400821 C13.8223315,21.4476806 14.3438853,20.7834729 14.4697776,19.921798 C14.5776853,19.0960263 14.6136545,18.2523029 14.5597006,17.4085796 Z" id="形状" fill="#0098D8"></path>
                    <path d="M72.5600793,18.5574795 C72.5600793,20.9270854 72.5241101,23.2787397 72.5780639,25.6483456 C72.6140331,26.9767611 71.5349563,28 70.2580488,27.8743391 C69.4307565,27.7845813 68.6394335,27.1921798 68.4236182,26.0791831 C68.2977259,25.46883 68.3696643,24.858477 68.3696643,24.248124 C68.3336951,20.4244417 68.3516797,16.5828079 68.3516797,12.7591256 C68.3516797,11.6999836 68.4595874,10.6408415 68.6574182,9.59965104 C68.8372643,8.79183084 69.1430027,8.03786532 69.5926181,7.33775448 C70.1861103,6.40427336 70.9414641,5.5785016 71.8406948,4.93224545 C72.5600793,4.41165021 73.3693869,4.01671589 74.2146637,3.76539405 C75.4735867,3.38841129 76.7864635,3.29865349 78.0813557,3.49612065 C78.9086479,3.63973313 79.6999709,3.89105497 80.43734,4.25008617 C82.0020014,5.00405169 83.1710013,6.2068062 84.0342627,7.67883412 C84.3220166,8.19942936 84.5738011,8.73797616 84.7356627,9.31242608 C84.9694626,10.04844 85.0773703,10.8203571 85.0414011,11.6102258 C85.0234165,14.2132019 85.0773703,16.8341297 85.0234165,19.4371059 C85.0054319,20.9270854 85.5629549,22.0939368 86.7139702,22.9915148 C87.4333547,23.5480131 88.3146008,23.7634318 89.2138314,23.8531896 C89.5015852,23.8711412 89.8073237,23.9070443 90.1130621,23.9249959 C90.9223697,23.960899 91.3899697,24.5353489 91.6237696,25.1277504 C91.8935388,25.8637644 91.6237696,27.1203736 90.8684159,27.5153079 C90.4188005,27.7486782 89.8972467,27.8922906 89.375693,27.8922906 C88.7462315,27.8922906 88.11677,27.8204844 87.5052931,27.6948235 C85.9586164,27.389647 84.5378319,26.653633 83.3868166,25.594491 C82.1278937,24.4455911 81.2646322,22.9197085 80.9229246,21.2322619 C80.8330015,20.7475698 80.7970323,20.2628777 80.8150169,19.760234 C80.7970323,16.9238875 80.8150169,14.0695895 80.8150169,11.233243 C80.8150169,9.9766338 79.8438478,8.64821836 78.7288017,8.03786532 C78.3331402,7.78654348 77.8835249,7.62497944 77.4339096,7.5531732 C77.0742173,7.49931852 76.6965404,7.48136696 76.3188635,7.51727008 C75.0059867,7.69678568 74.0528022,8.19942936 73.2794638,9.27652296 C72.8118639,9.886876 72.5600793,10.62289 72.5420947,11.394807 C72.5600793,13.7823645 72.5600793,16.169922 72.5600793,18.5574795 Z" id="路径" fill="#0098D8"></path>
                    <path d="M62.2369111,15.5236658 C62.2369111,16.8161781 62.2369111,18.0907389 62.2369111,19.3832512 C62.2369111,21.0886494 61.8412496,22.7581445 60.8520959,24.1942693 C59.9528652,25.5226847 58.6939423,26.5818268 57.219204,27.2101314 C55.8703579,27.7666297 54.3956196,28 52.9388659,27.8563875 C52.0216506,27.7845813 51.1404046,27.4435016 50.2951277,27.0665189 C47.4715434,25.7381034 45.6550974,22.9197085 45.6191282,19.7961371 C45.6191282,16.9777422 45.583159,14.1772988 45.6191282,11.3589039 C45.6550974,9.81506976 46.140682,8.28918716 47.0219281,7.0146264 C48.0650357,5.47079224 49.6117124,4.32189241 51.4101738,3.76539405 C52.7770044,3.38841129 54.2157735,3.28070193 55.6185733,3.47816909 C56.3559425,3.60383001 57.0573424,3.85515185 57.7227731,4.21418305 C58.2443269,4.50140801 58.7299115,4.84248765 59.1795268,5.20151885 C59.9348806,5.82982344 60.5823267,6.58378896 61.1038805,7.40956072 C61.4455881,7.98401064 61.7153573,8.59436368 61.8952035,9.24061984 C62.4707111,11.0178243 62.1649727,12.8309318 62.2548957,14.6260878 C62.2369111,14.9312643 62.2369111,15.2364409 62.2369111,15.5236658 Z M49.7376047,15.6672783 C49.7376047,16.8161781 49.7376047,17.965078 49.7376047,19.1139778 C49.7376047,20.3167323 49.9714047,21.4476806 50.8346661,22.3632102 C51.4101738,22.9735632 52.0935891,23.4762069 52.9388659,23.6377709 C53.9280197,23.8172865 54.8812042,23.7813834 55.8164041,23.3146428 C56.5717579,22.9197085 57.2012193,22.3093555 57.6148655,21.55539 C58.0464962,20.8373276 58.10045,19.9756527 58.10045,19.1319294 C58.1184346,16.8341297 58.10045,14.5183785 58.10045,12.2205788 C58.10045,11.7897414 58.0644808,11.3589039 58.0105269,10.9280665 C57.6868039,8.84568552 55.726481,7.53522164 54.1078658,7.49931852 C53.6222812,7.48136696 53.1546813,7.53522164 52.6870813,7.67883412 C51.8058353,7.93015596 51.0324969,8.48665432 50.5289277,9.24061984 C49.8994662,10.1381978 49.7376047,11.1434852 49.7555893,12.2205788 C49.7376047,13.3694786 49.7376047,14.5183785 49.7376047,15.6672783 Z" id="形状" fill="#0098D8"></path>
                    <path d="M110.651491,9.38423232 C110.435675,8.6302668 110.111952,7.9122044 109.698306,7.24799668 C109.032876,6.17090308 108.259537,5.25537352 107.18046,4.57321425 C106.24526,3.98081277 105.328045,3.65768469 103.979199,3.51407221 C102.738261,3.37045973 101.281507,3.40636285 100.022584,3.81924873 C98.5658305,4.28598929 97.2529537,5.16561573 96.2637999,6.33246712 C95.6163539,7.08643264 95.1127847,7.96605908 94.8070462,8.91749176 C94.5552617,9.54579636 94.4293694,10.2279556 94.4293694,10.9101149 C94.4293694,12.4898522 94.447354,14.0516379 94.447354,15.6134236 L94.447354,15.6134236 C94.447354,16.9059359 94.4293694,18.1804967 94.4293694,19.473009 C94.4293694,20.7834729 94.5732463,21.8964696 95.0948001,23.0274179 C95.7602308,24.5173974 96.8752768,25.7740066 98.2780767,26.6356814 C99.051415,27.102422 99.8787073,27.4435016 100.741969,27.6768719 C101.767092,27.9640969 102.630353,27.9281938 103.637491,27.838436 C103.799353,27.8025328 103.961215,27.7666297 104.105091,27.6948235 C104.698584,27.4614532 105.004322,27.0665189 105.184168,26.4023112 C105.489907,25.3431691 104.788507,24.0865599 103.781368,23.9070443 C102.77423,23.7275287 101.731122,23.7813834 100.777938,23.2966913 C99.7707996,22.8119992 99.0154458,21.9144212 98.6917228,20.8552791 C98.4399382,19.9577011 98.3320305,19.0062685 98.4039689,18.0727873 C98.4399382,17.229064 98.5478459,17.1034031 99.3751381,17.1034031 C102.504461,17.1034031 105.633784,17.1034031 108.763106,17.1034031 C110.111952,17.1034031 110.975214,16.2417282 110.957229,15.2543924 C110.903275,13.3156239 111.226998,11.3230008 110.651491,9.38423232 Z M106.766814,12.5437069 C106.74883,12.9027381 106.568983,12.9924959 106.24526,12.9924959 C105.040291,12.9745443 103.853307,12.9924959 102.648338,12.9924959 C101.479338,12.9924959 100.310338,12.9924959 99.1413381,12.9924959 C98.5658305,12.9924959 98.3679997,12.8129803 98.3859843,12.2385304 C98.4039689,10.8383087 98.7816458,9.54579636 99.8607226,8.59436368 C100.346307,8.12762312 100.957784,7.80449504 101.60523,7.66088256 C102.30663,7.49931852 102.936092,7.44546384 103.655476,7.66088256 C104.87843,8.01991376 105.795645,8.70207304 106.389137,9.85097288 C106.838753,10.6946962 106.802783,11.6102258 106.766814,12.5437069 Z" id="形状" fill="#0098D8"></path>
                    <path d="M34.180914,14.3388629 C34.180914,16.1519704 34.1089756,17.965078 34.1988986,19.760234 C34.2888217,21.4835837 35.3499139,23.2069335 37.3821752,23.6377709 C38.0655905,23.7813834 38.7490059,23.799335 39.4324212,23.9070443 C40.1158365,24.0147537 40.5294826,24.4455911 40.7992518,25.0918473 C41.1049902,25.7919581 40.7992518,26.8331486 40.4215749,27.2819376 C40.1158365,27.6230172 39.6842058,27.838436 39.2166058,27.8563875 C38.4252828,27.9281938 37.6339598,27.8922906 36.8606214,27.7666297 C34.9182832,27.3357923 33.2097449,26.4561658 31.9508219,24.8764286 C31.3213605,24.0865599 30.8357759,23.1889819 30.5300375,22.2195977 C30.1163914,20.8732307 30.134376,19.4909606 30.0804221,18.126642 C29.9904991,15.6852299 30.0804221,13.2438177 30.0804221,10.8203571 C30.0804221,10.174101 30.0624375,9.5278448 30.0804221,8.8995402 C30.0984067,8.1814778 29.9545298,8.01991376 29.2531299,8.01991376 C28.7495607,8.01991376 28.3718838,8.01991376 27.7783916,8.01991376 C26.501484,8.01991376 25.6562072,6.3863218 26.0518687,5.36308288 C26.3935764,4.46550489 27.0410224,4.05261901 28.1200993,4.05261901 C28.5157608,4.05261901 28.9294069,4.05261901 29.343053,4.05261901 C29.9545298,4.05261901 30.1163914,3.89105497 30.134376,3.24479881 C30.1523606,2.65239733 30.0624375,2.05999585 30.2063144,1.46759437 C30.4041452,0.677725734 31.0875605,0.0853242551 31.9148527,0.0135180152 C32.8500526,-0.0762397846 33.4974987,0.282791415 33.9830833,1.03675693 C34.1089756,1.23422409 34.180914,1.46759437 34.180914,1.71891621 C34.180914,2.20360833 34.180914,2.67034889 34.180914,3.15504101 C34.180914,3.98081277 34.2708371,4.07057057 35.1161139,4.07057057 L36.3750369,4.07057057 C37.346206,4.07057057 38.1555136,4.64502049 38.2814059,5.4887438 C38.4792366,6.79920768 37.9217136,7.5531732 37.1483752,7.87630128 C36.878606,7.98401064 36.5728676,8.01991376 36.2851138,8.03786532 C35.8175138,8.03786532 35.3499139,8.03786532 34.8823139,8.03786532 C34.3068063,8.03786532 34.1629294,8.16352624 34.1629294,8.75592772 C34.180914,10.62289 34.180914,12.4719006 34.180914,14.3388629 Z" id="路径" fill="#0098D8"></path>
                    <path d="M110.975214,25.8817159 C111.119091,27.0665189 110.004045,27.9820484 108.781091,28 C107.64806,28 106.622937,26.940858 106.640922,25.8817159 C106.640922,24.6789614 107.612091,23.7095772 108.799076,23.6916256 C108.81706,23.6916256 108.81706,23.6916256 108.835045,23.6916256 C109.842183,23.673674 111.101106,24.4994458 110.975214,25.8817159 Z" id="路径" fill="#E3007F"></path>
                </g>
            </g>
        </g>
    </g>
</svg>