<?xml version="1.0" encoding="UTF-8"?>
<svg width="152px" height="36px" viewBox="0 0 152 36" version="1.1" xmlns="http://www.w3.org/2000/svg" xmlns:xlink="http://www.w3.org/1999/xlink">
    <title>aupay_horizon</title>
    <defs>
        <polygon id="path-1" points="0 0 62.5917705 0 62.5917705 25.9995558 0 25.9995558"></polygon>
        <polygon id="path-3" points="0 0 73.1372188 0 73.1372188 26 0 26"></polygon>
    </defs>
    <g id="LOGO-+-SDK-+-payment-icon" stroke="none" stroke-width="1" fill="none" fill-rule="evenodd">
        <g id="payment_horizon" transform="translate(-1252.000000, -182.000000)">
            <g id="aupay_horizon" transform="translate(1252.000000, 182.000000)">
                <g id="payment-4:3bg" transform="translate(-25.333333, -6.000000)"></g>
                <g id="编组" transform="translate(5.000000, 5.000000)">
                    <g transform="translate(78.408230, 0.000000)">
                        <mask id="mask-2" fill="white">
                            <use xlink:href="#path-1"></use>
                        </mask>
                        <g id="Clip-2"></g>
                        <path d="M62.5931213,-0.000444216641 L57.1897873,-0.000444216641 L50.7328032,13.0817359 L44.2803219,-0.000444216641 L38.8724852,-0.000444216641 L48.4093696,18.2879549 L48.4093696,25.9995558 L53.0562368,25.9995558 L53.0562368,18.2879549 L62.5931213,-0.000444216641 Z M10.054704,18.0658466 C15.0437823,18.0658466 19.1052884,14.0145908 19.1052884,9.0304801 C19.1052884,4.05081155 15.0437823,-0.000444216641 10.054704,-0.000444216641 L0,-0.000444216641 L0,25.9995558 L4.60634221,25.9995558 L4.60634221,18.0658466 L10.054704,18.0658466 Z M4.61084499,13.6503332 L4.61084499,3.89977789 L9.64495114,3.89977789 C12.3196015,3.89977789 14.4944434,6.08532377 14.4944434,8.77283444 C14.4899406,11.4692295 12.3196015,13.6503332 9.64495114,13.6503332 L4.61084499,13.6503332 Z M42.1685189,25.9995558 L37.1839433,25.9995558 L35.4188542,20.9310439 L25.8549531,20.9310439 L24.089864,25.9995558 L19.1052884,25.9995558 L28.7997701,-0.000444216641 L32.4740372,-0.000444216641 L42.1685189,25.9995558 Z M27.0121671,16.901999 L33.6042345,16.901999 L30.3577314,7.1514437 L27.0121671,16.901999 Z" id="Fill-1" fill="#E95506" mask="url(#mask-2)"></path>
                    </g>
                    <g>
                        <mask id="mask-4" fill="white">
                            <use xlink:href="#path-3"></use>
                        </mask>
                        <g id="Clip-4"></g>
                        <path d="M73.0841445,8.65867077 L69.315319,8.65867077 C69.2883024,8.65867077 69.2612857,8.67643943 69.2477774,8.6942081 C66.2219103,13.2518708 62.754771,17.8406287 59.9270263,20.4748334 C58.9454206,21.3854775 57.3964648,22.5004613 56.3743342,22.5004613 C55.5052979,22.5004613 55.0144951,21.6786605 55.7259341,19.0666667 C56.1582008,17.4674868 60.5123874,1.38240219 60.8681069,0.0852895951 C60.8816153,0.040867931 60.8500958,0.00533059969 60.8005652,0.000888433282 C59.3596762,-0.0124380659 53.2809255,-0.172356057 51.218653,7.41930634 L49.3139778,14.4201606 C48.9537555,15.6373142 48.4179249,16.7967196 47.7199943,17.8583974 C45.4595995,21.2699812 42.2626269,22.704801 40.3849684,22.704801 C39.2277544,22.704801 38.5703487,22.2161627 38.3587181,21.3499402 C38.1515903,20.5059286 38.5703487,18.7734837 38.7954876,17.9294721 C38.9215654,17.4808133 40.8487546,10.3644627 42.2356103,5.23376046 C42.951552,2.59511362 43.5143993,0.516179737 43.6314715,0.0852895951 L43.6314715,0.0808474287 C43.6314715,0.0764052623 43.6314715,0.0719630958 43.6314715,0.0675209294 C43.6314715,0.0275414317 43.6089577,0.00533059969 43.5684326,0.000888433282 C42.1275436,-0.0124380659 36.0577984,-0.172356057 33.9910232,7.40597984 C33.9865204,7.41042201 31.6810979,15.8683069 31.6810979,15.8683069 C31.4109312,16.7567401 31.0011784,17.6007518 30.4788561,18.3692465 C29.0019448,20.4659491 26.3813278,22.5004613 24.9899693,22.5004613 C24.0038609,22.5004613 23.6076164,21.585375 24.2920387,19.0666667 L29.4342115,0.0852895951 C29.4477199,0.040867931 29.4162004,0.00533059969 29.3666699,0.00533059969 L27.1648113,0.00533059969 C19.0643131,0.00533059969 13.2962541,1.29355886 9.00510634,4.05658637 C1.81416938,8.6942081 -0.000450277831,17.8761661 -0.000450277831,19.7640868 C-0.000450277831,21.7808303 0.629938686,25.9964463 7.70830619,25.9964463 C7.79385898,25.9964463 7.87941176,25.9964463 7.96046177,25.9920041 C12.2471067,25.9076029 15.2819793,23.6643089 17.1191129,21.5898172 C17.1596379,21.5409534 17.2316823,21.4654365 17.2767101,21.4121305 C17.3082295,21.3765932 17.339749,21.3854775 17.3487546,21.4298992 C18.0782046,25.4633863 21.8155106,25.7876644 22.9772274,25.7876644 C27.3899502,25.7876644 30.6319506,22.6026311 31.5325062,21.4210149 C31.5640257,21.3854775 31.5955451,21.3899197 31.6045507,21.4343414 C32.0683368,23.4999487 33.7028454,26.0008884 39.1422016,26.0008884 C43.5594271,26.0008884 46.6798525,23.7087306 48.5530082,21.5942594 C48.6025388,21.5365112 48.6565721,21.4743209 48.7061027,21.4165727 C48.7376221,21.3810354 48.7691416,21.3943619 48.7781472,21.4387835 C49.4535639,25.1568768 52.722581,25.7876644 54.3435811,25.7876644 C57.941301,25.7876644 60.5168902,24.1707159 63.3581433,21.2077909 C66.7802548,17.6496156 71.265022,11.4572356 73.1246695,8.72974543 C73.1516861,8.68976593 73.133675,8.65867077 73.0841445,8.65867077 M20.4241521,3.31474458 L17.5153573,14.1136511 C17.1596379,15.472954 16.5832822,16.7700666 15.8178099,17.9516829 C13.5934374,21.3277294 10.6261065,22.7492226 8.59535352,22.7492226 C6.33045603,22.7492226 6.25841157,20.8746284 7.03288944,18.0094311 C10.1037842,6.61083205 16.9885323,3.96330087 20.3611132,3.25255425 C20.406141,3.24366991 20.4376605,3.27032291 20.4241521,3.31474458" id="Fill-3" fill="#E95506" mask="url(#mask-4)"></path>
                    </g>
                </g>
            </g>
        </g>
    </g>
</svg>