<?xml version="1.0" encoding="UTF-8"?>
<svg width="120px" height="90px" viewBox="0 0 120 90" version="1.1" xmlns="http://www.w3.org/2000/svg" xmlns:xlink="http://www.w3.org/1999/xlink">
    <title>aupay</title>
    <defs>
        <polygon id="path-1" points="0 0 82.143215 0 82.143215 40.9994449 0 40.9994449"></polygon>
        <polygon id="path-3" points="0 0 82.143215 0 82.143215 40.9994449 0 40.9994449"></polygon>
        <polygon id="path-5" points="0 0 82.143215 0 82.143215 81.9988898 0 81.9988898"></polygon>
    </defs>
    <g id="LOGO-+-SDK-+-payment-icon" stroke="none" stroke-width="1" fill="none" fill-rule="evenodd">
        <g id="payment" transform="translate(-1268.000000, -155.000000)">
            <g id="aupay" transform="translate(1268.000000, 155.000000)">
                <g id="payment-4:3bg" transform="translate(-20.000000, -15.000000)"></g>
                <g id="au-PAY" transform="translate(19.000000, 4.109200)">
                    <g id="Clipped">
                        <mask id="mask-2" fill="white">
                            <use xlink:href="#path-1"></use>
                        </mask>
                        <g id="a"></g>
                        <path d="M82.143215,41.0005551 L82.143215,4.91926727 C82.143215,2.21372578 79.9261586,0 77.2150661,0 L4.92925901,0 C2.21816656,0 0,2.21372578 0,4.92037747 L0,40.9994449 L82.143215,40.9994449 L82.143215,41.0005551 Z" id="路径" fill="#FEFEFE" fill-rule="nonzero" mask="url(#mask-2)"></path>
                    </g>
                    <g id="Clipped" transform="translate(0.000000, 41.000555)">
                        <mask id="mask-4" fill="white">
                            <use xlink:href="#path-3"></use>
                        </mask>
                        <g id="c"></g>
                        <path d="M82.143215,0 L82.143215,36.0790674 C82.143215,38.7857191 79.9261586,40.9994449 77.2150661,40.9994449 L4.92925901,40.9994449 C2.21816656,40.9994449 0,38.7857191 0,36.0790674 L0,0 L82.143215,0 Z" id="路径" fill="#E95506" fill-rule="nonzero" mask="url(#mask-4)"></path>
                    </g>
                    <path d="M38.2661486,60.4522549 L43.8770664,60.4522549 L41.1137948,52.3778178 L38.2661486,60.4522549 L38.2661486,60.4522549 Z M50.5626515,68.0748433 L46.4471643,68.0748433 L44.9905904,63.8283533 L37.0915639,63.8283533 L35.6327697,68.0748433 L31.5183927,68.0748433 L39.5228876,46.2861862 L42.5581565,46.2861862 L50.5626515,68.0748433 L50.5626515,68.0748433 Z M19.6504244,57.9298953 L19.6504244,49.8110505 L23.87138,49.8110505 C26.1139708,49.8110505 27.9391289,51.6317678 27.9391289,53.871028 C27.9342323,56.1142943 26.1146516,57.9303988 23.87138,57.9310055 L19.6504244,57.9310055 L19.6504244,57.9298953 Z M24.2144298,61.4270048 C28.3965286,61.4270048 31.7981614,58.0298128 31.7981614,53.8554853 C31.7981614,49.6811579 28.3965286,46.2861862 24.21554,46.2861862 L15.7925021,46.2861862 L15.7925021,68.0748433 L19.653755,68.0748433 L19.653755,61.4270048 L24.2144298,61.4270048 Z M67.6662921,46.2861862 L63.1755595,46.2861862 L57.813325,57.2482366 L52.4499804,46.2861862 L47.9581376,46.2861862 L55.8804782,61.6101867 L55.8804782,68.0748433 L59.7439515,68.0748433 L59.7439515,61.6101867 L67.6662921,46.2861862 Z" id="形状" fill="#FEFEFE" fill-rule="nonzero"></path>
                    <g id="Clipped">
                        <mask id="mask-6" fill="white">
                            <use xlink:href="#path-5"></use>
                        </mask>
                        <g id="e"></g>
                        <path d="M77.2150661,0 L4.92925901,0 C2.21816656,0 0,2.21372578 0,4.92037747 L0,77.0796225 C0,79.785164 2.21816656,82 4.92925901,82 L77.2139559,82 C79.9250484,82 82.143215,79.785164 82.143215,77.0796225 L82.143215,4.92037747 C82.143215,2.21372578 79.9250484,0 77.2139559,0 M77.2139559,1.21677204 C79.2604811,1.21677204 80.9205483,2.87385564 80.9242225,4.92037747 L80.9242225,77.0796225 C80.9205483,79.1261444 79.2604811,80.783228 77.2139559,80.783228 L4.92925901,80.783228 C2.8831673,80.783228 1.22377595,79.125711 1.22010263,77.0796225 L1.22010263,4.92037747 C1.22010263,2.87762148 2.88428264,1.21677204 4.92925901,1.21677204 L77.2161763,1.21677204" id="形状" fill="#E95506" fill-rule="nonzero" mask="url(#mask-6)"></path>
                    </g>
                    <path d="M28.7917575,16.8716102 L26.3437809,26.0085025 C26.0432458,27.1600431 25.5609105,28.2562597 24.9149619,29.2558184 C23.0420655,32.1145666 20.5441302,33.3169061 18.8322119,33.3169061 C16.9260097,33.3169061 16.8671694,31.7293294 17.5199632,29.3057771 C20.1056038,19.6604162 25.9019239,17.4178254 28.7395784,16.8161005 C28.7762148,16.8094394 28.8028594,16.8338636 28.7917575,16.8716102 M72.0027078,21.5455247 L68.8786234,21.5455247 C68.8564195,21.5455247 68.8342156,21.558847 68.8220035,21.5766101 C66.3151866,25.3956757 63.4375652,29.2413858 61.0939467,31.4462301 C60.2812851,32.2100432 58.9979015,33.1437159 58.1508238,33.1437159 C57.4269777,33.1437159 57.0228673,32.4565061 57.6101596,30.2683148 C57.9698623,28.9272011 61.5802115,15.447232 61.8733026,14.3603526 C61.8844045,14.322606 61.85887,14.2926308 61.8200133,14.2904104 C60.6232247,14.2804186 55.5851667,14.1460852 53.876579,20.508604 L52.2967737,26.3748663 C51.9978993,27.3939688 51.5528969,28.3643733 50.9756434,29.2558184 C49.1016369,32.1145666 46.4504948,33.3169061 44.8917832,33.3169061 C43.9336862,33.3169061 43.3896914,32.9061345 43.2142809,32.180068 C43.0422009,31.4739849 43.3885813,30.0207417 43.5750938,29.3135484 C43.6783418,28.938303 45.2770203,22.9743437 46.428291,18.6756746 C47.0211343,16.4641692 47.4885257,14.7233858 47.5828922,14.3614627 L47.5828922,14.3581322 C47.5862228,14.3548016 47.5862228,14.3503608 47.5862228,14.34592 C47.5862228,14.3126142 47.5651291,14.2926308 47.5307131,14.2904104 C46.3372551,14.2804186 41.3047481,14.1460852 39.5928298,20.4952817 C39.5894992,20.4986123 37.6788562,27.5871976 37.6788562,27.5871976 C37.4521401,28.332125 37.115362,29.0389848 36.6796821,29.684353 C35.4551387,31.4395689 33.2824901,33.1437159 32.1312195,33.1437159 C31.3107865,33.1437159 30.9854998,32.3776824 31.5516985,30.2683148 L35.8148414,14.3614627 C35.8237229,14.322606 35.8004089,14.2926308 35.7593317,14.2926308 L33.9330635,14.2926308 C27.2186133,14.2926308 22.4347897,15.3717388 18.87884,17.6898228 C12.917101,21.5754999 11.4116787,29.2713611 11.4116787,30.8522766 C11.4116787,32.5431012 11.9334696,36.0757369 17.8030625,36.0757369 C17.8730047,36.0757369 17.9429469,36.0757369 18.0117789,36.0712961 C21.564398,36.0002437 24.0800964,34.119576 25.6055022,32.3821232 C25.638808,32.341046 25.6965381,32.2788752 25.7353949,32.2322471 C25.7609293,32.203382 25.787574,32.2100432 25.7942351,32.2489 C26.4004008,35.6283289 29.4978405,35.9014365 30.4614885,35.9014365 C34.119576,35.9014365 36.8073544,33.2314212 37.5556248,32.2411286 C37.5789388,32.2100432 37.6044733,32.2133738 37.6133548,32.2533407 C37.9974818,33.9841324 39.3519178,36.0779572 43.8615237,36.0779572 C47.5251621,36.0779572 50.1108027,34.1573225 51.6639634,32.3854538 C51.7072609,32.3377154 51.7505585,32.2855363 51.7905254,32.2366878 C51.8182803,32.2067126 51.8438147,32.2178145 51.8515861,32.2555611 C52.4100134,35.3729844 55.1233262,35.8992161 56.4666603,35.8992161 C59.4475298,35.8992161 61.5846523,34.5447801 63.9404828,32.0634977 C66.7759169,29.0804078 70.4939549,23.8902533 72.0360136,21.604365 C72.0571073,21.5710592 72.0437849,21.5455247 72.0027078,21.5455247" id="形状" fill="#E95506" fill-rule="nonzero"></path>
                </g>
            </g>
        </g>
    </g>
</svg>