<svg width="120" height="90" viewBox="0 0 120 90" fill="none" xmlns="http://www.w3.org/2000/svg">
<g id="boost">
<g id="boost_2">
<g id="Group">
<path id="Vector" d="M32.8948 47.2503C32.1431 45.7836 30.8414 44.867 29.0264 44.5003C28.8798 44.4636 28.7331 44.4636 28.5865 44.4453L28.3848 44.427C28.2564 44.4086 28.0915 44.3903 27.8165 44.3903H27.6698H24.7181V41.457C24.7181 41.072 24.6998 40.8703 24.6815 40.7236L24.6631 40.522C24.6448 40.3753 24.6265 40.2103 24.6081 40.082C24.2415 38.267 23.3248 36.947 21.8581 36.2136C20.7398 35.6453 19.7131 35.627 19.6948 35.627H19.5298C19.2365 35.627 19.0348 35.6453 18.7781 35.682C13.9748 36.3236 14.0298 40.9436 14.0481 41.127V49.6703C14.0481 51.3936 14.5248 52.7503 15.4415 53.7036C16.3948 54.6203 17.7515 55.0786 19.4565 55.0786H28.0548C28.5314 55.0786 32.8398 54.9503 33.4631 50.3486C33.4998 50.0553 33.5181 49.817 33.5181 49.432C33.4998 49.4136 33.4814 48.387 32.8948 47.2503Z" fill="#EE3124"/>
<path id="Vector_2" d="M35.865 54.4183C34.3617 57.2233 31.3 58.2317 30.4017 58.47C29.87 58.6167 29.4117 58.6717 28.55 58.7267H28.5317H18.2467C18.2467 58.7267 17.55 58.7267 16.835 58.5433C16.34 58.415 15.7167 58.2133 15.2033 57.9933C14.5983 57.7183 13.9017 57.3333 12.9483 56.38L12.8017 56.2333C12.05 55.4633 11.3167 54.3817 10.95 53.465C10.7483 52.9517 10.675 52.695 10.565 52.2C10.4 51.5217 10.4 50.7883 10.4 50.7333V40.5767C10.455 39.6967 10.5283 39.22 10.6567 38.7067C10.895 37.8083 11.885 34.7467 14.7083 33.2433C16.3033 32.345 17.935 31.8867 19.5667 31.8867C22.0783 31.8867 23.7283 32.9867 23.7833 33.0417C28.22 35.7183 28.3483 40.1367 28.3483 40.76C28.99 40.7417 33.39 40.87 36.085 45.3617C36.1033 45.3617 38.7617 49.2667 35.865 54.4183ZM35.3883 28H11.1883C8.32833 28 6 30.3283 6 33.1883V57.37C6 60.23 8.32833 62.5583 11.1883 62.5583H35.37C38.23 62.5583 40.5583 60.23 40.5583 57.37V33.2067C40.5767 30.3283 38.2483 28 35.3883 28Z" fill="#EE3124"/>
</g>
<path id="Vector_3" d="M111.912 36.4146H110.793V39.3296H110.115V36.4146H108.997V35.8096H111.912V36.4146Z" fill="#EE3124"/>
<path id="Vector_4" d="M115.322 39.3296V37.0012L114.405 38.7246H114.039L113.14 37.0012V39.3296H112.462V35.8096H113.195L114.222 37.8079L115.267 35.8096H116V39.3296H115.322Z" fill="#EE3124"/>
<g id="Group_2">
<path id="Vector_5" d="M51.4298 44.5004C50.7331 44.5004 50.0915 44.6471 49.4681 44.9587C48.8448 45.2704 48.3131 45.6738 47.8548 46.1871C47.3965 46.7004 47.0298 47.3238 46.7548 48.0204C46.4798 48.7171 46.3515 49.4871 46.3515 50.2754C46.3515 51.1004 46.4798 51.8704 46.7365 52.5488C46.9931 53.2454 47.3598 53.8504 47.7998 54.3454C48.2581 54.8588 48.7898 55.2621 49.4131 55.5371C50.0181 55.8304 50.6965 55.9771 51.4115 55.9771C52.1265 55.9771 52.7865 55.8304 53.4098 55.5371C54.0148 55.2438 54.5648 54.8404 55.0231 54.3271C55.4815 53.8138 55.8298 53.1904 56.0865 52.5121C56.3431 51.8154 56.4715 51.0454 56.4715 50.2388C56.4715 49.4321 56.3431 48.6804 56.0865 47.9837C55.8298 47.2871 55.4631 46.6637 55.0231 46.1504C54.5648 45.6371 54.0331 45.2154 53.4098 44.9404C52.8048 44.6471 52.1265 44.5004 51.4298 44.5004ZM51.4298 59.2588C50.0548 59.2588 48.8081 59.0204 47.7265 58.5254C46.6265 58.0488 45.6915 57.3704 44.9215 56.5638C44.1515 55.7388 43.5465 54.7854 43.1248 53.6854C42.7031 52.5854 42.5015 51.4304 42.5015 50.2388C42.5015 49.0471 42.7031 47.8921 43.1248 46.7921C43.5465 45.6921 44.1515 44.7204 44.9398 43.9138C45.7281 43.0888 46.6815 42.4288 47.7631 41.9521C48.8631 41.4754 50.0915 41.2188 51.4481 41.2188C52.7865 41.2188 54.0331 41.4754 55.1331 41.9521C56.2331 42.4288 57.1865 43.1071 57.9565 43.9138C58.7448 44.7388 59.3498 45.6921 59.7715 46.7921C60.1931 47.8921 60.4131 49.0471 60.4131 50.2388C60.4131 51.4304 60.1931 52.5854 59.7715 53.6854C59.3498 54.7854 58.7448 55.7571 57.9565 56.5638C57.1681 57.3888 56.2148 58.0488 55.1331 58.5254C54.0148 59.0204 52.7681 59.2588 51.4298 59.2588Z" fill="#EE3124"/>
<path id="Vector_6" d="M71.193 44.5004C70.4963 44.5004 69.8546 44.6471 69.2313 44.9587C68.608 45.2704 68.0763 45.6738 67.618 46.1871C67.1596 46.7004 66.793 47.3238 66.518 48.0204C66.243 48.7171 66.1146 49.4871 66.1146 50.2754C66.1146 51.1004 66.243 51.8704 66.4996 52.5488C66.7563 53.2454 67.123 53.8504 67.563 54.3454C68.0213 54.8588 68.553 55.2621 69.1763 55.5371C69.7813 55.8304 70.4596 55.9771 71.1746 55.9771C71.8896 55.9771 72.5496 55.8304 73.173 55.5371C73.778 55.2438 74.328 54.8404 74.7863 54.3271C75.2446 53.8138 75.6113 53.1904 75.868 52.5121C76.1246 51.8154 76.253 51.0454 76.253 50.2388C76.253 49.4321 76.1246 48.6804 75.868 47.9837C75.6113 47.2871 75.2446 46.6637 74.7863 46.1504C74.328 45.6371 73.7963 45.2154 73.173 44.9404C72.568 44.6471 71.908 44.5004 71.193 44.5004ZM71.193 59.2588C69.818 59.2588 68.5713 59.0204 67.4896 58.5254C66.3896 58.0488 65.4546 57.3704 64.6846 56.5638C63.9147 55.7388 63.3096 54.7854 62.888 53.6854C62.4663 52.5854 62.2646 51.4304 62.2646 50.2388C62.2646 49.0471 62.4663 47.8921 62.888 46.7921C63.3096 45.6921 63.9146 44.7204 64.703 43.9138C65.4913 43.0888 66.4446 42.4288 67.5263 41.9521C68.6263 41.4754 69.8546 41.2188 71.2113 41.2188C72.5496 41.2188 73.7963 41.4754 74.8963 41.9521C75.9963 42.4288 76.9496 43.1071 77.7196 43.9138C78.508 44.7388 79.113 45.6921 79.5346 46.7921C79.9563 47.8921 80.1763 49.0471 80.1763 50.2388C80.1763 51.4304 79.9563 52.5854 79.5346 53.6854C79.113 54.7854 78.508 55.7571 77.7196 56.5638C76.9313 57.3888 75.978 58.0488 74.8963 58.5254C73.778 59.0204 72.5313 59.2588 71.193 59.2588Z" fill="#EE3124"/>
<path id="Vector_7" d="M89.4165 59.2584C88.7198 59.2584 87.9864 59.2034 87.2715 59.0934C86.5565 58.9834 85.8414 58.8184 85.1448 58.6168C84.4481 58.4151 83.7881 58.1584 83.1465 57.8468C82.5231 57.5534 81.9548 57.2051 81.4598 56.8384L81.4048 56.7834L82.9998 54.2168L83.0731 54.2718C85.1631 55.7201 87.2531 56.4718 89.3248 56.4718C90.4065 56.4718 91.2681 56.2701 91.8915 55.8668C92.5148 55.4634 92.8081 54.8951 92.8081 54.1618C92.8081 53.4651 92.4781 52.9701 91.7814 52.6401C91.0664 52.3101 89.9298 51.9434 88.3898 51.5768C87.3081 51.3201 86.3731 51.0451 85.6031 50.7701C84.8331 50.4951 84.1915 50.1834 83.6965 49.8351C83.2015 49.4868 82.8348 49.0651 82.6148 48.5884C82.3948 48.1118 82.2848 47.5251 82.2848 46.8651C82.2848 45.9851 82.4681 45.1784 82.8165 44.4818C83.1648 43.7851 83.6598 43.1984 84.2648 42.7218C84.8698 42.2451 85.6031 41.8784 86.4281 41.6401C87.2531 41.4018 88.1514 41.2734 89.1048 41.2734C90.3514 41.2734 91.5981 41.4751 92.7531 41.8784C93.9264 42.2818 94.9898 42.8134 95.9064 43.5101L95.9798 43.5651L94.3298 45.9118L94.2564 45.8568C92.6248 44.6468 90.8648 44.0234 89.0315 44.0234C88.1331 44.0234 87.3631 44.2068 86.7398 44.5918C86.1165 44.9584 85.8231 45.5451 85.8231 46.3518C85.8231 46.6818 85.8781 46.9751 86.0065 47.1951C86.1348 47.4151 86.3364 47.6168 86.6114 47.7818C86.9048 47.9468 87.2898 48.1118 87.7665 48.2584C88.2431 48.4051 88.8481 48.5518 89.5448 48.7351C90.7181 49.0284 91.7631 49.3034 92.6248 49.5968C93.4865 49.8901 94.2014 50.2201 94.7698 50.6051C95.3381 50.9901 95.7598 51.4668 96.0348 51.9984C96.3098 52.5301 96.4381 53.1534 96.4381 53.9051C96.4381 54.7301 96.2731 55.4818 95.9431 56.1418C95.6131 56.8018 95.1364 57.3884 94.5131 57.8468C93.9081 58.3051 93.1565 58.6718 92.2765 58.9284C91.4515 59.1301 90.4798 59.2584 89.4165 59.2584Z" fill="#EE3124"/>
<path id="Vector_8" d="M104.45 59.2033C103.881 59.2033 103.331 59.13 102.818 58.965C102.323 58.8183 101.865 58.58 101.48 58.25C101.095 57.9383 100.765 57.5167 100.545 57.0217C100.325 56.5267 100.215 55.9033 100.215 55.1883V44.4817H97.9048V41.5117H100.215V35.8467H104.01V41.5117H107.768V44.4817H104.01V54.0333C104.01 54.62 104.175 55.0417 104.505 55.2983C104.835 55.555 105.256 55.7017 105.733 55.7017C106.228 55.7017 106.705 55.61 107.163 55.445C107.621 55.28 107.97 55.1333 108.171 55.0233L108.263 54.9867L109.106 58.0117L109.033 58.0483C108.556 58.2683 107.896 58.525 107.09 58.8C106.283 59.0567 105.403 59.2033 104.45 59.2033Z" fill="#EE3124"/>
</g>
</g>
</g>
</svg>
