<svg width="120" height="90" viewBox="0 0 120 90" fill="none" xmlns="http://www.w3.org/2000/svg">
<g id="BPI">
<g id="BPI_2">
<g id="BPI_logo">
<path id="Shape" d="M51.6519 63.7328V34.4648H62.6519C67.0715 34.4648 70.3126 35.0541 72.4733 36.3309C74.5358 37.6077 75.6161 39.4738 75.6161 42.0274C75.6161 43.697 75.1251 45.1702 74.0447 46.2506C72.9644 47.3309 71.4911 48.1167 69.3304 48.6077C71.6876 49.0006 73.5536 49.8845 74.634 51.0631C75.8126 52.2417 76.4019 53.8131 76.4019 55.7774C76.4019 58.4292 75.4197 60.4917 73.5536 61.7685C71.6876 63.1435 68.8394 63.7328 65.009 63.7328H51.6519ZM59.509 46.3488H62.6519C64.4197 46.3488 65.6965 46.0542 66.4822 45.5631C67.2679 45.072 67.6608 44.1881 67.6608 43.0095C67.6608 41.9292 67.2679 41.1434 66.384 40.5541C65.5001 39.9649 64.3215 39.7684 62.6519 39.7684H59.509V46.3488ZM59.509 58.4292H62.6519C64.6161 58.4292 66.0894 58.1346 66.8751 57.5453C67.759 56.956 68.1519 56.072 68.1519 54.7953C68.1519 53.6167 67.6608 52.7327 66.7769 52.1435C65.8929 51.5542 64.5179 51.2595 62.5536 51.2595H59.4108V58.4292H59.509Z" fill="#B11116"/>
<path id="Shape_2" d="M79.1519 63.7328V34.4648H92.509C96.3394 34.4648 99.1876 35.2506 101.152 36.822C103.116 38.3934 104.098 40.7506 104.098 43.7952C104.098 46.8399 103.116 49.0988 101.152 50.7685C99.1876 52.4381 96.5358 53.322 93.0001 53.322H87.1072V63.7328H79.1519ZM87.3036 47.6256H90.9376C92.7054 47.6256 93.9822 47.3309 94.7679 46.6434C95.5536 46.0542 96.0447 45.072 96.0447 43.697C96.0447 42.4202 95.6519 41.4381 94.8661 40.8488C94.0804 40.2595 92.8036 39.9649 91.0358 39.9649H87.4019V47.6256H87.3036Z" fill="#B11116"/>
<path id="Rectangle-path" d="M106.947 34.4648H115V63.7328H106.947V34.4648Z" fill="#B11116"/>
<path id="Shape_3" fill-rule="evenodd" clip-rule="evenodd" d="M5.39286 59.4108C5.6875 60.2948 6.375 61.0805 7.45536 61.8662C8.92857 63.0448 20.3214 70.6073 23.8571 72.8662L24.6429 73.3573L25.2321 72.9644C25.8214 72.5716 39.6696 63.143 41.3393 61.8662C42.4196 61.0805 43.0089 60.2948 43.4018 59.4108C43.8929 58.0358 43.6964 56.9555 43.5982 56.1697C43.5 55.7769 41.2411 42.1251 40.0625 35.6429C34.9554 34.8572 29.8482 34.4643 24.6429 34.4643C24.5446 34.4643 24.4464 34.4643 24.3482 34.4643V69.8216C17.375 65.3037 10.6964 60.884 9.51786 60.0001C8.83036 59.509 8.4375 59.018 8.24107 58.5269C7.94643 57.8394 8.04464 57.2501 8.14286 56.5626C8.24107 56.1697 10.6964 41.5358 11.875 35.3483C10.7946 35.4465 10.0089 35.6429 8.92857 35.8393C7.75 42.3215 5.29464 55.7769 5.19643 56.1697C5 56.9555 4.80357 58.0358 5.39286 59.4108ZM14.4286 40.8483H15.7054V41.5358V41.9286H16.7857V40.8483H18.0625V41.9286H19.0446V40.8483H20.3214V43.5983H14.4286V40.8483ZM15.3125 43.9911H19.2411L20.6161 54.893H14.0357L15.3125 43.9911ZM13.25 55.4822H21.4018V58.2323H19.2411V57.5448H15.5089V58.2323H13.25V55.4822ZM16.3929 49.9822H18.2589V49.2947H16.3929V49.9822ZM18.2589 47.134H16.3929V47.8215H18.2589V47.134ZM16.3929 52.143H18.2589V51.4555H16.3929V52.143ZM15.2143 30.0447C14.4286 30.1429 13.9375 30.2411 13.25 30.4375C13.1518 31.0268 12.9554 32.2054 12.7589 33.1875C16.5893 32.5983 20.6161 32.3036 24.5446 32.3036C28.2768 32.3036 32.0089 32.5983 35.6429 33.0893C35.4464 32.2054 35.25 31.0268 35.1518 30.4375C34.6607 30.2411 34.0714 30.1429 33.1875 30.0447C35.7411 29.4554 37.3125 27.6875 37.3125 25.9197C37.3125 23.6607 35.5446 21.7947 31.0268 21.4018C29.4554 20.125 27.2946 19.6339 25.3304 19.4375C25.8214 19.1429 26.1161 18.5536 26.1161 17.8661C26.1161 16.8839 25.1339 16 24.1518 16C23.1696 16 22.1875 16.7857 22.1875 17.8661C22.1875 18.4554 22.4821 19.0447 22.9732 19.4375C21.1071 19.6339 18.8482 20.125 17.2768 21.4018C12.8571 21.7947 11.0893 23.6607 11.0893 25.9197C11.0893 27.6875 12.6607 29.4554 15.2143 30.0447ZM32.0089 22.7768C32.0089 22.7768 35.3482 23.0714 35.3482 26.0179C35.3482 28.375 32.7946 29.6518 29.6518 29.1608C33.9732 27.4911 33.0893 24.0536 32.0089 22.7768ZM25.2321 21.1072C28.0804 21.4018 30.2411 23.1697 30.2411 25.3304C30.2411 27.4911 27.9821 29.3572 25.1339 29.5536C25.7232 28.7679 26.1161 27.1965 26.1161 25.2322C26.0179 23.4643 25.7232 21.8929 25.2321 21.1072ZM23.1696 21.1072C22.6786 21.9911 22.2857 23.4643 22.2857 25.2322C22.2857 27.0982 22.6786 28.7679 23.2679 29.5536C20.4196 29.3572 18.1607 27.5893 18.1607 25.3304C18.1607 23.0714 20.3214 21.3036 23.1696 21.1072ZM16.3929 22.7768C15.3125 24.0536 14.4286 27.3929 18.8482 29.1608C15.7054 29.5536 13.1518 28.2768 13.1518 26.0179C12.9554 23.1697 16.3929 22.7768 16.3929 22.7768ZM33.0893 60.4912C33.0893 60.393 33.1875 60.1965 33.1875 60.0983C33.3839 60.0983 33.5804 60.0001 33.875 60.0001C34.2679 59.7055 34.2679 58.9198 34.6607 58.6251C34.8571 58.5269 34.9554 58.6251 35.0536 58.8215C35.1518 58.5269 35.1518 58.134 35.25 57.7412C35.5446 56.9555 36.3304 56.4644 36.0357 54.9912C36.0357 54.9912 36.0357 54.9912 35.9375 54.893C35.8393 55.0894 35.7411 55.1876 35.6429 55.384C34.5625 55.2858 34.9554 52.9287 35.7411 52.7322C36.2321 54.2055 38.4911 54.5983 38.6875 52.634C38.6875 52.2412 38.3929 51.7501 38 51.1608C38.1964 50.5715 38.3929 50.0804 38.5893 49.7858C38.6875 49.5894 38 49.884 37.6071 50.5715C37.8036 49.9822 38 49.3929 38.2946 49.0983C38.3929 48.9019 37.8036 49.1965 37.4107 49.7858C37.6071 49.1965 37.8036 48.6072 38.0982 48.3126C38.1964 48.1162 37.4107 48.509 37.1161 49.1965C37.0179 48.8037 36.9196 48.4108 36.9196 48.1162C36.9196 47.2322 37.2143 45.4644 37.6071 43.9911C37.7054 43.5983 37.9018 42.8126 38.4911 42.5179C38 42.4197 37.2143 42.8126 37.2143 43.6965C37.1161 42.4197 36.1339 41.9286 35.6429 41.8304C37.2143 43.3036 35.9375 46.5447 35.9375 48.0179C35.9375 49.9822 38.2946 51.9465 37.9018 52.634C37.4107 53.6162 36.4286 51.7501 36.1339 51.0626C35.8393 50.4733 34.7589 49.4912 33.9732 48.7054C34.4643 48.4108 34.9554 47.5269 34.9554 46.7412C35.0536 46.8394 35.1518 46.9376 35.1518 47.0358H35.25C35.1518 46.2501 35.4464 45.3661 35.1518 44.6786C35.25 44.6786 35.4464 44.6786 35.5446 44.6786C35.4464 41.1429 32.8929 41.8304 31.6161 42.1251C31.6161 42.2233 31.5179 42.2233 31.5179 42.3215C31.7143 42.3215 31.8125 42.3215 32.0089 42.3215C31.9107 42.3215 31.7143 42.4197 31.6161 42.4197C31.5179 42.6161 31.6161 43.2054 31.9107 43.5001C32.0089 43.2054 32.0089 43.1072 32.3036 43.009C32.5982 43.2054 32.7946 43.6965 32.5982 44.1876C32.4018 44.2858 32.2054 44.1876 32.1071 43.9911C32.0089 44.4822 32.0089 45.0715 32.4018 45.3661C32.4018 44.8751 32.5982 44.6786 32.9911 44.7769C32.8929 45.8572 32.1071 45.5626 31.4196 45.8572C30.0446 46.3483 29.75 48.4108 28.4732 48.7054C28.5714 49.1965 29.0625 49.5894 29.3571 49.7858C29.1607 50.0804 28.4732 51.1608 28.0804 51.1608C27.9821 50.9644 27.8839 50.7679 27.5893 50.7679C27.3929 50.8662 27.1964 50.8662 27 50.9644C27 51.0626 26.9018 51.1608 26.9018 51.1608C27 51.1608 27.0982 51.1608 27.1964 51.259C27.1964 51.3572 27.1964 51.5537 27.1964 51.6519C27.3929 51.6519 27.5893 51.6519 27.7857 51.7501V51.8483C27.5893 51.8483 27.3929 51.7501 27.1964 51.7501C27.0982 51.8483 26.8036 52.3394 26.8036 52.634V52.7322C26.9018 52.634 26.9018 52.634 27 52.5358C27.0982 52.5358 27.0982 52.634 27.1964 52.7322C27.1964 52.7322 27.2946 52.7322 27.2946 52.8305C27.4911 52.634 27.5893 52.5358 27.7857 52.3394C27.7857 52.3394 27.7857 52.4376 27.8839 52.4376C27.7857 52.634 27.5893 52.7322 27.4911 52.9287C27.4911 53.2233 27.3929 53.518 27.4911 53.8126C27.5893 53.7144 27.6875 53.6162 27.7857 53.518C28.1786 53.9108 28.375 53.4197 28.6696 53.0269C28.7679 53.1251 28.9643 53.1251 29.1607 53.2233C29.1607 53.3215 29.1607 53.4197 29.1607 53.518C29.75 52.9287 28.9643 52.3394 29.75 51.6519C30.1429 51.8483 30.3393 51.8483 30.7321 51.6519C30.8304 51.5537 30.8304 51.4555 30.9286 51.3572C30.7321 51.259 30.6339 51.1608 30.5357 50.9644C30.5357 50.8662 30.5357 50.7679 30.6339 50.7679C30.8304 50.4733 31.3214 50.4733 31.6161 50.5715C32.4018 50.8662 32.8929 51.6519 33.4821 52.2412C33.3839 53.0269 33.3839 53.9108 33.4821 54.5983C33.6786 55.2858 34.1696 55.5805 33.9732 56.4644C34.2679 56.4644 34.4643 56.268 34.5625 56.0715C34.6607 56.0715 34.7589 56.0715 34.9554 56.0715C34.6607 56.6608 34.0714 57.7412 33.4821 57.9376C32.8929 58.134 32.6964 57.4465 32.2054 57.5448C32.1071 57.643 32.0089 57.7412 32.0089 57.7412C31.8125 57.8394 31.7143 57.7412 31.5179 58.0358V58.134C31.6161 58.134 31.7143 58.134 31.8125 58.134C31.8125 58.2323 31.9107 58.3305 31.9107 58.5269C32.0089 58.3305 32.2054 58.2323 32.3036 58.0358C32.3036 58.0358 32.3036 58.0358 32.3036 58.134C32.1071 58.3305 31.9107 58.6251 31.8125 58.9198C31.8125 59.1162 31.8125 59.3126 31.8125 59.509C31.8125 59.509 31.8125 59.509 31.9107 59.509L32.1071 59.2144H32.2054C32.2054 59.3126 32.3036 59.3126 32.3036 59.4108H32.4018C32.5 59.1162 32.5 58.9198 32.5982 58.6251C32.5982 58.6251 32.6964 58.6251 32.6964 58.5269C32.5982 58.9198 32.5 59.4108 32.5982 59.9019L32.6964 60.0001C32.6964 59.9019 32.7946 59.8037 32.7946 59.8037C32.5 60.0001 32.5 59.9019 32.6964 60.0001C32.6964 59.6073 32.5982 59.3126 32.8929 59.1162C32.6964 59.4108 32.7946 60.0001 32.8929 60.393C32.8929 60.393 32.9911 60.4912 33.0893 60.4912ZM32.5982 42.9108V42.5179C32.8929 42.5179 33.2857 42.5179 33.4821 42.6161C33.1875 42.6161 32.8929 42.7144 32.5982 42.9108ZM33.1875 56.0715C32.8929 55.7769 31.8125 54.5001 32.1071 53.7144C32.2054 53.3215 32.5982 53.4197 32.8929 53.6162C32.8929 53.4197 32.8929 53.1251 32.9911 52.9287C32.7946 52.634 32.3036 52.4376 32.5 51.9465C31.125 50.8662 31.2232 52.7322 30.1429 52.634C30.1429 53.0269 30.4375 53.3215 30.7321 53.4197C30.7321 54.3037 31.0268 54.893 31.4196 55.1876V55.2858C30.9286 55.384 30.2411 55.384 29.9464 55.0894C29.4554 54.6965 29.3571 54.2055 28.6696 54.2055C28.6696 54.3037 28.7679 54.3037 28.7679 54.4019C28.7679 54.5001 28.7679 54.5983 28.6696 54.6965C28.7679 54.6965 28.9643 54.7947 29.0625 54.7947C29.0625 54.7947 29.0625 54.7947 29.1607 54.7947V55.0894C28.7679 54.9912 28.2768 54.9912 28.1786 55.4822C28.2768 55.4822 28.375 55.4822 28.4732 55.4822C28.5714 55.5805 28.5714 55.6787 28.6696 55.9733C28.8661 55.7769 28.9643 55.5805 29.1607 55.4822C29.0625 55.9733 28.6696 56.0715 28.6696 56.6608C28.7679 56.6608 28.8661 56.5626 28.9643 56.4644C29.0625 56.5626 29.1607 56.6608 29.2589 56.759C29.3571 56.6608 29.4554 56.3662 29.4554 56.1697H29.5536C29.4554 56.5626 29.2589 56.9555 29.4554 57.3483C29.4554 57.4465 29.5536 57.4465 29.5536 57.5448C29.5536 57.4465 29.6518 57.3483 29.6518 57.2501C29.8482 57.1519 29.9464 57.3483 30.1429 57.2501C30.4375 57.1519 30.4375 56.6608 30.9286 56.6608C31.0268 56.759 31.125 56.8573 31.125 57.1519C31.4196 57.0537 31.5179 56.759 31.7143 56.6608C32.4018 56.3662 32.5982 56.759 33.1875 56.0715ZM31.0268 44.6786C31.6161 44.5804 31.8125 43.9911 32.4018 43.9911C32.3036 43.9911 32.1071 43.8929 32.0089 43.9911C31.7143 44.0894 30.4375 44.7769 30.9286 43.6965C30.4375 43.6965 30.2411 44.7769 31.0268 44.6786ZM27 47.5269C27.0982 47.7233 27.4911 47.7233 27.6875 47.7233C27.7857 47.6251 27.8839 47.4287 27.9821 47.3304C27.9821 47.3304 27.9821 47.3304 28.0804 47.3304C28.375 47.7233 28.6696 48.1162 28.9643 48.4108C28.9643 48.4108 28.9643 48.4108 29.0625 48.4108C29.3571 48.1162 29.5536 47.7233 29.75 47.4287C29.6518 46.8394 29.0625 46.6429 28.8661 46.1519C28.6696 45.5626 29.2589 44.7769 28.4732 44.2858C28.4732 44.5804 28.375 44.6786 28.2768 44.8751C28.2768 45.0715 28.2768 45.2679 28.375 45.3661V45.4644C28.2768 45.3662 28.2768 45.1697 28.1786 44.9733C28.0804 44.7769 27.6875 44.4822 27.3929 44.4822C27.4911 44.6786 27.3929 44.8751 27.4911 45.0715C27.5893 45.2679 27.6875 45.4644 27.7857 45.6608V45.759H27.6875C27.5893 45.6608 27.4911 45.4644 27.2946 45.3661C27.0982 45.2679 26.8036 45.3662 26.6071 45.4644C26.7054 45.5626 26.8036 45.6608 26.8036 45.759C27 45.8572 27.7857 46.8394 27 47.5269ZM32.1071 40.1608C32.4018 39.9643 32.6964 39.8661 32.9911 39.8661C32.8929 39.7679 32.8929 39.7679 32.8929 39.6697C32.8929 39.4733 33.0893 39.3751 33.1875 39.3751C33.3839 39.3751 33.4821 39.4733 33.4821 39.6697C33.4821 39.7679 33.4821 39.8661 33.3839 39.8661C33.6786 39.8661 33.9732 39.9643 34.2679 40.1608C34.9554 40.259 35.25 40.5536 35.25 40.8483C35.25 41.1429 34.9554 41.4376 34.4643 41.5358C34.4643 41.634 34.4643 41.7322 34.4643 41.8304C34.1696 41.7322 33.6786 41.7322 33.1875 41.7322C32.7946 41.7322 32.2054 41.8304 31.9107 41.8304C31.9107 41.7322 31.9107 41.634 31.9107 41.5358C31.4196 41.4376 31.125 41.1429 31.125 40.8483C31.125 40.5536 31.4196 40.259 32.1071 40.1608ZM34.8571 40.9465C34.8571 40.5536 34.3661 40.4554 34.3661 40.4554C34.5625 40.6519 34.6607 41.0447 33.9732 41.3394C34.5625 41.4376 34.8571 41.2411 34.8571 40.9465ZM34.0714 40.8483C34.0714 40.5536 33.6786 40.259 33.2857 40.259C33.3839 40.3572 33.3839 40.5536 33.3839 40.8483C33.3839 41.1429 33.2857 41.3394 33.1875 41.4376C33.7768 41.3394 34.0714 41.1429 34.0714 40.8483ZM32.9911 41.4376C32.8929 41.3394 32.7946 41.1429 32.7946 40.8483C32.7946 40.6519 32.8929 40.3572 32.8929 40.259C32.4018 40.259 32.1071 40.5536 32.1071 40.8483C32.2054 41.1429 32.5982 41.3394 32.9911 41.4376ZM32.3036 41.3394C31.6161 41.0447 31.8125 40.6519 31.9107 40.4554C31.9107 40.4554 31.4196 40.4554 31.4196 40.9465C31.4196 41.2411 31.8125 41.4376 32.3036 41.3394Z" fill="#DCB91C"/>
</g>
</g>
</g>
</svg>
