<?xml version="1.0" encoding="UTF-8"?>
<svg width="120px" height="90px" viewBox="0 0 120 90" version="1.1" xmlns="http://www.w3.org/2000/svg" xmlns:xlink="http://www.w3.org/1999/xlink">
    <title>creditcard_discover</title>
    <defs>
        <linearGradient x1="75.5341081%" y1="90.0119454%" x2="40.9995565%" y2="35.8964164%" id="linearGradient-1">
            <stop stop-color="#F89F20" offset="0%"></stop>
            <stop stop-color="#F79A20" offset="25.02%"></stop>
            <stop stop-color="#F68D20" offset="53.31%"></stop>
            <stop stop-color="#F58720" offset="61.96%"></stop>
            <stop stop-color="#F48120" offset="72.32%"></stop>
            <stop stop-color="#F37521" offset="100%"></stop>
        </linearGradient>
        <linearGradient x1="70.0819392%" y1="89.2836177%" x2="19.6086261%" y2="-9.45051195%" id="linearGradient-2">
            <stop stop-color="#F58720" offset="0%"></stop>
            <stop stop-color="#E16F27" offset="35.87%"></stop>
            <stop stop-color="#D4602C" offset="70.3%"></stop>
            <stop stop-color="#D05B2E" offset="98.16%"></stop>
        </linearGradient>
    </defs>
    <g id="LOGO-+-SDK-+-payment-icon" stroke="none" stroke-width="1" fill="none" fill-rule="evenodd">
        <g id="payment" transform="translate(-918.000000, -355.000000)">
            <g id="creditcard_discover" transform="translate(918.000000, 355.000000)">
                <g id="payment-4:3bg" transform="translate(-20.000000, -15.000000)"></g>
                <g id="Discover-Card" transform="translate(10.000000, 13.000000)" fill-rule="nonzero">
                    <polygon id="XMLID_428_" fill="#FFFFFF" points="0.529789145 0.394899219 99.819263 0.394899219 99.819263 63.6314276 0.556104934 63.6314276"></polygon>
                    <path d="M99.2894735,35.5672563 C99.2894735,35.5672563 72.1578947,54.7067052 22.4736842,63.2891813 L99.2894735,63.2891813 L99.2894735,35.5672563 Z" id="XMLID_427_" fill="#F48120"></path>
                    <path d="M99.6315791,0.0263266149 L0,0.0263266149 L0,64 L100,64 L100,0 L99.6315791,0 L99.6315791,0.0263266149 Z M99.2894735,0.737145207 C99.2894735,1.4479638 99.2894735,62.5520364 99.2894735,63.2628547 C98.5789476,63.2628547 1.44736842,63.2628547 0.736842107,63.2628547 C0.736842107,62.5520364 0.736842107,1.4479638 0.736842107,0.737145207 C1.44736842,0.737145207 98.5526318,0.737145207 99.2894735,0.737145207 Z" id="XMLID_2_" fill="#231F20"></path>
                    <path d="M8.73684209,19.5870013 L4.60526316,19.5870013 L4.60526316,34.0666393 L8.73684209,34.0666393 C10.9210526,34.0666393 12.5,33.540107 13.8947368,32.4080625 C15.5526316,31.0390786 16.5263158,28.9856027 16.5263158,26.8531468 C16.5,22.5619087 13.3157895,19.5870013 8.73684209,19.5870013 Z M12.0526316,30.4862197 C11.1578948,31.2760181 10.0263158,31.6445907 8.18421053,31.6445907 L7.42105262,31.6445907 L7.42105262,22.061703 L8.18421053,22.061703 C10,22.061703 11.1052632,22.3776224 12.0526316,23.2200741 C13.0263158,24.0888523 13.6052632,25.4315097 13.6052632,26.8268202 C13.6052632,28.2221308 13.0263158,29.6174414 12.0526316,30.4862197 Z" id="形状" fill="#231F20"></path>
                    <rect id="XMLID_422_" fill="#231F20" x="17.8157895" y="19.5870013" width="2.49921899" height="14.479638"></rect>
                    <path d="M27.5263158,25.1419169 C25.8421052,24.5100782 25.3421052,24.0888523 25.3421052,23.3253805 C25.3421052,22.403949 26.2368421,21.719457 27.4473684,21.719457 C28.2894737,21.719457 29,22.061703 29.7105263,22.9041547 L31.1842105,20.9823118 C29.9736842,19.9292472 28.5263158,19.3763883 26.9210526,19.3763883 C24.3684211,19.3763883 22.3947368,21.1665981 22.3947368,23.5359934 C22.3947368,25.5368161 23.3157895,26.5635541 25.9473684,27.5113122 C27.0526316,27.9062115 27.6052632,28.1694776 27.8947368,28.3274373 C28.4473684,28.6960099 28.7368421,29.2225422 28.7368421,29.8280543 C28.7368421,31.012752 27.8157895,31.8815303 26.5526316,31.8815303 C25.2105263,31.8815303 24.1315789,31.1970383 23.4736842,29.9596874 L21.6578948,31.7235706 C22.9473684,33.6454134 24.5263158,34.4878651 26.6578948,34.4878651 C29.5789474,34.4878651 31.6578948,32.5396956 31.6578948,29.7227479 C31.7105263,27.3796792 30.7368421,26.3266146 27.5263158,25.1419169 Z" id="XMLID_421_" fill="#231F20"></path>
                    <path d="M32.5789474,26.8531468 C32.5789474,31.1180584 35.9210526,34.4088853 40.2105263,34.4088853 C41.4210526,34.4088853 42.4736842,34.1719457 43.7368421,33.5664336 L43.7368421,30.2492801 C42.6052632,31.3813246 41.6052632,31.828877 40.3421052,31.828877 C37.5,31.828877 35.4736842,29.7754011 35.4736842,26.8268202 C35.4736842,24.0361991 37.5526316,21.8510901 40.2105263,21.8510901 C41.5526316,21.8510901 42.5789474,22.3249692 43.7368421,23.4833402 L43.7368421,20.1661868 C42.5,19.534348 41.4736842,19.2710819 40.2631579,19.2710819 C36.0263158,19.2710819 32.5789474,22.6408885 32.5789474,26.8531468 Z" id="XMLID_420_" fill="#231F20"></path>
                    <polygon id="XMLID_419_" fill="#231F20" points="66.1578947 29.3278486 62.2894735 19.5870013 59.2105262 19.5870013 65.3421051 34.4352119 66.8684211 34.4352119 73.1052631 19.5870013 70.0526316 19.5870013"></polygon>
                    <polygon id="XMLID_418_" fill="#231F20" points="74.3947366 34.0666393 82.3947366 34.0666393 82.3947366 31.6182641 77.2105262 31.6182641 77.2105262 27.7219251 82.2105262 27.7219251 82.2105262 25.27355 77.2105262 25.27355 77.2105262 22.061703 82.3947366 22.061703 82.3947366 19.5870013 74.3947366 19.5870013"></polygon>
                    <path d="M93.5789476,23.8782394 C93.5789476,21.1665981 91.7105265,19.6133279 88.4473682,19.6133279 L84.2631578,19.6133279 L84.2631578,34.0929659 L87.0789473,34.0929659 L87.0789473,28.2747841 L87.4473682,28.2747841 L91.3421051,34.0929659 L94.8157896,34.0929659 L90.2631578,27.9851913 C92.3947366,27.5376388 93.5789476,26.0896751 93.5789476,23.8782394 Z M87.8947369,26.2739614 L87.0789473,26.2739614 L87.0789473,21.8774167 L87.9473684,21.8774167 C89.7105265,21.8774167 90.6578949,22.6145619 90.6578949,24.0361991 C90.6578949,25.4841629 89.7105265,26.2739614 87.8947369,26.2739614 Z" id="形状" fill="#231F20"></path>
                    <ellipse id="XMLID_415_" fill="url(#linearGradient-1)" cx="52.3947366" cy="26.8794735" rx="7.71052631" ry="7.71369807"></ellipse>
                    <ellipse id="XMLID_414_" fill="url(#linearGradient-2)" opacity="0.65" cx="52.3947366" cy="26.8794735" rx="7.71052631" ry="7.71369807"></ellipse>
                    <g id="XMLID_436_" transform="translate(93.842103, 19.271082)" fill="#231F20">
                        <path d="M1.53048677,0.868778283 C1.53048677,0.605512134 1.34541751,0.473879062 1.05459439,0.473879062 L0.631578948,0.473879062 L0.631578948,1.73755656 L0.948840534,1.73755656 L0.948840534,1.23735088 L1.31897905,1.73755656 L1.68911756,1.73755656 L1.26610212,1.21102427 C1.42473291,1.18469765 1.53048677,1.05306458 1.53048677,0.868778283 Z M1.04626227,1.24437132 L0.948840534,1.24437132 L0.948840534,0.710818594 L1.04626227,0.710818594 C1.33852749,0.710818594 1.4846601,0.792903625 1.4846601,0.957073698 C1.4846601,1.16228628 1.33852749,1.24437132 1.04626227,1.24437132 Z" id="形状"></path>
                        <path d="M1.10526316,-1.97841743e-13 C0.500000001,-1.97841743e-13 5.28022071e-13,0.500205678 5.28022071e-13,1.10571781 C5.28022071e-13,1.71122995 0.500000001,2.21143563 1.10526316,2.21143563 C1.71052632,2.21143563 2.21052632,1.71122995 2.21052632,1.10571781 C2.21052632,0.500205678 1.71052632,-1.97841743e-13 1.10526316,-1.97841743e-13 Z M1.10526316,2.02714932 C0.631578948,2.02714932 0.210526316,1.6322501 0.210526316,1.10571781 C0.210526316,0.605512134 0.605263156,0.184286302 1.10526316,0.184286302 C1.57894737,0.184286302 1.97368421,0.605512134 1.97368421,1.10571781 C1.97368421,1.60592349 1.57894737,2.02714932 1.10526316,2.02714932 Z" id="形状"></path>
                    </g>
                </g>
            </g>
        </g>
    </g>
</svg>