<?xml version="1.0" encoding="UTF-8"?>
<svg width="120px" height="90px" viewBox="0 0 120 90" version="1.1" xmlns="http://www.w3.org/2000/svg" xmlns:xlink="http://www.w3.org/1999/xlink">
    <title>creditcard_diners</title>
    <g id="LOGO-+-SDK-+-payment-icon" stroke="none" stroke-width="1" fill="none" fill-rule="evenodd">
        <g id="payment" transform="translate(-918.000000, -155.000000)">
            <g id="creditcard_diners" transform="translate(918.000000, 155.000000)">
                <g id="payment-4:3bg" transform="translate(-20.000000, -15.000000)"></g>
                <g id="Diners-Club" transform="translate(10.000000, 9.000000)" fill-rule="nonzero">
                    <path d="M99.429228,65.6661692 C99.4096822,67.4096715 98.6925551,69.0739908 97.4357384,70.2926895 C96.1789217,71.5113881 94.4854632,72.1845437 92.7282162,72.1644049 L7.26807754,72.1644049 C5.51083053,72.1845437 3.81737197,71.5113881 2.56055529,70.2926895 C1.3037386,69.0739908 0.586611461,67.4096715 0.567065713,65.6661692 L0.567065713,7.0721847 C0.586611461,5.32868243 1.3037386,3.66436311 2.56055529,2.44566448 C3.81737197,1.22696585 5.51083053,0.553810257 7.26807754,0.573949046 L92.7282162,0.573949046 C94.4854632,0.553810257 96.1789217,1.22696585 97.4357384,2.44566448 C98.6925551,3.66436311 99.4096822,5.32868243 99.429228,7.0721847 L99.429228,65.6661692 Z" id="路径" fill="#FFFFFF"></path>
                    <path d="M1.14154405,7.0721847 L1.14154405,65.6661692 C1.18832343,68.9807444 3.927181,71.6340446 7.26807754,71.6016981 L92.7282162,71.6016981 C96.0719925,71.6381262 98.8153848,68.9836446 98.8621623,65.6661692 L98.8621623,7.0721847 C98.817412,3.7538451 96.0728124,1.09819537 92.7282162,1.13661338 L7.26807754,1.13661338 C3.9234813,1.09819537 1.17888167,3.7538451 1.13413143,7.0721847 M7.26807754,72.7269253 C3.29714027,72.7653705 0.044794507,69.605956 0,65.6661692 L0,7.0721847 C0.0176043709,5.17785613 0.793499194,3.36817562 2.1567636,2.04179537 C3.520028,0.715415118 5.3588211,-0.0188499324 7.26807754,0.000367955376 L92.7282162,0.000367955376 C96.69977,-0.0380577188 99.9531776,3.12077745 100,7.06115282 L100,65.6661692 C99.9531776,69.6065446 96.69977,72.7653798 92.7282162,72.7269253 L7.26807754,72.7269253 Z" id="形状" fill="#0E72B2"></path>
                    <path d="M11.4191468,52.266114 C11.4191468,53.6414216 12.4124384,53.8032224 13.2908343,53.8032224 C17.1824617,53.8032224 18.457433,50.8944838 18.457433,48.2321238 C18.457433,44.8931418 16.2966532,42.484515 12.823839,42.484515 C12.0825766,42.484515 11.7453022,42.5359971 11.4191468,42.5580609 L11.4191468,52.266114 Z M9.65864868,43.8929182 C9.65864868,42.2896185 8.80990327,42.3925827 8.00192728,42.3778735 L8.00192728,41.9218892 C8.70612653,41.9549848 9.42144472,41.9549848 10.125644,41.9549848 C10.8298432,41.9549848 11.90838,41.9218892 13.2389459,41.9218892 C17.8977799,41.9218892 20.4366035,45.0071379 20.4366035,48.1732871 C20.4366035,49.9420649 19.3951299,54.387912 13.0239798,54.387912 C12.1048145,54.387912 11.2597754,54.3511391 10.4295615,54.3511391 C9.59934769,54.3511391 8.82472851,54.3511391 8.01675253,54.387912 L8.01675253,53.9098639 C9.09528928,53.8032224 9.62158556,53.7664495 9.67347393,52.5529429 L9.65864868,43.8929182 Z" id="形状" fill="#231815"></path>
                    <path d="M22.9939587,43.4663522 C22.5067871,43.4663522 22.1118565,43.0745137 22.1118565,42.5911565 C22.1118565,42.1077993 22.5067871,41.7159608 22.9939587,41.7159608 C23.4739841,41.7158557 23.8659764,42.0966082 23.8760693,42.57277 C23.8781572,43.059994 23.484965,43.4583033 22.9939587,43.4663522 M21.0666766,53.9098639 L21.4076572,53.9098639 C21.9117157,53.9098639 22.2712279,53.9098639 22.2712279,53.3214971 L22.2712279,48.4821797 C22.2712279,47.6989163 22.0043734,47.5885975 21.3372373,47.2319001 L21.3372373,46.9487485 C22.1822764,46.6950153 23.1903932,46.3603817 23.2608132,46.3052223 C23.3595337,46.2467505 23.4720089,46.2150475 23.5869686,46.21329 C23.6759201,46.21329 23.7129832,46.3236088 23.7129832,46.4670232 L23.7129832,53.3214971 C23.7129832,53.9098639 24.1095586,53.9098639 24.613617,53.9098639 L24.9175346,53.9098639 L24.9175346,54.3768801 C24.3059931,54.3768801 23.6759201,54.3401072 23.0273155,54.3401072 C22.3787109,54.3401072 21.7338127,54.3401072 21.0666766,54.3768801 L21.0666766,53.9098639 Z" id="形状" fill="#231815"></path>
                    <path d="M26.6261443,48.5888212 C26.6261443,47.9305857 26.4297098,47.7503984 25.5846707,47.4120874 L25.5846707,47.0700992 C26.3912859,46.8249197 27.1843031,46.5376917 27.9604166,46.2096127 C28.012305,46.2096127 28.0641933,46.2463856 28.0641933,46.3898 L28.0641933,47.5518246 C29.094548,46.816366 29.9766502,46.2096127 31.1812016,46.2096127 C32.7082021,46.2096127 33.2493236,47.3128005 33.2493236,48.7101718 L33.2493236,53.3214971 C33.2493236,53.9098639 33.645899,53.9098639 34.1499574,53.9098639 L34.4724065,53.9098639 L34.4724065,54.3768801 C33.8423335,54.3768801 33.2122605,54.3401072 32.5673622,54.3401072 C31.922464,54.3401072 31.2701531,54.3401072 30.6215485,54.3768801 L30.6215485,53.9098639 L30.9477039,53.9098639 C31.4517624,53.9098639 31.8075683,53.9098639 31.8075683,53.3214971 L31.8075683,48.6991399 C31.8075683,47.6805298 31.1812016,47.180418 30.1545532,47.180418 C29.5800749,47.180418 28.6720285,47.6437569 28.0641933,48.0372272 L28.0641933,53.3214971 C28.0641933,53.9098639 28.464475,53.9098639 28.9685334,53.9098639 L29.2909825,53.9098639 L29.2909825,54.3768801 C28.6609095,54.3768801 28.0308365,54.3401072 27.3822319,54.3401072 C26.7336274,54.3401072 26.0887291,54.3401072 25.4401245,54.3768801 L25.4401245,53.9098639 L25.76628,53.9098639 C26.2666321,53.9098639 26.6261443,53.9098639 26.6261443,53.3214971 L26.6261443,48.5888212 Z" id="路径" fill="#231815"></path>
                    <path d="M39.0274638,48.87565 C39.4759275,48.87565 39.5278159,48.6439806 39.5278159,48.4270203 C39.5278159,47.5187289 38.9718691,46.7869477 37.9637523,46.7869477 C36.8518587,46.7869477 36.1105963,47.5885975 35.8956303,48.87565 L39.0274638,48.87565 Z M35.8437419,49.4493077 C35.8022944,49.79252 35.8022944,50.1394147 35.8437419,50.482627 C35.9475186,52.177859 37.0482932,53.571553 38.4863422,53.571553 C39.4759275,53.571553 40.2505467,53.0346682 40.9176828,52.3764328 L41.1660057,52.6264887 C40.3394982,53.7296766 39.3128498,54.6453225 37.830325,54.6453225 C34.9690523,54.6453225 34.394574,51.8910302 34.394574,50.7510694 C34.394574,47.2502866 36.7703199,46.21329 38.0267596,46.21329 C39.4870464,46.21329 41.0548164,47.1252586 41.0696416,49.0190644 C41.0770366,49.1255797 41.0770366,49.2324736 41.0696416,49.3389889 L40.9065639,49.4493077 L35.8437419,49.4493077 Z" id="形状" fill="#231815"></path>
                    <path d="M41.4921612,53.9098639 L41.977688,53.9098639 C42.4817464,53.9098639 42.8412587,53.9098639 42.8412587,53.3214971 L42.8412587,48.3056696 C42.8412587,47.7503984 42.1741225,47.6437569 41.9035618,47.5003425 L41.9035618,47.2319001 C43.2193025,46.6803062 43.938327,46.21329 44.1014047,46.21329 C44.2644824,46.21329 44.2607761,46.2684494 44.2607761,46.4486367 L44.2607761,48.0556137 L44.3015455,48.0556137 C44.7500093,47.3606053 45.5060969,46.2169673 46.6031652,46.2169673 C46.8661989,46.2060397 47.1226432,46.3003396 47.3149649,46.4787109 C47.5072865,46.6570822 47.6193836,46.904591 47.6261073,47.1657088 C47.6392051,47.39804 47.5573139,47.6257942 47.3989622,47.7974407 C47.2406104,47.9690872 47.0191814,48.0701191 46.7847745,48.0776775 C46.2251214,48.0776775 46.2251214,47.6474342 45.5950484,47.6474342 C44.8501648,47.7473898 44.2908591,48.3726592 44.2793077,49.1183513 L44.2793077,53.3214971 C44.2793077,53.9098639 44.6499388,53.9098639 45.1428783,53.9098639 L46.1509951,53.9098639 L46.1509951,54.3768801 C45.1614099,54.3548164 44.4090286,54.3401072 43.6344094,54.3401072 C42.8597902,54.3401072 42.1518847,54.3401072 41.4921612,54.3768801 L41.4921612,53.9098639 Z" id="路径" fill="#231815"></path>
                    <path d="M48.4081391,51.8910302 C48.6416367,53.0714412 49.3606612,54.0716648 50.6764019,54.0716648 C51.7364071,54.0716648 52.1329825,53.4281386 52.1329825,52.8029988 C52.1329825,50.69591 48.2117045,51.3762092 48.2117045,48.5005661 C48.2117045,47.5003425 49.0196805,46.2169673 50.998851,46.2169673 C51.7127757,46.2338009 52.4135528,46.4110811 53.0484415,46.7354656 L53.1781624,48.574112 L52.7630555,48.574112 C52.5814462,47.4488604 51.9550795,46.8053341 50.8024165,46.8053341 C50.0796857,46.8053341 49.3977243,47.2171909 49.3977243,47.9820678 C49.3977243,50.0744475 53.5710315,49.4309212 53.5710315,52.2330184 C53.5710315,53.4097521 52.6185093,54.663709 50.4762611,54.663709 C49.7057585,54.6401219 48.952655,54.430601 48.2821245,54.0532784 L48.0856899,52.0013489 L48.4081391,51.8910302 Z" id="路径" fill="#231815"></path>
                    <path d="M69.8306215,45.1431977 L69.3821578,45.1431977 C69.0411771,43.0581727 67.5475334,42.2013635 65.5350061,42.2013635 C63.4631778,42.2013635 60.4573589,43.576671 60.4573589,47.8607172 C60.4573589,51.4681415 63.0517772,54.0569557 65.8203921,54.0569557 C67.6303291,54.0569706 69.1681874,52.743767 69.4377525,50.9680296 L69.8528594,51.0746711 L69.4377525,53.6892264 C68.6964901,54.1525653 66.6468997,54.6379679 65.4571736,54.6379679 C61.2505096,54.6379679 58.5856714,51.938835 58.5856714,47.9232312 C58.5856714,44.2459383 61.8805826,41.6350604 65.4089915,41.6350604 C66.8655721,41.6350604 68.2665579,42.1020765 69.6527186,42.5838019 L69.8306215,45.1431977 Z" id="路径" fill="#231815"></path>
                    <path d="M70.4829324,53.9098639 L70.8239131,53.9098639 C71.3279715,53.9098639 71.6874838,53.9098639 71.6874838,53.3214971 L71.6874838,43.3928063 C71.6874838,42.2307818 71.416923,42.1976862 70.7312553,41.9991123 L70.7312553,41.7122835 C71.3709395,41.5117168 71.9911545,41.2544967 72.5844113,40.9437293 C72.7080785,40.8652075 72.8397668,40.7998788 72.9772803,40.7488328 C73.0884697,40.7488328 73.1218265,40.8554743 73.1218265,40.9988887 L73.1218265,53.3214971 C73.1218265,53.9098639 73.5184018,53.9098639 74.0224602,53.9098639 L74.3263778,53.9098639 L74.3263778,54.3768801 C73.7185427,54.3768801 73.0884697,54.3401072 72.4398651,54.3401072 C71.7912605,54.3401072 71.1463623,54.3401072 70.4792261,54.3768801 L70.4829324,53.9098639 Z" id="路径" fill="#231815"></path>
                    <path d="M82.0355065,53.3913656 C82.0355065,53.7149674 82.231941,53.7333539 82.5358586,53.7333539 C82.754531,53.7333539 83.0213854,53.7149674 83.2585894,53.7149674 L83.2585894,54.0826967 C82.3809283,54.2027258 81.5136562,54.388344 80.6641711,54.6379679 L80.5715133,54.5828085 L80.5715133,53.1339551 C79.4929765,54.0091508 78.666469,54.6379679 77.3840851,54.6379679 C76.4130314,54.6379679 75.4086209,54.0091508 75.4086209,52.5124927 L75.4086209,47.9489722 C75.4086209,47.481956 75.3344946,47.0370036 74.3300841,46.9487485 L74.3300841,46.6067603 C74.9786887,46.6067603 76.4130314,46.4854096 76.6502354,46.4854096 C76.8874393,46.4854096 76.8503762,46.6067603 76.8503762,47.0002306 L76.8503762,51.6078786 C76.8503762,52.1447634 76.8503762,53.6781945 78.4144398,53.6781945 C79.0259812,53.6781945 79.8339572,53.2148556 80.5900448,52.5750066 L80.5900448,47.8055578 C80.5900448,47.4378285 79.7264742,47.2502866 79.0815759,47.0700992 L79.0815759,46.7501747 C80.6975279,46.6398559 81.7056447,46.5001188 81.887254,46.5001188 C82.0688633,46.5001188 82.0318002,46.6214695 82.0318002,46.8200433 L82.0355065,53.3913656 Z" id="路径" fill="#231815"></path>
                    <path d="M85.6158037,52.3580463 C85.6683878,53.3479803 86.4707357,54.1360854 87.4689596,54.1783063 C89.3925355,54.1783063 90.2042178,52.302887 90.2042178,50.7142964 C90.2042178,48.787395 88.721693,47.180418 87.3244135,47.180418 C86.6572773,47.180418 86.1013306,47.606984 85.6158037,48.0188408 L85.6158037,52.3580463 Z M85.6158037,47.5003425 C86.3348282,46.8935892 87.3058819,46.21329 88.2954672,46.21329 C90.3858271,46.21329 91.6311478,48.0188408 91.6311478,49.9641287 C91.6311478,52.302887 89.9040065,54.6453225 87.3318261,54.6453225 C86.4582493,54.6448183 85.598518,54.428725 84.8300656,54.0165054 L84.3037693,54.4246849 L83.9331381,54.2297884 C84.0976742,53.177302 84.1819231,52.1139968 84.1851673,51.0489301 L84.1851673,43.3928063 C84.1851673,42.2307818 83.9146066,42.1976862 83.2289389,41.9991123 L83.2289389,41.7122835 C83.8687617,41.5120926 84.4890102,41.2548586 85.0820948,40.9437293 C85.2068941,40.8649019 85.3398441,40.7995637 85.4786702,40.7488328 C85.5861532,40.7488328 85.6232163,40.8554743 85.6232163,40.9988887 L85.6158037,47.5003425 Z" id="形状" fill="#231815"></path>
                    <path d="M7.98339572,64.7578779 L8.12052926,64.7578779 C8.47262889,64.7578779 8.84326007,64.7100731 8.84326007,64.2026067 L8.84326007,59.1132333 C8.84326007,58.6057669 8.47262889,58.5579621 8.12052926,58.5579621 L7.98339572,58.5579621 L7.98339572,58.267456 C8.35402691,58.267456 8.95074312,58.3042289 9.43256366,58.3042289 C9.9143842,58.3042289 10.5073941,58.267456 10.9706831,58.267456 L10.9706831,58.5579621 L10.8298432,58.5579621 C10.4814499,58.5579621 10.0885809,58.6057669 10.0885809,59.1132333 L10.0885809,64.2026067 C10.0885809,64.7100731 10.459212,64.7578779 10.8298432,64.7578779 L10.9743894,64.7578779 L10.9743894,65.048384 C10.5036878,65.048384 9.9143842,65.0116111 9.42515103,65.0116111 C8.93591787,65.0116111 8.36885216,65.048384 7.98710203,65.048384 L7.98339572,64.7578779 Z" id="路径" fill="#231815"></path>
                    <path d="M10.9262073,65.0079338 L10.9262073,64.7983281 L10.8335495,64.7983281 C10.4629183,64.7983281 10.066343,64.7394914 10.0626367,64.2026067 L10.0626367,59.1132333 C10.0626367,58.5763486 10.4814499,58.5175119 10.8335495,58.5175119 L10.9262073,58.5175119 L10.9262073,58.3079062 C10.4740373,58.3079062 9.90697157,58.3483564 9.44368259,58.3483564 C8.98039361,58.3483564 8.41703421,58.3115835 8.03528409,58.3079062 L8.03528409,58.5175119 L8.1316482,58.5175119 C8.48004151,58.5175119 8.89514844,58.5763486 8.89514844,59.1132333 L8.89514844,64.2026067 C8.89514844,64.7394914 8.48004151,64.7983281 8.1316482,64.7983281 L8.00933991,64.7983281 L8.00933991,65.0079338 C8.37997109,65.0079338 8.94333049,64.9674836 9.40661947,64.9674836 C9.86990845,64.9674836 10.4517994,65.0042565 10.9113821,65.0079338 M10.9558578,65.0888343 C10.4814499,65.0888343 9.89585264,65.0520613 9.40661947,65.0520613 C8.91738631,65.0520613 8.35402691,65.0888343 7.96857048,65.0888343 L7.92409473,65.0888343 L7.92409473,64.721105 L8.10570401,64.721105 C8.4763352,64.721105 8.78395908,64.684332 8.78766539,64.2099613 L8.78766539,59.1132333 C8.78766539,58.6388626 8.46150995,58.6057669 8.10570401,58.6020896 L7.92409473,58.6020896 L7.92409473,58.2343604 L7.96857048,58.2343604 C8.33920166,58.2343604 8.93962418,58.2748106 9.41773841,58.2748106 C9.89585264,58.2748106 10.4925688,58.2343604 10.9558578,58.2343604 L10.9966273,58.2343604 L10.9966273,58.6020896 L10.8187243,58.6020896 C10.4480931,58.6020896 10.1367629,58.6388626 10.1367629,59.1132333 L10.1367629,64.2026067 C10.1367629,64.6769775 10.4629183,64.7063958 10.8187243,64.7137504 L10.9966273,64.7137504 L10.9966273,65.0814797 L10.9558578,65.0888343 Z" id="形状" fill="#231815"></path>
                    <path d="M17.6976391,63.1325144 L17.7161706,63.114128 L17.7161706,59.473608 C17.7513788,59.2341447 17.6756751,58.991716 17.5101776,58.8139499 C17.3446802,58.6361838 17.1071024,58.5421066 16.8637189,58.5579621 L16.6487528,58.5579621 L16.6487528,58.267456 C17.1083355,58.267456 17.5605055,58.3042289 18.0200882,58.3042289 C18.4203699,58.3042289 18.8243579,58.267456 19.2246396,58.267456 L19.2246396,58.5579621 L19.0763871,58.5579621 C18.6649865,58.5579621 18.2054038,58.6351853 18.2054038,59.7935325 L18.2054038,64.206284 C18.1988407,64.5344878 18.2174258,64.8627119 18.2609985,65.1881212 L17.8903673,65.1881212 L12.8497832,59.6096679 L12.8497832,63.6179171 C12.8497832,64.4636945 13.0128609,64.7542006 13.7689485,64.7542006 L13.9394389,64.7542006 L13.9394389,65.0447067 C13.5169193,65.0447067 13.0981061,65.0079338 12.6755865,65.0079338 C12.253067,65.0079338 11.7860717,65.0447067 11.3450206,65.0447067 L11.3450206,64.7542006 L11.4821541,64.7542006 C12.1567029,64.7542006 12.3642563,64.294539 12.3642563,63.5223075 L12.3642563,59.4331578 C12.3642751,59.1991174 12.2698148,58.9748196 12.1019759,58.8103678 C11.934137,58.6459159 11.7069038,58.555012 11.4710352,58.5579621 L11.3450206,58.5579621 L11.3450206,58.267456 C11.7156518,58.267456 12.0862829,58.3042289 12.4569141,58.3042289 C12.7534191,58.3042289 13.0388051,58.267456 13.3316037,58.267456 L17.6976391,63.1325144 Z" id="路径" fill="#231815"></path>
                    <path d="M17.8903673,65.1513482 L18.2128164,65.1513482 C18.1756819,64.8401955 18.1595852,64.526925 18.1646344,64.2136386 L18.1646344,59.8008871 C18.1646344,58.6351853 18.6538675,58.5248665 19.0763871,58.5211892 L19.1801638,58.5211892 L19.1801638,58.3152608 C18.8095326,58.3152608 18.409251,58.355711 18.0200882,58.355711 C17.5716245,58.355711 17.1342797,58.3189381 16.6932286,58.3152608 L16.6932286,58.5211892 L16.8674252,58.5211892 C17.1211201,58.5094027 17.3670893,58.6094934 17.5393838,58.7946252 C17.7116782,58.979757 17.792671,59.2309896 17.7606464,59.4809626 L17.7606464,63.1582555 L17.7421148,63.176642 L17.708758,63.2097376 L13.3538416,58.3226154 C13.061043,58.3226154 12.7793633,58.3630656 12.479152,58.3630656 C12.1085208,58.3630656 11.7378896,58.3262927 11.3969089,58.3226154 L11.3969089,58.5285438 L11.4821541,58.5285438 C11.7291797,58.526583 11.9667672,58.6225737 12.1421408,58.7951932 C12.3175144,58.9678127 12.4161526,59.2027677 12.4161447,59.447867 L12.4161447,63.540694 C12.4161447,64.3166028 12.1974723,64.8130373 11.493273,64.8167146 L11.3969089,64.8167146 L11.3969089,65.0263203 C11.8231348,65.0263203 12.2604796,64.9858701 12.6867055,64.9858701 C13.1129313,64.9858701 13.5020941,65.022643 13.9060821,65.0263203 L13.9060821,64.8203919 L13.7837738,64.8203919 C13.0128609,64.8203919 12.8201327,64.4820809 12.8201327,63.6399809 L12.8201327,59.5067037 L17.8903673,65.1513482 Z M18.2609985,65.235926 L17.8607168,65.235926 L12.8905526,59.7420504 L12.8905526,63.6179171 C12.8905526,64.4600172 13.0313925,64.7027185 13.7689485,64.721105 L13.976502,64.721105 L13.976502,65.0888343 L13.9394389,65.0888343 C13.513213,65.0888343 13.0943998,65.0520613 12.6755865,65.0520613 C12.2567733,65.0520613 11.7860717,65.0888343 11.3450206,65.0888343 L11.3005448,65.0888343 L11.3005448,64.721105 L11.4821541,64.721105 C12.1270524,64.721105 12.312368,64.3055709 12.3197806,63.5333394 L12.3197806,59.4331578 C12.3208135,59.2105107 12.2313613,58.9968467 12.0716392,58.8404512 C11.9119171,58.6840557 11.6954062,58.5981291 11.4710352,58.6020896 L11.3005448,58.6020896 L11.3005448,58.2343604 L11.3450206,58.2343604 C11.7156518,58.2343604 12.0862829,58.2748106 12.4569141,58.2748106 C12.7497128,58.2748106 13.0313925,58.2343604 13.3612542,58.2490695 L17.6642823,63.0552913 L17.6642823,59.4846399 C17.6642823,58.7124084 17.1416923,58.6167988 16.8563063,58.6131215 L16.5968645,58.6131215 L16.5968645,58.2453922 L16.6413402,58.2453922 C17.1046292,58.2453922 17.5530929,58.2858425 18.0126756,58.2858425 C18.409251,58.2858425 18.8095326,58.2453922 19.2172269,58.2453922 L19.2579964,58.2453922 L19.2579964,58.6131215 L19.0689745,58.6131215 C18.6649865,58.6131215 18.2498795,58.657249 18.2387606,59.8045644 L18.2387606,64.2173158 C18.2332529,64.5431728 18.2530787,64.8689661 18.2980616,65.1917985 L18.2980616,65.2396033 L18.2609985,65.235926 Z" id="形状" fill="#231815"></path>
                    <path d="M20.6886327,58.7528586 C19.9473704,58.7528586 19.9251325,58.9293687 19.7805863,59.6354089 L19.4989066,59.6354089 C19.5396761,59.3632893 19.5878581,59.0911696 19.6175086,58.8116953 C19.6579297,58.5377392 19.6777514,58.2611789 19.6768096,57.9843044 L19.9103073,57.9843044 C19.9918461,58.2784879 20.2364627,58.267456 20.4996108,58.267456 L25.5513139,58.267456 C25.8181683,58.267456 26.0627849,58.267456 26.0813165,57.965918 L26.3148141,58.0063682 C26.277751,58.267456 26.2369816,58.5285438 26.2073311,58.7933089 C26.1776806,59.058074 26.170268,59.3154845 26.170268,59.572895 L25.8774693,59.6832137 C25.8552315,59.3154845 25.8070494,58.7491814 25.136207,58.7491814 L23.5313739,58.7491814 L23.5313739,63.9157778 C23.5313739,64.6512364 23.8760609,64.7542006 24.3430562,64.7542006 L24.5320781,64.7542006 L24.5320781,65.0447067 C24.1614469,65.0447067 23.460954,65.0079338 22.9346577,65.0079338 C22.3453541,65.0079338 21.6596864,65.0447067 21.2779363,65.0447067 L21.2779363,64.7542006 L21.4669582,64.7542006 C22.0043734,64.7542006 22.2786405,64.7063958 22.2786405,63.9378416 L22.2786405,58.7528586 L20.6886327,58.7528586 Z" id="路径" fill="#231815"></path>
                    <path d="M24.5506097,65.0888343 C24.1799785,65.0888343 23.4794856,65.0520613 22.9531893,65.0520613 C22.367592,65.0520613 21.6819243,65.0888343 21.2964679,65.0888343 L21.2556985,65.0888343 L21.2556985,64.721105 L21.4854898,64.721105 C22.022905,64.721105 22.2267522,64.7027185 22.2526963,63.9488735 L22.2526963,58.8006635 L20.6886327,58.8006635 L20.6886327,58.7160857 L22.3379415,58.7160857 L22.3379415,63.9488735 C22.3379415,64.7284596 22.0191987,64.8056827 21.4854898,64.80936 L21.3520626,64.80936 L21.3520626,65.0116111 C21.7226937,65.0116111 22.4009488,64.9748382 22.9680145,64.9748382 C23.4794856,64.9748382 24.1317964,65.0116111 24.5209592,65.0116111 L24.5209592,64.80936 L24.376413,64.80936 C23.9020051,64.80936 23.5239613,64.6916866 23.5239613,63.9268097 L23.5239613,58.7087311 L25.1695638,58.7087311 C25.8292873,58.7087311 25.9108261,59.2640024 25.9367703,59.6280543 L26.1480301,59.5508312 C26.1480301,59.297098 26.1480301,59.0433648 26.1480301,58.7859543 C26.1480301,58.5285438 26.2110374,58.2895197 26.2481005,58.0504957 L26.099848,58.0247547 C26.0553723,58.3079062 25.7773989,58.3226154 25.5327823,58.3189381 L20.4366035,58.3189381 C20.2031059,58.3189381 19.954783,58.3189381 19.8658315,58.0394638 L19.7027538,58.0394638 C19.7030749,58.3027542 19.6844964,58.565733 19.6471591,58.8264045 C19.6175086,59.0948469 19.5730329,59.3485801 19.5359698,59.6059906 L19.7472295,59.6059906 C19.8732441,58.9293687 19.9584893,58.7087311 20.6886327,58.719763 L20.6886327,58.8043407 C19.9473704,58.8043407 19.9807272,58.9404006 19.8213558,59.6574727 L19.8213558,59.6905683 L19.4507246,59.6905683 L19.4507246,59.6390862 C19.4877877,59.3706438 19.5396761,59.0948469 19.5693266,58.8153726 C19.6096263,58.5438714 19.6294483,58.2697648 19.6286276,57.9953363 L19.6286276,57.9548861 L19.9362514,57.9548861 L19.9362514,57.9843044 C20.002965,58.2306831 20.1845743,58.2306831 20.4366035,58.2343604 L25.5364886,58.2343604 C25.8070494,58.2343604 26.0071902,58.2343604 26.0257218,57.9732726 L26.0257218,57.929145 L26.0664912,57.929145 L26.3444646,57.9732726 L26.3444646,58.0137228 C26.3074015,58.2748106 26.2666321,58.5358984 26.2406879,58.7969862 C26.2147437,59.058074 26.2221563,59.3191617 26.2221563,59.5802495 L26.2221563,59.6096679 L26.1925058,59.6096679 L25.8441125,59.7383731 L25.8441125,59.6795364 C25.8181683,59.3118072 25.7773989,58.7859543 25.1584448,58.7859543 L23.5980875,58.7859543 L23.5980875,63.9121005 C23.5980875,64.6475591 23.8982988,64.6990412 24.3652941,64.7063958 L24.5950854,64.7063958 L24.5950854,65.0741251 L24.5506097,65.0888343 Z" id="路径" fill="#231815"></path>
                    <path d="M26.6113191,64.7578779 L26.7521589,64.7578779 C27.1227901,64.7578779 27.4934213,64.7100731 27.4934213,64.2026067 L27.4934213,59.1132333 C27.4934213,58.6057669 27.1227901,58.5579621 26.7521589,58.5579621 L26.6113191,58.5579621 L26.6113191,58.267456 C27.2080353,58.267456 28.2309774,58.3042289 29.0500723,58.3042289 C29.8691672,58.3042289 30.9032282,58.267456 31.5555391,58.267456 C31.5555391,58.6829901 31.5555391,59.3265163 31.577777,59.7383731 L31.281272,59.8155963 C31.2367963,59.1831019 31.1181943,58.6793128 30.0878396,58.6793128 L28.7313295,58.6793128 L28.7313295,61.2239995 L29.8765798,61.2239995 C30.4658834,61.2239995 30.5956043,60.8967204 30.651199,60.3708675 L30.9439976,60.3708675 C30.9439976,60.7385968 30.9143471,61.1283898 30.9143471,61.507151 C30.9143471,61.8859122 30.9143471,62.2426096 30.9439976,62.6103389 L30.651199,62.6691755 C30.5956043,62.0881633 30.5659538,61.7094021 29.8876988,61.7094021 L28.7165042,61.7094021 L28.7165042,63.9856464 C28.7165042,64.6181408 29.2798636,64.6181408 29.9062303,64.6181408 C31.0848375,64.6181408 31.6000148,64.5372403 31.8965198,63.4340525 L32.1707869,63.5002437 C32.0410659,64.0150647 31.9261703,64.5298857 31.8372188,65.0447067 C31.2108521,65.0447067 30.0841333,65.0079338 29.2057374,65.0079338 C28.3273415,65.0079338 27.1561469,65.0447067 26.6113191,65.0447067 L26.6113191,64.7578779 Z" id="路径" fill="#231815"></path>
                    <path d="M31.8149809,65.0042565 C31.9002261,64.5151766 32.0114154,64.0224193 32.1337237,63.5333394 L31.9409955,63.4855346 C31.6444906,64.5887224 31.0774249,64.6696229 29.9210556,64.6622683 C29.3058078,64.6622683 28.6868537,64.6622683 28.6868537,63.9893237 L28.6868537,61.6836611 L29.902524,61.6836611 C30.5881917,61.6836611 30.6437864,62.084486 30.7030874,62.6397572 L30.9143471,62.5956297 C30.8958156,62.2279004 30.888403,61.8601711 30.888403,61.5218602 C30.888403,61.1835492 30.888403,60.7864016 30.9143471,60.4186723 L30.7030874,60.4186723 C30.651199,60.9261387 30.4881213,61.2791588 29.8914051,61.2754816 L28.6868537,61.2754816 L28.6868537,58.6535717 L30.0878396,58.6535717 C31.1070753,58.6535717 31.2775657,59.1683927 31.3220414,59.7788234 L31.5333012,59.7199867 C31.5147697,59.447867 31.5036507,59.0948469 31.5036507,58.7712451 C31.5036507,58.6057669 31.5036507,58.4476433 31.5036507,58.3079062 C30.8365146,58.3079062 29.843223,58.3483564 29.0389533,58.3483564 C28.2346837,58.3483564 27.2450984,58.3115835 26.6446759,58.3079062 L26.6446759,58.5138346 L26.74104,58.5138346 C27.0894333,58.5138346 27.5045402,58.5763486 27.5082465,59.1132333 L27.5082465,64.2026067 C27.5082465,64.7394914 27.0894333,64.7983281 26.74104,64.8020054 L26.6446759,64.8020054 L26.6446759,65.0042565 C27.2154479,65.0042565 28.345873,64.9674836 29.2057374,64.9674836 C30.0656017,64.9674836 31.173789,65.0042565 31.8001557,65.0042565 M31.8372188,65.0888343 C31.2071458,65.0888343 30.080427,65.048384 29.2020311,65.048384 C28.3236352,65.048384 27.1561469,65.0888343 26.6076128,65.0888343 L26.5668433,65.0888343 L26.5668433,64.721105 L26.7484526,64.721105 C27.1190838,64.721105 27.4230014,64.684332 27.4267077,64.2099613 L27.4267077,59.1132333 C27.4267077,58.6388626 27.1005522,58.6057669 26.7484526,58.6020896 L26.5668433,58.6020896 L26.5668433,58.2343604 L26.6076128,58.2343604 C27.2080353,58.2343604 28.227271,58.2748106 29.046366,58.2748106 C29.8654609,58.2748106 30.8995219,58.2343604 31.5518328,58.2343604 L31.5963085,58.2343604 L31.5963085,58.2821652 C31.5963085,58.4255796 31.5963085,58.5984123 31.5963085,58.782277 C31.5963085,59.1169106 31.5963085,59.4846399 31.625959,59.7604369 L31.625959,59.7972098 L31.5926022,59.7972098 L31.2516215,59.8891421 L31.2516215,59.83766 C31.1923205,59.208843 31.1070753,58.7344722 30.0989585,58.7344722 L28.7646863,58.7344722 L28.7646863,61.1982584 L29.8765798,61.1982584 C30.4436455,61.1982584 30.5437159,60.904075 30.6178422,60.3818994 L30.6178422,60.3414492 L30.9884734,60.3414492 L30.9884734,60.3855767 C30.9884734,60.753306 30.9588229,61.143099 30.9588229,61.5218602 C30.9588229,61.9006213 30.9588229,62.2573187 30.9884734,62.625048 L30.9884734,62.6581437 L30.9514103,62.6581437 L30.6104296,62.7280122 L30.6104296,62.6802074 C30.5437159,62.0881633 30.5363033,61.7645615 29.8691672,61.7572069 L28.7646863,61.7572069 L28.7646863,63.9635826 C28.7646863,64.5519495 29.2798636,64.5482722 29.9173492,64.5519495 C31.0996627,64.5519495 31.5703643,64.4894355 31.8668693,63.4009568 L31.8668693,63.3605066 L31.9076387,63.3605066 L32.2226752,63.441407 L32.2226752,63.47818 C32.0929543,63.993001 31.9780586,64.507822 31.8891071,65.022643 L31.8891071,65.0557386 L31.8372188,65.0888343 Z" id="形状" fill="#231815"></path>
                    <path d="M34.7577925,61.5476012 L35.2359067,61.5476012 C36.2180794,61.5476012 36.7443757,61.1798719 36.7443757,60.0325566 C36.7724105,59.6485676 36.6305753,59.2714921 36.3558388,58.9996128 C36.0811022,58.7277335 35.7006844,58.5879875 35.3137393,58.6167988 C35.1277498,58.6186477 34.9420641,58.632158 34.7577925,58.657249 L34.7577925,61.5476012 Z M33.5050591,59.297098 C33.5050591,58.5873805 33.1121901,58.5616394 32.8082725,58.5616394 L32.6340758,58.5616394 L32.6340758,58.2711333 C32.945406,58.2711333 33.5532412,58.3079062 34.1499574,58.3079062 C34.7466736,58.3079062 35.2099626,58.2711333 35.7288462,58.2711333 C36.9593418,58.2711333 38.0601164,58.6020896 38.0601164,59.9810745 C38.0601164,60.8562702 37.4708128,61.3894776 36.6961936,61.6910156 L38.3714466,64.1768656 C38.5547184,64.5305667 38.9194682,64.7553368 39.3202624,64.7615552 L39.3202624,65.0520613 C38.9978133,65.0520613 38.6827768,65.0152884 38.3640339,65.0152884 C38.0452911,65.0152884 37.7450799,65.0520613 37.4411623,65.0520613 C36.6906388,64.0497992 36.0095815,62.9981256 35.4026908,61.9042986 L34.7577925,61.9042986 L34.7577925,63.9856464 C34.7577925,64.721105 35.1098921,64.7652325 35.5583559,64.7652325 L35.7362588,64.7652325 L35.7362588,65.0557386 C35.1766058,65.0557386 34.6243653,65.0189657 34.0535933,65.0189657 C33.5828917,65.0189657 33.123309,65.0557386 32.6340758,65.0557386 L32.6340758,64.7652325 L32.8082725,64.7652325 C33.1789037,64.7652325 33.5050591,64.5997543 33.5050591,64.2393796 L33.5050591,59.297098 Z" id="形状" fill="#231815"></path>
                    <path d="M35.2359067,61.507151 C36.2069605,61.507151 36.6961936,61.1651628 36.7184315,60.0362339 C36.7464394,59.662676 36.6090275,59.2955467 36.3420621,59.0306716 C36.0750967,58.7657965 35.7050703,58.6294604 35.3285645,58.657249 C35.1574519,58.6585147 34.9866024,58.6707982 34.8170935,58.694022 L34.8170935,61.507151 L35.2359067,61.507151 Z M34.7577925,61.5917287 L34.7170231,61.5917287 L34.7170231,58.6167988 L34.7540862,58.6167988 C34.9397184,58.5933471 35.1266113,58.581067 35.3137393,58.5800259 C35.7154553,58.5499606 36.1104058,58.6952485 36.395269,58.9778813 C36.6801321,59.2605141 36.8265666,59.6523723 36.796264,60.050943 C36.796264,61.2129676 36.2329046,61.6064379 35.2433194,61.6064379 L34.7577925,61.5917287 Z M34.7577925,61.8564938 L35.4360476,61.8564938 L35.4360476,61.8785576 C36.0382643,62.9611869 36.7066479,64.0062629 37.437456,65.0079338 C37.7376672,65.0079338 38.0489974,64.9674836 38.3566213,64.9674836 C38.6642452,64.9674836 38.9718691,65.0005792 39.2757867,65.0042565 L39.2757867,64.7909735 C38.876958,64.7744573 38.5176571,64.5470911 38.3343835,64.1952521 L36.62948,61.6689519 L36.6776621,61.6468881 C37.4448686,61.3490274 38.0119343,60.8305291 38.0119343,59.9773972 C38.0119343,58.6278307 36.9556354,58.3152608 35.7251399,58.3079062 C35.2099626,58.3079062 34.739261,58.3483564 34.1462511,58.3483564 C33.5532412,58.3483564 32.9898818,58.3115835 32.6637263,58.3079062 L32.6637263,58.5138346 L32.7971536,58.5138346 C33.1010711,58.5138346 33.5384159,58.5653167 33.5384159,59.297098 L33.5384159,64.232025 C33.5384159,64.6218181 33.1677847,64.7983281 32.7971536,64.8020054 L32.6637263,64.8020054 L32.6637263,65.0042565 C33.1344279,65.0042565 33.5828917,64.9674836 34.0424743,64.9674836 C34.5873022,64.9674836 35.1543679,65.0042565 35.6843705,65.0042565 L35.6843705,64.8020054 L35.5472369,64.8020054 C35.1024795,64.8020054 34.7059042,64.746846 34.7059042,63.9782918 L34.7059042,61.8564938 L34.7577925,61.8564938 Z M39.3202624,65.0888343 C38.994107,65.0888343 38.6827768,65.0520613 38.3603276,65.0520613 C38.0378785,65.0520613 37.7487862,65.0888343 37.4078055,65.0741251 C36.6600445,64.0786685 35.9826409,63.0330433 35.3804529,61.9447489 L34.8022683,61.9447489 L34.8022683,63.9856464 C34.8022683,64.721105 35.1061858,64.721105 35.5435306,64.721105 L35.7659093,64.721105 L35.7659093,65.0888343 L35.7214336,65.0888343 C35.1617805,65.0888343 34.5910085,65.0520613 34.038768,65.0520613 C33.5717727,65.0520613 33.1084837,65.0888343 32.6192506,65.0888343 L32.5747748,65.0888343 L32.5747748,64.721105 L32.7934472,64.721105 C33.1455469,64.721105 33.4457581,64.5666587 33.4457581,64.2393796 L33.4457581,59.297098 C33.4457581,58.6057669 33.0973648,58.6094442 32.7934472,58.6020896 L32.5747748,58.6020896 L32.5747748,58.2343604 L32.6192506,58.2343604 C32.9342871,58.2343604 33.5384159,58.2748106 34.1351321,58.2748106 C34.7318483,58.2748106 35.191431,58.2343604 35.714021,58.2343604 C36.9482228,58.2343604 38.0823542,58.5763486 38.0860606,59.988429 C38.0860606,60.8636247 37.5004633,61.4115414 36.748082,61.7167567 L38.3899781,64.1621565 C38.5727597,64.5076427 38.934411,64.7232181 39.327675,64.721105 L39.3610318,64.721105 L39.3610318,65.0888343 L39.3202624,65.0888343 Z" id="形状" fill="#231815"></path>
                    <path d="M45.9693859,63.1325144 L45.9693859,63.114128 L45.9693859,59.473608 C46.0044219,59.2348202 45.9291825,58.993077 45.7645474,58.8154649 C45.5999123,58.6378528 45.3633982,58.5432692 45.1206405,58.5579621 L44.9056744,58.5579621 L44.9056744,58.267456 C45.365257,58.267456 45.8137208,58.3042289 46.2770097,58.3042289 C46.6809977,58.3042289 47.0775731,58.267456 47.4815611,58.267456 L47.4815611,58.5579621 L47.3333086,58.5579621 C46.921908,58.5579621 46.4623253,58.6351853 46.4623253,59.7935325 L46.4623253,64.206284 C46.4569331,64.5345823 46.4767574,64.8628112 46.5216263,65.1881212 L46.1509951,65.1881212 L41.1067047,59.6096679 L41.1067047,63.6179171 C41.1067047,64.4636945 41.2734888,64.7542006 42.0258701,64.7542006 L42.1926541,64.7542006 L42.1926541,65.0447067 C41.7738409,65.0447067 41.3513213,65.0079338 40.9325081,65.0079338 C40.5136948,65.0079338 40.0392869,65.0447067 39.5982358,65.0447067 L39.5982358,64.7542006 L39.7353693,64.7542006 C40.4099181,64.7542006 40.6174716,64.294539 40.6174716,63.5223075 L40.6174716,59.4331578 C40.6184843,59.1994558 40.5248526,58.9751419 40.3575992,58.810581 C40.1903459,58.64602 39.9634863,58.5550017 39.7279567,58.5579621 L39.5982358,58.5579621 L39.5982358,58.267456 C39.968867,58.267456 40.3394982,58.3042289 40.7101294,58.3042289 C41.002928,58.3042289 41.288314,58.267456 41.5811126,58.267456 L45.9693859,63.1325144 Z" id="路径" fill="#231815"></path>
                    <path d="M46.1658204,65.1513482 L46.4845632,65.1513482 C46.4460903,64.8402867 46.428755,64.5270093 46.4326748,64.2136386 L46.4326748,59.8008871 C46.4326748,58.6351853 46.9293206,58.5248665 47.3481339,58.5211892 L47.4519106,58.5211892 L47.4519106,58.3152608 C47.0812794,58.3152608 46.6809977,58.355711 46.291835,58.355711 C45.8433713,58.355711 45.4060265,58.3189381 44.961269,58.3152608 L44.961269,58.5211892 L45.1354657,58.5211892 C45.3891606,58.5094027 45.6351298,58.6094934 45.8074242,58.7946252 C45.9797186,58.979757 46.0607114,59.2309896 46.0286869,59.4809626 L46.0286869,63.1582555 L46.0101553,63.176642 L45.9805048,63.2097376 L41.6218821,58.3226154 C41.3327897,58.3226154 41.0474037,58.3630656 40.7508988,58.3630656 C40.3802676,58.3630656 40.0096364,58.3262927 39.6649494,58.3226154 L39.6649494,58.5285438 L39.7539009,58.5285438 C40.0005873,58.5265758 40.237799,58.622682 40.4125861,58.7954096 C40.5873731,58.9681373 40.6851839,59.2031062 40.6841852,59.447867 L40.6841852,63.5370167 C40.6841852,64.3166028 40.4618065,64.8130373 39.7613135,64.8167146 L39.6649494,64.8167146 L39.6649494,65.0263203 C40.0911753,65.0263203 40.5248138,64.9858701 40.9547459,64.9858701 C41.3846781,64.9858701 41.7738409,65.022643 42.1778288,65.0263203 L42.1778288,64.8203919 L42.0518142,64.8203919 C41.2846077,64.8203919 41.0918795,64.4857582 41.0881732,63.6363036 L41.0881732,59.510381 L46.1658204,65.1513482 Z M46.5364516,65.235926 L46.1324636,65.235926 L41.1622994,59.7420504 L41.1622994,63.6179171 C41.1622994,64.4673718 41.3031392,64.721105 42.0406953,64.721105 L42.2482488,64.721105 L42.2482488,65.0888343 L42.2074793,65.0888343 C41.7849598,65.0888343 41.3624402,65.048384 40.943627,65.048384 C40.5248138,65.048384 40.0541122,65.0888343 39.613061,65.0888343 L39.5685853,65.0888343 L39.5685853,64.721105 L39.7501946,64.721105 C40.3950928,64.721105 40.5804084,64.3055709 40.5878211,63.5296621 L40.5878211,59.4331578 C40.5888354,59.2111584 40.4998898,58.9980674 40.3409767,58.8417815 C40.1820636,58.6854957 39.9665156,58.5991273 39.742782,58.6020896 L39.5685853,58.6020896 L39.5685853,58.2343604 L39.613061,58.2343604 C39.9836922,58.2343604 40.3543234,58.2748106 40.7249546,58.2748106 C41.0140469,58.2748106 41.2957266,58.2343604 41.6255884,58.2490695 L45.9286164,63.0552913 L45.9286164,59.4846399 C45.9286164,58.7124084 45.4060265,58.6167988 45.1206405,58.6131215 L44.8611986,58.6131215 L44.8611986,58.2453922 L44.9056744,58.2453922 C45.3689633,58.2453922 45.8174271,58.2858425 46.2770097,58.2858425 C46.6772914,58.2858425 47.0775731,58.2453922 47.4815611,58.2453922 L47.5223305,58.2453922 L47.5223305,58.6131215 L47.3333086,58.6131215 C46.9293206,58.6131215 46.5142137,58.657249 46.5030948,59.8045644 L46.5030948,64.2173158 C46.4975871,64.5431728 46.5174129,64.8689661 46.5623958,65.1917985 L46.5623958,65.2396033 L46.5364516,65.235926 Z" id="形状" fill="#231815"></path>
                    <path d="M50.5022053,59.3559347 L50.4799674,59.3559347 L49.571921,62.1065497 L51.3991327,62.1065497 L50.5022053,59.3559347 Z M49.0715689,63.6583673 C48.9729541,63.9028568 48.8996854,64.1566731 48.8528965,64.4158897 C48.8528965,64.7100731 49.2680034,64.7578779 49.5941589,64.7578779 L49.7016419,64.7578779 L49.7016419,65.048384 C49.3087728,65.0263203 48.9084912,65.0116111 48.5156221,65.0116111 C48.122753,65.0116111 47.8114229,65.0116111 47.4593232,65.048384 L47.4593232,64.7578779 L47.5186242,64.7578779 C47.9116305,64.757198 48.2571968,64.4996782 48.3673696,64.1253835 L49.9351395,59.6648273 C50.0914238,59.2746651 50.2153783,58.8725073 50.3057707,58.4623525 C50.6154107,58.3518873 50.9133498,58.2114743 51.1952856,58.0431411 C51.2222248,58.0380689 51.2498852,58.0380689 51.2768244,58.0431411 C51.3031061,58.0378634 51.329875,58.0496676 51.343538,58.0725595 C51.3731885,58.1497826 51.402839,58.2380376 51.4324895,58.3152608 L53.2263445,63.3788931 C53.3449464,63.717204 53.4598421,64.0775787 53.5969756,64.3680849 C53.7003408,64.6278537 53.9656628,64.7873047 54.2455802,64.7578779 L54.3048812,64.7578779 L54.3048812,65.048384 C53.8638301,65.0263203 53.422779,65.0116111 52.9557837,65.0116111 C52.4887884,65.0116111 51.98473,65.0116111 51.473259,65.048384 L51.473259,64.7578779 L51.580742,64.7578779 C51.8031207,64.7578779 52.1885771,64.7174277 52.1885771,64.4747263 C52.1499445,64.2352092 52.0840448,64.0008148 51.9921426,63.7760407 L51.6215114,62.6471118 L49.3977243,62.6471118 L49.0715689,63.6583673 Z" id="形状" fill="#231815"></path>
                    <path d="M49.6275157,62.0624222 L51.343538,62.0624222 L50.4910863,59.4588989 L49.6275157,62.0624222 Z M49.5200326,62.147 L50.4540232,59.3118072 L50.5096179,59.3118072 L50.5096179,59.3559347 L50.5096179,59.3559347 L50.5096179,59.3118072 L50.5392684,59.3118072 L51.4695526,62.147 L49.5200326,62.147 Z M51.521441,65.0042565 C52.0032616,65.0042565 52.4776695,64.9674836 52.9483711,64.9674836 C53.4190727,64.9674836 53.826767,64.9858701 54.2529928,65.0042565 L54.2529928,64.7983281 L54.2529928,64.7983281 C53.9562766,64.8284921 53.6757482,64.658484 53.5673252,64.382794 C53.4413106,64.0922879 53.3190023,63.7319132 53.196694,63.3899249 L51.3731885,58.3079062 L51.2879434,58.0762368 C51.2879434,58.0762368 51.2879434,58.0762368 51.2879434,58.0762368 L51.2694118,58.0762368 C51.2509641,58.0737631 51.2322648,58.0737631 51.2138171,58.0762368 C50.9402302,58.246073 50.6447551,58.3784287 50.3354212,58.4697071 C50.243789,58.8831352 50.1198713,59.2888621 49.96479,59.6832137 L48.4081391,64.1400927 C48.2914762,64.5308801 47.9294095,64.7988072 47.5186242,64.7983281 L47.5186242,64.7983281 L47.5186242,65.0042565 C47.8558986,65.0042565 48.193173,64.9674836 48.5341537,64.9674836 C48.8751344,64.9674836 49.3013602,64.9858701 49.6756977,65.0042565 L49.6756977,64.7983281 L49.6126904,64.7983281 C49.2902413,64.7983281 48.8454839,64.7615552 48.8343649,64.4305988 C48.8797555,64.1674845 48.9530536,63.9098682 49.0530373,63.6620446 L49.0938068,63.6620446 L49.0530373,63.6620446 L49.3754865,62.6213707 L51.6585746,62.6213707 L52.0477373,63.7760407 C52.1449271,64.0043679 52.2121898,64.2441234 52.2478781,64.4894355 C52.2478781,64.7872962 51.8216523,64.80936 51.5992736,64.8130373 L51.5362663,64.8130373 L51.521441,65.0042565 Z M54.2937623,65.0888343 C53.8564175,65.0704478 53.4116601,65.048384 52.9483711,65.048384 C52.4850821,65.048384 51.9773174,65.0704478 51.4658463,65.0888343 L51.4176643,65.0888343 L51.4176643,64.721105 L51.5696231,64.721105 C51.7957081,64.721105 52.1329825,64.6696229 52.1329825,64.4820809 C52.0957364,64.2462443 52.031062,64.0154863 51.9402543,63.7944272 L51.5696231,62.6912393 L49.4125496,62.6912393 L49.108632,63.6730765 C49.0124333,63.9108061 48.9392136,64.1570652 48.8899596,64.4085351 C48.8899596,64.6475591 49.2605908,64.7063958 49.5867462,64.7063958 L49.7349987,64.7063958 L49.7349987,65.0741251 L49.690523,65.0741251 C49.3013602,65.0557386 48.9010785,65.0336749 48.5082095,65.0336749 C48.1153404,65.0336749 47.8040102,65.0557386 47.4556169,65.0741251 L47.4074349,65.0741251 L47.4074349,64.7063958 L47.5112116,64.7063958 C47.8854114,64.7050382 48.2141508,64.459666 48.3191876,64.1033198 L49.8906638,59.6501181 C50.043083,59.248136 50.1730019,58.8381059 50.2798265,58.4219023 C50.5888349,58.3099362 50.8866322,58.1695901 51.1693414,58.0026909 C51.1988848,57.990606 51.2301457,57.9831621 51.2619992,57.980598 C51.3059586,57.9797135 51.3475496,58.0003462 51.3731885,58.0357865 C51.3991327,58.116687 51.4324895,58.204942 51.46214,58.2821652 L53.2634076,63.3641839 C53.3783033,63.7024948 53.4969052,64.0628695 53.6340388,64.3496984 C53.7275522,64.5961769 53.9782059,64.7478179 54.2418739,64.7174277 L54.338238,64.7174277 L54.338238,65.085157 L54.2937623,65.0888343 Z" id="形状" fill="#231815"></path>
                    <path d="M54.7088692,58.7528586 C53.9676068,58.7528586 53.945369,58.9293687 53.7971165,59.6354089 L53.5043179,59.6354089 C53.541381,59.3632893 53.5932693,59.0911696 53.6229198,58.8116953 C53.6602528,58.5374595 53.6788268,58.2610303 53.6785145,57.9843044 L53.9157185,57.9843044 C53.993551,58.2784879 54.2381676,58.267456 54.5013157,58.267456 L59.5567251,58.267456 C59.8198732,58.267456 60.0644898,58.267456 60.0830214,57.965918 L60.316519,58.0063682 C60.2794559,58.267456 60.2423928,58.5285438 60.2127423,58.7933089 C60.1830918,59.058074 60.1905044,59.3154845 60.1905044,59.5765722 L59.8977058,59.686891 C59.8977058,59.3191617 59.8309922,58.7528586 59.174975,58.7528586 L57.5664356,58.7528586 L57.5664356,63.9194551 C57.5664356,64.6549137 57.9111226,64.7578779 58.3818242,64.7578779 L58.5671398,64.7578779 L58.5671398,65.048384 C58.1965087,65.048384 57.499722,65.0116111 56.9697194,65.0116111 C56.4397168,65.0116111 55.6984545,65.048384 55.3167043,65.048384 L55.3167043,64.7578779 L55.5020199,64.7578779 C56.0431415,64.7578779 56.3137022,64.7100731 56.3137022,63.9415189 L56.3137022,58.7528586 L54.7088692,58.7528586 Z" id="路径" fill="#231815"></path>
                    <path d="M58.5782588,65.0888343 C58.2076276,65.0888343 57.5071347,65.0520613 56.9808384,65.0520613 C56.3952411,65.0520613 55.7095734,65.0888343 55.3278233,65.0888343 L55.2833475,65.0888343 L55.2833475,64.721105 L55.5131389,64.721105 C56.0542604,64.721105 56.2544012,64.7027185 56.2840517,63.9488735 L56.2840517,58.8006635 L54.7088692,58.8006635 L54.7088692,58.7160857 L56.358178,58.7160857 L56.358178,63.9488735 C56.358178,64.7284596 56.0394352,64.8056827 55.5020199,64.8056827 L55.3574738,64.8056827 L55.3574738,65.0152884 C55.7466365,65.0152884 56.4026537,64.9748382 56.9697194,64.9748382 C57.5367851,64.9748382 58.1372077,65.0116111 58.5226641,65.0152884 L58.5226641,64.8056827 L58.3781179,64.8056827 C57.9074163,64.8056827 57.5256662,64.6916866 57.5256662,63.9268097 L57.5256662,58.7087311 L59.174975,58.7087311 C59.8309922,58.7087311 59.9162374,59.2640024 59.9347689,59.6280543 L60.149735,59.5508312 C60.149735,59.297098 60.149735,59.0433648 60.1682666,58.7859543 C60.1867981,58.5285438 60.2349802,58.2895197 60.268337,58.0504957 L60.1200845,58.0247547 C60.0756088,58.3079062 59.8013417,58.3262927 59.5567251,58.3189381 L54.4642526,58.3189381 C54.2344613,58.3189381 53.9824321,58.3189381 53.8934806,58.0357865 L53.7341092,58.0357865 C53.7333539,58.3003911 53.7135364,58.5646037 53.6748082,58.8264045 C53.648864,59.0948469 53.600682,59.3522574 53.5636188,59.6059906 L53.7748786,59.6059906 C53.9008932,58.9293687 53.9861384,58.7087311 54.7199881,58.719763 L54.7199881,58.8043407 C53.9787258,58.8043407 54.0120826,58.9404006 53.8490049,59.6574727 L53.8490049,59.6905683 L53.4783737,59.6905683 L53.4783737,59.6427635 C53.5191431,59.3706438 53.5673252,59.0948469 53.5969756,58.8153726 C53.6372754,58.5438714 53.6570974,58.2697648 53.6562766,57.9953363 L53.6562766,57.9548861 L53.9676068,57.9548861 L53.9676068,57.9843044 C54.0343204,58.2306831 54.2122234,58.2306831 54.4642526,58.2343604 L59.567844,58.2343604 C59.8384048,58.2343604 60.0348393,58.2343604 60.0533709,57.9732726 L60.0533709,57.929145 L60.1015529,57.929145 L60.3795263,57.9732726 L60.3795263,58.0137228 C60.3387569,58.2748106 60.3016938,58.5358984 60.2720433,58.7969862 C60.2423928,59.058074 60.2535117,59.3191617 60.2535117,59.5802495 L60.2535117,59.6096679 L60.2238612,59.6096679 L59.8754679,59.7383731 L59.8754679,59.6795364 C59.8495237,59.3118072 59.8124606,58.7859543 59.1935065,58.7859543 L57.6294429,58.7859543 L57.6294429,63.9121005 C57.6294429,64.6475591 57.9333605,64.6990412 58.3966495,64.7063958 L58.6264408,64.7063958 L58.6264408,65.0741251 L58.5782588,65.0888343 Z" id="路径" fill="#231815"></path>
                    <path d="M60.6908565,64.7578779 L60.8279901,64.7578779 C61.1800897,64.7578779 61.5507209,64.7100731 61.5507209,64.2026067 L61.5507209,59.1132333 C61.5507209,58.6057669 61.1800897,58.5579621 60.8279901,58.5579621 L60.6908565,58.5579621 L60.6908565,58.267456 C61.0614877,58.267456 61.6582039,58.3042289 62.1400245,58.3042289 C62.621845,58.3042289 63.2185612,58.267456 63.6781439,58.267456 L63.6781439,58.5579621 L63.5410103,58.5579621 C63.1889107,58.5579621 62.799748,58.6057669 62.799748,59.1132333 L62.799748,64.2026067 C62.799748,64.7100731 63.1703792,64.7578779 63.5410103,64.7578779 L63.6781439,64.7578779 L63.6781439,65.048384 C63.2074423,65.048384 62.6181387,65.0116111 62.1326118,65.0116111 C61.647085,65.0116111 61.0726066,65.048384 60.6908565,65.048384 L60.6908565,64.7578779 Z" id="路径" fill="#231815"></path>
                    <path d="M63.6336681,65.0042565 L63.6336681,64.7983281 L63.5410103,64.7983281 C63.1889107,64.7983281 62.7738038,64.7394914 62.7738038,64.2026067 L62.7738038,59.1132333 C62.7738038,58.5763486 63.1889107,58.5175119 63.5410103,58.5138346 L63.6336681,58.5138346 L63.6336681,58.3079062 C63.1814981,58.3079062 62.6144324,58.3483564 62.1511434,58.3483564 C61.6878544,58.3483564 61.124495,58.3115835 60.7464512,58.3079062 L60.7464512,58.5138346 L60.839109,58.5138346 C61.1875023,58.5138346 61.6063156,58.5763486 61.6063156,59.1132333 L61.6063156,64.2026067 C61.6063156,64.7394914 61.1875023,64.7983281 60.839109,64.7983281 L60.7464512,64.7983281 L60.7464512,65.0042565 C61.1170824,65.0042565 61.6767355,64.9674836 62.1437308,64.9674836 C62.6107261,64.9674836 63.1814981,65.0042565 63.6447871,65.0042565 M63.6892628,65.0888343 C63.2148549,65.0888343 62.6292576,65.048384 62.1437308,65.048384 C61.6582039,65.048384 61.0837256,65.0888343 60.7019755,65.0888343 L60.6389682,65.0888343 L60.6389682,64.721105 L60.8168711,64.721105 C61.1689708,64.721105 61.4951262,64.684332 61.4988325,64.2099613 L61.4988325,59.1132333 C61.4988325,58.6388626 61.1689708,58.6057669 60.8168711,58.6020896 L60.6389682,58.6020896 L60.6389682,58.2343604 L60.6797376,58.2343604 C61.0503688,58.2343604 61.6507913,58.2748106 62.1289055,58.2748106 C62.6070198,58.2748106 63.203736,58.2343604 63.6670249,58.2343604 L63.7077944,58.2343604 L63.7077944,58.6020896 L63.5298914,58.6020896 C63.1592602,58.6020896 62.8516363,58.6388626 62.84793,59.1132333 L62.84793,64.2026067 C62.84793,64.6769775 63.1703792,64.7100731 63.5298914,64.7137504 L63.7077944,64.7137504 L63.7077944,65.0814797 L63.6892628,65.0888343 Z" id="形状" fill="#231815"></path>
                    <path d="M67.7291427,64.7652325 C69.6304807,64.7652325 69.9529298,63.1030961 69.9529298,61.6873384 C69.9529298,60.2715806 69.182017,58.5469302 67.5549461,58.5469302 C65.84263,58.5469302 65.331159,60.0656522 65.331159,61.3637366 C65.331159,63.1030961 66.1354286,64.7652325 67.7180238,64.7652325 M67.5697713,58.1203643 C69.6601312,58.1203643 71.3242652,59.4037395 71.3242652,61.4740554 C71.3692349,62.466313 70.9947389,63.4321616 70.2910898,64.138679 C69.5874408,64.8451964 68.6185066,65.2282545 67.6179534,65.1954757 C65.5424187,65.1954757 63.9561173,63.7944272 63.9561173,61.7057248 C63.9420116,60.7512464 64.3176914,59.8317041 64.9976596,59.1563672 C65.6776277,58.4810303 66.6040405,58.1073485 67.566065,58.1203643" id="形状" fill="#231815"></path>
                    <path d="M65.2978022,61.3637366 C65.2978022,60.0582976 65.8166858,58.50648 67.5623587,58.50648 C69.2264927,58.50648 70.0011119,60.2605487 70.0048479,61.6873384 C70.0085245,63.114128 69.6675438,64.8056827 67.7291427,64.8056827 L67.7291427,64.721105 C69.5822987,64.721105 69.9158667,63.0994188 69.919573,61.6836611 C69.9232793,60.2679033 69.1560728,58.5910578 67.5623587,58.5873805 C65.8833994,58.5873805 65.3867536,60.0582976 65.3830473,61.3600593 C65.3830473,63.0920642 66.1799044,64.7174277 67.7291427,64.721105 L67.7291427,64.8020054 C66.1057781,64.8020054 65.3015085,63.1104507 65.2978022,61.3600593 M63.9264668,61.7020475 C63.9144051,60.7368038 64.2955492,59.8075951 64.9835186,59.1250122 C65.671488,58.4424294 66.6080294,58.0642695 67.5808903,58.0762368 L67.5808903,58.1608145 C66.6300228,58.146791 65.7139529,58.5153792 65.0415138,59.1825534 C64.3690747,59.8497276 63.9975778,60.758625 64.0117119,61.7020475 C64.0117119,63.7686861 65.5757755,65.1476709 67.6327786,65.1476709 C68.6209098,65.1794344 69.5775628,64.8005725 70.2720551,64.1024421 C70.9665474,63.4043118 71.335849,62.4502731 71.2909084,61.4703781 C71.2909084,59.4258032 69.6527186,58.1608145 67.5845966,58.1608145 L67.5845966,58.0762368 C69.6897817,58.0762368 71.3761536,59.3743211 71.3798599,61.4703781 C71.4224874,62.4720904 71.0434494,63.4462956 70.3334898,64.1597631 C69.6235302,64.8732305 68.6465648,65.2617286 67.6364849,65.2322487 C65.5424187,65.2322487 63.9301731,63.8128136 63.9301731,61.7020475" id="形状" fill="#231815"></path>
                    <path d="M77.9326193,63.1325144 L77.9326193,63.114128 L77.9326193,59.473608 C77.9678274,59.2341447 77.8921237,58.991716 77.7266262,58.8139499 C77.5611288,58.6361838 77.323551,58.5421066 77.0801675,58.5579621 L76.8652014,58.5579621 L76.8652014,58.267456 C77.3247841,58.267456 77.7769542,58.3042289 78.2365368,58.3042289 C78.6961195,58.3042289 79.0408065,58.267456 79.4410882,58.267456 L79.4410882,58.5579621 L79.2928357,58.5579621 C78.8851414,58.5579621 78.4218524,58.6351853 78.4218524,59.7935325 L78.4218524,64.206284 C78.4164602,64.5345823 78.4362845,64.8628112 78.4811534,65.1881212 L78.1105222,65.1881212 L73.0662318,59.6096679 L73.0662318,63.6179171 C73.0662318,64.4636945 73.2330158,64.7542006 73.9853971,64.7542006 L74.1521812,64.7542006 L74.1521812,65.0447067 C73.7333679,65.0447067 73.3108484,65.0079338 72.8920351,65.0079338 C72.4732219,65.0079338 71.998814,65.0447067 71.5577629,65.0447067 L71.5577629,64.7542006 L71.6948964,64.7542006 C72.3731515,64.7542006 72.5769986,64.294539 72.5769986,63.5223075 L72.5769986,59.4331578 C72.5780289,59.1988085 72.4838906,58.9739226 72.3158286,58.8092522 C72.1477666,58.6445817 71.9199447,58.5540046 71.6837775,58.5579621 L71.5577629,58.5579621 L71.5577629,58.267456 C71.9283941,58.267456 72.2990252,58.3042289 72.6696564,58.3042289 C72.9624551,58.3042289 73.2441348,58.267456 73.5406397,58.267456 L77.9326193,63.1325144 Z" id="路径" fill="#231815"></path>
                    <path d="M78.1290538,65.1513482 L78.4477966,65.1513482 C78.410662,64.8401955 78.3945654,64.526925 78.3996145,64.2136386 L78.3996145,59.8008871 C78.3996145,58.631508 78.892554,58.5248665 79.3113673,58.5211892 L79.4188503,58.5211892 L79.4188503,58.3152608 C79.0296876,58.3152608 78.6442311,58.355711 78.2550684,58.355711 C77.8066046,58.355711 77.3692598,58.3189381 76.9282087,58.3152608 L76.9282087,58.5211892 L77.0986991,58.5211892 C77.3523939,58.5094027 77.5983632,58.6094934 77.7706576,58.7946252 C77.942952,58.979757 78.0239448,59.2309896 77.9919202,59.4809626 L77.9919202,63.1582555 L77.9733887,63.176642 L77.9437382,63.2097376 L73.5739965,58.3079062 C73.2849042,58.3079062 72.9995182,58.3483564 72.7030132,58.3483564 C72.332382,58.3483564 71.9617509,58.3115835 71.6170639,58.3079062 L71.6170639,58.5138346 L71.702309,58.5138346 C71.9493346,58.5118738 72.1869221,58.6078645 72.3622957,58.780484 C72.5376693,58.9531036 72.6363075,59.1880585 72.6362996,59.4331578 L72.6362996,63.5259848 C72.6362996,64.3018936 72.4176272,64.7983281 71.713428,64.8020054 L71.6170639,64.8020054 L71.6170639,65.0116111 C72.0432897,65.0116111 72.4806345,64.9711609 72.9105667,64.9711609 C73.3404989,64.9711609 73.722249,65.0079338 74.1299433,65.0116111 L74.1299433,64.8056827 L74.0039287,64.8056827 C73.2330158,64.8056827 73.0402876,64.4710491 73.0402876,63.6252717 L73.0402876,59.5067037 L78.1290538,65.1513482 Z M78.499685,65.235926 L78.095697,65.235926 L73.1255328,59.7420504 L73.1255328,63.6179171 C73.1255328,64.4636945 73.2663726,64.6990412 74.0039287,64.721105 L74.2151885,64.721105 L74.2151885,65.0888343 L74.1707127,65.0888343 C73.7481932,65.0888343 73.3293799,65.0520613 72.9105667,65.0520613 C72.4917535,65.0520613 72.0210519,65.0888343 71.5762944,65.0888343 L71.535525,65.0888343 L71.535525,64.721105 L71.713428,64.721105 C72.3583262,64.721105 72.5436418,64.3055709 72.5547608,63.5333394 L72.5547608,59.4331578 C72.554796,59.2101725 72.4645141,58.996527 72.3042075,58.8402416 C72.1439009,58.6839563 71.9270188,58.598143 71.702309,58.6020896 L71.535525,58.6020896 L71.535525,58.2343604 L71.5762944,58.2343604 C71.9469256,58.2343604 72.3175568,58.2748106 72.688188,58.2748106 C72.9772803,58.2748106 73.25896,58.2343604 73.5925281,58.2490695 L77.8955561,63.0552913 L77.8955561,59.4846399 C77.8955561,58.7124084 77.3692598,58.6167988 77.0838738,58.6131215 L76.824432,58.6131215 L76.824432,58.2453922 L76.8689077,58.2453922 C77.3321967,58.2453922 77.7806605,58.2858425 78.2402431,58.2858425 C78.6405248,58.2858425 79.0371002,58.2453922 79.4447945,58.2453922 L79.4855639,58.2453922 L79.4855639,58.6131215 L79.296542,58.6131215 C78.892554,58.6131215 78.4774471,58.657249 78.4700345,59.8045644 L78.4700345,64.2173158 C78.4633575,64.5430772 78.4819439,64.8688655 78.5256291,65.1917985 L78.5256291,65.2396033 L78.499685,65.235926 Z" id="形状" fill="#231815"></path>
                    <path d="M82.4654386,59.3559347 L82.4469071,59.3559347 L81.5314481,62.1065497 L83.3660724,62.1065497 L82.4654386,59.3559347 Z M81.0236833,63.6583673 C80.9276259,63.9034231 80.8556367,64.1571072 80.8087172,64.4158897 C80.8087172,64.7100731 81.2201179,64.7578779 81.5499796,64.7578779 L81.6574627,64.7578779 L81.6574627,65.048384 C81.2645936,65.0263203 80.8643119,65.0116111 80.4714429,65.0116111 C80.0785738,65.0116111 79.7672436,65.0116111 79.415144,65.048384 L79.415144,64.7578779 L79.4707387,64.7578779 C79.8651174,64.7588326 80.2126332,64.500986 80.3231904,64.1253835 L81.8946666,59.6648273 C82.0509509,59.2746651 82.1749054,58.8725073 82.2652978,58.4623525 C82.5760936,58.3518244 82.8752564,58.2114198 83.158519,58.0431411 C83.1841706,58.0376746 83.2106998,58.0376746 83.2363515,58.0431411 C83.266002,58.0431411 83.2845336,58.0431411 83.3030651,58.0725595 L83.3920166,58.3152608 L85.1932842,63.3972795 C85.3081798,63.7355905 85.4267818,64.0959652 85.5639153,64.3864713 C85.6725381,64.6398492 85.9370558,64.7913184 86.2125199,64.7578779 L86.2718209,64.7578779 L86.2718209,65.048384 C85.8307698,65.0263203 85.3897187,65.0116111 84.9190171,65.0116111 C84.4483155,65.0116111 83.9516697,65.0116111 83.4364923,65.048384 L83.4364923,64.7578779 L83.5439754,64.7578779 C83.7700604,64.7578779 84.1518105,64.7174277 84.1518105,64.4747263 C84.1150489,64.2348069 84.049089,64.0001981 83.955376,63.7760407 L83.5847448,62.6471118 L81.3609577,62.6471118 L81.0236833,63.6583673 Z" id="形状" fill="#231815"></path>
                    <path d="M81.590749,62.0624222 L83.3067714,62.0624222 L82.4543197,59.4588989 L81.590749,62.0624222 Z M81.4721471,62.147 L82.4135503,59.3118072 L82.4654386,59.3118072 L82.4654386,59.3559347 L82.4654386,59.3559347 L82.4654386,59.3118072 L82.5062081,59.3118072 L83.432786,62.147 L81.4721471,62.147 Z M83.4735555,65.0042565 C83.9590823,65.0042565 84.4371965,64.9674836 84.9004855,64.9674836 C85.3637745,64.9674836 85.7825877,64.9858701 86.2125199,65.0042565 L86.2125199,64.7983281 L86.2125199,64.7983281 C85.9158037,64.8284921 85.6352753,64.658484 85.5268522,64.382794 C85.3971313,64.0922879 85.2822356,63.7319132 85.156221,63.3899249 L83.3549535,58.3079062 C83.325303,58.2306831 83.2956525,58.1461053 83.2734146,58.0762368 C83.2734146,58.0762368 83.2734146,58.0762368 83.2734146,58.0762368 L83.2474704,58.0762368 C83.229089,58.0729269 83.2102572,58.0729269 83.1918758,58.0762368 C82.9177252,58.2407107 82.6238697,58.3704279 82.3171862,58.4623525 C82.225554,58.8757806 82.1016362,59.2815075 81.946555,59.6758592 L80.3787851,64.1364154 C80.260674,64.527775 79.8973146,64.795543 79.4855639,64.7946508 L79.4855639,64.7946508 L79.4855639,65.0005792 C79.819132,65.0005792 80.1564064,64.9638063 80.4973871,64.9638063 C80.8383677,64.9638063 81.2645936,64.9821928 81.6389311,65.0005792 L81.6389311,64.7946508 L81.5759238,64.7946508 C81.257181,64.7946508 80.8087172,64.7578779 80.7975983,64.4269215 C80.84476,64.1642075 80.9180077,63.9067685 81.0162707,63.6583673 L81.0570401,63.6583673 L81.0162707,63.6583673 L81.3387198,62.6176934 L83.6181016,62.6176934 L84.0109707,63.7723634 C84.1056318,64.0012882 84.1716036,64.2408792 84.2074052,64.4857582 C84.2074052,64.7836189 83.7811793,64.8056827 83.5588006,64.80936 L83.492087,64.80936 L83.4735555,65.0042565 Z M86.249583,65.0888343 C85.8085319,65.0888343 85.3674808,65.0520613 84.9004855,65.0520613 C84.4334902,65.0520613 83.9331381,65.0741251 83.4364923,65.0888343 L83.3920166,65.0888343 L83.3920166,64.721105 L83.5402691,64.721105 C83.7663541,64.721105 84.1036285,64.6696229 84.1073348,64.4820809 C84.0663779,64.2466547 84.0005363,64.0161647 83.9109003,63.7944272 L83.5402691,62.6912393 L81.3943145,62.6912393 L81.0941033,63.6730765 C80.9991685,63.9109332 80.9271907,64.1571893 80.8791372,64.4085351 C80.8791372,64.6475591 81.2497684,64.7063958 81.5722175,64.7063958 L81.72047,64.7063958 L81.72047,65.0741251 L81.6759942,65.0741251 C81.305363,65.0741251 80.8828435,65.0373522 80.4936807,65.0373522 C80.104518,65.0373522 79.7931878,65.0594159 79.4373819,65.0741251 L79.3966124,65.0741251 L79.3966124,64.7063958 L79.4929765,64.7063958 C79.8695121,64.7070785 80.2014887,64.4615427 80.3083651,64.1033198 L81.8761351,59.6427635 C82.0206328,59.2398726 82.144337,58.8299354 82.2467662,58.4145477 C82.556627,58.3017934 82.8555833,58.1614856 83.1399874,57.9953363 C83.1696663,57.9842705 83.2009596,57.9780609 83.2326452,57.9769498 C83.276303,57.9726894 83.3184047,57.9942956 83.3401282,58.0321092 C83.3697787,58.1093324 83.3957229,58.1975874 83.4290797,58.2748106 L85.2303473,63.3568293 C85.3489493,63.6951403 85.4638449,64.055515 85.6009785,64.3460211 C85.6944919,64.5924996 85.9451456,64.7441406 86.2088136,64.7137504 L86.308884,64.7137504 L86.308884,65.0814797 L86.249583,65.0888343 Z" id="形状" fill="#231815"></path>
                    <path d="M88.721693,64.0959652 C88.721693,64.4857582 88.9922538,64.5997543 89.3072903,64.6402045 C89.7375957,64.6784648 90.1704878,64.6784648 90.6007932,64.6402045 C90.9713667,64.5955062 91.3087666,64.4062951 91.53849,64.1143516 C91.6798165,63.9006784 91.7826515,63.6642677 91.8424076,63.415666 L92.1426189,63.415666 C92.0351358,63.9672599 91.8980023,64.5188539 91.7719877,65.0667705 C90.9121233,65.0667705 90.0485527,65.0299976 89.1775694,65.0299976 C88.3065861,65.0299976 87.4541344,65.0667705 86.5831511,65.0667705 L86.5831511,64.7762644 L86.7202846,64.7762644 C87.0909158,64.7762644 87.461547,64.7284596 87.461547,64.1253835 L87.461547,59.1132333 C87.461547,58.6057669 87.0909158,58.5579621 86.7202846,58.5579621 L86.5831511,58.5579621 L86.5831511,58.267456 C87.1020348,58.267456 87.6135058,58.3042289 88.1323895,58.3042289 C88.6512731,58.3042289 89.1182684,58.267456 89.6149142,58.267456 L89.6149142,58.5579621 L89.3702976,58.5579621 C88.9996664,58.5579621 88.7068678,58.5579621 88.7068678,59.083815 L88.721693,64.0959652 Z" id="路径" fill="#231815"></path>
                    <path d="M91.727512,65.0042565 C91.8424076,64.4784036 91.9721285,63.9635826 92.0759053,63.4377298 L91.8757644,63.4377298 C91.813996,63.6810736 91.711245,63.9123183 91.5718469,64.1217062 C91.3342373,64.4218448 90.9863592,64.6162421 90.6044995,64.6622683 C90.3450576,64.6880093 90.0930284,64.7027185 89.8632371,64.7027185 C89.6334458,64.7027185 89.4926059,64.7027185 89.3109966,64.6806547 C88.9922538,64.6475591 88.6846299,64.5114993 88.6846299,64.0959652 L88.6846299,59.083815 C88.6846299,58.543253 89.0293169,58.5138346 89.3962418,58.5138346 L89.5963826,58.5138346 L89.5963826,58.3079062 C89.1145621,58.3079062 88.6401542,58.3483564 88.150921,58.3483564 C87.6616879,58.3483564 87.1502168,58.3115835 86.6498647,58.3079062 L86.6498647,58.5138346 L86.7425225,58.5138346 C87.0909158,58.5138346 87.5171417,58.5763486 87.5171417,59.1132333 L87.5171417,64.1069971 C87.5171417,64.7358141 87.0946221,64.7983281 86.7425225,64.7983281 L86.6498647,64.7983281 L86.6498647,65.0042565 C87.4949038,65.0042565 88.3399429,64.9674836 89.1923946,64.9674836 C90.0448464,64.9674836 90.8935918,65.0042565 91.7386309,65.0042565 M91.775694,65.0888343 C90.9121233,65.0888343 90.0485527,65.0520613 89.1812757,65.0520613 C88.3139987,65.0520613 87.4578407,65.0888343 86.5868574,65.0888343 L86.546088,65.0888343 L86.546088,64.721105 L86.723991,64.721105 C87.0946221,64.721105 87.413365,64.6880093 87.4170713,64.1143516 L87.4170713,59.1132333 C87.4170713,58.6388626 87.0797969,58.6057669 86.723991,58.6020896 L86.546088,58.6020896 L86.546088,58.2343604 L86.5831511,58.2343604 C87.1020348,58.2343604 87.6135058,58.2748106 88.1286831,58.2748106 C88.6438605,58.2748106 89.1145621,58.2343604 89.6112079,58.2343604 L89.6519773,58.2343604 L89.6519773,58.6020896 L89.3665913,58.6020896 C88.9959601,58.6020896 88.7513435,58.6020896 88.7439309,59.083815 L88.7439309,64.0959652 C88.7439309,64.4636945 88.9848412,64.5556268 89.2924651,64.5997543 C89.4629554,64.5997543 89.6445647,64.6181408 89.8335866,64.6181408 C90.081145,64.6184549 90.3285569,64.6061811 90.574849,64.5813678 C90.9343791,64.5382931 91.2621407,64.3558664 91.4866017,64.0739014 C91.6245491,63.8633019 91.7248543,63.6306744 91.7831066,63.3862477 L91.7831066,63.353152 L92.1537378,63.353152 L92.1537378,63.4046341 C92.0425485,63.9599053 91.9091212,64.507822 91.7831066,65.0557386 L91.7831066,65.0888343 L91.775694,65.0888343 Z" id="形状" fill="#231815"></path>
                    <path d="M91.8424076,59.0176237 L91.9647159,59.0176237 C92.0981431,59.0176237 92.1574441,58.9183368 92.1574441,58.7565359 C92.1574441,58.5947351 92.0647863,58.5358984 91.9573033,58.5358984 L91.8424076,58.5358984 L91.8424076,59.0176237 Z M91.4940143,59.5545085 L91.4940143,59.5067037 C91.6200289,59.4883172 91.6459731,59.5067037 91.6459731,59.4147714 L91.6459731,58.657249 C91.6459731,58.5506075 91.6459731,58.5138346 91.4977206,58.5211892 L91.4977206,58.4697071 L92.0277232,58.4697071 C92.2093325,58.4697071 92.3761165,58.5579621 92.3761165,58.7418268 C92.374098,58.8877348 92.2739067,59.0142527 92.1314999,59.0507194 L92.3019903,59.2860661 C92.3640869,59.3782064 92.4403772,59.4601038 92.5280753,59.5287674 L92.5280753,59.572895 L92.3279345,59.572895 C92.2315704,59.572895 92.1463252,59.3743211 91.9573033,59.1058788 L91.8424076,59.1058788 L91.8424076,59.4441897 C91.8424076,59.510381 91.8646455,59.5067037 91.9943664,59.5250901 L91.9943664,59.572895 L91.4940143,59.5545085 Z M92.0054853,59.8450146 C92.3464885,59.8539973 92.6589178,59.6569082 92.7953896,59.3467211 C92.9318613,59.036534 92.8651101,58.6752206 92.6266248,58.4332248 C92.3881394,58.191229 92.0255665,58.1168987 91.7099441,58.2452982 C91.3943217,58.3736976 91.1887075,58.679174 91.1900877,59.0176237 C91.1879966,59.4682953 91.5513248,59.8369716 92.0054853,59.8450146 M92.0054853,58.0063682 C92.5740512,58.0063718 93.0351534,58.4633204 93.0358334,59.0274343 C93.0365119,59.5915481 92.5765116,60.0495885 92.0079473,60.0509431 C91.4393831,60.0522917 90.9771758,59.5964435 90.9751306,59.0323329 C90.9700793,58.7593648 91.0768893,58.4960478 91.2711132,58.3026514 C91.4653371,58.109255 91.7303468,58.0023366 92.0054853,58.0063682" id="形状" fill="#231815"></path>
                    <path d="M30.8513394,23.9693454 C30.8533867,14.8835207 38.2783246,7.51946082 47.4358494,7.52081461 C56.5933741,7.52216841 64.0160999,14.8884232 64.0154178,23.9742482 C64.0147357,33.0600732 56.5909039,40.425231 47.433379,40.425231 C43.0349066,40.425231 38.8166382,38.6913736 35.7067961,35.6051907 C32.596954,32.5190078 30.8503567,28.3333795 30.8513394,23.9693454 L30.8513394,23.9693454 Z" id="路径" fill="#FFFFFF"></path>
                    <path d="M47.4556169,40.7159274 C37.9526333,40.7598646 30.1323153,33.1221274 30.1323153,23.8222537 C30.1323153,13.6618935 37.9526333,6.63090956 47.4556169,6.63458541 L51.9031911,6.63458541 C61.2949854,6.63458541 69.8639784,13.6582162 69.8639784,23.8222537 C69.8639784,33.1184501 61.2949854,40.7159274 51.9031911,40.7159274 L47.4556169,40.7159274 Z M47.4963863,8.04298611 C38.812672,8.04908174 31.7775334,15.0373677 31.7816241,23.653093 C31.7857183,32.2688184 38.8274927,39.2505221 47.511209,39.2484934 C56.1949252,39.2464638 63.2333865,32.26147 63.2333865,23.6457436 C63.2333865,19.505724 61.5750321,15.5354298 58.6234521,12.6090286 C55.671872,9.68262732 51.6690755,8.04006283 47.4963863,8.04298611 Z M43.927208,32.8720715 L43.927208,14.4194158 C40.0756054,15.8841933 37.5327489,19.5531866 37.5327489,23.6457436 C37.5327489,27.7383007 40.0756054,31.407294 43.927208,32.8720715 L43.927208,32.8720715 Z M57.4626589,23.6457436 C57.4579163,19.5518878 54.9138052,15.8832595 51.0618583,14.4157386 L51.0618583,32.8757487 C54.9131238,31.40737 57.4568652,27.7392747 57.4626589,23.6457436 Z" id="形状" fill="#0E72B2"></path>
                </g>
            </g>
        </g>
    </g>
</svg>