<?xml version="1.0" encoding="UTF-8"?>
<svg width="120px" height="90px" viewBox="0 0 120 90" version="1.1" xmlns="http://www.w3.org/2000/svg" xmlns:xlink="http://www.w3.org/1999/xlink">
    <title>creditcard_mastercard</title>
    <g id="LOGO-+-SDK-+-payment-icon" stroke="none" stroke-width="1" fill="none" fill-rule="evenodd">
        <g id="payment" transform="translate(-568.000000, -555.000000)">
            <g id="creditcard_mastercard" transform="translate(568.000000, 555.000000)">
                <g id="payment-4:3bg" transform="translate(-20.000000, -15.000000)"></g>
                <g id="mastercard" transform="translate(10.000000, 14.000000)" fill-rule="nonzero">
                    <rect id="矩形" fill="#FF5F00" x="36" y="6" width="27" height="48"></rect>
                    <path d="M38.079102,30.4667146 C38.0896581,21.1038083 42.4529576,12.2644901 49.9142381,6.49070014 C37.2388758,-3.31863405 19.0605509,-1.85791103 8.15664308,9.84614025 C-2.74726476,21.5501915 -2.71504155,39.5671555 8.23066331,51.2330718 C19.1763682,62.8989881 37.3598045,64.2962475 50,54.4427291 C42.4419072,48.7382455 38.0289928,39.8627314 38.079102,30.4667146 Z" id="_Path_" fill="#EB001B"></path>
                    <path d="M99,30.5187373 C98.9868408,42.186337 92.2316764,52.8252119 81.5968292,57.9274198 C70.9619821,63.0296277 58.3092912,61.7019268 49,54.5068953 C62.3867519,44.0916089 64.7287373,24.9618636 54.2405498,11.7011717 C52.7151077,9.77221931 50.9550508,8.03565794 49,6.5305793 C55.4562023,1.5201139 63.6673558,-0.750529912 71.8223982,0.219463943 C79.9774405,1.1894578 87.4064196,5.3204025 92.4707904,11.7011717 C96.6951227,17.0893902 98.9911406,23.7066486 99,30.5187373 L99,30.5187373 Z" id="路径" fill="#F79E1B"></path>
                    <path d="M95.7,48.98 L95.7,48.14 L96.2,48.14 L96.2,48 L95,48 L95,48.14 L95.5,48.14 L95.5,48.98 L95.7,48.98 Z M98,48.98 L98,48 L97.7,48 L97.3,48.7 L96.9,48 L96.5,48 L96.5,48.98 L96.7,48.98 L96.7,48.21 L97.1,48.84 L97.4,48.84 L97.8,48.21 L97.8,48.98 L98,48.98 Z" id="形状" fill="#F79E1B"></path>
                </g>
            </g>
        </g>
    </g>
</svg>