<?xml version="1.0" encoding="UTF-8"?>
<svg width="120px" height="90px" viewBox="0 0 120 90" version="1.1" xmlns="http://www.w3.org/2000/svg" xmlns:xlink="http://www.w3.org/1999/xlink">
    <title>creditcard_amex</title>
    <g id="LOGO-+-SDK-+-payment-icon" stroke="none" stroke-width="1" fill="none" fill-rule="evenodd">
        <g id="payment" transform="translate(-918.000000, -555.000000)">
            <g id="creditcard_amex" transform="translate(918.000000, 555.000000)">
                <g id="payment-4:3bg" transform="translate(-20.000000, -15.000000)"></g>
                <g id="American_Express" transform="translate(19.000000, 4.000000)" fill-rule="nonzero">
                    <path d="M82,44.3786192 L82,0 L0,0 L0,82 L82,82 L82,58.0757238 C81.8173719,58.0757238 82,44.3786192 82,44.3786192" id="路径" fill="#006FCF"></path>
                    <path d="M71.9554566,39.4066572 L78.1648107,39.4066572 L78.1648107,25.0315789 L71.4075724,25.0315789 L71.4075724,27.0331721 L70.1291759,25.0315789 L64.285078,25.0315789 L64.285078,27.5790612 L63.1893095,25.0315789 L52.4142539,25.0315789 C52.0489978,25.0315789 51.6837417,25.213542 51.3184855,25.213542 C50.9532294,25.213542 50.7706013,25.395505 50.4053452,25.577468 C50.0400891,25.759431 49.8574611,25.759431 49.4922049,25.9413941 L49.4922049,25.0315789 L18.6280624,25.0315789 L17.714922,27.3970981 L16.8017817,25.0315789 L9.49665927,25.0315789 L9.49665927,27.5790612 L8.40089087,25.0315789 L2.55679287,25.0315789 L0,31.2183215 L0,39.4066572 L4.20044543,39.4066572 L4.93095769,37.405064 L6.39198218,37.405064 L7.12249443,39.4066572 L39.2650334,39.4066572 L39.2650334,37.587027 L40.5434299,39.4066572 L49.4922049,39.4066572 L49.4922049,38.3148791 C49.674833,38.4968421 50.0400891,38.4968421 50.2227171,38.6788051 C50.4053452,38.8607681 50.7706013,38.8607681 50.9532294,39.0427311 C51.3184855,39.2246941 51.6837417,39.2246941 52.0489978,39.2246941 L58.6236081,39.2246941 L59.3541202,37.223101 L60.8151448,37.223101 L61.545657,39.2246941 L70.4944321,39.2246941 L70.4944321,37.405064 L71.9554566,39.4066572 L71.9554566,39.4066572 Z M82,57.6029587 L82,44.1376956 L31.7772829,44.1376956 L30.4988864,45.9573257 L29.22049,44.1376956 L14.610245,44.1376956 L14.610245,58.5127738 L29.22049,58.5127738 L30.4988864,56.6931437 L31.7772829,58.5127738 L40.908686,58.5127738 L40.908686,55.4194026 L40.5434299,55.4194026 C41.8218263,55.4194026 42.9175947,55.2374395 43.8307349,54.8735135 L43.8307349,58.6947368 L50.4053452,58.6947368 L50.4053452,56.8751067 L51.6837417,58.6947368 L78.8953229,58.6947368 C79.9910913,58.3308108 81.0868597,58.1488478 82,57.6029587 L82,57.6029587 Z" id="形状" fill="#FFFFFF"></path>
                    <path d="M78.8953229,54.1221852 L73.9643653,54.1221852 L73.9643653,56.1052632 L78.7126948,56.1052632 C80.7216036,56.1052632 82,54.8433045 82,53.0405063 C82,51.2377082 80.9042316,50.3363091 79.077951,50.3363091 L76.8864142,50.3363091 C76.3385301,50.3363091 75.973274,49.9757495 75.973274,49.4349101 C75.973274,48.8940706 76.3385301,48.533511 76.8864142,48.533511 L81.0868597,48.533511 L82,46.550433 L77.0690423,46.550433 C75.0601336,46.550433 73.7817372,47.8123918 73.7817372,49.4349101 C73.7817372,51.2377082 74.8775055,52.1391073 76.7037862,52.1391073 L78.8953229,52.1391073 C79.4432071,52.1391073 79.8084633,52.4996669 79.8084633,53.0405063 C79.9910913,53.7616256 79.6258352,54.1221852 78.8953229,54.1221852 L78.8953229,54.1221852 Z M69.9465478,54.1221852 L65.0155902,54.1221852 L65.0155902,56.1052632 L69.7639199,56.1052632 C71.7728285,56.1052632 73.0512249,54.8433045 73.0512249,53.0405063 C73.0512249,51.2377082 71.9554566,50.3363091 70.1291759,50.3363091 L67.9376392,50.3363091 C67.389755,50.3363091 67.0244989,49.9757495 67.0244989,49.4349101 C67.0244989,48.8940706 67.389755,48.533511 67.9376392,48.533511 L72.1380846,48.533511 L73.0512249,46.550433 L68.1202672,46.550433 C66.1113586,46.550433 64.8329622,47.8123918 64.8329622,49.4349101 C64.8329622,51.2377082 65.9287305,52.1391073 67.7550111,52.1391073 L69.9465478,52.1391073 C70.4944321,52.1391073 70.8596882,52.4996669 70.8596882,53.0405063 C71.0423163,53.7616256 70.4944321,54.1221852 69.9465478,54.1221852 L69.9465478,54.1221852 Z M63.5545657,48.3532311 L63.5545657,46.3701532 L55.8841871,46.3701532 L55.8841871,55.9249833 L63.5545657,55.9249833 L63.5545657,53.9419054 L58.0757238,53.9419054 L58.0757238,51.9588274 L63.3719376,51.9588274 L63.3719376,49.9757495 L58.0757238,49.9757495 L58.0757238,48.1729514 L63.5545657,48.1729514 L63.5545657,48.3532311 L63.5545657,48.3532311 Z M51.1358575,48.3532311 C52.0489978,48.3532311 52.4142539,48.8940706 52.4142539,49.4349101 C52.4142539,49.9757495 52.0489978,50.516589 51.1358575,50.516589 L48.3964365,50.516589 L48.3964365,48.1729514 L51.1358575,48.3532311 L51.1358575,48.3532311 Z M48.3964365,52.4996669 L49.4922049,52.4996669 L52.4142539,55.9249833 L55.1536748,55.9249833 L51.8663697,52.3193871 C53.5100223,51.9588274 54.4231625,50.8771486 54.4231625,49.4349101 C54.4231625,47.6321119 53.1447661,46.3701532 51.1358575,46.3701532 L46.0222717,46.3701532 L46.0222717,55.9249833 L48.2138084,55.9249833 L48.3964365,52.4996669 Z M42.5523385,49.6151899 C42.5523385,50.3363091 42.1870824,50.8771486 41.2739421,50.8771486 L38.3518931,50.8771486 L38.3518931,48.3532311 L41.091314,48.3532311 C42.0044543,48.3532311 42.5523385,48.8940706 42.5523385,49.6151899 L42.5523385,49.6151899 Z M36.1603564,46.3701532 L36.1603564,55.9249833 L38.3518931,55.9249833 L38.3518931,52.6799467 L41.2739421,52.6799467 C43.2828507,52.6799467 44.7438753,51.417988 44.7438753,49.4349101 C44.7438753,47.6321119 43.4654788,46.1898734 41.4565701,46.1898734 L36.1603564,46.3701532 L36.1603564,46.3701532 Z M32.8730512,55.9249833 L35.6124722,55.9249833 L31.7772829,51.0574284 L35.6124722,46.3701532 L32.8730512,46.3701532 L30.4988864,49.4349101 L28.1247216,46.3701532 L25.3853007,46.3701532 L29.22049,51.0574284 L25.3853007,55.7447035 L28.1247216,55.7447035 L30.4988864,52.6799467 L32.8730512,55.9249833 L32.8730512,55.9249833 Z M24.6547884,48.3532311 L24.6547884,46.3701532 L16.9844098,46.3701532 L16.9844098,55.9249833 L24.6547884,55.9249833 L24.6547884,53.9419054 L19.1759465,53.9419054 L19.1759465,51.9588274 L24.4721604,51.9588274 L24.4721604,49.9757495 L19.1759465,49.9757495 L19.1759465,48.1729514 L24.6547884,48.1729514 L24.6547884,48.3532311 L24.6547884,48.3532311 Z M69.0334076,31.4069287 L72.8685969,37.1758828 L75.6080178,37.1758828 L75.6080178,27.6210526 L73.4164811,27.6210526 L73.4164811,33.9308461 L72.8685969,33.029447 L69.3986637,27.6210526 L66.4766147,27.6210526 L66.4766147,37.1758828 L68.6681514,37.1758828 L68.6681514,30.6858095 L69.0334076,31.4069287 L69.0334076,31.4069287 Z M59.5367483,31.2266489 L60.2672606,29.2435709 L60.9977728,31.2266489 L61.9109131,33.3900067 L58.6236081,33.3900067 L59.5367483,31.2266489 Z M63.3719376,37.1758828 L65.7461024,37.1758828 L61.545657,27.6210526 L58.6236081,27.6210526 L54.4231625,37.1758828 L56.7973274,37.1758828 L57.7104677,35.1928048 L62.4587973,35.1928048 L63.3719376,37.1758828 Z M53.1447661,37.1758828 L54.0579065,35.1928048 L53.5100223,35.1928048 C51.8663697,35.1928048 50.9532294,34.1111259 50.9532294,32.4886076 L50.9532294,32.3083277 C50.9532294,30.6858095 51.8663697,29.6041306 53.5100223,29.6041306 L55.8841871,29.6041306 L55.8841871,27.6210526 L53.3273942,27.6210526 C50.4053452,27.6210526 48.7616927,29.6041306 48.7616927,32.3083277 L48.7616927,32.4886076 C48.7616927,35.3730846 50.4053452,37.1758828 53.1447661,37.1758828 Z M44.9265034,37.1758828 L47.1180401,37.1758828 L47.1180401,27.8013325 L44.9265034,27.8013325 L44.9265034,37.1758828 Z M40.1781737,29.6041306 C41.091314,29.6041306 41.4565701,30.14497 41.4565701,30.6858095 C41.4565701,31.2266489 41.091314,31.7674884 40.1781737,31.7674884 L37.4387528,31.7674884 L37.4387528,29.4238508 L40.1781737,29.6041306 L40.1781737,29.6041306 Z M37.4387528,33.7505663 L38.5345212,33.7505663 L41.4565701,37.1758828 L44.1959911,37.1758828 L40.908686,33.5702865 C42.5523385,33.2097268 43.4654788,32.128048 43.4654788,30.6858095 C43.4654788,28.8830113 42.1870824,27.6210526 40.1781737,27.6210526 L35.064588,27.6210526 L35.064588,37.1758828 L37.2561247,37.1758828 L37.4387528,33.7505663 Z M33.4209354,29.6041306 L33.4209354,27.6210526 L25.7505568,27.6210526 L25.7505568,37.1758828 L33.4209354,37.1758828 L33.4209354,35.1928048 L27.9420935,35.1928048 L27.9420935,33.2097268 L33.2383073,33.2097268 L33.2383073,31.2266489 L27.9420935,31.2266489 L27.9420935,29.4238508 L33.4209354,29.4238508 L33.4209354,29.6041306 L33.4209354,29.6041306 Z M16.8017817,37.1758828 L18.8106905,37.1758828 L21.5501113,29.4238508 L21.5501113,37.1758828 L23.7416481,37.1758828 L23.7416481,27.6210526 L20.0890869,27.6210526 L17.8975501,34.1111259 L15.7060134,27.6210526 L12.0534522,27.6210526 L12.0534522,37.1758828 L14.2449889,37.1758828 L14.2449889,29.4238508 L16.8017817,37.1758828 Z M4.93095769,31.2266489 L5.66146993,29.2435709 L6.39198218,31.2266489 L7.30512249,33.3900067 L4.01781737,33.3900067 L4.93095769,31.2266489 L4.93095769,31.2266489 Z M8.76614699,37.1758828 L11.1403118,37.1758828 L6.93986637,27.6210526 L4.20044543,27.6210526 L0,37.1758828 L2.37416481,37.1758828 L3.28730512,35.1928048 L8.03563475,35.1928048 L8.76614699,37.1758828 Z" id="形状" fill="#006FCF"></path>
                </g>
            </g>
        </g>
    </g>
</svg>