<?xml version="1.0" encoding="UTF-8"?>
<svg width="120px" height="90px" viewBox="0 0 120 90" version="1.1" xmlns="http://www.w3.org/2000/svg" xmlns:xlink="http://www.w3.org/1999/xlink">
    <title>creditcard_visa</title>
    <defs>
        <linearGradient x1="0%" y1="49.9996731%" x2="100.00004%" y2="49.9996731%" id="linearGradient-1">
            <stop stop-color="#231F5D" offset="0%"></stop>
            <stop stop-color="#024DA1" offset="100%"></stop>
        </linearGradient>
    </defs>
    <g id="LOGO-+-SDK-+-payment-icon" stroke="none" stroke-width="1" fill="none" fill-rule="evenodd">
        <g id="payment" transform="translate(-568.000000, -355.000000)">
            <g id="creditcard_visa" transform="translate(568.000000, 355.000000)">
                <g id="payment-4:3bg" transform="translate(-20.000000, -15.000000)"></g>
                <g id="VISA" transform="translate(6.000000, 27.000000)" fill="url(#linearGradient-1)" fill-rule="nonzero">
                    <path d="M70.4643465,0 C61.9102892,0.0469984375 55.9007835,4.63505547 55.8522771,11.1885867 L55.8522771,11.1885867 C55.7954063,16.064918 60.1853418,18.7819188 63.4934755,20.402468 L63.4934755,20.402468 C66.8915137,22.0616211 68.0318559,23.1261844 68.0193147,24.6091016 L68.0193147,24.6091016 C67.9933892,26.881307 65.3066522,27.8825094 62.7955531,27.9215344 L62.7955531,27.9215344 C58.4081247,27.9903477 55.861898,26.7319281 53.8321041,25.783182 L53.8321041,25.783182 L52.2526812,33.2011148 C54.290002,34.1402086 58.0539343,34.9588805 61.9567016,35 L61.9567016,35 C71.1254718,35 77.1211745,30.4568414 77.1500259,23.4169742 L77.1500259,23.4169742 C77.1884982,14.4838148 64.8395578,13.9907688 64.9240292,9.99898047 L64.9240292,9.99898047 C64.9520486,8.78545938 66.1032624,7.494725 68.6256576,7.16364688 L68.6256576,7.16364688 C69.8747271,7.00083672 73.3233655,6.87411484 77.2290588,8.67845781 L77.2290588,8.67845781 L78.7624824,1.50012187 C76.6875324,0.744816406 74.0283961,0.0180414062 70.7231939,0 L70.7231939,0 L70.4643465,0 Z M93.506692,0.61893125 C91.8306753,0.61893125 90.4181014,1.59621328 89.7920982,3.10136641 L89.7920982,3.10136641 L76.6963102,34.4708656 L85.8592231,34.4708656 L87.6795135,29.4128406 L98.8738898,29.4128406 L99.9293473,34.4708656 L108,34.4708656 L100.954697,0.61893125 L93.506692,0.61893125 Z M94.7854506,9.76525703 L97.4291143,22.4757805 L90.1910314,22.4757805 L94.7854506,9.76525703 Z M44.7498992,0.61893125 L37.5306392,34.4708656 L46.2582349,34.4708656 L53.474569,0.61893125 L44.7498992,0.61893125 Z M31.838108,0.61893125 L22.7550655,23.6586766 L19.080619,4.06941719 C18.6503216,1.88196641 16.9471231,0.61893125 15.0557455,0.61893125 L15.0557455,0.61893125 L0.20574,0.61893125 L0,1.60040781 C3.04761122,2.26591641 6.51172224,3.33802656 8.60925857,4.48105547 L8.60925857,4.48105547 C9.89386898,5.18097344 10.2601873,5.79151016 10.682539,7.45486328 L10.682539,7.45486328 L17.6408633,34.4708656 L26.8652424,34.4708656 L41.0043655,0.61893125 L31.838108,0.61893125 Z"></path>
                </g>
            </g>
        </g>
    </g>
</svg>