<svg width="360" height="270" viewBox="0 0 360 270" fill="none" xmlns="http://www.w3.org/2000/svg">
<path d="M34.2733 49.5165V220.485C34.2733 224.083 37.2177 227.028 40.8163 227.028H222.319C273.125 227.028 314.346 185.839 314.346 135.001C314.346 84.1943 273.157 42.9735 222.319 42.9735H40.8163C37.2177 42.9735 34.2733 45.9179 34.2733 49.5165Z" fill="white"/>
<path d="M56.4218 114.294H44.8408V154.795H56.3891C62.5068 154.795 66.956 153.356 70.8491 150.117C75.4619 146.289 78.21 140.531 78.21 134.577C78.21 122.636 69.2788 114.294 56.4545 114.294H56.4218ZM65.6474 144.719C63.1611 146.943 59.955 147.925 54.8515 147.925H52.725V121.131H54.8515C59.955 121.131 63.063 122.047 65.6474 124.403C68.3955 126.824 70.0312 130.619 70.0312 134.479C70.0312 138.339 68.3955 142.265 65.6474 144.686V144.719Z" fill="#261F20"/>
<path d="M89.6569 114.294H81.7726V154.795H89.6569V114.294Z" fill="#261F20"/>
<path d="M108.993 129.83C104.249 128.063 102.875 126.918 102.875 124.726C102.875 122.174 105.361 120.244 108.764 120.244C111.119 120.244 113.082 121.226 115.143 123.516L119.265 118.118C115.863 115.141 111.806 113.636 107.357 113.636C100.192 113.636 94.7289 118.609 94.7289 125.25C94.7289 130.844 97.2807 133.69 104.707 136.34C107.782 137.42 109.385 138.172 110.17 138.63C111.741 139.644 112.526 141.116 112.526 142.818C112.526 146.089 109.909 148.543 106.375 148.543C102.613 148.543 99.5708 146.645 97.7387 143.145L92.6352 148.052C96.2665 153.384 100.65 155.773 106.67 155.773C114.881 155.773 120.639 150.309 120.639 142.49C120.639 136.046 117.989 133.134 108.993 129.862V129.83Z" fill="#261F20"/>
<path d="M123.127 134.572C123.127 146.48 132.483 155.706 144.489 155.706C147.892 155.706 150.803 155.052 154.402 153.35V144.059C151.229 147.233 148.448 148.509 144.849 148.509C136.899 148.509 131.24 142.751 131.24 134.539C131.24 126.753 137.063 120.636 144.489 120.636C148.252 120.636 151.098 121.977 154.402 125.183V115.892C150.934 114.125 148.088 113.406 144.686 113.406C132.712 113.406 123.127 122.827 123.127 134.605V134.572Z" fill="#261F20"/>
<path d="M217.05 141.513L206.254 114.294H197.617L214.793 155.842H219.045L236.548 114.294H227.977L217.05 141.513Z" fill="#261F20"/>
<path d="M240.121 154.795H262.53V147.958H248.038V137.031H262.007V130.161H248.038V121.164H262.53V114.294H240.121V154.795Z" fill="#261F20"/>
<path d="M293.803 126.267C293.803 118.677 288.569 114.326 279.474 114.326H267.762V154.827H275.646V138.567H276.693L287.62 154.827H297.336L284.578 137.75C290.532 136.539 293.803 132.482 293.803 126.267ZM277.969 132.94H275.646V120.672H278.067C282.975 120.672 285.657 122.733 285.657 126.692C285.657 130.65 282.975 132.94 277.936 132.94H277.969Z" fill="#261F20"/>
<path d="M300.114 116.416C300.114 115.696 299.623 115.303 298.772 115.303H297.627V118.869H298.478V117.495L299.492 118.869H300.539L299.361 117.397C299.852 117.266 300.146 116.906 300.146 116.416H300.114ZM298.609 116.906H298.478V115.958H298.641C299.067 115.958 299.296 116.121 299.296 116.416C299.296 116.71 299.067 116.906 298.641 116.906H298.609Z" fill="#261F20"/>
<path d="M298.908 113.994C297.174 113.994 295.8 115.368 295.8 117.101C295.8 118.835 297.206 120.209 298.908 120.209C300.609 120.209 301.983 118.803 301.983 117.101C301.983 115.4 300.609 113.994 298.908 113.994ZM298.908 119.653C297.534 119.653 296.421 118.508 296.421 117.101C296.421 115.695 297.534 114.55 298.908 114.55C300.282 114.55 301.361 115.727 301.361 117.101C301.361 118.475 300.249 119.653 298.908 119.653Z" fill="#261F20"/>
<path d="M199.876 134.508C199.876 146.351 190.291 155.969 178.415 155.969C166.54 155.969 156.954 146.384 156.954 134.508C156.954 122.633 166.54 113.047 178.415 113.047C190.291 113.047 199.876 122.633 199.876 134.508Z" fill="url(#paint0_linear_2812_87301)"/>
<path style="mix-blend-mode:multiply" opacity="0.65" d="M199.876 134.508C199.876 146.351 190.291 155.969 178.415 155.969C166.54 155.969 156.954 146.384 156.954 134.508C156.954 122.633 166.54 113.047 178.415 113.047C190.291 113.047 199.876 122.633 199.876 134.508Z" fill="url(#paint1_linear_2812_87301)"/>
<g style="mix-blend-mode:multiply" opacity="0.5">
<mask id="mask0_2812_87301" style="mask-type:luminance" maskUnits="userSpaceOnUse" x="156" y="113" width="44" height="43">
<path d="M199.878 134.507C199.878 146.35 190.26 155.968 178.417 155.968C166.574 155.968 156.956 146.383 156.956 134.507C156.956 122.632 166.541 113.046 178.417 113.046C190.292 113.046 199.878 122.632 199.878 134.507Z" fill="white"/>
</mask>
<g mask="url(#mask0_2812_87301)">
<path d="M178.511 112.753C190.583 112.753 200.398 122.535 200.398 134.606C200.398 146.678 190.583 156.493 178.511 156.493C166.439 156.493 156.625 146.711 156.625 134.606C156.625 122.535 166.407 112.72 178.511 112.72V112.753Z" fill="#020000"/>
<path d="M178.549 112.784C190.621 112.784 200.436 122.533 200.436 134.605C200.436 146.677 190.621 156.524 178.549 156.524C166.478 156.524 156.663 146.742 156.663 134.67C156.663 122.599 166.478 112.784 178.549 112.784Z" fill="#030100"/>
<path d="M178.542 112.816C190.614 112.816 200.461 122.565 200.461 134.637C200.461 146.708 190.647 156.556 178.542 156.556C166.438 156.556 156.656 146.774 156.689 134.702C156.689 122.63 166.503 112.816 178.542 112.849V112.816Z" fill="#050100"/>
<path d="M178.58 112.848C190.652 112.848 200.499 122.564 200.499 134.636C200.499 146.708 190.652 156.555 178.58 156.555C166.509 156.555 156.694 146.773 156.727 134.701C156.727 122.629 166.541 112.815 178.58 112.848Z" fill="#070200"/>
<path d="M178.607 112.886C190.679 112.886 200.526 122.57 200.526 134.642C200.526 146.714 190.679 156.594 178.607 156.594C166.535 156.594 156.72 146.812 156.753 134.74C156.753 122.668 166.568 112.854 178.607 112.886Z" fill="#080200"/>
<path d="M178.645 112.918C190.717 112.918 200.564 122.602 200.564 134.674C200.564 146.745 190.717 156.625 178.645 156.625C166.573 156.625 156.759 146.844 156.791 134.772C156.791 122.7 166.606 112.885 178.645 112.918Z" fill="#0A0300"/>
<path d="M178.645 112.95C190.717 112.95 200.597 122.601 200.597 134.673C200.597 146.745 190.717 156.657 178.645 156.657C166.573 156.657 156.759 146.875 156.791 134.804C156.791 122.732 166.606 112.917 178.645 112.95Z" fill="#0C0300"/>
<path d="M178.67 112.983C190.742 112.983 200.622 122.634 200.622 134.673C200.622 146.712 190.742 156.657 178.67 156.657C166.599 156.657 156.784 146.875 156.817 134.804C156.817 122.732 166.631 112.917 178.67 112.95V112.983Z" fill="#0E0400"/>
<path d="M178.709 113.014C190.78 113.047 200.66 122.632 200.66 134.704C200.66 146.776 190.748 156.721 178.709 156.721C166.669 156.721 156.822 146.939 156.855 134.868C156.855 122.796 166.669 112.981 178.709 113.014Z" fill="#0F0400"/>
<path d="M178.709 113.079C190.78 113.111 200.66 122.664 200.66 134.736C200.66 146.808 190.748 156.753 178.709 156.753C166.669 156.753 156.822 146.971 156.855 134.899C156.888 122.828 166.669 113.013 178.709 113.046V113.079Z" fill="#110500"/>
<path d="M178.74 113.11C190.811 113.143 200.724 122.695 200.724 134.734C200.724 146.773 190.811 156.784 178.74 156.784C166.668 156.784 156.853 147.002 156.919 134.963C156.952 122.892 166.733 113.077 178.74 113.143V113.11Z" fill="#130500"/>
<path d="M178.779 113.148C190.818 113.181 200.763 122.701 200.763 134.773C200.763 146.844 190.818 156.822 178.779 156.822C166.74 156.822 156.892 147.041 156.958 135.002C156.991 122.93 166.772 113.115 178.779 113.181V113.148Z" fill="#140600"/>
<path d="M178.804 113.18C190.843 113.213 200.789 122.7 200.789 134.772C200.789 146.844 190.843 156.822 178.804 156.822C166.765 156.822 156.918 147.04 156.983 135.001C157.016 122.929 166.831 113.115 178.804 113.18Z" fill="#160600"/>
<path d="M178.804 113.212C190.843 113.278 200.821 122.732 200.821 134.771C200.821 146.811 190.876 156.854 178.804 156.854C166.732 156.854 156.95 147.072 156.983 135.033C157.016 122.961 166.83 113.147 178.804 113.212Z" fill="#180600"/>
<path d="M178.842 113.244C190.881 113.31 200.859 122.732 200.859 134.803C200.859 146.875 190.881 156.886 178.842 156.886C166.803 156.886 156.989 147.104 157.021 135.065C157.087 122.993 166.868 113.179 178.842 113.244Z" fill="#190700"/>
<path d="M178.868 113.276C190.907 113.342 200.885 122.763 200.885 134.802C200.885 146.842 190.907 156.918 178.868 156.918C166.829 156.918 157.014 147.136 157.047 135.097C157.112 123.025 166.894 113.211 178.868 113.276Z" fill="#1B0700"/>
<path d="M178.868 113.309C190.907 113.374 200.885 122.763 200.885 134.802C200.885 146.842 190.907 156.918 178.868 156.918C166.829 156.918 157.014 147.169 157.047 135.097C157.112 123.025 166.894 113.211 178.868 113.276V113.309Z" fill="#1D0800"/>
<path d="M178.906 113.34C190.945 113.406 200.956 122.762 200.956 134.834C200.956 146.906 190.945 156.982 178.906 156.982C166.867 156.982 157.052 147.233 157.085 135.161C157.15 123.057 166.932 113.275 178.906 113.34Z" fill="#1F0800"/>
<path d="M178.938 113.41C190.977 113.476 200.988 122.832 200.988 134.871C200.988 146.91 190.977 157.019 178.938 157.019C166.899 157.019 157.084 147.27 157.15 135.231C157.215 123.126 166.997 113.345 178.938 113.443V113.41Z" fill="#200900"/>
<path d="M178.963 113.442C191.002 113.507 201.013 122.831 201.013 134.87C201.013 146.909 191.002 157.051 178.963 157.051C166.924 157.051 157.11 147.302 157.175 135.263C157.241 123.158 167.022 113.377 178.963 113.475V113.442Z" fill="#220900"/>
<path d="M178.963 113.475C191.002 113.54 201.013 122.864 201.013 134.87C201.013 146.877 190.97 157.051 178.963 157.051C166.957 157.051 157.11 147.302 157.175 135.263C157.241 123.158 167.022 113.376 178.963 113.475Z" fill="#240A00"/>
<path d="M179.001 113.507C191.04 113.605 201.084 122.863 201.084 134.902C201.084 146.941 191.04 157.083 179.001 157.083C166.962 157.083 157.148 147.334 157.213 135.295C157.279 123.19 167.06 113.409 179.001 113.507Z" fill="#250A00"/>
<path d="M179.04 113.539C191.079 113.637 201.122 122.862 201.122 134.902C201.122 146.941 191.079 157.115 179.04 157.115C167 157.115 157.186 147.366 157.251 135.327C157.317 123.222 167.131 113.441 179.04 113.539Z" fill="#270B00"/>
<path d="M179.04 113.571C191.079 113.669 201.122 122.895 201.122 134.901C201.122 146.907 191.046 157.115 179.04 157.115C167.033 157.115 157.186 147.365 157.251 135.326C157.317 123.222 167.131 113.473 179.04 113.538V113.571Z" fill="#290B00"/>
<path d="M179.065 113.602C191.104 113.7 201.18 122.893 201.18 134.932C201.18 146.971 191.104 157.179 179.065 157.179C167.026 157.179 157.212 147.429 157.277 135.39C157.375 123.286 167.157 113.537 179.065 113.602Z" fill="#2A0C00"/>
<path d="M179.103 113.635C191.142 113.733 201.218 122.893 201.218 134.932C201.218 146.971 191.142 157.179 179.103 157.179C167.064 157.179 157.25 147.429 157.315 135.39C157.413 123.286 167.195 113.537 179.103 113.602V113.635Z" fill="#2C0C00"/>
<path d="M179.129 113.666C191.135 113.764 201.244 122.924 201.244 134.931C201.244 146.937 191.135 157.21 179.129 157.21C167.122 157.21 157.275 147.46 157.341 135.454C157.439 123.35 167.22 113.601 179.129 113.666Z" fill="#2E0D00"/>
<path d="M179.135 113.704C191.142 113.802 201.251 122.93 201.251 134.969C201.251 147.008 191.142 157.248 179.135 157.248C167.129 157.248 157.282 147.499 157.38 135.492C157.478 123.388 167.26 113.639 179.135 113.737V113.704Z" fill="#300D00"/>
<path d="M179.161 113.768C191.167 113.866 201.309 122.993 201.309 135C201.309 147.006 191.2 157.311 179.161 157.311C167.122 157.311 157.307 147.562 157.405 135.556C157.504 123.451 167.285 113.702 179.161 113.801V113.768Z" fill="#310D00"/>
<path d="M179.199 113.8C191.205 113.898 201.347 122.993 201.347 135C201.347 147.006 191.205 157.311 179.199 157.311C167.193 157.311 157.345 147.562 157.444 135.556C157.542 123.451 167.324 113.702 179.199 113.8Z" fill="#330E00"/>
<path d="M179.199 113.833C191.205 113.964 201.347 122.993 201.347 135.032C201.347 147.071 191.205 157.343 179.199 157.343C167.193 157.343 157.345 147.594 157.444 135.588C157.542 123.484 167.324 113.734 179.199 113.833Z" fill="#350E00"/>
<path d="M179.237 113.865C191.244 113.995 201.418 123.025 201.418 135.031C201.418 147.037 191.276 157.375 179.237 157.375C167.198 157.375 157.384 147.626 157.482 135.62C157.58 123.515 167.362 113.766 179.237 113.865Z" fill="#360F00"/>
<path d="M179.263 113.897C191.269 114.028 201.443 123.025 201.443 135.031C201.443 147.037 191.269 157.375 179.263 157.375C167.256 157.375 157.409 147.626 157.507 135.62C157.605 123.515 167.387 113.766 179.263 113.865V113.897Z" fill="#380F00"/>
<path d="M179.301 113.928C191.307 114.059 201.481 123.056 201.481 135.062C201.481 147.069 191.307 157.439 179.301 157.439C167.294 157.439 157.447 147.69 157.545 135.684C157.644 123.579 167.458 113.83 179.301 113.928Z" fill="#3A1000"/>
<path d="M179.301 113.961C191.307 114.092 201.481 123.056 201.481 135.062C201.481 147.069 191.307 157.439 179.301 157.439C167.294 157.439 157.447 147.69 157.545 135.684C157.676 123.579 167.458 113.83 179.301 113.928V113.961Z" fill="#3B1000"/>
<path d="M179.333 113.998C191.34 114.129 201.547 123.06 201.547 135.066C201.547 147.073 191.34 157.476 179.333 157.476C167.327 157.476 157.48 147.727 157.61 135.753C157.741 123.649 167.523 113.9 179.333 114.031V113.998Z" fill="#3D1100"/>
<path d="M179.359 114.03C191.365 114.161 201.572 123.092 201.572 135.098C201.572 147.105 191.365 157.508 179.359 157.508C167.352 157.508 157.505 147.792 157.636 135.785C157.767 123.681 167.549 113.932 179.359 114.063V114.03Z" fill="#3F1100"/>
<path d="M179.359 114.063C191.365 114.194 201.572 123.093 201.572 135.099C201.572 147.105 191.365 157.509 179.359 157.509C167.352 157.509 157.505 147.792 157.636 135.786C157.767 123.681 167.549 113.932 179.359 114.063Z" fill="#411200"/>
<path d="M179.397 114.127C191.403 114.258 201.61 123.124 201.61 135.13C201.61 147.136 191.37 157.573 179.397 157.573C167.423 157.573 157.543 147.856 157.674 135.85C157.805 123.745 167.587 113.996 179.397 114.127Z" fill="#421200"/>
<path d="M179.422 114.159C191.429 114.322 201.668 123.156 201.668 135.162C201.668 147.168 191.429 157.604 179.422 157.604C167.416 157.604 157.569 147.888 157.7 135.882C157.83 123.777 167.612 114.028 179.422 114.159Z" fill="#441300"/>
<path d="M179.46 114.191C191.467 114.354 201.707 123.155 201.707 135.161C201.707 147.167 191.467 157.636 179.46 157.636C167.454 157.636 157.607 147.92 157.738 135.913C157.869 123.809 167.65 114.06 179.46 114.191Z" fill="#461300"/>
<path d="M179.46 114.223C191.434 114.387 201.707 123.187 201.707 135.161C201.707 147.135 191.434 157.636 179.46 157.636C167.487 157.636 157.607 147.92 157.738 135.913C157.869 123.809 167.65 114.06 179.46 114.191V114.223Z" fill="#471300"/>
<path d="M179.487 114.255C191.46 114.418 201.766 123.186 201.766 135.192C201.766 147.199 191.493 157.7 179.487 157.7C167.48 157.7 157.633 147.984 157.764 135.978C157.895 123.873 167.677 114.124 179.487 114.255Z" fill="#491400"/>
<path d="M179.525 114.292C191.499 114.455 201.804 123.19 201.804 135.197C201.804 147.203 191.531 157.704 179.525 157.704C167.519 157.704 157.671 147.988 157.802 136.014C157.966 123.91 167.715 114.161 179.525 114.324V114.292Z" fill="#4B1400"/>
<path d="M179.531 114.324C191.505 114.488 201.81 123.222 201.81 135.196C201.81 147.17 191.505 157.737 179.531 157.737C167.557 157.737 157.678 148.02 157.841 136.047C158.005 123.942 167.786 114.193 179.531 114.357V114.324Z" fill="#4C1500"/>
<path d="M179.557 114.358C191.53 114.521 201.835 123.223 201.835 135.197C201.835 147.171 191.53 157.738 179.557 157.738C167.583 157.738 157.703 148.021 157.867 136.048C158.03 123.943 167.812 114.194 179.557 114.358Z" fill="#4E1500"/>
<path d="M179.595 114.39C191.568 114.553 201.906 123.255 201.906 135.229C201.906 147.203 191.601 157.77 179.595 157.77C167.588 157.77 157.741 148.053 157.905 136.08C158.068 123.975 167.85 114.226 179.595 114.39Z" fill="#501600"/>
<path d="M179.62 114.454C191.594 114.617 201.932 123.287 201.932 135.26C201.932 147.234 191.594 157.834 179.62 157.834C167.647 157.834 157.767 148.117 157.93 136.144C158.094 124.039 167.876 114.29 179.62 114.454Z" fill="#521600"/>
<path d="M179.62 114.486C191.594 114.683 201.932 123.287 201.932 135.26C201.932 147.234 191.594 157.834 179.62 157.834C167.647 157.834 157.767 148.117 157.93 136.144C158.094 124.039 167.876 114.29 179.62 114.454V114.486Z" fill="#531700"/>
<path d="M179.659 114.517C191.633 114.714 201.971 123.318 201.971 135.291C201.971 147.265 191.633 157.897 179.659 157.897C167.686 157.897 157.806 148.181 157.969 136.207C158.133 124.103 167.915 114.354 179.659 114.517Z" fill="#551700"/>
<path d="M179.685 114.55C191.658 114.746 202.029 123.318 202.029 135.291C202.029 147.265 191.658 157.897 179.685 157.897C167.711 157.897 157.831 148.181 157.995 136.207C158.158 124.103 167.94 114.354 179.685 114.517V114.55Z" fill="#571800"/>
<path d="M179.685 114.582C191.658 114.779 202.029 123.317 202.029 135.291C202.029 147.264 191.658 157.929 179.685 157.929C167.711 157.929 157.831 148.213 157.995 136.239C158.158 124.135 167.94 114.386 179.685 114.55V114.582Z" fill="#581800"/>
<path d="M179.716 114.618C191.69 114.814 202.061 123.352 202.061 135.326C202.061 147.3 191.69 157.965 179.716 157.965C167.743 157.965 157.863 148.248 158.059 136.308C158.223 124.203 168.004 114.454 179.716 114.65V114.618Z" fill="#5A1900"/>
<path d="M179.755 114.65C191.728 114.846 202.132 123.352 202.132 135.326C202.132 147.299 191.728 157.997 179.755 157.997C167.781 157.997 157.901 148.281 158.097 136.34C158.294 124.235 168.043 114.486 179.755 114.683V114.65Z" fill="#5C1900"/>
<path d="M179.793 114.685C191.766 114.881 202.17 123.387 202.17 135.328C202.17 147.269 191.766 157.999 179.793 157.999C167.819 157.999 157.939 148.283 158.136 136.342C158.332 124.237 168.114 114.488 179.793 114.685Z" fill="#5E1A00"/>
<path d="M179.793 114.716C191.766 114.913 202.17 123.386 202.17 135.359C202.17 147.333 191.766 158.031 179.793 158.031C167.819 158.031 157.939 148.347 158.136 136.374C158.332 124.269 168.114 114.52 179.793 114.716Z" fill="#5F1A00"/>
<path d="M179.818 114.749C191.759 114.945 202.195 123.385 202.195 135.359C202.195 147.333 191.759 158.063 179.818 158.063C167.877 158.063 157.965 148.379 158.161 136.406C158.357 124.301 168.139 114.552 179.818 114.749Z" fill="#611A00"/>
<path d="M179.857 114.813C191.798 115.042 202.267 123.45 202.267 135.391C202.267 147.332 191.831 158.095 179.857 158.095C167.884 158.095 158.004 148.411 158.2 136.438C158.396 124.333 168.178 114.584 179.857 114.78V114.813Z" fill="#631B00"/>
<path d="M179.857 114.844C191.798 115.073 202.267 123.448 202.267 135.422C202.267 147.396 191.798 158.159 179.857 158.159C167.916 158.159 158.004 148.475 158.2 136.502C158.396 124.397 168.178 114.648 179.857 114.844Z" fill="#641B00"/>
<path d="M179.883 114.877C191.824 115.106 202.292 123.481 202.292 135.422C202.292 147.363 191.824 158.159 179.883 158.159C167.942 158.159 158.029 148.475 158.225 136.502C158.422 124.397 168.203 114.648 179.883 114.844V114.877Z" fill="#661C00"/>
<path d="M179.915 114.911C191.856 115.141 202.324 123.483 202.324 135.424C202.324 147.365 191.856 158.193 179.915 158.193C167.974 158.193 158.061 148.51 158.29 136.569C158.486 124.464 168.268 114.715 179.915 114.944V114.911Z" fill="#681C00"/>
<path d="M179.953 114.944C191.894 115.173 202.395 123.482 202.395 135.456C202.395 147.43 191.894 158.226 179.953 158.226C168.012 158.226 158.099 148.542 158.328 136.601C158.525 124.497 168.306 114.748 179.953 114.977V114.944Z" fill="#691D00"/>
<path d="M179.953 114.976C191.894 115.205 202.395 123.514 202.395 135.455C202.395 147.396 191.894 158.258 179.953 158.258C168.012 158.258 158.099 148.574 158.328 136.633C158.525 124.528 168.306 114.779 179.953 115.008V114.976Z" fill="#6B1D00"/>
<path d="M179.978 115.011C191.919 115.24 202.421 123.517 202.421 135.458C202.421 147.399 191.919 158.26 179.978 158.26C168.037 158.26 158.125 148.577 158.354 136.636C158.583 124.531 168.332 114.782 179.978 115.011Z" fill="#6D1E00"/>
<path d="M180.017 115.044C191.958 115.273 202.493 123.517 202.493 135.49C202.493 147.464 191.958 158.293 180.017 158.293C168.076 158.293 158.164 148.609 158.393 136.668C158.622 124.564 168.371 114.815 180.017 115.044Z" fill="#6F1E00"/>
<path d="M180.017 115.075C191.958 115.337 202.493 123.549 202.493 135.489C202.493 147.43 191.958 158.324 180.017 158.324C168.076 158.324 158.164 148.641 158.393 136.7C158.622 124.595 168.404 114.846 180.017 115.075Z" fill="#701F00"/>
<path d="M180.054 115.108C191.995 115.37 202.53 123.549 202.53 135.489C202.53 147.43 191.995 158.324 180.054 158.324C168.114 158.324 158.234 148.641 158.43 136.7C158.659 124.595 168.441 114.846 180.054 115.075V115.108Z" fill="#721F00"/>
<path d="M180.08 115.171C192.021 115.433 202.555 123.612 202.555 135.553C202.555 147.494 191.988 158.42 180.08 158.42C168.172 158.42 158.259 148.737 158.455 136.796C158.684 124.691 168.466 114.942 180.08 115.171Z" fill="#742000"/>
<path d="M180.118 115.204C192.059 115.466 202.626 123.612 202.626 135.553C202.626 147.494 192.059 158.421 180.118 158.421C168.177 158.421 158.297 148.737 158.494 136.796C158.723 124.692 168.504 114.943 180.118 115.204Z" fill="#752000"/>
<path d="M180.112 115.237C192.053 115.499 202.62 123.612 202.62 135.553C202.62 147.494 192.053 158.454 180.112 158.454C168.171 158.454 158.291 148.77 158.52 136.862C158.749 124.757 168.531 115.008 180.112 115.27V115.237Z" fill="#772000"/>
<path d="M180.15 115.275C192.091 115.536 202.658 123.65 202.658 135.558C202.658 147.466 192.058 158.458 180.15 158.458C168.242 158.458 158.329 148.775 158.558 136.867C158.787 124.762 168.569 115.013 180.15 115.275Z" fill="#792100"/>
<path d="M180.176 115.307C192.084 115.568 202.716 123.649 202.716 135.59C202.716 147.531 192.117 158.49 180.176 158.49C168.235 158.49 158.355 148.807 158.584 136.898C158.813 124.794 168.594 115.045 180.176 115.307Z" fill="#7A2100"/>
<path d="M180.176 115.338C192.084 115.6 202.716 123.681 202.716 135.589C202.716 147.497 192.117 158.522 180.176 158.522C168.235 158.522 158.355 148.838 158.584 136.93C158.845 124.826 168.594 115.077 180.176 115.338Z" fill="#7C2200"/>
<path d="M180.215 115.371C192.123 115.633 202.755 123.681 202.755 135.589C202.755 147.497 192.123 158.522 180.215 158.522C168.306 158.522 158.394 148.838 158.623 136.93C158.884 124.826 168.633 115.077 180.215 115.338V115.371Z" fill="#7E2200"/>
<path d="M180.24 115.402C192.148 115.697 202.781 123.679 202.781 135.62C202.781 147.561 192.148 158.586 180.24 158.586C168.332 158.586 158.419 148.935 158.648 136.994C158.91 124.89 168.659 115.141 180.24 115.402Z" fill="#802300"/>
<path d="M180.278 115.435C192.186 115.73 202.851 123.712 202.851 135.62C202.851 147.529 192.219 158.586 180.278 158.586C168.337 158.586 158.457 148.935 158.686 136.994C158.948 124.89 168.697 115.141 180.278 115.402V115.435Z" fill="#812300"/>
<path d="M180.278 115.499C192.186 115.794 202.851 123.743 202.851 135.652C202.851 147.56 192.186 158.65 180.278 158.65C168.37 158.65 158.457 148.999 158.686 137.058C158.948 124.954 168.73 115.205 180.278 115.466V115.499Z" fill="#832400"/>
<path d="M180.31 115.531C192.219 115.826 202.884 123.776 202.884 135.684C202.884 147.592 192.219 158.682 180.31 158.682C168.402 158.682 158.489 149.031 158.751 137.123C159.013 125.019 168.795 115.27 180.31 115.564V115.531Z" fill="#852400"/>
<path d="M180.348 115.564C192.257 115.858 202.922 123.775 202.922 135.683C202.922 147.591 192.257 158.715 180.348 158.715C168.44 158.715 158.528 149.064 158.789 137.155C159.051 125.051 168.833 115.302 180.348 115.596V115.564Z" fill="#862500"/>
<path d="M180.348 115.602C192.257 115.896 202.954 123.781 202.954 135.689C202.954 147.597 192.257 158.72 180.348 158.72C168.44 158.72 158.528 149.069 158.789 137.161C159.051 125.056 168.833 115.307 180.348 115.602Z" fill="#882500"/>
<path d="M180.375 115.634C192.283 115.928 202.981 123.812 202.981 135.721C202.981 147.629 192.283 158.752 180.375 158.752C168.467 158.752 158.554 149.101 158.816 137.193C159.077 125.088 168.859 115.339 180.375 115.634Z" fill="#8A2600"/>
<path d="M180.413 115.666C192.321 115.96 203.019 123.812 203.019 135.72C203.019 147.628 192.321 158.784 180.413 158.784C168.505 158.784 158.592 149.133 158.854 137.225C159.116 125.121 168.897 115.371 180.413 115.666Z" fill="#8B2600"/>
<path d="M180.438 115.699C192.347 115.993 203.077 123.812 203.077 135.72C203.077 147.628 192.347 158.784 180.438 158.784C168.53 158.784 158.618 149.133 158.879 137.225C159.174 125.121 168.923 115.371 180.438 115.666V115.699Z" fill="#8D2600"/>
<path d="M180.438 115.73C192.347 116.057 203.077 123.843 203.077 135.751C203.077 147.659 192.347 158.848 180.438 158.848C168.53 158.848 158.618 149.197 158.879 137.289C159.174 125.184 168.923 115.435 180.438 115.73Z" fill="#8F2700"/>
<path d="M180.477 115.762C192.385 116.09 203.115 123.843 203.115 135.751C203.115 147.659 192.385 158.848 180.477 158.848C168.568 158.848 158.656 149.197 158.917 137.289C159.212 125.184 168.961 115.435 180.477 115.73V115.762Z" fill="#912700"/>
<path d="M180.509 115.793C192.384 116.121 203.148 123.874 203.148 135.75C203.148 147.625 192.384 158.879 180.509 158.879C168.633 158.879 158.688 149.228 158.982 137.353C159.277 125.248 169.026 115.499 180.509 115.826V115.793Z" fill="#922800"/>
<path d="M180.509 115.864C192.384 116.191 203.18 123.912 203.18 135.82C203.18 147.728 192.417 158.949 180.509 158.949C168.601 158.949 158.688 149.299 158.982 137.423C159.277 125.318 169.059 115.569 180.509 115.897V115.864Z" fill="#942800"/>
<path d="M180.535 115.896C192.411 116.223 203.207 123.911 203.207 135.819C203.207 147.727 192.443 158.981 180.535 158.981C168.627 158.981 158.714 149.33 159.009 137.455C159.303 125.35 169.085 115.601 180.535 115.928V115.896Z" fill="#962900"/>
<path d="M180.573 115.929C192.449 116.256 203.245 123.944 203.245 135.82C203.245 147.695 192.449 158.982 180.573 158.982C168.698 158.982 158.752 149.331 159.047 137.456C159.341 125.351 169.123 115.602 180.573 115.929Z" fill="#972900"/>
<path d="M180.611 115.961C192.487 116.288 203.283 123.943 203.283 135.852C203.283 147.76 192.487 159.014 180.611 159.014C168.736 159.014 158.791 149.363 159.085 137.487C159.379 125.383 169.161 115.634 180.611 115.961Z" fill="#992A00"/>
<path d="M180.599 115.993C192.474 116.32 203.303 123.976 203.303 135.851C203.303 147.727 192.507 159.046 180.599 159.046C168.69 159.046 158.778 149.395 159.072 137.52C159.367 125.415 169.149 115.666 180.599 115.993Z" fill="#9B2A00"/>
<path d="M180.637 116.026C192.512 116.353 203.341 123.976 203.341 135.851C203.341 147.727 192.512 159.046 180.637 159.046C168.761 159.046 158.816 149.395 159.111 137.52C159.405 125.415 169.187 115.666 180.637 115.993V116.026Z" fill="#9C2B00"/>
<path d="M180.675 116.057C192.551 116.417 203.379 123.974 203.379 135.882C203.379 147.79 192.551 159.11 180.675 159.11C168.8 159.11 158.854 149.459 159.149 137.583C159.476 125.479 169.225 115.73 180.675 116.057Z" fill="#9E2B00"/>
<path d="M180.675 116.09C192.551 116.449 203.412 124.007 203.412 135.882C203.412 147.758 192.583 159.11 180.675 159.11C168.767 159.11 158.854 149.459 159.149 137.583C159.476 125.479 169.225 115.73 180.675 116.057V116.09Z" fill="#A02C00"/>
<path d="M180.708 116.119C192.584 116.479 203.445 124.004 203.445 135.879C203.445 147.755 192.584 159.139 180.708 159.139C168.833 159.139 158.887 149.521 159.215 137.646C159.542 125.541 169.291 115.792 180.708 116.152V116.119Z" fill="#A22C00"/>
<path d="M180.734 116.154C192.609 116.514 203.471 124.006 203.471 135.882C203.471 147.757 192.609 159.142 180.734 159.142C168.858 159.142 158.913 149.524 159.24 137.648C159.567 125.544 169.316 115.795 180.734 116.154Z" fill="#A32D00"/>
<path d="M180.772 116.221C192.647 116.581 203.509 124.073 203.509 135.949C203.509 147.824 192.647 159.242 180.772 159.242C168.896 159.242 158.951 149.623 159.278 137.748C159.605 125.643 169.354 115.894 180.772 116.254V116.221Z" fill="#A52D00"/>
<path d="M180.772 116.25C192.647 116.61 203.542 124.069 203.542 135.945C203.542 147.82 192.647 159.238 180.772 159.238C168.896 159.238 158.951 149.619 159.278 137.744C159.605 125.639 169.387 115.89 180.772 116.25Z" fill="#A72D00"/>
<path d="M180.797 116.283C192.673 116.643 203.567 124.102 203.567 135.945C203.567 147.787 192.673 159.238 180.797 159.238C168.922 159.238 158.977 149.619 159.304 137.744C159.631 125.639 169.413 115.89 180.797 116.25V116.283Z" fill="#A82E00"/>
<path d="M180.836 116.321C192.711 116.681 203.605 124.107 203.605 135.982C203.605 147.858 192.711 159.308 180.836 159.308C168.96 159.308 159.015 149.69 159.342 137.814C159.669 125.71 169.451 115.961 180.836 116.321Z" fill="#AA2E00"/>
<path d="M180.836 116.353C192.678 116.713 203.605 124.107 203.605 135.982C203.605 147.858 192.678 159.308 180.836 159.308C168.993 159.308 159.015 149.69 159.342 137.814C159.669 125.71 169.451 115.961 180.836 116.321V116.353Z" fill="#AC2F00"/>
<path d="M180.861 116.385C192.704 116.778 203.663 124.139 203.663 135.981C203.663 147.824 192.737 159.34 180.861 159.34C168.986 159.34 159.04 149.722 159.367 137.846C159.694 125.742 169.476 115.993 180.861 116.353V116.385Z" fill="#AD2F00"/>
<path d="M180.894 116.42C192.737 116.812 203.697 124.14 203.697 136.016C203.697 147.891 192.77 159.374 180.894 159.374C169.019 159.374 159.074 149.756 159.433 137.913C159.793 125.809 169.542 116.06 180.894 116.452V116.42Z" fill="#AF3000"/>
<path d="M180.933 116.452C192.775 116.844 203.735 124.172 203.735 136.015C203.735 147.858 192.775 159.406 180.933 159.406C169.09 159.406 159.112 149.788 159.472 137.945C159.831 125.841 169.58 116.092 180.933 116.484V116.452Z" fill="#B13000"/>
<path d="M180.933 116.482C192.775 116.874 203.768 124.17 203.768 136.013C203.768 147.855 192.808 159.404 180.933 159.404C169.057 159.404 159.112 149.786 159.472 137.943C159.831 125.838 169.581 116.089 180.933 116.482Z" fill="#B33100"/>
<path d="M180.971 116.546C192.814 116.939 203.806 124.201 203.806 136.077C203.806 147.952 192.846 159.468 180.971 159.468C169.095 159.468 159.15 149.85 159.51 138.007C159.87 125.903 169.619 116.154 180.971 116.546Z" fill="#B43100"/>
<path d="M180.996 116.578C192.839 116.97 203.831 124.233 203.831 136.076C203.831 147.919 192.839 159.5 180.996 159.5C169.153 159.5 159.175 149.882 159.535 138.039C159.895 125.934 169.644 116.185 180.996 116.578Z" fill="#B63200"/>
<path d="M180.996 116.611C192.839 117.003 203.831 124.233 203.831 136.076C203.831 147.919 192.839 159.5 180.996 159.5C169.153 159.5 159.175 149.882 159.535 138.039C159.895 125.934 169.644 116.185 180.996 116.578V116.611Z" fill="#B83200"/>
<path d="M181.034 116.648C192.877 117.041 203.902 124.238 203.902 136.114C203.902 147.989 192.877 159.57 181.034 159.57C169.192 159.57 159.214 149.952 159.573 138.109C159.933 125.972 169.715 116.256 181.034 116.648Z" fill="#B93300"/>
<path d="M203.928 136.114C203.928 147.957 192.903 159.57 181.06 159.57C169.217 159.57 159.239 149.952 159.599 138.109C159.959 125.972 169.74 116.256 181.06 116.648C192.903 117.074 203.928 124.238 203.928 136.081V136.114Z" fill="#BB3300"/>
<path opacity="0.99" d="M181.06 116.711C192.903 117.103 203.928 124.3 203.928 136.176C203.928 148.051 192.935 159.633 181.06 159.633C169.184 159.633 159.239 150.014 159.599 138.172C159.959 126.067 169.74 116.351 181.06 116.711Z" fill="#BC3502"/>
<path opacity="0.98" d="M181.097 116.743C192.94 117.136 203.932 124.366 203.932 136.209C203.932 148.051 192.94 159.633 181.097 159.633C169.254 159.633 159.309 150.014 159.636 138.172C159.996 126.067 169.745 116.351 181.097 116.711V116.743Z" fill="#BC3705"/>
<path opacity="0.97" d="M181.097 116.742C192.94 117.135 203.932 124.398 203.932 136.241C203.932 148.083 192.94 159.664 181.097 159.664C169.254 159.664 159.309 150.046 159.636 138.203C159.996 126.099 169.745 116.383 181.097 116.742Z" fill="#BD3907"/>
<path opacity="0.96" d="M181.123 116.775C192.966 117.168 203.925 124.43 203.925 136.273C203.925 148.116 192.966 159.664 181.123 159.664C169.28 159.664 159.335 150.046 159.662 138.203C160.022 126.099 169.771 116.383 181.123 116.742V116.775Z" fill="#BD3A09"/>
<path opacity="0.95" d="M181.161 116.807C193.004 117.2 203.963 124.495 203.963 136.338C203.963 148.181 193.004 159.696 181.161 159.696C169.318 159.696 159.373 150.078 159.7 138.235C160.06 126.131 169.809 116.414 181.161 116.774V116.807Z" fill="#BE3C0C"/>
<path opacity="0.95" d="M181.161 116.839C193.004 117.232 203.963 124.527 203.963 136.37C203.963 148.213 193.036 159.728 181.161 159.728C169.285 159.728 159.373 150.11 159.7 138.267C160.06 126.163 169.809 116.447 181.161 116.806V116.839Z" fill="#BF3E0E"/>
<path opacity="0.94" d="M181.199 116.877C193.042 117.27 203.969 124.598 203.969 136.441C203.969 148.284 193.042 159.767 181.199 159.767C169.356 159.767 159.411 150.149 159.738 138.306C160.098 126.201 169.847 116.485 181.199 116.845V116.877Z" fill="#BF4010"/>
<path opacity="0.93" d="M181.199 116.909C193.042 117.302 203.969 124.63 203.969 136.473C203.969 148.316 193.042 159.798 181.199 159.798C169.356 159.798 159.411 150.18 159.738 138.337C160.065 126.233 169.814 116.517 181.199 116.877V116.909Z" fill="#C04213"/>
<path opacity="0.92" d="M181.225 116.909C193.067 117.269 203.961 124.663 203.961 136.505C203.961 148.348 193.067 159.798 181.225 159.798C169.382 159.798 159.436 150.18 159.764 138.337C160.091 126.233 169.84 116.517 181.225 116.877V116.909Z" fill="#C14415"/>
<path opacity="0.91" d="M181.225 116.939C193.067 117.299 203.961 124.692 203.961 136.568C203.961 148.443 193.067 159.861 181.225 159.861C169.382 159.861 159.436 150.243 159.764 138.4C160.091 126.295 169.84 116.612 181.225 116.939Z" fill="#C14617"/>
<path opacity="0.9" d="M181.263 116.972C193.106 117.331 204 124.758 204 136.6C204 148.443 193.106 159.861 181.263 159.861C169.42 159.861 159.475 150.243 159.802 138.4C160.129 126.295 169.878 116.612 181.263 116.939V116.972Z" fill="#C24719"/>
<path opacity="0.89" d="M181.288 117.002C193.13 117.362 203.992 124.821 203.992 136.664C203.992 148.507 193.13 159.924 181.288 159.924C169.445 159.924 159.532 150.306 159.827 138.463C160.154 126.359 169.903 116.675 181.288 117.002Z" fill="#C2491C"/>
<path opacity="0.88" d="M181.288 117.035C193.13 117.395 203.992 124.854 203.992 136.697C203.992 148.54 193.13 159.924 181.288 159.924C169.445 159.924 159.532 150.306 159.827 138.463C160.154 126.359 169.903 116.675 181.288 117.002V117.035Z" fill="#C34B1E"/>
<path opacity="0.87" d="M181.326 117.074C193.169 117.434 203.997 124.925 203.997 136.768C203.997 148.611 193.169 159.963 181.326 159.963C169.483 159.963 159.57 150.345 159.865 138.502C160.192 126.43 169.941 116.714 181.326 117.041V117.074Z" fill="#C44D20"/>
<path opacity="0.86" d="M181.326 117.106C193.169 117.466 203.997 124.957 203.997 136.8C203.997 148.643 193.169 159.995 181.326 159.995C169.483 159.995 159.57 150.377 159.865 138.534C160.192 126.462 169.908 116.746 181.326 117.073V117.106Z" fill="#C44F23"/>
<path opacity="0.85" d="M181.351 117.106C193.194 117.466 204.023 124.99 204.023 136.833C204.023 148.676 193.194 159.995 181.351 159.995C169.508 159.995 159.596 150.377 159.89 138.534C160.217 126.462 169.934 116.746 181.351 117.073V117.106Z" fill="#C55125"/>
<path opacity="0.85" d="M181.351 117.137C193.194 117.497 203.99 125.022 203.99 136.865C203.99 148.707 193.194 160.027 181.351 160.027C169.508 160.027 159.596 150.408 159.89 138.566C160.217 126.494 169.934 116.778 181.351 117.105V117.137Z" fill="#C65327"/>
<path opacity="0.84" d="M181.389 117.17C193.232 117.497 204.028 125.087 204.028 136.929C204.028 148.772 193.232 160.059 181.389 160.059C169.547 160.059 159.634 150.441 159.928 138.598C160.223 126.526 169.972 116.81 181.389 117.137V117.17Z" fill="#C6542A"/>
<path opacity="0.83" d="M181.389 117.199C193.232 117.526 203.995 125.116 203.995 136.992C203.995 148.867 193.232 160.121 181.389 160.121C169.547 160.121 159.634 150.503 159.928 138.66C160.223 126.588 169.972 116.905 181.389 117.199Z" fill="#C7562C"/>
<path opacity="0.82" d="M181.428 117.232C193.27 117.559 204.034 125.181 204.034 137.024C204.034 148.867 193.27 160.121 181.428 160.121C169.585 160.121 159.672 150.503 159.967 138.66C160.261 126.588 170.01 116.905 181.428 117.199V117.232Z" fill="#C7582E"/>
<path opacity="0.81" d="M181.453 117.27C193.296 117.598 204.059 125.253 204.059 137.096C204.059 148.938 193.296 160.16 181.453 160.16C169.61 160.16 159.698 150.542 159.992 138.699C160.286 126.627 170.036 116.943 181.453 117.238V117.27Z" fill="#C85A31"/>
<path opacity="0.8" d="M181.452 117.27C193.294 117.598 204.025 125.253 204.025 137.096C204.025 148.938 193.294 160.16 181.452 160.16C169.609 160.16 159.729 150.542 159.991 138.699C160.285 126.627 170.001 116.943 181.452 117.238V117.27Z" fill="#C95C33"/>
<path opacity="0.79" d="M181.49 117.302C193.333 117.629 204.063 125.317 204.063 137.16C204.063 149.003 193.333 160.192 181.49 160.192C169.647 160.192 159.767 150.573 160.029 138.731C160.323 126.659 170.04 116.975 181.49 117.27V117.302Z" fill="#C95E35"/>
<path opacity="0.78" d="M181.49 117.334C193.333 117.661 204.031 125.349 204.031 137.192C204.031 149.035 193.333 160.223 181.49 160.223C169.647 160.223 159.767 150.605 160.029 138.762C160.323 126.691 170.04 117.007 181.49 117.301V117.334Z" fill="#CA6038"/>
<path opacity="0.77" d="M181.516 117.366C193.359 117.693 204.057 125.414 204.057 137.257C204.057 149.1 193.359 160.256 181.516 160.256C169.673 160.256 159.794 150.637 160.055 138.795C160.35 126.723 170.066 117.039 181.516 117.334V117.366Z" fill="#CA613A"/>
<path opacity="0.76" d="M181.516 117.397C193.359 117.724 204.057 125.445 204.057 137.321C204.057 149.196 193.359 160.319 181.516 160.319C169.673 160.319 159.794 150.701 160.055 138.858C160.35 126.786 170.066 117.103 181.516 117.397Z" fill="#CB633C"/>
<path opacity="0.75" d="M181.554 117.43C193.397 117.724 204.062 125.51 204.062 137.353C204.062 149.196 193.397 160.319 181.554 160.319C169.712 160.319 159.832 150.701 160.093 138.858C160.388 126.819 170.104 117.103 181.554 117.397V117.43Z" fill="#CC653F"/>
<path opacity="0.75" d="M181.554 117.429C193.397 117.724 204.062 125.543 204.062 137.386C204.062 149.228 193.397 160.351 181.554 160.351C169.712 160.351 159.832 150.733 160.093 138.89C160.355 126.851 170.104 117.135 181.554 117.429Z" fill="#CC6741"/>
<path opacity="0.74" d="M181.593 117.461C193.435 117.755 204.1 125.574 204.1 137.417C204.1 149.26 193.468 160.35 181.593 160.35C169.717 160.35 159.87 150.732 160.132 138.889C160.393 126.85 170.11 117.166 181.593 117.428V117.461Z" fill="#CD6943"/>
<path opacity="0.73" d="M181.618 117.499C193.461 117.793 204.093 125.645 204.093 137.488C204.093 149.331 193.461 160.388 181.618 160.388C169.775 160.388 159.895 150.77 160.157 138.927C160.419 126.888 170.135 117.205 181.618 117.466V117.499Z" fill="#CE6B46"/>
<path opacity="0.72" d="M181.618 117.531C193.461 117.825 204.093 125.677 204.093 137.52C204.093 149.362 193.461 160.42 181.618 160.42C169.775 160.42 159.895 150.802 160.157 138.959C160.419 126.92 170.135 117.236 181.618 117.498V117.531Z" fill="#CE6C48"/>
<path opacity="0.71" d="M181.655 117.563C193.498 117.857 204.097 125.742 204.097 137.585C204.097 149.427 193.498 160.452 181.655 160.452C169.812 160.452 159.965 150.834 160.194 138.991C160.456 126.952 170.172 117.269 181.655 117.53V117.563Z" fill="#CF6E4A"/>
<path opacity="0.7" d="M181.655 117.595C193.498 117.889 204.097 125.774 204.097 137.616C204.097 149.459 193.498 160.484 181.655 160.484C169.812 160.484 159.965 150.866 160.194 139.023C160.456 126.984 170.172 117.3 181.655 117.562V117.595Z" fill="#CF704C"/>
<path opacity="0.69" d="M181.68 117.595C193.523 117.889 204.123 125.806 204.123 137.649C204.123 149.492 193.556 160.484 181.68 160.484C169.805 160.484 159.99 150.866 160.22 139.023C160.481 126.984 170.198 117.3 181.68 117.562V117.595Z" fill="#D0724F"/>
<path opacity="0.68" d="M181.68 117.626C193.523 117.921 204.09 125.838 204.09 137.713C204.09 149.589 193.523 160.548 181.68 160.548C169.838 160.548 159.99 150.93 160.219 139.087C160.481 127.048 170.198 117.365 181.68 117.626Z" fill="#D17451"/>
<path opacity="0.67" d="M181.72 117.659C193.562 117.921 204.129 125.903 204.129 137.746C204.129 149.589 193.562 160.548 181.72 160.548C169.877 160.548 160.03 150.93 160.259 139.087C160.52 127.048 170.204 117.365 181.72 117.626V117.659Z" fill="#D17653"/>
<path opacity="0.66" d="M181.72 117.69C193.562 117.952 204.097 125.967 204.097 137.81C204.097 149.652 193.562 160.612 181.72 160.612C169.877 160.612 160.03 150.994 160.259 139.151C160.52 127.112 170.204 117.428 181.72 117.69Z" fill="#D27856"/>
<path opacity="0.65" d="M181.745 117.728C193.588 117.989 204.122 126.005 204.122 137.847C204.122 149.69 193.588 160.617 181.745 160.617C169.902 160.617 160.055 150.999 160.284 139.156C160.513 127.117 170.229 117.466 181.745 117.695V117.728Z" fill="#D27958"/>
<path opacity="0.65" d="M181.783 117.76C193.626 118.022 204.16 126.07 204.16 137.912C204.16 149.755 193.659 160.649 181.783 160.649C169.908 160.649 160.093 151.031 160.322 139.188C160.551 127.149 170.267 117.498 181.783 117.727V117.76Z" fill="#D37B5A"/>
<path opacity="0.64" d="M181.783 117.76C193.626 118.022 204.127 126.07 204.127 137.912C204.127 149.755 193.626 160.649 181.783 160.649C169.94 160.649 160.093 151.031 160.322 139.188C160.551 127.182 170.267 117.498 181.783 117.727V117.76Z" fill="#D47D5D"/>
<path opacity="0.63" d="M181.821 117.792C193.664 118.054 204.166 126.134 204.166 137.977C204.166 149.82 193.664 160.681 181.821 160.681C169.979 160.681 160.131 151.063 160.36 139.22C160.589 127.214 170.306 117.53 181.821 117.759V117.792Z" fill="#D47F5F"/>
<path opacity="0.62" d="M181.82 117.824C193.663 118.085 204.132 126.166 204.132 138.009C204.132 149.852 193.663 160.713 181.82 160.713C169.978 160.713 160.163 151.095 160.359 139.252C160.588 127.246 170.272 117.562 181.82 117.791V117.824Z" fill="#D58161"/>
<path opacity="0.61" d="M181.846 117.855C193.689 118.117 204.157 126.23 204.157 138.073C204.157 149.916 193.689 160.745 181.846 160.745C170.003 160.745 160.189 151.126 160.385 139.284C160.614 127.277 170.297 117.594 181.846 117.823V117.855Z" fill="#D68364"/>
<path opacity="0.6" d="M181.846 117.887C193.689 118.149 204.157 126.295 204.157 138.137C204.157 149.98 193.689 160.809 181.846 160.809C170.003 160.809 160.189 151.191 160.385 139.348C160.614 127.341 170.297 117.658 181.846 117.887Z" fill="#D68566"/>
<path opacity="0.59" d="M181.884 117.92C193.727 118.149 204.163 126.327 204.163 138.17C204.163 150.013 193.727 160.809 181.884 160.809C170.041 160.809 160.227 151.191 160.423 139.348C160.652 127.341 170.336 117.658 181.884 117.887V117.92Z" fill="#D78668"/>
<path opacity="0.58" d="M181.91 117.951C193.753 118.18 204.189 126.392 204.189 138.234C204.189 150.077 193.753 160.84 181.91 160.84C170.067 160.84 160.253 151.222 160.449 139.38C160.678 127.373 170.362 117.69 181.91 117.919V117.951Z" fill="#D7886B"/>
<path opacity="0.57" d="M181.91 117.957C193.753 118.186 204.156 126.397 204.156 138.24C204.156 150.083 193.753 160.846 181.91 160.846C170.067 160.846 160.253 151.228 160.449 139.385C160.646 127.378 170.362 117.728 181.91 117.924V117.957Z" fill="#D88A6D"/>
<path opacity="0.56" d="M181.948 117.989C193.791 118.218 204.195 126.462 204.195 138.305C204.195 150.148 193.791 160.878 181.948 160.878C170.106 160.878 160.291 151.26 160.487 139.417C160.684 127.411 170.4 117.76 181.948 117.956V117.989Z" fill="#D98C6F"/>
<path opacity="0.55" d="M181.948 118.021C193.791 118.25 204.195 126.494 204.195 138.337C204.195 150.179 193.791 160.91 181.948 160.91C170.106 160.91 160.291 151.292 160.487 139.449C160.684 127.443 170.367 117.792 181.948 117.988V118.021Z" fill="#D98E72"/>
<path opacity="0.55" d="M181.974 118.053C193.817 118.282 204.187 126.558 204.187 138.401C204.187 150.244 193.817 160.942 181.974 160.942C170.131 160.942 160.317 151.324 160.513 139.481C160.709 127.474 170.393 117.823 181.974 118.02V118.053Z" fill="#DA9074"/>
<path opacity="0.54" d="M181.974 118.084C193.817 118.313 204.187 126.59 204.187 138.465C204.187 150.341 193.817 161.006 181.974 161.006C170.131 161.006 160.317 151.388 160.513 139.545C160.709 127.538 170.393 117.887 181.974 118.084Z" fill="#DB9276"/>
<path opacity="0.53" d="M182.011 118.116C193.854 118.345 204.192 126.655 204.192 138.498C204.192 150.341 193.854 161.006 182.011 161.006C170.168 161.006 160.387 151.388 160.55 139.545C160.746 127.538 170.43 117.887 182.011 118.084V118.116Z" fill="#DB9379"/>
<path opacity="0.52" d="M182.011 118.116C193.854 118.312 204.192 126.687 204.192 138.53C204.192 150.372 193.854 161.038 182.011 161.038C170.168 161.038 160.387 151.419 160.55 139.577C160.746 127.603 170.43 117.919 182.011 118.116Z" fill="#DC957B"/>
<path opacity="0.51" d="M182.049 118.148C193.892 118.345 204.23 126.72 204.23 138.562C204.23 150.405 193.892 161.038 182.049 161.038C170.207 161.038 160.425 151.419 160.588 139.577C160.785 127.603 170.468 117.919 182.049 118.116V118.148Z" fill="#DC977D"/>
<path opacity="0.5" d="M182.075 118.181C193.918 118.377 204.223 126.785 204.223 138.627C204.223 150.47 193.918 161.07 182.075 161.07C170.232 161.07 160.45 151.452 160.614 139.609C160.81 127.635 170.494 117.952 182.075 118.148V118.181Z" fill="#DD9980"/>
<path opacity="0.49" d="M182.075 118.218C193.918 118.414 204.223 126.822 204.223 138.665C204.223 150.507 193.918 161.107 182.075 161.107C170.232 161.107 160.45 151.489 160.614 139.646C160.81 127.672 170.461 118.022 182.075 118.185V118.218Z" fill="#DE9B82"/>
<path opacity="0.48" d="M182.114 118.25C193.957 118.446 204.229 126.886 204.229 138.729C204.229 150.572 193.957 161.139 182.114 161.139C170.271 161.139 160.489 151.521 160.653 139.678C160.816 127.704 170.5 118.053 182.114 118.217V118.25Z" fill="#DE9D84"/>
<path opacity="0.47" d="M182.114 118.282C193.957 118.478 204.229 126.919 204.229 138.762C204.229 150.604 193.957 161.171 182.114 161.171C170.271 161.171 160.489 151.553 160.653 139.71C160.816 127.737 170.5 118.086 182.114 118.249V118.282Z" fill="#DF9F86"/>
<path opacity="0.46" d="M182.139 118.282C193.982 118.478 204.255 126.951 204.255 138.794C204.255 150.637 193.982 161.171 182.139 161.171C170.297 161.171 160.515 151.553 160.678 139.71C160.842 127.737 170.526 118.086 182.139 118.249V118.282Z" fill="#DFA089"/>
<path opacity="0.45" d="M182.139 118.313C193.982 118.509 204.222 126.982 204.222 138.858C204.222 150.733 193.982 161.235 182.139 161.235C170.297 161.235 160.515 151.617 160.678 139.774C160.842 127.8 170.526 118.149 182.139 118.313Z" fill="#E0A28B"/>
<path opacity="0.45" d="M182.177 118.346C194.02 118.542 204.26 127.048 204.26 138.891C204.26 150.733 194.02 161.235 182.177 161.235C170.335 161.235 160.553 151.617 160.716 139.774C160.88 127.8 170.564 118.149 182.177 118.313V118.346Z" fill="#E1A48D"/>
<path opacity="0.44" d="M182.177 118.377C194.02 118.541 204.259 127.112 204.259 138.955C204.259 150.797 194.052 161.299 182.177 161.299C170.301 161.299 160.585 151.681 160.716 139.838C160.879 127.864 170.563 118.213 182.177 118.377Z" fill="#E1A690"/>
<path opacity="0.43" d="M182.202 118.41C194.045 118.573 204.252 127.145 204.252 138.987C204.252 150.83 194.045 161.299 182.202 161.299C170.359 161.299 160.61 151.681 160.741 139.838C160.905 127.864 170.556 118.213 182.202 118.377V118.41Z" fill="#E2A892"/>
<path opacity="0.42" d="M182.24 118.448C194.083 118.611 204.29 127.215 204.29 139.058C204.29 150.901 194.083 161.337 182.24 161.337C170.398 161.337 160.649 151.719 160.779 139.876C160.943 127.902 170.594 118.252 182.24 118.415V118.448Z" fill="#E3AA94"/>
<path opacity="0.41" d="M182.24 118.447C194.083 118.611 204.257 127.215 204.257 139.057C204.257 150.9 194.083 161.336 182.24 161.336C170.398 161.336 160.649 151.718 160.779 139.875C160.943 127.902 170.594 118.284 182.24 118.414V118.447Z" fill="#E3AC97"/>
<path opacity="0.4" d="M182.279 118.479C194.121 118.643 204.296 127.28 204.296 139.122C204.296 150.965 194.121 161.369 182.279 161.369C170.436 161.369 160.687 151.75 160.818 139.908C160.981 127.967 170.632 118.316 182.279 118.447V118.479Z" fill="#E4AD99"/>
<path opacity="0.39" d="M182.279 118.511C194.121 118.675 204.296 127.312 204.296 139.154C204.296 150.997 194.154 161.4 182.279 161.4C170.403 161.4 160.687 151.782 160.818 139.939C160.948 127.999 170.632 118.348 182.279 118.478V118.511Z" fill="#E4AF9B"/>
<path opacity="0.38" d="M182.304 118.543C194.147 118.707 204.288 127.376 204.288 139.219C204.288 151.062 194.147 161.432 182.304 161.432C170.461 161.432 160.712 151.814 160.843 139.971C160.974 128.03 170.658 118.379 182.304 118.51V118.543Z" fill="#E5B19E"/>
<path opacity="0.37" d="M182.304 118.574C194.147 118.738 204.288 127.44 204.288 139.283C204.288 151.126 194.147 161.496 182.304 161.496C170.461 161.496 160.712 151.878 160.843 140.035C160.974 128.094 170.658 118.443 182.304 118.574Z" fill="#E6B3A0"/>
<path opacity="0.36" d="M182.343 118.607C194.186 118.771 204.295 127.473 204.295 139.316C204.295 151.158 194.186 161.496 182.343 161.496C170.5 161.496 160.751 151.878 160.882 140.035C161.013 128.094 170.664 118.443 182.343 118.574V118.607Z" fill="#E6B5A2"/>
<path opacity="0.35" d="M182.369 118.639C194.211 118.77 204.32 127.537 204.32 139.38C204.32 151.223 194.211 161.528 182.369 161.528C170.526 161.528 160.777 151.91 160.908 140.067C161.038 128.126 170.689 118.475 182.369 118.606V118.639Z" fill="#E7B7A5"/>
<path opacity="0.35" d="M182.368 118.639C194.211 118.77 204.32 127.537 204.32 139.38C204.32 151.223 194.243 161.528 182.368 161.528C170.492 161.528 160.809 151.91 160.907 140.067C161.038 128.126 170.689 118.475 182.368 118.606V118.639Z" fill="#E8B9A7"/>
<path opacity="0.34" d="M182.406 118.677C194.249 118.808 204.325 127.608 204.325 139.451C204.325 151.294 194.249 161.566 182.406 161.566C170.563 161.566 160.847 151.948 160.945 140.105C161.076 128.164 170.727 118.513 182.406 118.644V118.677Z" fill="#E8BAA9"/>
<path opacity="0.33" d="M182.406 118.709C194.249 118.84 204.325 127.64 204.325 139.483C204.325 151.326 194.249 161.599 182.406 161.599C170.563 161.599 160.847 151.98 160.945 140.138C161.076 128.197 170.727 118.546 182.406 118.677V118.709Z" fill="#E9BCAC"/>
<path opacity="0.32" d="M182.432 118.74C194.274 118.871 204.318 127.704 204.318 139.547C204.318 151.39 194.274 161.63 182.432 161.63C170.589 161.63 160.872 152.012 160.971 140.169C161.101 128.228 170.752 118.61 182.432 118.708V118.74Z" fill="#E9BEAE"/>
<path opacity="0.31" d="M182.432 118.772C194.274 118.903 204.318 127.736 204.318 139.611C204.318 151.487 194.274 161.694 182.432 161.694C170.589 161.694 160.872 152.076 160.971 140.233C161.069 128.292 170.752 118.674 182.432 118.772Z" fill="#EAC0B0"/>
<path opacity="0.3" d="M182.47 118.805C194.313 118.935 204.356 127.801 204.356 139.644C204.356 151.487 194.345 161.694 182.47 161.694C170.594 161.694 160.911 152.076 161.009 140.233C161.107 128.292 170.758 118.674 182.47 118.772V118.805Z" fill="#EBC2B3"/>
<path opacity="0.29" d="M182.47 118.804C194.313 118.934 204.323 127.833 204.323 139.676C204.323 151.518 194.313 161.726 182.47 161.726C170.627 161.726 160.911 152.107 161.009 140.265C161.107 128.324 170.758 118.705 182.47 118.804Z" fill="#EBC4B5"/>
<path opacity="0.28" d="M182.508 118.836C194.351 118.967 204.361 127.866 204.361 139.708C204.361 151.551 194.351 161.726 182.508 161.726C170.665 161.726 160.949 152.107 161.047 140.265C161.145 128.356 170.796 118.705 182.508 118.804V118.836Z" fill="#ECC6B7"/>
<path opacity="0.27" d="M182.534 118.868C194.377 118.966 204.355 127.93 204.355 139.773C204.355 151.616 194.377 161.757 182.534 161.757C170.691 161.757 160.975 152.139 161.073 140.296C161.171 128.388 170.822 118.737 182.534 118.835V118.868Z" fill="#ECC7B9"/>
<path opacity="0.26" d="M182.534 118.901C194.377 118.999 204.355 127.963 204.355 139.805C204.355 151.648 194.377 161.79 182.534 161.79C170.691 161.79 160.975 152.172 161.073 140.329C161.171 128.421 170.822 118.77 182.534 118.868V118.901Z" fill="#EDC9BC"/>
<path opacity="0.25" d="M182.572 118.939C194.415 119.037 204.393 128.033 204.393 139.876C204.393 151.719 194.415 161.828 182.572 161.828C170.729 161.828 161.046 152.21 161.111 140.367C161.209 128.459 170.86 118.808 182.572 118.906V118.939Z" fill="#EECBBE"/>
<path opacity="0.25" d="M182.572 118.97C194.415 119.068 204.36 128.065 204.36 139.908C204.36 151.751 194.415 161.86 182.572 161.86C170.729 161.86 161.046 152.241 161.111 140.399C161.209 128.49 170.827 118.839 182.572 118.938V118.97Z" fill="#EECDC0"/>
<path opacity="0.24" d="M182.597 118.97C194.44 119.068 204.386 128.097 204.386 139.94C204.386 151.783 194.44 161.859 182.597 161.859C170.755 161.859 161.071 152.241 161.136 140.398C161.235 128.49 170.853 118.872 182.597 118.937V118.97Z" fill="#EFCFC3"/>
<path opacity="0.23" d="M182.597 119.001C194.44 119.099 204.353 128.161 204.353 140.004C204.353 151.847 194.44 161.923 182.597 161.923C170.755 161.923 161.071 152.305 161.136 140.462C161.235 128.554 170.853 118.936 182.597 119.001Z" fill="#F0D1C5"/>
<path opacity="0.22" d="M182.636 119.034C194.478 119.132 204.391 128.194 204.391 140.037C204.391 151.88 194.478 161.923 182.636 161.923C170.793 161.923 161.109 152.305 161.175 140.462C161.24 128.554 170.891 118.936 182.636 119.001V119.034Z" fill="#F0D2C7"/>
<path opacity="0.21" d="M182.636 119.065C194.478 119.164 204.391 128.258 204.391 140.101C204.391 151.944 194.478 161.987 182.636 161.987C170.793 161.987 161.109 152.369 161.175 140.526C161.24 128.618 170.891 119 182.636 119.065Z" fill="#F1D4CA"/>
<path opacity="0.2" d="M182.661 119.098C194.504 119.196 204.384 128.291 204.384 140.134C204.384 151.977 194.504 161.987 182.661 161.987C170.818 161.987 161.135 152.369 161.2 140.526C161.266 128.618 170.916 119 182.661 119.065V119.098Z" fill="#F1D6CC"/>
<path opacity="0.19" d="M182.699 119.13C194.542 119.195 204.422 128.356 204.422 140.198C204.422 152.041 194.542 162.019 182.699 162.019C170.856 162.019 161.173 152.401 161.238 140.558C161.304 128.65 170.955 119.032 182.699 119.097V119.13Z" fill="#F2D8CE"/>
<path opacity="0.18" d="M182.699 119.13C194.542 119.195 204.389 128.356 204.389 140.198C204.389 152.041 194.542 162.019 182.699 162.019C170.856 162.019 161.173 152.401 161.238 140.558C161.304 128.65 170.922 119.032 182.699 119.097V119.13Z" fill="#F3DAD1"/>
<path opacity="0.17" d="M182.726 119.162C194.568 119.227 204.416 128.42 204.416 140.263C204.416 152.106 194.568 162.051 182.726 162.051C170.883 162.051 161.199 152.433 161.265 140.59C161.33 128.682 170.948 119.064 182.726 119.129V119.162Z" fill="#F3DCD3"/>
<path opacity="0.16" d="M182.738 119.199C194.581 119.265 204.428 128.458 204.428 140.333C204.428 152.209 194.581 162.121 182.738 162.121C170.895 162.121 161.244 152.503 161.277 140.66C161.342 128.785 170.961 119.134 182.738 119.199Z" fill="#F4DED5"/>
<path opacity="0.15" d="M182.764 119.232C194.606 119.297 204.421 128.523 204.421 140.366C204.421 152.209 194.606 162.121 182.764 162.121C170.921 162.121 161.27 152.503 161.303 140.66C161.368 128.785 170.986 119.166 182.764 119.199V119.232Z" fill="#F4DFD8"/>
<path opacity="0.15" d="M182.764 119.263C194.606 119.329 204.421 128.587 204.421 140.43C204.421 152.273 194.606 162.185 182.764 162.185C170.921 162.185 161.27 152.567 161.303 140.724C161.368 128.849 170.986 119.231 182.764 119.263Z" fill="#F5E1DA"/>
<path opacity="0.14" d="M182.802 119.296C194.644 119.361 204.459 128.62 204.459 140.463C204.459 152.305 194.677 162.185 182.802 162.185C170.926 162.185 161.308 152.567 161.341 140.724C161.406 128.849 171.024 119.231 182.802 119.263V119.296Z" fill="#F6E3DC"/>
<path opacity="0.13" d="M182.802 119.296C194.644 119.361 204.426 128.652 204.426 140.495C204.426 152.338 194.644 162.185 182.802 162.185C170.959 162.185 161.308 152.567 161.341 140.724C161.373 128.849 171.024 119.231 182.802 119.263V119.296Z" fill="#F6E5DF"/>
<path opacity="0.12" d="M182.827 119.328C194.67 119.361 204.452 128.684 204.452 140.527C204.452 152.37 194.67 162.217 182.827 162.217C170.984 162.217 161.333 152.599 161.366 140.756C161.399 128.881 171.017 119.262 182.827 119.295V119.328Z" fill="#F7E7E1"/>
<path opacity="0.11" d="M182.865 119.36C194.708 119.392 204.457 128.749 204.457 140.592C204.457 152.434 194.708 162.249 182.865 162.249C171.023 162.249 161.372 152.631 161.404 140.788C161.437 128.912 171.055 119.294 182.865 119.327V119.36Z" fill="#F8E9E3"/>
<path opacity="0.1" d="M182.865 119.391C194.708 119.424 204.457 128.781 204.457 140.623C204.457 152.466 194.708 162.281 182.865 162.281C171.023 162.281 161.372 152.662 161.404 140.82C161.437 128.944 171.055 119.326 182.865 119.359V119.391Z" fill="#F8EBE6"/>
<path opacity="0.09" d="M182.891 119.424C194.734 119.456 204.483 128.846 204.483 140.688C204.483 152.531 194.766 162.313 182.891 162.313C171.015 162.313 161.397 152.695 161.43 140.852C161.463 128.976 171.081 119.358 182.891 119.391V119.424Z" fill="#F9ECE8"/>
<path opacity="0.08" d="M182.891 119.461C194.734 119.494 204.45 128.883 204.45 140.758C204.45 152.634 194.734 162.383 182.891 162.383C171.048 162.383 161.43 152.765 161.43 140.922C161.43 129.046 171.081 119.428 182.891 119.461Z" fill="#F9EEEA"/>
<path opacity="0.07" d="M182.93 119.494C194.773 119.494 204.489 128.948 204.489 140.791C204.489 152.634 194.773 162.383 182.93 162.383C171.087 162.383 161.469 152.765 161.469 140.922C161.469 129.046 171.12 119.461 182.93 119.461V119.494Z" fill="#FAF0EC"/>
<path opacity="0.06" d="M182.93 119.493C194.773 119.493 204.456 128.98 204.456 140.823C204.456 152.666 194.773 162.415 182.93 162.415C171.087 162.415 161.469 152.797 161.469 140.954C161.469 129.079 171.12 119.493 182.93 119.493Z" fill="#FBF2EF"/>
<path opacity="0.05" d="M182.955 119.526C194.798 119.526 204.482 129.013 204.482 140.856C204.482 152.699 194.798 162.415 182.955 162.415C171.112 162.415 161.494 152.797 161.494 140.954C161.494 129.079 171.112 119.493 182.955 119.493V119.526Z" fill="#FBF4F1"/>
<path opacity="0.05" d="M182.993 119.558C194.836 119.558 204.52 129.078 204.52 140.92C204.52 152.763 194.869 162.447 182.993 162.447C171.118 162.447 161.532 152.829 161.532 140.986C161.532 129.143 171.151 119.525 182.993 119.525V119.558Z" fill="#FCF6F3"/>
<path opacity="0.04" d="M182.993 119.589C194.836 119.589 204.487 129.11 204.487 140.952C204.487 152.795 194.836 162.479 182.993 162.479C171.151 162.479 161.532 152.861 161.532 141.018C161.532 129.175 171.151 119.557 182.993 119.557V119.589Z" fill="#FDF8F6"/>
<path opacity="0.03" d="M183.032 119.622C194.874 119.622 204.525 129.174 204.525 141.017C204.525 152.86 194.874 162.511 183.032 162.511C171.189 162.511 161.571 152.893 161.571 141.05C161.571 129.207 171.189 119.589 183.032 119.589V119.622Z" fill="#FDF9F8"/>
<path opacity="0.02" d="M183.032 119.654C194.874 119.654 204.493 129.206 204.493 141.049C204.493 152.892 194.874 162.543 183.032 162.543C171.189 162.543 161.571 152.925 161.571 141.082C161.571 129.239 171.189 119.621 183.032 119.621V119.654Z" fill="#FEFBFA"/>
</g>
</g>
<mask id="mask1_2812_87301" style="mask-type:luminance" maskUnits="userSpaceOnUse" x="31" y="39" width="298" height="192">
<path d="M319.218 39.7015H40.8145C35.3838 39.7015 31 44.0853 31 49.516V220.484C31 225.915 35.3838 230.299 40.8145 230.299H319.186C324.616 230.299 329 225.915 329 220.484V49.516C329 44.0853 324.616 39.7015 319.186 39.7015H319.218ZM314.344 135C314.344 185.806 273.156 227.027 222.317 227.027H40.8145C37.2158 227.027 34.2715 224.083 34.2715 220.484V49.516C34.2715 45.9174 37.2158 42.973 40.8145 42.973H222.317C273.123 42.973 314.344 84.1611 314.344 135Z" fill="white"/>
</mask>
<g mask="url(#mask1_2812_87301)">
<mask id="mask2_2812_87301" style="mask-type:luminance" maskUnits="userSpaceOnUse" x="3" y="-42" width="354" height="354">
<path d="M180.151 311.79C277.79 311.79 356.942 232.637 356.942 134.998C356.942 37.3591 277.79 -41.7931 180.151 -41.7931C82.5116 -41.7931 3.35944 37.3591 3.35944 134.998C3.35944 232.637 82.5116 311.79 180.151 311.79Z" fill="white"/>
</mask>
<g mask="url(#mask2_2812_87301)">
<path d="M244.829 -106.488L-61.3546 70.2867L115.42 376.47L421.604 199.695L244.829 -106.488Z" fill="#E04E15"/>
<path d="M248.509 -100.111L-57.674 76.6637L119.101 382.847L425.284 206.072L248.509 -100.111Z" fill="#E04F15"/>
<path d="M252.19 -93.7535L-53.9935 83.0215L122.781 389.205L428.965 212.43L252.19 -93.7535Z" fill="#E15015"/>
<path d="M255.844 -87.3765L-50.3392 89.3984L126.436 395.582L432.619 218.807L255.844 -87.3765Z" fill="#E15115"/>
<path d="M259.563 -81.0128L-46.6205 95.7622L130.154 401.945L436.338 225.17L259.563 -81.0128Z" fill="#E25215"/>
<path d="M263.205 -74.6423L-42.9781 102.133L133.797 408.316L439.98 231.541L263.205 -74.6423Z" fill="#E25316"/>
<path d="M266.911 -68.2465L-39.2722 108.528L137.503 414.712L443.686 237.937L266.911 -68.2465Z" fill="#E35416"/>
<path d="M270.592 -61.876L-35.5916 114.899L141.183 421.082L447.367 244.307L270.592 -61.876Z" fill="#E35516"/>
<path d="M274.272 -55.4798L-31.9111 121.295L144.864 427.478L451.047 250.703L274.272 -55.4798Z" fill="#E35616"/>
<path d="M277.94 -49.1347L-28.2433 127.64L148.532 433.823L454.715 257.049L277.94 -49.1347Z" fill="#E45716"/>
<path d="M281.646 -42.7769L-24.5373 133.998L152.238 440.181L458.421 263.406L281.646 -42.7769Z" fill="#E45716"/>
<path d="M285.287 -36.3685L-20.8958 140.406L155.879 446.59L462.062 269.815L285.287 -36.3685Z" fill="#E55816"/>
<path d="M288.993 -30.0106L-17.1898 146.764L159.585 452.948L465.768 276.173L288.993 -30.0106Z" fill="#E55916"/>
<path d="M292.674 -23.6341L-13.5092 153.141L163.266 459.324L469.449 282.549L292.674 -23.6341Z" fill="#E55A16"/>
<path d="M296.355 -17.2445L-9.82867 159.531L166.946 465.714L473.13 288.939L296.355 -17.2445Z" fill="#E65B16"/>
<path d="M300.035 -10.8675L-6.14813 165.907L170.627 472.091L476.81 295.316L300.035 -10.8675Z" fill="#E65C17"/>
<path d="M303.728 -4.53511L-2.4549 172.24L174.32 478.423L480.503 301.648L303.728 -4.53511Z" fill="#E75D17"/>
<path d="M307.37 1.87337L1.18665 178.648L177.962 484.832L484.145 308.057L307.37 1.87337Z" fill="#E75E17"/>
<path d="M311.089 8.23125L4.90533 185.006L181.68 491.189L487.864 314.414L311.089 8.23125Z" fill="#E85F17"/>
<path d="M314.769 14.6081L8.58588 191.383L185.361 497.566L491.544 320.791L314.769 14.6081Z" fill="#E86017"/>
<path d="M316.188 17.0549L10.0045 193.83L186.779 500.013L492.963 323.238L316.188 17.0549Z" fill="#E86117"/>
<path d="M317.606 19.5539L11.4231 196.329L188.198 502.512L494.381 325.737L317.606 19.5539Z" fill="#E96217"/>
<path d="M319.025 22.0073L12.8417 198.782L189.617 504.965L495.8 328.191L319.025 22.0073Z" fill="#E96317"/>
<path d="M320.431 24.4736L14.2476 201.249L191.023 507.432L497.206 330.657L320.431 24.4736Z" fill="#E96418"/>
<path d="M321.875 26.953L15.6916 203.728L192.467 509.911L498.65 333.136L321.875 26.953Z" fill="#E96518"/>
<path d="M323.306 29.3936L17.1229 206.169L193.898 512.352L500.081 335.577L323.306 29.3936Z" fill="#EA6618"/>
<path d="M324.725 31.8407L18.5415 208.616L195.316 514.799L501.5 338.024L324.725 31.8407Z" fill="#EA6718"/>
<path d="M326.13 34.3137L19.9465 211.089L196.721 517.272L502.905 340.497L326.13 34.3137Z" fill="#EA6818"/>
<path d="M327.574 36.7928L21.3906 213.568L198.166 519.751L504.349 342.976L327.574 36.7928Z" fill="#EA6918"/>
<path d="M328.967 39.2591L22.7837 216.034L199.559 522.217L505.742 345.442L328.967 39.2591Z" fill="#EB6A18"/>
<path d="M330.398 41.7131L24.215 218.488L200.99 524.671L507.173 347.896L330.398 41.7131Z" fill="#EB6B19"/>
<path d="M331.804 44.1792L25.6209 220.954L202.396 527.137L508.579 350.362L331.804 44.1792Z" fill="#EB6C19"/>
<path d="M333.274 46.6264L27.0904 223.401L203.865 529.585L510.049 352.81L333.274 46.6264Z" fill="#EB6D19"/>
<path d="M334.667 49.0992L28.4835 225.874L205.258 532.057L511.442 355.282L334.667 49.0992Z" fill="#EC6E19"/>
<path d="M336.111 51.5781L29.9276 228.353L206.703 534.536L512.886 357.761L336.111 51.5781Z" fill="#EC6F19"/>
<path d="M337.504 54.0446L31.3207 230.82L208.096 537.003L514.279 360.228L337.504 54.0446Z" fill="#EC7019"/>
<path d="M338.935 56.4982L32.7521 233.273L209.527 539.456L515.71 362.681L338.935 56.4982Z" fill="#EC7119"/>
<path d="M340.354 58.9646L34.1707 235.74L210.946 541.923L517.129 365.148L340.354 58.9646Z" fill="#ED7219"/>
<path d="M341.811 61.412L35.6274 238.187L212.402 544.37L518.586 367.595L341.811 61.412Z" fill="#ED731A"/>
<path d="M343.203 63.8847L37.0197 240.66L213.795 546.843L519.978 370.068L343.203 63.8847Z" fill="#ED741A"/>
<path d="M344.622 66.3766L38.4384 243.152L215.213 549.335L521.397 372.56L344.622 66.3766Z" fill="#ED751A"/>
<path d="M346.053 68.8303L39.8696 245.605L216.645 551.788L522.828 375.013L346.053 68.8303Z" fill="#EE761A"/>
<path d="M347.446 71.2968L41.2628 248.072L218.038 554.255L524.221 377.48L347.446 71.2968Z" fill="#EE771A"/>
<path d="M348.89 73.7502L42.7068 250.525L219.482 556.708L525.665 379.933L348.89 73.7502Z" fill="#EE781A"/>
<path d="M350.321 76.2166L44.1382 252.992L220.913 559.175L527.096 382.4L350.321 76.2166Z" fill="#EF791A"/>
<path d="M351.753 78.6704L45.5695 255.445L222.344 561.628L528.528 384.854L351.753 78.6704Z" fill="#EF7A1B"/>
<path d="M353.159 81.1622L46.9753 257.937L223.75 564.12L529.934 387.345L353.159 81.1622Z" fill="#EF7B1B"/>
<path d="M354.59 83.6157L48.4067 260.391L225.182 566.574L531.365 389.799L354.59 83.6157Z" fill="#EF7C1B"/>
<path d="M355.982 86.0824L49.799 262.857L226.574 569.041L532.757 392.266L355.982 86.0824Z" fill="#F07D1B"/>
<path d="M357.426 88.5297L51.243 265.305L228.018 571.488L534.201 394.713L357.426 88.5297Z" fill="#F07E1B"/>
<path d="M358.858 91.0022L52.6743 267.777L229.449 573.96L535.632 397.185L358.858 91.0022Z" fill="#F07F1B"/>
<path d="M360.289 93.456L54.1057 270.231L230.881 576.414L537.064 399.639L360.289 93.456Z" fill="#F0801B"/>
<path d="M361.695 95.9478L55.5115 272.723L232.286 578.906L538.47 402.131L361.695 95.9478Z" fill="#F1801C"/>
<path d="M363.126 98.4017L56.9429 275.177L233.718 581.36L539.901 404.585L363.126 98.4017Z" fill="#F1811C"/>
<path d="M364.519 100.868L58.336 277.643L235.111 583.826L541.294 407.051L364.519 100.868Z" fill="#F1821C"/>
<path d="M365.963 103.315L59.78 280.09L236.555 586.273L542.738 409.498L365.963 103.315Z" fill="#F1831C"/>
<path d="M367.395 105.788L61.2114 282.563L237.986 588.746L544.17 411.971L367.395 105.788Z" fill="#F2841C"/>
<path d="M368.826 108.242L62.6427 285.017L239.418 591.2L545.601 414.425L368.826 108.242Z" fill="#F2851C"/>
<path d="M370.244 110.733L64.0613 287.508L240.836 593.691L547.019 416.916L370.244 110.733Z" fill="#F2861C"/>
<path d="M371.662 113.187L65.479 289.962L242.254 596.145L548.437 419.37L371.662 113.187Z" fill="#F2871D"/>
<path d="M373.068 115.653L66.8849 292.428L243.66 598.611L549.843 421.836L373.068 115.653Z" fill="#F3881D"/>
<path d="M374.487 118.075L68.3035 294.85L245.078 601.033L551.262 424.258L374.487 118.075Z" fill="#F3891D"/>
<path d="M375.943 120.573L69.7603 297.348L246.535 603.532L552.718 426.757L375.943 120.573Z" fill="#F38A1D"/>
<path d="M377.362 123.021L71.1788 299.796L247.954 605.979L554.137 429.204L377.362 123.021Z" fill="#F48B1D"/>
<path d="M378.768 125.494L72.5847 302.269L249.36 608.452L555.543 431.677L378.768 125.494Z" fill="#F48C1D"/>
<path d="M380.212 127.973L74.0288 304.748L250.804 610.931L556.987 434.156L380.212 127.973Z" fill="#F48D1D"/>
<path d="M381.605 130.439L75.4219 307.214L252.197 613.397L558.38 436.622L381.605 130.439Z" fill="#F48E1E"/>
<path d="M383.037 132.861L76.8533 309.635L253.628 615.819L559.811 439.044L383.037 132.861Z" fill="#F58F1E"/>
<path d="M384.48 135.359L78.2973 312.134L255.072 618.317L561.255 441.542L384.48 135.359Z" fill="#F5901E"/>
<path d="M385.899 137.806L79.7159 314.581L256.491 620.764L562.674 443.989L385.899 137.806Z" fill="#F5911E"/>
<path d="M387.304 140.279L81.1209 317.054L257.896 623.237L564.079 446.462L387.304 140.279Z" fill="#F5921E"/>
<path d="M388.748 142.758L82.5649 319.533L259.34 625.716L565.523 448.941L388.748 142.758Z" fill="#F6931E"/>
<path d="M390.141 145.225L83.9581 322L260.733 628.183L566.916 451.408L390.141 145.225Z" fill="#F6941E"/>
<path d="M391.573 147.646L85.3894 324.421L262.164 630.605L568.348 453.83L391.573 147.646Z" fill="#F6951E"/>
<path d="M393.017 150.145L86.8335 326.92L263.608 633.103L569.792 456.328L393.017 150.145Z" fill="#F6961F"/>
<path d="M394.448 152.592L88.2648 329.367L265.04 635.55L571.223 458.775L394.448 152.592Z" fill="#F7971F"/>
<path d="M395.841 155.065L89.658 331.84L266.433 638.023L572.616 461.248L395.841 155.065Z" fill="#F7981F"/>
<path d="M397.285 157.544L91.102 334.319L267.877 640.502L574.06 463.727L397.285 157.544Z" fill="#F7991F"/>
<path d="M398.678 160.01L92.4951 336.785L269.27 642.968L575.453 466.193L398.678 160.01Z" fill="#F79A1F"/>
<path d="M400.11 162.432L93.9265 339.207L270.701 645.39L576.885 468.615L400.11 162.432Z" fill="#F89B1F"/>
<path d="M401.554 164.93L95.3705 341.705L272.145 647.888L578.329 471.113L401.554 164.93Z" fill="#F89C1F"/>
<path d="M402.985 167.377L96.8018 344.152L273.577 650.335L579.76 473.561L402.985 167.377Z" fill="#F89D20"/>
<path d="M404.377 169.85L98.1941 346.625L274.969 652.808L581.152 476.033L404.377 169.85Z" fill="#F89E20"/>
<path d="M405.796 172.342L99.6127 349.117L276.388 655.3L582.571 478.525L405.796 172.342Z" fill="#F99F20"/>
<path d="M407.227 174.796L101.044 351.571L277.819 657.754L584.002 480.979L407.227 174.796Z" fill="#F9A020"/>
</g>
</g>
<defs>
<linearGradient id="paint0_linear_2812_87301" x1="189.407" y1="151.684" x2="174.555" y2="128.456" gradientUnits="userSpaceOnUse">
<stop stop-color="#FF9200"/>
<stop offset="0.21" stop-color="#FF8D00"/>
<stop offset="0.45" stop-color="#FF7F00"/>
<stop offset="0.62" stop-color="#FF7100"/>
<stop offset="0.82" stop-color="#FF5E00"/>
<stop offset="1" stop-color="#FF5200"/>
</linearGradient>
<linearGradient id="paint1_linear_2812_87301" x1="187.052" y1="151.389" x2="165.362" y2="108.958" gradientUnits="userSpaceOnUse">
<stop stop-color="#FF7100" stop-opacity="0"/>
<stop offset="0.03" stop-color="#FF6D00" stop-opacity="0.03"/>
<stop offset="0.21" stop-color="#FF5900" stop-opacity="0.25"/>
<stop offset="0.39" stop-color="#FF4800" stop-opacity="0.42"/>
<stop offset="0.56" stop-color="#FF3B00" stop-opacity="0.56"/>
<stop offset="0.72" stop-color="#FF3200" stop-opacity="0.66"/>
<stop offset="0.86" stop-color="#FF2C00" stop-opacity="0.72"/>
<stop offset="0.98" stop-color="#FF2B00" stop-opacity="0.74"/>
</linearGradient>
</defs>
</svg>
