<?xml version="1.0" encoding="UTF-8"?>
<svg width="120px" height="90px" viewBox="0 0 120 90" version="1.1" xmlns="http://www.w3.org/2000/svg" xmlns:xlink="http://www.w3.org/1999/xlink">
    <title>creditcard_jcb</title>
    <defs>
        <linearGradient x1="-57.5270968%" y1="50.1241953%" x2="232.39121%" y2="50.1241953%" id="linearGradient-1">
            <stop stop-color="#007940" offset="0%"></stop>
            <stop stop-color="#00873F" offset="22.85%"></stop>
            <stop stop-color="#40A737" offset="74.33%"></stop>
            <stop stop-color="#5CB531" offset="100%"></stop>
        </linearGradient>
        <linearGradient x1="0.182516704%" y1="49.95997%" x2="100.273441%" y2="49.95997%" id="linearGradient-2">
            <stop stop-color="#007940" offset="0%"></stop>
            <stop stop-color="#00873F" offset="22.85%"></stop>
            <stop stop-color="#40A737" offset="74.33%"></stop>
            <stop stop-color="#5CB531" offset="100%"></stop>
        </linearGradient>
        <linearGradient x1="-62.8015845%" y1="49.8578253%" x2="253.671294%" y2="49.8578253%" id="linearGradient-3">
            <stop stop-color="#007940" offset="0%"></stop>
            <stop stop-color="#00873F" offset="22.85%"></stop>
            <stop stop-color="#40A737" offset="74.33%"></stop>
            <stop stop-color="#5CB531" offset="100%"></stop>
        </linearGradient>
        <linearGradient x1="0.175556793%" y1="50.0058048%" x2="101.808162%" y2="50.0058048%" id="linearGradient-4">
            <stop stop-color="#1F286F" offset="0%"></stop>
            <stop stop-color="#004E94" offset="47.51%"></stop>
            <stop stop-color="#0066B1" offset="82.61%"></stop>
            <stop stop-color="#006FBC" offset="100%"></stop>
        </linearGradient>
        <linearGradient x1="-0.575855512%" y1="49.9142191%" x2="98.13299%" y2="49.9142191%" id="linearGradient-5">
            <stop stop-color="#6C2C2F" offset="0%"></stop>
            <stop stop-color="#882730" offset="17.35%"></stop>
            <stop stop-color="#BE1833" offset="57.31%"></stop>
            <stop stop-color="#DC0436" offset="85.85%"></stop>
            <stop stop-color="#E60039" offset="100%"></stop>
        </linearGradient>
    </defs>
    <g id="LOGO-+-SDK-+-payment-icon" stroke="none" stroke-width="1" fill="none" fill-rule="evenodd">
        <g id="payment" transform="translate(-218.000000, -1355.000000)">
            <g id="creditcard_jcb" transform="translate(218.000000, 1355.000000)">
                <g id="payment-4:3bg" transform="translate(-20.000000, -15.000000)"></g>
                <g id="JCB" transform="translate(12.000000, 8.000000)" fill-rule="nonzero">
                    <path d="M96,59.0825396 C96,67.3047619 89.3105129,74 81.0953545,74 L0,74 L0,14.9174604 C0,6.6952381 6.68948652,0 14.9046454,0 L96,0 L96,59.0825396 Z" id="path6325" fill="#FFFFFF"></path>
                    <g id="g6327" transform="translate(64.251969, 5.402412)">
                        <path d="M5.29133856,38.6852504 L11.4645669,38.6852504 C11.6409448,38.6852504 12.0524934,38.6269017 12.2288714,38.6269017 C13.4047243,38.3935065 14.4041995,37.3432282 14.4041995,35.8845083 C14.4041995,34.4841373 13.4047243,33.433859 12.2288714,33.142115 C12.0524934,33.0837662 11.6997375,33.0837662 11.4645669,33.0837662 L5.29133856,33.0837662 L5.29133856,38.6852504 Z" id="path6338" fill="url(#linearGradient-1)"></path>
                        <path d="M10.7590551,0 C4.87979001,0 0.0587926507,4.72625232 0.0587926507,10.6194805 L0.0587926507,21.6474026 L15.1685039,21.6474026 C15.5212598,21.6474026 15.9328084,21.6474026 16.2267716,21.7057514 C19.6367453,21.8807978 22.1648293,23.6312616 22.1648293,26.6653989 C22.1648293,29.0576994 20.4598425,31.0999072 17.2850393,31.5083488 L17.2850393,31.6250464 C20.7538057,31.8584415 23.399475,33.7839517 23.399475,36.7597402 C23.399475,39.9689239 20.4598425,42.0694805 16.5795275,42.0694805 L0,42.0694805 L0,63.6585343 L15.6976378,63.6585343 C21.5769028,63.6585343 26.3979001,58.932282 26.3979001,53.0390538 L26.3979001,0 L10.7590551,0 Z" id="path6349" fill="url(#linearGradient-2)"></path>
                        <path d="M13.6398949,27.3655844 C13.6398949,25.9652134 12.6404199,25.0316327 11.4645669,24.8565863 C11.3469816,24.8565863 11.0530183,24.7982374 10.8766404,24.7982374 L5.29133856,24.7982374 L5.29133856,29.9329313 L10.8766404,29.9329313 C11.0530183,29.9329313 11.4057742,29.9329313 11.4645669,29.8745825 C12.6404199,29.6995362 13.6398949,28.7659555 13.6398949,27.3655844 L13.6398949,27.3655844 Z" id="path6360" fill="url(#linearGradient-3)"></path>
                    </g>
                    <path d="M15.3184504,4.53061224 C9.42609119,4.53061224 4.59435664,9.30022471 4.59435664,15.2475192 L4.59435664,41.6864819 C7.59945981,43.1585845 10.7224102,44.1007302 13.8453606,44.1007302 C17.5575469,44.1007302 19.560949,41.8631343 19.560949,38.8011608 L19.560949,26.3177308 L28.7530293,26.3177308 L28.7530293,38.7422767 C28.7530293,43.5707733 25.7479262,47.5160082 15.5541447,47.5160082 C9.3671676,47.5160082 4.53543305,46.1616738 4.53543305,46.1616738 L4.53543305,68.7142857 L20.2680321,68.7142857 C26.1603913,68.7142857 30.9921259,63.9446733 30.9921259,57.9973787 L30.9921259,4.53061224 L15.3184504,4.53061224 Z" id="path6371" fill="url(#linearGradient-4)"></path>
                    <path d="M45.4957471,4.53061224 C39.603388,4.53061224 34.7716534,9.29148916 34.7716534,15.2278912 L34.7716534,29.2166405 C37.4821386,26.9243664 42.196026,25.45496 49.7971694,25.8076176 C53.8628972,25.9839464 58.223243,27.1006952 58.223243,27.1006952 L58.223243,31.626467 C56.0430701,30.5097182 53.4504321,29.5105218 50.0917873,29.2754167 C44.3172753,28.8639829 40.8407834,31.6852434 40.8407834,36.622449 C40.8407834,41.6184309 44.3172753,44.4396913 50.0917873,43.9694812 C53.4504321,43.7343762 56.0430701,42.6764036 58.223243,41.6184309 L58.223243,46.1442027 C58.223243,46.1442027 53.9218208,47.2609516 49.7971694,47.4372804 C42.196026,47.789938 37.4821386,46.3205315 34.7716534,44.0282575 L34.7716534,68.7142857 L50.5042525,68.7142857 C56.3966117,68.7142857 61.2283462,63.9534088 61.2283462,58.0170068 L61.2283462,4.53061224 L45.4957471,4.53061224 Z" id="path6384" fill="url(#linearGradient-5)"></path>
                </g>
            </g>
        </g>
    </g>
</svg>