<svg width="120" height="90" viewBox="0 0 120 90" fill="none" xmlns="http://www.w3.org/2000/svg">
<path d="M11.0977 15.9808V73.3526C11.0977 74.5602 12.0857 75.5482 13.2933 75.5482H74.2001C91.2491 75.5482 105.082 61.7267 105.082 44.6667C105.082 27.6176 91.2601 13.7852 74.2001 13.7852H13.2933C12.0857 13.7852 11.0977 14.7732 11.0977 15.9808Z" fill="white"/>
<path d="M18.5191 37.7305H14.6328V51.3214H18.5081C20.561 51.3214 22.054 50.8384 23.3604 49.7515C24.9084 48.4671 25.8305 46.5349 25.8305 44.5369C25.8305 40.5299 22.8335 37.7305 18.5301 37.7305H18.5191ZM21.6149 47.9402C20.7806 48.6867 19.7047 49.016 17.9921 49.016H17.2785V40.0249H17.9921C19.7047 40.0249 20.7476 40.3323 21.6149 41.1227C22.5371 41.9351 23.086 43.2086 23.086 44.504C23.086 45.7994 22.5371 47.1168 21.6149 47.9292V47.9402Z" fill="#221E1F"/>
<path d="M29.6848 37.7305H27.0391V51.3214H29.6848V37.7305Z" fill="#221E1F"/>
<path d="M36.1727 42.942C34.5808 42.3492 34.1198 41.9649 34.1198 41.2294C34.1198 40.3731 34.9541 39.7254 36.0958 39.7254C36.8863 39.7254 37.5449 40.0547 38.2366 40.8232L39.6198 39.0118C38.4781 38.0128 37.1168 37.5078 35.6238 37.5078C33.2195 37.5078 31.3862 39.1765 31.3862 41.4051C31.3862 43.2823 32.2425 44.2374 34.7345 45.1266C35.7665 45.4889 36.3044 45.7414 36.5679 45.8951C37.0948 46.2354 37.3583 46.7295 37.3583 47.3003C37.3583 48.3981 36.4801 49.2215 35.2944 49.2215C34.0319 49.2215 33.011 48.5848 32.3962 47.4101L30.6836 49.0568C31.9022 50.8463 33.3732 51.6477 35.3932 51.6477C38.1487 51.6477 40.0809 49.8143 40.0809 47.1905C40.0809 45.0278 39.1917 44.0508 36.1727 42.953V42.942Z" fill="#221E1F"/>
<path d="M40.9141 44.5326C40.9141 48.5286 44.0538 51.6244 48.0828 51.6244C49.2245 51.6244 50.2016 51.4049 51.4092 50.834V47.7162C50.3443 48.7811 49.4112 49.2092 48.2036 49.2092C45.5359 49.2092 43.6366 47.2771 43.6366 44.5216C43.6366 41.9088 45.5908 39.8559 48.0828 39.8559C49.3453 39.8559 50.3004 40.306 51.4092 41.3818V38.264C50.2455 37.6712 49.2904 37.4297 48.1487 37.4297C44.1307 37.4297 40.9141 40.5914 40.9141 44.5435V44.5326Z" fill="#221E1F"/>
<path d="M72.4312 46.8533L68.7974 37.7305H65.9102L71.6737 51.6617H73.1008L78.9742 37.7305H76.0979L72.4312 46.8533Z" fill="#221E1F"/>
<path d="M80.1719 51.3214H87.6919V49.016H82.8176V45.3493H87.5053V43.0439H82.8176V40.0359H87.6919V37.7305H80.1719V51.3214Z" fill="#221E1F"/>
<path d="M98.1839 41.7375C98.1839 39.1906 96.4274 37.7305 93.3755 37.7305H89.4453V51.3214H92.091V45.8653H92.4423L96.1091 51.3214H99.3696L95.0881 45.5908C97.0861 45.1846 98.1839 43.8233 98.1839 41.7375ZM92.8595 43.988H92.0801V39.8712H92.8925C94.5392 39.8712 95.4394 40.5628 95.4394 41.8912C95.4394 43.2195 94.5392 43.988 92.8485 43.988H92.8595Z" fill="#221E1F"/>
<path d="M100.295 38.4436C100.295 38.202 100.131 38.0703 99.8452 38.0703H99.4609V39.2669H99.7464V38.8058L100.087 39.2669H100.438L100.043 38.7729C100.207 38.729 100.306 38.6082 100.306 38.4436H100.295ZM99.7903 38.6082H99.7464V38.2899H99.8013C99.944 38.2899 100.021 38.3448 100.021 38.4436C100.021 38.5424 99.944 38.6082 99.8013 38.6082H99.7903Z" fill="#221E1F"/>
<path d="M99.8984 37.6172C99.3165 37.6172 98.8555 38.0783 98.8555 38.6601C98.8555 39.242 99.3275 39.703 99.8984 39.703C100.469 39.703 100.93 39.231 100.93 38.6601C100.93 38.0892 100.469 37.6172 99.8984 37.6172ZM99.8984 39.5274C99.4373 39.5274 99.064 39.1432 99.064 38.6711C99.064 38.199 99.4373 37.8148 99.8984 37.8148C100.359 37.8148 100.722 38.21 100.722 38.6711C100.722 39.1322 100.348 39.5274 99.8984 39.5274Z" fill="#221E1F"/>
<path d="M66.6572 44.5025C66.6572 48.4765 63.4406 51.7041 59.4556 51.7041C55.4705 51.7041 52.2539 48.4875 52.2539 44.5025C52.2539 40.5174 55.4705 37.3008 59.4556 37.3008C63.4406 37.3008 66.6572 40.5174 66.6572 44.5025Z" fill="#F47921"/>
<path d="M106.707 12.6875H13.2934C11.4711 12.6875 10 14.1586 10 15.9809V73.3528C10 75.1751 11.4711 76.6462 13.2934 76.6462H106.707C108.529 76.6462 110 75.1751 110 73.3528V15.9809C110 14.1586 108.529 12.6875 106.707 12.6875ZM105.082 44.6669C105.082 61.7159 91.2603 75.5484 74.2002 75.5484H13.2934C12.0858 75.5484 11.0978 74.5604 11.0978 73.3528V15.9809C11.0978 14.7733 12.0858 13.7853 13.2934 13.7853H74.2002C91.2493 13.7853 105.082 27.6068 105.082 44.6669Z" fill="#F47921"/>
</svg>
