<?xml version="1.0" encoding="UTF-8"?>
<svg width="120px" height="90px" viewBox="0 0 120 90" version="1.1" xmlns="http://www.w3.org/2000/svg" xmlns:xlink="http://www.w3.org/1999/xlink">
    <title>dana</title>
    <g id="LOGO-+-SDK-+-payment-icon" stroke="none" stroke-width="1" fill="none" fill-rule="evenodd">
        <g id="payment" transform="translate(-2638.000000, -555.000000)">
            <g id="dana" transform="translate(2638.000000, 555.000000)">
                <g id="payment-4:3bg" transform="translate(-20.000000, -15.000000)"></g>
                <path d="M47.1607143,40.8596814 L47.1607143,41.4460784 L47.1785714,41.4460784 L47.1785714,48.625 L47.1607143,48.625 L47.1607143,49.2113971 L49.5178571,49.2113971 C51.6607143,49.0692402 53.375,47.2567402 53.375,45.0355392 C53.375,42.8143382 51.6607143,41.0018382 49.5,40.8596814 L47.1607143,40.8596814 Z M49.1964286,37.7144608 C49.2142857,37.7144608 49.2321429,37.7144608 49.25,37.7144608 C49.2678571,37.7144608 49.2857143,37.7144608 49.3035714,37.7144608 L49.5357143,37.7144608 L49.5,37.7322304 C53.375,37.8743873 56.4821429,41.0906863 56.4821429,45.0533088 C56.4821429,49.0159314 53.375,52.25 49.4821429,52.3743873 L49.5357143,52.3921569 L47.1607143,52.3921569 L47.1428571,52.3921569 L44.0357143,52.3921569 L44.0357143,50.1531863 L44.0357143,39.971201 L44.0357143,37.7144608 L47.1428571,37.7144608 L47.1607143,37.7144608 L49.1964286,37.7144608 Z M79.75,43.8627451 C79.8214286,40.4509804 82.5714286,37.7144608 85.9464286,37.7144608 C89.3392857,37.7144608 92.0892857,40.4509804 92.1607143,43.8627451 L92.1785714,43.8627451 L92.1785714,52.3743873 L89.0714286,52.3743873 L89.0714286,43.9871324 C89.0535714,42.2634804 87.6785714,40.8596814 85.9642857,40.8596814 C84.25,40.8596814 82.875,42.2634804 82.8571429,43.9871324 L82.8571429,43.9871324 L82.8571429,52.3743873 L79.75,52.3743873 L79.75,43.8627451 L79.75,43.8627451 Z M100.678571,43.9871324 L100.678571,46.0839461 L106.892857,46.0839461 L106.892857,43.9871324 C106.875,42.2634804 105.5,40.8596814 103.785714,40.8596814 C102.071429,40.8596814 100.678571,42.2634804 100.678571,43.9871324 Z M97.5714286,43.8627451 C97.6428571,40.4509804 100.392857,37.7144608 103.785714,37.7144608 C107.178571,37.7144608 109.910714,40.4509804 110,43.8627451 L110,43.8627451 L110,46.0839461 L110,49.2291667 L110,52.3743873 L106.892857,52.3743873 L106.892857,49.2291667 L100.678571,49.2291667 L100.678571,52.3743873 L97.5714286,52.3743873 L97.5714286,49.2291667 L97.5714286,46.0839461 L97.5714286,43.8627451 L97.5714286,43.8627451 Z M65,43.9871324 L65,46.0839461 L71.2142857,46.0839461 L71.2142857,43.9871324 C71.1964286,42.2634804 69.8214286,40.8596814 68.1071429,40.8596814 C66.3928571,40.8596814 65.0178571,42.2634804 65,43.9871324 M61.8928571,43.8627451 C61.9642857,40.4509804 64.7142857,37.7144608 68.1071429,37.7144608 C71.5,37.7144608 74.25,40.4509804 74.3214286,43.8627451 L74.3214286,43.8627451 L74.3214286,46.0839461 L74.3214286,49.2291667 L74.3214286,52.3743873 L71.2142857,52.3743873 L71.2142857,49.2291667 L65,49.2291667 L65,52.3743873 L61.8928571,52.3743873 L61.8928571,49.2291667 L61.8928571,46.0839461 L61.8928571,43.8627451 L61.8928571,43.8627451 Z M20.4821429,41.7481618 C21.7857143,41.5526961 23,41.0373775 24.2321429,40.5753676 C25.2321429,40.2022059 26.2321429,39.8112745 27.25,39.5269608 C29,39.0294118 30.6964286,39.1715686 32.2678571,40.2199755 C32.5535714,40.4154412 32.6964286,40.6642157 32.6964286,41.0196078 C32.6964286,42.2457108 32.6964286,43.4718137 32.6964286,44.6979167 L32.6964286,45.0355392 L32.6964286,49.0692402 C32.6964286,49.3890931 32.5892857,49.4601716 32.3035714,49.2824755 C31.125,48.536152 29.8214286,48.2873775 28.4464286,48.4295343 C27.5,48.5183824 26.5892857,48.7671569 25.6964286,49.0692402 C24.6785714,49.4246324 23.6607143,49.7800245 22.625,50.1176471 C21.6964286,50.4197304 20.7678571,50.6329657 19.7857143,50.6862745 C18.5357143,50.7395833 17.375,50.4552696 16.3035714,49.7800245 C16.0535714,49.620098 15.9464286,49.3713235 15.9464286,49.0870098 C15.9464286,47.629902 15.9464286,46.1727941 15.9464286,44.7156863 L15.9464286,42.6721814 C15.9464286,42.1213235 15.9464286,41.5704657 15.9464286,41.0196078 C15.9464286,40.9307598 15.9821429,40.7886029 16.0535714,40.7530637 C16.1071429,40.7175245 16.25,40.7708333 16.3214286,40.8241422 C16.8928571,41.2150735 17.5178571,41.5171569 18.1964286,41.6770833 C18.625,41.783701 19.0535714,41.8370098 19.5,41.8370098 C19.8214286,41.8192402 20.1607143,41.783701 20.4821429,41.7481618 M10,45 C10,36.9859069 16.4107143,30.5 24.3214286,30.5 C32.2321429,30.5 38.6428571,37.0036765 38.6428571,45 C38.6428571,53.0140931 32.2321429,59.5 24.3214286,59.5 C16.4107143,59.5 10,53.0140931 10,45" id="形状" fill="#108EE9"></path>
            </g>
        </g>
    </g>
</svg>