<?xml version="1.0" encoding="UTF-8"?>
<svg width="120px" height="90px" viewBox="0 0 120 90" version="1.1" xmlns="http://www.w3.org/2000/svg" xmlns:xlink="http://www.w3.org/1999/xlink">
    <title>docomopay</title>
    <g id="LOGO-+-SDK-+-payment-icon" stroke="none" stroke-width="1" fill="none" fill-rule="evenodd">
        <g id="payment" transform="translate(-218.000000, -1155.000000)">
            <g id="docomopay" transform="translate(218.000000, 1155.000000)">
                <g id="payment-4:3bg" transform="translate(-20.000000, -15.000000)"></g>
                <g id="dharai" transform="translate(19.000000, 4.000000)">
                    <g id="编组" fill="#BE1733">
                        <path d="M81.9510448,64.1068657 C81.9510448,73.8881194 73.8881194,81.9510448 64.1068657,81.9510448 L17.8441791,81.9510448 C8.06292537,81.9510448 0,73.8881194 0,64.1068657 L0,17.8441791 C0,8.06292537 8.06292537,0 17.8441791,0 L64.1068657,0 C73.8881194,0 81.9510448,8.06292537 81.9510448,17.8441791 L81.9510448,64.1068657 Z" id="Fill-1"></path>
                    </g>
                    <path d="M12.8213731,36.0848955 C12.689194,33.8378507 14.5397015,31.9873433 16.9189254,31.8551642 C17.0511045,31.8551642 17.0511045,31.8551642 17.1832836,31.8551642 C19.4303284,31.7229851 21.4130149,33.4413134 21.545194,35.6883582 C21.545194,35.8205373 21.545194,35.8205373 21.545194,35.9527164 L21.545194,36.2170746 C21.6773731,38.4641194 19.8268657,40.3146269 17.5798209,40.3146269 C17.4476418,40.3146269 17.4476418,40.3146269 17.3154627,40.3146269 C14.9362388,40.3146269 13.0857313,38.5962985 12.9535522,36.3492537 C12.8213731,36.3492537 12.8213731,36.2170746 12.8213731,36.0848955 M21.4130149,19.8268657 L21.4130149,28.4185075 C20.0912239,27.7576119 18.6372537,27.3610746 17.0511045,27.3610746 C12.0282985,27.3610746 7.93074627,31.3264478 7.93074627,36.0848955 C7.93074627,40.8433433 12.0282985,44.9408955 17.0511045,44.9408955 C21.545194,44.9408955 23.2635224,42.8260299 26.4358209,41.3720597 L26.4358209,19.8268657 L21.4130149,19.8268657" id="Fill-3" fill="#FFFFFF"></path>
                    <path d="M48.9062687,43.6191045 C48.6419104,42.6938507 48.3775522,41.768597 48.2453731,40.9755224 C45.0730746,42.0329552 41.768597,42.6938507 38.4641194,43.0903881 L37.8032239,40.3146269 C38.3319403,40.3146269 38.9928358,40.1824478 39.257194,40.0502687 C40.9755224,34.7631045 42.2973134,29.3437612 43.2225672,23.7922388 L46.1305075,24.3209552 C45.0730746,29.7402985 43.8834627,34.6309254 42.4294925,39.5215522 C44.0156418,39.257194 45.7339701,38.8606567 47.3201194,38.3319403 C46.791403,36.745791 46.2626866,35.424 45.601791,33.8378507 L47.9810149,32.6482388 C49.4349851,35.8205373 50.624597,38.9928358 51.5498507,42.2973134 L48.9062687,43.6191045 Z M32.5160597,40.7111642 L32.7804179,40.7111642 C35.0274627,40.7111642 35.0274627,40.7111642 35.0274627,39.5215522 L35.0274627,36.4814328 C34.2343881,36.745791 33.1769552,37.0101493 32.2517015,37.1423284 L31.7229851,34.4987463 C32.912597,34.2343881 34.102209,33.9700299 35.0274627,33.7056716 L35.0274627,29.8724776 L32.2517015,29.8724776 L32.2517015,27.2288955 L35.0274627,27.2288955 L35.0274627,23.7922388 L37.6710448,23.7922388 L37.6710448,27.2288955 L40.1824478,27.2288955 L40.1824478,29.8724776 L37.6710448,29.8724776 L37.6710448,32.912597 C38.8606567,32.5160597 39.6537313,32.1195224 40.0502687,31.8551642 L40.0502687,34.4987463 C39.257194,34.8952836 38.4641194,35.2918209 37.6710448,35.5561791 L37.6710448,39.6537313 C37.6710448,42.6938507 37.5388657,43.3547463 33.5734925,43.4869254 L32.5160597,40.7111642 Z" id="Fill-5" fill="#FFFFFF"></path>
                    <path d="M69.6583881,40.3146269 C69.6583881,34.7631045 68.9974925,30.401194 65.6930149,25.6427463 L69.1296716,25.6427463 C71.3767164,29.079403 72.6985075,33.3091343 72.6985075,40.3146269 L69.6583881,40.3146269 Z M64.2390448,40.446806 C62.7850746,41.5042388 61.1989254,42.1651343 59.3484179,42.2973134 C56.4404776,42.2973134 54.0612537,39.9180896 54.0612537,33.4413134 C54.0612537,30.6655522 54.457791,27.7576119 54.9865075,25.1140299 L58.158806,25.1140299 C57.4979104,28.0219701 57.2335522,30.9299104 57.2335522,33.8378507 C57.2335522,37.2745075 58.158806,39.3893731 59.8771343,39.3893731 C61.4632836,39.3893731 63.1816119,38.0675821 64.3712239,37.1423284 L64.3712239,40.446806 L64.2390448,40.446806 Z" id="Fill-7" fill="#FFFFFF"></path>
                    <path d="M27.7576119,60.1414925 C27.7576119,63.4459701 25.1140299,66.0895522 21.8095522,66.0895522 C18.5050746,66.0895522 15.8614925,63.4459701 15.8614925,60.1414925 C15.8614925,56.8370149 18.5050746,54.1934328 21.8095522,54.1934328 C25.1140299,54.1934328 27.7576119,56.8370149 27.7576119,60.1414925" id="Fill-9" fill="#E4DB63"></path>
                    <path d="M46.2626866,60.1414925 C46.2626866,63.4459701 43.6191045,66.0895522 40.3146269,66.0895522 C37.0101493,66.0895522 34.3665672,63.4459701 34.3665672,60.1414925 C34.3665672,56.8370149 37.0101493,54.1934328 40.3146269,54.1934328 L40.3146269,54.1934328 C43.6191045,54.1934328 46.2626866,56.8370149 46.2626866,60.1414925" id="Fill-11" fill="#E4DB63"></path>
                    <path d="M64.7677612,60.1414925 C64.7677612,63.4459701 62.1241791,66.0895522 58.8197015,66.0895522 C55.5152239,66.0895522 52.8716418,63.4459701 52.8716418,60.1414925 C52.8716418,56.8370149 55.5152239,54.1934328 58.8197015,54.1934328 L58.8197015,54.1934328 C62.1241791,54.1934328 64.7677612,56.8370149 64.7677612,60.1414925" id="Fill-13" fill="#E4DB63"></path>
                </g>
            </g>
        </g>
    </g>
</svg>