<?xml version="1.0" encoding="UTF-8"?>
<svg width="150px" height="46px" viewBox="0 0 150 46" version="1.1" xmlns="http://www.w3.org/2000/svg" xmlns:xlink="http://www.w3.org/1999/xlink">
    <title>docomopay_horizon</title>
    <defs>
        <path d="M8.78431787,0 C3.93911784,0.0126715945 0.0170156278,3.91129884 0,8.71805702 L0,8.71805702 L0,31.2777191 C0.0170156278,36.0844773 3.93911784,39.9873284 8.78431787,40 L8.78431787,40 L31.5086888,40 C36.3538889,39.9873284 40.2759911,36.0844773 40.2887528,31.2777191 L40.2887528,31.2777191 L40.2887528,8.71805702 C40.2717372,3.9155227 36.3538889,0.0168954593 31.5086888,0 L31.5086888,0 L8.78431787,0 Z" id="path-1"></path>
        <path d="M6.63609485,0 L6.63609485,4.21119324 C5.98099318,3.85216473 5.24081337,3.67476241 4.49212575,3.68321014 L4.49212575,3.68321014 C2.01209799,3.68321014 0,5.60084477 0,7.97043295 L0,7.97043295 C0,10.3400211 2.01209799,12.2576558 4.49212575,12.2576558 L4.49212575,12.2576558 C6.72117299,12.2576558 7.56344657,11.2270327 9.09910698,10.5469905 L9.09910698,10.5469905 L9.09910698,0 L6.63609485,0 Z M2.42472697,8.0844773 C2.42047306,8.04646251 2.42472697,8.00422386 2.42472697,7.96620908 L2.42472697,7.96620908 C2.37368008,6.86800422 3.26274664,5.94297782 4.41130151,5.89229145 L4.41130151,5.89229145 C4.45384058,5.89229145 4.50063356,5.89229145 4.54317263,5.89229145 L4.54317263,5.89229145 C5.67045797,5.8500528 6.61907923,6.6906019 6.6658722,7.76768743 L6.6658722,7.76768743 C6.6658722,7.81414995 6.6658722,7.86483633 6.6658722,7.91129884 L6.6658722,7.91129884 L6.6658722,8.02111932 C6.69990346,9.09820486 5.81509081,10.0021119 4.68780547,10.0359029 L4.68780547,10.0359029 C4.64101249,10.0401267 4.58996561,10.0401267 4.54317263,10.0359029 L4.54317263,10.0359029 C4.526157,10.0359029 4.51339528,10.0359029 4.49637965,10.0359029 L4.49637965,10.0359029 C3.36909431,10.0359029 2.44174259,9.17001056 2.42472697,8.0844773 L2.42472697,8.0844773 Z" id="path-3"></path>
        <path d="M1.65476981,0 L1.65476981,1.66842661 L0.272250045,1.66842661 L0.272250045,2.96092925 L1.65476981,2.96092925 L1.65476981,4.81942978 C1.15706269,4.96304118 0.582785253,5.11087645 6.6929795e-13,5.22069694 L6.6929795e-13,5.22069694 L0.29351958,6.55121436 C0.752941531,6.44139388 1.24214083,6.3189018 1.65476981,6.20063358 L1.65476981,6.20063358 L1.65476981,7.67053854 C1.65476981,8.23653643 1.62924636,8.23653643 0.540246184,8.23653643 L0.540246184,8.23653643 L0.421136789,8.23653643 L0.940113438,9.6092925 C2.85437157,9.55860612 2.9351958,9.22069694 2.9351958,7.75079197 L2.9351958,7.75079197 L2.9351958,5.75290391 C3.34357087,5.59239704 3.74343812,5.41499472 4.13054366,5.21224921 L4.13054366,5.21224921 L4.13054366,3.93664203 C3.93486394,4.01689546 3.51372715,4.20696938 2.9351958,4.43083421 L2.9351958,4.43083421 L2.9351958,2.96092925 L4.15181319,2.96092925 L4.15181319,1.66842661 L2.9351958,1.66842661 L2.9351958,0 L1.65476981,0 Z M3.74343812,7.96620908 C3.56902794,7.99577614 3.25849273,8.06758184 3.00751222,8.06758184 L3.00751222,8.06758184 L3.3010318,9.4530095 C4.93027816,9.25448786 6.53825499,8.90390707 8.10794666,8.41816262 L8.10794666,8.41816262 C8.22705606,8.80253432 8.34616545,9.22914467 8.46952875,9.67687434 L8.46952875,9.67687434 L9.74570084,9.01795143 C9.26500935,7.41288279 8.66946238,5.84160507 7.97182164,4.32101373 L7.97182164,4.32101373 L6.82752067,4.9250264 C7.14656369,5.68954593 7.44859108,6.38225977 7.69531769,7.12988384 L7.69531769,7.12988384 C6.91259881,7.39598733 6.1171182,7.59028511 5.30462198,7.72544879 L5.30462198,7.72544879 C6.00651662,5.33474129 6.63609485,2.94825766 7.12954806,0.299894403 L7.12954806,0.299894403 L5.70023532,0.0633579725 C5.24506728,2.74551214 4.58996561,5.38542767 3.74343812,7.96620908 L3.74343812,7.96620908 Z" id="path-5"></path>
        <path d="M0.429644603,0 C0.161648464,1.35163675 0.0170156278,2.72016895 0,4.09292503 L0,4.09292503 C0,7.25237592 1.11452362,8.38859556 2.5651059,8.38859556 L2.5651059,8.38859556 C3.43715682,8.32523759 4.27092258,8.01689546 4.96430942,7.50158395 L4.96430942,7.50158395 L4.96430942,5.82048574 C4.37301635,6.29355861 3.53074277,6.93980993 2.75653171,6.93980993 L2.75653171,6.93980993 C1.90575032,6.93980993 1.45909009,5.91341077 1.45909009,4.2407603 L1.45909009,4.2407603 C1.47185181,2.81309398 1.63350027,1.3938754 1.93978157,0 L1.93978157,0 L0.429644603,0 Z M5.65769625,0.26187962 C7.26567308,2.60190074 7.58897001,4.72228089 7.58897001,7.44667371 L7.58897001,7.44667371 L9.09910698,7.44667371 C9.09910698,4.02956705 8.42698968,1.95564942 7.33373559,0.26187962 L7.33373559,0.26187962 L5.65769625,0.26187962 Z" id="path-7"></path>
        <path d="M0,2.90179514 C0,4.50686378 1.31020334,5.80359029 2.92668799,5.80359029 L2.92668799,5.80359029 C4.53891872,5.80359029 5.84912207,4.50686378 5.84912207,2.90179514 L5.84912207,2.90179514 C5.84912207,1.2967265 4.53891872,0.00422386484 2.92668799,0 L2.92668799,0 C1.31020334,0 0,1.2967265 0,2.90179514 L0,2.90179514 Z" id="path-9"></path>
        <path d="M2.91819054,0 C1.30170589,0.00422386484 -0.00424354414,1.30095037 0,2.90601901 L0,2.90601901 C0.00426426978,4.51108765 1.31446761,5.80781415 2.92669835,5.80360057 L2.92669835,5.80360057 C4.54318299,5.80360057 5.84913243,4.49841605 5.84488888,2.89334741 L5.84488888,2.89334741 C5.84062461,1.2967265 4.53892909,0.00422386484 2.92669835,0 L2.92669835,0 L2.91819054,0 Z" id="path-11"></path>
        <path d="M2.9181905,0 C1.30595977,0.00422386484 -0.00424357765,1.30095037 0,2.90601901 L0,2.90601901 C0.00426423627,4.51108765 1.31446758,5.80781415 2.93095222,5.80360057 L2.93095222,5.80360057 C4.54743687,5.80360057 5.8533863,4.49841605 5.84914276,2.89334741 L5.84914276,2.89334741 C5.84914276,1.2967265 4.54318296,0.00422386484 2.93095222,0 L2.93095222,0 L2.9181905,0 Z" id="path-13"></path>
        <path d="M18.9681711,0 L18.9681711,0.00422386484 L18.9681711,12.4097149 C17.1219755,11.3621964 15.0247994,10.8257656 12.8978459,10.8511088 L12.8978459,10.8511088 C4.47936403,10.8511088 0,17.3727561 0,23.5015839 L0,23.5015839 C0,29.626188 4.47936403,36.1267159 12.8978459,36.1267159 L12.8978459,36.1267159 C19.2276594,36.1267159 21.5928317,33.1151003 25.9913715,31.1087645 L25.9913715,31.1087645 L25.9913715,0 L18.9681711,0 Z M7.01469257,23.4931362 C7.01469257,20.4181626 9.12037652,17.3896515 13.0212092,17.3896515 L13.0212092,17.3896515 C16.9220419,17.3896515 18.9851867,20.2914467 19.0575032,23.3368532 L19.0575032,23.3368532 L19.0575032,23.6536431 C18.9851867,26.7032735 16.9475653,29.5966209 13.0212092,29.5966209 L13.0212092,29.5966209 C9.10336089,29.5966209 7.01469257,26.5850053 7.01469257,23.4931362 L7.01469257,23.4931362 Z" id="path-15"></path>
        <path d="M4.84094612,0 L4.84094612,4.87011616 L0.786972787,4.87011616 L0.786972787,8.67159451 L4.84094612,8.67159451 L4.84094612,14.1795143 C3.38610994,14.593453 1.7100706,15.032735 0,15.3537487 L0,15.3537487 L0.82525795,19.2270327 C2.1992699,18.9313622 3.62858263,18.5765576 4.8281844,18.2259768 L4.8281844,18.2259768 L4.8281844,22.4963041 C4.8281844,24.1393875 4.76012188,24.1774023 1.56543776,24.1774023 L1.56543776,24.1774023 L1.2208713,24.1774023 L2.75653171,28.1731785 C8.39295843,28.0126716 8.61416159,27.062302 8.61416159,22.7286167 L8.61416159,22.7286167 L8.61416159,16.87434 C9.80950944,16.405491 10.9750799,15.8775079 12.115127,15.2903907 L12.115127,15.2903907 L12.115127,11.4593453 C11.5621191,11.7170011 10.3242322,12.2872228 8.61416159,12.9165787 L8.61416159,12.9165787 L8.61416159,8.67159451 L12.115127,8.67159451 L12.115127,4.87011616 L8.61416159,4.87011616 L8.61416159,0 L4.84094612,0 Z M10.9750799,23.3410771 C10.468865,23.4002112 9.54576721,23.5607181 8.81409522,23.6198522 L8.81409522,23.6198522 L9.67338442,27.6789863 C16.4541121,26.6737064 20.4442768,25.7951426 23.8006094,24.6842661 L23.8006094,24.6842661 C24.1536837,25.8204857 24.4982502,27.0538543 24.8513244,28.3843717 L24.8513244,28.3843717 L28.5862548,26.4287223 C27.1697037,21.7148891 25.4256019,17.1108765 23.3582031,12.6420275 L23.3582031,12.6420275 L20.0018705,14.4160507 C20.9504918,16.6589229 21.8353044,18.6821542 22.5627225,20.8701162 L22.5627225,20.8701162 C20.2741206,21.6430834 17.92171,22.2217529 15.5352682,22.6103485 L15.5352682,22.6103485 C17.5941592,15.6198522 19.3893079,8.62090813 20.8909371,0.865892291 L20.8909371,0.865892291 L16.7050926,0.168954593 C15.3693658,8.02534319 13.4551077,15.7676874 10.9750799,23.3410771 L10.9750799,23.3410771 Z" id="path-17"></path>
        <path d="M1.23788692,0 C0.472183672,3.93241816 0.0595546974,7.92397043 0,11.9324182 L0,11.9324182 C0,21.1953537 3.19893803,24.5153115 7.34224341,24.5153115 L7.34224341,24.5153115 C10.2221384,24.5153115 13.0382248,22.7581837 14.1782719,21.9134108 L14.1782719,21.9134108 L14.1782719,17.030623 C12.5064865,18.407603 10.0987751,20.3167899 7.87398178,20.3167899 L7.87398178,20.3167899 C5.440747,20.3167899 4.17733663,17.3093981 4.17733663,12.4012672 L4.17733663,12.4012672 C4.20711398,8.23231257 4.66228202,4.08025343 5.53858686,0 L5.53858686,0 L1.23788692,0 Z M16.1818621,0.713833157 C20.7675738,7.60718057 21.6779099,13.7740232 21.6779099,21.7571278 L21.6779099,21.7571278 L25.9913715,21.7571278 C25.9913715,11.7381204 24.0898751,5.66420275 20.9547457,0.713833157 L20.9547457,0.713833157 L16.1818621,0.713833157 Z" id="path-19"></path>
    </defs>
    <g id="LOGO-+-SDK-+-payment-icon" stroke="none" stroke-width="1" fill="none" fill-rule="evenodd">
        <g id="payment_horizon" transform="translate(-203.000000, -1177.000000)">
            <g id="docomopay_horizon" transform="translate(203.000000, 1177.000000)">
                <g id="payment-4:3bg" transform="translate(-25.000000, -7.666667)"></g>
                <g id="编组" transform="translate(4.000000, 3.000000)">
                    <g>
                        <mask id="mask-2" fill="white">
                            <use xlink:href="#path-1"></use>
                        </mask>
                        <g id="Clip-2"></g>
                        <polygon id="Fill-1" fill="#BD1733" mask="url(#mask-2)" points="-3.24573101 43.2270327 43.5387377 43.2270327 43.5387377 -3.22703273 -3.24573101 -3.22703273"></polygon>
                    </g>
                    <g transform="translate(3.900833, 9.676874)">
                        <mask id="mask-4" fill="white">
                            <use xlink:href="#path-3"></use>
                        </mask>
                        <g id="Clip-4"></g>
                        <polygon id="Fill-3" fill="#FFFFFF" mask="url(#mask-4)" points="-3.24998492 15.4846885 12.344838 15.4846885 12.344838 -3.22703273 -3.24998492 -3.22703273"></polygon>
                    </g>
                    <g transform="translate(15.594823, 11.611404)">
                        <mask id="mask-6" fill="white">
                            <use xlink:href="#path-5"></use>
                        </mask>
                        <g id="Clip-6"></g>
                        <polygon id="Fill-5" fill="#FFFFFF" mask="url(#mask-6)" points="-3.24573101 12.9081309 12.9999397 12.9081309 12.9999397 -3.22280887 -3.24573101 -3.22280887"></polygon>
                    </g>
                    <g transform="translate(26.642219, 12.257656)">
                        <mask id="mask-8" fill="white">
                            <use xlink:href="#path-7"></use>
                        </mask>
                        <g id="Clip-8"></g>
                        <polygon id="Fill-7" fill="#FFFFFF" mask="url(#mask-8)" points="-3.24998492 11.6114044 12.344838 11.6114044 12.344838 -3.22703273 -3.24998492 -3.22703273"></polygon>
                    </g>
                    <g transform="translate(7.797411, 26.454065)">
                        <mask id="mask-10" fill="white">
                            <use xlink:href="#path-9"></use>
                        </mask>
                        <g id="Clip-10"></g>
                        <polygon id="Fill-9" fill="#E3DA63" mask="url(#mask-10)" points="-3.24573101 9.03062302 9.09910698 9.03062302 9.09910698 -3.22703273 -3.24573101 -3.22703273"></polygon>
                    </g>
                    <g transform="translate(16.896508, 26.454065)">
                        <mask id="mask-12" fill="white">
                            <use xlink:href="#path-11"></use>
                        </mask>
                        <g id="Clip-12"></g>
                        <polygon id="Fill-11" fill="#E3DA63" mask="url(#mask-12)" points="-3.24997455 9.03062302 9.09486344 9.03062302 9.09486344 -3.22703273 -3.24997455 -3.22703273"></polygon>
                    </g>
                    <g transform="translate(25.991361, 26.454065)">
                        <mask id="mask-14" fill="white">
                            <use xlink:href="#path-13"></use>
                        </mask>
                        <g id="Clip-14"></g>
                        <polygon id="Fill-13" fill="#E3DA63" mask="url(#mask-14)" points="-3.24997459 9.03062302 9.0948634 9.03062302 9.0948634 -3.22703273 -3.24997459 -3.22703273"></polygon>
                    </g>
                    <g transform="translate(50.030200, 1.938754)">
                        <mask id="mask-16" fill="white">
                            <use xlink:href="#path-15"></use>
                        </mask>
                        <g id="Clip-16"></g>
                        <polygon id="Fill-15" fill="#040000" mask="url(#mask-16)" points="-3.24573101 39.3537487 29.2413564 39.3537487 29.2413564 -3.22703273 -3.24573101 -3.22703273"></polygon>
                    </g>
                    <g transform="translate(83.172389, 8.388596)">
                        <mask id="mask-18" fill="white">
                            <use xlink:href="#path-17"></use>
                        </mask>
                        <g id="Clip-18"></g>
                        <polygon id="Fill-17" fill="#040000" mask="url(#mask-18)" points="-3.24998492 31.6114044 31.8362397 31.6114044 31.8362397 -3.22703273 -3.24998492 -3.22703273"></polygon>
                    </g>
                    <g transform="translate(115.008628, 10.969377)">
                        <mask id="mask-20" fill="white">
                            <use xlink:href="#path-19"></use>
                        </mask>
                        <g id="Clip-20"></g>
                        <polygon id="Fill-19" fill="#040000" mask="url(#mask-20)" points="-3.24998492 27.7423442 29.2371025 27.7423442 29.2371025 -3.22703273 -3.24998492 -3.22703273"></polygon>
                    </g>
                </g>
            </g>
        </g>
    </g>
</svg>