<?xml version="1.0" encoding="UTF-8"?>
<svg width="120px" height="90px" viewBox="0 0 120 90" version="1.1" xmlns="http://www.w3.org/2000/svg" xmlns:xlink="http://www.w3.org/1999/xlink">
    <title>ezlink</title>
    <defs>
        <path d="M19.2615809,0 C8.62398319,0 0,8.62371636 0,19.2613527 L0,19.2613527 L0,62.7386473 C0,73.3762836 8.62398319,82 19.2615809,82 L19.2615809,82 L62.7384191,82 C73.3760168,82 82,73.3762836 82,62.7386473 L82,62.7386473 L82,19.2613527 C82,8.62371636 73.3760168,0 62.7384191,0 L62.7384191,0 L19.2615809,0 Z" id="path-1"></path>
    </defs>
    <g id="LOGO-+-SDK-+-payment-icon" stroke="none" stroke-width="1" fill="none" fill-rule="evenodd">
        <g id="payment" transform="translate(-2318.000000, -1155.000000)">
            <g id="ezlink" transform="translate(2318.000000, 1155.000000)">
                <g id="payment-4:3bg" transform="translate(-20.000000, -15.000000)"></g>
                <g id="编组" transform="translate(19.000000, 4.000000)">
                    <path d="M62.7385682,82 L19.2614318,82 C8.6238341,82 0.000149090366,73.3762836 0.000149090366,62.7386473 L0.000149090366,19.2613527 C0.000149090366,8.62371636 8.6238341,0 19.2614318,0 L62.7385682,0 C73.3761659,0 81.9998509,8.62371636 81.9998509,19.2613527 L81.9998509,62.7386473 C81.9998509,73.3762836 73.3761659,82 62.7385682,82" id="Fill-1" fill="#0C00BA"></path>
                    <g>
                        <mask id="mask-2" fill="white">
                            <use xlink:href="#path-1"></use>
                        </mask>
                        <g id="Clip-4"></g>
                        <polygon id="Fill-3" fill="#12D86C" mask="url(#mask-2)" points="-3.74783364 82 85.7478336 82 85.7478336 64.5414545 -3.74783364 64.5414545"></polygon>
                    </g>
                    <g transform="translate(21.007668, 14.993745)">
                        <path d="M19.9924218,39.9849891 C13.152454,39.9849891 7.11727594,36.5475491 3.51256905,31.3084945 L25.7965098,9.02566545 C24.0640798,8.10637091 22.0901233,7.58395636 19.9924218,7.58395636 C14.6594594,7.58395636 10.113396,10.9489382 8.35830415,15.6703491 L8.35740961,15.6703491 C7.30095527,18.4103418 4.83708787,20.0044218 2.13855222,20.0044218 L0,20.0044218 L0,19.9924945 C0,8.95112 8.95049109,0 19.9924218,0 C26.8320915,0 32.8669714,3.43654545 36.4716783,8.67589818 L14.1877375,30.9587273 C15.9201676,31.8774255 17.8947204,32.4007345 19.9924218,32.4007345 C25.3253843,32.4007345 29.8714477,29.0354545 31.6259432,24.3137455 L31.6268377,24.3143418 C32.6832921,21.5740509 35.1471595,19.9802691 37.8459933,19.9802691 L39.9842473,19.9802691 C39.9842473,19.9838473 39.9848437,19.9877236 39.9848437,19.9924945 C39.9848437,31.0338691 31.0337562,39.9849891 19.9924218,39.9849891" id="Fill-5" fill="#12D86C"></path>
                        <polygon id="Fill-7" fill="#0C00BA" points="6.0347606 60.6422204 6.0347606 61.8427004 0.251545267 61.8427004 0.251545267 54.1320167 5.88030298 54.1320167 5.88030298 55.3324967 1.68370733 55.3324967 1.68370733 57.3374713 5.40709016 57.3374713 5.40709016 58.516184 1.68370733 58.516184 1.68370733 60.6422204"></polygon>
                        <polygon id="Fill-9" fill="#0C00BA" points="13.3963956 60.6311578 13.3963956 61.8426705 6.82001956 61.8426705 6.82001956 60.8846124 11.3583303 55.3437978 6.89724837 55.3437978 6.89724837 54.1319869 13.2532689 54.1319869 13.2532689 55.0903433 8.71465995 60.6311578"></polygon>
                        <polygon id="Fill-11" fill="#0C00BA" points="13.8094058 59.3534189 16.8383257 59.3534189 16.8383257 58.2078044 13.8094058 58.2078044"></polygon>
                        <polygon id="Fill-13" fill="#0C00BA" points="18.387136 54.1320167 19.8192981 54.1320167 19.8192981 60.6311876 23.8507016 60.6311876 23.8507016 61.8427004 18.387136 61.8427004"></polygon>
                        <path d="M24.6044429,61.8429389 L25.9814415,61.8429389 L25.9814415,55.9607062 L24.6044429,55.9607062 L24.6044429,61.8429389 Z M24.6703408,54.7542625 C24.5012724,54.5965244 24.4171854,54.4003207 24.4171854,54.1653535 C24.4171854,53.930088 24.5012724,53.7335862 24.6703408,53.575848 C24.8394093,53.4181098 25.048434,53.3387935 25.2983095,53.3387935 C25.5478867,53.3387935 25.7572096,53.4142335 25.9259799,53.5648153 C26.0950484,53.7153971 26.1794335,53.9047425 26.1794335,54.1319571 C26.1794335,54.3743789 26.0971356,54.5780371 25.9316453,54.743528 C25.7664532,54.9087207 25.5553413,54.9913171 25.2983095,54.9913171 C25.048434,54.9913171 24.8394093,54.9122989 24.6703408,54.7542625 L24.6703408,54.7542625 Z" id="Fill-14" fill="#0C00BA"></path>
                        <path d="M32.5748735,56.5442778 C33.022741,56.9778342 33.2469729,57.6201178 33.2469729,58.4720233 L33.2469729,61.8429687 L31.8699743,61.8429687 L31.8699743,58.6485469 C31.8699743,58.1344815 31.7486147,57.7468451 31.506492,57.4862342 C31.264071,57.2256233 30.9187777,57.0953178 30.4709103,57.0953178 C29.9643012,57.0953178 29.5638445,57.2476887 29.2704347,57.5524305 C28.9767266,57.8571724 28.8297235,58.2957978 28.8297235,58.8686051 L28.8297235,61.8429687 L27.4527249,61.8429687 L27.4527249,55.960736 L28.7638256,55.960736 L28.7638256,56.7208015 C28.9910393,56.4491578 29.2772928,56.2434124 29.6228843,56.1035651 C29.9678794,55.9646124 30.3573034,55.8945396 30.79056,55.8945396 C31.5321355,55.8945396 32.1270061,56.1113178 32.5748735,56.5442778" id="Fill-15" fill="#0C00BA"></path>
                        <polygon id="Fill-16" fill="#0C00BA" points="37.0670856 59.3202015 36.0425366 60.2895905 36.0425366 61.8428196 34.6655379 61.8428196 34.6655379 53.6693578 36.0425366 53.6693578 36.0425366 58.6042669 38.8955298 55.9605869 40.5477493 55.9605869 38.0916346 58.4280415 40.7791375 61.8428196 39.1048527 61.8428196"></polygon>
                    </g>
                </g>
            </g>
        </g>
    </g>
</svg>