<?xml version="1.0" encoding="UTF-8"?>
<svg width="120px" height="90px" viewBox="0 0 120 90" version="1.1" xmlns="http://www.w3.org/2000/svg" xmlns:xlink="http://www.w3.org/1999/xlink">
    <title>famipay</title>
    <g id="LOGO-+-SDK-+-payment-icon" stroke="none" stroke-width="1" fill="none" fill-rule="evenodd">
        <g id="payment" transform="translate(-1268.000000, -1355.000000)">
            <g id="famipay" transform="translate(1268.000000, 1355.000000)">
                <g id="payment-4:3bg" transform="translate(-20.000000, -15.000000)"></g>
                <g id="FamiPay" transform="translate(5.000000, 31.000000)" fill-rule="nonzero">
                    <path d="M2.39808173e-14,0.362962963 L2.39808173e-14,23.7740741 L4.76908577,23.7740741 L4.76908577,13.5333333 L14.6701225,13.5333333 L14.6701225,8.9962963 L4.76908577,8.9962963 L4.76908577,4.87407407 L14.8515551,4.87407407 L14.8515551,0.362962963 L2.39808173e-14,0.362962963 M28.6922714,20.4037037 C28.6922714,18.4592593 28.6922714,14.7777778 28.6922714,12.7814815 C28.6922714,10.2666667 27.3963242,7.07777778 21.901508,7.07777778 C19.7243167,7.07777778 17.9877474,7.57037037 16.795476,8.03703704 L16.795476,12.1851852 C18.1432611,11.3296296 19.6465598,10.8888889 21.3053723,10.8888889 C22.7827521,10.8888889 24.260132,11.3814815 24.260132,13.1444444 C24.260132,13.1703704 24.260132,13.2222222 24.260132,13.2481481 C23.5344015,12.9888889 22.6013195,12.8074074 21.6423186,12.8074074 C17.8840716,12.8074074 15.1366635,14.7777778 15.1366635,18.6148148 C15.1366635,22.4 18.2210179,23.8259259 20.7092366,23.8259259 C22.2643732,23.8259259 23.5862394,23.3333333 24.4674835,22.6333333 C24.5452403,23.1259259 24.6748351,23.5148148 24.8303487,23.7222222 L29.7290292,23.7222222 C29.1069746,23.2814815 28.6922714,22.3481481 28.6922714,20.4037037 M19.594722,18.1481481 C19.594722,16.8518519 20.7092366,15.9703704 22.2902922,15.9703704 C23.0937795,15.9703704 23.7417531,16.1518519 24.260132,16.4111111 C24.260132,17.4222222 24.260132,18.4333333 24.260132,19.2111111 C23.8195099,19.6259259 23.0419416,20.0925926 21.901508,20.0925926 C20.4241282,20.1185185 19.594722,19.2888889 19.594722,18.1481481 Z M48.4425071,7.25925926 C46.4985862,7.25925926 45.0989632,7.72592593 43.7770971,9.12592593 C42.8440151,7.95925926 41.3666352,7.25925926 39.5782281,7.25925926 C38.1267672,7.25925926 36.7530631,7.67407407 35.5089538,8.76296296 L35.5089538,7.41481481 L31.3619227,7.41481481 L31.3619227,23.7481481 L35.8459001,23.7481481 L35.8459001,12.7296296 C36.3901979,12.0555556 37.1418473,11.5111111 38.204524,11.5111111 C39.5523091,11.5111111 40.3039585,12.4444444 40.3039585,14.1037037 L40.3039585,23.7481481 L44.8656927,23.7481481 L44.8656927,12.6259259 C45.3840716,11.9777778 46.135721,11.5111111 47.1983977,11.5111111 C48.6498586,11.5111111 49.2978322,12.5481481 49.2978322,14.1037037 L49.2978322,23.7481481 L53.8595664,23.7481481 L53.8595664,12.4444444 C53.8595664,9.38518519 51.8897267,7.25925926 48.4425071,7.25925926 M56.7884072,7.41481481 L61.2723845,7.41481481 L61.2723845,23.7481481 L56.7884072,23.7481481 L56.7884072,7.41481481 Z M59.0433553,1.11022302e-14 C57.4363808,1.11022302e-14 56.1404336,1.2962963 56.1404336,2.9037037 C56.1404336,4.51111111 57.4363808,5.80740741 59.0433553,5.80740741 C60.6503299,5.80740741 61.9462771,4.51111111 61.9462771,2.9037037 C61.9203582,1.2962963 60.6244109,1.11022302e-14 59.0433553,1.11022302e-14" id="形状结合" fill="#36AD1B"></path>
                    <path d="M98.6215834,7.41481481 L101.991046,16.2555556 L105.10132,7.41481481 L110,7.41481481 L102.457587,28 L97.429312,28 L99.6583412,22.2444444 L93.5155514,7.41481481 L98.6215834,7.41481481 Z M86.6211122,7.07777778 C92.1159284,7.07777778 93.4118756,10.2666667 93.4118756,12.7814815 L93.4118756,12.7814815 L93.4118756,20.4037037 C93.4118756,22.3481481 93.8265787,23.2814815 94.4486334,23.7222222 L94.4486334,23.7222222 L89.5499529,23.7222222 C89.3944392,23.5148148 89.2648445,23.1259259 89.1870877,22.6333333 C88.3058435,23.3333333 86.9839774,23.8259259 85.4288407,23.8259259 C82.9406221,23.8259259 79.8562677,22.4 79.8562677,18.6148148 C79.8562677,14.7777778 82.6036758,12.8074074 86.3619227,12.8074074 C87.3209237,12.8074074 88.2540057,12.9888889 88.9797361,13.2481481 L88.9797361,13.2481481 L88.9797361,13.1444444 C88.9797361,11.3814815 87.5023563,10.8888889 86.0249764,10.8888889 C84.366164,10.8888889 82.8628652,11.3296296 81.5150801,12.1851852 L81.5150801,12.1851852 L81.5150801,8.03703704 C82.7073516,7.57037037 84.4439208,7.07777778 86.6211122,7.07777778 Z M71.795476,0.362962963 C75.9425071,0.362962963 80.2191329,1.9962963 80.2191329,7.46666667 C80.2191329,12.937037 75.9425071,14.5962963 71.795476,14.5962963 L71.795476,14.5962963 L69.0999057,14.5962963 L69.0999057,23.7740741 L64.33082,23.7740741 L64.33082,0.362962963 Z M87.0098963,15.9703704 C85.4288407,15.9703704 84.3143261,16.8518519 84.3143261,18.1481481 C84.3143261,19.2888889 85.1437323,20.1185185 86.6211122,20.0925926 C87.7615457,20.0925926 88.539114,19.6259259 88.9797361,19.2111111 L88.9797361,19.2111111 L88.9797361,16.4111111 C88.4613572,16.1518519 87.8133836,15.9703704 87.0098963,15.9703704 Z M72.5212064,4.87407407 L69.1258247,4.87407407 L69.1258247,10.0592593 L72.5212064,10.0592593 C73.9208294,10.0592593 75.3982092,9.43703704 75.3982092,7.46666667 C75.3982092,5.4962963 73.9208294,4.87407407 72.5212064,4.87407407 L72.5212064,4.87407407 Z" id="形状结合" fill="#0082D7"></path>
                </g>
            </g>
        </g>
    </g>
</svg>