<?xml version="1.0" encoding="UTF-8"?>
<svg width="120px" height="90px" viewBox="0 0 120 90" version="1.1" xmlns="http://www.w3.org/2000/svg" xmlns:xlink="http://www.w3.org/1999/xlink">
    <title>felica_transport_ic_hayakaken</title>
    <g id="LOGO-+-SDK-+-payment-icon" stroke="none" stroke-width="1" fill="none" fill-rule="evenodd">
        <g id="payment" transform="translate(-1968.000000, -955.000000)">
            <g id="felica_transport_ic_hayakaken" transform="translate(1968.000000, 955.000000)">
                <g id="payment-4:3bg" transform="translate(-20.000000, -15.000000)"></g>
                <g id="编组" transform="translate(5.000000, 26.000000)" fill-rule="nonzero">
                    <path d="M110,34.6408705 C110,36.1646957 108.753987,37.4 107.216951,37.4 L2.78304871,37.4 C1.24601335,37.4 0,36.1646957 0,34.6408705 L0,2.75912947 C0,1.23530434 1.24601335,0 2.78304871,0 L107.216951,0 C108.753987,0 110,1.23530434 110,2.75912947 L110,34.6408705 Z" id="路径" fill="#9FD7EE"></path>
                    <polygon id="路径" fill="#25489C" points="33.1739406 28.515603 33.1739406 30.5849502 30.8222644 30.5849502 30.8222644 28.515603 29.8064516 28.515603 29.8064516 33.8269273 30.8222644 33.8269273 30.8222644 31.5506455 33.1739406 31.5506455 33.1739406 33.8269273 34.1619228 33.8269273 34.1619228 28.515603"></polygon>
                    <path d="M38.1277673,28.4604206 L37.5015813,28.4604206 L35.2612271,33.5924014 L36.200506,33.9648838 C36.200506,33.9648838 36.7849462,32.6336039 36.8962682,32.3852822 L38.9835547,32.3852822 L39.6793169,33.9717816 L40.6255534,33.5786057 L38.3295383,28.4535227 L38.1277673,28.4604206 Z M38.5173941,31.3988933 L37.3206831,31.3988933 C37.4807084,31.0402066 37.7033523,30.5228697 37.9190386,30.0193287 C38.1347249,30.5228697 38.3364959,31.0402066 38.5173941,31.3988933 Z" id="形状" fill="#25489C"></path>
                    <path d="M44.7444655,28.5362966 L43.3946869,30.4607894 L41.9127135,28.3914423 L41.0638836,28.9570638 L42.8867805,31.5161564 L42.8867805,33.8821099 L43.9025933,33.8821099 L43.9025933,31.4609738 C43.9860848,31.336813 45.7254902,28.9018812 45.7254902,28.9018812 L44.883618,28.3362597 L44.7444655,28.5362966 Z" id="路径" fill="#25489C"></path>
                    <path d="M49.0860215,28.4604206 L48.4528779,28.4604206 L46.2125237,33.5924014 L47.1518026,33.9648838 C47.1518026,33.9648838 47.7362428,32.6336039 47.8475648,32.3852822 L49.9348513,32.3852822 C50.0392157,32.6336039 50.6306135,33.9717816 50.6306135,33.9717816 L51.5559772,33.5855035 L49.2530045,28.4604206 L49.0860215,28.4604206 Z M48.8703352,30.0262264 C49.0860215,30.5228697 49.3086654,31.0402066 49.4686907,31.4057912 L48.2789374,31.4057912 L48.8703352,30.0262264 Z" id="形状" fill="#25489C"></path>
                    <polygon id="路径" fill="#25489C" points="56.4263125 29.1295094 55.7305503 28.439727 55.5566098 28.6190705 53.6432637 30.4607894 53.6432637 28.5293987 52.6483239 28.5293987 52.6483239 33.8338252 53.6432637 33.8338252 53.6432637 31.8748432 54.0050601 31.5161564 55.9531942 33.9234969 56.7602783 33.330284 54.7286528 30.7987827"></polygon>
                    <path d="M60.3086655,28.4604206 L59.6755218,28.4604206 L57.4351676,33.5924014 L58.3744466,33.9648838 C58.3744466,33.9648838 58.9588868,32.6336039 59.0702088,32.3852822 L61.1574953,32.3852822 C61.2618596,32.6336039 61.8532574,33.9648838 61.8532574,33.9648838 L62.799494,33.5855035 L60.5104365,28.4535227 L60.3086655,28.4604206 Z M60.6913346,31.3988933 L59.5015813,31.3988933 L60.0929791,30.0193287 C60.3086655,30.5228697 60.5313093,31.0402066 60.6913346,31.3988933 Z" id="形状" fill="#25489C"></path>
                    <polygon id="路径" fill="#25489C" points="67.6489563 29.1295094 66.9531942 28.439727 66.7792536 28.6190705 64.8867805 30.4607894 64.8867805 28.5293987 63.8709677 28.5293987 63.8709677 33.8338252 64.8867805 33.8338252 64.8867805 31.8748432 65.2485768 31.5161564 67.1967109 33.9234969 68.0037951 33.330284 65.9721696 30.7987827"></polygon>
                    <polygon id="路径" fill="#25489C" points="70.2580645 31.5920324 72.345351 31.5920324 72.345351 30.5987459 70.2580645 30.5987459 70.2580645 29.4950941 72.658444 29.4950941 72.658444 28.5018074 69.2422518 28.5018074 69.2422518 33.8131317 72.7210626 33.8131317 72.7210626 32.8198451 70.2789374 32.8198451"></polygon>
                    <polygon id="路径" fill="#25489C" points="77.8975332 28.515603 77.1252372 28.515603 77.1252372 31.8403541 75.1631879 28.5293987 74.1056294 28.5293987 74.1056294 33.840723 75.1353573 33.840723 75.1353573 30.4607894 77.1391524 33.840723 78.1480076 33.840723 78.1480076 28.515603"></polygon>
                    <path d="M17.5053763,7.85662117 C17.769766,8.02216895 17.7488931,8.26359277 17.5053763,8.38775359 C17.1355896,8.54352606 16.7540752,8.6703733 16.3643263,8.7671339 C16.3643263,8.16702324 16.3643263,7.63589081 16.3643263,7.08406492 C16.4584672,7.1767867 16.5635984,7.25785262 16.6774193,7.32548875 C16.9696395,7.51862781 17.2618596,7.69797123 17.5053763,7.85662117 Z M20.7058823,20.1761342 C19.9266287,19.1414607 18.3055028,18.1757654 16.5800127,17.4997787 C16.4339025,14.6164884 16.3643263,12.2367392 16.3364959,10.0708226 C17.6514864,9.82939874 19.3491461,9.47071191 19.7387729,9.08443379 C20.4345351,8.33946883 20.1701455,7.63589081 19.2239089,7.56691257 C18.3866151,7.58674799 17.5531471,7.44864043 16.7678685,7.15994099 C16.6354319,7.10542237 16.4979479,7.06383861 16.3573687,7.03578016 C16.3573687,6.65639985 16.3573687,6.27012173 16.3573687,5.8838436 C16.3573687,5.49756547 16.6982923,5.35271118 16.6982923,4.91814829 C16.6982923,3.9317595 14.7362428,2.972962 13.4212523,3.2626706 C12.8368121,3.4075249 12.8646427,3.62135743 13.4212523,3.83518996 C14.1170146,4.12489856 14.6110056,4.52497233 14.7362428,5.8562523 C14.805819,6.93921062 14.882353,8.00147547 14.9310562,9.03614902 C12.8437697,9.32585762 9.95635674,9.22928809 9.19797596,8.43603836 C8.86401012,8.098045 8.73877293,8.16702324 8.90575585,8.62917742 C9.42061986,9.97425305 11.9392789,10.6226485 14.9797596,10.2639616 C15.0493358,12.4505718 15.0771664,14.6854666 15.1467426,17.092807 C12.0366856,16.4030247 9.68500949,16.8306898 9.12839974,18.8724456 C8.00822264,23.0111398 16.7817837,23.590557 16.6495889,19.5001476 C16.6495889,19.3345998 16.6495889,19.0448911 16.6495889,18.9000369 C17.664096,19.5062022 18.538786,20.3169732 19.2169513,21.2797861 C19.9753321,22.3144596 21.7773561,21.5694946 20.7058823,20.1761342 L20.7058823,20.1761342 Z M6.89500316,12.9817041 C7.04111322,12.4505718 6.80455407,12.4022869 6.58191018,12.9058281 C5.78036273,14.6348742 5.06745706,16.4029716 4.4459203,18.2033567 C4.29981025,18.658613 4.08412397,18.4930652 3.95888678,18.0309111 C3.49968375,16.2029878 3.45098039,12.4022869 5.58697027,8.16702324 C5.95906926,7.58419681 6.26918335,6.96467596 6.51233397,6.31840649 C6.65844402,5.38030247 5.81657179,4.15248986 4.83554712,3.64894873 C4.57115749,3.48340095 4.42504744,3.48340095 4.47375079,3.8144965 C4.71726755,5.04230911 4.54332701,5.60103283 4.13282732,7.15994099 C2.67868438,12.7885651 2.04554079,16.4926964 3.52751423,20.5831058 C4.37634408,22.9421615 5.97659709,22.5558835 5.73308033,20.5831058 C5.51739406,19.093176 5.76091081,17.0238288 6.89500316,12.9817041 Z M15.174573,18.8517521 C15.2441492,22.1971966 9.35104365,21.0383622 9.78937381,18.9483217 C10.1233397,17.2859461 12.7950665,17.1410919 15.174573,18.2585393 L15.174573,18.8517521 Z" id="形状" fill="#FFFFFF"></path>
                    <path d="M34.6837445,7.87731464 C33.240406,8.39447051 31.8300548,8.99798979 30.4604681,9.68454445 C29.9734346,8.81541867 29.2707148,7.61519735 28.9089184,6.92541498 C28.3036053,5.84245665 28.860215,5.242346 29.9525616,5.29063076 C31.0449083,5.33891553 32.6660342,5.35271118 34.6837445,7.87731464 Z M41.7179001,15.2855772 C45.6976597,13.7956474 45.9411765,7.69797123 40.9664769,6.84264109 C39.8066635,6.68102614 38.6265338,6.73718552 37.487666,7.00818886 C37.3997274,5.40721232 36.1352028,4.11529869 34.5237191,3.98004427 C34.0158128,3.9041682 33.9462366,4.12489856 34.4054396,4.3387311 C35.2130341,4.75244725 35.7415924,5.55681101 35.7969639,6.45636297 C35.7969639,6.8150498 35.5325743,7.08406492 35.0455407,6.77366285 C33.4275434,5.55925762 31.4999514,4.81634663 29.4794434,4.62843969 C26.8633776,4.41460715 26.2093612,6.35979343 27.3017077,7.44275176 C28.1267207,8.25934451 28.8895126,9.1354716 29.5838078,10.0639247 C28.4636306,10.6433419 27.4965211,11.1744744 26.800759,11.5331612 C25.882353,12.0367024 24.6438963,12.3540022 23.8924731,11.891848 C23.5028463,11.6297307 23.2593295,11.5124677 23.3358634,11.9884175 C23.5515497,13.4300627 25.200506,14.4233493 25.9797596,14.202619 C26.7590133,13.9818886 26.6755218,13.457654 28.0670461,12.4919587 C28.7628084,12.0160088 29.5698924,11.4572852 30.1543327,11.1123939 C31.8946039,14.5384284 32.8226895,18.3132345 32.8678052,22.1489118 C32.8678052,24.5079675 35.1290323,23.8802655 35.0037951,22.0799336 C34.7602783,18.348211 32.7216952,13.8025452 30.9266287,10.5743637 C32.2649832,9.75585413 33.6599783,9.03208113 35.1012017,8.40844707 C35.4447595,8.81075842 35.9997715,8.96686268 36.5052451,8.80335225 C37.0107187,8.63984181 37.3660615,8.18925621 37.4041746,7.66348211 C38.5259632,7.36053804 39.699828,7.29705935 40.8481974,7.47724087 C44.0069576,8.07735153 44.0765338,12.3815935 41.0221379,13.6300996 C38.507437,14.6817351 35.5938632,13.9327515 33.9114484,11.8021763 C33.5009488,11.2503504 33.3061354,11.4434895 33.570525,12.0711914 C34.9968375,15.2855772 38.8583175,16.3961269 41.7179001,15.2855772 Z" id="形状" fill="#FFFFFF"></path>
                    <path d="M66.6401012,15.1476208 C66.1808982,14.7820362 65.944339,14.8096275 64.0449083,14.6164884 C63.3491461,14.5406123 63.3491461,14.3543711 63.9962049,14.2302103 C64.752613,14.1167342 65.4929034,13.9153091 66.201771,13.6300996 C66.716635,13.457654 66.8975332,13.1265585 66.8140418,12.5678347 C66.6888046,10.9813353 65.8399747,9.80870528 63.8987983,8.69815566 C63.4882985,8.45673183 63.5578747,8.3601623 64.0449083,8.45673183 C68.0455407,9.22928809 69.7501582,12.8575434 68.3168881,15.1200295 C67.7115749,16.1064183 67.1271347,15.5270012 66.6401012,15.1476208 Z M57.4421253,21.1556253 C56.1062619,22.5351899 54.7286528,21.9764663 54.6590766,21.3280708 C54.540797,20.458945 54.1024668,19.9071191 52.8431373,18.7551826 C52.4256799,18.3689045 52.5509171,18.2999263 52.9892473,18.4930652 C53.764554,18.8575534 54.564252,19.1686912 55.3826692,19.4242715 C55.9879823,19.6174106 56.3289057,19.520841 56.5932953,19.1897455 C57.6369387,17.9619329 58.4370652,15.7408337 58.826692,12.5471413 C59.0702088,10.2846551 57.8317521,9.44312062 55.626186,9.99494651 C55.0208728,10.1398008 54.5547122,10.2846551 54.116382,10.4295094 C53.1701455,13.4852453 52.1752056,17.0721136 50.9437065,19.7622648 C50.3592663,20.9417927 49.6774193,21.9764663 49.0025301,21.3280708 C48.487666,20.7969384 48.487666,19.948506 49.1486401,18.9690151 C50.7920011,16.4956419 52.0208284,13.7749256 52.7874763,10.9123571 C52.5926629,10.9813353 52.3978495,11.0779049 52.1752056,11.1537809 C49.9696395,11.9953154 50.3592663,12.285024 49.7539531,12.5333457 C49.1486401,12.7816672 48.0771664,11.4848765 47.9310562,10.2363703 C47.882353,9.94666175 48.0493358,9.89837698 48.2719798,10.0432313 C48.9677419,10.4777942 49.3156231,10.5260789 50.5749526,10.2846551 C51.4029096,10.1191073 52.2239089,9.89837698 53.1005693,9.70523792 C53.3508294,8.63648608 53.5366947,7.55391229 53.657179,6.46326079 C53.7545857,5.71829584 53.8311195,4.86986351 52.7387729,4.26975286 C52.2726123,4.05592033 52.2517394,3.89037255 52.7874763,3.8144965 C54.7286528,3.6696422 55.8418722,4.77329399 55.8905756,5.59413501 C55.8905756,6.1459609 55.4800759,6.36669125 55.1948134,7.27720399 C54.9512966,7.90490594 54.7077799,8.65676872 54.4990512,9.42242715 C54.8608476,9.37414238 55.2504744,9.29826632 55.660974,9.22928809 C58.8406072,8.71884913 60.2251739,10.1880856 60.2251739,12.6781999 C60.1625553,15.3407598 59.4111322,19.1621542 57.4421253,21.1556253 L57.4421253,21.1556253 Z" id="形状" fill="#FFFFFF"></path>
                    <path d="M78.5585073,20.2451125 C78.9203037,21.5763925 77.8627451,22.1351162 77.0765338,20.9348949 C75.5876027,18.5068609 75.9285263,14.5475101 76.8678052,10.7054224 C77.1134182,9.89683144 77.2100498,9.05097839 77.1530676,8.20841018 C77.055661,7.87041682 77.1530676,7.84972335 77.5079064,8.07735153 C78.2036685,8.54640354 78.8994307,9.45691627 78.6141683,10.2570638 C78.4819735,10.6502398 78.2036685,10.8916636 77.9184061,11.6366285 C76.3181531,15.5959793 76.8260594,17.1548875 77.055661,18.2792327 C77.1530676,18.5965327 77.3548387,18.6310217 77.4522454,18.3344153 C77.8418722,17.0100331 78.2036685,15.9132792 78.7672359,14.4371449 C78.8994307,14.0784581 79.0872865,14.0784581 79.0107527,14.4371449 C78.3706515,17.5963482 78.2802024,19.3001106 78.5585073,20.2451125 Z M87.1442125,12.4850608 C87.1442125,14.7406492 87.2555345,16.7755072 86.6919671,18.4171892 C85.9962049,20.4865363 84.4168248,21.7419402 81.3067678,22.6179638 C80.9310562,22.7145334 80.8336496,22.5834748 81.1954459,22.3972335 C83.8532574,21.2590926 84.9247312,19.9691996 85.5230867,18.0447068 C85.9057559,16.8513832 85.9196711,14.5957949 85.8431373,12.6161196 C83.9993675,12.8023608 81.028463,12.9334194 80.4440228,11.5676503 C80.2909551,11.2365548 80.3883618,11.2503504 80.6527514,11.4021026 C81.5711575,11.9263372 83.8115117,11.7952785 85.8083491,11.5331612 C85.7666034,10.9192549 85.7526881,10.3191442 85.7318153,9.83629657 C85.6204933,8.80852084 85.4882985,8.39465142 84.6603416,8.0083733 C84.2985452,7.8359277 84.375079,7.67037994 84.7368754,7.63589081 C85.829222,7.51862781 87.3111954,8.04286241 87.4086022,8.80852084 C87.4642631,9.27757285 87.1442125,9.25687938 87.1233397,10.132903 C87.1233397,10.5467724 87.1233397,10.953744 87.1233397,11.34692 C87.8191018,11.2365548 88.4452878,11.1054962 88.8905756,11.0089266 C90.0594561,10.8778679 90.5325743,12.167761 89.1758381,12.2643305 C88.6888046,12.3195131 87.9373814,12.3884913 87.1442125,12.4850608 Z" id="形状" fill="#FFFFFF"></path>
                    <path d="M100.906388,21.7419402 C97.8172043,20.7555514 100.210626,16.4444116 98.5338394,15.6373662 C97.0866541,14.947584 93.8444023,16.741018 93.0164453,20.383069 C92.9259962,20.810734 92.7729285,22.0385466 91.8893106,22.0249798 C91.1935484,22.0249798 91.0404807,21.2590926 91.1935484,20.3968646 C91.3814042,19.3001106 92.6963947,17.6377352 96.9683745,10.0984139 C97.5005277,9.29430474 97.5005277,8.2537587 96.9683745,7.44964958 C96.7387729,7.11165621 96.8779253,7.01508668 97.3092979,7.13234969 C98.2720979,7.43906758 99.0013913,8.22496474 99.2296016,9.20169679 C99.2296016,9.89147916 98.7773561,10.2432682 98.1581278,10.8640723 C96.5610132,12.4902288 95.2488681,14.36926 94.2757748,16.4237182 C94.1227071,16.7617116 94.2757748,16.8513832 94.4845035,16.589266 C95.3889944,15.568388 97.4206199,14.2233124 99.0417458,14.9268904 C101.748261,16.1271118 99.3965844,19.914017 101.316888,20.5693102 C102.896268,21.1073404 105.644529,20.0243822 106.882985,16.313353 C107.036053,15.844301 107.258697,15.9546662 107.203036,16.4237182 C106.757748,20.1899299 103.919039,22.7145334 100.906388,21.7419402 Z" id="路径" fill="#FFFFFF"></path>
                </g>
            </g>
        </g>
    </g>
</svg>