<?xml version="1.0" encoding="UTF-8"?>
<svg width="120px" height="90px" viewBox="0 0 120 90" version="1.1" xmlns="http://www.w3.org/2000/svg" xmlns:xlink="http://www.w3.org/1999/xlink">
    <title>felica_transport_ic_sugoca</title>
    <g id="LOGO-+-SDK-+-payment-icon" stroke="none" stroke-width="1" fill="none" fill-rule="evenodd">
        <g id="payment" transform="translate(-1968.000000, -555.000000)">
            <g id="felica_transport_ic_sugoca" transform="translate(1968.000000, 555.000000)">
                <g id="payment-4:3bg" transform="translate(-20.000000, -15.000000)"></g>
                <g id="编组" transform="translate(9.000000, 21.000000)" fill-rule="nonzero">
                    <path d="M50.2565334,0.0107161153 C53.4803606,-0.086890879 56.6896029,0.483157601 59.6834413,1.68519072 C60.4274788,1.95845478 61.1515149,2.28355439 61.8502429,2.6581068 C62.6495812,3.12801865 63.468738,3.55160116 64.2152275,4.07446081 C64.574854,4.42135223 64.9931335,4.70147462 65.4505686,4.9017704 C65.8733591,5.00104755 66.4679083,4.44509551 66.7189403,4.27963359 C67.7294337,3.63156735 68.7897499,3.06500612 69.8898694,2.58530356 C71.4666751,1.92787251 73.1040098,1.42688497 74.778385,1.08952782 C75.4786319,0.930684378 76.1788788,0.930684378 76.9451866,0.798314844 C78.0825942,0.623766302 79.2386747,0.608174528 80.3803598,0.751985507 C81.1334555,0.877736564 81.8469146,0.82478875 82.5471614,0.963776761 C83.8925681,1.17656877 85.2182486,1.49975527 86.5108227,1.93007436 C93.1631678,4.52451723 97.6751357,8.68753908 100.383638,15.253068 C100.905748,16.6060184 101.31238,18.0008979 101.59916,19.4227083 C101.671828,19.9786603 101.757707,20.5346123 101.823768,21.0971829 C101.990143,21.9691667 102.039024,22.8595691 101.969102,23.7445736 L101.969102,24.5586462 C101.922859,25.1543092 101.876617,25.7565905 101.823768,26.3588719 C101.613063,27.7773645 101.312987,29.1810796 100.925338,30.5616046 C100.008439,33.3452502 98.5887744,35.9363926 96.7370691,38.2059452 C96.1462929,38.9950998 95.4656711,39.7125352 94.7089957,40.3437132 C93.9823244,40.9327576 93.3217142,41.6276976 92.5488002,42.1770312 C89.9349517,44.0294255 86.9869034,45.3556101 83.8683818,46.0819325 C80.6755972,46.7802622 77.3700144,46.7802622 74.1772297,46.0819325 C71.93824,45.5839961 69.7823897,44.7659578 67.7759167,43.6529516 L66.1772399,42.6932724 C65.9837636,42.4871851 65.7048304,42.3842277 65.4241442,42.4152964 C65.0331024,42.5845411 64.6752081,42.8220903 64.3671678,43.1168549 L62.2862456,44.4405502 C60.3119117,45.5235033 58.1946009,46.3212104 55.9972362,46.8099649 C55.2837772,46.9886638 54.5703181,47.0217562 53.7974042,47.1607442 C53.0244902,47.2997322 52.3704861,47.2004551 51.6107843,47.3195876 L49.846955,47.3195876 C48.8097969,47.1475072 47.7924571,47.2004551 46.8345723,46.9886638 C44.3965928,46.545547 42.0413774,45.7284954 39.8519222,44.5663013 C38.9799166,44.0500602 38.1079112,43.5536743 37.2953606,42.9778669 C37.0509348,42.799168 36.7008114,42.3160193 36.225172,42.4483888 C35.8364883,42.6084353 35.4770623,42.8320994 35.1615895,43.1102365 L33.6421861,43.9971123 C31.7908305,44.9877056 29.8093158,45.7118343 27.7561488,46.1481172 C24.1703988,46.9140745 20.4539978,46.8119714 16.915535,45.8502858 C10.0253703,43.7323733 5.95601128,40.0723557 2.65296012,34.413558 C1.67965976,32.5771749 0.963858218,30.6150555 0.525795189,28.5826801 C-0.597242203,24.1350638 0.221914483,18.5887802 1.63562038,15.1604093 C4.12447742,8.7999412 9.33412545,3.89642044 15.8255281,1.8043233 C17.3445358,1.37939155 18.8891112,1.05221244 20.4497998,0.82478875 C21.1104099,0.712274647 21.7247775,0.82478875 22.4316304,0.718893123 L23.3829091,0.718893123 L24.5455832,0.751985507 C25.3713459,0.890973518 26.1838965,0.884355041 26.9634166,1.04981696 C29.005581,1.4871363 30.9977691,2.13248369 32.9089087,2.97579368 C33.6583121,3.32623401 34.3823443,3.72873619 35.0757103,4.18035644 C35.4274614,4.47779018 35.8215657,4.72094183 36.2449903,4.9017704 C36.7008114,5.00766604 37.0311165,4.57084657 37.2623301,4.40538465 C38.0154258,3.87590652 38.801552,3.39275771 39.6074964,2.91622739 C41.8081538,1.71711873 44.1817502,0.868615317 46.6429953,0.401206241 L49.0013738,0.083519359 L50.2565334,0.0107161153 Z" id="路径" fill="#EA6D99"></path>
                    <path d="M19.9741604,27.1398521 L19.9741604,22.6657619 C19.9741604,22.5532478 19.9741604,22.4341152 19.9213116,22.3944043 C19.8667793,22.3836979 19.8106912,22.3836979 19.756159,22.3944043 L12.522477,22.3944043 C12.3382996,22.4186799 12.1517417,22.4186799 11.9675644,22.3944043 C11.8613704,22.3381585 11.7671299,22.2617257 11.6901081,22.1693761 L11.4126518,21.8847816 C11.3609543,21.8396182 11.3123965,21.7909695 11.2673175,21.7391751 C11.2160911,21.6158353 11.1978747,21.4812382 11.2144688,21.3486851 L11.2144688,20.8258254 C11.1971301,20.7339808 11.1971301,20.6396939 11.2144688,20.5478493 C11.2567572,20.4606582 11.317647,20.3838385 11.3928334,20.3228211 L11.7297447,19.9852788 C11.7868008,19.9157262 11.8562381,19.8573794 11.9345339,19.8131984 C12.0458477,19.7920714 12.1601313,19.7920714 12.2714451,19.8131984 L16.6645031,19.8131984 C16.8230496,19.8131984 17.0674753,19.8529093 17.1005059,19.7139213 C17.111151,19.6459462 17.111151,19.5767236 17.1005059,19.5087485 L17.1005059,17.2783219 C17.1005059,17.1922816 17.1005059,17.1194784 17.0542632,17.086386 C16.9934128,17.0722549 16.9301425,17.0722549 16.8692923,17.086386 L8.63808882,17.086386 C8.63808882,17.086386 8.57202779,17.086386 8.54560338,17.1260969 C8.52807209,17.2778152 8.52807209,17.4310535 8.54560338,17.5827718 L8.54560338,24.5586462 C8.54560338,24.6843973 8.51257287,24.9888472 8.58524,25.0351765 C8.63887691,25.0528548 8.69675564,25.0528548 8.75039255,25.0351765 L16.0567417,25.0351765 C16.1796988,25.0218844 16.3037264,25.0218844 16.4266834,25.0351765 L16.4993506,25.0351765 C16.6008037,25.0716482 16.6884966,25.138697 16.7503825,25.2271124 L17.0806875,25.5447992 C17.176882,25.6215689 17.2481573,25.7252267 17.2854767,25.8426307 C17.2854767,25.8889601 17.2854767,25.9419079 17.2854767,25.9948556 C17.2854767,26.0478035 17.2854767,26.8486392 17.2854767,26.9148239 C17.2854767,26.9810087 17.0938998,27.1530891 17.0080204,27.2391293 C16.9221411,27.3251695 16.8230496,27.4112097 16.7371702,27.5038683 C16.6899178,27.5699958 16.6261235,27.6224964 16.5521993,27.6560934 C16.4735789,27.6705069 16.3930001,27.6705069 16.3143797,27.6560934 L9.04766716,27.6560934 C8.89895262,27.6312841 8.74716673,27.6312841 8.5984522,27.6560934 C8.55881558,27.6560934 8.55881558,27.7686075 8.55881558,27.8414106 L8.55881558,30.2637732 C8.55693197,30.3050133 8.57114818,30.3453679 8.5984522,30.3762873 C8.65924628,30.3909025 8.72262898,30.3909025 8.78342306,30.3762873 L19.7363407,30.3762873 C19.8063796,30.387575 19.8781849,30.3759718 19.9411299,30.3431949 C19.9807664,30.3431949 19.9741604,30.2042069 19.9741604,30.1247852 L19.9741604,27.1398521 Z" id="路径" fill="#231815"></path>
                    <path d="M34.6529196,27.8215552 L34.6529196,17.3047958 C34.6529196,17.2253741 34.6529196,17.1459524 34.6529196,17.1062414 C34.6529196,17.0665306 34.5934648,17.1062414 34.5604342,17.0665306 L32.1756313,17.0665306 C32.1029642,17.0665306 32.023691,17.0665306 31.9972666,17.1062414 C31.9708421,17.1459524 31.9972666,17.238611 31.9972666,17.3114142 L31.9972666,26.5772816 C32.0041999,26.6454962 32.0041999,26.7142399 31.9972666,26.7824544 C31.9972666,26.8287838 31.9972666,26.8883501 31.9972666,26.9346793 C31.949228,27.0257883 31.8867603,27.1084896 31.8122957,27.179563 L31.4621722,27.5171053 C31.4071157,27.6008071 31.325743,27.6636978 31.2309586,27.6958042 C31.1411645,27.7091208 31.0499027,27.7091208 30.9601085,27.6958042 L26.8709312,27.6958042 C26.7923107,27.7102178 26.711732,27.7102178 26.6331115,27.6958042 C26.5409185,27.6526989 26.4613085,27.5866126 26.4018979,27.5038683 L26.0715928,27.1861815 C25.9938138,27.1216711 25.9288271,27.043092 25.8800158,26.9545348 C25.8800158,26.9082055 25.8800158,26.8486392 25.8800158,26.8023098 C25.873421,26.756216 25.873421,26.7094156 25.8800158,26.6633218 L25.8800158,17.2981773 C25.8800158,17.2253741 25.8800158,17.1459524 25.8800158,17.1062414 C25.8800158,17.0665306 25.761106,17.0665306 25.6884389,17.0665306 L23.3234542,17.0665306 C23.2904237,17.0665306 23.2507871,17.0665306 23.2243627,17.1062414 C23.2009481,17.2486825 23.2009481,17.3940015 23.2243627,17.5364424 L23.2243627,30.1777329 C23.2134784,30.2345748 23.2134784,30.2929715 23.2243627,30.3498134 C23.2573932,30.4027611 23.3366664,30.3961427 23.4225458,30.3961427 L34.4217061,30.3961427 C34.4874622,30.4069343 34.5549305,30.39528 34.6132831,30.3630503 C34.6595258,30.3630503 34.6529196,30.2505362 34.6529196,30.1777329 L34.6529196,27.8215552 L34.6529196,27.8215552 Z" id="路径" fill="#231815"></path>
                    <path d="M49.3250729,24.6380679 L49.3250729,23.4533606 C49.3250729,23.3077542 49.3581034,23.0893444 49.2457997,23.056252 L45.1235918,23.056252 C45.0112881,23.056252 44.8989843,23.056252 44.8593477,23.1290552 C44.852725,23.1950737 44.852725,23.2615911 44.8593477,23.3276096 L44.8593477,25.5315623 C44.8593477,25.6043656 44.8593477,25.6771687 44.8989843,25.7102612 C44.938621,25.7433536 45.0641369,25.7102612 45.1566223,25.7102612 L45.8172326,25.7102612 C45.9274576,25.7399724 46.0249202,25.8050692 46.0946889,25.8955785 C46.1937804,26.0080926 46.3060841,26.1073697 46.4117817,26.2198839 C46.5203918,26.2988044 46.5976183,26.4136889 46.6297832,26.5441893 C46.6297832,26.5905186 46.6297832,26.6302294 46.6297832,26.6831773 C46.6430884,26.7620396 46.6430884,26.8425801 46.6297832,26.9214425 C46.5835404,27.053812 46.4117817,27.179563 46.3192963,27.2788401 C46.2268109,27.3781173 46.167356,27.4310652 46.0880827,27.5104869 C46.0347352,27.5816127 45.9609816,27.6347225 45.8766875,27.6627118 C45.7716659,27.6796505 45.6646161,27.6796505 45.5595946,27.6627118 L41.7346613,27.6627118 C41.5689348,27.6841477 41.4006235,27.6729059 41.2392037,27.6296194 C41.1719953,27.5809148 41.1119531,27.5229882 41.0608389,27.457539 L40.7767765,27.179563 C40.685415,27.108603 40.61095,27.0181734 40.5587752,26.9148239 C40.5348145,26.7591064 40.5348145,26.6006296 40.5587752,26.4449121 L40.5587752,21.0309982 C40.5454082,20.9188825 40.5454082,20.8055715 40.5587752,20.6934558 C40.5587752,20.640508 40.5587752,20.6007972 40.5587752,20.5544679 C40.5931336,20.4463657 40.6600567,20.351573 40.7503521,20.2831103 C40.8626559,20.1639777 40.9749596,20.058082 41.0938695,19.9455679 C41.1537442,19.8594632 41.239316,19.7945848 41.3382952,19.7602506 C41.4722818,19.7467592 41.6072809,19.7467592 41.7412675,19.7602506 L46.1211133,19.7602506 C46.2268109,19.7602506 46.3985696,19.7602506 46.4448123,19.7073028 C46.4585393,19.650767 46.4585393,19.5917582 46.4448123,19.5352224 L46.4448123,17.2584665 C46.4448123,17.1922816 46.4448123,17.1194784 46.4448123,17.0930045 C46.4448123,17.0665306 46.3259025,17.0930045 46.2466292,17.0930045 L37.9956075,17.0930045 C37.9559708,17.0930045 37.9229403,17.0930045 37.896516,17.1327154 C37.8755552,17.2775646 37.8755552,17.4246856 37.896516,17.5695348 L37.896516,30.1777329 C37.8822549,30.2342034 37.8822549,30.2933429 37.896516,30.3498134 C37.896516,30.4027611 38.0088196,30.3961427 38.0880929,30.3961427 L49.0872532,30.3961427 C49.1572912,30.4069645 49.228952,30.3953846 49.2920424,30.3630503 C49.3382851,30.3233394 49.2920424,30.1049298 49.2920424,30.0056525 L49.2920424,24.6380679 L49.3250729,24.6380679 Z" id="路径" fill="#231815"></path>
                    <path d="M69.9030816,25.8161568 L69.9030816,20.8589178 C69.9030816,20.7662591 69.9030816,20.6736004 69.9030816,20.5743233 C69.9398291,20.4530891 70.0138023,20.3465533 70.1144769,20.2698733 L70.4315697,19.9588049 C70.4955177,19.8653629 70.5883718,19.7955919 70.6958139,19.7602506 L70.7552687,19.7602506 C70.8783836,19.7503227 71.0020957,19.7503227 71.1252104,19.7602506 L78.4315596,19.7602506 C78.4863938,19.767172 78.5418781,19.767172 78.5967122,19.7602506 C78.6306178,19.7414338 78.6564688,19.7108254 78.6693793,19.6742104 C78.6727004,19.6102751 78.6727004,19.5462099 78.6693793,19.4822746 L78.6693793,17.3114142 C78.6873184,17.2442041 78.6873184,17.1734516 78.6693793,17.1062414 C78.6693793,17.0599121 78.5570755,17.0665306 78.4711963,17.0665306 L67.3399139,17.0665306 C67.3068833,17.0665306 67.2738528,17.0665306 67.2540345,17.1062414 C67.2298889,17.2508432 67.2298889,17.3984591 67.2540345,17.543061 L67.2540345,30.1843515 C67.2348729,30.2378349 67.2348729,30.2963299 67.2540345,30.3498134 C67.2540345,30.4027611 67.3597322,30.3961427 67.4390054,30.3961427 L78.4315596,30.3961427 C78.4968212,30.4107048 78.5644812,30.4107048 78.6297427,30.3961427 C78.6627732,30.3961427 78.6297427,30.3365764 78.6759855,30.2836286 L78.6759855,27.9208324 C78.6759855,27.8281738 78.6759855,27.7421335 78.6033182,27.7156597 C78.5442927,27.7055352 78.4839791,27.7055352 78.4249535,27.7156597 L71.1912715,27.7156597 C70.9923934,27.7411784 70.7904594,27.7276908 70.5967222,27.6759488 C70.5373288,27.6274869 70.4840836,27.5719192 70.4381759,27.5104869 C70.3324782,27.4178282 70.2333867,27.3185511 70.1342952,27.2126554 C70.0468145,27.1448006 69.9747525,27.0590667 69.9228998,26.9611533 C69.9059493,26.8359756 69.9059493,26.7090778 69.9228998,26.5839001 L69.9030816,25.8161568 Z" id="路径" fill="#231815"></path>
                    <path d="M93.3482989,30.1578775 L93.3482989,17.2783219 C93.3482989,17.1989001 93.3482989,17.1194784 93.3482989,17.0930045 C93.2698949,17.0749025 93.1885626,17.0749025 93.1103189,17.0930045 L82.0318854,17.0930045 C82.0318854,17.0930045 81.9922488,17.0930045 81.9790365,17.0930045 C81.9658244,17.0930045 81.9261877,17.1989001 81.9261877,17.2849403 L81.9261877,30.0586004 C81.9095776,30.1460621 81.9095776,30.2358777 81.9261877,30.3233394 C81.9261877,30.3961427 82.0318854,30.3895242 82.1309769,30.3895242 L84.3770517,30.3895242 C84.4365067,30.3895242 84.5157799,30.3895242 84.5488103,30.3895242 C84.5818409,30.3895242 84.595053,30.290247 84.595053,30.2174439 L84.595053,28.7415235 C84.5744367,28.5768456 84.5902239,28.4096401 84.6412958,28.2517562 C84.6870119,28.1862024 84.7402221,28.1262289 84.7998422,28.0730574 L85.0905108,27.7818444 C85.1582387,27.6941998 85.2438122,27.622003 85.3415427,27.5700531 C85.4769931,27.5457711 85.6156705,27.5457711 85.7511209,27.5700531 L89.7147824,27.5700531 C89.7742373,27.5700531 89.8469044,27.5700531 89.8997533,27.5700531 C89.982327,27.6163369 90.0561209,27.6768268 90.1177546,27.748752 C90.2234523,27.8612661 90.3357559,27.9737802 90.4480597,28.0796758 C90.5272119,28.143763 90.5905151,28.2253052 90.6330306,28.317941 C90.6502898,28.4364461 90.6502898,28.5568336 90.6330306,28.6753388 L90.6330306,30.0652188 C90.6330306,30.1578775 90.6330306,30.290247 90.6330306,30.3498134 C90.6330306,30.4093797 90.7387282,30.3895242 90.8113953,30.3895242 L93.0772884,30.3895242 C93.1337185,30.4032769 93.1926169,30.4032769 93.2490471,30.3895242 C93.3547447,30.3299579 93.3482989,30.2637732 93.3482989,30.1578775 Z M90.7056977,21.0309982 L90.7056977,23.6452965 C90.7364,23.8408659 90.7088243,24.0411639 90.6264245,24.2211039 L90.2168461,24.6314495 C90.1481832,24.726726 90.05752,24.803934 89.9526021,24.8564777 C89.794928,24.8800425 89.6346368,24.8800425 89.4769626,24.8564777 L85.7114844,24.8564777 C85.6040229,24.8702562 85.4952468,24.8702562 85.3877854,24.8564777 C85.2688755,24.8564777 85.2094206,24.7241082 85.1367535,24.6513049 C85.0640864,24.5785016 84.9253582,24.4527506 84.8262666,24.346855 C84.768017,24.2950018 84.7128704,24.2397518 84.6611141,24.1813931 C84.6136487,24.0387187 84.5978666,23.8873779 84.6148714,23.7379552 L84.6148714,20.8655362 C84.6115606,20.8082241 84.6115606,20.750768 84.6148714,20.6934558 C84.6148714,20.6206526 84.6148714,20.5610863 84.6148714,20.50152 C84.6695757,20.3997648 84.7463211,20.3115683 84.8394789,20.2433994 C84.9291427,20.1436316 85.02396,20.0486367 85.1235412,19.9588049 C85.1723675,19.8954945 85.2302425,19.8397412 85.2953,19.793343 L85.3877854,19.793343 L89.4637505,19.793343 C89.6105963,19.7731199 89.7595135,19.7731199 89.9063593,19.793343 C90.0140831,19.8350371 90.1063556,19.9089935 90.1706034,20.0051342 L90.4744841,20.3029657 C90.5394218,20.3525304 90.5952987,20.4129905 90.6396367,20.4816646 C90.6889381,20.6604353 90.7001914,20.8475907 90.6726672,21.0309982 L90.7056977,21.0309982 Z" id="形状" fill="#231815"></path>
                    <path d="M77.9757385,17.6886674 L67.8551898,17.6886674 L67.8551898,29.7607689 L78.068224,29.7607689 L78.068224,28.3311779 L71.0789677,28.3311779 C70.7996675,28.3655292 70.5165159,28.3147894 70.2664172,28.1855715 L70.0219914,27.9737802 C69.6652618,27.609764 69.6652618,27.609764 69.6652618,27.5700531 C69.5514476,27.4484717 69.4476147,27.3178843 69.3547751,27.179563 C69.3206713,27.0045735 69.2964107,26.827802 69.282108,26.6500849 C69.282108,26.6500849 69.282108,20.8522992 69.282108,20.8522992 L69.282108,20.5081385 C69.282108,20.5081385 69.282108,20.4419538 69.282108,20.4419538 C69.3307864,20.215377 69.4485146,20.0095448 69.6190191,19.8529093 L70.2796294,19.1910616 C70.3309397,19.1635628 70.3838883,19.1392493 70.4381759,19.1182583 L70.6693895,19.1182583 L78.068224,19.1182583 L78.068224,17.6886674 L77.9757385,17.6886674 Z" id="路径" fill="#EE848C"></path>
                    <path d="M63.9575895,17.086386 C63.8770793,17.0686186 63.7936739,17.0686186 63.7131637,17.086386 L52.6677607,17.086386 C52.6677607,17.086386 52.6016996,17.086386 52.5752752,17.1260969 C52.5511296,17.2706986 52.5511296,17.4183147 52.5752752,17.5629164 L52.5752752,30.1777329 C52.5610142,30.2342034 52.5610142,30.2933429 52.5752752,30.3498134 C52.5752752,30.4027611 52.687579,30.3961427 52.7668522,30.3961427 L63.7528003,30.3961427 C63.8202978,30.4106285 63.8900921,30.4106285 63.9575895,30.3961427 C64.0038322,30.3564318 64.0038322,30.2637732 64.0038322,30.1843515 L64.0038322,17.2783219 C64.0038322,17.1989001 64.0038322,17.1194784 63.9575895,17.086386 Z M61.3151485,26.9479163 C61.2618501,27.0429395 61.1925684,27.1280244 61.1103594,27.1994184 L60.8064786,27.4972499 C60.7520182,27.5595893 60.6923468,27.6171583 60.6281139,27.6693303 L60.6281139,27.6693303 C60.4352956,27.6966698 60.2395952,27.6966698 60.046777,27.6693303 L56.2680864,27.6693303 C56.1783067,27.6828421 56.0870159,27.6828421 55.9972362,27.6693303 C55.8849325,27.6693303 55.8188715,27.5435793 55.7395983,27.4641575 L55.4357175,27.1663261 C55.3721363,27.112751 55.3165233,27.0503478 55.2705649,26.9810087 C55.2189414,26.7891618 55.2054737,26.5890172 55.2309284,26.3919642 L55.2309284,20.9515765 C55.210743,20.8044554 55.210743,20.6552594 55.2309284,20.5081385 C55.2782082,20.4109814 55.3485195,20.3269043 55.4357175,20.2632548 L55.7462043,19.9588049 C55.7882195,19.9000957 55.8395452,19.8486739 55.8981446,19.80658 C55.9276877,19.7845478 55.9614052,19.7687834 55.9972362,19.7602506 L60.0798074,19.7602506 C60.2288635,19.7399982 60.3799663,19.7399982 60.5290223,19.7602506 C60.5290223,19.7602506 60.5290223,19.7602506 60.5752651,19.7602506 C60.6516911,19.8098423 60.7225648,19.867535 60.7866604,19.9323311 L61.2292693,20.3890059 C61.3042563,20.5710295 61.3293436,20.7698191 61.3019364,20.9648133 L61.3019364,26.4647675 C61.3260888,26.6271266 61.3260888,26.7921756 61.3019364,26.9545348 L61.3151485,26.9479163 Z" id="形状" fill="#231815"></path>
                    <path d="M61.275512,17.6886674 C61.275512,17.6886674 61.275512,17.6886674 61.275512,17.6886674 L61.275512,19.4028528 L61.3283608,19.5286039 L61.856849,20.0977929 L61.9427283,20.3492951 L61.9427283,27.0802859 L61.856849,27.3251695 L61.3283608,27.88774 L61.275512,28.013491 L61.275512,29.734295 C61.275512,29.734295 61.275512,29.734295 61.275512,29.734295 L63.3828586,29.734295 L63.3828586,17.6886674 L63.3828586,17.6886674 L61.275512,17.6886674 Z" id="路径" fill="#FAF9E2"></path>
                    <path d="M77.9757385,17.6886674 L67.8551898,17.6886674 L67.8551898,29.7607689 L78.068224,29.7607689 L78.068224,28.3311779 L71.0789677,28.3311779 C70.7996675,28.3655292 70.5165159,28.3147894 70.2664172,28.1855715 L70.0219914,27.9737802 C69.6652618,27.609764 69.6652618,27.609764 69.6652618,27.5700531 C69.5514476,27.4484717 69.4476147,27.3178843 69.3547751,27.179563 C69.3206713,27.0045735 69.2964107,26.827802 69.282108,26.6500849 C69.282108,26.6500849 69.282108,20.8522992 69.282108,20.8522992 L69.282108,20.5081385 C69.282108,20.5081385 69.282108,20.4419538 69.282108,20.4419538 C69.3307864,20.215377 69.4485146,20.0095448 69.6190191,19.8529093 L70.2796294,19.1910616 C70.3309397,19.1635628 70.3838883,19.1392493 70.4381759,19.1182583 L70.6693895,19.1182583 L78.068224,19.1182583 L78.068224,17.6886674 L77.9757385,17.6886674 Z" id="路径" fill="#FAF9E2"></path>
                </g>
            </g>
        </g>
    </g>
</svg>