<?xml version="1.0" encoding="UTF-8"?>
<svg width="120px" height="90px" viewBox="0 0 120 90" version="1.1" xmlns="http://www.w3.org/2000/svg" xmlns:xlink="http://www.w3.org/1999/xlink">
    <title>felica_transport_ic_suica</title>
    <g id="LOGO-+-SDK-+-payment-icon" stroke="none" stroke-width="1" fill="none" fill-rule="evenodd">
        <g id="payment" transform="translate(-1618.000000, -955.000000)">
            <g id="felica_transport_ic_suica" transform="translate(1618.000000, 955.000000)">
                <g id="payment-4:3bg" transform="translate(-20.000000, -15.000000)"></g>
                <g id="编组" transform="translate(10.000000, 14.000000)">
                    <path d="M6.67267445,49.2662848 C12.0188533,56.5958149 20.8862749,62.0689735 30.7907749,62.0689735 L69.2913025,62.0689735 C69.2913025,62.0689735 69.4279717,62.0689735 69.4279717,62.0689735 C81.2561128,62.0774687 92.02631,55.2893714 97.0758688,44.6434068 C102.125428,33.9974422 100.546839,21.4069093 93.0235133,12.3225724" id="路径" fill="#231815" fill-rule="nonzero"></path>
                    <path d="M68.8009011,1.91239923 C68.2140274,1.91239923 67.6271536,1.91239923 67.0483192,1.96841093 L30.5495939,1.96841093 C14.7386838,1.96841093 1.92140867,14.7255862 1.92140867,30.4623593 C1.92140867,46.1991325 14.7386838,58.9563077 30.5495939,58.9563077 C31.2570582,58.9563077 31.9564831,58.9563077 32.6559079,58.8682893 L68.664232,58.8682893 L68.664232,58.8682893 L68.8009011,58.8682893 C79.0201502,58.8682895 88.4631257,53.441949 93.5727503,44.6333178 C98.6823748,35.8246866 98.6823748,24.9720054 93.5727503,16.1633741 C88.4631257,7.35474294 79.0201502,1.92840243 68.8009011,1.92840257" id="路径" fill="#319041" fill-rule="nonzero"></path>
                    <path d="M3.88301417,30.4623593 C3.9007236,15.8098822 15.828094,3.93485995 30.5495939,3.91281684 L67.0804767,3.91281684 L68.8009011,3.85680515 C83.5195664,3.85680515 95.4514022,15.7326928 95.4514022,30.3823426 C95.4514022,45.0319924 83.5195664,56.9078801 68.8009011,56.9078801 L68.664232,56.9078801 L32.6157111,56.9078801 L30.5495939,56.9958985 C15.8343598,56.973878 3.90957536,45.1085868 3.88301417,30.4623593 M31.2168614,60.8126953 C39.5215272,60.8126953 68.6803107,60.8126953 68.6803107,60.8126953 L68.6803107,60.8126953 C68.6803107,60.8126953 68.8169799,60.8126953 68.8169799,60.8126953 C79.7312987,60.8126953 89.8165453,55.0172784 95.2737048,45.6095216 C100.730864,36.2017648 100.730864,24.6109305 95.2737048,15.2031737 C89.8165453,5.79541684 79.7312987,0 68.8169799,0 L67.0483192,0.056011693 L30.5495939,0.056011693 C13.6921947,0.0912234677 0.0353776597,13.684004 0,30.4623593 C0,47.2658672 14.1090887,60.8126953 30.9676409,60.8126953 L31.2168614,60.8126953 Z" id="形状" fill="#CBAB80" fill-rule="nonzero"></path>
                    <polyline id="路径" fill="#319041" fill-rule="nonzero" points="68.8009011 58.8842926 30.6862631 58.9082977 30.6943025 1.99241594 68.8009011 1.91239923"></polyline>
                    <path d="M40.3495252,30.4063476 C40.3333187,18.8747579 47.2999902,8.46964013 57.9993164,4.04547116 C68.6986426,-0.378697808 81.0221807,2.04992274 89.2204202,10.1982671 C97.4186599,18.3466114 99.8760302,30.608941 95.4460523,41.2643025 C91.0160744,51.9196639 80.5717338,58.8682985 68.9858065,58.8682985 C53.1824728,58.8771316 40.3628969,46.135577 40.3495252,30.4063476" id="路径" fill="#319041" fill-rule="nonzero"></path>
                    <path d="M2.0821597,30.5343744 C2.06918641,19.0020518 9.03966439,8.5983748 19.7412269,4.17766605 C30.4427895,-0.243042724 42.7662737,2.19049097 50.9615808,10.342788 C59.1568879,18.4950849 61.608811,30.7594153 57.1732906,41.413281 C52.73777,52.0671468 42.2889993,59.0107856 30.7023418,59.0043268 C14.907653,58.9910967 2.1043553,46.2549924 2.0821597,30.5343744" id="路径" fill="#319041" fill-rule="nonzero"></path>
                    <path d="M30.7023418,1.99241367 C19.1218592,1.98917961 8.68000854,8.93032085 4.24684755,19.5785056 C-0.186313441,30.2266903 2.26248162,42.4843855 10.4511197,50.6346274 C18.6397578,58.7848692 30.9551999,61.2221818 41.6535488,56.8098078 C52.3518978,52.3974338 59.3257393,42.0045447 59.32249,30.4783626 C59.32249,22.9234199 56.3071595,15.6779078 50.939841,10.3357566 C45.5725225,4.99360528 38.2928764,1.99241367 30.7023418,1.99241367" id="路径" fill="#319041" fill-rule="nonzero"></path>
                    <path d="M48.1316891,47.8019792 C45.9153695,50.0168248 43.2926851,51.7878677 40.4058576,53.0190683 C47.6412877,45.3054579 47.3197131,30.446356 47.3197131,30.446356 C47.3197131,30.446356 47.6654059,15.587254 40.4058576,7.8736437 C47.9277222,11.0846892 53.3601885,17.7992987 54.9079674,25.7984679 C56.4557462,33.7976371 53.9173636,42.0401161 48.1316891,47.8019792 M32.6800261,54.9474708 L32.6800261,54.9474708 L32.6800261,6.01725616 L32.6800261,6.01725616 C34.0556129,6.62786291 35.2960964,7.50355179 36.3298986,8.59379405 C38.6530047,11.1097342 40.3687338,14.1200747 41.3464636,17.3956315 C42.7037723,21.618441 43.3794365,26.0288271 43.3482659,30.4623593 C43.3793372,34.8985043 42.7036855,39.3115094 41.3464636,43.5370888 C40.3687338,46.8126456 38.6530047,49.8229861 36.3298986,52.3389263 C35.2990578,53.4406811 34.0583707,54.3273937 32.6800261,54.9474708 L32.6800261,54.9474708 Z M28.7085788,54.9474708 L28.7085788,54.9474708 C27.3356618,54.3261252 26.100479,53.4394405 25.0747851,52.3389263 C22.7471672,49.8249509 21.0284293,46.8141563 20.0501808,43.5370888 C18.6929588,39.3115094 18.0173071,34.8985043 18.0483785,30.4623593 C18.0120113,26.0296825 18.6822454,21.6193166 20.0341021,17.3956315 C21.0170631,14.1170976 22.7413716,11.1061795 25.0747851,8.59379405 C26.1051984,7.4915559 27.3459897,6.60476895 28.7246576,5.98524948 L28.7246576,5.98524948 L28.7085788,54.9474708 Z M13.2569159,47.8019792 C7.47510708,42.0384279 4.93932443,33.7973236 6.48681355,25.7996517 C8.03430268,17.8019799 13.4638421,11.0876855 20.9827474,7.8736437 C13.7473172,15.587254 14.068892,30.446356 14.068892,30.446356 C14.068892,30.446356 13.7231992,45.3054579 20.9827474,53.0190683 C18.09592,51.7878677 15.4732355,50.0168248 13.2569159,47.8019792 L13.2569159,47.8019792 Z M30.7023418,1.99241367 C19.1218592,1.98917961 8.68000854,8.93032085 4.24684755,19.5785056 C-0.186313441,30.2266903 2.26248162,42.4843855 10.4511197,50.6346274 C18.6397578,58.7848692 30.9551999,61.2221818 41.6535488,56.8098078 C52.3518978,52.3974338 59.3257393,42.0045447 59.32249,30.4783626 C59.32249,22.9234199 56.3071595,15.6779078 50.939841,10.3357566 C45.5725225,4.99360528 38.2928764,1.99241367 30.7023418,1.99241367 Z" id="形状" fill="#000000" fill-rule="nonzero"></path>
                    <rect id="矩形" fill="#FFFFFF" fill-rule="nonzero" x="29.6089879" y="21.6605218" width="2.1786684" height="6.0892712"></rect>
                    <path d="M45.5751705,21.3964668 C45.9775502,23.409087 46.2461121,25.4459328 46.3791071,27.4937395 L44.2004387,27.5977613 C44.087286,25.6609218 43.8455776,23.7336492 43.4768957,21.8285569 L45.5751705,21.3964668" id="路径" fill="#FFFFFF" fill-rule="nonzero"></path>
                    <rect id="矩形" fill="#FFFFFF" fill-rule="nonzero" x="29.6089879" y="33.2149339" width="2.1786684" height="6.0892712"></rect>
                    <path d="M45.5751705,39.5362536 C45.9780394,37.5210202 46.246604,35.4814809 46.3791071,33.4309791 L44.2004387,33.3269574 C44.0871718,35.2664347 43.845466,37.1963613 43.4768957,39.1041633 L45.6153672,39.5362536" id="路径" fill="#FFFFFF" fill-rule="nonzero"></path>
                    <path d="M20.3556768,10.0580997 L21.9635501,11.0743119 C20.9421998,12.7144829 20.0986982,14.4579501 19.4472283,16.2753977 L17.3971898,15.539244 C18.1333095,13.5952444 19.1167675,11.7531843 20.3235193,10.0580997" id="路径" fill="#CBAB80" fill-rule="nonzero"></path>
                    <path d="M21.4651094,4.44092709 C19.5201839,5.11945731 17.6591562,6.01607855 15.9179463,7.11348501 L17.0836545,8.94586754 C18.6903429,7.93209357 20.4086084,7.10517953 22.2047311,6.48135305 L21.4651094,4.44092709" id="路径" fill="#CBAB80" fill-rule="nonzero"></path>
                    <path d="M15.8134345,21.3964668 C15.4285064,23.4106055 15.1734057,25.4471871 15.0496947,27.4937395 L17.2283631,27.5977613 C17.3415159,25.6609218 17.5832241,23.7336492 17.9519061,21.8285569 L15.8134345,21.3964668" id="路径" fill="#CBAB80" fill-rule="nonzero"></path>
                    <path d="M11.0862868,10.9942952 C9.61930075,12.4483497 8.31715997,14.0583311 7.20327267,15.7952975 L9.05232703,16.9395363 C10.0761121,15.3320684 11.2759611,13.8426441 12.6298453,12.4986092 L11.0862868,10.9942952" id="路径" fill="#CBAB80" fill-rule="nonzero"></path>
                    <path d="M4.48596668,21.3964668 C3.81213491,23.3322108 3.35908529,25.3372179 3.13535306,27.3737145 L5.30598209,27.6137646 C5.52332749,25.7420287 5.95212522,23.9006706 6.58424141,22.1246187 L4.48596668,21.3964668" id="路径" fill="#CBAB80" fill-rule="nonzero"></path>
                    <path d="M27.8001305,5.20908745 C29.7263114,4.99570916 31.6703329,4.99570916 33.5965139,5.20908745 L33.8376949,3.04863644 C31.7514214,2.813942 29.645223,2.813942 27.5589494,3.04863644 L27.8001305,5.20908745" id="路径" fill="#CBAB80" fill-rule="nonzero"></path>
                    <rect id="矩形" fill="#CBAB80" fill-rule="nonzero" x="29.6089879" y="10.1301148" width="2.1786684" height="6.15328456"></rect>
                    <path d="M41.0409676,10.0580997 L39.4330943,11.0743119 C40.448989,12.7151097 41.2870951,14.4585647 41.9333372,16.2753977 L43.9833759,15.539244 C43.2480939,13.5964078 42.2674576,11.7545729 41.0650856,10.0580997" id="路径" fill="#CBAB80" fill-rule="nonzero"></path>
                    <path d="M39.9234956,4.44092709 C41.8690952,5.11784251 43.7303031,6.01455063 45.4706587,7.11348501 L44.3129899,8.94586754 C42.7026392,7.93356455 40.981886,7.10675126 39.1838738,6.48135305 L39.9234956,4.44092709" id="路径" fill="#CBAB80" fill-rule="nonzero"></path>
                    <path d="M50.3023182,10.9942952 C51.7716521,12.4462456 53.0740116,14.0564976 54.1853323,15.7952975 L52.3362779,16.9395363 C51.3124929,15.3320684 50.1126439,13.8426441 48.7587597,12.4986092 L50.3023182,10.9942952" id="路径" fill="#CBAB80" fill-rule="nonzero"></path>
                    <path d="M20.3556768,50.9066272 L21.9635501,49.8824134 C20.9391164,48.2439279 20.0954515,46.5001236 19.4472283,44.6813277 L17.4293472,45.401478 C18.1672305,47.3446839 19.1505726,49.1865272 20.3556768,50.8826223" id="路径" fill="#CBAB80" fill-rule="nonzero"></path>
                    <path d="M21.4651094,56.5237999 C19.5215822,55.8419259 17.6609238,54.9454825 15.9179463,53.851242 L17.0836545,52.0108578 C18.6903429,53.0246317 20.4086084,53.8515457 22.2047311,54.4753723 L21.4651094,56.5237999" id="路径" fill="#CBAB80" fill-rule="nonzero"></path>
                    <path d="M15.8134345,39.5362536 C15.4266034,37.5089554 15.1714945,35.4589432 15.0496947,33.3989724 L17.2283631,33.2949507 C17.34163,35.234428 17.5833359,37.1643546 17.9519061,39.0721567 L15.8134345,39.5042469" id="路径" fill="#CBAB80" fill-rule="nonzero"></path>
                    <path d="M11.0862868,50.0024385 C9.6195898,48.5481252 8.31747572,46.9381767 7.20327267,45.2014362 L9.05232703,44.0571974 C10.0739298,45.6686615 11.27394,47.1609697 12.6298453,48.5061261 L11.0862868,50.0024385" id="路径" fill="#CBAB80" fill-rule="nonzero"></path>
                    <path d="M4.48596668,39.5442553 C3.81382399,37.6080329 3.36081746,35.6032166 3.13535306,33.5670075 L5.30598209,33.3189556 C5.52243332,35.2012726 5.95122297,37.0533328 6.58424141,38.8401083 L4.51812415,39.5442553" id="路径" fill="#CBAB80" fill-rule="nonzero"></path>
                    <path d="M27.5589494,57.9080888 C29.645223,58.1427833 31.7514214,58.1427833 33.8376949,57.9080888 L33.5965139,55.7556395 C31.6703329,55.9690178 29.7263114,55.9690178 27.8001305,55.7556395 L27.5589494,57.9080888" id="路径" fill="#CBAB80" fill-rule="nonzero"></path>
                    <rect id="矩形" fill="#CBAB80" fill-rule="nonzero" x="29.6089879" y="44.6813277" width="2.1786684" height="6.15328456"></rect>
                    <path d="M41.0409676,50.9066272 L39.4330943,49.8824134 C40.4520178,48.2432615 41.2902831,46.4994754 41.9333372,44.6813277 L43.9833759,45.425483 C43.246278,47.3675033 42.2657598,49.2091167 41.0650856,50.9066272" id="路径" fill="#CBAB80" fill-rule="nonzero"></path>
                    <path d="M39.9234956,56.5237999 C41.8677036,55.843553 43.728541,54.9470233 45.4706587,53.851242 L44.3129899,52.0108578 C42.7026392,53.0231608 40.981886,53.849974 39.1838738,54.4753723 L39.9234956,56.5237999" id="路径" fill="#CBAB80" fill-rule="nonzero"></path>
                    <path d="M50.3023182,50.0024385 C51.7713057,48.5501774 53.0736328,46.9399656 54.1853323,45.2014362 L52.3362779,44.0571974 C51.3146752,45.6686615 50.1146649,47.1609697 48.7587597,48.5061261 L50.3023182,50.0424469" id="路径" fill="#CBAB80" fill-rule="nonzero"></path>
                    <rect id="矩形" fill="#319041" fill-rule="nonzero" x="28.0171933" y="20.028181" width="31.0801921" height="19.812136"></rect>
                    <path d="M55.4073113,30.3823426 C55.4073113,24.9121433 58.7184393,19.9807259 63.7963646,17.8881195 C68.87429,15.7955131 74.718729,16.9539359 78.6038162,20.8230954 C82.4889033,24.6922549 83.649324,30.5099743 81.543854,35.5628498 C79.438384,40.6157254 74.4817754,43.9084024 68.9858065,43.9051704 C65.3831737,43.9051704 61.9282125,42.4801891 59.3815203,39.9439375 C56.8348283,37.407686 55.4051831,33.9680823 55.4073113,30.3823426 L55.4073113,30.3823426 Z" id="路径" fill="#FFFFFF" fill-rule="nonzero"></path>
                    <path d="M55.4073113,30.3823426 C55.4073113,24.9121433 58.7184393,19.9807259 63.7963646,17.8881195 C68.87429,15.7955131 74.718729,16.9539359 78.6038162,20.8230954 C82.4889033,24.6922549 83.649324,30.5099743 81.543854,35.5628498 C79.438384,40.6157254 74.4817754,43.9084024 68.9858065,43.9051704 C65.3831737,43.9051704 61.9282125,42.4801891 59.3815203,39.9439375 C56.8348283,37.407686 55.4051831,33.9680823 55.4073113,30.3823426 L55.4073113,30.3823426 Z" id="路径" stroke="#231815" stroke-width="0.5"></path>
                    <path d="M36.579119,24.0050113 C36.5865014,24.7031117 36.6321255,25.4002921 36.7157883,26.0934472 C35.2028746,25.3915041 33.560846,25.0074368 31.8921682,24.9652117 C30.4531215,24.9652117 29.7215391,25.4133053 29.7215391,26.2614823 C29.7215391,27.1096594 30.6862631,27.3497095 32.6478686,27.7097847 C35.7269461,28.2619 37.2865832,29.3101187 37.2865832,32.0706951 C37.2865832,34.8312714 35.525962,36.3595905 32.0609948,36.3595905 C30.2581814,36.3773952 28.4616252,36.1457998 26.7228553,35.6714468 C26.7068531,34.5507282 26.6317155,33.4316197 26.497753,32.3187469 C28.0778943,33.1249645 29.8196807,33.5679397 31.5947116,33.6150175 C33.2025849,33.6150175 33.9100492,33.2469407 33.9100492,32.3427518 C33.9100492,31.2945331 33.0337583,31.1585046 31.4419636,30.8224345 C30.1913983,30.6663438 28.9839588,30.2666575 27.8885634,29.646189 C26.9350536,28.9309648 26.387144,27.801544 26.4173593,26.6135559 C26.4173593,24.0370179 28.338768,22.4046772 31.9966799,22.4046772 C33.5512949,22.4281297 35.0965744,22.648617 36.5951977,23.0608141 C36.5951977,23.3968844 36.5951977,23.7329545 36.5951977,24.0050113" id="路径" fill="#231815" fill-rule="nonzero"></path>
                    <path d="M46.4434221,26.4455208 L46.4434221,31.9826767 C46.4434221,33.3509623 46.59617,34.159131 47.954823,34.159131 C48.7780003,34.1295846 49.5629017,33.805733 50.1656488,33.2469407 L50.1656488,26.4455208 L53.3090414,26.4455208 L53.3090414,35.9755102 L50.8007588,35.9755102 L50.5113417,34.9512964 C49.5158132,35.8090729 48.257483,36.3055316 46.9418628,36.3595905 C45.838243,36.4100329 44.7740767,35.9455337 44.0637695,35.1033282 C43.4600162,34.2249972 43.1919585,33.1606324 43.308069,32.1027017 L43.308069,26.4455208 L46.4514614,26.4455208" id="路径" fill="#231815" fill-rule="nonzero"></path>
                    <path d="M93.2566551,30.0302691 C93.2566551,27.3016995 92.1552617,26.0294339 88.6340191,26.0294339 C87.2791241,26.0024007 85.9380322,26.3045168 84.7268868,26.9096177 L85.2735638,28.8300185 C86.1495585,28.2903455 87.1539272,27.9921047 88.1838146,27.9658382 C89.6710974,27.9658382 90.298168,28.4379367 90.298168,29.5021588 L90.298168,30.1983043 L89.7675698,30.1983043 C85.9488706,30.1983043 83.8345171,31.2785297 83.8345171,33.4789891 C83.8345171,35.3193733 84.9680678,36.3915971 86.9296733,36.3915971 C88.3356484,36.3502746 89.7034754,35.9269083 90.8850418,35.1673415 C91.0891737,35.7529887 91.5605976,36.2073536 92.1552617,36.3915971 L94.132946,34.647233 C93.500991,34.4477195 93.1226775,33.8051839 93.2566551,33.1589223 L93.2566551,30.0302691 M90.298168,31.7986383 L90.298168,33.7190392 C89.5961149,34.0611397 88.8285155,34.2494111 88.0471453,34.2711545 C87.315563,34.2711545 86.9457521,33.9350843 86.9457521,33.2789474 C86.9457521,32.3027436 87.9265548,31.8146416 89.9042391,31.8146416 L90.298168,31.7986383 Z" id="形状" fill="#231815" fill-rule="nonzero"></path>
                    <path d="M61.5895891,27.3097011 L63.8808086,27.3097011 L63.8808086,35.49541 L61.5895891,35.49541 L61.5895891,27.3097011 Z M60.7213375,36.3675921 L64.7410209,36.3675921 L64.7410209,26.4375191 L60.7213375,26.4375191 L60.7213375,36.3675921 Z" id="形状" fill="#231815" fill-rule="nonzero"></path>
                    <path d="M61.5895891,23.5649194 L63.8808086,23.5649194 L63.8808086,24.7811733 L61.5895891,24.7811733 L61.5895891,23.5649194 Z M60.7213375,25.6533554 L64.7410209,25.6533554 L64.7410209,22.6927374 L60.7213375,22.6927374 L60.7213375,25.6533554 Z" id="形状" fill="#231815" fill-rule="nonzero"></path>
                    <path d="M78.0622517,35.5114133 C77.2416818,35.7157439 76.3997887,35.8231729 75.5539693,35.8314802 C74.1686475,35.9026314 72.8118842,35.4217848 71.7835062,34.4952013 C70.9289579,33.5912948 70.4768054,32.382554 70.5293651,31.1425013 C70.4757533,29.9580309 70.9081262,28.8027411 71.7272307,27.9418331 C72.8017255,26.9819231 74.2171269,26.4892877 75.658481,26.5735475 C76.4901044,26.5804151 77.3172099,26.6960974 78.1185274,26.9176193 L78.2310784,28.5179534 C77.4386202,28.2228188 76.6009869,28.0658223 75.7549534,28.0538566 C73.881781,28.0538566 72.8527421,29.1500854 72.8527421,31.1425013 C72.7874332,32.017474 73.0769748,32.8820259 73.6566787,33.5430024 C74.247917,34.0966197 75.0407938,34.3856888 75.8514259,34.3431695 C76.6529588,34.3334703 77.4469144,34.1873315 78.1989209,33.9110793 L78.0381337,35.5114133 M78.5204956,32.8388554 C77.6868421,33.2381872 76.7764405,33.4538032 75.8514259,33.4709874 C75.266657,33.5228949 74.6859301,33.3350437 74.2435525,32.9508788 C73.817056,32.4516236 73.6086636,31.8034506 73.664718,31.150503 C73.6242556,30.5084946 73.8443728,29.8771838 74.27571,29.3981371 C74.6823062,29.0432401 75.2158728,28.8671807 75.7549534,28.9100353 C76.7183948,28.9363546 77.6668439,29.153992 78.5446138,29.5501688 L79.2038418,29.8222257 L78.9385428,26.269484 L78.6491255,26.1814656 C77.6769156,25.8852245 76.6671247,25.7289423 75.6504417,25.7173687 C74.059857,25.6432726 72.499222,26.165804 71.2770261,27.1816745 C70.1796905,28.2175347 69.5922823,29.6791692 69.6691528,31.1825097 C69.6063677,32.6650401 70.1519498,34.1092525 71.1805538,35.1833448 C72.3684513,36.2818075 73.9503383,36.8585362 75.570048,36.783679 C76.5917237,36.7715572 77.6076161,36.6290311 78.5928499,36.3595905 L78.8822671,36.2795737 L79.2681568,32.5908037 L78.5204956,32.8388554 Z" id="形状" fill="#231815" fill-rule="nonzero"></path>
                    <path d="M36.096757,23.356876 C36.1012625,24.0548377 36.1442036,24.7520288 36.2253869,25.445312 C34.7124732,24.7433688 33.0704446,24.3593015 31.4017668,24.3170764 C29.9627201,24.3170764 29.2311377,24.7731716 29.2311377,25.613347 C29.2311377,26.4535224 30.1958617,26.7015743 32.1574672,27.0616494 C35.2365447,27.6137646 36.7961818,28.6619834 36.7961818,31.4225598 C36.7961818,34.1831361 34.9873244,35.7114552 31.5705934,35.7114552 C29.7667067,35.7206172 27.9702444,35.4809554 26.2324539,34.9993064 C26.220498,33.8784284 26.1453457,32.7591015 26.0073516,31.6466066 C27.5874929,32.4528241 29.3292793,32.8957994 31.1043102,32.9428771 C32.7121836,32.9428771 33.4196478,32.5748003 33.4196478,31.6626099 C33.4196478,30.6223928 32.5433569,30.4863644 30.9515622,30.1502941 C29.7012755,29.9929813 28.4940697,29.5933723 27.3981621,28.9740486 C26.4446522,28.2588246 25.8967426,27.1294037 25.9269579,25.9414155 C25.9269579,23.3648777 27.856406,21.7325369 31.5062785,21.7325369 C33.0635413,21.7559183 34.611488,21.9764008 36.1128357,22.3886739 C36.1128357,22.724744 36.1128357,23.0608141 36.1128357,23.3328709" id="路径" fill="#FFFFFF" fill-rule="nonzero"></path>
                    <path d="M45.9771387,25.7973855 L45.9771387,31.3345414 C45.9771387,32.702827 46.1218474,33.5109957 47.4805003,33.5109957 C48.2987072,33.4804951 49.0782278,33.1565074 49.6752475,32.5988053 L49.6752475,25.7973855 L52.8266793,25.7973855 L52.8266793,35.3273749 L50.3023182,35.3273749 L49.9968222,34.3031611 C49.0023022,35.16259 47.7433664,35.6592876 46.4273433,35.7114552 C45.3285705,35.7605701 44.2698523,35.2958528 43.5653287,34.4551929 C42.9445917,33.5832564 42.659281,32.5183585 42.7613921,31.4545664 L42.7613921,25.7973855 L45.9771387,25.7973855" id="路径" fill="#FFFFFF" fill-rule="nonzero"></path>
                    <path d="M92.7662537,29.3981371 C92.7662537,26.6695676 91.6728998,25.397302 88.1516571,25.397302 C86.7966631,25.3692978 85.4553394,25.6714661 84.2445248,26.2774857 L84.7831624,28.1978866 C85.6591571,27.6582136 86.6635259,27.3599728 87.6934132,27.3337062 C89.180696,27.3337062 89.8077667,27.8058047 89.8077667,28.8700269 L89.8077667,29.5261639 L89.2852078,29.5261639 C85.4584692,29.5261639 83.3441157,30.6063894 83.3441157,32.8068487 C83.3441157,34.647233 84.4776664,35.7194568 86.439272,35.7194568 C87.845247,35.6781344 89.213074,35.2547679 90.3946405,34.4952013 C90.6015249,35.0819749 91.0758433,35.5362545 91.6728998,35.7194568 L93.650584,33.9750926 C93.0178702,33.7757153 92.6369798,33.1346841 92.7662537,32.486782 L92.7662537,29.3981371 M89.8077667,31.1825097 L89.8077667,33.0869072 C89.1057136,33.4290077 88.3381141,33.6172792 87.5567439,33.6390225 C86.8332009,33.6390225 86.4553507,33.3029523 86.4553507,32.6468154 C86.4553507,31.6706116 87.4361534,31.1825097 89.421877,31.1825097 L89.8077667,31.1825097 Z" id="形状" fill="#FFFFFF" fill-rule="nonzero"></path>
                    <path d="M61.1072271,26.6615659 L63.3904074,26.6615659 L63.3904074,34.8472747 L61.1072271,34.8472747 L61.1072271,26.6615659 Z M60.2309361,35.7194568 L64.2506195,35.7194568 L64.2506195,25.7893838 L60.2309361,25.7893838 L60.2309361,35.7194568 Z" id="形状" fill="#319041" fill-rule="nonzero"></path>
                    <path d="M61.1072271,22.9167841 L63.3904074,22.9167841 L63.3904074,24.133038 L61.1072271,24.133038 L61.1072271,22.9167841 Z M60.2309361,25.0052201 L64.2506195,25.0052201 L64.2506195,22.0446021 L60.2309361,22.0446021 L60.2309361,25.0052201 Z" id="形状" fill="#319041" fill-rule="nonzero"></path>
                    <path d="M77.5718503,34.863278 C76.751409,35.0692937 75.9096313,35.1793932 75.0635679,35.1913466 C73.6771192,35.2603276 72.3202097,34.7765495 71.2931048,33.8470659 C70.4385565,32.9431595 69.986404,31.7344187 70.0389637,30.494366 C69.9890567,29.3104776 70.4209092,28.1565779 71.2368293,27.2936978 C72.3113241,26.3337878 73.7267255,25.8411524 75.1680797,25.9254122 C75.999703,25.9322798 76.8268085,26.0479621 77.628126,26.269484 L77.740677,27.8698182 C76.9509713,27.574814 76.1159995,27.4178067 75.2725915,27.4057213 C73.3913797,27.4057213 72.3623407,28.5019501 72.3623407,30.494366 C72.3006292,31.3688894 72.5897222,32.2321016 73.1662774,32.8948671 C73.7575156,33.4484844 74.5503924,33.7375536 75.3610245,33.6950341 C76.1625575,33.6853351 76.956513,33.5391962 77.7085195,33.262944 L77.5477323,34.863278 M78.0381337,32.1907201 C77.2020255,32.5911724 76.2887603,32.806817 75.3610245,32.8228521 C74.7765764,32.8719664 74.1969191,32.6844611 73.7531511,32.3027436 C73.3326824,31.8005347 73.1276461,31.1538187 73.1823561,30.5023677 C73.1328733,29.8799764 73.3289664,29.2628834 73.729033,28.7820085 C74.1358674,28.4213293 74.6732757,28.2420694 75.2163159,28.2859049 C76.1797572,28.3122244 77.1282063,28.5298616 78.0059762,28.9260386 L78.6571648,29.1980954 L78.3999052,25.6213487 L78.1104879,25.5333303 C77.1384023,25.2365509 76.128533,25.0802567 75.1118041,25.0692334 C73.5212194,24.9951374 71.9605844,25.5176686 70.7383886,26.5335392 C69.6519436,27.5601117 69.0655054,29.0047406 69.1305152,30.494366 C69.0677301,31.9768966 69.6133122,33.4211088 70.6419162,34.4952013 C71.8307768,35.5920988 73.411981,36.1685787 75.0314105,36.0955353 C76.0530861,36.0834136 77.0689785,35.9408875 78.0542124,35.6714468 L78.351669,35.5914301 L78.7295192,31.90266 L78.0381337,32.1907201 Z" id="形状" fill="#319041" fill-rule="nonzero"></path>
                    <path d="M62.2327385,42.0167714 C57.3968934,38.6142532 55.3324276,32.4860618 57.1300177,26.8697787 C58.9276077,21.2534956 64.1730951,17.4430932 70.0952392,17.4516432 C71.7722593,17.4484759 73.4370697,17.7354733 75.0153317,18.2998202 L75.1037647,18.2998202 C68.509474,14.8798371 60.3780501,17.3713069 56.8578471,23.890373 C53.337644,30.4094391 55.7365857,38.5339563 62.2407778,42.1207931 L62.2407778,42.0487782" id="路径" fill="#231815" fill-rule="nonzero"></path>
                </g>
            </g>
        </g>
    </g>
</svg>