<?xml version="1.0" encoding="UTF-8"?>
<svg width="120px" height="90px" viewBox="0 0 120 90" version="1.1" xmlns="http://www.w3.org/2000/svg" xmlns:xlink="http://www.w3.org/1999/xlink">
    <title>felica_id</title>
    <g id="LOGO-+-SDK-+-payment-icon" stroke="none" stroke-width="1" fill="none" fill-rule="evenodd">
        <g id="payment" transform="translate(-1618.000000, -355.000000)">
            <g id="felica_id" transform="translate(1618.000000, 355.000000)">
                <g id="payment-4:3bg" transform="translate(-20.000000, -15.000000)"></g>
                <g id="iD" transform="translate(10.000000, 12.000000)" fill-rule="nonzero">
                    <path d="M100,60.2991214 C99.9944548,63.0715341 97.759462,65.3176314 95.0007559,65.3232041 L4.99420451,65.3232041 C2.23746666,65.3148482 0.00553424259,63.0695631 0,60.2991214 L0,5.02408269 C0.0218895203,2.26049243 2.24430067,0.0247855481 4.99420451,0 L95.0007559,0 C97.752628,0.0220372593 99.9780717,2.258538 100,5.02408269 L100,60.2991214 Z" id="路径" fill="#EAC900"></path>
                    <rect id="矩形" fill="#D0A200" x="24.9962203" y="57.4122997" width="12.5031497" height="7.91090439"></rect>
                    <rect id="矩形" fill="#F1BB00" x="37.4993701" y="57.4122997" width="12.4981102" height="7.91090439"></rect>
                    <path d="M0,57.4122997 L0,60.2991214 C0,63.0735171 2.23353775,65.3249599 4.99420451,65.3333333 L12.4981102,65.3333333 L12.4981102,57.4122997 L0,57.4122997 Z" id="路径" fill="#D0A200"></path>
                    <rect id="矩形" fill="#F1BB00" x="12.4981102" y="57.4122997" width="12.4981102" height="7.91090439"></rect>
                    <rect id="矩形" fill="#F1BB00" x="62.4955904" y="57.4122997" width="12.5031497" height="7.91090439"></rect>
                    <path d="M87.4968503,57.4122997 L87.4968503,65.3333333 L95.0007559,65.3333333 C97.759462,65.3277606 99.9944548,63.0816633 100,60.3092506 L100,57.4224289 L87.4968503,57.4122997 Z" id="路径" fill="#F1BB00"></path>
                    <rect id="矩形" fill="#D0A200" x="74.9987401" y="57.4122997" width="12.4981102" height="7.91090439"></rect>
                    <rect id="矩形" fill="#D0A200" x="49.9974802" y="57.4122997" width="12.4981102" height="7.91090439"></rect>
                    <path d="M13.8285542,16.8397933 C13.8285542,14.0426922 16.0848423,11.7751938 18.8681147,11.7751938 C21.6513871,11.7751938 23.9076753,14.0426922 23.9076753,16.8397933 C23.9076753,19.6368943 21.6513871,21.9043928 18.8681147,21.9043928 C16.0848423,21.9043928 13.8285542,19.6368943 13.8285542,16.8397933" id="路径" fill="#000000"></path>
                    <path d="M23.2172555,46.4575711 C24.7892561,46.7479592 26.3299888,47.188902 27.8183742,47.7743669 L27.3144182,49.1164858 C21.8988847,46.9945021 15.8877403,46.9945021 10.4722068,49.1164858 L9.96825077,47.7743669 C11.4568524,47.1895463 12.9975229,46.7486212 14.5693696,46.4575711 L14.5693696,27.718553 C12.9982268,27.4268445 11.4577737,26.9876773 9.96825077,26.4068217 L10.4722068,25.0545736 C11.7916053,25.5724388 13.1566461,25.964146 14.5492113,26.2244961 C15.9793225,26.5005318 17.432028,26.6412677 18.8882729,26.6448579 C20.3522946,26.580601 21.8077354,26.385691 23.2374137,26.0624289 L23.2374137,46.4575711 L23.2172555,46.4575711 Z" id="路径" fill="#000000"></path>
                    <path d="M60.6007156,14.5607235 C46.5957768,18.7390181 37.3935393,14.4138501 37.2927481,14.3733333 L36.6930404,15.7002584 C38.5890937,16.5424048 40.5920026,17.1167773 42.6447614,17.4070284 L42.6447614,46.0878553 C40.5920026,46.3781064 38.5890937,46.9524789 36.6930404,47.7946253 L37.2927481,49.0911628 C37.373381,49.050646 46.5756186,44.7102842 60.5805574,48.9037726 C70.0196543,51.7196899 79.2269314,50.7624806 85.1736129,46.2904393 C89.6588218,42.9224806 92.0274152,37.8832041 92.0274152,31.7297158 C92.0274152,25.5762274 89.6588218,20.5420155 85.1736129,17.1791214 C79.2218919,12.6969509 70.0196543,11.7448062 60.5805574,14.5607235 M79.1563776,17.1537984 C79.7307958,17.7119403 80.2382067,18.3357571 80.6682457,19.0125065 C81.1031642,19.7119624 81.4710227,20.4513348 81.7668699,21.2206718 C82.855415,23.9707494 83.1325908,27.034832 83.2233029,29.9672351 C83.2233029,30.5547287 83.2233029,31.1422222 83.2233029,31.7297158 C83.2233029,32.3172093 83.2233029,32.9047028 83.2233029,33.4921964 C83.1325908,36.4296641 82.855415,39.4886822 81.7668699,42.2438243 C81.4710227,43.0131613 81.1031642,43.7525337 80.6682457,44.4519897 C80.2381483,45.1271575 79.7307247,45.7492901 79.1563776,46.3056331 C77.2766215,48.1339535 74.8475533,48.8885788 72.282417,48.9949354 C71.3803356,49.0405168 70.4681752,49.0354522 69.5660938,48.9949354 C68.6640125,48.9544186 67.6964169,48.8683204 66.7640982,48.74677 C65.8317795,48.6252196 64.8440256,48.4530233 63.8965882,48.2403101 C62.9491508,48.0275969 61.9462783,47.7844961 60.9887618,47.495814 C57.8424043,46.5454127 54.6035318,45.9375476 51.3279242,45.6826873 L51.3279242,17.7716796 C54.6035318,17.5168193 57.8424043,16.9089542 60.9887618,15.958553 C61.9462783,15.6698708 62.9189135,15.4217054 63.8965882,15.2140568 C64.874263,15.0064083 65.8015421,14.8443411 66.7640982,14.7075969 C67.7266542,14.5708527 68.6287356,14.4999483 69.5660938,14.4594315 C70.5034521,14.4189147 71.3803356,14.4189147 72.282417,14.4594315 C74.8475533,14.5708527 77.2766215,15.325478 79.1563776,17.1487339" id="形状" fill="#000000"></path>
                </g>
            </g>
        </g>
    </g>
</svg>