<?xml version="1.0" encoding="UTF-8"?>
<svg width="120px" height="90px" viewBox="0 0 120 90" version="1.1" xmlns="http://www.w3.org/2000/svg" xmlns:xlink="http://www.w3.org/1999/xlink">
    <title>felica_transport_ic_toica</title>
    <g id="LOGO-+-SDK-+-payment-icon" stroke="none" stroke-width="1" fill="none" fill-rule="evenodd">
        <g id="payment" transform="translate(-1968.000000, -1155.000000)">
            <g id="felica_transport_ic_toica" transform="translate(1968.000000, 1155.000000)">
                <g id="payment-4:3bg" transform="translate(-20.000000, -15.000000)"></g>
                <g id="形状" transform="translate(7.000000, 23.000000)" fill="#009FC5" fill-rule="nonzero">
                    <path d="M102.059823,29.3503727 C102.043443,22.6966568 97.2148506,17.0171147 90.6130198,15.8862834 C84.0111891,14.7554521 77.5460734,18.5004886 75.286627,24.764377 L75.1481051,24.9019569 C73.6269657,26.4078025 71.2775036,26.712043 69.4184701,25.6439082 C67.5594366,24.5757735 66.653757,22.4012442 67.2097887,20.3408817 C67.7658203,18.2805193 69.6451035,16.847383 71.7927981,16.845891 C73.0530206,16.8402314 74.2624352,17.3388906 75.1481051,18.2293331 L75.963845,19.0471689 L85.9682009,9.11084487 L85.1447656,8.30065228 C80.5516959,3.73734524 73.9194689,1.83918343 67.5857774,3.27522103 C61.2520859,4.71125863 56.1062161,9.27986784 53.9619573,15.3707291 L53.9619573,2.76688409 L39.8250327,2.76688409 L39.8250327,18.4739195 C36.265734,15.7751863 31.6063637,14.9666037 27.3365436,16.3066795 C23.0667235,17.6467551 19.7211942,20.9676616 18.3695368,25.20769 C16.8068993,24.6505123 15.7635855,23.1802429 15.7607086,21.53125 L15.7607086,15.6535321 L21.6709743,15.6535321 L21.6709743,5.87007455 L15.7607086,5.87007455 L15.7607086,0 L5.91026572,0 L5.91026572,5.87007455 L0,5.87007455 L0,15.6535321 L5.91026572,15.6535321 L5.91026572,21.53125 C5.90627379,28.8448326 11.6911999,34.8697894 19.0467548,35.2128039 C21.3369333,39.9961915 26.1885076,43.0490505 31.5214172,43.0625 C34.52332,43.0599369 37.4410696,42.0769578 39.8250327,40.2650426 L39.8250327,40.2650426 L53.9619573,40.2650426 L53.9619573,27.7147009 C55.6487004,32.4996388 59.2116336,36.4039785 63.840815,38.540168 C68.4699964,40.6763576 73.7721226,40.8629027 78.5418905,39.0573971 C83.5954436,44.0775526 91.6806286,44.4099286 97.1346014,39.8217296 C99.6135526,41.9028726 102.754101,43.0454931 106,43.0472134 L106,33.2637558 C103.8239,33.2637558 102.059823,31.5116745 102.059823,29.3503727 Z M31.5214172,33.2637558 C29.3453174,33.2637558 27.58124,31.5116745 27.58124,29.3503727 C27.58124,27.189071 29.3453174,25.4369897 31.5214172,25.4369897 C33.6975169,25.4369897 35.4615943,27.189071 35.4615943,29.3503727 C35.4615943,31.5116745 33.6975169,33.2637558 31.5214172,33.2637558 Z M51.6455641,37.9873314 L42.1414259,37.9873314 L42.1414259,5.06752529 L51.6455641,5.06752529 L51.6455641,37.9873314 Z M55.2163469,21.53125 C55.2137099,15.0835883 59.0042626,9.22896467 64.9119716,6.55606782 C70.8196806,3.88317099 77.7549896,4.88496227 82.6513722,9.1184882 L75.9022796,15.8293286 C72.9724014,13.7466113 68.9338682,14.187448 66.5293612,16.8524542 C64.1248543,19.5174603 64.1248543,23.5526829 66.5293612,26.2176891 C68.9338682,28.8826954 72.9724014,29.323532 75.9022796,27.2408147 L82.6590678,33.9440118 C79.6557851,36.5605852 75.795516,38.0007197 71.8004937,37.9950088 C62.6460859,37.9907615 55.2248407,30.6234028 55.2163469,21.53125 L55.2163469,21.53125 Z M88.3076811,33.2713991 C86.1325841,33.2713991 84.3689256,31.5208643 84.3675106,29.3605588 C84.366099,27.2002534 86.1274655,25.4474478 88.3025608,25.4446296 C90.4776559,25.4418249 92.2436101,27.1900709 92.2478582,29.3503727 C92.2478582,30.394922 91.827506,31.396142 91.0802363,32.1311522 C90.3329667,32.8661624 89.3208537,33.2739565 88.2692029,33.2637558 L88.3076811,33.2713991 Z"></path>
                </g>
            </g>
        </g>
    </g>
</svg>