<?xml version="1.0" encoding="UTF-8"?>
<svg width="120px" height="90px" viewBox="0 0 120 90" version="1.1" xmlns="http://www.w3.org/2000/svg" xmlns:xlink="http://www.w3.org/1999/xlink">
    <title>felica_transport_ic_pasmo</title>
    <g id="LOGO-+-SDK-+-payment-icon" stroke="none" stroke-width="1" fill="none" fill-rule="evenodd">
        <g id="payment" transform="translate(-1618.000000, -1355.000000)">
            <g id="felica_transport_ic_pasmo" transform="translate(1618.000000, 1355.000000)">
                <g id="payment-4:3bg" transform="translate(-20.000000, -15.000000)"></g>
                <g id="编组" transform="translate(10.000000, 15.000000)" fill-rule="nonzero">
                    <path d="M5.54393306,0 L94.4560669,0 C97.5178967,0 100,2.47684503 100,5.53218823 L100,54.245956 C100,57.2968647 97.5214991,59.7701149 94.4641133,59.7701149 L5.54393306,59.7701149 C2.48210338,59.7701149 0,57.2932699 0,54.2379267 L0,5.52415893 C0.00443931805,2.47195184 2.48524292,0 5.54393306,0 Z" id="路径" fill="#EA6DA4"></path>
                    <path d="M18.7318957,27.5003552 C18.7482251,28.5964961 18.0982272,29.5935072 17.0873833,30.0228207 C16.0765395,30.4521341 14.9058675,30.2283761 14.1255509,29.4567067 C13.3452344,28.6850372 13.1104482,27.5189116 13.5315354,26.5063769 C13.9526225,25.4938422 14.9458452,24.8362523 16.0444159,24.8426566 C16.7582278,24.8250844 17.448372,25.0986455 17.9555393,25.6001928 C18.4627068,26.1017399 18.7430643,26.7879259 18.7318957,27.5003552 L18.7318957,27.5003552 Z M13.2121017,36.758139 L13.2121017,33.6829168 C13.2121017,33.3537154 13.3649823,33.2814517 13.6626971,33.3456861 C14.4411892,33.59891 15.2583521,33.7130705 16.0766013,33.6829168 C20.0997747,33.6829168 22.7228838,30.8003978 22.7228838,27.5164138 C22.7228838,24.2324298 20.059543,21.35794 16.0766013,21.35794 C12.0936594,21.35794 9.37399421,24.2404591 9.37399421,27.5003552 L9.37399421,36.758139 L13.2121017,36.758139 Z" id="形状" fill="#FFFFFF"></path>
                    <path d="M34.6234309,27.9821132 C34.6334833,28.0892206 34.5951854,28.1952276 34.5189561,28.2712954 C34.4427268,28.3473632 34.3364948,28.38558 34.22916,28.375549 L29.7956228,28.375549 C29.6882879,28.38558 29.582056,28.3473632 29.5058267,28.2712954 C29.4295974,28.1952276 29.3912994,28.0892206 29.4013518,27.9821132 L29.4013518,27.3317398 C29.4784334,25.9445399 30.6281574,24.8591049 32.0204377,24.8591049 C33.412718,24.8591049 34.562442,25.9445399 34.6395237,27.3317398 L34.6234309,27.9821132 Z M29.3772128,36.758139 L29.3772128,31.9887343 C29.3657313,31.8768792 29.4070884,31.7660656 29.4890951,31.6889539 C29.5711016,31.6118422 29.6844093,31.5772225 29.7956228,31.5952985 L34.2211136,31.5952985 C34.3284484,31.5852675 34.4346805,31.6234843 34.5109098,31.6995521 C34.5871391,31.7756199 34.6254369,31.8816269 34.6153846,31.9887343 L34.6153846,36.758139 L38.4534921,36.758139 L38.4534921,27.2996226 C38.4534921,24.1441075 35.8706147,21.35794 32.0164146,21.35794 C28.1622144,21.35794 25.579337,24.1441075 25.579337,27.2996226 L25.579337,36.758139 L29.3772128,36.758139 Z" id="形状" fill="#FFFFFF"></path>
                    <path d="M53.7737367,24.0959316 C53.6431556,23.8797671 53.4834155,23.6825413 53.2990023,23.5097926 C51.9524875,22.106 50.0803211,21.3261283 48.1332475,21.35794 C44.0457032,21.35794 42.0743483,23.7024959 42.0743483,25.8543485 C42.0743483,28.4237247 44.2227229,30.1901709 48.1010621,30.3828741 C48.1010621,30.3828741 50.7483102,30.3186398 50.7483102,31.9887343 C50.7483102,32.9361917 50,33.9478837 48.1332475,33.9478837 C46.8438564,33.8668872 45.6358033,33.2914725 44.7618282,32.3420236 L44.7618282,32.3420236 C44.6064743,32.1631359 44.4690316,31.9695103 44.3514645,31.7639139 L41.6398455,33.4259691 C41.7337478,33.6264678 41.8469272,33.8173895 41.9777921,33.9960594 C43.4440944,35.9049833 45.7230183,37.0167636 48.1332475,36.9990179 C52.2207917,36.9990179 54.5703251,34.7829309 54.5703251,31.9485878 C54.5703251,28.7850432 51.5931767,27.3879449 48.1332475,27.2594761 C48.1332475,27.2594761 45.7676215,27.2594761 45.7676215,25.790114 C45.7676215,25.2682095 46.3389122,24.3528692 48.1010621,24.3528692 C48.9962878,24.385094 49.8512841,24.7320559 50.5149662,25.3324439 C50.6944938,25.4787945 50.8613726,25.6399482 51.0138398,25.814202 L53.7737367,24.0959316 Z" id="路径" fill="#FFFFFF"></path>
                    <path d="M86.9246862,31.0894526 C86.8476045,32.4766525 85.6978806,33.5620875 84.3056002,33.5620875 C82.9133199,33.5620875 81.763596,32.4766525 81.6865144,31.0894526 L81.6865144,27.3317398 C81.763596,25.9445399 82.9133199,24.8591049 84.3056002,24.8591049 C85.6978806,24.8591049 86.8476045,25.9445399 86.9246862,27.3317398 L86.9246862,31.0894526 Z M90.7627937,31.0894526 L90.7627937,27.3317398 C90.7627937,24.1200195 88.1799163,21.35794 84.3257161,21.35794 C80.471516,21.35794 77.8886385,24.1441075 77.8886385,27.3317398 L77.8886385,31.0894526 C77.8886385,34.3011729 80.471516,37.0632524 84.3257161,37.0632524 C88.1799163,37.0632524 90.77084,34.2770849 90.77084,31.0894526 L90.7627937,31.0894526 Z" id="形状" fill="#FFFFFF"></path>
                    <path d="M69.6813647,21.35794 C68.2732539,21.35794 66.8731895,21.839698 66.2697136,22.6988333 C65.3884631,21.7635411 64.1336001,21.2714985 62.8500161,21.35794 C59.6314774,21.35794 57.5877052,23.4776754 57.5877052,25.9908466 L57.5877052,36.758139 L61.4258126,36.758139 L61.4258126,25.9908466 C61.5204285,25.2579795 62.1457321,24.7092311 62.8862246,24.7092311 C63.6267172,24.7092311 64.2520208,25.2579795 64.3466367,25.9908466 L64.3466367,32.7354592 L68.1847441,32.7354592 L68.1847441,25.9908466 C68.292284,25.2709646 68.9117511,24.7381269 69.6411329,24.7381269 C70.3705146,24.7381269 70.9899818,25.2709646 71.0975217,25.9908466 L71.0975217,36.758139 L74.9436755,36.758139 L74.9436755,25.9908466 C74.9436755,23.4857047 72.81944,21.35794 69.6813647,21.35794 Z" id="路径" fill="#FFFFFF"></path>
                </g>
            </g>
        </g>
    </g>
</svg>