<?xml version="1.0" encoding="UTF-8"?>
<svg width="120px" height="90px" viewBox="0 0 120 90" version="1.1" xmlns="http://www.w3.org/2000/svg" xmlns:xlink="http://www.w3.org/1999/xlink">
    <title>felica_transport_ic_icoca</title>
    <g id="LOGO-+-SDK-+-payment-icon" stroke="none" stroke-width="1" fill="none" fill-rule="evenodd">
        <g id="payment" transform="translate(-1968.000000, -355.000000)">
            <g id="felica_transport_ic_icoca" transform="translate(1968.000000, 355.000000)">
                <g id="payment-4:3bg" transform="translate(-20.000000, -15.000000)"></g>
                <g id="编组" transform="translate(10.000000, 13.999871)" fill-rule="nonzero">
                    <path d="M96.5193006,0 L3.48894754,0 C2.57094151,-0.00844066433 1.68716274,0.346906452 1.03261139,0.987946437 C0.378060046,1.62898642 0.00653107982,2.50303477 0,3.41723826 L0,57.7595369 C0.00653107982,58.6737404 0.378060046,59.5477888 1.03261139,60.1888288 C1.68716274,60.8298688 2.57094151,61.1852158 3.48894754,61.1767752 L96.5193006,61.1767752 C97.4365399,61.1852165 98.3194684,60.8296106 98.9727115,60.1883358 C99.6259548,59.5470609 99.9956532,58.6729898 100,57.7595369 L100,3.41723826 C99.9956532,2.50378533 99.6259548,1.62971427 98.9727115,0.988439398 C98.3194684,0.347164521 97.4365399,-0.00844135986 96.5193006,0 Z" id="路径" fill="#DCDBD1"></path>
                    <path d="M48.1029364,25.3562164 C46.8549632,25.3721157 45.6753275,25.9265141 44.86968,26.8757638 C42.9305955,29.0527949 42.9305955,32.3293245 44.86968,34.5063556 C45.6736367,35.4605985 46.8603629,36.0117164 48.1111845,36.0117164 C49.3620059,36.0117164 50.5487321,35.4605985 51.3526888,34.5063556 C52.3219446,33.4710801 52.8356619,32.0930698 52.7796107,30.678739 C52.8248133,29.2661508 52.3125824,27.8921275 51.3526888,26.8511225 C50.5340131,25.9128754 49.3510371,25.3686991 48.1029364,25.3562164 L48.1029364,25.3562164 Z" id="路径" fill="#A1D6D3"></path>
                    <path d="M38.0072584,34.5638521 C37.893918,34.5629483 37.7816069,34.585317 37.6773342,34.6295622 C37.4874562,34.7508572 37.3105713,34.8912257 37.1494556,35.0484644 C36.7769915,35.4717916 36.3111901,35.8035235 35.7885186,36.0176892 C34.9508091,36.3057071 34.0680781,36.4420165 33.1821181,36.4201639 C31.7083593,36.5008744 30.2576715,36.0290924 29.1158034,35.097747 C28.1553989,34.2527888 27.6156811,33.0307172 27.6393929,31.7547429 L27.6393929,30.111989 C27.5775782,28.7511092 28.0841792,27.425451 29.0388958,26.4498119 C29.9936122,25.4741728 31.3112746,24.935589 32.6789839,24.9619555 C33.3589555,24.9657248 34.0335426,25.0823145 34.6750247,25.3069338 C35.2954051,25.5092365 35.8601181,25.8522776 36.3246453,26.3090137 C36.5475092,26.5975986 36.6872292,26.9411852 36.7288024,27.3028798 C36.8277796,27.8778437 36.9844935,28.1242568 37.0752227,28.1242568 C37.4120811,28.4122392 37.9095949,28.4122392 38.2464533,28.1242568 C38.4330596,27.8042717 38.5057173,27.4309195 38.4526559,27.0646805 L38.4526559,24.9044591 C38.4526559,24.2802126 38.3454306,24.0091583 38.2299571,23.8941655 C38.0623836,23.7276946 37.8310688,23.6409388 37.5948532,23.6559662 C37.4573839,23.6527481 37.3212878,23.683807 37.1989442,23.7463176 C37.0327828,23.8310975 36.8951599,23.962437 36.8030353,24.124151 L36.5720885,24.4280605 L36.2339162,24.2062888 C35.7144044,23.9017732 35.1607267,23.6591691 34.5842956,23.483477 C33.9319789,23.3190588 33.2611121,23.2390003 32.5882547,23.2452777 C31.4312167,23.2530837 30.295436,23.5556404 29.2890135,24.124151 C28.2529785,24.6903139 27.4068613,25.5471904 26.8558232,26.5882818 C26.2515602,27.6467044 25.9385854,28.8452251 25.9485319,30.0627063 L25.9485319,31.7875979 C25.9277747,32.9549376 26.2643725,34.1009091 26.9135599,35.0731057 C27.5016732,36.0064405 28.3267901,36.7686217 29.3055098,37.2826097 C30.5324148,37.8891378 31.8867076,38.1960344 33.2563511,38.1779105 C34.4374281,38.1827935 35.608258,37.9596439 36.7040581,37.520809 C37.3745598,37.2422658 37.9725485,36.8153038 38.4526559,36.2723161 C38.6883007,36.0562808 38.8425711,35.7664163 38.8898053,35.4509391 C38.8795178,35.214897 38.7792251,34.9916464 38.6093699,34.8266926 C38.4539164,34.6597698 38.2358669,34.5645844 38.0072584,34.5638521 L38.0072584,34.5638521 Z" id="路径" fill="#DDD799"></path>
                    <path d="M22.3111185,25.3233614 C22.9957109,25.3233614 23.2926427,25.1919411 23.399868,25.0851621 C23.5804792,24.9327579 23.6783048,24.7044334 23.6638073,24.4691294 C23.6797596,24.2382743 23.5811585,24.0142765 23.399868,23.8695242 C23.2926427,23.7463176 22.9957109,23.6148974 22.3111185,23.6148974 L14.5331574,23.6148974 C14.1433852,23.5649843 13.7485235,23.6552789 13.4196635,23.8695242 C13.2436961,24.0176485 13.1488034,24.2401754 13.1639722,24.4691294 C13.1499929,24.7026283 13.2442144,24.9296343 13.4196635,25.0851621 C13.7557544,25.2809558 14.145972,25.3644315 14.5331574,25.3233614 L17.5602112,25.3233614 L17.5602112,36.0012617 L14.5331574,36.0012617 C14.1455559,35.9514102 13.7525124,36.0354903 13.4196635,36.239461 C13.2476788,36.3951319 13.1496262,36.6158356 13.1496262,36.8472799 C13.1496262,37.0787242 13.2476788,37.2994278 13.4196635,37.4550989 C13.5681293,37.5865191 13.8485648,37.6932982 14.5331574,37.6932982 L22.3276147,37.6932982 C23.0122072,37.6932982 23.3091389,37.5865191 23.4163642,37.4550989 C23.5922365,37.3062708 23.6895746,37.0851426 23.6803035,36.8554937 C23.6961776,36.6223084 23.5978493,36.3958708 23.4163642,36.2476748 C23.3091389,36.1162544 23.0122072,36.0012617 22.3276147,36.0012617 L19.2840647,36.0012617 L19.2840647,25.3233614 L22.3111185,25.3233614 Z" id="路径" fill="#DDD799"></path>
                    <path d="M80.5179808,26.8511225 C80.0890795,26.8511225 79.6931706,27.3193074 79.4622236,27.9928364 L79.4622236,27.9928364 C79.5795921,27.8845394 79.7313454,27.8206032 79.8911251,27.8121335 C80.3942593,27.8121335 80.7984164,28.4117386 80.7984164,29.1427642 C80.7984164,29.8737896 80.3942593,30.4898224 79.8911251,30.4898224 C79.7288224,30.4783162 79.5763151,30.4082212 79.4622236,30.2926919 L79.4622236,30.2926919 C79.6849225,30.966221 80.0890795,31.4344058 80.5179808,31.4344058 C81.1860772,31.4344058 81.7799406,30.3419745 81.7799406,29.1016954 C81.7799406,27.8614162 81.1778291,26.8511225 80.5179808,26.8511225 Z" id="路径" fill="#A1D6D3"></path>
                    <path d="M84.9967007,26.8511225 C84.5513032,26.8511225 84.1718905,27.3193074 83.9326955,28.0092639 L83.9326955,28.0092639 C84.048282,27.8839869 84.2076692,27.8075643 84.3780931,27.7957059 C84.8812273,27.7957059 85.2853844,28.3953111 85.2853844,29.1263366 C85.2853844,29.8573621 84.8812273,30.4733948 84.3780931,30.4733948 C84.2103698,30.4643234 84.0518489,30.3941629 83.9326955,30.2762643 L83.9326955,30.2762643 C84.1553942,30.9497935 84.5513032,31.4179783 84.9967007,31.4179783 C85.6730452,31.4179783 86.2504124,30.325547 86.2504124,29.0852678 C86.2504124,27.8449886 85.6730452,26.8511225 84.9967007,26.8511225 Z" id="路径" fill="#A1D6D3"></path>
                    <path d="M22.3111185,35.2373811 C22.8969468,35.1794877 23.4837809,35.3372734 23.9607391,35.6809246 C24.3057229,35.9865245 24.4808965,36.4394677 24.4308809,36.8965625 C24.4625571,37.3570581 24.2727664,37.8051726 23.9194985,38.1039866 C23.4410554,38.4451083 22.8561994,38.6052742 22.2698779,38.5557439 L14.5331574,38.5557439 C13.9468359,38.6052742 13.3619799,38.4451083 12.8835368,38.1039866 C12.5361204,37.7989517 12.340214,37.3577462 12.3474101,36.8965625 C12.3319386,36.4313886 12.5291076,35.9843184 12.8835368,35.6809246 C13.3630794,35.3427049 13.9478409,35.1854765 14.5331574,35.2373811 L16.7271527,35.2373811 L16.7271527,26.120097 L14.5331574,26.120097 C13.945402,26.1717374 13.3589039,26.0082015 12.8835368,25.6601259 C12.5304151,25.3592858 12.3332588,24.9152655 12.3474101,24.4527018 C12.3384027,23.9982118 12.5353,23.5638242 12.8835368,23.269919 C13.3571779,22.9183316 13.9450458,22.7544138 14.5331574,22.8099479 L22.3276147,22.8099479 C22.916226,22.7486979 23.5061476,22.9131884 23.9772353,23.269919 C24.3134264,23.5736668 24.4822629,24.0199858 24.4308809,24.4691294 C24.4604511,24.9177386 24.2845828,25.3555792 23.9524909,25.6601259 C23.4772454,26.0073381 22.8890185,26.1654983 22.3028704,26.1036695 L20.1088749,26.1036695 L20.1088749,35.2209536 L22.3111185,35.2373811 Z" id="路径" fill="#DDD799"></path>
                    <path d="M39.0960079,36.7897835 C38.4967476,37.4269886 37.7648173,37.9259937 36.9515012,38.2518345 C35.7566376,38.7196799 34.4824614,38.9539334 33.1986144,38.9417911 C31.7024286,38.9612279 30.2223915,38.6321372 28.8766084,37.9807801 C27.7659949,37.4236523 26.8323381,36.5706519 26.1794787,35.5166492 C25.4383389,34.4318243 25.0443936,33.1489568 25.0493919,31.8368805 L25.0493919,30.111989 C25.0483616,28.7445431 25.4036118,27.4002116 26.0805015,26.2104485 C26.7142736,25.0333705 27.6730535,24.0614809 28.843616,23.4095531 C29.9859436,22.7760035 31.2724714,22.4451046 32.5800066,22.4485421 C33.3199195,22.4367495 34.0580085,22.5251725 34.774002,22.7113826 C35.3475613,22.8733979 35.9009346,23.0993365 36.4236226,23.3849118 C36.5274784,23.2519071 36.6563473,23.1403136 36.8030353,23.056361 C37.0490633,22.9016795 37.3373181,22.8270451 37.6278456,22.842803 C38.0955676,22.8220854 38.5485236,23.0085278 38.8650611,23.3520568 C39.1895404,23.8014198 39.3363622,24.3540962 39.2774662,24.9044591 L39.2774662,27.0646805 C39.3237085,27.6290619 39.1592436,28.1905942 38.8155725,28.6417242 C38.4998888,28.9873419 38.0471851,29.1766861 37.5783569,29.1591917 C37.1714727,29.1826335 36.7725059,29.040315 36.4731112,28.7649308 C36.1495011,28.4033481 35.9400735,27.9548103 35.8709996,27.475369 C35.8617061,27.2454239 35.7744879,27.0253906 35.6235566,26.8511225 C35.2636428,26.4939526 34.8221271,26.2290185 34.3368525,26.0790282 C33.805812,25.882797 33.2453096,25.7772725 32.6789839,25.7669049 C32.0040604,25.759561 31.336992,25.9115599 30.7324315,26.2104485 C30.0900245,26.5594392 29.5499293,27.0689785 29.165292,27.688927 C28.7117066,28.4083728 28.4847659,29.2465603 28.5136919,30.0955615 L28.5136919,31.7383154 C28.4842962,32.7882018 28.9256375,33.7966531 29.7179148,34.4899281 C30.698518,35.2858401 31.9442141,35.6846804 33.2068625,35.6070008 C33.982408,35.6194123 34.7545941,35.5028174 35.4915869,35.2620224 C35.9094407,35.0612701 36.2846602,34.7824211 36.5968327,34.4406455 C36.7992281,34.2162749 37.0358181,34.0250189 37.2979215,33.8738954 C37.5171405,33.7625052 37.7613191,33.7087834 38.0072584,33.7178337 C38.4552781,33.7243126 38.8847274,33.8971348 39.2114814,34.2024462 C39.5299049,34.5221916 39.7129522,34.9514444 39.7228638,35.4016565 C39.6921985,35.9253289 39.4690638,36.4194446 39.0960079,36.7897835 Z" id="路径" fill="#DDD799"></path>
                    <path d="M53.1837678,36.3380262 C51.9506533,37.7073136 50.2104973,38.5171164 48.3646493,38.5806617 C46.5188014,38.6442071 44.7266429,37.9560079 43.4015176,36.6747908 C41.6774621,35.1685878 40.7262078,32.9692954 40.8116133,30.6869528 C40.7427321,28.4100868 41.6912939,26.2200277 43.4015176,24.7073286 C44.6630229,23.5122018 46.3370185,22.8448029 48.078192,22.842803 C50.0133331,22.8443669 51.8580885,23.6585258 53.1590234,25.0851621 C54.6188101,26.5815137 55.409956,28.6014968 55.3530188,30.6869528 C55.4281531,32.7854425 54.6454101,34.8245508 53.1837678,36.3380262 L53.1837678,36.3380262 Z" id="路径" fill="#FFFFFF"></path>
                    <path d="M70.7357308,36.5269429 C70.188854,37.1237522 69.5115795,37.5874401 68.7561861,37.8822149 C67.6110609,38.3313195 66.3907362,38.5598748 65.1600132,38.5557439 C63.7317616,38.5680098 62.3201075,38.2503039 61.0359618,37.6275881 C60.0156627,37.0781359 59.1613738,36.2671039 58.5615308,35.2784499 C57.8602196,34.2515268 57.4865036,33.0377115 57.4892774,31.7958117 L57.4892774,30.0709201 C57.4770713,28.7865025 57.8011448,27.5210825 58.4295612,26.3993651 C59.0293684,25.2960962 59.9337979,24.3868809 61.0359618,23.7791728 C62.1136021,23.1586751 63.337858,22.8354559 64.582646,22.842803 C65.2870678,22.8343689 65.9892865,22.9228174 66.669416,23.1056436 C67.3158621,23.2758036 67.9350433,23.5357172 68.5087429,23.8777379 C68.6444685,23.6804621 68.8218079,23.5150736 69.0283735,23.3931256 C69.2149639,23.2905658 69.4256856,23.2395225 69.6387331,23.2452777 C69.9850511,23.2342285 70.3201514,23.3683066 70.5625206,23.6148974 C70.8341601,23.9878445 70.9628856,24.4452491 70.9254372,24.9044591 L70.9254372,27.0646805 C70.9648992,27.5266372 70.8360755,27.9873057 70.5625206,28.3624561 C70.3305978,28.6275343 69.9916307,28.7752151 69.6387331,28.7649308 C69.3334182,28.7816089 69.0348076,28.6715829 68.8139228,28.4610214 C68.5507626,28.1639829 68.3839949,27.7946125 68.3355328,27.401445 C68.3108875,27.0978903 68.1895154,26.8101119 67.9891125,26.5800681 C67.5771282,26.1622548 67.0623999,25.8592344 66.4962059,25.7011948 C65.9067324,25.4745912 65.280498,25.3576611 64.6486308,25.3562164 C63.4046624,25.3690651 62.2176889,25.8775577 61.3528699,26.7681015 C60.4880509,27.6586452 60.0174479,28.8570351 60.0461894,30.0955615 L60.0461894,31.7383154 C60.028536,32.900345 60.5192392,34.0125725 61.3906301,34.7856238 C62.4511027,35.6443857 63.7953416,36.077907 65.1600132,36.0012617 C66.0012813,36.0303278 66.8405708,35.9021725 67.6344441,35.6234283 C68.1010973,35.4183986 68.5217788,35.1223545 68.8716595,34.7527686 C69.0567624,34.5614638 69.2644816,34.3932221 69.4902673,34.2517288 C69.6496012,34.1659148 69.8288265,34.1234197 70.0098978,34.1285222 C70.3540376,34.1294708 70.6824451,34.2721794 70.9171891,34.5227831 C71.1724032,34.7498738 71.3142135,35.0773842 71.3048499,35.4180841 C71.2627855,35.8460762 71.0594265,36.2422965 70.7357308,36.5269429 Z" id="路径" fill="#FFFFFF"></path>
                    <path d="M89.1290004,37.8082909 C88.7228054,38.0763664 88.2367836,38.1980906 87.7515672,38.1532692 L84.3533487,38.1532692 C83.8712988,38.1910841 83.3901506,38.0698545 82.9841636,37.8082909 C82.7325248,37.5695549 82.5901105,37.2385638 82.5901105,36.8924556 C82.5901105,36.5463474 82.7325248,36.2153564 82.9841636,35.9766203 C83.3880379,35.7107905 83.8716355,35.591845 84.3533487,35.6398558 L84.9802046,35.6398558 L84.3203564,34.0792396 L78.04355,34.0792396 L77.400198,35.6398558 L78.04355,35.6398558 C78.5255062,35.5883636 79.0102733,35.7075969 79.4127351,35.9766203 C79.6643739,36.2153564 79.8067882,36.5463474 79.8067882,36.8924556 C79.8067882,37.2385638 79.6643739,37.5695549 79.4127351,37.8082909 C79.0082824,38.0733411 78.5259154,38.1948778 78.04355,38.1532692 L74.6535796,38.1532692 C74.1658741,38.1966969 73.6777048,38.0751625 73.2678984,37.8082909 C73.0162595,37.5695549 72.8738453,37.2385638 72.8738453,36.8924556 C72.8738453,36.5463474 73.0162595,36.2153564 73.2678984,35.9766203 C73.6754449,35.7051155 74.1662567,35.5858326 74.6535796,35.6398558 L78.7776312,25.7258361 L77.08677,25.7258361 C76.6026076,25.7717521 76.1170989,25.6530515 75.7093368,25.3890715 C75.4520824,25.1530456 75.3105965,24.817291 75.321676,24.4691294 C75.3061735,24.1225454 75.4486255,23.7875163 75.7093368,23.557401 C76.1112716,23.2793737 76.5999821,23.1540619 77.08677,23.2042089 L82.5965028,23.2042089 L84.0151765,26.5964956 C84.2927667,26.3302023 84.6608422,26.1777202 85.0461894,26.1693796 C86.1431871,26.1693796 87.0092379,27.4917965 87.0092379,29.1674055 C87.0471759,30.0687858 86.7373022,30.9504537 86.1431871,31.6315363 L87.7928076,35.598787 C88.2156489,35.543865 88.6451724,35.6213742 89.0217749,35.8205588 C89.3629534,36.0574502 89.5710654,36.4414644 89.5829395,36.8554937 C89.5885431,37.2260848 89.4208528,37.5782865 89.1290004,37.8082909 Z" id="路径" fill="#FFFFFF"></path>
                    <path d="M48.1029364,25.3562164 C46.8549632,25.3721157 45.6753275,25.9265141 44.86968,26.8757638 C42.9305955,29.0527949 42.9305955,32.3293245 44.86968,34.5063556 C45.6736367,35.4605985 46.8603629,36.0117164 48.1111845,36.0117164 C49.3620059,36.0117164 50.5487321,35.4605985 51.3526888,34.5063556 C52.3219446,33.4710801 52.8356619,32.0930698 52.7796107,30.678739 C52.8248133,29.2661508 52.3125824,27.8921275 51.3526888,26.8511225 C50.5340131,25.9128754 49.3510371,25.3686991 48.1029364,25.3562164 L48.1029364,25.3562164 Z" id="路径" fill="#00AEEB"></path>
                    <path d="M38.0072584,34.5638521 C37.893918,34.5629483 37.7816069,34.585317 37.6773342,34.6295622 C37.4874562,34.7508572 37.3105713,34.8912257 37.1494556,35.0484644 C36.7769915,35.4717916 36.3111901,35.8035235 35.7885186,36.0176892 C34.9508091,36.3057071 34.0680781,36.4420165 33.1821181,36.4201639 C31.7083593,36.5008744 30.2576715,36.0290924 29.1158034,35.097747 C28.1553989,34.2527888 27.6156811,33.0307172 27.6393929,31.7547429 L27.6393929,30.111989 C27.5775782,28.7511092 28.0841792,27.425451 29.0388958,26.4498119 C29.9936122,25.4741728 31.3112746,24.935589 32.6789839,24.9619555 C33.3589555,24.9657248 34.0335426,25.0823145 34.6750247,25.3069338 C35.2954051,25.5092365 35.8601181,25.8522776 36.3246453,26.3090137 C36.5475092,26.5975986 36.6872292,26.9411852 36.7288024,27.3028798 C36.8277796,27.8778437 36.9844935,28.1242568 37.0752227,28.1242568 C37.4120811,28.4122392 37.9095949,28.4122392 38.2464533,28.1242568 C38.4330596,27.8042717 38.5057173,27.4309195 38.4526559,27.0646805 L38.4526559,24.9044591 C38.4526559,24.2802126 38.3454306,24.0091583 38.2299571,23.8941655 C38.0623836,23.7276946 37.8310688,23.6409388 37.5948532,23.6559662 C37.4573839,23.6527481 37.3212878,23.683807 37.1989442,23.7463176 C37.0327828,23.8310975 36.8951599,23.962437 36.8030353,24.124151 L36.5720885,24.4280605 L36.2339162,24.2062888 C35.7144044,23.9017732 35.1607267,23.6591691 34.5842956,23.483477 C33.9319789,23.3190588 33.2611121,23.2390003 32.5882547,23.2452777 C31.4312167,23.2530837 30.295436,23.5556404 29.2890135,24.124151 C28.2529785,24.6903139 27.4068613,25.5471904 26.8558232,26.5882818 C26.2515602,27.6467044 25.9385854,28.8452251 25.9485319,30.0627063 L25.9485319,31.7875979 C25.9277747,32.9549376 26.2643725,34.1009091 26.9135599,35.0731057 C27.5016732,36.0064405 28.3267901,36.7686217 29.3055098,37.2826097 C30.5324148,37.8891378 31.8867076,38.1960344 33.2563511,38.1779105 C34.4374281,38.1827935 35.608258,37.9596439 36.7040581,37.520809 C37.3745598,37.2422658 37.9725485,36.8153038 38.4526559,36.2723161 C38.6883007,36.0562808 38.8425711,35.7664163 38.8898053,35.4509391 C38.8795178,35.214897 38.7792251,34.9916464 38.6093699,34.8266926 C38.4539164,34.6597698 38.2358669,34.5645844 38.0072584,34.5638521 L38.0072584,34.5638521 Z" id="路径" fill="#00AEEB"></path>
                    <path d="M22.3111185,25.3233614 C22.9957109,25.3233614 23.2926427,25.1919411 23.399868,25.0851621 C23.5804792,24.9327579 23.6783048,24.7044334 23.6638073,24.4691294 C23.6797596,24.2382743 23.5811585,24.0142765 23.399868,23.8695242 C23.2926427,23.7463176 22.9957109,23.6148974 22.3111185,23.6148974 L14.5331574,23.6148974 C14.1433852,23.5649843 13.7485235,23.6552789 13.4196635,23.8695242 C13.2436961,24.0176485 13.1488034,24.2401754 13.1639722,24.4691294 C13.1499929,24.7026283 13.2442144,24.9296343 13.4196635,25.0851621 C13.7557544,25.2809558 14.145972,25.3644315 14.5331574,25.3233614 L17.5602112,25.3233614 L17.5602112,36.0012617 L14.5331574,36.0012617 C14.1455559,35.9514102 13.7525124,36.0354903 13.4196635,36.239461 C13.2476788,36.3951319 13.1496262,36.6158356 13.1496262,36.8472799 C13.1496262,37.0787242 13.2476788,37.2994278 13.4196635,37.4550989 C13.5681293,37.5865191 13.8485648,37.6932982 14.5331574,37.6932982 L22.3276147,37.6932982 C23.0122072,37.6932982 23.3091389,37.5865191 23.4163642,37.4550989 C23.5922365,37.3062708 23.6895746,37.0851426 23.6803035,36.8554937 C23.6961776,36.6223084 23.5978493,36.3958708 23.4163642,36.2476748 C23.3091389,36.1162544 23.0122072,36.0012617 22.3276147,36.0012617 L19.2840647,36.0012617 L19.2840647,25.3233614 L22.3111185,25.3233614 Z" id="路径" fill="#00AEEB"></path>
                    <path d="M80.5179808,26.8511225 C80.0890795,26.8511225 79.6931706,27.3193074 79.4622236,27.9928364 L79.4622236,27.9928364 C79.5795921,27.8845394 79.7313454,27.8206032 79.8911251,27.8121335 C80.3942593,27.8121335 80.7984164,28.4117386 80.7984164,29.1427642 C80.7984164,29.8737896 80.3942593,30.4898224 79.8911251,30.4898224 C79.7288224,30.4783162 79.5763151,30.4082212 79.4622236,30.2926919 L79.4622236,30.2926919 C79.6849225,30.966221 80.0890795,31.4344058 80.5179808,31.4344058 C81.1860772,31.4344058 81.7799406,30.3419745 81.7799406,29.1016954 C81.7799406,27.8614162 81.1778291,26.8511225 80.5179808,26.8511225 Z" id="路径" fill="#00AEEB"></path>
                    <path d="M84.9967007,26.8511225 C84.5513032,26.8511225 84.1718905,27.3193074 83.9326955,28.0092639 L83.9326955,28.0092639 C84.048282,27.8839869 84.2076692,27.8075643 84.3780931,27.7957059 C84.8812273,27.7957059 85.2853844,28.3953111 85.2853844,29.1263366 C85.2853844,29.8573621 84.8812273,30.4733948 84.3780931,30.4733948 C84.2103698,30.4643234 84.0518489,30.3941629 83.9326955,30.2762643 L83.9326955,30.2762643 C84.1553942,30.9497935 84.5513032,31.4179783 84.9967007,31.4179783 C85.6730452,31.4179783 86.2504124,30.325547 86.2504124,29.0852678 C86.2504124,27.8449886 85.6730452,26.8511225 84.9967007,26.8511225 Z" id="路径" fill="#00AEEB"></path>
                    <path d="M22.3111185,35.2373811 C22.8969468,35.1794877 23.4837809,35.3372734 23.9607391,35.6809246 C24.3057229,35.9865245 24.4808965,36.4394677 24.4308809,36.8965625 C24.4625571,37.3570581 24.2727664,37.8051726 23.9194985,38.1039866 C23.4410554,38.4451083 22.8561994,38.6052742 22.2698779,38.5557439 L14.5331574,38.5557439 C13.9468359,38.6052742 13.3619799,38.4451083 12.8835368,38.1039866 C12.5361204,37.7989517 12.340214,37.3577462 12.3474101,36.8965625 C12.3319386,36.4313886 12.5291076,35.9843184 12.8835368,35.6809246 C13.3630794,35.3427049 13.9478409,35.1854765 14.5331574,35.2373811 L16.7271527,35.2373811 L16.7271527,26.120097 L14.5331574,26.120097 C13.945402,26.1717374 13.3589039,26.0082015 12.8835368,25.6601259 C12.5304151,25.3592858 12.3332588,24.9152655 12.3474101,24.4527018 C12.3384027,23.9982118 12.5353,23.5638242 12.8835368,23.269919 C13.3571779,22.9183316 13.9450458,22.7544138 14.5331574,22.8099479 L22.3276147,22.8099479 C22.916226,22.7486979 23.5061476,22.9131884 23.9772353,23.269919 C24.3134264,23.5736668 24.4822629,24.0199858 24.4308809,24.4691294 C24.4604511,24.9177386 24.2845828,25.3555792 23.9524909,25.6601259 C23.4772454,26.0073381 22.8890185,26.1654983 22.3028704,26.1036695 L20.1088749,26.1036695 L20.1088749,35.2209536 L22.3111185,35.2373811 Z M39.0960079,36.7897835 C38.4967476,37.4269886 37.7648173,37.9259937 36.9515012,38.2518345 C35.7566376,38.7196799 34.4824614,38.9539334 33.1986144,38.9417911 C31.7024286,38.9612279 30.2223915,38.6321372 28.8766084,37.9807801 C27.7659949,37.4236523 26.8323381,36.5706519 26.1794787,35.5166492 C25.4383389,34.4318243 25.0443936,33.1489568 25.0493919,31.8368805 L25.0493919,30.111989 C25.0483616,28.7445431 25.4036118,27.4002116 26.0805015,26.2104485 C26.7142736,25.0333705 27.6730535,24.0614809 28.843616,23.4095531 C29.9859436,22.7760035 31.2724714,22.4451046 32.5800066,22.4485421 C33.3199195,22.4367495 34.0580085,22.5251725 34.774002,22.7113826 C35.3475613,22.8733979 35.9009346,23.0993365 36.4236226,23.3849118 C36.5274784,23.2519071 36.6563473,23.1403136 36.8030353,23.056361 C37.0490633,22.9016795 37.3373181,22.8270451 37.6278456,22.842803 C38.0955676,22.8220854 38.5485236,23.0085278 38.8650611,23.3520568 C39.1895404,23.8014198 39.3363622,24.3540962 39.2774662,24.9044591 L39.2774662,27.0646805 C39.3237085,27.6290619 39.1592436,28.1905942 38.8155725,28.6417242 C38.4998888,28.9873419 38.0471851,29.1766861 37.5783569,29.1591917 C37.1714727,29.1826335 36.7725059,29.040315 36.4731112,28.7649308 C36.1495011,28.4033481 35.9400735,27.9548103 35.8709996,27.475369 C35.8617061,27.2454239 35.7744879,27.0253906 35.6235566,26.8511225 C35.2636428,26.4939526 34.8221271,26.2290185 34.3368525,26.0790282 C33.805812,25.882797 33.2453096,25.7772725 32.6789839,25.7669049 C32.0040604,25.759561 31.336992,25.9115599 30.7324315,26.2104485 C30.0900245,26.5594392 29.5499293,27.0689785 29.165292,27.688927 C28.7117066,28.4083728 28.4847659,29.2465603 28.5136919,30.0955615 L28.5136919,31.7383154 C28.4842962,32.7882018 28.9256375,33.7966531 29.7179148,34.4899281 C30.698518,35.2858401 31.9442141,35.6846804 33.2068625,35.6070008 C33.982408,35.6194123 34.7545941,35.5028174 35.4915869,35.2620224 C35.9094407,35.0612701 36.2846602,34.7824211 36.5968327,34.4406455 C36.7992281,34.2162749 37.0358181,34.0250189 37.2979215,33.8738954 C37.5171405,33.7625052 37.7613191,33.7087834 38.0072584,33.7178337 C38.4552781,33.7243126 38.8847274,33.8971348 39.2114814,34.2024462 C39.5299049,34.5221916 39.7129522,34.9514444 39.7228638,35.4016565 C39.6921985,35.9253289 39.4690638,36.4194446 39.0960079,36.7897835 Z M53.1837678,36.3380262 C51.9506533,37.7073136 50.2104973,38.5171164 48.3646493,38.5806617 C46.5188014,38.6442071 44.7266429,37.9560079 43.4015176,36.6747908 C41.6774621,35.1685878 40.7262078,32.9692954 40.8116133,30.6869528 C40.7427321,28.4100868 41.6912939,26.2200277 43.4015176,24.7073286 C44.6630229,23.5122018 46.3370185,22.8448029 48.078192,22.842803 C50.0133331,22.8443669 51.8580885,23.6585258 53.1590234,25.0851621 C54.6188101,26.5815137 55.409956,28.6014968 55.3530188,30.6869528 C55.4281531,32.7854425 54.6454101,34.8245508 53.1837678,36.3380262 L53.1837678,36.3380262 Z M70.7357308,36.5597979 C70.188854,37.1566072 69.5115795,37.6202952 68.7561861,37.9150699 C67.6110609,38.3641746 66.3907362,38.5927298 65.1600132,38.588599 C63.7317616,38.6008649 62.3201075,38.283159 61.0359618,37.6604431 C60.0156627,37.1109911 59.1613738,36.299959 58.5615308,35.311305 C57.8602196,34.2843818 57.4865036,33.0705665 57.4892774,31.8286668 L57.4892774,30.1037752 C57.4770713,28.8193576 57.8011448,27.5539376 58.4295612,26.4322203 C59.0293684,25.3289512 59.9337979,24.4197359 61.0359618,23.8120278 C62.1136021,23.1915302 63.337858,22.868311 64.582646,22.8756581 C65.2870678,22.8672239 65.9892865,22.9556724 66.669416,23.1384986 C67.3158621,23.3086586 67.9350433,23.5685723 68.5087429,23.910593 C68.6444685,23.7133171 68.8218079,23.5479286 69.0283735,23.4259806 C69.2149639,23.3234209 69.4256856,23.2723776 69.6387331,23.2781328 C69.9850511,23.2670837 70.3201514,23.4011617 70.5625206,23.6477524 C70.8341601,24.0206997 70.9628856,24.4781042 70.9254372,24.9373142 L70.9254372,27.0975356 C70.9648992,27.5594924 70.8360755,28.0201608 70.5625206,28.3953111 C70.3305978,28.6603895 69.9916307,28.8080702 69.6387331,28.7977858 C69.3334182,28.8144639 69.0348076,28.7044379 68.8139228,28.4938764 C68.5507626,28.1968381 68.3839949,27.8274676 68.3355328,27.4343002 C68.3108875,27.1307454 68.1895154,26.842967 67.9891125,26.6129231 C67.5809981,26.1831329 67.0659206,25.8685715 66.4962059,25.7011948 C65.9067324,25.4745912 65.280498,25.3576611 64.6486308,25.3562164 C63.4046624,25.3690651 62.2176889,25.8775577 61.3528699,26.7681015 C60.4880509,27.6586452 60.0174479,28.8570351 60.0461894,30.0955615 L60.0461894,31.7383154 C60.028536,32.900345 60.5192392,34.0125725 61.3906301,34.7856238 C62.4511027,35.6443857 63.7953416,36.077907 65.1600132,36.0012617 C66.0012813,36.0303278 66.8405708,35.9021725 67.6344441,35.6234283 C68.1010973,35.4183986 68.5217788,35.1223545 68.8716595,34.7527686 C69.0567624,34.5614638 69.2644816,34.3932221 69.4902673,34.2517288 C69.6496012,34.1659148 69.8288265,34.1234197 70.0098978,34.1285222 C70.3540376,34.1294708 70.6824451,34.2721794 70.9171891,34.5227831 C71.1724032,34.7498738 71.3142135,35.0773842 71.3048499,35.4180841 C71.2627855,35.8460762 71.0594265,36.2422965 70.7357308,36.5269429 L70.7357308,36.5597979 Z M89.1290004,37.8411461 C88.7228054,38.1092215 88.2367836,38.2309457 87.7515672,38.1861243 L84.3533487,38.1861243 C83.8712988,38.2239392 83.3901506,38.1027096 82.9841636,37.8411461 C82.7325248,37.6024099 82.5901105,37.271419 82.5901105,36.9253108 C82.5901105,36.5792025 82.7325248,36.2482115 82.9841636,36.0094755 C83.3880379,35.7436456 83.8716355,35.6247001 84.3533487,35.6727109 L84.9802046,35.6727109 L84.3203564,34.1120946 L78.04355,34.1120946 L77.400198,35.6727109 L78.04355,35.6727109 C78.5255062,35.6212186 79.0102733,35.7404519 79.4127351,36.0094755 C79.6643739,36.2482115 79.8067882,36.5792025 79.8067882,36.9253108 C79.8067882,37.271419 79.6643739,37.6024099 79.4127351,37.8411461 C79.0082824,38.1061963 78.5259154,38.2277329 78.04355,38.1861243 L74.6535796,38.1861243 C74.1658741,38.2295519 73.6777048,38.1080176 73.2678984,37.8411461 C73.0162595,37.6024099 72.8738453,37.271419 72.8738453,36.9253108 C72.8738453,36.5792025 73.0162595,36.2482115 73.2678984,36.0094755 C73.6754449,35.7379705 74.1662567,35.6186877 74.6535796,35.6727109 L78.7776312,25.7586911 L77.08677,25.7586911 C76.6026076,25.8046071 76.1170989,25.6859065 75.7093368,25.4219266 C75.4520824,25.1859006 75.3105965,24.8501462 75.321676,24.5019844 C75.3061735,24.1554004 75.4486255,23.8203715 75.7093368,23.5902561 C76.1112716,23.3122288 76.5999821,23.186917 77.08677,23.2370639 L82.5965028,23.2370639 L84.0151765,26.6293508 C84.2927667,26.3630574 84.6608422,26.2105754 85.0461894,26.2022346 C86.1431871,26.2022346 87.0092379,27.5246516 87.0092379,29.2002605 C87.0471759,30.1016409 86.7373022,30.9833088 86.1431871,31.6643914 L87.7928076,35.6316421 C88.2156489,35.5767201 88.6451724,35.6542292 89.0217749,35.8534138 C89.3629534,36.0903052 89.5710654,36.4743195 89.582646,36.8883488 C89.5784282,37.2474199 89.4117481,37.5854284 89.1290004,37.8082909 L89.1290004,37.8411461 Z M95.6120093,1.77448438 L29.6931706,1.77448438 C28.2169416,1.85790906 26.8126518,2.43697501 25.7093368,3.41723826 L3.74463873,25.6601259 C2.75691959,26.7534976 2.17478016,28.1506137 2.09501814,29.6191628 L2.09501814,57.0531528 C2.11761059,58.3337649 3.17619142,59.3548816 4.46222369,59.3370588 L78.6209172,59.3370588 C80.1018054,59.2628425 81.5118133,58.6826199 82.6129991,57.6938268 L96.3460904,43.5989984 C97.3103366,42.488991 97.8736504,41.0894602 97.9462224,39.6235339 L97.9462224,4.01684344 C97.9396948,3.40687273 97.6900938,2.82447117 97.2523361,2.39777825 C96.8145786,1.97108532 96.2245288,1.73505888 95.6120093,1.74136742 L95.6120093,1.77448438 Z" id="形状" fill="#00AEEB"></path>
                </g>
            </g>
        </g>
    </g>
</svg>