<?xml version="1.0" encoding="UTF-8"?>
<svg width="120px" height="90px" viewBox="0 0 120 90" version="1.1" xmlns="http://www.w3.org/2000/svg" xmlns:xlink="http://www.w3.org/1999/xlink">
    <title>felica_transport_ic_nimoca</title>
    <g id="LOGO-+-SDK-+-payment-icon" stroke="none" stroke-width="1" fill="none" fill-rule="evenodd">
        <g id="payment" transform="translate(-1968.000000, -755.000000)">
            <g id="felica_transport_ic_nimoca" transform="translate(1968.000000, 755.000000)">
                <g id="payment-4:3bg" transform="translate(-20.000000, -15.000000)"></g>
                <g id="编组" transform="translate(2.000000, 27.999967)" fill="#3CB4E5" fill-rule="nonzero">
                    <path d="M0.00199827036,9.98220561 C0.00199827036,9.44263111 0.12519225,9.1231462 0.371580209,9.00955157 C0.618339098,8.90412001 0.885031731,8.85089605 1.15422431,8.85335895 L4.78482336,8.85335895 C4.99358743,8.84946211 5.19497542,8.92899394 5.34262072,9.07364341 C5.49026601,9.21829289 5.571445,9.4155946 5.56746746,9.62012272 L5.56746746,9.74081702 C5.55746655,9.81813363 5.58507019,9.89556821 5.64202733,9.94997462 C5.69898447,10.004381 5.77869619,10.0294559 5.85733565,10.0177039 C5.92916846,10.0184938 5.99967917,9.99875663 6.06024338,9.96090662 L6.22691759,9.81891333 C6.62225176,9.51489236 7.04144481,9.2418921 7.48059749,9.0024519 C8.32582254,8.66538811 9.23584893,8.51275667 10.1473848,8.55517304 C10.7899313,8.55649894 11.4282413,8.65713131 12.0387747,8.85335895 C12.6724822,9.05583509 13.2501902,9.39834156 13.7272569,9.85441165 C14.2582175,10.3839608 14.6725833,11.0146456 14.9447033,11.7074241 C15.2825342,12.6166205 15.4423381,13.5800753 15.4157391,14.54729 L15.4157391,28.3561375 C15.4157391,28.8957121 15.2925451,29.215197 15.0461572,29.321692 C14.7998736,29.4293596 14.5332038,29.4849843 14.2635131,29.4849843 L10.9735092,29.4849843 C10.4227596,29.4849843 10.0894112,29.3642899 9.98071061,29.1229013 C9.87309547,28.8811494 9.8187692,28.6198681 9.8212831,28.3561375 L9.8212831,15.7258342 C9.83523888,15.2277655 9.65069789,14.7439437 9.30676707,14.376898 C8.88891283,14.003015 8.33560852,13.8086853 7.77046568,13.8373234 C7.28754038,13.8086749 6.80719068,13.9250872 6.39359179,14.1710077 C6.13016192,14.3884243 5.92597331,14.6665363 5.79936201,14.9803695 C5.6779008,15.2890738 5.60934142,15.6153196 5.59645428,15.9459239 C5.59645428,16.2796081 5.59645428,16.5706944 5.59645428,16.8120829 L5.59645428,28.3561375 C5.59645428,28.8957121 5.46601359,29.215197 5.22687235,29.321692 C4.98058871,29.4293596 4.71391899,29.4849843 4.44422824,29.4849843 L1.12523749,29.4849843 C0.57448794,29.4849843 0.241139525,29.3642899 0.139685659,29.1229013 C0.036434614,28.8804461 -0.0105923484,28.6185588 0.00199827036,28.3561375 L0.00199827036,9.98220561 Z" id="路径"></path>
                    <path d="M27.4742557,28.3561375 C27.4742557,28.8957121 27.3510617,29.215197 27.1046737,29.321692 C26.858125,29.4285597 26.5916298,29.4841617 26.3220296,29.4849843 L23.0320257,29.4849843 C22.4812762,29.4849843 22.1551744,29.3642899 22.0464739,29.1229013 C21.9332761,28.8826791 21.8763291,28.6207017 21.8797996,28.3561375 L21.8797996,9.98220561 C21.8797996,9.44263111 22.0029937,9.1231462 22.2493816,9.00955157 C22.4961405,8.90412001 22.7628331,8.85089605 23.0320257,8.8532007 L26.3220296,8.8532007 C26.5911391,8.85173651 26.8576558,8.90492536 27.1046737,9.00955157 C27.3510617,9.1231462 27.4742557,9.44263111 27.4742557,9.98220561 L27.4742557,28.3561375 Z" id="路径"></path>
                    <path d="M33.9383163,9.98220561 C33.9383163,9.44263111 34.0615102,9.1231462 34.3078983,9.00955157 C34.5546571,8.90412001 34.8213497,8.85089605 35.0905423,8.85335895 L38.7138947,8.85335895 C38.9236557,8.84405713 39.1272223,8.92434961 39.2718908,9.07344855 C39.4240778,9.21518168 39.5060332,9.41461785 39.4965387,9.62012272 L39.4965387,9.74081702 C39.4965387,9.9254083 39.5762525,10.0177039 39.7429268,10.0177039 C39.8213561,10.0165578 39.8983732,9.99708572 39.9675745,9.96090662 C40.0324141,9.91929885 40.0930754,9.87175445 40.1487422,9.81891333 C40.4603505,9.60592339 40.8734127,9.33613613 41.4241622,9.0237509 C42.1528131,8.6728003 42.9613788,8.51143449 43.7720945,8.55517304 C44.5224997,8.52674509 45.2686786,8.67782641 45.9461059,8.99535224 C46.5097708,9.28156236 47.0354613,9.63444907 47.5113942,10.0461026 C47.682017,10.2106864 47.8838944,10.3409325 48.1056239,10.4294845 C48.2602202,10.4626162 48.5283484,10.3348223 48.9100081,10.0461026 C49.4384733,9.65769364 50.0039142,9.32008241 50.5984903,9.03795022 C52.0808056,8.46260594 53.7186201,8.39752149 55.243628,8.85335895 C55.8766901,9.05721283 56.4540971,9.3995409 56.9321102,9.85441165 C57.4631026,10.382557 57.8753461,11.0137688 58.1423098,11.7074241 C58.4863934,12.6151745 58.648779,13.5793613 58.6205924,14.54729 L58.6205924,28.3561375 C58.6205924,28.8957121 58.4973984,29.215197 58.2437638,29.321692 C58.0000512,29.4294052 57.7357303,29.4849988 57.4683664,29.4849988 L54.1783624,29.4849988 C53.9086716,29.4849988 53.642002,29.4293596 53.3957184,29.321692 C53.1493303,29.215197 53.0261364,28.8957121 53.0261364,28.3561375 L53.0261364,15.7258342 C53.0412612,15.2262625 52.8536365,14.7411879 52.5043737,14.376898 C51.7790672,13.7456794 50.714647,13.6616743 49.89556,14.1710077 C49.6241872,14.3859005 49.4123621,14.6642308 49.2795901,14.9803695 C49.1592331,15.2897063 49.0883466,15.6153941 49.0694356,15.9459239 C49.0694356,16.2796081 49.0694356,16.5706944 49.0694356,16.8120829 L49.0694356,28.3561375 C49.0694356,28.8957121 48.9462417,29.215197 48.692607,29.321692 C48.4491061,29.4300341 48.1846445,29.4857276 47.9172096,29.4849988 L44.6344523,29.4849988 C44.0837028,29.4849988 43.7503544,29.3642899 43.6416538,29.1229013 C43.5340386,28.8811494 43.4797124,28.6198681 43.4822263,28.3561375 L43.4822263,15.7258342 C43.4961821,15.2277655 43.3116412,14.7439437 42.9677103,14.376898 C42.5892523,13.996746 42.0590088,13.7993419 41.5183694,13.8373234 C41.0921028,13.8068903 40.6685791,13.9250825 40.3226631,14.1710077 C40.0571534,14.3865292 39.8525492,14.6652073 39.7284333,14.9803695 C39.6069721,15.2890738 39.5384127,15.6153196 39.5255255,15.9459239 C39.5255255,16.2796081 39.5255255,16.5706944 39.5255255,16.8120829 L39.5255255,28.3561375 C39.5255255,28.8957121 39.4023316,29.215197 39.1559437,29.321692 C38.9070953,29.4293246 38.6380732,29.4849988 38.3660528,29.4849988 L35.0905423,29.4849988 C34.5397927,29.4849988 34.2064443,29.3642899 34.1049905,29.1229013 C33.9950929,28.881615 33.9383163,28.6203561 33.9383163,28.3561375 L33.9383163,9.98220561 Z" id="路径"></path>
                    <path d="M64.1353346,16.6558903 C64.1436636,15.8033471 64.2260907,14.9530477 64.3817227,14.1142104 C64.5507982,13.1679434 64.9078033,12.2633883 65.4324948,11.4518362 C66.0192942,10.5737698 66.8281973,9.85955043 67.7804271,9.37873413 C70.4478554,8.28098347 73.4539559,8.28098347 76.1213841,9.37873413 C77.0736139,9.85955043 77.882517,10.5737698 78.4693165,11.4518362 C78.994008,12.2633883 79.3510132,13.1679434 79.5200887,14.1142104 C79.6757206,14.9530477 79.7581478,15.8033471 79.7664766,16.6558903 L79.7664766,21.7179511 C79.7601799,22.5776518 79.6777413,23.4351953 79.5200887,24.2809301 C79.3468319,25.2105499 78.9898908,26.0980607 78.4693165,26.8936066 C77.8925276,27.7918129 77.0854739,28.5261888 76.1286309,29.023506 C73.4587684,30.1216427 70.4502896,30.1216427 67.7804271,29.023506 C66.8199347,28.5285739 66.0099598,27.7938146 65.4324948,26.8936066 C64.909293,26.0916322 64.5522553,25.1966443 64.3817227,24.259631 C64.22407,23.4138963 64.1416314,22.5563528 64.1353346,21.6966521 L64.1353346,16.6558903 Z M69.7297907,22.6338079 C69.7133784,23.0778578 69.7822066,23.5209793 69.9326983,23.9401461 C70.0461334,24.2414562 70.2212205,24.5168779 70.4472144,24.749508 C70.6511168,24.9454846 70.8994289,25.0914489 71.1718849,25.1754878 C71.6797185,25.3270043 72.2220927,25.3270043 72.7299264,25.1754878 C73.0023823,25.0914489 73.2506946,24.9454846 73.4545968,24.749508 C73.6805907,24.5168779 73.8556779,24.2414562 73.9691129,23.9401461 C74.1196047,23.5209793 74.1884328,23.0778578 74.1720207,22.6338079 L74.1720207,15.7116349 C74.1881446,15.2652808 74.1193371,14.819885 73.9691129,14.398197 C73.8522033,14.1027939 73.6774127,13.8326628 73.4545968,13.6030346 C73.2544052,13.4024061 73.0048257,13.2556969 72.7299264,13.1770547 C72.2235977,13.0159395 71.6782135,13.0159395 71.1718849,13.1770547 C70.8969855,13.2556969 70.6474062,13.4024061 70.4472144,13.6030346 C70.2243985,13.8326628 70.049608,14.1027939 69.9326983,14.398197 C69.7824742,14.819885 69.7136668,15.2652808 69.7297907,15.7116349 L69.7297907,22.6338079 Z" id="形状"></path>
                    <path d="M89.766929,21.2706722 C89.7696285,21.6123662 89.7914011,21.9536598 89.8321494,22.293024 C89.8775599,22.689627 90.0032013,23.0733849 90.2017314,23.4218706 C90.4221714,23.7989503 90.7427031,24.1105251 91.1293095,24.3235281 C91.6751787,24.5966155 92.2856893,24.7216331 92.8975055,24.6856109 C93.056933,24.6856109 93.2815809,24.6856109 93.5569556,24.6856109 C93.8323304,24.6856109 94.2236525,24.600415 94.7454152,24.5223187 C95.0315824,24.487354 95.3148975,24.4327896 95.5932797,24.3590264 C95.7867241,24.306232 95.9867019,24.2799501 96.1875094,24.2809301 C96.5425979,24.2809301 96.7527524,24.3803253 96.8252194,24.5862157 C96.8861848,24.7481953 96.9228008,24.9179949 96.93392,25.0902919 L96.93392,28.3135395 C96.929181,28.4832595 96.9073348,28.6521053 96.8686997,28.8176157 C96.7859697,29.0400942 96.6165822,29.2213632 96.3976639,29.321692 C95.9853432,29.5266501 95.5384605,29.6565512 95.0787636,29.7050738 C94.221056,29.8137486 93.3564204,29.8612048 92.49169,29.8470671 C90.8219293,29.9334314 89.1551631,29.6292312 87.6291512,28.959609 C85.6923876,28.0348178 84.4133386,26.1605981 84.2811736,24.0537408 C84.2087066,23.1165851 84.1797198,22.3001237 84.1797198,21.5972569 L84.1797198,16.4500001 C84.180218,15.5194574 84.262653,14.5906913 84.4261077,13.6740312 C84.5790965,12.754765 84.9515423,11.8838974 85.5131134,11.1323513 C86.1637602,10.3140991 87.0202961,9.67555748 87.9987331,9.27933882 C89.4309262,8.74363092 90.9602076,8.50197747 92.49169,8.56937237 C93.3564204,8.55523475 94.221056,8.60269086 95.0787636,8.71136566 C95.5384605,8.75988817 95.9853432,8.88978938 96.3976639,9.09474754 C96.6151803,9.19693679 96.7839545,9.37754964 96.8686997,9.59882373 C96.9050853,9.7645424 96.9245061,9.93340387 96.9266732,10.1028999 L96.9266732,13.3332473 C96.9179757,13.5075151 96.8838099,13.6796599 96.8252194,13.8444231 C96.7527524,14.0432138 96.5425979,14.142609 96.1875094,14.142609 C95.9062281,14.1449318 95.6251845,14.1259428 95.3468916,14.0858117 C95.1149972,14.0432138 94.8831026,13.9864164 94.6222213,13.9225195 C94.3847999,13.8517708 94.1426643,13.7972096 93.8975508,13.7592272 C93.5710027,13.7155974 93.241516,13.696609 92.9119989,13.7024299 C92.3311575,13.6746337 91.7520201,13.7842147 91.2235167,14.0219148 C90.8375528,14.204258 90.5057266,14.480465 90.259705,14.8241769 C90.0409116,15.1586529 89.9021779,15.5372835 89.8538895,15.9317246 C89.7968976,16.3173431 89.7678381,16.7064305 89.766929,17.0960695 L89.766929,21.2706722 Z" id="路径"></path>
                    <path d="M115.949274,28.072151 L115.949274,28.5549282 C115.953151,28.7125473 115.910363,28.8678949 115.826079,29.0022071 C115.736453,29.1463321 115.608764,29.2640712 115.456498,29.3429909 C115.23024,29.4471127 114.981556,29.4958402 114.731827,29.4849843 L111.282395,29.4849843 C110.927307,29.4849843 110.702659,29.4352865 110.622945,29.3429909 C110.549334,29.260265 110.508226,29.1545456 110.506998,29.044805 C110.515589,28.9289965 110.515589,28.8127299 110.506998,28.6969215 C110.506998,28.6046258 110.383804,28.5549282 110.19539,28.5549282 C110.04929,28.5730872 109.916442,28.6470956 109.825808,28.7608184 C109.377014,29.1150979 108.859197,29.3760005 108.304,29.5275822 C107.704181,29.7158986 107.07869,29.8140423 106.448843,29.818743 C105.721036,29.821397 105.000546,29.676355 104.332805,29.3926886 C103.644701,29.1023738 103.032721,28.6630184 102.542869,28.1076493 C101.985145,27.4616333 101.563934,26.7135296 101.303683,25.9067533 C100.981429,25.0951505 100.828649,24.2284559 100.854387,23.3579737 C100.911979,21.2120781 101.92631,19.1986321 103.629875,17.848634 C105.249898,16.6728991 107.053497,15.7618259 108.970696,15.1507615 L110.006975,14.7815788 C110.272695,14.6812499 110.438313,14.4204789 110.412791,14.142609 C110.447588,13.5957672 110.088527,13.0991432 109.550433,12.9498654 C108.982949,12.750678 108.385035,12.6474459 107.782237,12.6445799 C107.296977,12.6415861 106.812271,12.6772015 106.332896,12.7510747 C105.867232,12.8179899 105.407087,12.9176424 104.956022,13.0492607 C104.534982,13.1424564 104.122838,13.2707166 103.724082,13.4326426 C103.497842,13.5417884 103.251264,13.6045979 102.999412,13.6172339 C102.785473,13.6260571 102.577642,13.5461579 102.426922,13.3971443 C102.293924,13.2620078 102.220969,13.0807668 102.224014,12.893068 L102.224014,10.3939862 C102.235665,10.1860354 102.284731,9.98173742 102.368949,9.79051467 C102.531506,9.47503259 102.800295,9.22423799 103.129852,9.08054821 C103.703616,8.79233365 104.319738,8.59352206 104.956022,8.49127606 C106.049458,8.30676809 107.1585,8.22593154 108.267766,8.24988746 C109.683266,8.20168873 111.096332,8.39877265 112.441868,8.83205995 C113.335227,9.13138354 114.134173,9.65239194 114.760813,10.3442885 C115.273114,10.9315926 115.622502,11.6381926 115.775352,12.3960915 C115.924075,13.1254706 115.999319,13.867397 116,14.6111869 L115.949274,28.072151 Z M110.383804,19.793942 C110.392077,19.6776616 110.316739,19.5713756 110.202636,19.5383542 C110.070162,19.4980619 109.926175,19.5189605 109.811314,19.5951515 L109.086644,20.0424304 C108.503582,20.3883847 107.969922,20.8085606 107.499615,21.2919713 C106.883431,21.8256038 106.574533,22.6219979 106.673491,23.4218706 C106.822835,24.2851886 107.577107,24.9228455 108.470674,24.9411989 C108.963113,24.9601338 109.445454,24.800931 109.825808,24.49392 C110.188143,24.2028337 110.362064,24.49392 110.362064,24.0821394 L110.383804,19.793942 Z" id="形状"></path>
                    <path d="M27.3003348,2.58435512 C27.3003348,4.00882915 26.123692,5.1646545 24.6697214,5.16855522 C23.2157506,5.17241685 22.0327459,4.02289013 22.0246928,2.59843752 C22.0168009,1.17398492 23.1868674,0.0118173944 24.6407942,0 C25.343558,-0.00369801586 26.018965,0.266679371 26.5179367,0.751530649 C27.0169084,1.23638192 27.2984199,1.89584302 27.3003348,2.58435512 L27.3003348,2.58435512 Z" id="路径"></path>
                </g>
            </g>
        </g>
    </g>
</svg>