<?xml version="1.0" encoding="UTF-8"?>
<svg width="120px" height="90px" viewBox="0 0 120 90" version="1.1" xmlns="http://www.w3.org/2000/svg" xmlns:xlink="http://www.w3.org/1999/xlink">
    <title>felica_quickpay</title>
    <g id="LOGO-+-SDK-+-payment-icon" stroke="none" stroke-width="1" fill="none" fill-rule="evenodd">
        <g id="payment" transform="translate(-1618.000000, -755.000000)">
            <g id="felica_quickpay" transform="translate(1618.000000, 755.000000)">
                <g id="payment-4:3bg" transform="translate(-20.000000, -15.000000)"></g>
                <g id="QUICPay+" transform="translate(10.000000, 12.000000)">
                    <path d="M86.9509632,60.2879191 C86.6283058,59.7018229 89.2914013,59.2574957 89.78945,60.1210513 C90.394335,61.1208856 91.6445348,63.0181981 91.6445348,63.0181981 C91.6445348,63.0181981 96.5092008,60.4800818 97.5629155,59.9032016 C98.6166302,59.3267135 100.884802,59.8447684 99.6332355,60.5530252 C98.3816685,61.261282 90.2624986,65.2814041 88.9134703,66.0029946 C87.861904,66.5653646 83.2583717,66.173588 82.7648153,65.9461301 C82.5304394,65.8378915 82.9718473,64.8068799 83.4101301,64.9664925 C84.2521253,65.2014016 86.897838,65.3316017 87.5107308,65.104732 C88.0267483,64.8837449 89.6193322,64.0184245 89.6193322,64.0184245 C89.6193322,64.0184245 87.3390505,60.8587208 86.9509632,60.2879191 L86.9509632,60.2879191 Z M76.961474,59.6188792 C78.7940978,59.6188792 80.0495711,60.0588926 80.4245725,60.0588926 C80.7995738,60.0588926 81.3888337,59.9341829 81.7423506,59.8100615 C82.0954769,59.6861362 83.7745845,59.6382916 83.4572006,60.171445 C83.0890352,60.7904834 81.522428,63.2517346 80.9651994,64.0709752 C80.5341432,64.5941283 78.6839412,64.5007921 78.5726127,63.9143037 C78.1073766,63.8554784 77.7159689,64.3752981 74.2804097,64.3501993 C71.6046188,64.3501993 70.6112558,63.7356709 71.0249292,63.1129069 C71.5210247,62.3658254 72.3139963,61.0224512 72.770248,60.5471427 C73.2268903,60.0718341 75.1288502,59.6188792 76.9616693,59.6188792 L76.961474,59.6188792 Z M74.80131,63.3356587 C73.5544305,63.3356587 74.1450576,62.5650471 74.1450576,62.5650471 L75.0259202,61.3293233 C75.0259202,61.3293233 75.4196716,60.7734241 76.4960427,60.7830322 L79.0196846,60.7830322 C79.7394137,60.7830322 80.3276971,60.8908786 79.9146097,61.4354049 C79.5015223,61.9799313 79.2249588,62.4746522 78.9462468,62.8811351 C78.6675349,63.287618 78.0130403,63.310756 77.3185066,63.3403647 C76.6241681,63.3699735 75.9895955,63.3356587 74.80131,63.3356587 L74.80131,63.3356587 Z M62.8241184,58.3602135 C63.6424807,58.0711852 65.6975662,57.9051017 67.1825325,57.9311809 C68.6674988,57.9570641 70.1423088,58.1188337 70.2821531,58.8302278 C70.4219973,59.6282913 69.1421099,61.0389223 68.558514,61.3726579 C67.9745276,61.7063936 66.6868276,62.0075792 65.7831134,62.0075792 C64.8793992,62.0075792 60.7635641,62.0179717 60.7635641,62.0179717 C60.7635641,62.0179717 59.7616073,63.5160564 59.3776216,64.0727399 C59.1518395,64.4786346 56.2047586,64.7796241 57.0615976,63.3813464 C57.8604286,62.0777774 59.4659031,59.5963295 60.220984,58.5533567 C61.0569245,57.4060669 62.629977,58.0325565 62.8241184,58.3602135 L62.8241184,58.3602135 Z M65.2803772,61.0500991 C66.1522554,61.0500991 66.5628037,60.5800849 66.5628037,60.5800849 C66.5628037,60.5800849 67.1936654,59.7002542 67.320033,59.4680903 C67.4464007,59.2355342 67.1376105,58.9939583 66.5628037,58.9939583 L63.7233404,58.9939583 C63.3541984,58.9939583 62.7387665,59.0555288 62.387398,59.5212292 C62.0358343,59.9869296 61.754388,60.2939977 61.754388,60.2939977 C61.754388,60.2939977 61.1176669,61.0500991 61.9057557,61.0500991 L65.2803772,61.0500991 Z" id="形状" fill="#014099"></path>
                    <path d="M45.7234708,59.1694538 C46.335387,58.5015904 47.0396865,58.2700147 48.2230892,58.1333439 C49.4066872,57.9966731 52.8404886,57.9513776 53.5588506,57.989418 C54.2772126,58.0274583 55.3375679,58.0227523 55.3430367,58.4592362 C55.3553414,59.0529797 54.5793621,59.041999 54.2293608,59.0492541 C53.8789689,59.0565092 49.9207515,59.0492541 49.4010231,59.0492541 C48.8812947,59.0492541 48.4732854,59.3831858 48.2232845,59.7710407 C47.9730883,60.1590917 46.6746461,62.2005262 46.3416371,62.7209342 C46.0082374,63.2415382 46.3055041,63.259578 47.011366,63.2691861 C47.7170327,63.2787942 52.2029863,63.0834942 52.8547465,63.0436891 C53.6760385,62.985452 53.7109996,63.7529263 52.798301,64.0284248 C52.0170482,64.3009821 47.8842208,64.3131394 45.6146813,64.2598044 C43.8127217,64.1764686 42.732835,63.898617 43.4599861,62.7332875 C44.2769812,61.4118748 45.2244455,59.8920248 45.7236661,59.1694538 L45.7234708,59.1694538 Z M34.6478449,63.4937027 C34.6478449,63.4937027 37.363675,59.3647538 38.0142633,58.4102151 C38.6380937,57.4917558 41.238103,57.8147068 40.6279446,58.8127763 C40.0175908,59.8108458 37.3701203,63.9462655 37.3701203,63.9462655 C36.8494153,64.6633461 34.0107332,64.3423559 34.6478449,63.4937027 Z" id="形状" fill="#D70C19"></path>
                    <path d="M23.414406,63.3195798 L25.1730061,63.3195798 C25.9034774,63.3195798 26.6261363,63.0680035 26.8575824,62.7264245 C27.0888333,62.3846495 28.9103242,59.5726033 29.5308343,58.5780633 C30.2556416,57.4156751 32.8115102,57.861571 32.3085787,58.7055181 C31.6945139,59.6894696 29.106614,63.6305696 29.106614,63.6305696 C29.106614,63.6305696 28.8025113,64.3596114 27.7790701,64.3596114 C26.2241817,64.4139267 26.6007456,63.805673 26.3382446,63.919598 C25.8694929,64.265883 22.8485836,64.3596114 21.4604927,64.3596114 C18.3444658,64.3811807 16.9780546,63.9462655 17.6831353,62.8697622 C18.3884113,61.7932589 19.2343128,60.2061519 20.3208401,58.7202245 C21.2962343,57.3868507 23.8575716,57.7760782 23.1397956,58.7747359 C22.4220196,59.7731976 20.9751394,62.0960132 20.6452554,62.6387748 C20.2882228,63.2258515 20.6878336,63.2838924 21.0698663,63.3195798 L23.414406,63.3195798 L23.414406,63.3195798 Z M8.36962515,64.3451011 L2.31257206,64.3451011 C-0.102280394,64.3451011 -0.380797023,63.5854702 0.36549473,62.4189642 C1.064716,61.3267742 1.75378099,60.1441893 2.31276738,59.3025951 C3.09402019,58.1256966 3.97878901,57.8721595 6.12332799,57.8721595 L11.6911215,57.8721595 C14.7389841,57.8721595 14.7053902,58.8512088 14.2301932,59.6651551 C13.7548008,60.4789053 12.1075293,62.948196 11.5881914,63.640766 C11.7462276,63.7204032 12.0049898,63.7637109 12.0799901,63.7717504 C12.5126088,63.817242 13.3047992,64.1815668 13.1762831,64.5325578 C13.047767,64.8835488 11.4028392,64.7674669 11.4028392,64.7674669 C11.4028392,64.7674669 10.8542695,64.6053705 9.75713016,64.2811776 C9.48030624,64.2989559 9.01780457,64.3202638 8.36962515,64.3451011 Z M9.50009798,62.5123004 C9.89951348,61.9752253 10.8915092,60.382824 11.2215886,59.8494744 C11.5518632,59.3157328 11.6516682,59.0055273 10.7993214,59.0055273 L6.51063408,59.0055273 C5.50906796,59.0055273 5.08230861,59.6735868 5.08230861,59.6735868 C5.08230861,59.6735868 3.52175611,62.0646397 3.09402019,62.6374022 C2.79519099,63.0099626 2.89480073,63.3146777 3.79617116,63.3146777 C4.84148743,63.3185994 6.3143443,63.3407569 7.26923056,63.3344822 C6.94012781,63.1374174 6.62508761,62.9370192 6.51063408,62.829761 C6.23602371,62.57191 5.82625661,62.1728783 6.00965571,61.9426753 C6.19325012,61.7126683 7.09208148,61.9820882 7.67841172,62.1818982 C7.90497504,62.2589594 8.53915701,62.5124965 9.25732367,62.7970149 C9.33994115,62.7138751 9.4206055,62.6193625 9.50009798,62.5123004 Z" id="形状" fill="#014099"></path>
                    <path d="M66.8701483,53.5861562 L74.4352489,40.6418243 L75.3899354,41.1864035 L67.8248348,54.1307354 L66.8701483,53.5861562 Z M58.9315339,49.0853199 L66.492726,36.1478709 L69.0748658,37.6206185 L61.5136738,50.5580675 L58.9315339,49.0853199 Z M50.8411688,44.4708338 L58.402191,31.5335527 L62.5179809,33.8809173 L54.9567888,46.8183663 L50.8411688,44.4708338 Z" id="形状" fill="#D70C19"></path>
                    <path d="M53.1964474,45.8141516 C48.3883484,50.2940037 41.9086132,53.0412412 34.7843202,53.0412412 C19.9674766,53.0412412 7.93822238,41.1578652 7.93822238,26.5207045 C7.93822238,11.8833761 19.9674766,0 34.7843202,0 C49.6013338,0 61.630588,11.8833761 61.630588,26.5205367 C61.630588,28.7283991 61.3569951,30.873477 60.8414167,32.9245463 L54.9236518,29.5496325 L47.3624597,42.4869137 L53.1964474,45.8141516 Z M49.3576492,26.374991 C49.3576492,17.6650814 42.1995394,10.5937776 33.3827085,10.5937776 C24.5660476,10.5937776 17.4079378,17.6650814 17.4079378,26.374991 C17.4079378,35.0847328 24.5660476,42.1560365 33.3827085,42.1560365 C36.2019057,42.1560365 38.8515092,41.4331765 41.1518992,40.16473 L27.3786173,32.3089569 L34.9396395,19.3715078 L49.3124469,27.5690699 L49.3576492,26.374991 Z" id="形状" fill="#014099"></path>
                    <path d="M83.1158192,2.24719101 C83.3919616,2.24719101 83.6158192,2.47104864 83.6158192,2.74719101 L83.615322,13.763191 L94.6977401,13.7640449 C94.9738825,13.7640449 95.1977401,13.9879026 95.1977401,14.2640449 L95.1977401,21.6910112 C95.1977401,21.9671536 94.9738825,22.1910112 94.6977401,22.1910112 L83.615322,22.190191 L83.6158192,33.2078652 C83.6158192,33.4840075 83.3919616,33.7078652 83.1158192,33.7078652 L75.6412429,33.7078652 C75.3651006,33.7078652 75.1412429,33.4840075 75.1412429,33.2078652 L75.140322,22.190191 L64.059322,22.1910112 C63.7831797,22.1910112 63.559322,21.9671536 63.559322,21.6910112 L63.559322,14.2640449 C63.559322,13.9879026 63.7831797,13.7640449 64.059322,13.7640449 L75.140322,13.763191 L75.1412429,2.74719101 C75.1412429,2.47104864 75.3651006,2.24719101 75.6412429,2.24719101 L83.1158192,2.24719101 Z" id="形状结合" fill="#014099"></path>
                </g>
            </g>
        </g>
    </g>
</svg>