<?xml version="1.0" encoding="UTF-8"?>
<svg width="120px" height="90px" viewBox="0 0 120 90" version="1.1" xmlns="http://www.w3.org/2000/svg" xmlns:xlink="http://www.w3.org/1999/xlink">
    <title>felica_transport_ic</title>
    <g id="LOGO-+-SDK-+-payment-icon" stroke="none" stroke-width="1" fill="none" fill-rule="evenodd">
        <g id="payment" transform="translate(-1618.000000, -155.000000)">
            <g id="felica_transport_ic" transform="translate(1618.000000, 155.000000)">
                <g id="payment-4:3bg" transform="translate(-20.000000, -15.000000)"></g>
                <g id="IC" transform="translate(10.000000, 6.000000)" fill-rule="nonzero">
                    <path d="M78.5658885,23.2228249 L96.7811578,23.2228249 C99.885751,23.2228249 99.9552939,24.1362231 99.9552939,28.1335682 C99.9552939,33.0443115 99.9552939,35.9907575 99.9552939,39.5657786 C99.9552939,42.7626725 99.6274488,43.7497319 96.9748844,43.7546427 C86.2785259,43.7546427 75.5821674,43.7546427 64.8858089,43.7546427 C63.0180857,43.7546427 61.4633054,44.2064311 60.5294438,45.9546557 C59.9120188,47.1285076 59.912489,48.5262819 60.5307035,49.6997276 C61.1489181,50.8731734 62.3071761,51.6748048 63.634037,51.8475477 C64.1691251,51.8942359 64.7065734,51.9089949 65.2434581,51.8917443 L96.5923985,51.8917443 C99.6224815,51.8917443 99.9652286,52.873893 99.9652286,56.4685571 C99.9652286,60.5395633 100,64.9592323 100,69.192293 C100,71.5052531 99.4287548,72.5119555 97.2729253,72.4333836 C94.6054588,72.4333836 94.4564384,72.924458 93.9000953,74.3092876 C92.7653471,77.1726428 89.9253907,79.0154952 86.8166554,78.9057433 C83.4885315,78.7633318 81.3028978,76.7990344 80.1902116,73.6217835 C79.9753701,72.9798995 79.3831073,72.5349091 78.7000069,72.502134 C76.3405161,72.4628481 73.9760579,72.5708844 71.616567,72.4726696 C69.4855742,72.4726696 69.3762926,72.9342794 68.8547209,74.3191091 C67.5802334,77.8894973 63.6443517,79.789107 60.0128394,78.586545 C57.5505562,77.8093539 55.7056287,75.7769507 55.1895434,73.2731207 C54.9785792,72.0627702 54.1242983,71.0586989 52.9542363,70.6458731 C44.4749713,67.0757627 39.4033079,60.7851005 37.8435602,51.7886187 C35.6858982,39.6403004 43.0714855,27.8195499 55.0256209,24.2884562 C57.530974,23.6175251 60.1144736,23.2741222 62.71011,23.2670216 C67.9854348,23.1196993 73.2756616,23.2228249 78.5658885,23.2228249 Z M87.1941739,76.3079601 C89.7547957,76.3107723 91.838941,74.2722961 91.8634821,71.7409688 C91.7240601,69.2681472 89.6838594,67.3175006 87.1792719,67.2623443 C85.9472523,67.2582006 84.765491,67.7449232 83.900884,68.6126143 C83.036277,69.4803054 82.5617504,70.6557789 82.5844739,71.8735589 C82.5881242,73.0699444 83.0790073,74.2144614 83.946338,75.0488091 C84.8136687,75.8831568 85.9843492,76.337017 87.1941739,76.3079601 L87.1941739,76.3079601 Z M62.1090608,76.3079601 C63.341082,76.3425119 64.5346796,75.8820165 65.4173607,75.0316029 C66.3000417,74.1811894 66.7964548,73.0134546 66.7932862,71.794987 C66.7246726,69.3420194 64.699789,67.3852954 62.2176275,67.3733093 C59.735466,67.3614328 57.6914312,69.2985982 57.5987078,71.7507903 C57.5747011,72.9503727 58.0396415,74.1091097 58.8888982,74.9662376 C59.738155,75.8233656 60.9003812,76.3068764 62.1140281,76.3079601 L62.1090608,76.3079601 Z" id="形状" fill="#E60013"></path>
                    <path d="M30.5862632,47.938596 C30.5862632,55.1672101 30.5862632,62.3941874 30.5862632,69.6195277 C30.5862632,71.7213258 29.9951486,72.3351688 27.8840252,72.3400795 C22.2543629,72.3400795 16.636291,72.3400795 11.0298096,72.3400795 C9.00313115,72.3400795 8.35240842,71.6918614 8.35240842,69.6931889 C8.35240842,55.1606625 8.35240842,40.6281361 8.35240842,26.0956097 C8.35240842,24.0380083 9.03293525,23.3750579 11.0794831,23.3701472 L27.9287314,23.3701472 C29.915671,23.3701472 30.5812958,24.023276 30.5862632,26.0219486 C30.5928863,33.3258608 30.5928863,40.6314099 30.5862632,47.938596 Z" id="路径" fill="#957037"></path>
                    <path d="M16.3548079,0.677602314 C18.2209672,-0.225867438 20.4047614,-0.225867438 22.2709207,0.677602314 L37.2772824,7.85710904 C38.0947855,8.25139473 38.6133722,9.07194674 38.6133722,9.97118404 C38.6133722,10.8704213 38.0947855,11.6909733 37.2772824,12.085259 L22.2709207,19.3089624 C20.403212,20.2057973 18.2225166,20.2057973 16.3548079,19.3089624 L1.36334818,12.104902 C0.531160616,11.7177306 0,10.8902602 0,9.98100552 C0,9.07175082 0.531160616,8.2442805 1.36334818,7.85710904 L16.3548079,0.677602314 M3.61355734,9.63479812 C3.47418644,9.70104679 3.38555531,9.84040022 3.38555531,9.99328238 C3.38555531,10.1461645 3.47418644,10.285518 3.61355734,10.3517666 L17.4823961,17.0107346 C18.6363603,17.5658956 19.9844009,17.5658956 21.1383651,17.0107346 L35.0072039,10.3517666 C35.1465748,10.285518 35.2352059,10.1461645 35.2352059,9.99328238 C35.2352059,9.84040022 35.1465748,9.70104679 35.0072039,9.63479812 L21.1383651,2.97583019 C19.9854403,2.41622712 18.6353209,2.41622712 17.4823961,2.97583019 L3.61355734,9.63479812 Z" id="形状" fill="#957037"></path>
                </g>
            </g>
        </g>
    </g>
</svg>