<?xml version="1.0" encoding="UTF-8"?>
<svg width="120px" height="90px" viewBox="0 0 120 90" version="1.1" xmlns="http://www.w3.org/2000/svg" xmlns:xlink="http://www.w3.org/1999/xlink">
    <title>felica_transport_ic_kitaca</title>
    <g id="LOGO-+-SDK-+-payment-icon" stroke="none" stroke-width="1" fill="none" fill-rule="evenodd">
        <g id="payment" transform="translate(-1618.000000, -1155.000000)">
            <g id="felica_transport_ic_kitaca" transform="translate(1618.000000, 1155.000000)">
                <g id="payment-4:3bg" transform="translate(-20.000000, -15.000000)"></g>
                <g id="编组" transform="translate(17.000000, 2.000000)" fill-rule="nonzero">
                    <path d="M84.2527273,38.7581904 C86.5824242,41.1086354 86.5824242,44.8971557 84.2527273,47.2476007 L47.2502214,84.2449035 C44.9038851,86.5850322 41.1059534,86.5850322 38.7596171,84.2449035 L1.74727267,47.2476007 C-0.582424222,44.8971557 -0.582424222,41.1086354 1.74727267,38.7581904 L38.7596171,1.75105053 C41.1081817,-0.58368351 44.9016568,-0.58368351 47.2502214,1.75105053 L84.2527273,38.7581904 Z" id="路径" fill="#AACC03"></path>
                    <path d="M14.7635756,42.7717239 C14.7635756,58.4129735 27.4450969,71.0927116 43.0885462,71.0927116 C58.7319956,71.0927116 71.4135169,58.4129735 71.4135169,42.7717239 C71.4135169,27.1304743 58.7319956,14.4507362 43.0885462,14.4507362 C27.4540846,14.4724101 14.7852526,27.1394608 14.7635756,42.7717239 Z" id="路径" stroke="#231815" stroke-width="0.6006" fill="#FFFFFF"></path>
                    <path d="M17.6856028,42.7717239 C17.6856028,32.5056996 23.8711029,23.2507193 33.3573875,19.3230015 C42.843672,15.3952836 53.7622391,17.5684664 61.021028,24.8290487 C68.2798169,32.0896312 70.4490723,43.0075044 66.5171247,52.4909316 C62.5851772,61.9743589 53.3264981,68.1554002 43.0590309,68.1514249 C29.0485793,68.135149 17.6964458,56.7802105 17.6856028,42.7717239 L17.6856028,42.7717239 Z" id="路径" stroke="#231815" stroke-width="0.6006" fill="#AACC03"></path>
                    <path d="M68.5111667,42.4864482 L68.5111667,42.7717239 C68.5122437,43.9267328 68.4333473,45.0804306 68.2750433,46.2245432 L71.2265859,46.6180268 C71.4048776,45.3437036 71.4936413,44.0584549 71.4922577,42.7717239 L71.4922577,42.4569369 L68.5111667,42.4864482 Z M67.5273191,35.6595064 C67.8532131,36.7652392 68.0998008,37.8928086 68.2652047,39.0336289 L71.2167475,38.610634 C71.0333359,37.3363301 70.7571244,36.0771145 70.3903154,34.8430278 L67.5273191,35.6595064 Z M64.7135151,29.3637676 C65.3239676,30.3418224 65.8663657,31.3607298 66.3368636,32.4132661 L69.0227674,31.2131409 C68.4958788,30.0395261 67.8911037,28.9024459 67.212488,27.8095071 L64.7135151,29.3637676 Z M60.3058782,24.0615751 C61.1269799,24.8433344 61.8960248,25.6779923 62.6080815,26.5601963 L64.8709308,24.6813119 C64.0470155,23.693439 63.1596778,22.7602224 62.2145424,21.8875777 L60.3058782,24.0615751 Z M54.6290779,20.1267383 C55.6513549,20.6504237 56.6374086,21.2419728 57.5806205,21.8974148 L59.2531613,19.4873272 C58.1980115,18.750663 57.0897979,18.093062 55.9375951,17.519909 L54.6290779,20.1267383 Z M48.1061687,17.8740442 C49.2372864,18.0991881 50.3516444,18.4015673 51.4414119,18.7790566 L52.4252594,15.9951596 C51.205295,15.5857095 49.9596683,15.2570943 48.6964772,15.0114504 L48.1061687,17.8740442 Z M41.219236,17.4707235 C41.8685753,17.4215379 42.5080763,17.3920267 43.186931,17.3920267 C43.8657859,17.3920267 44.1707786,17.3920267 44.7020563,17.4412122 L44.8791488,14.4900845 C44.3183557,14.4900845 43.7575626,14.4900845 43.186931,14.4900845 C42.4588839,14.4900845 41.7406752,14.4900845 41.0224664,14.5786185 L41.2389129,17.5297459 L41.219236,17.4707235 Z M34.4798803,18.9167759 C35.5640666,18.5117897 36.6752437,18.1830854 37.805285,17.9330668 L37.185461,15.0606359 C35.9269987,15.3325412 34.6879207,15.6874527 33.4763558,16.1230419 L34.4602033,18.8872647 L34.4798803,18.9167759 Z M28.3800255,22.1433421 C29.3217873,21.4709932 30.3078774,20.8629898 31.3315681,20.3234801 L29.9541816,17.7264879 C28.8167832,18.3257996 27.7221113,19.0028887 26.6779694,19.7529287 L28.3800255,22.1433421 Z M23.2541799,26.8848204 C23.9774134,25.9877336 24.7596676,25.1398631 25.595737,24.3468507 L23.6280419,22.2122018 C22.6927806,23.0964569 21.8184382,24.0429799 21.0110075,25.0452843 L23.2541799,26.8848204 Z M19.7024902,32.7870756 C20.160026,31.7323408 20.6892622,30.7101711 21.2864848,29.72774 L18.7678351,28.2128278 C18.105054,29.3167518 17.5167169,30.4636835 17.006748,31.645973 L19.7024902,32.7870756 Z M17.8823723,39.4467868 C18.0317576,38.3014931 18.2585617,37.1676321 18.5612271,36.0529901 L15.7277462,35.2758598 C15.3894443,36.5196075 15.1363366,37.7849677 14.9701837,39.0631402 L17.8823723,39.4467868 Z M17.8823723,46.3327512 C17.7463948,45.1870997 17.6905079,44.0333599 17.7151182,42.8799319 L14.7635756,42.8799319 C14.7644922,44.1966769 14.8598419,45.5116614 15.0488914,46.8147687 L17.8823723,46.3327512 Z M19.7713596,52.9629511 C19.334209,51.9236555 18.9693184,50.8554324 18.6792888,49.7658962 L15.8458079,50.5725378 C16.2025801,51.8109418 16.6430451,53.0236937 17.1641637,54.2024247 L19.7713596,52.9629511 Z M23.3919185,58.8652063 C22.6718085,57.973977 22.0143352,57.0339223 21.4242235,56.0517979 L18.9547661,57.6355698 C19.6304506,58.7312338 20.3799052,59.7796654 21.1979385,60.7736021 L23.4706263,58.9045546 L23.3919185,58.8652063 Z M28.5276027,63.5378249 C27.5826464,62.8767333 26.6851499,62.1502906 25.841699,61.3638276 L23.8740038,63.5279879 C24.8165019,64.4037047 25.8192016,65.2123259 26.8747388,65.9479125 L28.5276027,63.5378249 Z M34.6668113,66.6955315 C33.5766789,66.3150722 32.5147642,65.8581515 31.4889838,65.3281757 L30.1411126,67.9645163 C31.2870382,68.5569922 32.4739783,69.0665485 33.6928022,69.4892656 L34.6668113,66.6955315 Z M41.4356824,68.0727243 C40.2861457,68.0038385 39.1424021,67.8592476 38.0118929,67.6398923 L37.4215844,70.5221602 C38.6844635,70.7778554 39.9630435,70.9487469 41.2487513,71.033689 L41.4356824,68.0727243 Z M48.3226152,67.5907069 C47.1940011,67.8291174 46.0498474,67.9869094 44.8988257,68.0628873 L45.1054338,71.0140148 C46.3920854,70.9273791 47.6709981,70.7498686 48.9326006,70.4828119 L48.3226152,67.5907069 Z M54.8160089,65.2691532 C53.7971499,65.8022316 52.7417898,66.2624485 51.6578583,66.646346 L52.6417059,69.4204059 C53.8560729,68.9867238 55.039437,68.4707182 56.183557,67.8759825 L54.8160089,65.2691532 Z M60.4534553,61.2752938 C59.6076272,62.0620413 58.710341,62.7916001 57.7675516,63.4591282 L59.4696078,65.8593786 C60.5049488,65.110549 61.4908477,64.295654 62.4211503,63.4197799 L60.4534553,61.2752938 Z M64.8020615,55.9140787 C64.2125066,56.9028192 63.5550284,57.8494547 62.8343664,58.7471612 L65.0775388,60.5866974 C65.8893039,59.5890847 66.6321872,58.5373624 67.3010342,57.438828 L64.8020615,55.9140787 Z M67.5273191,49.6085027 C67.220405,50.7194915 66.8357563,51.8075327 66.3762176,52.8645802 L69.0719598,54.0351942 C69.5893195,52.8548235 70.0200708,51.6383687 70.3608,50.3954701 L67.5273191,49.6085027 Z" id="形状" fill="#231815"></path>
                    <polygon id="路径" fill="#AACC03" points="13.6026355 29.8162738 22.2604939 33.3281156 22.6441944 50.7200942 12.0678334 54.6057454"></polygon>
                    <polygon id="路径" fill="#AACC03" points="73.3123427 28.9899581 64.4577148 32.6690305 63.9264371 50.6118862 74.7782755 54.7139534"></polygon>
                    <path d="M26.6976463,40.8436538 C26.6927048,40.9447613 26.6118369,41.0256179 26.5107153,41.0305587 L24.8775283,41.0305587 C24.7742892,41.0305587 24.6905973,40.9468785 24.6905973,40.8436538 L24.6905973,39.6632028 C24.6877096,39.6128028 24.7064749,39.5635668 24.7421766,39.5278701 C24.7778783,39.4921736 24.8271213,39.4734108 24.8775283,39.4762981 L26.5107153,39.4762981 C26.6139544,39.4762981 26.6976463,39.5599782 26.6976463,39.6632028 L26.6976463,40.8436538 M26.6976463,48.1132648 C26.6927048,48.2143723 26.6118369,48.2952288 26.5107153,48.3001696 L24.8775283,48.3001696 C24.7742892,48.3001696 24.6905973,48.2164894 24.6905973,48.1132648 L24.6905973,41.8962227 C24.6877096,41.8458227 24.7064749,41.7965867 24.7421766,41.76089 C24.7778783,41.7251935 24.8271213,41.7064307 24.8775283,41.709318 L26.5107153,41.709318 C26.6139544,41.709318 26.6976463,41.7929981 26.6976463,41.8962227 L26.6976463,48.1132648 Z" id="形状" fill="#231815"></path>
                    <path d="M64.0543373,48.1132648 C64.0493959,48.2143723 63.9685279,48.2952288 63.8674063,48.3001696 L59.2138074,48.3001696 L58.8399454,48.3001696 C58.0710533,48.2164135 57.3204524,48.0105254 56.6164499,47.6902699 C56.0253324,47.3750572 55.6494938,46.7662844 55.6326024,46.0966609 L55.6326024,43.8046186 C55.6180677,43.6837296 55.6180677,43.5615351 55.6326024,43.4406461 C55.7715554,42.8919017 56.0733862,42.3980662 56.4983882,42.0241048 C57.1871507,41.5943275 57.9893552,41.3818076 58.8005914,41.4142052 L63.7886985,41.4142052 C63.8898201,41.4191459 63.9706881,41.5000025 63.9756295,41.60111 L63.9756295,42.5257966 C63.9706881,42.626904 63.8898201,42.7077606 63.7886985,42.7127013 L59.4204154,42.7127013 L59.0465533,42.7127013 C58.7033169,42.7501021 58.3698514,42.8501277 58.0627058,43.007814 C57.801961,43.2119886 57.6614533,43.533632 57.6888437,43.8636411 L57.6888437,45.7031773 C57.6791942,45.8243096 57.6791942,45.9460174 57.6888437,46.0671497 C57.7623721,46.3152232 57.9099856,46.5348961 58.1118982,46.6967236 C58.4689497,46.916823 58.8831605,47.0263509 59.3023537,47.0115105 L63.8378909,47.0115105 C63.94113,47.0115105 64.0248219,47.0951906 64.0248219,47.1984152 L64.0248219,48.1821244" id="路径" fill="#231815"></path>
                    <path d="M38.3168856,42.6044933 C38.3197733,42.6548933 38.301008,42.7041293 38.2653063,42.739826 C38.2296048,42.7755227 38.1803618,42.7942853 38.1299546,42.7913981 L35.985167,42.7913981 C35.8840454,42.7963389 35.8031774,42.8771953 35.798236,42.9783028 L35.798236,48.1132648 C35.7932946,48.2143723 35.7124266,48.2952288 35.611305,48.3001696 L33.9584411,48.3001696 C33.8552019,48.3001696 33.7715101,48.2164894 33.7715101,48.1132648 L33.7715101,42.9783028 C33.7665687,42.8771953 33.6857007,42.7963389 33.5845791,42.7913981 L31.3414067,42.7913981 C31.2381675,42.7913981 31.1544756,42.7077179 31.1544756,42.6044933 L31.1544756,41.6207841 C31.1544756,41.5175595 31.2381675,41.4338794 31.3414067,41.4338794 L33.5845791,41.4338794 C33.6893916,41.428633 33.7716414,41.3420666 33.7715101,41.2371376 L33.7715101,39.2106966 C33.7686224,39.1602966 33.7873877,39.1110606 33.8230894,39.0753639 C33.8587911,39.0396674 33.908034,39.0209046 33.9584411,39.0237919 L35.611305,39.0237919 C35.7145441,39.0237919 35.798236,39.107472 35.798236,39.2106966 L35.798236,41.2666488 C35.7981047,41.3715778 35.8803544,41.4581442 35.985167,41.4633906 L38.1299546,41.4633906 C38.1803618,41.4605035 38.2296048,41.4792661 38.2653063,41.5149628 C38.301008,41.5506593 38.3197733,41.5998953 38.3168856,41.6502954 L38.3168856,42.6340046" id="路径" fill="#FFFFFF"></path>
                    <path d="M51.4118964,46.3032398 C51.4107309,46.4293773 51.394212,46.5549038 51.362704,46.6770494 C51.2438451,47.1153041 50.9889218,47.504524 50.6346569,47.7886408 C50.0447159,48.1521486 49.3592732,48.3303385 48.6669618,48.3001696 L45.0168874,48.3001696 L44.6528639,48.3001696 C44.0696056,48.2379635 43.5009188,48.0783545 42.9704845,47.8279892 C42.5156194,47.5492374 42.2395215,47.0530772 42.242392,46.5196559 L42.242392,46.1261722 C42.2436029,46.0000348 42.2601218,45.8745083 42.2916298,45.7523627 C42.3932828,45.321158 42.6271946,44.9325064 42.9606461,44.6407714 C43.5196033,44.291438 44.1714272,44.1199295 44.8299564,44.1489167 L49.1982395,44.1489167 C49.2468875,44.1516233 49.2945018,44.1341698 49.3298726,44.1006653 C49.3652434,44.0671609 49.3852457,44.0205654 49.3851705,43.9718491 L49.3851705,43.5488542 C49.3953497,43.4244588 49.3953497,43.29944 49.3851705,43.1750446 C49.3453502,43.0432979 49.2621332,42.9288907 49.1490471,42.8504206 C48.9319586,42.7034618 48.6730099,42.6309664 48.4111614,42.6438416 L42.9311307,42.6438416 C42.830009,42.6389009 42.7491411,42.5580444 42.7441997,42.4569369 L42.7441997,41.60111 C42.7491411,41.5000025 42.830009,41.4191459 42.9311307,41.4142052 L48.6768003,41.4142052 C48.8012447,41.4048344 48.9262179,41.4048344 49.0506623,41.4142052 C49.6346472,41.4725989 50.2039711,41.6323867 50.7330417,41.8863856 C51.1825756,42.1643352 51.4547538,42.6564238 51.4513166,43.1848818 L51.4513166,46.2737286 M49.4835557,46.3425883 L49.4835557,45.4375758 C49.4836305,45.3888593 49.4636282,45.342264 49.4282574,45.3087596 C49.3928866,45.2752551 49.3452723,45.2578016 49.2966242,45.2605082 L45.5284882,45.2605082 L45.1546261,45.2605082 C44.9546473,45.2876672 44.7612841,45.3510015 44.5839946,45.4474129 C44.3920898,45.5510834 44.2715505,45.7506986 44.2691633,45.9687788 L44.2691633,46.1556835 C44.2546287,46.2765725 44.2546287,46.398767 44.2691633,46.5196559 C44.3136533,46.6597279 44.4036897,46.7809137 44.5249637,46.8639542 C44.7574793,47.0091485 45.0282712,47.081121 45.3022032,47.0705331 L48.2537459,47.0705331 C48.3781754,47.0802906 48.5031782,47.0802906 48.6276079,47.0705331 C48.8148379,47.0479681 48.9955607,46.9877358 49.1588856,46.8934654 C49.3216402,46.7706987 49.4136066,46.5757575 49.4048474,46.3720995 L49.4835557,46.3425883 Z" id="形状" fill="#FFFFFF"></path>
                    <path d="M77.3067636,46.3032398 C77.3007059,46.4289863 77.2842523,46.5540161 77.2575713,46.6770494 C77.1338963,47.1131237 76.879865,47.5009817 76.5295241,47.7886408 C75.9395831,48.1521486 75.2541404,48.3303385 74.561829,48.3001696 L70.9117546,48.3001696 L70.5378926,48.3001696 C69.9548784,48.236698 69.3863978,48.0771469 68.8555134,47.8279892 C68.4029604,47.5482197 68.1303436,47.0516041 68.1373046,46.5196559 L68.1373046,46.1261722 C68.1271255,46.0017768 68.1271255,45.8767581 68.1373046,45.7523627 C68.2436931,45.3231012 68.4768041,44.9357799 68.806321,44.6407714 C69.3683257,44.2900798 70.0236951,44.1185413 70.6854698,44.1489167 L75.0537529,44.1489167 C75.1532687,44.1490547 75.2354462,44.0712133 75.2406839,43.9718491 L75.2406839,43.5488542 C75.2395184,43.4227167 75.2229994,43.2971902 75.1914915,43.1750446 C75.1529168,43.0453326 75.0735679,42.9315003 74.9652065,42.8504206 C74.7447818,42.7027084 74.4824864,42.6302422 74.2174824,42.6438416 L68.7276131,42.6438416 C68.624374,42.6438416 68.5406821,42.5601616 68.5406821,42.4569369 L68.5406821,41.60111 C68.5406821,41.4978853 68.624374,41.4142052 68.7276131,41.4142052 L74.4634442,41.4142052 C74.5878589,41.4040712 74.7128917,41.4040712 74.8373064,41.4142052 C75.4215181,41.4713945 75.9910484,41.6312402 76.5196856,41.8863856 C76.9744462,42.1605215 77.2511043,42.6539504 77.2477329,43.1848818 L77.2477329,46.2737286 M75.2800377,46.3425883 L75.2800377,45.4375758 C75.2748002,45.3382116 75.1926227,45.2603702 75.0931067,45.2605077 L71.3249706,45.2605077 L70.9511086,45.2605077 C70.7511297,45.2876672 70.5577666,45.3510015 70.380477,45.4474129 C70.1862499,45.5500633 70.0622339,45.7492124 70.0558073,45.9687788 L70.0558073,46.1556835 C70.0414591,46.2765836 70.0414591,46.3987559 70.0558073,46.5196559 C70.1002973,46.6597279 70.1903337,46.7809137 70.3116077,46.8639542 C70.5428453,47.0120731 70.8145721,47.0842943 71.0888472,47.0705331 L74.0403898,47.0705331 C74.1681039,47.0802882 74.2963763,47.0802882 74.4240904,47.0705331 C74.6113205,47.0479681 74.7920432,46.9877358 74.9553681,46.8934654 C75.1557781,46.7944741 75.2873548,46.5952575 75.2997146,46.3720995 L75.2800377,46.3425883 Z" id="形状" fill="#FFFFFF"></path>
                    <path d="M11.9989644,48.0542423 C11.9990352,48.1055649 11.977996,48.1546586 11.9407818,48.1900072 C11.9035677,48.2253556 11.8534533,48.2438482 11.8021945,48.241147 L10.0706228,48.241147 C10.0202158,48.2440342 9.9709728,48.2252715 9.93527115,48.1895749 C9.89956953,48.1538783 9.88080418,48.1046423 9.88369182,48.0542423 L9.88369182,36.9088171 C9.88361656,36.8601007 9.90361888,36.8135054 9.9389897,36.7800008 C9.97436053,36.7464964 10.0219748,36.7290429 10.0706228,36.7317494 L11.8021945,36.7317494 C11.8517891,36.7290707 11.9004111,36.7462361 11.9373282,36.7794568 C11.9742453,36.8126776 11.9964223,36.8592222 11.9989644,36.9088171 L11.9989644,48.0542423" id="路径" fill="#FFFFFF"></path>
                    <path d="M13.6419894,41.6896438 C13.5584295,41.7830267 13.4697467,41.8716971 13.3763505,41.9552453 L12.9237807,42.4077515 C12.8549948,42.4829283 12.8549948,42.5981762 12.9237807,42.673353 L18.826866,48.5756081 C18.860484,48.613722 18.9088597,48.6355565 18.9596854,48.6355565 C19.010511,48.6355565 19.0588868,48.613722 19.0925048,48.5756081 L20.2534449,47.4148313 C20.2915642,47.381218 20.3134018,47.332849 20.3134018,47.2820305 C20.3134018,47.231212 20.2915642,47.1828431 20.2534449,47.1492298 L15.7966155,42.6930271 C15.7278295,42.6178503 15.7278295,42.5026026 15.7966155,42.4274257 L20.1452217,38.079431 C20.2140076,38.0042542 20.2140076,37.8890064 20.1452217,37.8138295 L18.9842815,36.6530528 C18.9506635,36.6149388 18.9022878,36.5931043 18.8514621,36.5931043 C18.8006365,36.5931043 18.7522607,36.6149388 18.7186427,36.6530528 L13.6518279,41.709318" id="路径" fill="#FFFFFF"></path>
                </g>
            </g>
        </g>
    </g>
</svg>