<?xml version="1.0" encoding="UTF-8"?>
<svg width="120px" height="90px" viewBox="0 0 120 90" version="1.1" xmlns="http://www.w3.org/2000/svg" xmlns:xlink="http://www.w3.org/1999/xlink">
    <title>felica_transport_ic_manaca</title>
    <g id="LOGO-+-SDK-+-payment-icon" stroke="none" stroke-width="1" fill="none" fill-rule="evenodd">
        <g id="payment" transform="translate(-1968.000000, -155.000000)">
            <g id="felica_transport_ic_manaca" transform="translate(1968.000000, 155.000000)">
                <g id="payment-4:3bg" transform="translate(-20.000000, -15.000000)"></g>
                <g id="编组" transform="translate(2.000000, 37.000000)" fill-rule="nonzero">
                    <path d="M109.415266,8.3532159 C109.415151,9.36626314 108.586925,10.1888338 107.56201,10.1938624 C106.537095,10.1988004 105.700722,9.38432326 105.690524,8.37132615 C105.680325,7.35832905 106.500135,6.5275626 107.524947,6.51238586 C108.023707,6.50499957 108.50462,6.69567793 108.859949,7.04170435 C109.215278,7.38773077 109.415322,7.86018144 109.415266,8.3532159 L109.415266,8.3532159 Z" id="路径" fill="#9F9FA0"></path>
                    <path d="M71.5879945,8.3532159 C71.5841195,9.36516431 70.7517132,10.182785 69.7278939,10.1802629 C68.7040744,10.1777173 67.8758211,9.35598665 67.8770964,8.34403186 C67.8783774,7.33207708 68.7087039,6.51238586 69.7325266,6.51238586 C70.2258313,6.51238586 70.6988303,6.70654619 71.0469944,7.05196842 C71.3951585,7.39739063 71.589823,7.86563248 71.5879945,8.3532159 L71.5879945,8.3532159 Z" id="路径" fill="#9F9FA0"></path>
                    <path d="M33.0910639,8.3532159 C33.087189,9.36516431 32.2547827,10.182785 31.2309633,10.1802629 C30.207144,10.1777173 29.3788906,9.35598665 29.3801659,8.34403186 C29.3814469,7.33207708 30.2117735,6.51238586 31.2355961,6.51238586 C31.7289008,6.51238586 32.2018999,6.70654619 32.5500639,7.05196842 C32.898228,7.39739063 33.0928925,7.86563248 33.0910639,8.3532159 Z" id="路径" fill="#9F9FA0"></path>
                    <path d="M20.5981945,8.3532159 L20.5981945,16.5300865 L16.8873109,16.5300865 L16.8873109,8.3532159 C16.8873109,5.77157889 14.7699383,3.6787486 12.1580268,3.6787486 L12.1580268,16.5300865 L8.47504449,16.5300865 L8.47504449,3.6787486 C7.21536847,3.66955141 6.00418715,4.15819687 5.11082139,5.03602873 C4.21745565,5.91386059 3.71596394,7.10810812 3.71785903,8.3532159 L3.71785903,16.5300865 L0,16.5300865 L0,8.3532159 C0,6.13470448 0.893996224,4.00755712 2.48438592,2.44207046 C4.07477563,0.876583813 6.23053608,0.00171011171 8.47504449,0.0107359631 L12.1859282,0.0107359631 C16.8364042,0.026072879 20.5981945,3.75661804 20.5981945,8.3532159 L20.5981945,8.3532159 Z M93.1417853,10.1871514 C92.2588733,12.2286205 90.0449554,13.374601 87.8444116,12.9292074 C85.6438677,12.4838138 84.0638796,10.5699406 84.0638796,8.34976864 C84.0638796,6.12959673 85.6438677,4.2157235 87.8444116,3.77032988 C90.0449554,3.32493624 92.2588733,4.47091674 93.1417853,6.51238586 L97.0619293,6.51238586 C96.1149148,2.36321937 92.1635179,-0.419049905 87.8866541,0.0518639679 C83.6097902,0.522777841 80.374725,4.09632897 80.374725,8.34976864 C80.374725,12.6032083 83.6097902,16.1767595 87.8866541,16.6476733 C92.1635179,17.1185872 96.1149148,14.3363179 97.0619293,10.1871514 L93.1417853,10.1871514 Z M59.095125,8.3532159 L59.095125,8.3532159 C59.095125,3.74586963 55.3163332,0.0108775143 50.6549573,0.0108775143 C45.9935813,0.0108775143 42.2147895,3.74586963 42.2147895,8.3532159 L42.2147895,16.5300865 L45.9326485,16.5300865 L45.9326485,8.3532159 C45.8661073,6.64161808 46.7520028,5.0311234 48.2415637,4.15577282 C49.7311246,3.28042223 51.5857653,3.28042223 53.0753262,4.15577282 C54.5648871,5.0311234 55.4507825,6.64161808 55.3842414,8.3532159 L55.3842414,16.5300865 L59.095125,16.5300865 L59.095125,8.3532159 Z M112.282143,8.3532159 C112.285936,5.77428495 110.175916,3.67953415 107.566751,3.67191455 C104.957586,3.6643772 102.835147,5.74683457 102.823522,8.32574307 C102.812084,10.9046516 104.915816,13.005571 107.524947,13.0207887 C108.783413,13.0299756 109.99353,12.5422736 110.886693,11.6659362 C111.779855,10.7895987 112.282143,9.59712911 112.282143,8.3532159 Z M115.999997,16.5300865 L112.282132,16.5300865 L112.282132,15.1511875 L112.22633,15.1511875 C111.894113,15.4969023 111.498913,15.7775872 111.061447,15.9785269 C107.653321,17.5145126 103.628722,16.6465913 101.17763,13.8470409 C98.726537,11.0474905 98.4354062,6.98613971 100.462656,3.87296607 C102.489905,0.75979243 106.350489,-0.660337 109.943677,0.385338968 C113.536865,1.43101493 116.00294,4.69230481 115.999997,8.39458286 L115.999997,16.5300865 Z M74.461821,8.3532159 C74.4646328,6.46194545 73.3141708,4.75535023 71.5471837,4.02965868 C69.7801967,3.30396714 67.7449043,3.70219112 66.3908917,5.03853541 C65.0368793,6.37487969 64.6309817,8.38599123 65.3625744,10.1335665 C66.0941672,11.8811419 67.8190754,13.0207887 69.7325266,13.0207887 C72.3417164,13.0207887 74.4579623,10.93216 74.461821,8.3532159 Z M78.1796749,16.5300865 L74.4618107,16.5300865 L74.4618107,15.1511875 L74.4060079,15.1511875 C74.0737919,15.4969023 73.6785912,15.7775872 73.2411252,15.9785269 C69.8329991,17.5145126 65.8084003,16.6465913 63.3573077,13.8470409 C60.906215,11.0474905 60.6150842,6.98613971 62.6423338,3.87296607 C64.6695832,0.75979243 68.5301672,-0.660337 72.1233551,0.385338968 C75.7165431,1.43101493 78.1826182,4.69230481 78.1796749,8.39458286 L78.1796749,16.5300865 Z M35.9648905,8.3532159 C35.9677024,6.46194545 34.8172404,4.75535023 33.0502532,4.02965868 C31.2832662,3.30396714 29.2479738,3.70219112 27.8939612,5.03853541 C26.5399488,6.37487969 26.1340512,8.38599123 26.8656439,10.1335665 C27.5972367,11.8811419 29.322145,13.0207887 31.2355961,13.0207887 C33.844786,13.0207887 35.9610318,10.93216 35.9648905,8.3532159 Z M39.6827444,16.5300865 L35.9648802,16.5300865 L35.9648802,15.1511875 L35.9090774,15.1511875 C35.5732621,15.4820816 35.1782945,15.748575 34.7441947,15.9371598 C31.3360686,17.4731457 27.3114697,16.6052243 24.8603772,13.8056739 C22.4092845,11.0061236 22.1181538,6.94477275 24.1454033,3.83159911 C26.1726527,0.718425463 30.0332368,-0.701703967 33.6264247,0.343972 C37.2196126,1.38964796 39.6856877,4.65093784 39.6827444,8.3532159 L39.6827444,16.5300865 Z" id="形状" fill="#231815"></path>
                </g>
            </g>
        </g>
    </g>
</svg>