<?xml version="1.0" encoding="UTF-8"?>
<svg width="120px" height="90px" viewBox="0 0 120 90" version="1.1" xmlns="http://www.w3.org/2000/svg" xmlns:xlink="http://www.w3.org/1999/xlink">
    <title>gcash</title>
    <defs>
        <polygon id="path-1" points="0 0 82 0 82 82 0 82"></polygon>
    </defs>
    <g id="LOGO-+-SDK-+-payment-icon" stroke="none" stroke-width="1" fill="none" fill-rule="evenodd">
        <g id="payment" transform="translate(-2318.000000, -955.000000)">
            <g id="gcash" transform="translate(2318.000000, 955.000000)">
                <g id="payment-4:3bg" transform="translate(-20.000000, -15.000000)"></g>
                <g id="编组" transform="translate(19.000000, 4.000000)">
                    <g>
                        <mask id="mask-2" fill="white">
                            <use xlink:href="#path-1"></use>
                        </mask>
                        <g id="Clip-2"></g>
                        <path d="M0,70.1175533 L0,11.8824576 C0,5.31994204 5.31994133,0 11.882456,0 L70.117544,0 C76.6800587,0 82,5.31994204 82,11.8824576 L82,70.1175533 C82,76.6800689 76.6800587,82.0000109 70.117544,82.0000109 L11.882456,82.0000109 C5.31994133,82.0000109 0,76.6800689 0,70.1175533" id="Fill-1" fill="#007CFF" mask="url(#mask-2)"></path>
                    </g>
                    <path d="M56.3180865,30.7550772 C56.3180865,33.6790336 55.6363385,36.4981393 54.3483372,39.0311743 C53.9160879,39.8811864 54.1941225,40.9195252 55.0012759,41.4273239 L55.0012759,41.4273239 C55.9133345,42.0011053 57.1235452,41.6706453 57.6126479,40.7104798 C59.1349505,37.7220168 59.9934359,34.3388603 59.9934359,30.7550772 C59.9934359,27.1779634 59.1381759,23.8007109 57.6211212,20.8163478 C57.1326199,19.855253 55.9215892,19.5242463 55.0090932,20.0983557 L55.0090932,20.0983557 C54.2023772,20.6058265 53.9241785,21.6434 54.3554439,22.4933027 C55.6387439,25.0226204 56.3180865,27.8365874 56.3180865,30.7550772" id="Fill-3" fill="#6FBAF7"></path>
                    <path d="M50.3762463,30.7550772 C50.3762463,32.5681521 49.9879489,34.321531 49.2508783,35.9203672 C48.8644943,36.758462 49.1607876,37.7530128 49.9419196,38.2444662 L49.9419196,38.2444662 C50.8825143,38.8361782 52.1276569,38.4641169 52.5926516,37.4548607 C53.5482249,35.3809165 54.0515956,33.1066735 54.0515956,30.7550772 C54.0515956,28.4099315 53.5509036,26.1418659 52.6004689,24.0725683 C52.1364036,23.0622188 50.8901676,22.6895561 49.9490809,23.2815962 L49.9490809,23.2815962 C49.1685503,23.7726669 48.8722023,24.766015 49.2572196,25.6039458 C49.9901356,27.19901 50.3762463,28.9473049 50.3762463,30.7550772" id="Fill-5" fill="#6FBAF7"></path>
                    <path d="M38.0290799,43.1022397 C34.7310399,43.1022397 31.6304012,41.8179009 29.2983759,39.4858206 C26.9662412,37.1537403 25.6819025,34.0531012 25.6819025,30.7550608 C25.6819025,27.457075 26.9662412,24.3564359 29.2983759,22.0243009 C31.6304012,19.6922206 34.7309852,18.4078818 38.0290799,18.4078818 C41.5897385,18.4078818 44.1249052,19.8560566 45.5704559,20.9738808 C46.3027159,21.5401182 47.3395239,21.4808595 47.9943212,20.8266634 L47.9943212,20.8266088 C48.7774759,20.0441647 48.6935079,18.7517352 47.8157252,18.0771484 C45.8513879,16.5675282 42.5520359,14.732532 38.0290799,14.732532 C33.7492812,14.732532 29.7257052,16.3991549 26.6994679,19.4254473 C23.6732305,22.451685 22.0065532,26.4752615 22.0065532,30.7550061 C22.0065532,35.0096587 23.6907785,39.0758752 26.6991945,42.0844556 C29.7254865,45.1108573 33.7492265,46.7775896 38.0290799,46.7775896 C41.6284972,46.7775896 45.0467492,45.5987027 47.8428399,43.4236251 C48.7010519,42.7560357 48.7758359,41.4848715 48.0067305,40.7163674 C47.9937199,40.7034114 47.9807639,40.6904008 47.9677532,40.6774448 C47.3236705,40.033854 46.3026065,39.969074 45.5816079,40.5251981 C44.1690212,41.6147595 41.6064119,43.1022397 38.0290799,43.1022397" id="Fill-7" fill="#002CB8"></path>
                    <path d="M47.6328925,29.445865 C47.2858139,29.0991143 46.8154072,28.9043916 46.3248832,28.9043916 L46.3231885,28.9043916 L39.8902339,28.9121543 L39.8902339,28.9124823 C38.8687325,28.9131929 38.0409152,29.7414477 38.0409152,30.7630585 C38.0409152,31.7851613 38.8694432,32.6137441 39.8915459,32.6137441 C39.8954272,32.6137441 39.8992539,32.6134707 39.9031352,32.6134161 L44.2025592,32.6076761 C43.3831605,35.3299671 40.8060645,37.2981314 37.7961725,37.18765 C34.3200832,37.0600033 31.5545512,34.1456683 31.6009085,30.6675558 C31.6477032,27.15309 34.5116352,24.3180216 38.0373619,24.3180763 C39.2680725,24.3180763 40.4460299,24.6611097 41.4620645,25.3019124 C42.1927939,25.7627525 43.1478205,25.6445632 43.7587205,25.0336631 L43.7587205,25.0336084 C44.5922232,24.2001056 44.4417805,22.8060508 43.4458085,22.1754707 C41.2460219,20.7827825 38.5622712,20.2777718 35.8427139,20.8459225 C31.9521965,21.6587066 28.9134405,24.733543 28.1168379,28.6273956 C26.7836819,35.1436084 31.7516245,40.8933945 38.0373072,40.8933945 C43.6275205,40.8933945 48.1755685,36.3454006 48.1755685,30.7550772 C48.1755685,30.2639518 47.9803539,29.7929984 47.6328925,29.445865" id="Fill-9" fill="#FFFFFF"></path>
                    <path d="M47.4590525,61.742843 C47.4590525,63.9201073 45.9699872,65.0593608 44.4991259,65.0593608 C42.5766085,65.0593608 41.5392539,63.3312379 41.5392539,61.705287 C41.5392539,60.0851855 42.5559445,58.4451306 44.4991259,58.4451306 C45.9699872,58.4451306 47.4590525,59.5778787 47.4590525,61.742843 M49.4417032,56.4059543 L47.9848912,56.4059543 C47.6948845,56.4059543 47.4590525,56.6417864 47.4590525,56.9316837 L47.4590525,58.4451306 C47.3162632,57.4993425 46.1102619,56.236925 44.0486179,56.236925 C41.1194685,56.236925 38.9933179,58.5366426 38.9933179,61.705287 C38.9933179,64.8762821 41.1505192,67.2674571 44.0110619,67.2674571 C45.7959285,67.2674571 46.9009059,66.234257 47.4590525,65.6511276 L47.4590525,66.572753 C47.4590525,66.862705 47.6948845,67.0985371 47.9848912,67.0985371 L49.4417032,67.0985371 C49.7317099,67.0985371 49.9675419,66.862705 49.9675419,66.572753 L49.9675419,56.9316837 C49.9675419,56.6417864 49.7317099,56.4059543 49.4417032,56.4059543" id="Fill-11" fill="#FFFFFF"></path>
                    <path d="M56.5249889,60.7398954 C55.3561063,60.4167061 54.3467956,60.1375234 54.3467956,59.3777113 C54.3467956,58.7492085 54.9194289,58.3887365 55.9176969,58.3887365 C56.8409623,58.3887365 57.4680983,58.7960032 57.6381663,59.5061233 C57.6950743,59.7435406 57.9049396,59.90929 58.1486436,59.90929 L59.6015196,59.90929 C59.7552423,59.90929 59.9007649,59.8423233 60.0008596,59.7255006 C60.1012823,59.6084593 60.1453436,59.4538619 60.1217823,59.3015059 C59.8252703,57.3825963 58.2815383,56.2369468 55.9926449,56.2369468 C53.5853983,56.2369468 51.8382516,57.5657297 51.8382516,59.3964619 C51.8382516,61.7208889 53.9603023,62.2892036 55.6652463,62.745889 C56.8349489,63.0590744 57.8451889,63.3297291 57.8451889,64.0517119 C57.8451889,64.70804 57.1857449,65.1156893 56.1241729,65.1156893 C55.2126609,65.1156893 54.4702329,64.655068 54.2763849,63.9694932 C54.2101289,63.7344812 54.0058943,63.5764945 53.7681489,63.5764945 L52.2380836,63.5764945 C52.0805889,63.5764945 51.9323876,63.6459758 51.8314183,63.7670625 C51.7326903,63.8856892 51.6919089,64.0399039 51.7195703,64.1902372 C52.0517249,66.0021095 53.8784663,67.2674243 56.1617289,67.2674243 C58.5966369,67.2674243 60.2971529,65.9373841 60.2971529,64.0276039 C60.2288196,61.7641849 58.1751569,61.1962528 56.5249889,60.7398954" id="Fill-13" fill="#FFFFFF"></path>
                    <path d="M67.6813787,56.4134273 C66.4886067,56.4134273 65.4029267,56.8123846 64.646504,57.5184047 L64.646504,53.3840189 C64.646504,53.0940121 64.410672,52.8581801 64.1206653,52.8581801 L62.682604,52.8581801 C62.392652,52.8581801 62.1567653,53.0940121 62.1567653,53.3840189 L62.1567653,66.5727913 C62.1567653,66.8626886 62.392652,67.0985207 62.682604,67.0985207 L64.1206653,67.0985207 C64.410672,67.0985207 64.646504,66.8626886 64.646504,66.5727913 L64.646504,61.3186679 C64.646504,59.604649 65.533744,58.4451142 67.0807013,58.4451142 C68.6159053,58.4451142 69.496312,59.604649 69.496312,61.3186679 L69.496312,66.5727913 C69.496312,66.8626886 69.7321987,67.0985207 70.0219867,67.0985207 L71.4414067,67.0985207 C71.7314133,67.0985207 71.9673,66.8626886 71.9673,66.5727913 L71.9673,60.9995785 C71.9673,58.2136008 70.2850427,56.4134273 67.6813787,56.4134273" id="Fill-15" fill="#FFFFFF"></path>
                    <path d="M37.523528,63.6110766 L36.2912867,62.9085552 C36.211692,62.8632912 36.1213827,62.8392925 36.029816,62.8392925 C35.8505093,62.8392925 35.686564,62.9286179 35.5910613,63.0781312 C35.28296,63.5606193 34.8546467,63.958866 34.3178747,64.261938 C33.6822107,64.6212621 32.9643827,64.8035208 32.1843987,64.8035208 C30.85824,64.8035208 29.7706467,64.3793621 28.952232,63.5426886 C28.1321227,62.7053045 27.7164373,61.6262937 27.7164373,60.3356682 C27.7164373,59.0452613 28.1321227,57.9662505 28.952232,57.1285384 C29.7710293,56.2919196 30.858568,55.8677609 32.1843987,55.8677609 C32.963508,55.8677609 33.6781107,56.0498556 34.308144,56.4090157 C34.841308,56.7132357 35.2724093,57.1131771 35.5888747,57.5976878 C35.6846507,57.7443585 35.847612,57.8319345 36.0245133,57.8319345 C36.1174467,57.8319345 36.2091773,57.8072252 36.289592,57.7605945 L37.5253867,57.0437504 C37.65112,56.9708797 37.74214,56.8479344 37.77494,56.7064024 C37.8075213,56.566565 37.7807347,56.4181997 37.701468,56.2995183 C37.152232,55.4771129 36.4168013,54.8047128 35.5159493,54.3009047 C34.5012813,53.733902 33.380396,53.4463553 32.1843987,53.4463553 C30.1971013,53.4463553 28.5247933,54.1139993 27.21416,55.4307555 C25.9039093,56.7473477 25.2395453,58.3975706 25.2395453,60.3356682 C25.2395453,62.2739844 25.9039093,63.9242073 27.21416,65.2404715 C28.5246293,66.5572277 30.1967733,67.2249264 32.1843987,67.2249264 C33.3934067,67.2249264 34.5209067,66.9341544 35.5352467,66.3606463 C36.4357707,65.8515356 37.1658987,65.1762382 37.70524,64.3533407 C37.7846707,64.232418 37.8095987,64.087934 37.775432,63.946402 C37.7414293,63.805198 37.6497533,63.6829633 37.523528,63.6110766" id="Fill-17" fill="#FFFFFF"></path>
                    <path d="M17.6253588,59.2474788 C17.2632468,59.2474788 16.9697415,59.5410389 16.9697415,59.9030963 L16.9697415,60.8468617 C16.9697415,61.2089738 17.2632468,61.5024791 17.6253041,61.5024791 L21.3384281,61.5024791 C20.9132308,64.0176928 18.2736508,64.8659556 17.1255415,64.8659556 C15.7908001,64.8659556 14.6654868,64.4201489 13.7804335,63.5409447 C12.9372548,62.7037793 12.5096521,61.6315472 12.5096521,60.354151 C12.5096521,59.0760988 12.9345761,57.997252 13.7726161,57.1474586 C14.6100001,56.2983211 15.6944775,55.8677664 16.9960908,55.8677664 C17.8004561,55.8677664 18.5373628,56.0501891 19.1863655,56.4100051 C19.7038948,56.6972238 20.1248828,57.0616865 20.4375215,57.4932253 C20.5550548,57.655312 20.7531668,57.7521266 20.9676788,57.7521266 C21.0845561,57.7521266 21.1976068,57.7226613 21.2943668,57.666956 L22.2855281,57.0963452 C22.4463028,57.0036852 22.5611028,56.8464092 22.6005721,56.6649158 C22.6392215,56.4875771 22.6014468,56.3019291 22.4969241,56.1556958 C21.9580201,55.4013503 21.2498135,54.7772209 20.3917655,54.3006915 C19.3715215,53.7337981 18.2289335,53.4463607 16.9960908,53.4463607 C15.0333935,53.4463607 13.3643108,54.1201275 12.0353095,55.4490197 C10.7064721,56.7779118 10.0327055,58.4220667 10.0327055,60.335619 C10.0327055,62.2618539 10.7066361,63.9090701 12.0356921,65.2318396 C13.3644748,66.5543358 15.0707855,67.2249319 17.1070641,67.2249319 C18.8029881,67.2249319 20.7692388,66.3981531 21.9997308,65.1676063 C23.0796708,64.0876661 23.5552708,62.5477606 23.6880015,61.6873072 L23.6935775,61.6879085 L23.7152801,61.4827445 C23.7412468,61.2517778 23.7616375,60.639839 23.7750855,60.1144923 C23.7872761,59.6391656 23.4053748,59.2474788 22.9298841,59.2474788 L17.6253588,59.2474788 Z" id="Fill-19" fill="#FFFFFF"></path>
                </g>
            </g>
        </g>
    </g>
</svg>