<?xml version="1.0" encoding="UTF-8"?>
<svg width="120px" height="90px" viewBox="0 0 120 90" version="1.1" xmlns="http://www.w3.org/2000/svg" xmlns:xlink="http://www.w3.org/1999/xlink">
    <title>ginkopay</title>
    <defs>
        <linearGradient x1="-0.00747528679%" y1="50.0621935%" x2="99.9822618%" y2="50.0621935%" id="linearGradient-1">
            <stop stop-color="#27B2C0" offset="0%"></stop>
            <stop stop-color="#18A0C6" offset="100%"></stop>
        </linearGradient>
    </defs>
    <g id="LOGO-+-SDK-+-payment-icon" stroke="none" stroke-width="1" fill="none" fill-rule="evenodd">
        <g id="payment" transform="translate(-1618.000000, -555.000000)">
            <g id="ginkopay" transform="translate(1618.000000, 555.000000)">
                <g id="payment-4:3bg" transform="translate(-20.000000, -15.000000)"></g>
                <g id="銀行Pay" transform="translate(5.000000, 22.000000)" fill-rule="nonzero">
                    <g id="编组-7">
                        <path d="M38.2429771,11.2913828 C38.124144,11.179595 37.938836,11.179595 37.8200029,11.2913828 L31.3153448,17.7960408 C31.2035571,17.914874 31.2035571,18.1001819 31.3153448,18.2190151 L33.3273304,20.2195689 C33.3811977,20.2754564 33.4554802,20.3070291 33.5331017,20.3070291 C33.6107231,20.3070291 33.6850057,20.2754564 33.7388729,20.2195689 L34.733434,19.2250079 L34.733434,28.0274449 C34.733434,28.1915979 34.8665062,28.3246701 35.0306592,28.3246701 L37.945752,28.3246701 C38.1099049,28.3246701 38.2429771,28.1915979 38.2429771,28.0274449 L38.2429771,15.74976 L40.243531,13.7492061 C40.3553187,13.630373 40.3553187,13.445065 40.243531,13.3262319 L38.2429771,11.2913828 Z M33.9217807,12.0458774 C34.0406139,12.1576651 34.2259218,12.1576651 34.344755,12.0458774 L39.9234424,6.46718998 C40.0352301,6.34835683 40.0352301,6.16304889 39.9234424,6.04421574 L37.728549,3.84932234 C37.6097158,3.73753459 37.4244079,3.73753459 37.3055747,3.84932234 L31.7268873,9.42800973 C31.6150996,9.54684288 31.6150996,9.73215082 31.7268873,9.85098398 L33.9217807,12.0458774 Z M54.7961315,11.4742905 L42.587037,11.4742905 C42.5061867,11.4742905 42.4288009,11.5071098 42.3727198,11.5653479 C42.3166386,11.623586 42.2867022,11.702157 42.2898118,11.7829474 L42.2898118,14.663745 C42.2867022,14.7445355 42.3166386,14.8231065 42.3727198,14.8813446 C42.4288009,14.9395827 42.5061867,14.9724617 42.587037,14.9724019 L48.0971339,14.9724019 L48.0971339,24.8951492 L46.8053477,24.8951492 C46.6411948,24.8951492 46.5081226,25.0282214 46.5081226,25.1923743 L46.5081226,27.9931497 C46.5081226,28.1573027 46.6411948,28.2903749 46.8053477,28.2903749 L51.3094519,28.2903749 C51.4736048,28.2903749 51.606677,28.1573027 51.606677,27.9931497 L51.606677,14.9724019 L54.7618363,14.9724019 C54.9278225,14.9662501 55.0590615,14.8298451 55.0590615,14.663745 L55.0590615,11.7829474 C55.0590615,11.6168473 54.9278225,11.4804424 54.7618363,11.4742905 L54.7961315,11.4742905 Z M54.7961315,4.84388341 L43.2500777,4.84388341 C43.0859248,4.84388341 42.9528525,4.97695564 42.9528525,5.14110856 L42.9528525,8.03333788 C42.9528525,8.1974908 43.0859248,8.33056303 43.2500777,8.33056303 L54.7961315,8.33056303 C54.9602844,8.33056303 55.0933633,8.1974908 55.0933633,8.03333788 L55.0933633,5.14110856 C55.0939256,5.05596119 55.0579488,4.97465879 54.9945493,4.91781782 C54.9311498,4.86097685 54.8464166,4.83405659 54.7618363,4.84388341 L54.7961315,4.84388341 Z" id="形状" fill="#27B2C0"></path>
                        <path d="M8.88627788,20.825451 C8.72212496,20.825451 8.58905273,20.9585232 8.58905273,21.1226761 L8.58905273,23.4661821 C8.58905273,23.630335 8.72212496,23.7634072 8.88627788,23.7634072 L11.1726252,23.7634072 C11.3367781,23.7634072 11.4698503,23.630335 11.4698503,23.4661821 L11.4698503,21.1226761 C11.4698503,20.9585232 11.3367781,20.825451 11.1726252,20.825451 L8.88627788,20.825451 Z M8.18894196,6.06707921 L8.18894196,6.06707921 L6.37129586,4.24943311 C6.31107115,4.18855123 6.22825963,4.15542662 6.14266113,4.15784188 C6.06075127,4.15723161 5.98216392,4.19032102 5.92545814,4.24943311 L4.10781204,6.06707921 L4.10781204,6.06707921 L0.0838408074,10.0910504 C-0.0279469358,10.2098836 -0.0279469358,10.3951915 0.0838408074,10.5140247 L1.91291864,12.3316708 C1.96708349,12.3912628 2.04387604,12.4252376 2.12440577,12.4252376 C2.20493549,12.4252376 2.28172804,12.3912628 2.33589289,12.3316708 L2.33589289,12.3316708 L2.33589289,14.2407708 C2.33589289,14.3195998 2.36720759,14.3952002 2.42294812,14.4509407 C2.47868865,14.5066812 2.55428903,14.5379959 2.63311804,14.5379959 L4.55364976,14.5379959 L4.55364976,16.3442103 L2.48450546,16.3442103 C2.32035255,16.3442103 2.18728032,16.4772825 2.18728032,16.6414354 L2.18728032,19.1792809 C2.18728032,19.2581099 2.21859502,19.3337103 2.27433555,19.3894508 C2.33007607,19.4451914 2.40567645,19.4765061 2.48450546,19.4765061 L4.55364976,19.4765061 L4.55364976,25.1923743 L0.826903677,25.1923743 C0.746113222,25.1892647 0.667542197,25.2192011 0.609304106,25.2752822 C0.551066016,25.3313634 0.518186969,25.4087492 0.518246793,25.4895995 L0.518246793,28.0617402 C0.518186969,28.1425904 0.551066016,28.2199762 0.609304106,28.2760574 C0.667542197,28.3321385 0.746113222,28.362075 0.826903677,28.3591855 L11.5041455,28.3591855 C11.584936,28.362075 11.663507,28.3321385 11.7217451,28.2760574 C11.7799832,28.2199762 11.8128622,28.1425904 11.8128024,28.0617402 L11.8128024,25.4895995 C11.8128622,25.4087492 11.7799832,25.3313634 11.7217451,25.2752822 C11.663507,25.2192011 11.584936,25.1892647 11.5041455,25.1923743 L7.77739944,25.1923743 L7.77739944,19.4765061 L9.84654374,19.4765061 C10.0106967,19.4765061 10.1437689,19.3434338 10.1437689,19.1792809 L10.1437689,16.5957085 C10.1437689,16.4315556 10.0106967,16.2984833 9.84654374,16.2984833 L7.77739944,16.2984833 L7.77739944,14.492269 L9.66363596,14.492269 C9.82973607,14.4923829 9.96614103,14.36103 9.97229284,14.1950438 L9.97229284,12.3202391 C10.0819098,12.4219007 10.2513549,12.4219007 10.3609719,12.3202391 L12.1900497,10.502593 C12.3018375,10.3837598 12.3018375,10.1984519 12.1900497,10.0796187 L8.18894196,6.06707921 Z M3.29615875,11.325678 L6.11979766,8.49060734 L8.9548683,11.325678 L3.29615875,11.325678 Z M3.42190785,23.7634072 C3.58606077,23.7634072 3.719133,23.630335 3.719133,23.4661821 L3.719133,21.1226761 C3.719133,20.9585232 3.58606077,20.825451 3.42190785,20.825451 L1.13556056,20.825451 C0.971407645,20.825451 0.838335414,20.9585232 0.838335414,21.1226761 L0.838335414,23.4661821 C0.838335414,23.630335 0.971407645,23.7634072 1.13556056,23.7634072 L3.42190785,23.7634072 Z M17.4029215,25.1580791 L15.9853862,25.1580791 L15.9853862,16.5499815 L23.2902658,16.5499815 C23.4544187,16.5499815 23.587491,16.4169093 23.587491,16.2527564 L23.587491,5.30115287 C23.587491,5.13699995 23.4544187,5.00392772 23.2902658,5.00392772 L13.0931569,5.00392772 C12.929004,5.00392772 12.7959317,5.13699995 12.7959317,5.30115287 L12.7959317,28.0274449 C12.7959317,28.1915979 12.929004,28.3246701 13.0931569,28.3246701 L17.4372168,28.3246701 C17.6013697,28.3246701 17.7344419,28.1915979 17.7344419,28.0274449 L17.7344419,25.4553042 C17.7350108,25.3701569 17.6990341,25.2888545 17.6356346,25.2320135 C17.572235,25.1751725 17.4875019,25.1482523 17.4029215,25.1580791 L17.4029215,25.1580791 Z M15.9853862,8.17051872 L20.3637413,8.17051872 L20.3637413,9.31369236 L15.9853862,9.31369236 L15.9853862,8.17051872 Z M15.9853862,12.2516486 L20.3637413,12.2516486 L20.3637413,13.3948223 L15.9853862,13.3948223 L15.9853862,12.2516486 Z M25.7023622,26.1069132 L21.4497562,21.8543073 L23.5760592,19.7280043 C23.687847,19.6091711 23.687847,19.4238632 23.5760592,19.30503 L21.5755053,17.3044761 C21.4566722,17.1926884 21.2713643,17.1926884 21.1525311,17.3044761 L16.9227886,21.5342186 C16.8631966,21.5883835 16.8292218,21.665176 16.8292218,21.7457058 C16.8292218,21.8262355 16.8631966,21.903028 16.9227886,21.9571929 L18.9233425,23.9577468 L18.9233425,23.9577468 L23.3588562,28.3932605 C23.4776894,28.5050483 23.6629973,28.5050483 23.7818305,28.3932605 L25.668067,26.507024 C25.766214,26.3917103 25.766214,26.2222269 25.668067,26.1069132 L25.7023622,26.1069132 Z" id="形状" fill="#27B2C0"></path>
                        <path d="M93.1153121,9.78239356 C92.3951127,9.96530134 92.1779097,9.5766223 92.600884,9.26796542 L96.5219696,6.11280615 C96.5809808,6.06249057 96.6599043,6.04221268 96.735861,6.05785083 C96.8118177,6.07348899 96.8763124,6.12329413 96.9106486,6.19282831 L97.9852318,8.04476962 C98.0240089,8.10663906 98.0309029,8.18330849 98.003785,8.25110311 C97.9766672,8.31889772 97.9187995,8.36966248 97.848051,8.38772171 L93.1153121,9.78239356 Z" id="路径" fill="#27B2C0"></path>
                        <path d="M90.9661457,8.34199476 C90.5088762,9.00503548 90.0287433,8.75353728 90.1887876,7.8504301 L91.2519391,0.511255289 C91.2519391,0.0654175674 91.5720277,-0.10605848 91.903548,0.0654175674 L94.4985522,1.54011157 C94.5673411,1.58052465 94.616995,1.64689568 94.6363449,1.72429535 C94.6556948,1.80169502 94.643116,1.88362424 94.6014378,1.95165408 L90.9661457,8.34199476 Z" id="路径" fill="#27B2C0"></path>
                        <path d="M69.5430715,7.08450375 L65.0846943,7.08450375 C65.0058653,7.08450375 64.9302649,7.11581846 64.8745244,7.17155898 C64.8187839,7.22729951 64.7874692,7.30289989 64.7874692,7.3817289 L64.7874692,28.0274449 C64.7842085,28.1072289 64.8144749,28.1847386 64.8709377,28.2412015 C64.9274006,28.2976644 65.0049103,28.3279307 65.0846943,28.3246701 L68.6399644,28.3246701 C68.8041173,28.3246701 68.9371895,28.1915979 68.9371895,28.0274449 L68.9371895,22.9974809 L69.5430715,22.9974809 C73.6085495,22.5609901 76.6910372,19.1298352 76.6910372,15.0409923 C76.6910372,10.9521495 73.6085495,7.52099454 69.5430715,7.08450375 L69.5430715,7.08450375 Z M69.5430715,19.0192366 L68.9371895,19.0192366 L68.9371895,11.0170211 L69.5430715,11.0170211 C71.7528223,11.0170211 73.5441793,12.8083781 73.5441793,15.0181289 C73.5441793,17.2278797 71.7528223,19.0192366 69.5430715,19.0192366 Z M94.6928917,24.9980348 C93.9754972,24.8515988 93.4597421,24.2212315 93.4582642,23.4890456 L93.4582642,23.3175695 L93.4582642,23.3175695 C93.4582642,23.0660713 93.4582642,22.8260049 93.4582642,22.5630749 L93.4582642,22.5630749 L93.4582642,17.4759522 C93.4582638,13.9782327 90.6228017,11.142771 87.1250822,11.142771 C83.6273627,11.142771 80.7919002,13.9782327 80.7919002,17.4759522 L80.7919002,17.4759522 L80.7919002,22.6088019 L80.7919002,22.6088019 C80.8607162,26.0426936 83.6908799,28.7757939 87.1250822,28.7247809 C88.5121877,28.7264568 89.8629831,28.281536 90.9775774,27.4558581 C91.9009621,28.1494374 93.0236153,28.5263281 94.1784636,28.5304413 C94.6700283,28.5304413 94.9901169,28.3932605 94.9901169,28.1646258 L94.9901169,25.3524186 C95.0213242,25.2586137 94.9996527,25.1552733 94.9333884,25.0819092 C94.867124,25.0085451 94.7665148,24.9765033 94.6700283,24.9980348 L94.6928917,24.9980348 Z M89.2856804,22.6088019 C89.2856804,23.8146944 88.3081113,24.7922635 87.1022187,24.7922635 C85.8963262,24.7922635 84.9187571,23.8146944 84.9187571,22.6088019 L84.9187571,17.5216791 L84.9187571,17.5216791 C84.9187571,16.3157866 85.8963262,15.3382175 87.1022187,15.3382175 C88.3081113,15.3382175 89.2856804,16.3157866 89.2856804,17.5216791 L89.2856804,22.6088019 Z M109.668467,11.6914935 L106.124628,11.6914935 C105.958528,11.6913796 105.822123,11.8227325 105.815971,11.9887187 L105.815971,19.8308899 C105.624348,20.9247407 104.674428,21.7227181 103.563919,21.7227181 C102.453411,21.7227181 101.50349,20.9247407 101.311867,19.8308899 L101.311867,11.9887187 C101.311867,11.9098897 101.280552,11.8342893 101.224812,11.7785488 C101.169071,11.7228082 101.093471,11.6914935 101.014642,11.6914935 L97.459372,11.6914935 C97.295219,11.6914935 97.1621468,11.8245658 97.1621468,11.9887187 L97.1621468,19.8308899 L97.1621468,19.8308899 C97.2064104,21.8866528 98.2371981,23.7955246 99.9318899,24.9600588 C101.626582,26.124593 103.778112,26.4025012 105.713086,25.7068024 C105.326563,27.5218047 103.837847,28.8960037 101.997771,29.1363234 C101.620524,29.1363234 101.563365,29.2963677 101.563365,29.5592976 L101.563365,32.9888186 C101.563365,33.2860437 101.700546,33.3203389 101.997771,33.3203389 C106.496767,33.0423927 110.002522,29.3112681 109.999994,24.8036953 L109.999994,11.93156 C110.000556,11.8464126 109.964579,11.7651102 109.90118,11.7082693 C109.83778,11.6514283 109.753047,11.624508 109.668467,11.6343349 L109.668467,11.6914935 Z" id="形状" fill="#18A0C6"></path>
                        <path d="M23.0044724,39.6306575 C20.8781694,38.2016904 19.6435419,37.0813802 20.7181251,35.2637341 C21.7927083,33.446088 23.587491,34.3491952 24.627779,35.1494168 C25.668067,35.9496383 32.5271089,41.1282149 46.2451926,41.8141191 C59.9632764,42.5000233 70.5033374,41.0138976 77.3395158,38.3160078 C80.0638543,37.3403051 82.6090386,35.9228808 84.8730301,34.1205605 C85.616093,33.5375419 86.0162038,32.9773868 86.656381,33.4803832 C87.2965583,33.9833796 86.4163145,35.3780515 83.1468379,37.5043545 C79.8773613,39.6306575 72.515323,43.0830419 61.9409668,44.637758 C51.3666106,46.1924742 39.2375382,45.2093448 34.2304376,43.9404221 C29.223337,42.6714993 25.4737275,41.471167 23.0044724,39.6306575 Z" id="路径" fill="url(#linearGradient-1)"></path>
                    </g>
                </g>
            </g>
        </g>
    </g>
</svg>