<?xml version="1.0" encoding="UTF-8"?>
<svg width="120px" height="90px" viewBox="0 0 120 90" version="1.1" xmlns="http://www.w3.org/2000/svg" xmlns:xlink="http://www.w3.org/1999/xlink">
    <title>googlepay</title>
    <g id="LOGO-+-SDK-+-payment-icon" stroke="none" stroke-width="1" fill="none" fill-rule="evenodd">
        <g id="payment" transform="translate(-568.000000, -1355.000000)">
            <g id="googlepay" transform="translate(568.000000, 1355.000000)">
                <g id="payment-4:3bg" transform="translate(-20.000000, -15.000000)"></g>
                <g id="google-pay-mark_800" transform="translate(6.000000, 16.000000)" fill-rule="nonzero">
                    <path d="M79.2765957,0 L28.7234043,0 C12.9255319,0 0,13.05 0,29 L0,29 C0,44.95 12.9255319,58 28.7234043,58 L79.2765957,58 C95.0744681,58 108,44.95 108,29 L108,29 C108,13.05 95.0744681,0 79.2765957,0 Z" id="Base_1_" fill="#FFFFFF"></path>
                    <path d="M79.2765957,2.349 C82.8239362,2.349 86.2707447,3.0595 89.5164894,4.4515 C92.6617021,5.8 95.4765957,7.7285 97.9180851,10.179 C100.345213,12.6295 102.255319,15.486 103.590957,18.6615 C104.969681,21.9385 105.673404,25.4185 105.673404,29 C105.673404,32.5815 104.969681,36.0615 103.590957,39.3385 C102.255319,42.514 100.345213,45.356 97.9180851,47.821 C95.4909574,50.2715 92.6617021,52.2 89.5164894,53.5485 C86.2707447,54.9405 82.8239362,55.651 79.2765957,55.651 L28.7234043,55.651 C25.1760638,55.651 21.7292553,54.9405 18.4835106,53.5485 C15.3382979,52.2 12.5234043,50.2715 10.0819149,47.821 C7.65478723,45.3705 5.74468085,42.514 4.40904255,39.3385 C3.03031915,36.0615 2.32659574,32.5815 2.32659574,29 C2.32659574,25.4185 3.03031915,21.9385 4.40904255,18.6615 C5.74468085,15.486 7.65478723,12.644 10.0819149,10.179 C12.5090426,7.7285 15.3382979,5.8 18.4835106,4.4515 C21.7292553,3.0595 25.1760638,2.349 28.7234043,2.349 L79.2765957,2.349 M79.2765957,0 L28.7234043,0 C12.9255319,0 0,13.05 0,29 L0,29 C0,44.95 12.9255319,58 28.7234043,58 L79.2765957,58 C95.0744681,58 108,44.95 108,29 L108,29 C108,13.05 95.0744681,0 79.2765957,0 L79.2765957,0 Z" id="Outline" fill="#3C4043"></path>
                    <g id="G_Pay_Lockup_1_" transform="translate(16.444149, 16.588000)">
                        <g id="Pay_Typeface_3_" transform="translate(32.299468, 1.580500)" fill="#3C4043">
                            <path d="M2.75744681,12.8905 L2.75744681,21.663 L0,21.663 L0,0 L7.31010638,0 C9.16276596,0 10.7425532,0.6235 12.0351064,1.8705 C13.356383,3.1175 14.0170213,4.64 14.0170213,6.438 C14.0170213,8.2795 13.356383,9.802 12.0351064,11.0345 C10.7569149,12.267 9.17712766,12.876 7.31010638,12.876 L2.75744681,12.876 L2.75744681,12.8905 Z M2.75744681,2.668 L2.75744681,10.2225 L7.36755319,10.2225 C8.45904255,10.2225 9.37819149,9.8455 10.0962766,9.106 C10.8287234,8.3665 11.2021277,7.4675 11.2021277,6.4525 C11.2021277,5.452 10.8287234,4.5675 10.0962766,3.828 C9.37819149,3.0595 8.47340426,2.6825 7.36755319,2.6825 L2.75744681,2.6825 L2.75744681,2.668 Z" id="Letter_p_3_"></path>
                            <path d="M21.2265957,6.351 C23.2659574,6.351 24.8744681,6.902 26.0521277,8.004 C27.2297872,9.106 27.818617,10.614 27.818617,12.528 L27.818617,21.663 L25.1904255,21.663 L25.1904255,19.604 L25.0755319,19.604 C23.9409574,21.3005 22.418617,22.1415 20.5228723,22.1415 C18.9,22.1415 17.55,21.663 16.4585106,20.6915 C15.3670213,19.72 14.8212766,18.5165 14.8212766,17.0665 C14.8212766,15.5295 15.3957447,14.3115 16.5446809,13.4125 C17.693617,12.499 19.2303191,12.0495 21.1404255,12.0495 C22.7776596,12.0495 24.1276596,12.354 25.1760638,12.963 L25.1760638,12.325 C25.1760638,11.3535 24.8026596,10.5415 24.0414894,9.86 C23.2803191,9.1785 22.3898936,8.845 21.3702128,8.845 C19.8335106,8.845 18.612766,9.4975 17.7223404,10.817 L15.2952128,9.28 C16.6308511,7.3225 18.612766,6.351 21.2265957,6.351 Z M17.6648936,17.11 C17.6648936,17.835 17.9664894,18.444 18.5840426,18.9225 C19.187234,19.401 19.9053191,19.6475 20.7239362,19.6475 C21.887234,19.6475 22.9212766,19.2125 23.8260638,18.3425 C24.7308511,17.4725 25.1904255,16.4575 25.1904255,15.283 C24.3287234,14.6015 23.1367021,14.2535 21.6,14.2535 C20.4797872,14.2535 19.5462766,14.529 18.7994681,15.0655 C18.0382979,15.631 17.6648936,16.3125 17.6648936,17.11 Z" id="Letter_a_3_"></path>
                            <polygon id="Letter_y_3_" points="42.812234 6.8295 33.6207447 28.1735 30.7771277 28.1735 34.1952128 20.706 28.1345745 6.8295 31.1361702 6.8295 35.5021277 17.4725 35.5595745 17.4725 39.8106383 6.8295"></polygon>
                        </g>
                        <g id="G_Mark_1_">
                            <path d="M24.088883,12.702 C24.088883,11.7943 24.0084574,10.92575 23.8590957,10.09055 L12.3007979,10.09055 L12.3007979,14.87555 L18.9574468,14.877 C18.6874468,16.4691 17.8185638,17.8263 16.487234,18.7311 L16.487234,21.83555 L20.4496277,21.83555 C22.7632979,19.6736 24.088883,16.4778 24.088883,12.702 Z" id="Blue_500" fill="#4285F4"></path>
                            <path d="M16.4886702,18.7311 C15.3856915,19.4822 13.9653191,19.92155 12.3036702,19.92155 C9.09382979,19.92155 6.37085106,17.73785 5.39569149,14.79435 L1.30835106,14.79435 L1.30835106,17.99595 C3.33335106,22.05305 7.49537234,24.83705 12.3036702,24.83705 C15.6269681,24.83705 18.418883,23.7336 20.4510638,21.8341 L16.4886702,18.7311 Z" id="Green_500_1_" fill="#34A853"></path>
                            <path d="M5.01079787,12.41925 C5.01079787,11.59275 5.14723404,10.7938 5.39569149,10.0427 L5.39569149,6.8411 L1.30835106,6.8411 C0.47106383,8.51875 0,10.41245 0,12.41925 C0,14.42605 0.4725,16.31975 1.30835106,17.9974 L5.39569149,14.7958 C5.14723404,14.0447 5.01079787,13.24575 5.01079787,12.41925 Z" id="Yellow_500_1_" fill="#FABB05"></path>
                            <path d="M12.3036702,4.9155 C14.1175532,4.9155 15.7418617,5.54625 17.0243617,6.77875 L20.5357979,3.2364 C18.4030851,1.23105 15.6226596,0 12.3036702,0 C7.49680851,0 3.33335106,2.784 1.30835106,6.8411 L5.39569149,10.0427 C6.37085106,7.0992 9.09382979,4.9155 12.3036702,4.9155 Z" id="Red_500" fill="#E94235"></path>
                        </g>
                    </g>
                </g>
            </g>
        </g>
    </g>
</svg>