<?xml version="1.0" encoding="UTF-8"?>
<svg width="152px" height="56px" viewBox="0 0 152 56" version="1.1" xmlns="http://www.w3.org/2000/svg" xmlns:xlink="http://www.w3.org/1999/xlink">
    <title>jcoinpay_horizon</title>
    <defs>
        <polygon id="path-1" points="0 0 47.251429 0 47.251429 46.9960173 0 46.9960173"></polygon>
        <polygon id="path-3" points="0 47 145 47 145 0 0 0"></polygon>
    </defs>
    <g id="LOGO-+-SDK-+-payment-icon" stroke="none" stroke-width="1" fill="none" fill-rule="evenodd">
        <g id="payment_horizon" transform="translate(-1252.000000, -772.000000)">
            <g id="jcoinpay_horizon" transform="translate(1252.000000, 772.000000)">
                <g id="payment-4:3bg" transform="translate(-25.333333, -9.333333)"></g>
                <g id="编组" transform="translate(4.000000, 4.000000)">
                    <g transform="translate(0.000000, 0.002788)">
                        <mask id="mask-2" fill="white">
                            <use xlink:href="#path-1"></use>
                        </mask>
                        <g id="Clip-2"></g>
                        <path d="M47.251429,23.4980086 C47.251429,36.4776714 36.6726314,46.9960173 23.6273162,46.9960173 C10.5779969,46.9960173 -0.000800817386,36.4776714 -0.000800817386,23.4980086 C-0.000800817386,10.5183459 10.5779969,0 23.6273162,0 C36.6726314,0 47.251429,10.5183459 47.251429,23.4980086" id="Fill-1" fill="#EA6D8D" mask="url(#mask-2)"></path>
                    </g>
                    <path d="M22.8272996,10.0806457 L22.8272996,23.9723498 C22.8272996,27.8515126 20.0404551,31.0934412 16.352691,31.8262605 L18.6590451,37.3184222 C19.4078094,37.1033556 20.1365532,36.8245657 20.8292602,36.4940005 C21.4378814,36.1992797 22.0264822,35.8647318 22.5830503,35.4903567 C22.9554304,35.2394458 23.3117941,34.972604 23.6561456,34.6898314 C24.3448485,34.1242861 24.9814984,33.4950174 25.5500787,32.806008 C25.8343689,32.4634946 26.1026427,32.1090331 26.3549002,31.7386408 C26.7312843,31.1850436 27.0676276,30.5995848 27.3639301,29.9942124 C28.2448292,28.1741124 28.7373319,26.1309804 28.7373319,23.9723498 L28.7373319,10.0806457 L22.8272996,10.0806457 Z" id="Fill-3" fill="#FFFFFF"></path>
                    <mask id="mask-4" fill="white">
                        <use xlink:href="#path-3"></use>
                    </mask>
                    <g id="Clip-6"></g>
                    <polygon id="Fill-5" fill="#EA6D8D" mask="url(#mask-4)" points="118.793251 34.6695195 124.795377 34.6695195 124.795377 17.9062791 118.793251 17.9062791"></polygon>
                    <path d="M124.960346,12.9382425 C124.960346,14.6786882 123.542899,16.0885688 121.793113,16.0885688 C120.043327,16.0885688 118.62588,14.6786882 118.62588,12.9382425 C118.62588,11.1977968 120.043327,9.78791628 121.793113,9.78791628 C123.542899,9.78791628 124.960346,11.1977968 124.960346,12.9382425" id="Fill-7" fill="#EA6D8D" mask="url(#mask-4)"></path>
                    <path d="M145.002002,34.668723 L138.999876,34.668723 L138.999876,25.3690874 C138.999876,24.4212016 138.227087,23.6485552 137.274114,23.6485552 C136.321142,23.6485552 135.548353,24.4212016 135.548353,25.3690874 L135.548353,34.668723 L129.546226,34.668723 L129.546226,25.3690874 C129.546226,21.1314804 133.013766,17.6824506 137.274114,17.6824506 C141.534463,17.6824506 145.002002,21.1314804 145.002002,25.3690874 L145.002002,34.668723 Z" id="Fill-8" fill="#EA6D8D" mask="url(#mask-4)"></path>
                    <path d="M105.836827,23.4844674 C104.291249,23.4844674 103.029962,24.7350394 103.029962,26.2763495 C103.029962,27.8136768 104.291249,29.0642488 105.836827,29.0642488 C107.382404,29.0642488 108.643691,27.8136768 108.643691,26.2763495 C108.643691,24.7350394 107.382404,23.4844674 105.836827,23.4844674 M105.836827,34.7037709 C101.164057,34.7037709 97.3641786,30.9201932 97.3641786,26.2763495 C97.3641786,21.628523 101.164057,17.8489281 105.836827,17.8489281 C110.509596,17.8489281 114.309474,21.628523 114.309474,26.2763495 C114.309474,30.9201932 110.509596,34.7037709 105.836827,34.7037709" id="Fill-9" fill="#EA6D8D" mask="url(#mask-4)"></path>
                    <path d="M67.9013062,10.0806457 L67.9013062,23.9723498 C67.9013062,27.8515126 65.1144617,31.0934412 61.4266976,31.8262605 L63.7330517,37.3184222 C64.4818159,37.1033556 65.2105597,36.8245657 65.9032668,36.4940005 C66.511888,36.1992797 67.1004888,35.8647318 67.6570569,35.4903567 C68.0294369,35.2394458 68.3858007,34.972604 68.7301522,34.6898314 C69.4188551,34.1242861 70.0555049,33.4950174 70.6240853,32.806008 C70.9083754,32.4634946 71.1766493,32.1090331 71.4289067,31.7386408 C71.8052909,31.1850436 72.1416342,30.5995848 72.4379367,29.9942124 C73.3188358,28.1741124 73.8113385,26.1309804 73.8113385,23.9723498 L73.8113385,10.0806457 L67.9013062,10.0806457 Z" id="Fill-10" fill="#EA6D8D" mask="url(#mask-4)"></path>
                    <path d="M87.0380388,29.0654436 C85.4924613,29.0654436 84.2311739,27.8148716 84.2311739,26.2735616 C84.2311739,24.7362342 85.4924613,23.4856622 87.0380388,23.4856622 C88.0750973,23.4856622 88.980021,24.0472248 89.4645155,24.8796119 L94.3735261,22.0638336 C92.9040262,19.5467587 90.1692348,17.8461402 87.0380388,17.8461402 C82.3652694,17.8461402 78.5653909,21.6297178 78.5653909,26.2735616 C78.5653909,30.921388 82.3652694,34.700983 87.0380388,34.700983 C90.1692348,34.700983 92.9040262,33.0043471 94.3735261,30.4872723 L89.4645155,27.6675112 C88.980021,28.503881 88.0750973,29.0654436 87.0380388,29.0654436" id="Fill-11" fill="#EA6D8D" mask="url(#mask-4)"></path>
                </g>
            </g>
        </g>
    </g>
</svg>