<?xml version="1.0" encoding="UTF-8"?>
<svg width="120px" height="90px" viewBox="0 0 120 90" version="1.1" xmlns="http://www.w3.org/2000/svg" xmlns:xlink="http://www.w3.org/1999/xlink">
    <title>jcoinpay</title>
    <g id="LOGO-+-SDK-+-payment-icon" stroke="none" stroke-width="1" fill="none" fill-rule="evenodd">
        <g id="payment" transform="translate(-1268.000000, -755.000000)">
            <g id="jcoinpay" transform="translate(1268.000000, 755.000000)">
                <g id="payment-4:3bg" transform="translate(-20.000000, -15.000000)"></g>
                <g id="Jcoin" transform="translate(29.000000, 2.000000)">
                    <path d="M62.6571429,31.2833219 C62.6571429,48.5605303 48.6307703,62.5666438 31.3285714,62.5666438 C14.0263725,62.5666438 0,48.5605303 0,31.2833219 C0,14.0061135 14.0263725,0 31.3285714,0 C48.6307703,0 62.6571429,14.0061135 62.6571429,31.2833219" id="Fill-12" fill="#EA6D8D"></path>
                    <path d="M30.2698296,13.4184641 L30.2698296,31.9105246 C30.2698296,37.0745285 26.5744676,41.3914026 21.6859266,42.3665509 L24.7411542,49.6768522 C25.7376066,49.3894726 26.6995767,49.0213089 27.619549,48.5785412 C28.4290009,48.1891882 29.2057387,47.7424476 29.9444574,47.2440581 C30.4373787,46.9116513 30.9130587,46.5562894 31.3701713,46.1797383 C32.2848386,45.4257531 33.1256783,44.5861279 33.8807541,43.6727817 C34.2578499,43.2163293 34.6137258,42.7413363 34.9466134,42.2495684 C35.4457238,41.5114752 35.8931106,40.7358593 36.2834689,39.9271352 C37.4536595,37.5018456 38.1092668,34.7825548 38.1092668,31.9105246 L38.1092668,13.4184641 L30.2698296,13.4184641 Z" id="Fill-13" fill="#FFFFFF"></path>
                    <path d="M8.72740278,68.8229992 L8.72740278,77.5834418 C8.72740278,80.0299206 6.97675871,82.0751275 4.66069197,82.5368772 L6.1080679,86 C6.5802113,85.8640355 7.03599768,85.6896654 7.47189037,85.4799798 C7.85517532,85.2954565 8.22342949,85.0840051 8.57355831,84.8478329 C8.80653543,84.6902377 9.03199717,84.5220478 9.24861727,84.3432632 C9.68185747,83.9861356 10.0801732,83.5883952 10.4378174,83.1557807 C10.6168606,82.9394735 10.7852937,82.7143374 10.9431169,82.4812553 C11.1796307,82.1320737 11.3913879,81.7643514 11.5761781,81.3811786 C12.1305488,80.2325431 12.4413323,78.9439701 12.4413323,77.5834418 L12.4413323,68.8229992 L8.72740278,68.8229992 Z" id="Fill-14" fill="#EA6D8D"></path>
                    <path d="M56.9936324,84.3296226 L53.2240006,84.3296226 L53.2240006,78.4641653 C53.2240006,77.8668925 52.7368264,77.3808634 52.1386897,77.3808634 C51.5401109,77.3808634 51.0533788,77.8668925 51.0533788,78.4641653 L51.0533788,84.3296226 L47.283747,84.3296226 L47.283747,78.4641653 C47.283747,75.7912261 49.4614421,73.6162348 52.1386897,73.6162348 C54.8154952,73.6162348 56.9936324,75.7912261 56.9936324,78.4641653 L56.9936324,84.3296226 Z" id="Fill-15" fill="#EA6D8D"></path>
                    <polygon id="Fill-16" fill="#EA6D8D" points="40.5287365 84.3295785 44.2983683 84.3295785 44.2983683 73.7574526 40.5287365 73.7574526"></polygon>
                    <path d="M44.4034954,70.6249267 C44.4034954,71.7223547 43.5127005,72.611863 42.4136851,72.611863 C41.3151117,72.611863 40.4243168,71.7223547 40.4243168,70.6249267 C40.4243168,69.5274986 41.3151117,68.6379903 42.4136851,68.6379903 C43.5127005,68.6379903 44.4034954,69.5274986 44.4034954,70.6249267" id="Fill-17" fill="#EA6D8D"></path>
                    <path d="M32.3898773,77.2761531 C31.4181814,77.2761531 30.6277391,78.0658952 30.6277391,79.0361876 C30.6277391,80.00648 31.4181814,80.7957806 32.3898773,80.7957806 C33.3615732,80.7957806 34.1524576,80.00648 34.1524576,79.0361876 C34.1524576,78.0658952 33.3615732,77.2761531 32.3898773,77.2761531 M32.3898773,84.3511651 C29.454896,84.3511651 27.067212,81.9664883 27.067212,79.0361876 C27.067212,76.1054454 29.454896,73.7207686 32.3898773,73.7207686 C35.3248586,73.7207686 37.7125426,76.1054454 37.7125426,79.0361876 C37.7125426,81.9664883 35.3248586,84.3511651 32.3898773,84.3511651" id="Fill-18" fill="#EA6D8D"></path>
                    <path d="M20.580501,80.7756508 C19.6088051,80.7756508 18.8183628,79.9863502 18.8183628,79.0160578 C18.8183628,78.0457654 19.6088051,77.2560233 20.580501,77.2560233 C21.2316875,77.2560233 21.7997627,77.6113851 22.1047992,78.1371441 L25.1878779,76.3594519 C24.2661373,74.7720217 22.546881,73.7006388 20.580501,73.7006388 C17.6455197,73.7006388 15.2578357,76.0853156 15.2578357,79.0160578 C15.2578357,81.9467999 17.6455197,84.3310353 20.580501,84.3310353 C22.546881,84.3310353 24.2665793,83.2600938 25.1878779,81.6722222 L22.1047992,79.8949714 C21.7997627,80.4202889 21.2316875,80.7756508 20.580501,80.7756508" id="Fill-19" fill="#EA6D8D"></path>
                </g>
            </g>
        </g>
    </g>
</svg>