<?xml version="1.0" encoding="UTF-8"?>
<svg width="120px" height="90px" viewBox="0 0 120 90" version="1.1" xmlns="http://www.w3.org/2000/svg" xmlns:xlink="http://www.w3.org/1999/xlink">
    <title>jkopay</title>
    <g id="LOGO-+-SDK-+-payment-icon" stroke="none" stroke-width="1" fill="none" fill-rule="evenodd">
        <g id="payment" transform="translate(-1268.000000, -555.000000)">
            <g id="jkopay" transform="translate(1268.000000, 555.000000)">
                <g id="payment-4:3bg" transform="translate(-20.000000, -15.000000)"></g>
                <g id="JKOPAY-icon" transform="translate(19.000000, 4.000000)" fill-rule="nonzero">
                    <path d="M62.9938716,0 L19.0058323,0 C8.52689144,0 0,8.52656449 0,19.00606 L0,62.9939388 C0,73.473139 8.52689144,82 19.0058323,82 L62.9938728,82 C73.4731097,82 82,73.4731391 82,62.9939388 L82,19.00606 C82,8.52656449 73.4731086,0 62.9938716,0 Z" id="XMLID_20_" fill="#C9191D"></path>
                    <path d="M28.4085099,15.4018582 C29.314652,16.4314792 29.1778408,17.2686191 28.6332694,18.5120373 C28.0883997,19.7557543 26.0445527,23.2843557 22.563911,26.3681809 C19.0512877,29.480433 15.847226,31.1863962 14.5084483,31.7522874 C13.1696717,32.3184751 12.3579969,32.1639001 11.4518572,31.1342791 L10.3579738,29.8914527 C9.45213116,28.8618317 9.35144909,27.4691668 10.1335126,26.7812713 C10.1335126,26.7812713 15.4477537,23.3148557 17.7672939,21.2772345 C20.0868341,19.2399085 24.2580365,13.5410223 24.2580365,13.5410223 C25.0401,12.8528326 26.4087827,13.129412 27.3146265,14.1590307 L28.4085099,15.4018582 Z M28.3672889,30.2153798 L27.257121,28.9544891 C26.3376567,27.9097664 24.9426163,27.6367424 24.1377517,28.3444764 C24.1377517,28.3444764 19.8389187,34.1857972 17.4545284,36.2784969 C15.0716169,38.3723825 9.61849315,41.9430349 9.61849315,41.9430349 C8.81392402,42.651063 8.9080918,44.070677 9.82755727,45.1151056 L10.9365412,46.376295 C11.8557107,47.4207142 12.6848586,47.5729268 14.0567996,46.9860066 C14.7828963,46.6753741 16.0671861,46.0085028 17.6324982,44.9990214 L17.6324982,66.5073242 C17.6324982,67.7939781 18.5969738,68.8372208 19.7870958,68.8372208 L21.6725192,68.8372208 C22.8626389,68.8372208 23.8271157,67.7939781 23.8271157,66.5073242 L23.8271157,39.9314699 C26.4564003,37.197961 28.0990014,34.4603014 28.5763535,33.3862669 C29.1410621,32.1147124 29.2855692,31.259806 28.3672889,30.2153798" id="形状" fill="#FFFFFF"></path>
                    <path d="M70.5970621,34.2720286 L49.524578,34.2720286 C49.4795726,34.2720286 49.4422583,34.2939424 49.3984368,34.296606 C49.3546059,34.2939424 49.3184803,34.2720286 49.2746541,34.2720286 L45.0335685,34.2720286 C44.2586089,34.2720286 43.6293451,33.6439517 43.6293451,32.8678128 L43.6293451,29.9240539 C43.6293451,29.149101 44.2586089,28.5198381 45.0335685,28.5198381 L49.2746541,28.5198381 C50.5616067,28.5198381 51.60456,27.4804473 51.60456,26.1973465 L51.60456,24.6489208 C51.60456,23.3658199 50.5616067,22.3252433 49.2746541,22.3252433 L45.0335685,22.3252433 C44.2586089,22.3252433 43.6293451,21.6974628 43.6293451,20.9222122 L43.6293451,15.8857536 C43.6293451,14.5988032 42.5899485,13.5543782 41.3068438,13.5543782 L39.7584093,13.5543782 C38.4753047,13.5543782 37.4347264,14.5988032 37.4347264,15.8857536 L37.4347264,20.9222122 C37.4347264,21.6974628 36.8069426,22.3252433 36.0316894,22.3252433 L31.5975298,22.3252433 C30.3105748,22.3252433 29.2661439,23.36582 29.2661439,24.6489208 L29.2661439,26.1973465 C29.2661439,27.4804473 30.3105748,28.5198381 31.5975298,28.5198381 L36.0316894,28.5198381 C36.8069426,28.5198381 37.4347264,29.149101 37.4347264,29.9240539 L37.4347264,32.8678128 C37.4347264,33.6439516 36.8069426,34.2720286 36.0316894,34.2720286 L31.5975298,34.2720286 C30.3105748,34.2720286 29.2661439,35.3126029 29.2661439,36.5942261 L29.2661439,38.1444284 C29.2661439,39.4260491 30.3105748,40.4666235 31.5975298,40.4666235 L36.0316894,40.4666235 C36.8069426,40.4666235 37.4347264,41.0947004 37.4347264,41.8708393 L37.4347264,44.5232111 C37.4347264,45.2981664 36.8069426,45.927427 36.0316894,45.927427 L31.5975298,45.927427 C30.3105748,45.927427 29.2661439,46.9668201 29.2661439,48.2499209 L29.2661439,49.7983443 C29.2661439,51.0814499 30.3105748,52.1220242 31.5975298,52.1220242 L36.0316894,52.1220242 C36.8069426,52.1220242 37.4347264,52.7498024 37.4347264,53.5250541 L37.4347264,58.6903292 C37.4347264,59.3560099 36.9707011,59.9272307 36.3207082,60.0652263 C32.4355599,60.8863762 28.5453798,61.6586632 28.5453798,61.6586632 C27.2530922,61.9861763 26.4781373,63.3299805 26.8148303,64.660763 L27.2222969,66.2672262 C27.5589899,67.598004 28.3493459,68.0712071 30.1725797,68.0827558 C31.9958158,68.0957868 34.5439623,67.7978842 40.3607282,66.3072041 C46.1256712,64.8307315 49.7271333,62.3578085 51.1132868,61.4137742 C52.498261,60.4712081 53.1790469,59.7427487 52.8423539,58.4119755 L52.4348897,56.8066888 C52.0984928,55.475911 50.7780785,54.6621684 49.4860846,54.9896815 C49.4860846,54.9896815 47.7943317,55.8330346 45.6124895,56.8155739 C44.6841383,57.2345868 43.6293451,56.5552821 43.6293451,55.5366191 L43.6293451,53.5250541 C43.6293451,52.7498023 44.2586089,52.1220242 45.0335685,52.1220242 L49.2746541,52.1220242 C50.5616067,52.1220242 51.60456,51.0814499 51.60456,49.7983443 L51.60456,48.2499209 C51.60456,46.96682 50.5616067,45.9274269 49.2746541,45.9274269 L45.0335685,45.9274269 C44.2586089,45.9274269 43.6293451,45.2981664 43.6293451,44.5232111 L43.6293451,41.8708392 C43.6293451,41.0947004 44.2586089,40.4666234 45.0335685,40.4666234 L49.2746541,40.4666234 C49.3184803,40.4666234 49.3546059,40.444712 49.3984368,40.4420461 C49.4422583,40.4447121 49.4795726,40.4666234 49.524578,40.4666234 L54.7677508,40.4666234 C55.5581069,40.4666234 56.1989192,41.107435 56.1989192,41.8966025 L56.1989192,66.5070842 C56.1989192,67.7940345 57.1634007,68.8372772 58.3523364,68.8372772 L60.2389438,68.8372772 C61.4290635,68.8372772 62.3935403,67.7940345 62.3935403,66.5070842 L62.3935403,41.8966025 C62.3935403,41.107435 63.0331686,40.4666234 63.8235247,40.4666234 L70.5970621,40.4666234 C71.8840194,40.4666234 72.928448,39.4260491 72.928448,38.1444283 L72.928448,36.594226 C72.928448,35.3126029 71.8840193,34.2720286 70.5970621,34.2720286" id="XMLID_17_" fill="#FFFFFF"></path>
                    <path d="M59.3061808,21.7144303 C57.8385908,21.7144303 56.6487625,20.5246094 56.6487625,19.057023 C56.6487625,17.5894366 57.8385908,16.3996157 59.3061808,16.3996157 C60.7737708,16.3996157 61.9635992,17.5894366 61.9635992,19.057023 C61.9635992,20.5246094 60.7737708,21.7144303 59.3061808,21.7144303 M59.6399092,13.214221 C59.5259037,13.208002 59.4187063,13.2305074 59.3061808,13.2308039 C59.1936507,13.2305074 59.0864532,13.208002 58.9724478,13.214221 C55.4897318,13.4034432 53.2122453,16.6690879 53.795611,20.2811958 C54.3683114,23.8296391 58.5599517,31.2090207 58.5599517,31.2090207 C58.7056427,31.5276511 59.0067974,31.6801531 59.3061808,31.6752405 C59.6055595,31.6801531 59.9067236,31.5276511 60.0524147,31.2090207 C60.0524147,31.2090207 64.2440503,23.8296391 64.8167554,20.2811958 C65.4001163,16.6690879 63.1226252,13.4034432 59.6399092,13.214221" id="形状" fill="#FFFFFF"></path>
                </g>
            </g>
        </g>
    </g>
</svg>