<?xml version="1.0" encoding="UTF-8"?>
<svg width="148px" height="60px" viewBox="0 0 148 60" version="1.1" xmlns="http://www.w3.org/2000/svg" xmlns:xlink="http://www.w3.org/1999/xlink">
    <title>jkopay_horizon</title>
    <g id="LOGO-+-SDK-+-payment-icon" stroke="none" stroke-width="1" fill="none" fill-rule="evenodd">
        <g id="payment_horizon" transform="translate(-1254.000000, -570.000000)">
            <g id="jkopay_horizon" transform="translate(1254.000000, 570.000000)">
                <g id="payment-4:3bg" transform="translate(-24.666667, -10.000000)"></g>
                <g id="JKOPAY-logo" transform="translate(5.000000, 3.000000)" fill-rule="nonzero">
                    <path d="M33.2690115,0 L10.0375677,0 C4.50331503,0 0,4.53420752 0,10.1069335 L0,33.4985552 C0,39.0711241 4.50331503,43.6054894 10.0375677,43.6054894 L33.2690121,43.6054894 C38.8034211,43.6054894 43.3067356,39.0711242 43.3067356,33.4985552 L43.3067356,10.1069335 C43.3067356,4.53420752 38.8034206,0 33.2690115,0 Z" id="XMLID_20_" fill="#C9191D"></path>
                    <path d="M15.0034125,8.19031176 C15.4819742,8.73783771 15.4097199,9.18300716 15.122115,9.84422495 C14.8343524,10.5056017 13.7549336,12.382021 11.9166991,14.0219198 C10.0615741,15.6769355 8.36941004,16.5841227 7.66236015,16.8850492 C6.95531085,17.1861332 6.5266403,17.1039341 6.04807987,16.5564082 L5.47036624,15.8955052 C4.99196273,15.3479793 4.93878942,14.6073959 5.35182133,14.2415908 C5.35182133,14.2415908 8.15843641,12.3982401 9.38345729,11.3146856 C10.6084782,10.2312881 12.8114192,7.20076712 12.8114192,7.20076712 C13.2244511,6.83480553 13.9472948,6.98188336 14.4256989,7.52940806 L15.0034125,8.19031176 Z M14.9816424,16.0677612 L14.3953285,15.3972521 C13.9097309,14.8416954 13.1729669,14.6965082 12.7478931,15.072863 C12.7478931,15.072863 10.4775464,18.179127 9.21827615,19.2919708 C7.95978693,20.4054453 5.07982365,22.3042263 5.07982365,22.3042263 C4.65490582,22.6807375 4.70463873,23.4356516 5.19023687,23.9910519 L5.77592555,24.6617199 C6.26136739,25.2171152 6.69926605,25.298058 7.4238305,24.9859489 C7.80730464,24.8207625 8.48557781,24.4661376 9.31226751,23.9293213 L9.31226751,35.3668831 C9.31226751,36.0510925 9.82163692,36.6058621 10.4501771,36.6058621 L11.4459276,36.6058621 C12.0744665,36.6058621 12.5838366,36.0510925 12.5838366,35.3668831 L12.5838366,21.2345279 C13.9724431,19.7809182 14.8399515,18.3251013 15.0920559,17.7539574 C15.390296,17.0777775 15.4666147,16.6231602 14.9816424,16.0677612" id="形状" fill="#FFFFFF"></path>
                    <path d="M37.2844914,18.2249826 L26.1554611,18.2249826 C26.1316922,18.2249826 26.1119855,18.2366359 26.088842,18.2380523 C26.0656934,18.2366359 26.0466144,18.2249826 26.0234685,18.2249826 L23.78362,18.2249826 C23.37434,18.2249826 23.0420063,17.8909874 23.0420063,17.4782569 L23.0420063,15.9128416 C23.0420063,15.5007417 23.37434,15.1661157 23.78362,15.1661157 L26.0234685,15.1661157 C26.7031479,15.1661157 27.2539638,14.6133946 27.2539638,13.9310745 L27.2539638,13.1076616 C27.2539638,12.4253416 26.7031479,11.8719897 26.0234685,11.8719897 L23.78362,11.8719897 C23.37434,11.8719897 23.0420063,11.5381522 23.0420063,11.1258939 L23.0420063,8.44763486 C23.0420063,7.76326778 22.4930687,7.20786941 21.8154214,7.20786941 L20.9976454,7.20786941 C20.3199981,7.20786941 19.7704366,7.76326778 19.7704366,8.44763486 L19.7704366,11.1258939 C19.7704366,11.5381522 19.4388844,11.8719897 19.0294493,11.8719897 L16.6876325,11.8719897 C16.0079518,11.8719897 15.4563555,12.4253417 15.4563555,13.1076616 L15.4563555,13.9310745 C15.4563555,14.6133946 16.0079518,15.1661157 16.6876325,15.1661157 L19.0294493,15.1661157 C19.4388844,15.1661157 19.7704366,15.5007417 19.7704366,15.9128416 L19.7704366,17.4782569 C19.7704366,17.8909874 19.4388844,18.2249826 19.0294493,18.2249826 L16.6876325,18.2249826 C16.0079518,18.2249826 15.4563555,18.7783334 15.4563555,19.4598676 L15.4563555,20.2842252 C15.4563555,20.9657581 16.0079518,21.5191088 16.6876325,21.5191088 L19.0294493,21.5191088 C19.4388844,21.5191088 19.7704366,21.8531039 19.7704366,22.2658345 L19.7704366,23.6762977 C19.7704366,24.088399 19.4388844,24.4230234 19.0294493,24.4230234 L16.6876325,24.4230234 C16.0079518,24.4230234 15.4563555,24.975746 15.4563555,25.6580661 L15.4563555,26.4814777 C15.4563555,27.1638002 16.0079518,27.7171509 16.6876325,27.7171509 L19.0294493,27.7171509 C19.4388844,27.7171509 19.7704366,28.0509871 19.7704366,28.4632461 L19.7704366,31.2100063 C19.7704366,31.5639982 19.5253705,31.8677588 19.182089,31.9411413 C17.1302222,32.3778077 15.0756977,32.7884899 15.0756977,32.7884899 C14.3932006,32.9626531 13.9839231,33.6772536 14.1617411,34.3849295 L14.3769368,35.2392052 C14.5547547,35.9468786 14.9721662,36.1985158 15.9350723,36.204657 C16.8979797,36.2115867 18.2437346,36.0531697 21.3157485,35.2604643 C24.3603933,34.4753143 26.2624368,33.1602775 26.9945072,32.6582643 C27.7259549,32.157032 28.085499,31.769656 27.9076811,31.0619851 L27.6924866,30.208335 C27.514825,29.5006616 26.8174734,29.0679342 26.1351314,29.2420972 C26.1351314,29.2420972 25.2416644,29.6905707 24.0893661,30.2130597 C23.5990752,30.4358801 23.0420063,30.0746433 23.0420063,29.5329445 L23.0420063,28.4632461 C23.0420063,28.0509871 23.37434,27.7171509 23.78362,27.7171509 L26.0234685,27.7171509 C26.7031479,27.7171509 27.2539638,27.1638002 27.2539638,26.4814777 L27.2539638,25.6580659 C27.2539638,24.975746 26.7031479,24.4230234 26.0234685,24.4230234 L23.78362,24.4230234 C23.37434,24.4230234 23.0420063,24.088399 23.0420063,23.6762977 L23.0420063,22.2658345 C23.0420063,21.8531039 23.37434,21.5191087 23.78362,21.5191087 L26.0234685,21.5191087 C26.0466144,21.5191087 26.0656934,21.5074568 26.088842,21.5060392 C26.1119855,21.5074569 26.1316922,21.5191087 26.1554611,21.5191087 L28.9245427,21.5191087 C29.3419542,21.5191087 29.680387,21.8598758 29.680387,22.2795348 L29.680387,35.3667555 C29.680387,36.0511226 30.1897595,36.6058922 30.8176731,36.6058922 L31.8140489,36.6058922 C32.4425879,36.6058922 32.9519578,36.0511226 32.9519578,35.3667555 L32.9519578,22.2795348 C32.9519578,21.8598758 33.2897654,21.5191087 33.7071768,21.5191087 L37.2844914,21.5191087 C37.9641733,21.5191087 38.5157685,20.9657581 38.5157685,20.2842252 L38.5157685,19.4598674 C38.5157685,18.7783334 37.9641733,18.2249826 37.2844914,18.2249826" id="XMLID_17_" fill="#FFFFFF"></path>
                    <path d="M31.321428,11.5471751 C30.5463483,11.5471751 29.9179631,10.914459 29.9179631,10.1340343 C29.9179631,9.35360966 30.5463483,8.72089349 31.321428,8.72089349 C32.0965075,8.72089349 32.7248927,9.35360966 32.7248927,10.1340343 C32.7248927,10.914459 32.0965075,11.5471751 31.321428,11.5471751 M31.4976802,7.02698258 C31.4374704,7.02367547 31.3808561,7.03564331 31.321428,7.03580098 C31.2619972,7.03564331 31.205383,7.02367547 31.1451732,7.02698258 C29.3058432,7.12760607 28.1030321,8.86419189 28.4111256,10.7850179 C28.7135863,12.6719887 30.9273213,16.5961539 30.9273213,16.5961539 C31.0042652,16.7655933 31.1633143,16.8466899 31.321428,16.8441387 C31.479539,16.8466899 31.6385931,16.7655933 31.715537,16.5961539 C31.715537,16.5961539 33.9292695,12.6719887 34.2317327,10.7850179 C34.5398237,8.86419189 33.3370102,7.12760607 31.4976802,7.02698258" id="形状" fill="#FFFFFF"></path>
                    <path d="M70.5183943,31.1490316 L70.5376311,14.3951089 C70.538255,13.6562574 70.1005115,13.2143957 69.36657,13.2126627 L52.8646834,13.1936082 C52.4879312,13.1936082 52.1939118,13.3010029 51.9906055,13.512015 C51.7944902,13.7156243 51.6943978,14.0052115 51.6936137,14.3730626 L51.6745348,31.1268314 C51.673753,31.8987503 52.0788074,32.3077035 52.8460684,32.3094327 L69.3474835,32.3284872 C69.7104692,32.3284872 69.9968261,32.2286501 70.1999786,32.0314961 C70.4103269,31.8269445 70.5176103,31.5299534 70.5183943,31.1490316 Z M70.7424993,9.68421951 C73.0289623,9.68673896 74.188608,10.8573756 74.1861148,13.1595959 L74.1638986,32.392893 C74.1606134,34.730385 72.9987743,35.8625999 70.7123212,35.8602473 L51.4698213,35.8377195 C49.1475475,35.8353571 48.0229336,34.6998388 48.0261997,32.3623443 L48.048427,13.1292036 C48.0509281,10.8269839 49.1777307,9.65933908 51.4999994,9.66185103 L70.7424993,9.68421951 Z M52.22874,55.3576633 C51.7586247,55.7787338 51.0478244,55.989274 50.0963336,55.989274 C49.0306764,55.989274 48.1001381,55.5163956 47.2847094,54.5471598 C47.0548179,54.2944215 46.9501896,54.0632502 46.9501896,53.8637362 C46.9501896,53.6950838 47.002268,53.5366719 47.127695,53.4004627 C47.2429583,53.2743287 47.3891839,53.1998425 47.5671556,53.1998425 C47.7762534,53.1998425 47.9537588,53.2946395 48.1209417,53.4632869 C48.5600897,53.9575871 48.8419107,54.2630845 48.9887615,54.3786677 C49.3544072,54.6841599 49.7414768,54.8318659 50.1380896,54.8318659 C50.6923423,54.8318659 51.0794169,54.7055719 51.3090005,54.4529936 C51.5285746,54.2004104 51.6433665,53.7999611 51.6433665,53.2321256 L51.6433665,49.3265382 C51.6433665,49.1375751 51.7067053,48.9799439 51.8319734,48.8536497 C51.9575591,48.7371307 52.114107,48.6744516 52.312411,48.6744516 C52.5010178,48.6744516 52.6575706,48.7371307 52.7829976,48.8536497 C52.9084245,48.9799439 52.9712918,49.1375751 52.9712918,49.3265382 L52.9712918,53.2743287 C52.9712918,54.2208764 52.7202841,54.9161119 52.22874,55.3576633 Z M63.1245738,55.8002458 C62.9781895,55.9265399 62.8110114,55.989214 62.6436648,55.989214 C62.4137733,55.989214 62.2256329,55.8844919 62.0894122,55.6848228 L59.6540737,52.2530647 L58.4517291,53.1586755 L58.4517291,55.3372826 C58.4517291,55.5260906 58.3894871,55.6848228 58.2742238,55.8100108 C58.1489557,55.92654 57.9917824,55.989214 57.8142771,55.989214 C57.6053381,55.989214 57.4381552,55.92654 57.3125695,55.8100108 C57.1871426,55.6848229 57.1244341,55.5368015 57.1244341,55.3372826 L57.1244341,49.3266333 C57.1244341,49.13751 57.1769791,48.989804 57.302406,48.8644559 C57.4171977,48.7370606 57.5634233,48.6743915 57.7517225,48.6743915 C57.9500215,48.6743915 58.1172094,48.7370606 58.2534251,48.8428838 C58.3788521,48.9691779 58.4517291,49.1268041 58.4517291,49.3266333 L58.4517291,51.5157861 L62.0271752,48.8008408 C62.1527559,48.7057286 62.2883464,48.6528145 62.4239369,48.6528145 C62.6019137,48.6528145 62.7584567,48.7272956 62.8945186,48.8537449 C63.0201093,48.989804 63.0929813,49.148376 63.0929813,49.3373443 C63.0929813,49.5478795 62.9991469,49.7162115 62.8318052,49.8425057 L60.7097211,51.4639781 L63.1979223,54.978726 C63.2815882,55.1051753 63.3335127,55.2314643 63.3335127,55.3479936 C63.3335127,55.5260905 63.2601642,55.6739517 63.1245738,55.8002458 Z M70.6290425,50.6003353 C70.2527617,50.0951639 69.7300966,49.8425856 69.0400948,49.8425856 C68.3502467,49.8425856 67.8169517,50.0951639 67.440517,50.6003353 C67.0958239,51.0632936 66.9286459,51.6431012 66.9286459,52.3577067 C66.9286459,53.0638036 67.0958239,53.6316389 67.4513109,54.0741313 C67.8275867,54.5578858 68.3604154,54.7996029 69.0400948,54.7996029 C69.7300966,54.7996029 70.2527617,54.5578858 70.6184075,54.0741313 C70.9426097,53.64235 71.1099465,53.0745095 71.1099465,52.3577067 C71.1099465,51.6431012 70.9426097,51.0536937 70.6290425,50.6003353 Z M71.5907017,54.9583351 C71.0053231,55.6417538 70.1584558,55.989289 69.0508836,55.989289 C67.9638075,55.989289 67.1167862,55.6417538 66.5002867,54.947464 C65.9042732,54.2845163 65.6115094,53.4004777 65.6115094,52.2951878 C65.6115094,51.2220258 65.9042732,50.358458 66.5106091,49.6956655 C67.1274213,49.0112959 67.9638075,48.6636054 69.0192961,48.6636054 C70.0542989,48.6636054 70.8905313,49.0112959 71.5178196,49.7063764 C72.1133617,50.38003 72.4162891,51.2426569 72.4162891,52.2951877 C72.4162891,53.4318097 72.1343192,54.3160136 71.5907017,54.9583351 Z M80.1291061,50.336901 C79.9511292,50.1372319 79.7212378,50.0323547 79.4494266,50.0323547 L77.0350405,50.0323547 C76.7841916,50.0323547 76.6587647,50.1899807 76.6587647,50.5052381 L76.6587647,52.1482826 L79.4494266,52.1482826 C79.7212379,52.1482826 79.9511294,52.0424645 80.1291061,51.8319292 C80.2964478,51.6215443 80.3902823,51.3796719 80.3902823,51.0850407 C80.3902823,50.8009653 80.2964478,50.5485373 80.1291061,50.336901 Z M81.0694902,52.6847861 C80.6512947,53.1263324 80.1291061,53.3475836 79.51214,53.3475836 L76.6587647,53.3475836 L76.6587647,55.3890304 C76.6587647,55.7894797 76.428238,55.9893091 75.9897153,55.9893091 C75.5502496,55.9893091 75.3309933,55.7787687 75.3309933,55.3792705 L75.3309933,49.8953496 C75.3309933,49.5693913 75.4460978,49.3059421 75.6863116,49.1169789 C75.8954143,48.9486417 76.1773842,48.8536848 76.5119088,48.8536848 L79.6059695,48.8536848 C80.2127769,48.8536848 80.7144796,49.073985 81.1112463,49.4949103 C81.498162,49.9375577 81.6966248,50.4642911 81.6966248,51.0743398 C81.6966248,51.7056352 81.4875271,52.2422937 81.0694902,52.6847861 Z M87.0125789,50.4956132 L85.7057748,53.2527667 L88.3292488,53.2527667 L87.0125789,50.4956132 Z M90.555966,55.7894598 C90.3886243,55.9264598 90.2011143,56 89.9909148,56 C89.7197337,56 89.5320649,55.8629999 89.4057049,55.5897857 L88.8728714,54.4421425 L85.1621523,54.4421425 L84.6293287,55.5897857 C84.5039018,55.8629999 84.294804,56 84.0225214,56 C83.8134235,56 83.6354518,55.9264598 83.4788989,55.7894598 C83.3117158,55.6417538 83.2388389,55.4841276 83.2388389,55.2735874 C83.2388389,55.1688704 83.260104,55.0523413 83.3223559,54.9367581 L86.2911534,49.0640549 C86.4165704,48.8007607 86.6567941,48.6636055 87.0125789,48.6636055 C87.3675896,48.6636055 87.6087562,48.8007607 87.7438703,49.0640549 L90.7028218,54.9367581 C90.765054,55.0523413 90.7961799,55.1688704 90.7961799,55.2735874 C90.7961799,55.4841276 90.712509,55.6417538 90.555966,55.7894598 Z M98.8626478,49.6848795 L96.1866189,53.1997825 L96.1866189,55.3264164 C96.1866189,55.5260905 96.124377,55.6848228 95.9980071,55.8100108 C95.8735232,55.9265399 95.7266674,55.9892139 95.5389984,55.9892139 C95.3397566,55.9892139 95.1832037,55.9265399 95.057618,55.8100108 C94.9321911,55.6848228 94.8701079,55.5260905 94.8701079,55.3264164 L94.8701079,53.1997825 L92.1939203,49.6848795 C92.0889892,49.5585854 92.0472233,49.4322963 92.0472233,49.2951411 C92.0472233,49.117039 92.1201053,48.9691779 92.2777499,48.8428838 C92.4235041,48.7272956 92.6014857,48.6636805 92.7891547,48.6636805 C92.9777665,48.6636805 93.1343095,48.7586377 93.2705252,48.9378358 L95.5283684,52.0639414 L97.7755616,48.9378358 C97.9009886,48.7586377 98.0681716,48.6636805 98.2558503,48.6636805 C98.4444522,48.6636805 98.6117941,48.7272956 98.7683369,48.8428838 C98.9150339,48.9691779 98.9987048,49.117039 98.9987048,49.2951411 C98.9987048,49.4322963 98.9463187,49.5585854 98.8626478,49.6848795 Z M91.8903627,27.7959339 C92.0208018,27.7313703 92.1188547,27.6987746 92.2486587,27.632637 C94.3338401,26.5862448 96.1586295,25.3423857 97.7883852,23.9026315 C99.0265355,22.7894711 99.7437627,21.8394525 99.874979,21.1180787 C99.8756013,20.9541525 99.6796348,20.8562049 99.3546484,20.8554178 L84.1173583,20.8376246 C84.150509,20.9029752 84.1821014,20.9683244 84.2144779,20.9683244 C84.5402385,21.3297189 84.8322231,21.6577304 85.059931,21.9203914 C86.750847,24.0199464 88.8646431,25.8916397 91.4347881,27.5339009 C91.5652274,27.6318512 91.7281821,27.730582 91.8903627,27.7959339 Z M136.546144,12.3104354 C136.83938,12.5071152 137.000766,12.998266 136.999997,13.7523931 C136.999367,14.3424351 136.901304,14.7683929 136.738507,14.9657046 C136.445113,15.3584361 135.988765,15.5215753 135.338008,15.5209448 L132.798047,15.5179529 L132.778175,32.8269617 C132.777391,33.6136859 132.41849,34.2689182 131.76695,34.7929814 C131.180319,35.2181536 130.23602,35.5119915 128.933593,35.6419068 C127.631315,35.6404878 103.362513,37.1380312 91.7885482,31.5986887 C89.312863,32.6450833 86.4471306,33.7235983 83.1244192,34.8018005 C81.2678885,35.3570405 79.8356526,35.649462 78.8583559,35.7146561 C78.3372541,35.7138678 77.8824637,35.5165586 77.556703,35.1883882 C77.2317216,34.8597472 77.0687619,34.4989835 77.0695355,34.171759 C77.0701663,33.4177907 77.2662817,32.8930994 77.7226355,32.6316972 C81.8582744,31.5223181 85.3114102,30.4439609 88.1114564,29.3981968 C86.2901113,28.0853647 84.3714974,26.3457866 82.3557588,24.1134846 C81.5103008,23.2272386 81.0872566,22.5386223 81.0555103,22.0139283 C81.0562945,21.5218327 81.1867189,21.1292602 81.4801127,20.8346316 L80.0155003,20.8332152 C79.3963458,20.8324281 79.0056782,20.7003105 78.8428723,20.372299 C78.5834182,20.1094803 78.4861446,19.7161195 78.4869238,19.1915833 C78.487549,18.6994877 78.6179833,18.3061281 78.9113674,18.0122866 C79.1716056,17.7830097 79.5305268,17.6523085 80.0192571,17.6530968 L89.9489106,17.664277 L89.9532878,13.3040748 L79.0138071,13.2914769 C78.4603336,13.2906899 78.0379198,13.1593594 77.745315,12.8966984 C77.4844465,12.6672639 77.3555853,12.2406766 77.3562056,11.6170916 C77.356836,11.0599615 77.4874191,10.6346329 77.7482827,10.3398485 C78.0408925,10.0779752 78.4647158,9.94743175 79.0181842,9.94806176 L89.9578237,9.96081667 L89.9608013,7.14130635 C89.9614265,6.68180726 90.1243812,6.25679372 90.4833025,5.86343258 C90.7110104,5.63399804 91.1672102,5.50345461 91.8838021,5.5040804 C92.5027978,5.50487229 92.9575783,5.63698984 93.2178216,5.86626673 C93.5759587,6.19506534 93.7705158,6.62102388 93.7698905,7.14571524 L93.7669129,9.96522618 L105.2275,9.97861111 C105.813504,9.97924113 106.235759,10.1105716 106.496002,10.3733897 C106.75702,10.5707001 106.885881,10.9968157 106.885097,11.6520511 C106.884471,12.1767437 106.754667,12.5375088 106.558701,12.7987508 C106.265317,13.1593594 105.809117,13.3226564 105.222964,13.3218693 L93.7625457,13.3086408 L93.7579999,17.6685289 L100.757967,17.6768748 C101.929806,17.7436418 102.710526,17.8757595 103.134339,18.1058247 C103.849214,18.5659537 104.206725,19.2545726 104.205941,20.2379754 C104.107105,21.2546071 103.552058,22.4992544 102.508465,23.9731787 C101.041664,25.840465 99.020759,27.6082295 96.4468523,29.2446624 C96.1858349,29.4079593 95.9257505,29.5385027 95.6980526,29.6692039 C99.604887,31.1952513 105.459426,31.8808772 111.160708,32.1539313 L111.173373,21.5901764 C111.107846,21.6561564 111.07532,21.721507 111.04216,21.7866985 C110.650872,22.3107618 110.162921,22.539408 109.511231,22.5386221 C108.89287,22.5378338 108.371758,22.3737486 107.982029,22.0131413 C107.623743,21.7169397 107.462346,21.2909819 107.462962,20.7662892 C107.462962,20.4382788 107.625926,20.0784585 107.887579,19.6850964 C110.333855,15.6878628 112.194148,11.4939501 113.468585,7.07012979 C113.697077,6.48087462 114.088524,6.12026726 114.609616,6.02294994 C115.195629,6.0237373 115.716731,6.15506781 116.10661,6.35174887 C116.529649,6.5826008 116.757367,7.04115517 116.756731,7.69717703 C116.691055,8.18848489 116.625528,8.64782693 116.526681,9.07378489 C116.102074,10.7117937 115.514045,12.4491659 114.730517,14.2836987 L114.709405,32.2753404 C121.935194,32.4296632 128.152258,32.0347269 128.709637,32.0350398 C129.035408,32.0358305 129.198203,31.8719004 129.198203,31.5437325 L129.216655,15.5133871 L118.798271,15.5015762 C118.277963,15.5007892 117.887301,15.3694586 117.594681,15.1067977 C117.26892,14.843979 117.139891,14.385424 117.140675,13.7294021 C117.1413,13.0080297 117.271898,12.5167213 117.597658,12.2546896 C117.825356,12.0581675 118.216803,11.928097 118.802817,11.9288841 L129.221201,11.9406949 L129.225578,7.58064858 C129.226977,6.6299993 129.846926,6.10593701 131.018765,6.04216182 C132.190773,6.04373656 132.776001,6.56921527 132.80696,7.58505871 L132.802572,11.9452621 L135.342385,11.9482526 C135.862713,11.9490397 136.285901,12.0795831 136.546144,12.3104354 Z M122.659012,27.4716849 C122.464455,27.3729539 122.334026,27.1762729 122.203596,26.913612 C121.457605,25.3721288 120.222264,23.043298 118.532916,19.9597097 C118.370885,19.6968922 118.273457,19.4348607 118.273457,19.1068492 C118.274241,18.9103257 118.306608,18.7134882 118.403886,18.4516131 C118.567476,18.1561986 118.828484,17.92771 119.18679,17.7310289 C119.447648,17.633712 119.740258,17.567732 120.066029,17.5683526 C120.522219,17.634499 120.944642,17.798583 121.335305,18.0620311 C122.017803,18.7840342 122.960535,20.2929178 124.13019,22.6545031 C124.779528,24.0970903 125.136255,25.278593 125.134864,26.2619959 C125.134864,26.7205521 125.003643,27.0151783 124.775935,27.212017 C124.44939,27.5400273 124.026351,27.6697849 123.472872,27.6690037 C123.08221,27.6683659 122.821967,27.6030167 122.659012,27.4716849 Z" id="形状" fill="#333333"></path>
                </g>
            </g>
        </g>
    </g>
</svg>