<?xml version="1.0" encoding="UTF-8"?>
<svg width="120px" height="90px" viewBox="0 0 120 90" version="1.1" xmlns="http://www.w3.org/2000/svg" xmlns:xlink="http://www.w3.org/1999/xlink">
    <title>kakaopay</title>
    <defs>
        <polygon id="path-1" points="0 0 110 0 110 44.6875 0 44.6875"></polygon>
    </defs>
    <g id="LOGO-+-SDK-+-payment-icon" stroke="none" stroke-width="1" fill="none" fill-rule="evenodd">
        <g id="payment" transform="translate(-2318.000000, -755.000000)">
            <g id="kakaopay" transform="translate(2318.000000, 755.000000)">
                <g id="payment-4:3bg" transform="translate(-20.000000, -15.000000)"></g>
                <g id="编组" transform="translate(5.000000, 23.000000)">
                    <g>
                        <mask id="mask-2" fill="white">
                            <use xlink:href="#path-1"></use>
                        </mask>
                        <g id="Clip-2"></g>
                        <path d="M87.9999041,44.6875 L22.0001759,44.6875 C9.84954815,44.6875 0,34.6841326 0,22.34375 C0,10.0041794 9.84954815,0 22.0001759,0 L87.9999041,0 C100.150532,0 110.00008,10.0041794 110.00008,22.34375 C110.00008,34.6841326 100.150532,44.6875 87.9999041,44.6875" id="Fill-1" fill="#FFEB00" mask="url(#mask-2)"></path>
                    </g>
                    <path d="M29.3402041,11.1356586 C22.9350794,11.1356586 17.7428588,15.3013599 17.7428588,20.4406822 C17.7428588,23.5247629 19.6169834,26.2539875 22.4969309,27.9470649 L21.132114,33.1269886 C21.0009893,33.6239495 21.5470759,34.0185949 21.9660355,33.7311371 L27.8898363,29.6701873 C28.3655633,29.718097 28.8484862,29.7457059 29.3402041,29.7457059 C35.7453287,29.7457059 40.9375493,25.5800046 40.9375493,20.4406822 C40.9375493,15.3013599 35.7453287,11.1356586 29.3402041,11.1356586" id="Fill-3" fill="#1E1E1E"></path>
                    <path d="M51.8711154,16.4252872 L51.8711154,25.5670934 C52.0909892,25.5947023 52.6418731,25.6507322 53.1647731,25.6507322 C56.0271306,25.6507322 57.1288984,23.610107 57.1288984,20.3952899 C57.1288984,17.5710581 56.3853251,15.8666123 54.1010358,15.8666123 C53.3574625,15.8666123 52.5315364,16.0899198 51.8711154,16.4252872 M51.8711154,28.4181221 L51.8711154,34.1486005 L47.8526213,34.1486005 L47.8526213,13.0147715 L50.6877944,13.0147715 L51.1827104,14.356241 C52.0366204,13.4898076 53.3302781,12.5673443 55.4218779,12.5673443 C59.3580193,12.5673443 61.2297453,15.5588538 61.2025609,20.3952899 C61.2025609,25.4550335 58.3122194,28.6974595 54.1833886,28.6974595 C53.3854465,28.6974595 52.7793942,28.6414296 51.8711154,28.4181221" id="Fill-5" fill="#1E1E1E"></path>
                    <path d="M72.0030833,24.3645618 L72.0030833,21.5687509 L70.1585418,21.5687509 C68.0941264,21.5687509 67.0483265,22.3239365 67.0483265,23.8334957 C67.0483265,24.9792666 67.6263947,25.5387536 68.8105153,25.5387536 C69.9114835,25.5387536 71.3146783,24.9792666 72.0030833,24.3645618 M69.7187941,18.9694507 L72.0030833,18.9694507 L72.0030833,18.4659936 C72.0030833,16.7891568 71.0668206,16.0055502 69.4429524,16.0055502 C68.204463,16.0055502 66.6077792,16.3693385 65.3141216,17.0124643 L64.2131533,14.2726834 C65.6451316,13.2665813 67.8470681,12.5674255 69.8011468,12.5674255 C73.6549355,12.5674255 75.7465353,14.6364717 75.7465353,18.5780535 L75.7465353,28.2785345 L72.9113621,28.2785345 L72.4987989,26.9922829 C70.8749307,28.1948957 69.387784,28.6975407 68.0397576,28.6975407 C65.0942477,28.6975407 63.4423956,26.9086441 63.4423956,23.8895256 C63.4423956,20.6747086 65.6451316,18.9694507 69.7187941,18.9694507" id="Fill-7" fill="#1E1E1E"></path>
                    <path d="M87.5499223,26.7128642 C86.1459279,30.5147772 84.4668914,33.2821671 82.0170971,34.8201473 L79.5401184,32.4993725 C80.9712972,31.2415419 81.9899127,30.0113201 82.8702076,28.3620922 L77.5308714,13.5742585 L81.5221811,12.4837055 L84.934623,24.4765404 L88.32068,12.4276756 L92.2568214,13.5458375 L87.5499223,26.7128642 Z" id="Fill-9" fill="#1E1E1E"></path>
                </g>
            </g>
        </g>
    </g>
</svg>