<?xml version="1.0" encoding="UTF-8"?>
<svg width="120px" height="90px" viewBox="0 0 120 90" version="1.1" xmlns="http://www.w3.org/2000/svg" xmlns:xlink="http://www.w3.org/1999/xlink">
    <title>linepay</title>
    <g id="LOGO-+-SDK-+-payment-icon" stroke="none" stroke-width="1" fill="none" fill-rule="evenodd">
        <g id="payment" transform="translate(-218.000000, -755.000000)">
            <g id="linepay" transform="translate(218.000000, 755.000000)">
                <g id="payment-4:3bg" transform="translate(-20.000000, -15.000000)"></g>
                <g id="LINEPay" transform="translate(21.000000, 3.500000)" fill-rule="nonzero">
                    <rect id="矩形" fill="#000000" x="22.7618334" y="0.0146658035" width="5.79695866" height="25.3610562" rx="1.0416"></rect>
                    <path d="M18.5185265,19.5554267 L8.4949668,19.5554267 L8.4949668,1.0462167 C8.49739022,0.765267452 8.38557075,0.495481214 8.18534805,0.29920119 C7.98512534,0.102921167 7.71382499,-0.00286822874 7.43414007,0.00627921088 L3.70871707,0.00627921088 C3.13667829,0.00627921088 2.67294924,0.471875083 2.67294924,1.0462167 L2.67294924,24.3273979 C2.67749245,24.8998394 3.13857076,25.3627739 3.70871707,25.3673354 L18.5185265,25.3673354 C19.0886728,25.3627739 19.5497511,24.8998394 19.5542943,24.3273979 L19.5542943,20.5953641 C19.5542943,20.3195556 19.4451691,20.0550434 19.2509249,19.8600173 C19.0566808,19.6649912 18.7932292,19.5554267 18.5185265,19.5554267 L18.5185265,19.5554267 Z" id="路径" fill="#000000"></path>
                    <path d="M73.9070465,5.87689406 C74.4790853,5.87689406 74.9428486,5.41129819 74.9428486,4.83695657 L74.9428486,1.0462167 C74.9450625,0.769722333 74.8366593,0.503896656 74.6419257,0.3083791 C74.4471921,0.112861545 74.1824322,0.00402200089 73.9070465,0.00624478957 L59.1055901,0.00624478957 C58.8316583,0.00404308393 58.5681803,0.111736063 58.3736923,0.305432279 C58.1792042,0.499128494 58.0698222,0.762786509 58.0698222,1.03783011 L58.0698222,24.3273979 C58.0698222,24.9017395 58.5335513,25.3673354 59.1055901,25.3673354 L73.9070465,25.3673354 C74.4790853,25.3673354 74.9428486,24.9017395 74.9428486,24.3273979 L74.9428486,20.5953641 C74.9450625,20.3188698 74.8366593,20.0530441 74.6419257,19.8575265 C74.4471921,19.662009 74.1824322,19.5531695 73.9070465,19.5554267 L63.8834868,19.5554267 L63.8834868,15.6053415 L73.9070465,15.6053415 C74.4790853,15.6053415 74.9428486,15.1397457 74.9428486,14.565404 L74.9428486,10.8249837 C74.9450625,10.5484894 74.8366593,10.2826637 74.6419257,10.0871461 C74.4471921,9.89162857 74.1824322,9.78278902 73.9070465,9.78504623 L63.8834868,9.78504623 L63.8834868,5.87689406 L73.9070465,5.87689406 Z" id="路径" fill="#000000"></path>
                    <path d="M53.0998072,0.00627921088 L49.3660313,0.00627921088 C48.7972387,0.00626064001 48.3348505,0.466766352 48.3302634,1.03783011 L48.3302634,14.5234711 L38.5823517,0.517861362 C38.3122891,0.158405293 37.8761921,-0.0351382068 37.4296423,0.00627921088 C37.3714689,-0.00209307029 37.3124035,-0.00209307029 37.25423,0.00627921088 L33.528807,0.00627921088 C32.9567682,0.00627921088 32.4930392,0.471875083 32.4930392,1.0462167 L32.4930392,24.3273979 C32.4975824,24.8998394 32.9586607,25.3627739 33.528807,25.3673354 L37.25423,25.3673354 C37.8262688,25.3673354 38.2899979,24.9017395 38.2899979,24.3273979 L38.2899979,10.263082 L48.447205,24.8641398 C48.4815531,24.9153105 48.5207131,24.9630534 48.5641465,25.0067119 C48.7421891,25.2245127 49.0024094,25.3581846 49.2825016,25.3757555 L53.0831013,25.3757555 C53.3614638,25.3779579 53.6291909,25.2684976 53.8268119,25.0716559 C54.0244328,24.8748141 54.1355751,24.6068899 54.1355751,24.3273979 L54.1355751,1.0462167 C54.1355751,0.471875083 53.671846,0.00627921088 53.0998072,0.00627921088 L53.0998072,0.00627921088 Z" id="路径" fill="#000000"></path>
                    <rect id="矩形" fill="#08BF5B" x="0" y="33.8713403" width="78" height="49.1286597" rx="2.856"></rect>
                    <path d="M28.1244378,53.0263179 C28.1180732,55.1176808 27.2763368,57.1190598 25.7878245,58.5820347 C24.2993122,60.0450097 22.2884654,60.847274 20.2058257,60.8090759 L16.8145213,60.8090759 L16.8145213,67.1828863 C16.8145213,67.3875184 16.7335574,67.5837694 16.5894408,67.7284662 C16.4453242,67.873163 16.2498601,67.9544528 16.0460484,67.9544528 L12.4041551,67.9544528 C12.2011031,67.9544528 12.0064869,67.8729087 11.8636942,67.7279657 C11.7209015,67.5830226 11.6418038,67.3867434 11.6439892,67.1828863 L11.6439892,45.9983533 C11.6439892,45.5768606 11.9843524,45.2351733 12.4041551,45.2351733 L20.2058257,45.2351733 C22.28991,45.1969544 24.3020352,46.0003617 25.7907946,47.4651563 C27.2795541,48.9299509 28.1203076,50.9334988 28.1244378,53.0263179 L28.1244378,53.0263179 Z M22.9539516,53.0263179 C22.9927705,52.2686151 22.7210121,51.5279775 22.2018785,50.9766529 C21.6827449,50.4253284 20.9614798,50.1113662 20.2058257,50.1077837 L16.8145213,50.1077837 L16.8145213,55.9783985 L20.2058257,55.9783985 C20.9676285,55.9753182 21.6944094,55.6567818 22.2145998,55.097985 C22.7347902,54.5391882 23.0022901,53.7896523 22.9539516,53.0263179 Z" id="形状" fill="#FFFFFF"></path>
                    <path d="M47.3196454,52.1289525 L47.3196454,67.5518964 C47.3196454,67.7742221 47.1400465,67.9544528 46.9186121,67.9544528 L42.8757764,67.9544528 C42.6562062,67.9499978 42.4792711,67.7723505 42.474834,67.5518964 L42.474834,66.4280929 C41.2484044,67.7796922 39.4819312,68.5063692 37.6635254,68.4073288 C33.4285714,68.4073288 29.9370315,64.6752951 29.9370315,59.8362311 C29.9370315,54.9971672 33.4118655,51.27352 37.6635254,51.27352 C39.4819312,51.1744796 41.2484044,51.9011566 42.474834,53.2527559 L42.474834,52.1289525 C42.474834,51.9066267 42.654342,51.726396 42.8757764,51.726396 L46.9186121,51.726396 C47.0256379,51.7240843 47.1289624,51.7657536 47.2046585,51.8417545 C47.2803547,51.9177554 47.3218569,52.0214959 47.3196454,52.1289525 L47.3196454,52.1289525 Z M42.474834,59.8362311 C42.4243476,57.7126363 40.676925,56.027671 38.5615317,56.0628 C36.4461383,56.097929 34.7551709,57.8399936 34.7746589,59.9641031 C34.794147,62.0882127 36.5167906,63.7987058 38.6324695,63.7947028 C39.6825011,63.840177 40.7020669,63.4341762 41.4356122,62.6784649 C42.1691575,61.9227536 42.5471457,60.8889695 42.474834,59.8362311 Z" id="形状" fill="#FFFFFF"></path>
                    <path d="M63.4825444,52.1457257 L59.7320625,61.5554826 L55.889698,52.1457257 C55.7841924,51.8956747 55.5420076,51.7313775 55.2715785,51.7263738 L51.1452131,51.7263738 C51.0126312,51.7277721 50.8893004,51.794868 50.8157532,51.9056328 C50.7422061,52.0163976 50.7279546,52.156506 50.7776826,52.2799112 L57.1927608,67.9879992 L54.8539302,73.9089336 C54.8033622,74.0313672 54.8174664,74.1711208 54.8914678,74.2808812 C54.9654693,74.3906415 55.089459,74.4557116 55.2214607,74.4540927 L59.3979439,74.4540927 C59.6697481,74.4535093 59.9141372,74.2877168 60.0160634,74.0347325 L68.5778539,52.2799112 C68.6281368,52.1551295 68.6129743,52.0133719 68.5374489,51.9021554 C68.4619235,51.7909389 68.336031,51.724983 68.2019704,51.7263738 L64.0756051,51.7263738 C63.8122685,51.7347682 63.5791287,51.8996121 63.4825444,52.1457257 L63.4825444,52.1457257 Z" id="路径" fill="#FFFFFF"></path>
                </g>
            </g>
        </g>
    </g>
</svg>