<?xml version="1.0" encoding="UTF-8"?>
<svg width="168px" height="60px" viewBox="0 0 168 60" version="1.1" xmlns="http://www.w3.org/2000/svg" xmlns:xlink="http://www.w3.org/1999/xlink">
    <title>linepay_horizon</title>
    <defs>
        <path d="M1.73558241,0 C0.775260154,0 0,0.778983438 0,1.73889206 L0,1.73889206 L0,23.2137065 C0,24.1736151 0.775260154,24.9525985 1.73558241,24.9525985 L1.73558241,24.9525985 L4.15139308,24.9525985 C5.11171534,24.9525985 5.8869755,24.1736151 5.8869755,23.2137065 L5.8869755,23.2137065 L5.8869755,1.73889206 C5.8869755,0.778983438 5.11171534,0 4.15139308,0 L4.15139308,0 L1.73558241,0 Z" id="path-1"></path>
        <path d="M4.60654582,0 L1.00533736,0 C0.450151057,0 0,0.457338664 0,1.02524272 L0,1.02524272 L0,23.9273558 C0,24.4952599 0.450151057,24.9525985 1.00533736,24.9525985 L1.00533736,24.9525985 L15.335146,24.9525985 C15.8903323,24.9525985 16.3354817,24.4952599 16.3354817,23.9273558 L16.3354817,23.9273558 L16.3354817,20.2485437 C16.3354817,19.6856653 15.8903323,19.223301 15.335146,19.223301 L15.335146,19.223301 L5.61188318,19.223301 L5.61188318,1.02524272 C5.61188318,0.75385494 5.50684794,0.487492861 5.32178583,0.301541976 L5.32178583,0.301541976 C5.13672373,0.110565391 4.88163813,0 4.62655253,0 L4.62655253,0 C4.61654918,0 4.6115475,0 4.60654582,0 L4.60654582,0 Z" id="path-3"></path>
        <path d="M1.00533736,0 C0.450151057,0 0,0.457338664 0,1.02524272 L0,1.02524272 L0,23.9273558 C0,24.4952599 0.450151057,24.9525985 1.00533736,24.9525985 L1.00533736,24.9525985 L15.3401477,24.9525985 C15.8903323,24.9525985 16.3404834,24.4952599 16.3404834,23.9273558 L16.3404834,23.9273558 L16.3404834,20.2485437 C16.3404834,19.6856653 15.8903323,19.223301 15.3401477,19.223301 L15.3401477,19.223301 L5.61688486,19.223301 L5.61688486,15.3384352 L15.3401477,15.3384352 C15.8903323,15.3384352 16.3404834,14.8760708 16.3404834,14.3131925 L16.3404834,14.3131925 L16.3404834,10.6343804 C16.3404834,10.071502 15.8903323,9.61416334 15.3401477,9.61416334 L15.3401477,9.61416334 L5.61688486,9.61416334 L5.61688486,5.72427184 L15.3401477,5.72427184 C15.8903323,5.72427184 16.3354817,5.27195888 16.3404834,4.71410623 L16.3404834,4.71410623 L16.3404834,1.02524272 C16.3404834,0.457338664 15.8903323,0 15.3401477,0 L15.3401477,0 L1.00533736,0 Z" id="path-5"></path>
        <path d="M4.76159785,0.0050256996 C4.71158107,0 4.65156093,0 4.59654246,0.0050256996 L4.59654246,0.0050256996 L1.00033568,0.0050256996 C0.445149379,0.0050256996 0,0.462364363 0,1.02524272 L0,1.02524272 L0,23.9273558 C0,24.4952599 0.445149379,24.9525985 1.00033568,24.9525985 L1.00033568,24.9525985 L4.60154414,24.9525985 C5.15673045,24.9525985 5.6068815,24.4952599 5.6068815,23.9273558 L5.6068815,23.9273558 L5.6068815,10.0865791 L15.4201746,24.4500286 C15.4551863,24.5002856 15.4901981,24.5455168 15.5352132,24.5907481 L15.5352132,24.5907481 C15.7052702,24.8018275 15.9603558,24.9324957 16.2304465,24.9525985 L16.2304465,24.9525985 L19.9116818,24.9525985 C20.4668681,24.9525985 20.9120175,24.4952599 20.9120175,23.9273558 L20.9120175,23.9273558 L20.9120175,1.02524272 C20.9120175,0.75385494 20.8069822,0.49754426 20.6169184,0.301541976 L20.6169184,0.301541976 C20.4268546,0.115591091 20.1767707,0.0050256996 19.9116818,0.0050256996 L19.9116818,0.0050256996 L16.3104733,0.0050256996 C16.0453844,0.0050256996 15.7852971,0.115591091 15.600235,0.301541976 L15.600235,0.301541976 C15.4151729,0.49754426 15.3101376,0.75385494 15.3101376,1.02524272 L15.3101376,1.02524272 L15.3101376,14.2780126 L5.87197046,0.50759566 C5.63689157,0.185950885 5.26676737,0 4.88163813,0 L4.88163813,0 C4.84162471,0 4.80161128,0 4.76159785,0.0050256996 L4.76159785,0.0050256996 Z" id="path-7"></path>
        <path d="M4.32645183,0 C1.93564955,0 0,1.94997144 0,4.34723015 L0,4.34723015 L0,39.6527698 C0,42.0550543 1.93564955,44 4.32645183,44 L4.32645183,44 L64.9467942,44 C67.3325948,44 69.2732461,42.0550543 69.2732461,39.6527698 L69.2732461,39.6527698 L69.2732461,4.34723015 C69.2732461,1.94997144 67.3325948,0 64.9467942,0 L64.9467942,0 L4.32645183,0 Z" id="path-9"></path>
        <path d="M7.46750587,0 L0.665223229,0 C0.295099027,0 0,0.306567676 0,0.683495146 L0,0.683495146 L0,19.6705882 C0,20.04249 0.295099027,20.3540834 0.665223229,20.3540834 L0.665223229,20.3540834 L3.8462907,20.3540834 C4.2164149,20.3540834 4.51151393,20.04249 4.51151393,19.6705882 L4.51151393,19.6705882 L4.51151393,13.9563678 L7.46750587,13.9563678 C9.28311514,13.9915477 11.0387043,13.2728726 12.3391407,11.961165 L12.3391407,11.961165 C13.6345754,10.6494575 14.3698221,8.8552827 14.3748238,6.97567105 L14.3748238,6.97567105 C14.3698221,5.10108509 13.6345754,3.30691034 12.3391407,1.99520274 L12.3391407,1.99520274 C11.0687143,0.713649343 9.36814367,0 7.60255119,0 L7.60255119,0 C7.55753609,0 7.51252098,0 7.46750587,0 L7.46750587,0 Z M4.51151393,4.35728155 L7.46750587,4.35728155 C8.12772743,4.36230725 8.75793891,4.64374643 9.20808996,5.14129069 L9.20808996,5.14129069 C9.6632427,5.63380925 9.89832158,6.2972016 9.86330984,6.97567105 L9.86330984,6.97567105 C9.89832158,7.65414049 9.6632427,8.32255854 9.20808996,8.8150771 L9.20808996,8.8150771 C8.75793891,9.30759566 8.1327291,9.59406054 7.46750587,9.59406054 L7.46750587,9.59406054 L4.51151393,9.59406054 L4.51151393,4.35728155 Z" id="path-11"></path>
        <path d="M0,7.5536265 C0,11.8154198 3.14105404,15.1022273 6.96233635,15.1022273 L6.96233635,15.1022273 C8.91799261,15.1022273 10.3484726,14.4488864 11.3087949,13.3633352 L11.3087949,13.3633352 L11.3087949,14.3533981 C11.3137966,14.5443746 11.4738503,14.705197 11.6739174,14.705197 L11.6739174,14.705197 L15.3251427,14.705197 C15.5252098,14.705197 15.6852635,14.5443746 15.6852635,14.3533981 L15.6852635,14.3533981 L15.6852635,0.75888064 C15.6902652,0.663392347 15.6502518,0.572929754 15.5802283,0.50759566 L15.5802283,0.50759566 C15.5152064,0.442261565 15.4201746,0.402055968 15.3251427,0.402055968 L15.3251427,0.402055968 L11.6739174,0.402055968 C11.4738503,0.402055968 11.3087949,0.567904055 11.3087949,0.75888064 L11.3087949,0.75888064 L11.3087949,1.74894346 C10.3484726,0.658366648 8.91799261,0 6.96233635,0 L6.96233635,0 C3.1510574,0 0,3.29685894 0,7.5536265 L0,7.5536265 Z M4.35146022,7.5536265 C4.35146022,5.40765277 5.80694864,4.06076528 7.82762672,4.06076528 L7.82762672,4.06076528 C9.85330648,4.06076528 11.3087949,5.40765277 11.3087949,7.5536265 L11.3087949,7.5536265 C11.3087949,9.68954883 9.85330648,11.0464877 7.82762672,11.0464877 L7.82762672,11.0464877 C5.80694864,11.0464877 4.35146022,9.70462593 4.35146022,7.5536265 L4.35146022,7.5536265 Z" id="path-13"></path>
        <path d="M11.7147974,0 C11.4647134,0.0050256996 11.2496413,0.160822387 11.1646127,0.397030268 L11.1646127,0.397030268 L7.90351842,8.8201028 L4.51738213,0.392004569 C4.4323536,0.160822387 4.21728143,0.0150770988 3.97720086,0.0100513992 L3.97720086,0.0100513992 L0.35098401,0.0100513992 C0.235945407,0.0100513992 0.125908482,0.0703597944 0.0608866623,0.170873786 L0.0608866623,0.170873786 C-0.00413515713,0.271387778 -0.0191401924,0.397030268 0.0258749134,0.50759566 L0.0258749134,0.50759566 L5.66776817,14.5695031 L3.62208169,19.8665905 C3.57706659,19.9721302 3.58706995,20.1027984 3.65709344,20.1982867 L3.65709344,20.1982867 C3.72211526,20.2988007 3.83215219,20.3591091 3.94719079,20.3591091 L3.94719079,20.3591091 L7.56840596,20.3591091 C7.81348821,20.3540834 8.02856038,20.2033124 8.11358891,19.9721302 L8.11358891,19.9721302 L15.6611216,0.492518561 C15.7011351,0.386978869 15.6911317,0.25631068 15.6261099,0.160822387 L15.6261099,0.160822387 C15.5610881,0.0653340948 15.4510511,0.0050256996 15.3310109,0 L15.3310109,0 L11.7147974,0 Z" id="path-15"></path>
    </defs>
    <g id="LOGO-+-SDK-+-payment-icon" stroke="none" stroke-width="1" fill="none" fill-rule="evenodd">
        <g id="payment_horizon" transform="translate(-194.000000, -770.000000)">
            <g id="linepay_horizon" transform="translate(194.000000, 770.000000)">
                <g id="payment-4:3bg" transform="translate(-28.000000, -10.000000)"></g>
                <g id="编组" transform="translate(10.000000, 8.000000)">
                    <g transform="translate(19.601578, 9.197030)">
                        <mask id="mask-2" fill="white">
                            <use xlink:href="#path-1"></use>
                        </mask>
                        <g id="Clip-2"></g>
                        <polygon id="Fill-1" fill="#000000" mask="url(#mask-2)" points="-3.26609601 28.2343804 9.14806982 28.2343804 9.14806982 -3.28178184 -3.26609601 -3.28178184"></polygon>
                    </g>
                    <g transform="translate(0.000000, 9.197030)">
                        <mask id="mask-4" fill="white">
                            <use xlink:href="#path-3"></use>
                        </mask>
                        <g id="Clip-4"></g>
                        <polygon id="Fill-3" fill="#000000" mask="url(#mask-4)" points="-3.26609601 28.2343804 19.6065794 28.2343804 19.6065794 -3.28178184 -3.26609601 -3.28178184"></polygon>
                    </g>
                    <g transform="translate(53.582981, 9.197030)">
                        <mask id="mask-6" fill="white">
                            <use xlink:href="#path-5"></use>
                        </mask>
                        <g id="Clip-6"></g>
                        <polygon id="Fill-5" fill="#000000" mask="url(#mask-6)" points="-3.26609601 28.2343804 19.6065794 28.2343804 19.6065794 -3.28178184 -3.26609601 -3.28178184"></polygon>
                    </g>
                    <g transform="translate(28.754649, 9.197030)">
                        <mask id="mask-8" fill="white">
                            <use xlink:href="#path-7"></use>
                        </mask>
                        <g id="Clip-8"></g>
                        <polygon id="Fill-7" fill="#000000" mask="url(#mask-8)" points="-3.26609601 28.2343804 24.1831151 28.2343804 24.1831151 -3.28178184 -3.26609601 -3.28178184"></polygon>
                    </g>
                    <g transform="translate(79.726754, 0.000000)">
                        <mask id="mask-10" fill="white">
                            <use xlink:href="#path-9"></use>
                        </mask>
                        <g id="Clip-10"></g>
                        <polygon id="Fill-9" fill="#08BE5B" mask="url(#mask-10)" points="-3.26609601 47.2817818 72.5393421 47.2817818 72.5393421 -3.28178184 -3.26609601 -3.28178184"></polygon>
                    </g>
                    <g transform="translate(90.185264, 9.855397)">
                        <mask id="mask-12" fill="white">
                            <use xlink:href="#path-11"></use>
                        </mask>
                        <g id="Clip-12"></g>
                        <polygon id="Fill-11" fill="#FFFFFF" mask="url(#mask-12)" points="-3.27109768 23.6358652 17.6409198 23.6358652 17.6409198 -3.28680754 -3.27109768 -3.28680754"></polygon>
                    </g>
                    <g transform="translate(105.865525, 15.760594)">
                        <mask id="mask-14" fill="white">
                            <use xlink:href="#path-13"></use>
                        </mask>
                        <g id="Clip-14"></g>
                        <polygon id="Fill-13" fill="#FFFFFF" mask="url(#mask-14)" points="-3.26609601 18.3890348 18.9513595 18.3890348 18.9513595 -3.28178184 -3.26609601 -3.28178184"></polygon>
                    </g>
                    <g transform="translate(124.816018, 15.760594)">
                        <mask id="mask-16" fill="white">
                            <use xlink:href="#path-15"></use>
                        </mask>
                        <g id="Clip-16"></g>
                        <polygon id="Fill-15" fill="#FFFFFF" mask="url(#mask-16)" points="-3.26522948 23.6408909 18.952226 23.6408909 18.952226 -3.28178184 -3.26522948 -3.28178184"></polygon>
                    </g>
                </g>
            </g>
        </g>
    </g>
</svg>