<?xml version="1.0" encoding="UTF-8"?>
<svg width="120px" height="90px" viewBox="0 0 120 90" version="1.1" xmlns="http://www.w3.org/2000/svg" xmlns:xlink="http://www.w3.org/1999/xlink">
    <title>merpay</title>
    <g id="LOGO-+-SDK-+-payment-icon" stroke="none" stroke-width="1" fill="none" fill-rule="evenodd">
        <g id="payment" transform="translate(-918.000000, -755.000000)">
            <g id="merpay" transform="translate(918.000000, 755.000000)">
                <g id="payment-4:3bg" transform="translate(-20.000000, -15.000000)"></g>
                <g transform="translate(33.000000, 2.001641)" fill-rule="nonzero">
                    <polygon id="路径" fill="#222222" points="47.147138 63.6199481 43.1145859 73.53272 39.0328563 63.6199481 34.9862535 63.6199481 41.2950197 77.6355256 37.9720282 85.3563876 41.4636282 85.3563876 50.8916507 63.6199481"></polygon>
                    <path d="M8.73953803,56.2011763 L0,56.2011763 L0,78.9984439 L3.6672338,78.9984439 L3.6672338,70.1465002 L8.73953803,70.1465002 C13.5589296,70.1465002 16.4674254,67.2520552 16.4674254,63.2265284 C16.4674254,59.2010016 13.5589296,56.2011763 8.73953803,56.2011763 Z M9.35776901,66.7954073 L3.73748732,66.7954073 L3.73748732,59.5522693 L9.35776901,59.5522693 C11.8377183,59.5522693 12.7229127,61.7582298 12.7229127,63.2195031 C12.7229127,64.6807763 11.830693,66.8024326 9.35776901,66.8024326 L9.35776901,66.7954073 Z" id="形状" fill="#222222"></path>
                    <path d="M25.5231042,63.0930467 C23.3820977,63.0083311 21.3020216,63.8163313 19.7796087,65.3240928 C18.2571958,66.8318543 17.4291188,68.9040196 17.4931268,71.0457453 C17.4931268,75.7246298 20.6615606,78.9984439 25.2210141,78.9984439 C27.075707,78.9984439 29.0779324,77.8954636 29.8015437,76.5184946 L29.8015437,78.900089 L33.4336507,78.900089 L33.4336507,71.03872 C33.3985239,66.2123031 30.3565465,63.0930467 25.5231042,63.0930467 Z M25.5231042,75.808934 C22.8534704,75.808934 21.1954873,73.9823425 21.1954873,71.0457453 C21.1954873,68.326934 23.0572056,66.2825566 25.5231042,66.2825566 C28.1505859,66.2825566 29.7383155,68.1513002 29.7383155,71.0457453 C29.7383155,73.3500608 28.3332451,75.808934 25.5231042,75.808934 Z" id="形状-2" fill="#222222"></path>
                    <path d="M26.4996282,51.5433678 L46.8309972,41.4479369 C48.2550092,40.7547667 49.1639055,39.3152273 49.1774648,37.7315256 L49.1774648,14.2527988 C49.1639055,12.6690971 48.2550092,11.2295577 46.8309972,10.5363876 L26.4996282,0.447981927 C25.2957129,-0.149327309 23.8817519,-0.149327309 22.6778366,0.447981927 L2.34646761,10.5363876 C0.922455623,11.2295577 0.013559273,12.6690971 0,14.2527988 L0,37.7315256 C0.013559273,39.3152273 0.922455623,40.7547667 2.34646761,41.4479369 L22.6778366,51.5433678 C23.8835049,52.1331521 25.2939599,52.1331521 26.4996282,51.5433678 Z" id="路径-2" fill="#FF0211"></path>
                    <circle id="椭圆形" fill="#4DC9FF" cx="41.8008451" cy="14.4003312" r="10.8892958"></circle>
                    <path d="M7.02535211,34.2118242 L4.91774648,33.1228946 L4.91774648,26.6946974 C4.91774648,24.8189284 5.95047324,22.9431594 8.07915493,23.1820214 C10.0673296,23.3998073 11.591831,25.2053228 12.0765803,26.3996326 C12.711469,25.7766758 13.6160775,25.5129415 14.4862761,25.6970974 C15.5752056,25.8516552 19.6709859,27.4534354 19.6709859,33.1439707 L19.6709859,40.7454016 L17.3526197,39.5510918 L17.3526197,32.4695369 C17.3526197,30.397058 16.1161577,28.661796 14.4511493,28.4650862 C13.7486141,28.3807819 13.1655099,28.9498354 13.1444338,30.1652214 C13.1233577,31.3806073 13.1444338,37.3662073 13.1444338,37.3662073 L11.0368282,36.2702523 L11.0368282,29.5680664 C11.0368282,26.6103932 9.17510986,25.6760214 8.36016901,25.5846918 C7.89649577,25.5355143 7.03940282,25.8165284 7.03940282,27.3340045 L7.02535211,34.2118242 Z" id="路径-3" fill="#FFFFFF"></path>
                </g>
            </g>
        </g>
    </g>
</svg>