<?xml version="1.0" encoding="UTF-8"?>
<svg width="134px" height="56px" viewBox="0 0 134 56" version="1.1" xmlns="http://www.w3.org/2000/svg" xmlns:xlink="http://www.w3.org/1999/xlink">
    <title>merpay_horizon</title>
    <defs>
        <path d="M0,0 L0,28.474463 L4.56583799,28.474463 L4.56583799,17.4231223 L10.8708288,17.4231223 C16.8702321,17.4231223 20.4429104,13.8040226 20.4429104,8.77699376 L20.4429104,8.77699376 C20.4429104,3.67325086 16.8657382,0.00902518638 10.8708288,0.00902518638 L10.8708288,0.00902518638 L4.56583799,0.00902518638 L4.56583799,0 L0,0 Z M4.62425915,4.18768648 L11.6392917,4.18768648 C14.7266251,4.18768648 15.8186513,6.94036833 15.8186513,8.77248117 L15.8186513,8.77248117 C15.8186513,10.6361822 14.7221312,13.2489736 11.6392917,13.2489736 L11.6392917,13.2489736 L4.62425915,13.2489736 L4.62425915,4.18768648 Z" id="path-1"></path>
        <path d="M0,9.92770502 C0,15.7760258 3.93219315,19.8644352 9.56309374,19.8644352 L9.56309374,19.8644352 C11.8729763,19.8644352 14.3626164,18.4926069 15.2658973,16.7687963 L15.2658973,16.7687963 L15.2658973,19.7425952 L19.782302,19.7425952 L19.782302,9.92770502 C19.782302,3.89436792 15.9984087,0 9.98552364,0 L9.98552364,0 C4.20182925,0 0,4.1741487 0,9.92770502 L0,9.92770502 Z M4.55235618,9.92770502 C4.55235618,6.54326013 6.8757206,3.9801072 9.94058429,3.9801072 L9.94058429,3.9801072 C13.212169,3.9801072 15.2299458,6.31763047 15.2299458,9.92770502 L15.2299458,9.92770502 C15.2299458,12.8112521 13.4368657,15.8798154 9.94058429,15.8798154 L9.94058429,15.8798154 C6.62406023,15.8798154 4.55235618,13.6009559 4.55235618,9.92770502 L4.55235618,9.92770502 Z" id="path-3"></path>
        <path d="M21.2877702,0.419671167 L2.19753423,9.90514206 C0.853847656,10.5730058 0,11.935809 0,13.4294773 L0,13.4294773 L0,35.5637469 C0,37.0619279 0.853847656,38.4292436 2.19753423,39.0971074 L2.19753423,39.0971074 L21.2877702,48.5825783 C22.4157479,49.1421399 23.7459527,49.1376273 24.8739304,48.5780657 L24.8739304,48.5780657 L43.9596725,39.0971074 C45.307853,38.424731 46.1572067,37.0619279 46.1572067,35.5637469 L46.1572067,35.5637469 L46.1572067,13.4294773 C46.1572067,11.935809 45.307853,10.5730058 43.9596725,9.90062946 L43.9596725,9.90062946 L24.8739304,0.419671167 C24.3076946,0.139890389 23.6920255,0 23.0763564,0 L23.0763564,0 C22.4606873,0 21.8495121,0.139890389 21.2877702,0.419671167 L21.2877702,0.419671167 Z" id="path-5"></path>
        <path d="M0,10.2661495 C0,15.929454 4.5793198,20.5277864 10.2237022,20.5277864 L10.2237022,20.5277864 C15.8680846,20.5277864 20.4474044,15.929454 20.4474044,10.2661495 L20.4474044,10.2661495 C20.4474044,4.59833246 15.8680846,0 10.2237022,0 L10.2237022,0 C4.5793198,0 0,4.59833246 0,10.2661495 L0,10.2661495 Z" id="path-7"></path>
        <path d="M0,3.33029378 L0,9.37265606 L1.98182535,10.3970147 L1.97733141,3.9124183 C1.97733141,2.48192626 2.78623972,2.22019585 3.21316355,2.26532178 L3.21316355,2.26532178 C3.9771325,2.35106105 5.72976716,3.23101673 5.72976716,6.02431191 L5.72976716,6.02431191 L5.72976716,12.3374298 L7.72507432,13.3708136 C7.72507432,13.3708136 7.70260464,7.73909732 7.72507432,6.58387347 L7.72507432,6.58387347 C7.73855612,5.4331622 8.29580406,4.90067621 8.94293071,4.98190288 L8.94293071,4.98190288 C10.515808,5.1669192 11.6752432,6.80499053 11.6752432,8.75443079 L11.6752432,8.75443079 L11.6752432,15.4285561 L13.8458138,16.5521918 L13.8458138,9.43583236 C13.8458138,4.07035906 9.99900544,2.56315293 8.98337612,2.41874995 L8.98337612,2.41874995 C8.05762551,2.29239734 7.41948673,2.42326254 6.71843287,3.05502559 L6.71843287,3.05502559 C6.2735333,1.93138989 4.83098016,0.230142253 2.96150318,0.022562966 L2.96150318,0.022562966 C2.84466087,0.00902518638 2.73680643,0 2.62895199,0 L2.62895199,0 C0.862835526,0 0,1.66063429 0,3.33029378 L0,3.33029378 Z" id="path-9"></path>
    </defs>
    <g id="LOGO-+-SDK-+-payment-icon" stroke="none" stroke-width="1" fill="none" fill-rule="evenodd">
        <g id="payment_horizon" transform="translate(-911.000000, -772.000000)">
            <g id="merpay_horizon" transform="translate(911.000000, 772.000000)">
                <g id="payment-4:3bg" transform="translate(-22.333333, -9.333333)"></g>
                <g id="编组" transform="translate(5.000000, 4.000000)">
                    <polygon id="Fill-1" fill="#222222" points="117.335295 18.5404404 112.320064 30.9229961 107.241917 18.5404404 102.217698 18.5404404 110.059615 36.049302 105.929688 45.6927136 110.266336 45.6927136 122 18.5404404"></polygon>
                    <g transform="translate(58.690791, 9.268866)">
                        <mask id="mask-2" fill="white">
                            <use xlink:href="#path-1"></use>
                        </mask>
                        <g id="Clip-3"></g>
                        <polygon id="Fill-2" fill="#222222" mask="url(#mask-2)" points="-3.29854831 31.7867064 23.7414588 31.7867064 23.7414588 -3.3122434 -3.29854831 -3.3122434"></polygon>
                    </g>
                    <g transform="translate(80.454919, 17.878894)">
                        <mask id="mask-4" fill="white">
                            <use xlink:href="#path-3"></use>
                        </mask>
                        <g id="Clip-5"></g>
                        <polygon id="Fill-4" fill="#222222" mask="url(#mask-4)" points="-3.29854831 23.1766786 23.0808503 23.1766786 23.0808503 -3.3122434 -3.29854831 -3.3122434"></polygon>
                    </g>
                    <g>
                        <mask id="mask-6" fill="white">
                            <use xlink:href="#path-5"></use>
                        </mask>
                        <g id="Clip-7"></g>
                        <polygon id="Fill-6" fill="#FF0211" mask="url(#mask-6)" points="-3.29854831 52.3144929 49.4602489 52.3144929 49.4602489 -3.3122434 -3.29854831 -3.3122434"></polygon>
                    </g>
                    <g transform="translate(29.012845, 3.307731)">
                        <mask id="mask-8" fill="white">
                            <use xlink:href="#path-7"></use>
                        </mask>
                        <g id="Clip-9"></g>
                        <polygon id="Fill-8" fill="#4DC8FF" mask="url(#mask-8)" points="-3.29405438 23.8400298 23.7459527 23.8400298 23.7459527 -3.3122434 -3.29405438 -3.3122434"></polygon>
                    </g>
                    <g transform="translate(4.615271, 21.849976)">
                        <mask id="mask-10" fill="white">
                            <use xlink:href="#path-9"></use>
                        </mask>
                        <g id="Clip-11"></g>
                        <polygon id="Fill-10" fill="#FFFFFF" mask="url(#mask-10)" points="-3.29854831 19.8644352 17.1443621 19.8644352 17.1443621 -3.3122434 -3.29854831 -3.3122434"></polygon>
                    </g>
                </g>
            </g>
        </g>
    </g>
</svg>