<svg width="360" height="270" viewBox="0 0 360 270" fill="none" xmlns="http://www.w3.org/2000/svg">
<path d="M261.769 19H97.2443C78.884 19 64 33.884 64 52.2443V216.769C64 235.13 78.884 250.014 97.2443 250.014H261.769C280.13 250.014 295.014 235.13 295.014 216.769V52.2443C295.014 33.884 280.13 19 261.769 19Z" fill="#00DE5A"/>
<path d="M144.566 93.9082L131.935 126.084H142.681L144.189 121.811H156.255L157.763 126.084H168.51L155.878 93.9082H144.503H144.566ZM146.64 114.081L150.222 104.026L153.804 114.081H146.64Z" fill="black"/>
<path d="M213.068 113.83H227.773V106.1H213.068V101.764H227.899V93.9082H202.824V126.084H228.213V118.166H213.068V113.83Z" fill="black"/>
<path d="M181.272 115.024L173.731 93.9082H162.984L175.616 126.084H186.928L199.559 93.9082H188.813L181.272 115.024Z" fill="black"/>
<path d="M118.236 111.127L106.233 93.9082H96.3037V126.084H106.736V108.865L118.676 126.084H128.605V93.9082H118.236V111.127Z" fill="black"/>
<path d="M255.742 115.023L256.747 114.646C260.455 113.075 262.403 109.681 262.403 105.408C262.403 101.323 260.895 98.3693 258.004 96.484C255.302 94.7243 251.782 93.9702 246.943 93.9702H233.369V126.146H243.424V117.16H247.069L253.228 126.146H263.974L255.867 115.149L255.742 115.023ZM248.703 108.864H243.173V102.077H248.703C250.588 102.077 252.097 103.585 252.097 105.471C252.097 107.356 250.588 108.864 248.703 108.864Z" fill="black"/>
<path d="M226.646 145.751L217.723 166.112L207.605 145.751H199.812L214.14 174.031L208.233 187.228H215.774L234.188 145.814H226.646V145.751ZM195.539 177.236H188.123V174.282C185.484 176.607 182.279 177.864 178.382 177.864C169.521 177.864 162.609 170.637 162.609 161.462C162.609 152.287 169.521 145.06 178.382 145.06C182.216 145.06 185.421 146.316 188.123 148.642V145.688H195.539V177.173V177.236ZM189.003 161.525C189.003 155.617 184.855 151.093 179.388 151.093C173.92 151.093 169.773 155.617 169.773 161.525C169.773 167.432 173.92 171.957 179.388 171.957C184.855 171.957 189.003 167.432 189.003 161.525ZM125.971 187.228H133.7V174.596C136.277 176.733 139.419 177.927 143.127 177.927C151.988 177.927 158.901 170.7 158.901 161.525C158.901 152.349 151.988 145.122 143.127 145.122C139.294 145.122 136.089 146.379 133.386 148.705V145.751H125.971V187.165V187.228ZM142.122 151.093C147.589 151.093 151.737 155.617 151.737 161.525C151.737 167.432 147.589 171.957 142.122 171.957C136.654 171.957 132.506 167.432 132.506 161.525C132.506 155.617 136.654 151.093 142.122 151.093Z" fill="black"/>
</svg>
