<?xml version="1.0" encoding="UTF-8"?>
<svg width="120px" height="90px" viewBox="0 0 120 90" version="1.1" xmlns="http://www.w3.org/2000/svg" xmlns:xlink="http://www.w3.org/1999/xlink">
    <title>paidy</title>
    <defs>
        <linearGradient x1="27.8936939%" y1="128.243855%" x2="78.6644814%" y2="-59.8224401%" id="linearGradient-1">
            <stop stop-color="#A6009C" offset="0%"></stop>
            <stop stop-color="#FF009C" offset="100%"></stop>
        </linearGradient>
        <linearGradient x1="10.7873368%" y1="116.595899%" x2="65.8765865%" y2="16.5637946%" id="linearGradient-2">
            <stop stop-color="#A6009C" offset="0.901231%"></stop>
            <stop stop-color="#FF009C" offset="100%"></stop>
        </linearGradient>
        <linearGradient x1="-457.931221%" y1="535.256751%" x2="216.647463%" y2="-109.399338%" id="linearGradient-3">
            <stop stop-color="#A6009C" offset="0%"></stop>
            <stop stop-color="#FF009C" offset="100%"></stop>
        </linearGradient>
    </defs>
    <g id="LOGO-+-SDK-+-payment-icon" stroke="none" stroke-width="1" fill="none" fill-rule="evenodd">
        <g id="payment" transform="translate(-568.000000, -155.000000)">
            <g id="paidy" transform="translate(568.000000, 155.000000)">
                <g id="payment-4:3bg" transform="translate(-20.000000, -15.000000)"></g>
                <g id="Paidy" transform="translate(1.000000, 28.000000)" fill-rule="nonzero">
                    <g id="download">
                        <path d="M14.8546146,13.9946241 C14.705262,13.7984273 13.1760888,11.8703254 13.1760888,11.8703254 L13.1760888,24.0892862 C13.1760888,25.0878442 13.9690709,25.8976113 14.9541829,25.8976113 C15.939295,25.8976113 16.7323999,25.0878442 16.7323999,24.0892862 L16.7074464,16.0352976 C16.1598204,15.5341985 15.6405899,14.9749809 14.8546146,13.9946241 Z" id="路径" fill="url(#linearGradient-1)"></path>
                        <path d="M31.0643421,21.1952881 C30.4526728,21.1952881 29.8765285,21.0608499 29.357298,20.8139406 C29.3182082,21.1952881 29.4711256,22.4081187 27.5933402,23.8097401 C27.4546821,23.9077758 19.9366569,28.7735337 18.3611414,29.5833008 C16.3269969,30.6363371 14.054503,30.313108 12.7173369,29.6122973 C12.1981187,29.3908697 5.60472706,25.3892317 5.3380068,25.1931603 C4.84724546,24.8372946 4.03995511,24.1474046 3.78390464,23.257803 C3.54919377,22.4879531 3.55986356,21.2860432 3.55986356,21.2860432 L3.55986356,11.1187018 C3.55986356,9.54639028 4.01506302,6.72495867 6.82098519,5.4685706 C9.83673845,4.33200949 11.4761867,6.11491567 13.0445603,8.06849932 C13.1653945,8.22101321 16.2238638,12.3460432 17.5717242,13.5697192 C19.3107285,15.1529765 21.0675567,15.9627437 23.1835686,15.9627437 C28.8771573,15.9627437 31.0429533,11.3656236 31.0429533,7.97409134 C31.0393885,3.57309285 27.5115958,0 23.1800038,0 C20.4914125,0 18.0197818,1.39075092 16.590177,3.66023289 C16.853357,3.96888836 17.5255048,4.81495758 17.628638,4.93841224 C17.6570334,4.96745892 18.7879332,6.45988577 18.8484117,6.5470258 C19.0439837,6.30374418 20.6692833,3.66387314 23.176439,3.66387314 C25.7440732,3.66387314 27.4120275,5.70459682 27.4120275,7.97409134 C27.4120275,10.3452492 25.5235477,12.2625183 23.247489,12.2625183 C21.8997515,12.2625183 21.0284669,11.7723148 19.9579228,10.795523 C18.8875015,9.81873113 16.2060398,6.18754492 16.2060398,6.18754492 C15.9713781,5.8679938 14.1185463,3.58034825 12.7920746,2.67981336 C11.1347779,1.53962456 8.80540701,0.856959845 5.7007552,1.91726903 C2.59610339,2.97757319 0,6.40177986 0,11.1187018 L0.0142252442,21.2860432 C0.0142252442,21.6745457 -0.0142252442,22.9418545 0.295173449,24.1364839 C0.800168145,26.1046034 1.72125406,27.2157581 3.63098732,28.4285887 C4.54139853,28.9514038 9.78694198,32.1578357 10.5977848,32.6008164 C12.1376647,33.4359397 13.6669239,33.8572044 15.7188924,33.8608696 C17.3014146,33.8644849 18.8412822,33.468702 20.146488,32.7750462 C22.2482407,31.6820928 29.076294,27.2157581 29.5066506,26.9397268 C31.5088349,25.5599468 33.1411412,23.3848352 32.9740876,20.7159049 C32.405073,21.0172924 31.754191,21.1952881 31.0643421,21.1952881 Z" id="路径" fill="url(#linearGradient-2)"></path>
                        <path d="M31.0713488,19.2343235 C32.2235144,19.2343235 33.1588423,18.2866034 33.1588423,17.1100498 C33.1588423,15.9407767 32.2235144,14.9857761 31.0713488,14.9857761 C29.9190602,14.9857761 28.9837323,15.9336217 28.9837323,17.1100498 C28.9837323,18.2866034 29.9190602,19.2343235 31.0713488,19.2343235 Z" id="路径" fill="url(#linearGradient-3)"></path>
                        <path d="M45.3605134,32.5706902 C44.2508795,32.5706902 43.4023359,31.6375311 43.4023359,30.5710636 L43.4023359,15.7739528 C43.4023359,12.9744757 45.2952408,8.57538519 50.9739558,8.57538519 C51.9530446,8.57538519 58.0232721,8.57538519 58.0232721,16.7071119 C58.0232721,24.572184 53.5848592,25.0387636 51.7572268,25.0387636 C49.3421411,25.0387636 47.7755991,23.5058421 47.318691,22.6393373 L47.318691,30.5710636 C47.318691,31.6375311 46.4701474,32.5706902 45.3605134,32.5706902 Z M53.9764947,16.8404203 C53.9764947,15.3073733 53.7154044,14.1075974 53.1279511,13.2410926 C52.5404978,12.3746379 51.6919542,11.9747252 50.6475929,11.9747252 C49.6032315,11.9747252 48.7546879,12.3746379 48.1672346,13.2410926 C47.6450539,13.974289 47.3839636,15.1740649 47.3839636,16.8404203 C47.3839636,18.3734673 47.6450539,19.506589 48.2325072,20.2397854 C48.8199605,21.1062902 49.6685041,21.5062155 50.7128654,21.5062155 C51.6919542,21.5062155 52.5404978,21.1062902 53.1279511,20.2397854 C53.7154044,19.4399348 53.9764947,18.3068131 53.9764947,16.8404203 Z" id="形状" fill="#1C1C1C"></path>
                        <path d="M80.7377631,24.7722722 C79.5628566,24.7722722 78.5837678,23.8391132 78.5837678,22.7059915 L78.5837678,11.041654 C78.5837678,9.90854486 79.5628566,8.97539837 80.7377631,8.97539837 C81.9126697,8.97539837 82.8917584,9.90854486 82.8917584,11.041654 L82.8917584,22.7059915 C82.8917584,23.8391132 81.9126697,24.7722722 80.7377631,24.7722722 Z" id="路径" fill="#1C1C1C"></path>
                        <path d="M80.762102,1.73482978 C79.5317568,1.73482978 78.5173889,2.78927189 78.5173889,4.06806632 C78.5173889,5.34686075 79.5317568,6.40131541 80.762102,6.40131541 C81.9924473,6.40131541 83.0069381,5.34686075 83.0069381,4.06806632 C83.0069381,2.78927189 82.0140819,1.73482978 80.762102,1.73482978 Z" id="路径" fill="#1C1C1C"></path>
                        <path d="M99.0226918,1.24365096 C97.9130578,1.24365096 97.0645142,2.17680624 97.0645142,3.24326117 L97.0645142,11.0417293 C96.6076061,10.3085329 95.9548802,9.64201586 95.1716092,9.17543634 C94.4536108,8.77551103 93.6050671,8.57553582 92.6259784,8.57553582 C90.798346,8.57553582 89.2970765,9.37537388 88.1222929,10.9084083 C87.0126589,12.4414428 86.4252057,14.440994 86.4252057,16.9072001 C86.4252057,19.4400603 87.0126589,21.4396869 88.1222929,22.9060796 C88.7096232,23.639276 89.4928943,24.239164 90.471983,24.5724351 C91.4510718,24.9057062 92.4301606,25.1056688 93.474522,25.1056688 C95.367427,25.1056688 97.0645142,24.6390893 98.6963288,23.639276 C100.262871,22.6394628 101.111414,20.7064905 101.111414,17.9070133 L101.111414,3.24326117 C101.046142,2.11015203 100.132326,1.24365096 99.0226918,1.24365096 Z M96.2812432,20.3732194 C95.6937899,21.2397242 94.9105189,21.6396495 93.8008849,21.6396495 C92.691251,21.6396495 91.8427073,21.2397242 91.3205267,20.3732194 C90.7330734,19.5067145 90.471983,18.3069386 90.471983,16.7738916 C90.471983,15.3741531 90.7330734,14.2411569 91.3205267,13.4413063 C91.9079799,12.5748014 92.691251,12.1748385 93.7356123,12.1748385 C94.7799737,12.1748385 95.6285173,12.5748014 96.2159706,13.374652 C96.8034238,14.2411569 97.0645142,15.3741531 97.0645142,16.7738916 C97.0645142,18.3069386 96.8034238,19.5733688 96.2812432,20.3732194 Z" id="形状" fill="#1C1C1C"></path>
                        <path d="M73.0567409,24.8253696 C74.1663749,24.8253696 75.0149185,23.8923361 75.0149185,22.8258686 L75.0149185,15.5605589 C75.0149185,12.7612073 73.1220135,8.36201638 67.4434215,8.36201638 C66.4643327,8.36201638 60.3939822,8.36201638 60.3939822,16.493718 C60.3939822,24.3587901 64.8325181,24.8253696 66.6601505,24.8253696 C69.0752361,24.8253696 70.6417782,23.2924482 71.0985634,22.4259433 L71.0985634,22.8258686 C71.0985634,23.8923361 71.947107,24.8253696 73.0567409,24.8253696 Z M64.4408826,16.6270264 C64.4408826,15.0939794 64.7019729,13.8942035 65.2894262,13.0276986 C65.8768794,12.1612691 66.725423,11.7613438 67.7697844,11.7613438 C68.8141458,11.7613438 69.6626894,12.1612691 70.2501427,13.0276986 C70.7722004,13.760895 71.0332908,14.960671 71.0332908,16.6270264 C71.0332908,18.1600734 70.7722004,19.2931951 70.1848701,20.0263915 C69.5974168,20.8928963 68.7488732,21.2928216 67.7045118,21.2928216 C66.725423,21.2928216 65.8768794,20.8928963 65.2894262,20.0263915 C64.7019729,19.2265409 64.4408826,18.0934192 64.4408826,16.6270264 Z" id="形状" fill="#1C1C1C"></path>
                        <path d="M105.941586,31.3710398 C105.941586,31.9708022 106.398494,32.4373817 106.920675,32.5040359 C108.095581,32.6373444 109.988486,32.6373444 111.032725,31.7709651 C111.750723,31.1710771 112.338176,30.3045723 112.795084,28.9714879 L117.886346,11.5748752 C118.343254,10.2418159 117.364165,8.90874415 115.993441,8.90874415 C115.079625,8.90874415 114.296354,9.50863211 114.100536,10.3751244 L111.359088,20.1066025 L108.617762,10.4417786 C108.356671,9.50863211 107.5734,8.90874415 106.594312,8.90874415 C105.158315,8.90874415 104.179226,10.3751244 104.636134,11.7081962 L109.07467,26.7052445 C109.33576,27.5717494 109.270488,28.1716373 108.81358,28.5049084 C108.356671,28.9048337 107.769218,29.1047964 106.985947,29.1047964 C106.398494,29.1047964 105.876313,29.6380301 105.876313,30.2379181 L105.876313,31.3710398 L105.941586,31.3710398 Z" id="路径" fill="#1C1C1C"></path>
                    </g>
                </g>
            </g>
        </g>
    </g>
</svg>