<?xml version="1.0" encoding="UTF-8"?>
<svg width="162px" height="46px" viewBox="0 0 162 46" version="1.1" xmlns="http://www.w3.org/2000/svg" xmlns:xlink="http://www.w3.org/1999/xlink">
    <title>paypal_horizon</title>
    <defs>
        <path d="M4.65100683,0 C4.05270282,0 3.57007092,0.424377792 3.51024052,0.970006382 L3.51024052,0.970006382 L0.0241224961,22.8921506 C-0.0396965981,23.0740268 0.0241224961,23.3165284 0.203613699,23.4377792 L0.203613699,23.4377792 C0.323274501,23.6236971 0.566584798,23.6802808 0.746076,23.6802808 L0.746076,23.6802808 L4.76667894,23.6802808 C5.37296034,23.6802808 5.85160354,23.255903 5.91143394,22.7102744 L5.91143394,22.7102744 L6.81287865,16.8013189 C6.87270905,16.2516486 7.41517135,15.8272708 7.95364496,15.8272708 L7.95364496,15.8272708 L10.6579791,15.8272708 C16.2461385,15.8272708 19.4291159,13.0870028 20.2747189,7.72771751 L20.2747189,7.72771751 C20.6337013,5.35524357 20.2747189,3.52839821 19.1897943,2.25122314 L19.1897943,2.25122314 C18.0490279,0.727504786 15.9429978,0 13.0631612,0 L13.0631612,0 L4.65100683,0 Z M8.67559847,5.29461817 C8.73542887,4.93086577 9.03856957,4.68432248 9.39755197,4.68432248 L9.39755197,4.68432248 L9.99984467,4.68432248 C11.4995934,4.68432248 12.9435004,4.68432248 13.7212956,5.54116146 L13.7212956,5.54116146 C14.0842667,6.14741544 14.2637579,6.93958732 14.0842667,7.9742608 L14.0842667,7.9742608 C13.6016348,11.0176558 11.3201022,11.0176558 9.03856957,11.0176558 L9.03856957,11.0176558 L7.77415376,11.0176558 L8.67559847,5.29461817 Z M19.3094551,15.7706871 C18.946484,18.1391193 19.4889463,20.4550096 20.8131925,22.0353116 L20.8131925,22.0353116 C22.0736196,23.4984046 23.8166786,24.1087003 25.91872,24.1087003 L25.91872,24.1087003 C29.5244988,24.1087003 31.5068795,21.7968517 31.5068795,21.7968517 L31.5068795,21.7968517 L31.3273882,22.952776 C31.2635692,23.1346522 31.3273882,23.3771538 31.5068795,23.4984046 L31.5068795,23.4984046 C31.6265403,23.6802808 31.8060315,23.7409062 32.0493418,23.7409062 L32.0493418,23.7409062 L35.7109623,23.7409062 C36.313255,23.7409062 36.7918982,23.3165284 36.8557173,22.7668581 L36.8557173,22.7668581 L39.0175891,8.76643267 C39.0774195,8.58455648 39.0175891,8.34205488 38.8341092,8.21676239 L38.8341092,8.21676239 C38.654618,8.09551159 38.5947876,7.9136354 38.4152964,7.9136354 L38.4152964,7.9136354 L34.3907048,7.9136354 C34.0277337,7.9136354 33.7325704,8.15613699 33.6687513,8.52393108 L33.6687513,8.52393108 L33.4892601,9.67985535 L33.1901081,9.25547756 C32.2886634,7.9742608 30.3621244,7.54584131 28.3837325,7.54584131 L28.3837325,7.54584131 C23.876509,7.54584131 20.091239,10.9570304 19.3094551,15.7706871 L19.3094551,15.7706871 Z M25.4999072,18.6281642 C24.8976145,17.8966177 24.6543042,16.9266114 24.8377841,15.7706871 L24.8377841,15.7706871 C25.1967665,13.4547969 27.0594863,11.8098277 29.404838,11.8098277 L29.404838,11.8098277 C30.5456043,11.8098277 31.5068795,12.1735801 32.1091722,12.9051266 L32.1091722,12.9051266 C32.7074762,13.6972984 32.9467978,14.7319719 32.7673066,15.8272708 L32.7673066,15.8272708 C32.3484938,18.1391193 30.5456043,19.7234631 28.2042413,19.7234631 L28.2042413,19.7234631 C26.9996559,19.7234631 26.0982112,19.3597107 25.4999072,18.6281642 L25.4999072,18.6281642 Z M55.9017282,7.9136354 C55.5387571,7.9136354 55.1199443,8.09551159 54.9404531,8.45926399 L54.9404531,8.45926399 L49.2924633,16.8013189 L46.8872812,8.76643267 C46.7676204,8.27738779 46.2889772,7.9136354 45.7465149,7.9136354 L45.7465149,7.9136354 L41.7219232,7.9136354 C41.4826016,7.9136354 41.3031104,8.03488619 41.1196305,8.21676239 L41.1196305,8.21676239 C40.9999697,8.39863859 40.9401393,8.64114018 40.9999697,8.88768347 L40.9999697,8.88768347 L45.5071933,22.1606041 L41.3031104,28.1867688 C41.1196305,28.4292704 41.1196305,28.6758137 41.24328,28.9183153 L41.24328,28.9183153 C41.3589521,29.1608168 41.6022624,29.2820676 41.841584,29.2820676 L41.841584,29.2820676 L45.9260061,29.2820676 C46.2889772,29.2820676 46.6479596,29.1001914 46.8872812,28.7930228 L46.8872812,28.7930228 L60.4687822,9.06955967 C60.588443,8.82301638 60.6482734,8.58455648 60.5246239,8.34205488 L60.5246239,8.34205488 C60.5246239,8.03488619 60.289291,7.9136354 59.9861503,7.9136354 L59.9861503,7.9136354 L55.9017282,7.9136354 Z" id="path-1"></path>
        <path d="M44.0040198,0 C43.7008791,0 43.4017271,0.242501595 43.3418967,0.606253989 L43.3418967,0.606253989 L39.8557787,23.1346522 C39.7959483,23.3165284 39.8557787,23.55903 40.0352699,23.7409062 L40.0352699,23.7409062 C40.2147611,23.9227824 40.398241,23.9874495 40.5777322,23.9874495 L40.5777322,23.9874495 L44.0638502,23.9874495 C44.6621543,23.9874495 45.1447862,23.55903 45.2046166,22.952776 L45.2046166,22.952776 L48.6309042,0.852797277 C48.6867459,0.670921081 48.6309042,0.424377792 48.451413,0.242501595 L48.451413,0.242501595 C48.2679331,0.0565837056 48.0884419,0 47.9089507,0 L47.9089507,0 L44.0040198,0 Z M4.58775173,0 C3.98944772,0 3.50681582,0.424377792 3.44698542,1.03467347 L3.44698542,1.03467347 L0.0206977955,23.1346522 C-0.035143912,23.3165284 0.0206977955,23.55903 0.204177692,23.7409062 L0.204177692,23.7409062 C0.383668894,23.9227824 0.563160097,23.9874495 0.7426513,23.9874495 L0.7426513,23.9874495 L5.13021403,23.9874495 C5.54902684,23.9874495 5.91199794,23.6802808 5.96783965,23.255903 L5.96783965,23.255903 L6.92911475,16.9831951 C6.99293385,16.3769411 7.53140746,15.9525633 8.07386976,15.9525633 L8.07386976,15.9525633 L10.7742152,15.9525633 C16.3663633,15.9525633 19.6091711,13.2122953 20.4507854,7.72771751 L20.4507854,7.72771751 C20.8097678,5.35524357 20.4507854,3.47181451 19.3698494,2.19059775 L19.3698494,2.19059775 C18.1054336,0.788130185 16.0033922,0 13.1195669,0 L13.1195669,0 L4.58775173,0 Z M8.73200417,5.41586896 C8.79582326,5.05211657 9.09497527,4.80961498 9.45395767,4.80961498 L9.45395767,4.80961498 L10.0562504,4.80961498 C11.6198182,4.80961498 13.0597365,4.80961498 13.78169,5.72303765 L13.78169,5.72303765 C14.1446611,6.20804084 14.2603332,7.00021272 14.1446611,8.09551159 L14.1446611,8.09551159 C13.6620292,11.199532 11.3166775,11.199532 9.09497527,11.199532 L9.09497527,11.199532 L7.83055946,11.199532 L8.73200417,5.41586896 Z M19.3698494,15.8878962 C19.0068783,18.3209955 19.5493407,20.6409275 20.8695982,22.2212295 L20.8695982,22.2212295 C22.134014,23.6802808 23.877073,24.3512019 25.9791144,24.3512019 L25.9791144,24.3512019 C29.5848932,24.3512019 31.6271042,21.9787279 31.6271042,21.9787279 L31.6271042,21.9787279 L31.447613,23.1346522 C31.3837939,23.3165284 31.447613,23.55903 31.6271042,23.7409062 L31.6271042,23.7409062 C31.746765,23.9227824 31.9860867,23.9874495 32.1655779,23.9874495 L32.1655779,23.9874495 L35.8311871,23.9874495 C36.4334798,23.9874495 36.912123,23.55903 36.9759421,22.952776 L36.9759421,22.952776 L39.1976443,8.82301638 C39.2574747,8.64114018 39.1976443,8.39863859 39.0181531,8.21676239 L39.0181531,8.21676239 C38.954334,8.09551159 38.7748428,7.9742608 38.5355212,7.9742608 L38.5355212,7.9742608 L34.4510992,7.9742608 C34.0881281,7.9742608 33.7889761,8.21676239 33.7291457,8.58455648 L33.7291457,8.58455648 L33.5496545,9.74048075 L33.2465138,9.31206126 C32.3450691,8.03488619 30.4225188,7.6105084 28.4401382,7.6105084 L28.4401382,7.6105084 C23.9369034,7.6105084 20.091803,11.0782812 19.3698494,15.8878962 L19.3698494,15.8878962 Z M25.5603016,18.8706658 C24.9540202,18.1391193 24.7146986,17.1084876 24.8981785,15.9525633 L24.8981785,15.9525633 C25.2571609,13.636673 27.1198807,11.9917039 29.4652324,11.9917039 L29.4652324,11.9917039 C30.6059987,11.9917039 31.5632852,12.3554563 32.1655779,13.0870028 L32.1655779,13.0870028 C32.827701,13.8185492 33.0670226,14.8532227 32.8875314,16.009147 L32.8875314,16.009147 C32.528549,18.3856626 30.6618404,19.9659647 28.3244661,19.9659647 L28.3244661,19.9659647 C27.1198807,19.9659647 26.218436,19.6022123 25.5603016,18.8706658 L25.5603016,18.8706658 Z" id="path-3"></path>
        <path d="M5.16535794,0 C4.96991197,0 4.80637554,0.145500957 4.77845469,0.339502234 L4.77845469,0.339502234 L0,31.319081 L6.87650741,31.319081 L8.32041442,31.3716231 L7.67424609,35.5709424 L13.2464508,35.5790257 C13.2863377,35.5790257 13.3262246,35.5669007 13.3621229,35.5386088 L13.3621229,35.5386088 C13.4059985,35.5022336 13.4339193,35.4416082 13.4339193,35.3809828 L13.4339193,35.3809828 L13.4897611,35.1101893 L14.6105839,27.6977239 L14.6783917,27.3218464 C14.7860864,26.6630504 15.1131593,26.0689215 15.6157346,25.640502 L15.6157346,25.640502 C16.1103326,25.2080408 16.7325688,24.9736226 17.3827258,24.9736226 L17.3827258,24.9736226 L18.2722044,24.9736226 C19.5485863,24.9897894 20.8249682,24.8402468 22.0694405,24.520953 L22.0694405,24.520953 C23.1583538,24.2501595 24.1914254,23.7772814 25.1088249,23.1265688 L25.1088249,23.1265688 C26.0262244,22.4475643 26.7920535,21.5866837 27.3664254,20.5924271 L27.3664254,20.5924271 C28.0644467,19.3435439 28.5470786,17.9814933 28.7943776,16.5669007 L28.7943776,16.5669007 C29.0416766,15.3988513 29.0935296,14.1984684 28.9419593,13.0142523 L28.9419593,13.0142523 C28.8262872,12.108913 28.4553387,11.2561157 27.8729894,10.5569028 L27.8729894,10.5569028 C27.4980523,10.1406084 27.0553073,9.79302276 26.5607093,9.53435439 L26.5607093,9.53435439 L25.9065636,9.15847692 L25.9065636,8.30567964 L25.9065636,8.208679 C26.1179643,7.10125505 26.1179643,5.96553925 25.9065636,4.86619868 L25.9065636,4.86619868 C25.6991515,3.96490108 25.2723613,3.12827058 24.6660799,2.43714103 L24.6660799,2.43714103 C23.274026,0.824505424 20.6175562,0 16.768467,0 L16.768467,0 L5.16535794,0 Z" id="path-5"></path>
        <path d="M20.9412671,0.687087854 C19.3976428,8.64114018 14.112624,11.397575 7.36375482,11.397575 L7.36375482,11.397575 L3.92550111,11.397575 C3.10781896,11.397575 2.40580893,11.9997873 2.27817074,12.820251 L2.27817074,12.820251 L0.547077806,24.019783 L0.0125928915,27.1925122 C-0.0312827358,27.4511806 0.0405137453,27.709849 0.212027561,27.9038502 L0.212027561,27.9038502 C0.379552684,28.0978515 0.618874287,28.2110189 0.878139358,28.2150606 L0.878139358,28.2150606 L6.96089678,28.2150606 C7.67886159,28.2150606 8.29312038,27.6896405 8.41278118,26.9702191 L8.41278118,26.9702191 L8.46862289,26.6630504 L9.63731005,19.3516273 L9.71309522,18.9514997 C9.82477864,18.2320783 10.4430261,17.7026165 11.1649796,17.7066582 L11.1649796,17.7066582 L12.0744017,17.7066582 C17.9577245,17.7066582 22.6005636,15.3018507 23.9527306,8.33801319 L23.9527306,8.33801319 C24.5191251,5.42799404 24.2279505,2.9989364 22.7321905,1.29334184 L22.7321905,1.29334184 C22.2575359,0.763880026 21.6911415,0.327377154 21.0649166,0.00404169326 L21.0649166,0.00404169326 L21.0649166,0 C21.0290184,0.226334822 20.9891314,0.452669645 20.9412671,0.687087854 L20.9412671,0.687087854 Z" id="path-7"></path>
        <path d="M12.6242146,0 L3.45021979,0 C2.73225497,0 2.11799619,0.53350351 2.01030147,1.25292491 L2.01030147,1.25292491 L0.0558417075,13.7134652 L0,14.085301 C0.143592962,13.2729207 0.837625613,12.6909168 1.65131906,12.6909168 L1.65131906,12.6909168 L5.08159538,12.6909168 C11.8184985,12.6909168 17.1035173,9.92235695 18.6431529,1.92384599 L18.6431529,1.92384599 C18.6910172,1.68134439 18.7309042,1.44692619 18.7628137,1.22867475 L18.7628137,1.22867475 C18.355967,1.01042331 17.9770411,0.820463731 17.5422735,0.679004467 L17.5422735,0.679004467 L17.1513816,0.549670283 C16.6567836,0.408211019 16.1581969,0.303126994 15.6516329,0.230376516 L15.6516329,0.230376516 C14.6704143,0.0767921719 13.6812183,0 12.6920224,0 L12.6920224,0 C12.6720789,0 12.6441581,0 12.6242146,0 L12.6242146,0 Z" id="path-9"></path>
        <path d="M6.55829689,0 C5.73662605,0 5.03062732,0.606253989 4.89900044,1.42671772 L4.89900044,1.42671772 L0.0128510296,32.5598809 C-0.0350132911,32.8549245 0.0527379635,33.1540098 0.244195246,33.3803446 L0.244195246,33.3803446 C0.435652529,33.6066794 0.714861067,33.7319719 1.01002438,33.7319719 L1.01002438,33.7319719 L8.34922022,33.7319719 L8.5406775,32.4669219 L10.0843018,22.136354 L12.0746599,9.67985535 C12.190332,8.96043395 12.8085794,8.43501383 13.5265442,8.43501383 L13.5265442,8.43501383 L22.7125051,8.43501383 C23.7296219,8.43097213 24.7467388,8.50776431 25.7558782,8.66134865 L25.7558782,8.66134865 C26.3821031,8.75834929 26.9963618,8.94426718 27.6026432,9.13826845 L27.6026432,9.13826845 C28.0374108,9.28376941 28.4681897,9.46564561 28.8790251,9.67985535 L28.8790251,9.67985535 C29.3417136,6.72941927 28.8830138,4.68432248 27.2755704,2.86556052 L27.2755704,2.86556052 C25.5365001,0.860880664 22.3734662,0 18.3209537,0 L18.3209537,0 L6.55829689,0 Z" id="path-11"></path>
    </defs>
    <g id="LOGO-+-SDK-+-payment-icon" stroke="none" stroke-width="1" fill="none" fill-rule="evenodd">
        <g id="payment_horizon" transform="translate(-547.000000, -977.000000)">
            <g id="paypal_horizon" transform="translate(547.000000, 977.000000)">
                <g id="payment-4:3bg" transform="translate(-27.000000, -7.666667)"></g>
                <g id="编组" transform="translate(4.000000, 4.000000)">
                    <g transform="translate(44.263225, 8.527973)">
                        <mask id="mask-2" fill="white">
                            <use xlink:href="#path-1"></use>
                        </mask>
                        <g id="Clip-2"></g>
                        <polygon id="Fill-1" fill="#253B80" mask="url(#mask-2)" points="-3.00329579 32.3254627 63.5959178 32.3254627 63.5959178 -3.04743672 -3.00329579 -3.04743672"></polygon>
                    </g>
                    <g transform="translate(104.348338, 8.527973)">
                        <mask id="mask-4" fill="white">
                            <use xlink:href="#path-3"></use>
                        </mask>
                        <g id="Clip-4"></g>
                        <polygon id="Fill-3" fill="#179AD6" mask="url(#mask-4)" points="-3.0027318 27.3945969 51.6583225 27.3945969 51.6583225 -3.04743672 -3.0027318 -3.04743672"></polygon>
                    </g>
                    <g transform="translate(1.141651, 1.196341)">
                        <mask id="mask-6" fill="white">
                            <use xlink:href="#path-5"></use>
                        </mask>
                        <g id="Clip-6"></g>
                        <polygon id="Fill-5" fill="#253B80" mask="url(#mask-6)" points="-3.00747482 38.6264625 32.0292079 38.6264625 32.0292079 -3.04339502 -3.00747482 -3.04339502"></polygon>
                    </g>
                    <g transform="translate(7.786188, 9.784939)">
                        <mask id="mask-8" fill="white">
                            <use xlink:href="#path-7"></use>
                        </mask>
                        <g id="Clip-8"></g>
                        <polygon id="Fill-7" fill="#179AD6" mask="url(#mask-8)" points="-3.00285931 31.254414 27.2274479 31.254414 27.2274479 -3.04743672 -3.00285931 -3.04743672"></polygon>
                    </g>
                    <g transform="translate(10.116211, 8.443097)">
                        <mask id="mask-10" fill="white">
                            <use xlink:href="#path-9"></use>
                        </mask>
                        <g id="Clip-10"></g>
                        <polygon id="Fill-9" fill="#222D65" mask="url(#mask-10)" points="-2.99949743 17.128696 21.7662998 17.128696 21.7662998 -3.04339502 -2.99949743 -3.04339502"></polygon>
                    </g>
                    <g>
                        <mask id="mask-12" fill="white">
                            <use xlink:href="#path-11"></use>
                        </mask>
                        <g id="Clip-12"></g>
                        <polygon id="Fill-11" fill="#253B80" mask="url(#mask-12)" points="-3.00260118 36.7794086 32.0540251 36.7794086 32.0540251 -3.03935333 -3.00260118 -3.03935333"></polygon>
                    </g>
                </g>
            </g>
        </g>
    </g>
</svg>