<?xml version="1.0" encoding="UTF-8"?>
<svg width="142px" height="40px" viewBox="0 0 142 40" version="1.1" xmlns="http://www.w3.org/2000/svg" xmlns:xlink="http://www.w3.org/1999/xlink">
    <title>paypay_horizon</title>
    <defs>
        <path d="M0,4.21842198 L0,4.73169006 C2.27930731,4.76777922 4.55063105,4.74371978 6.8219548,4.8720368 L6.8219548,4.8720368 C11.3925448,5.13669065 15.8753155,5.89055313 20.1385383,7.67095176 L20.1385383,7.67095176 C22.373936,8.60125015 24.4456707,9.80021229 26.1022601,11.6126902 L26.1022601,11.6126902 C27.5033754,13.1404647 28.4055181,14.9168534 28.2458468,17.0461139 L28.2458468,17.0461139 C28.0462577,19.6565633 26.8606986,21.7818139 24.8248899,23.413846 L24.8248899,23.413846 C23.1124156,24.7932539 21.1205166,25.5832056 19.028823,26.1646421 L19.028823,26.1646421 C16.3263869,26.9225144 13.4123863,27.2793962 10.6261227,27.5240005 L10.6261227,27.5240005 C9.84772527,27.5921689 10.0433226,27.459842 9.86768418,28.1936549 L9.86768418,28.1936549 C9.40064573,30.0783111 8.96154975,31.9669772 8.50648665,33.8596533 L8.50648665,33.8596533 C8.49051952,33.9037622 8.47056061,33.9478712 8.4506017,33.9919802 L8.4506017,33.9919802 L29.5870854,33.9919802 C29.5870854,33.9919802 29.5910772,33.9919802 29.5910772,34 L29.5910772,34 C31.9023188,33.9919802 33.7744643,32.0993042 33.7744643,29.7735582 L33.7744643,29.7735582 L33.762489,4.2304517 C33.762489,1.90069584 31.8863516,0.0120297205 29.5711183,0.0120297205 L29.5711183,0.0120297205 L4.19137071,0 C1.88012915,0 0,1.89267602 0,4.21842198 L0,4.21842198 Z" id="path-1"></path>
        <path d="M0,5.75822621 C4.04766657,5.35322562 8.09533314,5.27302748 12.1988846,5.67401816 L12.1988846,5.67401816 C12.0312298,6.36773204 11.8875257,7.02134686 11.7278544,7.67897158 L11.7278544,7.67897158 C10.0233637,14.7163581 8.32685647,21.7537445 6.6263575,28.791131 L6.6263575,28.791131 C6.58643968,28.9475174 6.57047256,29.1039038 6.54253009,29.2602901 L6.54253009,29.2602901 L8.45858527,29.2602901 C8.48253596,29.2161812 8.50648665,29.1720722 8.51447021,29.1279632 L8.51447021,29.1279632 C8.96953331,27.2352872 9.40862929,25.3466211 9.87566774,23.4659748 L9.87566774,23.4659748 C10.0513061,22.7281519 9.85570883,22.8684986 10.6341063,22.8003302 L10.6341063,22.8003302 C13.4203698,22.5557259 16.3343704,22.1988442 19.0368066,21.4409718 L19.0368066,21.4409718 C21.1285001,20.8555254 23.1203992,20.0695837 24.8328735,18.6901757 L24.8328735,18.6901757 C26.8726739,17.0541337 28.0542413,14.9248732 28.2538303,12.3224437 L28.2538303,12.3224437 C28.4135016,10.1931832 27.511359,8.42481425 26.1102436,6.88901993 L26.1102436,6.88901993 C24.4536542,5.07253214 22.3779278,3.8775799 20.1465219,2.94728152 L20.1465219,2.94728152 C15.8832991,1.17089279 11.4005283,0.413020403 6.82993836,0.148366553 L6.82993836,0.148366553 C4.55861462,0.0120297205 2.28329909,0.0441089751 0.00798356325,0 L0.00798356325,0 L0,5.75822621 Z M10.8137364,19.0630971 C11.1011447,17.8240359 11.3765776,16.6330935 11.6480188,15.4461611 L11.6480188,15.4461611 C12.3306134,12.5109093 13.0052245,9.57565751 13.6878192,6.64842552 L13.6878192,6.64842552 C13.8035809,6.14718717 13.8035809,6.13916735 14.3265043,6.21936549 L14.3265043,6.21936549 C17.3083651,6.67248496 20.2303493,7.35817903 22.9367772,8.75362661 L22.9367772,8.75362661 C23.9985911,9.29897394 24.9965365,9.95258875 25.7549751,10.9029367 L25.7549751,10.9029367 C26.9565013,12.4066517 26.8606986,14.0386838 25.4835339,15.3940323 L25.4835339,15.3940323 C24.4376871,16.4205685 23.1523334,17.0501238 21.8031112,17.5513622 L21.8031112,17.5513622 C19.6555327,18.3453237 17.4281186,18.7904234 15.1567948,18.9628494 L15.1567948,18.9628494 C13.8874083,19.0630971 12.6100382,19.0711169 11.3446434,19.107206 L11.3446434,19.107206 C11.1729968,19.107206 10.9933666,19.0871565 10.8137364,19.0630971 L10.8137364,19.0630971 Z" id="path-3"></path>
        <path d="M0,0.352871801 L0,19.6365137 C0,21.9622597 1.88012915,23.8549357 4.19137071,23.8469413 L4.19137071,23.8469413 L6.5385383,23.8469413 C6.56648077,23.6985494 6.58643968,23.5341432 6.6263575,23.3817667 L6.6263575,23.3817667 C8.32286469,16.3483901 10.0233637,9.31100366 11.7278544,2.27361717 L11.7278544,2.27361717 C11.8795421,1.61599245 12.0312298,0.962377639 12.1988846,0.268663758 L12.1988846,0.268663758 C10.3427062,0.0882179502 8.50249486,0 6.66627532,0 L6.66627532,0 C4.43886117,0 2.2154388,0.128317019 0,0.352871801 L0,0.352871801 Z" id="path-5"></path>
        <path d="M2.88206633,0.521287888 C2.19947168,3.45653969 1.52486058,6.38377167 0.842265923,9.32303338 L0.842265923,9.32303338 C0.570824773,10.5139757 0.287408277,11.704918 0,12.9439792 L0,12.9439792 C0.175638392,12.9680387 0.355268565,12.9880882 0.534898738,12.9760585 L0.534898738,12.9760585 C1.80428529,12.9359594 3.08165542,12.9319495 4.34305841,12.8357118 L4.34305841,12.8357118 C6.61837394,12.6632858 8.84977986,12.2141762 10.9933666,11.4162047 L10.9933666,11.4162047 C12.3465806,10.9189763 13.6319343,10.2974407 14.677781,9.26689468 L14.677781,9.26689468 C16.0549457,7.90352636 16.1467567,6.27550419 14.9452304,4.77579903 L14.9452304,4.77579903 C14.1867919,3.82545111 13.1928383,3.1718363 12.1310244,2.63049888 L12.1310244,2.63049888 C9.41661286,1.23906121 6.49862049,0.545347329 3.51675961,0.0922278571 L3.51675961,0.0922278571 C3.25729381,0.0521287888 2.997828,0 2.997828,0 L2.997828,0 C2.997828,0 2.94194306,0.272673664 2.88206633,0.521287888 L2.88206633,0.521287888 Z" id="path-7"></path>
        <path d="M3.64050484,0.00801981366 C2.76231289,0.00801981366 1.89210449,0 1.01790431,0.00801981366 L1.01790431,0.00801981366 C0.431112416,0.00801981366 0.00798356325,0.437079844 0.00798356325,1.01049652 L0.00798356325,1.01049652 C0.00798356325,7.3381295 0.00798356325,13.6577427 0,19.9853756 L0,19.9853756 C0,20.1457719 0.0518931611,20.1778512 0.199589081,20.1778512 L0.199589081,20.1778512 L4.07161726,20.1778512 L4.26322278,20.1778512 L4.26322278,19.9532964 L4.26322278,13.6056139 C4.26322278,13.2727916 4.2153214,13.3169006 4.55861462,13.3169006 L4.55861462,13.3169006 L6.98162606,13.3169006 C8.19911946,13.3169006 9.37270326,13.1244251 10.5063692,12.6672957 L10.5063692,12.6672957 C13.3365424,11.532492 15.172762,9.01026064 14.8893455,5.71812714 L14.8893455,5.71812714 C14.7176989,3.73723316 13.7596713,2.23752801 12.0631641,1.22703149 L12.0631641,1.22703149 C10.6460816,0.388960962 9.08529498,0.0601486024 7.46063986,0.0200495341 L7.46063986,0.0200495341 C6.91376578,0.00400990683 6.37088348,0 5.82400939,0 L5.82400939,0 C5.09351335,0 4.36301732,0.00801981366 3.64050484,0.00801981366 L3.64050484,0.00801981366 Z M4.27120634,11.2517986 L4.27120634,2.06510202 C4.31112416,2.0570822 4.34305841,2.04906239 4.37100088,2.04906239 L4.37100088,2.04906239 C5.35297916,2.04906239 6.33096566,2.02500295 7.30496038,2.07312183 L7.30496038,2.07312183 C9.17311418,2.14931006 11.1929557,3.52871801 11.4364544,5.91060267 L11.4364544,5.91060267 C11.5801585,7.31407006 11.1570296,8.55714117 10.2429117,9.6317962 L10.2429117,9.6317962 C9.54434987,10.457837 8.6901086,11.0152141 7.62430291,11.2116995 L7.62430291,11.2116995 C7.44467273,11.2517986 7.257059,11.2678382 7.07343704,11.2678382 L7.07343704,11.2678382 C6.7780452,11.2678382 6.48265336,11.2678382 6.1912533,11.2678382 L6.1912533,11.2678382 C5.59647784,11.2678382 5.00569416,11.2678382 4.41890226,11.2678382 L4.41890226,11.2678382 C4.37100088,11.2598184 4.32709128,11.2598184 4.27120634,11.2517986 L4.27120634,11.2517986 Z" id="path-9"></path>
        <path d="M0.977986498,0.0120297205 C0.407161726,0.0120297205 0,0.457129378 0,1.02653615 L0,1.02653615 L0,19.9372568 L0,20.1818611 L0.199589081,20.1818611 L4.00375697,20.1818611 C4.24326387,20.1818611 4.24326387,20.1818611 4.24326387,19.9452766 L4.24326387,19.9452766 C4.25124743,17.8039863 4.25124743,15.666706 4.24326387,13.5294256 L4.24326387,13.5294256 C4.24326387,13.3650195 4.27519812,13.3088808 4.45482829,13.3088808 L4.45482829,13.3088808 C5.29310244,13.3209105 6.12339301,13.3128907 6.95767537,13.3128907 L6.95767537,13.3128907 C8.26697975,13.3209105 9.52439096,13.0963557 10.7179337,12.5750678 L10.7179337,12.5750678 C13.4243616,11.3961552 15.1049017,8.97016158 14.8933372,5.86248378 L14.8933372,5.86248378 C14.7536249,3.79738177 13.7796302,2.24955773 12.0152627,1.20698196 L12.0152627,1.20698196 C10.6500734,0.396980776 9.13718814,0.0481188819 7.57240974,0.024059441 L7.57240974,0.024059441 C6.59043146,0.00400990683 5.60845318,0 4.6264749,0 L4.6264749,0 C3.40898151,0 2.19148811,0.00801981366 0.977986498,0.0120297205 L0.977986498,0.0120297205 Z M5.33302025,2.04906239 C5.96771353,2.04505248 6.60639859,2.04104258 7.24109187,2.06911192 L7.24109187,2.06911192 C8.70607573,2.13327043 9.88365131,2.78287534 10.729909,3.98584739 L10.729909,3.98584739 C11.3127091,4.80787829 11.5442325,5.76223611 11.4404461,6.75669301 L11.4404461,6.75669301 C11.2568242,8.6333294 10.3027884,10.0167473 8.63821544,10.886897 L8.63821544,10.886897 C8.14323452,11.147541 7.604344,11.2718481 7.04549457,11.2718481 L7.04549457,11.2718481 C6.16730261,11.2718481 5.29709422,11.2638283 4.42289404,11.2718481 L4.42289404,11.2718481 C4.28717347,11.2718481 4.25124743,11.231749 4.25124743,11.0954122 L4.25124743,11.0954122 L4.25124743,2.21747848 C4.25124743,2.16935959 4.25523921,2.12124071 4.259231,2.06911192 L4.259231,2.06911192 C4.30713237,2.06109211 4.33906663,2.0530723 4.37100088,2.04906239 L4.37100088,2.04906239 C4.53067215,2.0530723 4.69034341,2.0530723 4.85001468,2.0530723 L4.85001468,2.0530723 C5.00968594,2.0530723 5.16935721,2.0530723 5.33302025,2.04906239 L5.33302025,2.04906239 Z" id="path-11"></path>
        <path d="M5.43698839,0.0200495341 C4.21550321,0.0761882297 3.00998516,0.244604317 1.84438492,0.637575186 L1.84438492,0.637575186 C1.72063969,0.681684161 1.59689446,0.73381295 1.46117389,0.785941738 L1.46117389,0.785941738 C1.59689446,1.18693242 1.72463148,1.57589338 1.85236849,1.96886425 L1.85236849,1.96886425 C2.7624947,1.62401227 3.68858804,1.48366553 4.62665672,1.43554664 L4.62665672,1.43554664 C5.3691281,1.38742776 6.10361592,1.37539804 6.83411196,1.56787357 L6.83411196,1.56787357 C7.76020529,1.8204977 8.33901363,2.4059441 8.53061915,3.36832174 L8.53061915,3.36832174 C8.65436438,3.95376813 8.64238903,4.53921453 8.60247122,5.12466093 L8.60247122,5.12466093 C8.60247122,5.16075009 8.59049587,5.20886897 8.58650409,5.25297795 L8.58650409,5.25297795 C8.55456984,5.24495813 8.52662737,5.24495813 8.50666846,5.24094823 L8.50666846,5.24094823 C7.56061621,5.01639344 6.60258862,4.91213587 5.63258569,4.88807642 L5.63258569,4.88807642 C4.85418827,4.86802689 4.09974154,4.97228447 3.36924551,5.24094823 L3.36924551,5.24094823 C2.10784251,5.70208751 1.12187245,6.48802925 0.53108877,7.71907065 L0.53108877,7.71907065 C0.000181813436,8.81377521 -0.091629164,9.99268782 0.0760256643,11.1876401 L0.0760256643,11.1876401 C0.363433941,13.2727916 1.72862326,14.7684868 3.77241545,15.2055667 L3.77241545,15.2055667 C5.4130377,15.5544286 6.96983253,15.2937846 8.4108657,14.4236349 L8.4108657,14.4236349 C8.47872599,14.3835358 8.53860271,14.3514565 8.62642191,14.2993278 L8.62642191,14.2993278 L8.62642191,15.0812596 C8.69827398,15.0852695 8.74218357,15.0972992 8.79806852,15.0852695 L8.79806852,15.0852695 C10.1033811,15.0892794 11.4246608,15.0852695 12.7339652,15.0892794 L12.7339652,15.0892794 C12.8736776,15.0892794 12.8936365,15.0331407 12.8936365,14.9088336 L12.8936365,14.9088336 C12.8936365,11.4121948 12.90162,7.91555608 12.8856529,4.41891733 L12.8856529,4.41891733 C12.8816611,3.01544994 12.2789021,1.92074537 11.1093101,1.15084326 L11.1093101,1.15084326 C10.5664278,0.789951645 9.97165232,0.545347329 9.34893438,0.372921335 L9.34893438,0.372921335 C8.35897254,0.0962377639 7.34905179,0 6.33114747,0 L6.33114747,0 C6.03575563,0 5.73637201,0.00400990683 5.43698839,0.0200495341 L5.43698839,0.0200495341 Z M4.91007321,13.0722963 C4.07579085,12.5951173 3.6087524,11.8492747 3.41714689,10.9269961 L3.41714689,10.9269961 C3.27743453,10.2172426 3.28940987,9.511499 3.58480171,8.83783465 L3.58480171,8.83783465 C3.99595522,7.90352636 4.71447591,7.31807996 5.66851172,7.01332704 L5.66851172,7.01332704 C6.57065437,6.72461375 7.46082167,6.80481189 8.33502185,7.14164406 L8.33502185,7.14164406 C8.54658627,7.22585211 8.6503726,7.3421394 8.64238903,7.60278335 L8.64238903,7.60278335 C8.62243013,8.37669537 8.63440547,9.1626371 8.63440547,9.94857884 L8.63440547,9.94857884 C8.63440547,10.7545701 8.63440547,11.576601 8.62642191,12.3906121 L8.62642191,12.3906121 C8.62642191,12.4668003 8.60247122,12.5710579 8.54658627,12.6231867 L8.54658627,12.6231867 C7.93983547,13.1925935 7.19736409,13.4933365 6.43892558,13.4933365 L6.43892558,13.4933365 C5.92398575,13.4933365 5.40106235,13.3529897 4.91007321,13.0722963 L4.91007321,13.0722963 Z" id="path-13"></path>
        <path d="M2.12440384,0.549357236 C1.89687229,0.609505838 1.68131608,0.697723788 1.44979275,0.781931832 L1.44979275,0.781931832 C1.58551332,1.19094233 1.71325034,1.57188348 1.83699557,1.94881472 L1.83699557,1.94881472 C1.8729216,1.94881472 1.88489695,1.95683453 1.89288051,1.94881472 L1.89288051,1.94881472 C2.77506425,1.62000236 3.68918224,1.48767543 4.62325914,1.43955655 L4.62325914,1.43955655 C5.36573052,1.39143767 6.10021834,1.37940795 6.83071438,1.57188348 L6.83071438,1.57188348 C7.76878306,1.8204977 8.34359962,2.41797382 8.52722157,3.38837127 L8.52722157,3.38837127 C8.62701611,3.87357 8.6509668,4.35475882 8.61104899,4.84396745 L8.61104899,4.84396745 C8.60306542,4.97629437 8.59508186,5.12065102 8.5870983,5.25698785 L8.5870983,5.25698785 C8.54718048,5.24896804 8.52722157,5.25698785 8.51524623,5.24896804 L8.51524623,5.24896804 C7.58516111,5.02441326 6.62713352,4.92015568 5.67309771,4.88807642 L5.67309771,4.88807642 C4.83083179,4.86401698 4.02050012,4.97629437 3.23411914,5.28906711 L3.23411914,5.28906711 C2.00864218,5.77025593 1.05460637,6.56421748 0.491765158,7.77520934 L0.491765158,7.77520934 C0.012751363,8.8097653 -0.0670842695,9.90446987 0.044685616,11.0232339 L0.044685616,11.0232339 C0.256250042,13.1324449 1.67333252,14.7564571 3.73309184,15.2015568 L3.73309184,15.2015568 C5.39766478,15.5624484 6.96244317,15.2977946 8.41944347,14.419625 L8.41944347,14.419625 C8.48331197,14.3795259 8.5431887,14.3554664 8.63100789,14.3033377 L8.63100789,14.3033377 L8.63100789,15.0812596 C8.68689284,15.0852695 8.71084353,15.0932893 8.74277778,15.1093289 L8.74277778,15.1093289 C10.0760328,15.1093289 11.4052961,15.1013091 12.7345594,15.1093289 L12.7345594,15.1093289 C12.8622964,15.1093289 12.8822553,15.0531902 12.8822553,14.9449228 L12.8822553,14.9449228 C12.8822553,11.4081849 12.8902389,7.87946692 12.8742718,4.35074891 L12.8742718,4.35074891 C12.87028,3.23599481 12.4551347,2.29767661 11.6208523,1.55584385 L11.6208523,1.55584385 C11.2017153,1.17891261 10.7187097,0.902229036 10.2037699,0.681684161 L10.2037699,0.681684161 C9.22578336,0.272673664 8.1959037,0.0801981366 7.15005691,0.0280693478 L7.15005691,0.0280693478 C6.82273082,0.0120297205 6.49540472,0 6.16807863,0 L6.16807863,0 C4.79889753,0 3.44967534,0.152376459 2.12440384,0.549357236 L2.12440384,0.549357236 Z M3.45366712,11.1074419 C3.26206161,10.3535794 3.25407804,9.60773676 3.55346167,8.88194363 L3.55346167,8.88194363 C3.94465626,7.94362543 4.65918518,7.34614931 5.60124564,7.03337658 L5.60124564,7.03337658 C6.51935541,6.71258403 7.44145697,6.79278217 8.34359962,7.14565397 L8.34359962,7.14565397 C8.54718048,7.22986201 8.64298324,7.34614931 8.63499968,7.59877344 L8.63499968,7.59877344 C8.61903255,8.37268546 8.63100789,9.15461729 8.63100789,9.92852931 L8.63100789,9.92852931 C8.63100789,10.7425404 8.62701611,11.5485317 8.63499968,12.3745725 L8.63499968,12.3745725 C8.63499968,12.5028895 8.59907364,12.5911074 8.49528732,12.6672957 L8.49528732,12.6672957 C8.04421599,13.0362071 7.56919398,13.3569996 6.9784103,13.4492275 L6.9784103,13.4492275 C6.80676369,13.4732869 6.63910886,13.4893266 6.47145403,13.4893266 L6.47145403,13.4893266 C5.06235512,13.4853167 3.82490282,12.611157 3.45366712,11.1074419 L3.45366712,11.1074419 Z" id="path-15"></path>
        <path d="M13.0291752,0.168416087 C11.7318462,3.15980658 10.4305254,6.15119708 9.1252128,9.13055785 L9.1252128,9.13055785 C9.10126211,9.18669654 9.07731142,9.23481543 9.0373936,9.31100366 L9.0373936,9.31100366 C8.98550044,9.22278571 8.96154975,9.1626371 8.9296155,9.10649841 L8.9296155,9.10649841 C7.46862342,6.13515745 5.99964778,3.16782639 4.53865571,0.188465621 L4.53865571,0.188465621 C4.4747872,0.0641585093 4.4109187,0.0160396273 4.26322278,0.0160396273 L4.26322278,0.0160396273 C2.91000881,0.024059441 1.55679483,0.024059441 0.203580863,0.024059441 L0.203580863,0.024059441 L0,0.024059441 C0.0399178163,0.112277391 0.063868506,0.168416087 0.0878191958,0.204505248 L0.0878191958,0.204505248 C2.35914294,4.7557495 4.6264749,9.30298384 6.90179043,13.8421984 L6.90179043,13.8421984 C6.96166716,13.9544758 6.96965072,14.0467036 6.91775756,14.1710107 L6.91775756,14.1710107 C6.7141767,14.6722491 6.51458761,15.1734874 6.3229821,15.6787357 L6.3229821,15.6787357 C6.12339301,16.2120533 5.82001761,16.6812124 5.46474905,17.1142823 L5.46474905,17.1142823 C5.08952157,17.5674018 4.59853243,17.8801745 4.00774875,17.948343 L4.00774875,17.948343 C3.4768418,18.0125015 2.94194306,18.0125015 2.4110361,18.0365609 L2.4110361,18.0365609 L2.17951277,18.0365609 L2.17951277,20.358297 C2.22741415,20.3663168 2.27531553,20.3743366 2.31922512,20.3743366 L2.31922512,20.3743366 C2.92597593,20.3542871 3.53272674,20.3542871 4.13548576,20.3061682 L4.13548576,20.3061682 C4.88594071,20.2500295 5.60046962,20.0535441 6.25113003,19.6806227 L6.25113003,19.6806227 C7.32891107,19.067107 8.07537423,18.1488383 8.55837981,17.0340842 L8.55837981,17.0340842 C11.0213091,11.4282345 13.4562959,5.80634509 15.9072498,0.196485435 L15.9072498,0.196485435 C15.9312005,0.140346739 15.9511594,0.0842080434 15.9751101,0.0160396273 L15.9751101,0.0160396273 C15.9072498,0.0160396273 15.8593484,0.00801981366 15.8074552,0.00801981366 L15.8074552,0.00801981366 C14.9651893,0 14.1149398,0.00801981366 13.2726739,0 L13.2726739,0 C13.1449369,0 13.0810684,0.0481188819 13.0291752,0.168416087 L13.0291752,0.168416087 Z" id="path-17"></path>
        <path d="M13.0092163,0.180445807 C11.7158791,3.16782639 10.4225418,6.13515745 9.1252128,9.11451822 L9.1252128,9.11451822 C9.09727033,9.17065692 9.06932785,9.22679561 9.03340182,9.31100366 L9.03340182,9.31100366 C8.98550044,9.2187758 8.94957441,9.15461729 8.91764015,9.09045878 L8.91764015,9.09045878 C7.4526563,6.11911782 5.98368066,3.14376695 4.52668036,0.172425994 L4.52668036,0.172425994 C4.46680364,0.0400990683 4.39095979,0 4.25124743,0 L4.25124743,0 C2.90202524,0.00400990683 1.54881127,0.00400990683 0.1955973,0.00400990683 L0.1955973,0.00400990683 C0.139712357,0.00400990683 0.0798356325,0.00400990683 0,0.00801981366 L0,0.00801981366 C0.031934253,0.0882179502 0.0558849428,0.140346739 0.0718520693,0.196485435 L0.0718520693,0.196485435 C0.255474024,0.56940677 0.439095979,0.938318198 0.626709715,1.30722963 L0.626709715,1.30722963 C2.71041972,5.48555254 4.8021133,9.66387546 6.89380687,13.8421984 L6.89380687,13.8421984 C6.94969181,13.9665055 6.95368359,14.0587333 6.90179043,14.1750206 L6.90179043,14.1750206 C6.70619313,14.6722491 6.50261227,15.1734874 6.31499853,15.6747258 L6.31499853,15.6747258 C6.11540945,16.2080434 5.82400939,16.6772025 5.46874083,17.1102724 L5.46874083,17.1102724 C5.08952157,17.5633919 4.61449956,17.8801745 4.02770766,17.948343 L4.02770766,17.948343 C3.47285001,18.0125015 2.90202524,18.0205213 2.33519225,18.0405708 L2.33519225,18.0405708 C2.21144702,18.0485906 2.16354564,18.0646303 2.16354564,18.2089869 L2.16354564,18.2089869 C2.16753742,18.8786413 2.16753742,19.540276 2.16354564,20.2099304 L2.16354564,20.2099304 C2.16354564,20.3502772 2.21144702,20.3903762 2.34317581,20.3823564 L2.34317581,20.3823564 C2.92198415,20.358297 3.50079249,20.3623069 4.07960082,20.3181979 L4.07960082,20.3181979 C5.66433813,20.185871 6.94170825,19.4921571 7.88776049,18.1889374 L7.88776049,18.1889374 C8.33084825,17.5714117 8.62624009,16.8897276 8.92562372,16.2040335 L8.92562372,16.2040335 C11.2488406,10.8668475 13.5720575,5.52565161 15.8992662,0.188465621 L15.8992662,0.188465621 C15.9232169,0.140346739 15.939184,0.0801981366 15.9711183,0.00400990683 L15.9711183,0.00400990683 L15.7595539,0.00400990683 C14.9412386,0.00400990683 14.1149398,0.00400990683 13.2926328,0 L13.2926328,0 C13.1449369,0 13.0730848,0.0400990683 13.0092163,0.180445807 L13.0092163,0.180445807 Z" id="path-19"></path>
    </defs>
    <g id="LOGO-+-SDK-+-payment-icon" stroke="none" stroke-width="1" fill="none" fill-rule="evenodd">
        <g id="payment_horizon" transform="translate(-907.000000, -980.000000)">
            <g id="paypay_horizon" transform="translate(907.000000, 980.000000)">
                <g id="payment-4:3bg" transform="translate(-23.666667, -6.666667)"></g>
                <g id="编组" transform="translate(3.000000, 3.000000)">
                    <g transform="translate(0.007984, 0.000000)">
                        <mask id="mask-2" fill="white">
                            <use xlink:href="#path-1"></use>
                        </mask>
                        <g id="Clip-2"></g>
                        <polygon id="Fill-1" fill="#FC0334" mask="url(#mask-2)" points="-2.82218961 36.8350041 36.6006457 36.8350041 36.6006457 -2.83901403 -2.82218961 -2.83901403"></polygon>
                    </g>
                    <g transform="translate(0.000000, 4.731690)">
                        <mask id="mask-4" fill="white">
                            <use xlink:href="#path-3"></use>
                        </mask>
                        <g id="Clip-4"></g>
                        <polygon id="Fill-3" fill="#FFFFFF" mask="url(#mask-4)" points="-2.82218961 32.0952943 31.0959789 32.0952943 31.0959789 -2.83901403 -2.82218961 -2.83901403"></polygon>
                    </g>
                    <g transform="translate(0.007984, 10.137044)">
                        <mask id="mask-6" fill="white">
                            <use xlink:href="#path-5"></use>
                        </mask>
                        <g id="Clip-6"></g>
                        <polygon id="Fill-5" fill="#FC0334" mask="url(#mask-6)" points="-2.82218961 26.6859299 15.0210743 26.6859299 15.0210743 -2.83500413 -2.82218961 -2.83500413"></polygon>
                    </g>
                    <g transform="translate(10.813736, 10.850808)">
                        <mask id="mask-8" fill="white">
                            <use xlink:href="#path-7"></use>
                        </mask>
                        <g id="Clip-8"></g>
                        <polygon id="Fill-7" fill="#FC0334" mask="url(#mask-8)" points="-2.82218961 15.8150725 18.6056942 15.8150725 18.6056942 -2.83500413 -2.82218961 -2.83500413"></polygon>
                    </g>
                    <g transform="translate(89.942824, 5.730157)">
                        <mask id="mask-10" fill="white">
                            <use xlink:href="#path-9"></use>
                        </mask>
                        <g id="Clip-10"></g>
                        <polygon id="Fill-9" fill="#000000" mask="url(#mask-10)" points="-2.82218961 23.0168652 17.7434693 23.0168652 17.7434693 -2.83500413 -2.82218961 -2.83500413"></polygon>
                    </g>
                    <g transform="translate(41.191195, 5.726147)">
                        <mask id="mask-12" fill="white">
                            <use xlink:href="#path-11"></use>
                        </mask>
                        <g id="Clip-12"></g>
                        <polygon id="Fill-11" fill="#000000" mask="url(#mask-12)" points="-2.82618139 23.0208751 17.7354858 23.0208751 17.7354858 -2.83500413 -2.82618139 -2.83500413"></polygon>
                    </g>
                    <g transform="translate(105.794007, 10.810709)">
                        <mask id="mask-14" fill="white">
                            <use xlink:href="#path-13"></use>
                        </mask>
                        <g id="Clip-14"></g>
                        <polygon id="Fill-13" fill="#000000" mask="url(#mask-14)" points="-2.82599958 18.1929473 15.7158261 18.1929473 15.7158261 -2.83901403 -2.82599958 -2.83901403"></polygon>
                    </g>
                    <g transform="translate(57.037792, 10.814719)">
                        <mask id="mask-16" fill="white">
                            <use xlink:href="#path-15"></use>
                        </mask>
                        <g id="Clip-16"></g>
                        <polygon id="Fill-15" fill="#000000" mask="url(#mask-16)" points="-2.82540537 18.1929473 15.7084367 18.1929473 15.7084367 -2.83500413 -2.82540537 -2.83500413"></polygon>
                    </g>
                    <g transform="translate(120.024890, 10.782639)">
                        <mask id="mask-18" fill="white">
                            <use xlink:href="#path-17"></use>
                        </mask>
                        <g id="Clip-18"></g>
                        <polygon id="Fill-17" fill="#000000" mask="url(#mask-18)" points="-2.82618139 23.2093407 18.7972997 23.2093407 18.7972997 -2.83500413 -2.82618139 -2.83500413"></polygon>
                    </g>
                    <g transform="translate(71.269269, 10.806699)">
                        <mask id="mask-20" fill="white">
                            <use xlink:href="#path-19"></use>
                        </mask>
                        <g id="Clip-20"></g>
                        <polygon id="Fill-19" fill="#000000" mask="url(#mask-20)" points="-2.82218961 23.2173605 18.7933079 23.2173605 18.7933079 -2.83901403 -2.82218961 -2.83901403"></polygon>
                    </g>
                </g>
            </g>
        </g>
    </g>
</svg>