<?xml version="1.0" encoding="UTF-8"?>
<svg width="120px" height="90px" viewBox="0 0 120 90" version="1.1" xmlns="http://www.w3.org/2000/svg" xmlns:xlink="http://www.w3.org/1999/xlink">
    <title>paypay</title>
    <g id="LOGO-+-SDK-+-payment-icon" stroke="none" stroke-width="1" fill="none" fill-rule="evenodd">
        <g id="payment" transform="translate(-918.000000, -955.000000)">
            <g id="paypay" transform="translate(918.000000, 955.000000)">
                <g id="payment-4:3bg" transform="translate(-20.000000, -15.000000)"></g>
                <g id="PayPay" transform="translate(19.000000, 4.000000)" fill-rule="nonzero">
                    <path d="M71.75,81.8633333 L20.6366667,81.8633333 C20.6366667,81.7266667 20.7733333,81.59 20.7733333,81.59 C21.8666667,77.08 22.96,72.4333333 24.0533333,67.9233333 C24.4633333,66.1466667 24.0533333,66.42 25.83,66.2833333 C32.5266667,65.7366667 39.6333333,64.78 46.1933333,63.0033333 C51.25,61.6366667 56.0333333,59.7233333 60.27,56.4433333 C65.19,52.48 68.06,47.4233333 68.6066667,41.1366667 C69.0166667,35.9433333 66.83,31.7066667 63.4133333,28.0166667 C59.45,23.6433333 54.3933333,20.7733333 48.9266667,18.5866667 C38.6766667,14.35 27.7433333,12.4366667 16.6733333,11.89 C11.2066667,11.6166667 5.74,11.6166667 0.136666667,11.6166667 L0.136666667,10.1133333 C0.136666667,4.51 4.64666667,0 10.25,0 L10.25,0 L71.6133333,0 C77.2166667,0 81.7266667,4.51 81.7266667,10.1133333 L81.7266667,71.6133333 C81.8633333,77.3533333 77.3533333,81.8633333 71.75,81.8633333 C71.75,81.8633333 71.75,81.8633333 71.75,81.8633333 Z" id="路径" fill="#FD0334"></path>
                    <path d="M0.136666667,11.3433333 C5.60333333,11.48 11.2066667,11.3433333 16.6733333,11.7533333 C27.7433333,12.4366667 38.54,14.2133333 48.9266667,18.45 C54.2566667,20.6366667 59.3133333,23.6433333 63.4133333,27.88 C66.83,31.57 69.0166667,35.8066667 68.6066667,41 C68.1966667,47.2866667 65.3266667,52.48 60.27,56.3066667 C56.17,59.5866667 51.25,61.5 46.1933333,62.8666667 C39.6333333,64.6433333 32.6633333,65.6 25.83,66.1466667 C23.9166667,66.2833333 24.4633333,66.01 24.0533333,67.7866667 C22.96,72.2966667 21.8666667,76.8066667 20.7733333,81.4533333 C20.7733333,81.59 20.6366667,81.7266667 20.6366667,81.7266667 L15.99,81.7266667 C15.99,81.3166667 16.1266667,80.9066667 16.1266667,80.6333333 C20.2266667,63.6866667 24.3266667,46.74 28.4266667,29.7933333 C28.8366667,28.1533333 29.11,26.65 29.52,25.01 C19.5433333,24.0533333 9.84,24.19 0,25.2833333 L0.136666667,11.3433333 Z M26.3766667,57.2633333 C26.7866667,57.2633333 27.1966667,57.4 27.6066667,57.4 C30.6133333,57.2633333 33.7566667,57.2633333 36.7633333,57.1266667 C42.23,56.7166667 47.6966667,55.6233333 52.89,53.71 C56.17,52.48 59.3133333,50.9766667 61.7733333,48.5166667 C65.0533333,45.2366667 65.3266667,41.2733333 62.4566667,37.72 C60.68,35.3966667 58.22,33.8933333 55.6233333,32.5266667 C49.0633333,29.11 41.9566667,27.47 34.85,26.3766667 C33.62,26.24 33.62,26.24 33.3466667,27.47 C31.7066667,34.5766667 30.0666667,41.5466667 28.4266667,48.6533333 C27.6066667,51.5233333 27.06,54.3933333 26.3766667,57.2633333 Z" id="形状" fill="#FFFFFF"></path>
                    <path d="M0.136666667,25.2833333 C9.97666667,24.3266667 19.68,24.0533333 29.6566667,25.01 C29.2466667,26.65 28.8366667,28.29 28.5633333,29.7933333 C24.4633333,46.74 20.3633333,63.6866667 16.2633333,80.6333333 C16.1266667,81.0433333 16.1266667,81.4533333 16.1266667,81.7266667 L10.25,81.7266667 C4.64666667,81.7266667 0.136666667,77.2166667 0.136666667,71.6133333 L0.136666667,25.2833333 Z" id="路径_1_" fill="#FD0334"></path>
                    <path d="M26.3766667,57.2633333 C27.06,54.2566667 27.7433333,51.3866667 28.4266667,48.5166667 C30.0666667,41.41 31.7066667,34.44 33.3466667,27.3333333 C33.4833333,26.7866667 33.62,26.1033333 33.62,26.1033333 C33.62,26.1033333 34.3033333,26.24 34.85,26.3766667 C42.0933333,27.47 49.0633333,29.11 55.6233333,32.5266667 C58.22,33.8933333 60.5433333,35.3966667 62.4566667,37.72 C65.3266667,41.2733333 65.19,45.2366667 61.7733333,48.5166667 C59.3133333,50.9766667 56.17,52.48 52.89,53.71 C47.6966667,55.6233333 42.3666667,56.7166667 36.7633333,57.1266667 C33.7566667,57.4 30.6133333,57.4 27.6066667,57.4 C27.1966667,57.4 26.7866667,57.4 26.3766667,57.2633333 Z" id="路径_2_" fill="#FD0334"></path>
                </g>
            </g>
        </g>
    </g>
</svg>