<?xml version="1.0" encoding="UTF-8"?>
<svg width="120px" height="90px" viewBox="0 0 120 90" version="1.1" xmlns="http://www.w3.org/2000/svg" xmlns:xlink="http://www.w3.org/1999/xlink">
    <title>paypal</title>
    <g id="LOGO-+-SDK-+-payment-icon" stroke="none" stroke-width="1" fill="none" fill-rule="evenodd">
        <g id="payment" transform="translate(-568.000000, -955.000000)">
            <g id="paypal" transform="translate(568.000000, 955.000000)">
                <g id="payment-4:3bg" transform="translate(-20.000000, -15.000000)"></g>
                <g transform="translate(19.000000, 4.500000)" fill-rule="nonzero">
                    <path d="M33.1454552,51.2239834 L34.0588779,45.3730985 L32.020662,45.2976032 L22.3127153,45.2976032 L29.0614746,2.13694619 C29.0990456,1.86522386 29.3307145,1.66249794 29.6049988,1.66132587 L45.9862152,1.66132587 C51.4214575,1.66132587 55.1732845,2.80885427 57.1360109,5.0586139 C57.9908617,6.02356367 58.592664,7.18575411 58.8873668,8.44080287 C59.1853808,9.97918733 59.1853808,11.5604778 58.8873668,13.0988622 L58.8873668,13.2347538 L58.8873668,14.4200298 L59.8083384,14.9484968 C60.5090824,15.307035 61.1384291,15.7905946 61.6653795,16.3753578 C62.4841488,17.3482128 63.0079659,18.53475 63.175169,19.7952944 C63.3865951,21.4461442 63.3151147,23.120957 62.9637985,24.7477854 C62.6146162,26.7182631 61.9330525,28.6150453 60.9482295,30.3570854 C60.1394976,31.7384561 59.055113,32.9385665 57.7625736,33.8827154 C56.4628846,34.7908643 55.0066874,35.4511944 53.4672223,35.8304939 C51.7153217,36.2706698 49.913652,36.4813038 48.1074695,36.4571048 L46.8543442,36.4571048 C45.9396868,36.4589985 45.0559492,36.788417 44.3631915,37.3856969 C43.6548187,37.9819009 43.1834695,38.8121821 43.0345767,39.7260508 L42.9364404,40.2545179 L41.3587103,50.5822735 L41.2832208,50.9597499 C41.2793236,51.0440893 41.2411465,51.1231765 41.1775355,51.1786863 C41.1307491,51.217285 41.0721083,51.2390825 41.0114587,51.2390825 L33.1454552,51.2239834 Z" id="路径" fill="#253B80"></path>
                    <path d="M61.4313621,13.6273293 C61.3785195,13.9444095 61.3256769,14.2614897 61.2577363,14.5861194 C59.0760905,25.6688279 51.6177302,29.5115382 42.0909582,29.5115382 L37.2369849,29.5115382 C36.0806403,29.5082504 35.0940944,30.3475197 34.911909,31.4895148 L32.4660499,47.0943911 L31.7111552,51.5184151 C31.6523998,51.8732232 31.7547884,52.2357622 31.9904662,52.5074034 C32.2281111,52.7803891 32.5721667,52.9372906 32.9340847,52.9377338 L41.5247871,52.9377338 C42.538095,52.9403908 43.4041357,52.208514 43.570552,51.2088844 L43.6535904,50.7785612 L45.299261,40.5942467 L45.4049462,40.0355815 C45.5651051,39.0312872 46.4338162,38.293948 47.4507111,38.2991899 L48.7415811,38.2991899 C57.0454235,38.2991899 63.5979101,34.947199 65.5077939,25.2460543 C66.3079823,21.1919573 65.8927902,17.8097683 63.7866338,15.4316667 C63.1155751,14.6963995 62.3177928,14.0877879 61.4313621,13.6348788 L61.4313621,13.6273293 Z" id="路径-2" fill="#179BD7"></path>
                    <path d="M59.1968736,12.525098 C58.5007501,12.328513 57.7920171,12.1796929 57.0756193,12.0796758 C55.6620629,11.8606863 54.2333092,11.7546575 52.8029149,11.7625956 L39.8564697,11.7625956 C38.8399859,11.7616643 37.9746356,12.5020766 37.8182538,13.5065368 L35.0628879,30.8704534 L34.9873985,31.3838214 C35.1860653,30.2568377 36.168217,29.4372519 37.3124743,29.4435924 L42.1588987,29.4435924 C51.6705728,29.4435924 59.1289331,25.5857831 61.30303,14.4351289 C61.3709705,14.1029496 61.4238132,13.7783198 61.4691069,13.4687892 C60.8962647,13.1646641 60.3631937,12.9006954 59.7456543,12.702511 L59.1968736,12.525098 Z" id="路径-3" fill="#222D65"></path>
                    <path d="M37.7503133,13.4838882 C37.913422,12.4812572 38.7803447,11.7454359 39.7960781,11.7474965 L52.7651702,11.7474965 C54.2030947,11.7391548 55.6394057,11.8451824 57.0605214,12.0645768 C57.9483502,12.1994872 58.8137389,12.4576418 59.669538,12.7297767 C60.2870235,12.9346323 60.8906246,13.1861976 61.4691069,13.4838882 C62.1258653,9.36939493 61.4766558,6.52322251 59.2119715,3.98658079 C56.7510146,1.19325507 52.2895865,0 46.5674842,0 L29.9597993,0 C28.7976325,-0.00335490822 27.80527,0.838617479 27.6196255,1.98595561 L20.7198874,45.365549 C20.6576857,45.7746372 20.7761245,46.1905825 21.0444921,46.5055278 C21.3190428,46.8183338 21.715356,46.997239 22.1315406,46.9963762 L32.4886726,46.9963762 L32.7609797,45.2316001 L34.9421048,30.8402553 L37.7503133,13.4838882 Z" id="路径-4" fill="#253B80"></path>
                    <path d="M9.8569517,59.2340337 L3.47054198,59.2340337 C3.03162555,59.2331273 2.65863743,59.5546935 2.59486405,59.9889866 L0.00557500218,76.2506719 C-0.0164712898,76.402386 0.0274949476,76.5562797 0.126358165,76.6734455 C0.226736997,76.7947336 0.376582371,76.8641118 0.534001338,76.8622243 L3.5535804,76.8622243 C3.99371123,76.8663883 4.36856794,76.5432111 4.42925833,76.1072309 L5.16150625,71.7209545 C5.22567476,71.2838045 5.6029567,70.9613164 6.04473313,70.9660017 L8.06030216,70.9660017 C12.272615,70.9660017 14.6958272,68.9427279 15.3299388,64.9263785 C15.6167988,63.1673382 15.3299388,61.793324 14.5146524,60.8269843 C13.6993661,59.8606446 12.0008528,59.2038355 9.86450065,59.2038355 L9.8569517,59.2340337 Z M10.6118465,65.1830625 C10.2645949,67.4479212 8.51323902,67.4479212 6.83737264,67.4479212 L5.8333626,67.4479212 L6.51276789,63.1975364 C6.55396429,62.9384844 6.77892689,62.7488584 7.04119422,62.7520729 L7.47903319,62.7520729 C8.63402218,62.7520729 9.74371749,62.7520729 10.2796928,63.4013736 C10.641358,63.9205259 10.7495286,64.5751467 10.5741017,65.1830625 L10.6118465,65.1830625 Z M28.9633382,65.1075672 L25.9437592,65.1075672 C25.6826406,65.1074884 25.4594655,65.2956075 25.4153328,65.5529894 L25.2190602,66.4362843 L25.0076897,66.1267536 C24.3433823,65.1679634 22.8713375,64.8508832 21.3992927,64.8508832 C17.9362039,64.9338048 15.0512255,67.5304852 14.6052398,70.9660017 C14.2857874,72.613054 14.7022047,74.3174627 15.7451309,75.6316105 C16.7342152,76.6911016 18.1495194,77.2461656 19.5950942,77.1415163 C21.1847293,77.158162 22.7130388,76.5288096 23.8300538,75.3975751 L23.656428,76.2506719 C23.634111,76.4047352 23.6779859,76.5610516 23.7772112,76.6809951 C23.8785732,76.7957742 24.0241836,76.8617161 24.1773054,76.8621838 L26.9326713,76.8621838 C27.3728021,76.8663883 27.7476588,76.5432111 27.8083492,76.1072309 L29.4464709,65.719079 C29.4751998,65.5646637 29.4305714,65.405663 29.3256877,65.2887559 C29.2243257,65.1739767 29.0787153,65.1080349 28.9255935,65.1075672 L28.9633382,65.1075672 Z M24.6981828,71.0188484 C24.4470668,72.7198937 22.9671687,73.966731 21.2483137,73.925417 C20.4702038,74.0184176 19.6968028,73.7182923 19.1850687,73.1247561 C18.6733345,72.53122 18.4902971,71.7220175 18.6967694,70.9660017 C18.9431025,69.269393 20.4099106,68.0189559 22.1239917,68.0443339 C22.8985317,67.9754719 23.6586554,68.2848805 24.164954,68.8751084 C24.6712527,69.4653362 24.8614107,70.2637378 24.675536,71.0188484 L24.6981828,71.0188484 Z M45.2237715,65.1075672 L42.1513498,65.1075672 C41.8505645,65.098926 41.5660747,65.244027 41.396455,65.4925932 L37.1765933,71.7209545 L35.3799437,65.7568267 C35.2647863,65.3860012 34.9227223,65.1324879 34.5344616,65.1302158 L31.5148825,65.1302158 C31.3424754,65.1296166 31.1800085,65.2108562 31.0770436,65.3491521 C30.9769583,65.4894889 30.9516008,65.6698227 31.009103,65.832322 L34.3910316,75.6995563 L31.2129246,80.1688774 C31.0930671,80.3257066 31.0753825,80.5379375 31.1676309,80.7124435 C31.2590756,80.8903946 31.4431663,81.001442 31.6432147,80.9993256 L34.7307342,80.9993256 C35.0303971,81.0110754 35.3152304,80.8686478 35.485629,80.6218492 L45.6616105,65.9380154 C45.7632746,65.7683778 45.7632746,65.5565373 45.6616105,65.3868998 C45.5693547,65.2142997 45.3892713,65.1068223 45.1935757,65.1075672 L45.2237715,65.1075672 Z" id="形状" fill="#253B80"></path>
                    <path d="M55.1883824,59.2340337 L48.7793258,59.2340337 C48.3416026,59.2363311 47.9704142,59.5563458 47.9036479,59.9889866 L45.299261,76.4545092 C45.2750196,76.6090968 45.3195339,76.7665596 45.4211207,76.8855705 C45.5227075,77.0045814 45.6712227,77.0732561 45.8276873,77.0735706 L49.1190285,77.0735706 C49.4232337,77.0669467 49.6798525,76.8451603 49.7304932,76.5451036 L50.485388,71.8794947 C50.5491614,71.4452016 50.9221495,71.1236354 51.3610659,71.1245418 L53.3917329,71.1245418 C57.6115946,71.1245418 60.0499047,69.0786194 60.6840163,65.0169728 C60.9784253,63.2428335 60.6840163,61.8537202 59.86873,60.8722814 C59.0534436,59.8908427 57.3775772,59.2340337 55.1883824,59.2340337 Z M55.9432772,65.2736568 C55.5960256,67.5385155 53.8371208,67.5385155 52.1688033,67.5385155 L51.1572444,67.5385155 L51.8366496,63.235284 C51.8774799,62.9749021 52.1015326,62.7828421 52.365076,62.7823123 L52.8029149,62.7823123 C53.9654529,62.7823123 55.0675992,62.7823123 55.6186724,63.4466708 C55.9837434,63.9669734 56.097258,64.6231938 55.9281793,65.2359092 L55.9432772,65.2736568 Z M74.3627095,65.1981615 L71.2827388,65.1981615 C71.0191955,65.1986914 70.7951427,65.3907514 70.7543125,65.6511333 L70.6184314,66.5117796 L70.4070609,66.1946994 C69.7427535,65.2283597 68.2631598,64.9112794 66.783566,64.9112794 C63.2810274,64.9854828 60.3629728,67.6177194 59.9291215,71.0943436 C59.6007714,72.7581917 60.0173076,74.4823982 61.0690126,75.8127992 C62.0547829,76.8846295 63.4736862,77.4511237 64.9265249,77.3529031 C66.523258,77.3679413 68.0574556,76.732958 69.1765824,75.5938629 L69.0407014,76.4469597 C69.018092,76.6033788 69.0618819,76.7621295 69.1614845,76.8848324 C69.265756,76.9999892 69.4137844,77.0657847 69.5691277,77.066021 L72.3320425,77.066021 C72.7726274,77.0674432 73.1480635,76.746533 73.2152694,76.3110682 L74.8760379,65.7870248 C74.8978342,65.6316107 74.8514016,65.4743596 74.7486828,65.3557175 C74.6459641,65.2370755 74.4969845,65.1686219 74.3400626,65.1679634 L74.3627095,65.1981615 Z M70.0900051,71.184938 C69.8422363,72.8973389 68.3546607,74.1549071 66.6250381,74.1141552 C65.8495827,74.1619772 65.0934529,73.860056 64.5641754,73.2912566 C64.0919059,72.675427 63.9151424,71.882692 64.0810428,71.1245418 C64.3237302,69.4152957 65.7972311,68.151736 67.5233629,68.1726759 C68.2948578,68.1313623 69.0446852,68.4357437 69.5691277,69.0031241 C70.0543072,69.6188028 70.244738,70.4164658 70.0900051,71.184938 L70.0900051,71.184938 Z M77.9862043,59.709654 L75.3516216,76.4771578 C75.3273802,76.6317454 75.3718945,76.7892082 75.4734813,76.9082191 C75.5750681,77.0272299 75.7235833,77.0959047 75.8800479,77.0962239 L78.5146307,77.0962239 C78.9552156,77.0976414 79.3306516,76.7767311 79.3978576,76.3412663 L81.9946956,59.8757436 C82.016063,59.7217435 81.972294,59.5658042 81.8739124,59.4454205 C81.7722201,59.3258491 81.6232291,59.2568664 81.4662692,59.2566822 L78.5146307,59.2566822 C78.2510873,59.2572121 78.0270346,59.4492721 77.9862043,59.709654 L77.9862043,59.709654 Z" id="形状-2" fill="#179BD7"></path>
                </g>
            </g>
        </g>
    </g>
</svg>