<?xml version="1.0" encoding="UTF-8"?>
<svg width="120px" height="90px" viewBox="0 0 120 90" version="1.1" xmlns="http://www.w3.org/2000/svg" xmlns:xlink="http://www.w3.org/1999/xlink">
    <title>postpay</title>
    <g id="LOGO-+-SDK-+-payment-icon" stroke="none" stroke-width="1" fill="none" fill-rule="evenodd">
        <g id="payment" transform="translate(-1268.000000, -955.000000)">
            <g id="postpay" transform="translate(1268.000000, 955.000000)">
                <g id="payment-4:3bg" transform="translate(-20.000000, -15.000000)"></g>
                <g id="ゆうちょPay" transform="translate(13.000000, 4.224175)" fill="#008E41" fill-rule="nonzero">
                    <path d="M74.3305968,-4.97379915e-14 L74.3305968,36.1944723 C74.3305968,46.1892999 66.2281882,54.2917085 56.2333607,54.2917085 L20.0388884,54.2917085 L20.0388884,18.0972362 C20.0388884,8.10240861 28.141297,-4.97379915e-14 38.1361245,-4.97379915e-14 L74.3305968,-4.97379915e-14 Z M50.9440862,9.67666361 L45.5387276,9.67666361 L45.5387276,12.6978305 C42.9097087,13.169633 40.451717,14.3267577 38.4129408,16.0523675 L38.4129408,13.1830031 L33.0075821,13.1830031 L33.0075821,34.8728978 C35.9928793,34.8728978 38.4129408,32.4528363 38.4129408,29.4675391 L38.4129408,27.6816277 C38.4158565,23.2978251 41.3233753,19.4466379 45.5387276,18.2430856 L45.5387276,30.149162 C45.5387276,32.7542544 44.5038586,35.2526491 42.6617801,37.0947276 C40.8197016,38.9368061 38.3213069,39.9716751 35.7162145,39.9716751 L35.7162145,45.3770467 C38.6606134,45.380881 41.5423062,44.5265098 44.0087967,42.918429 L48.2414069,42.918429 C56.1287149,42.920189 62.7125371,36.9002417 63.4151084,29.044287 C64.1176798,21.1883323 58.7065418,14.0956554 50.9440862,12.6978305 L50.9440862,9.67666361 Z M50.9440862,18.2371326 C55.4984732,19.5446786 58.4702061,23.9172371 58.0095641,28.6331598 C57.5579543,33.2566133 53.9334755,36.9178678 49.3425032,37.4380234 L49.0688884,37.465 L49.2778699,37.0724821 C50.3755838,34.9301084 50.9477976,32.5547688 50.9440862,30.143209 L50.9440862,18.2371326 Z" id="形状结合"></path>
                    <path d="M28.9068076,69.1120902 C28.0223998,67.9109803 26.4501194,67.2517044 24.4780381,67.2370241 L24.405347,67.2370241 C22.0361572,67.2370241 18.9723641,68.0737974 17.6356565,68.4768365 L17.6356565,70.6561838 L17.6356565,70.6681949 C17.6773865,70.6548492 21.6955862,69.3336283 24.3986164,69.3336283 L24.4618845,69.3336283 C25.7326318,69.3443048 26.7328068,69.7166489 27.2066447,70.3559063 C27.6333681,70.9324391 27.6804827,71.7785543 27.3412578,72.8675607 C26.868766,74.4009777 24.8697621,75.0722647 23.2759435,75.3658694 C22.0267947,75.5829532 20.7577679,75.6666194 19.4906244,75.6154333 L19.4825476,75.7422172 L19.4825476,77.7080338 C19.6171606,77.7080338 19.8608103,77.7214108 20.1865739,77.7214108 C21.337194,77.7234218 22.485787,77.6256254 23.6192068,77.4291094 C27.5781768,76.7111125 28.9243073,74.8840908 29.3577614,73.4787922 C30.034865,71.2860992 29.4856438,69.8941463 28.9068076,69.1120902 Z M27.9147094,63.8218682 C24.8361088,63.4895611 20.064076,63.6563819 18.5671788,63.7204411 L18.5671788,65.6221985 C19.9456165,65.5634776 24.9707219,65.3819766 27.9147094,65.7343021 L27.9147094,63.8218682 Z M45.1626803,72.1669132 C44.7709563,70.4960358 43.3898263,69.3643233 41.5590887,69.1988371 C39.7741196,69.0440273 38.0712645,69.5538318 36.6860961,70.2051003 L37.5624271,67.3758191 L45.1828722,67.3758191 L45.1828722,65.5554702 L38.1264558,65.5554702 L38.8224053,63.30806 L36.6457122,63.30806 L35.9497627,65.5554702 L32.3973242,65.5554702 L32.3973242,67.3758191 L35.385734,67.3758191 L34.0019118,71.8452827 L34.0019118,71.8452827 L33.7326857,72.7140855 L33.7326857,72.7140855 L33.6088417,73.1144555 L35.8232264,73.1144555 C37.0347439,72.2790168 39.1885528,71.0885834 41.3746689,71.2794264 C42.6333009,71.3888609 43.0021407,72.1775897 43.1098311,72.6380152 C43.2861743,73.3893762 43.0277172,74.4129888 42.1917701,74.9147859 C40.386609,75.9984539 36.10726,75.598084 34.6117089,75.3525237 L34.6036321,75.4019027 L34.6144012,75.4019027 L34.6144012,77.4664772 C35.6066155,77.6026423 36.6055814,77.6850629 37.6068494,77.713372 C37.8181919,77.713372 38.025496,77.7213794 38.2274156,77.7213794 C40.4579539,77.7213794 42.1567707,77.3797304 43.283482,76.7031051 C44.8019173,75.7929307 45.5759423,73.9272066 45.1626803,72.1669132 Z M55.2896204,71.9266912 L55.2896204,69.95954 L58.6549468,69.95954 L58.6549468,68.0591172 L55.2896204,68.0591172 L55.2896204,65.6942651 L53.161388,65.6942651 L53.161388,71.3781843 C52.1746743,71.2447277 51.2323829,71.2927721 50.4381659,71.6664507 C48.882039,72.3911204 48.0972449,73.8337869 48.4351236,75.3271669 C48.768964,76.7951902 50.0720184,77.7907769 51.676606,77.7907769 C53.325616,77.7907769 55.2896204,77.18088 55.2896204,74.2728593 L55.2896204,74.1821088 L55.3623115,74.2114693 C56.6817882,74.7770036 57.9412384,75.4712836 59.1220541,76.2840512 L59.1220541,73.7897462 C57.90815,73.0476826 56.6246967,72.4237595 55.2896204,71.9266912 L55.2896204,71.9266912 Z M53.161388,74.2755285 C53.161388,75.1683535 52.9594684,75.7248678 51.6806444,75.7248678 C51.1348334,75.7537539 50.6456352,75.3932311 50.5162415,74.8667415 C50.4004743,74.356937 50.7114304,73.7990882 51.3104585,73.5735464 C51.6036842,73.4671244 51.9135713,73.4129082 52.2258273,73.4133951 C52.5423883,73.4175117 52.8578642,73.4510223 53.1681187,73.5134909 L53.161388,74.2755285 Z M9.413491,64.930893 L9.413491,63.01579 L7.17487588,63.01579 L7.17487588,65.029651 C5.02106698,65.451374 3.27109726,66.8112974 2.05015684,68.5208772 L2.05015684,64.3143233 L0,64.3143233 L0,74.4823863 L2.05015684,74.4823863 C2.05015684,71.7772198 4.00473841,68.0003962 7.16545297,67.1129095 L7.16545297,70.6201505 C7.16545297,71.721168 7.14526101,72.59264 7.09006965,73.2892837 C6.06185474,73.131466 5.060958,72.8318449 4.11646725,72.3991278 L4.11646725,74.5344344 C4.92778492,74.8952287 5.78518312,75.1439968 6.6646924,75.2737843 C6.63911592,75.3258324 6.61353944,75.3752113 6.58661682,75.4232557 C5.95258933,76.530946 4.63203525,76.6870903 3.27513565,76.8659222 L3.27513565,78.3072542 C6.73469119,78.1270877 7.95966999,77.5799154 8.8319626,75.6047568 C8.85888521,75.5433667 8.88176943,75.4713001 8.90599978,75.4099101 C12.3965163,75.2911336 14.5166748,73.3426664 14.5166748,70.1477139 C14.5193642,67.1396008 12.5970898,65.2138212 9.413491,64.930893 Z M12.2403652,71.582373 C11.929409,72.373771 11.1378842,73.183853 9.33272316,73.3640195 C9.38387613,72.8301928 9.40810648,72.2216304 9.40810648,71.5503434 L9.40810648,66.954096 C10.6398159,67.0728725 12.4692074,67.6400633 12.4692074,70.1570559 C12.4848341,70.641808 12.4090503,71.1251928 12.2457497,71.582373 L12.2403652,71.582373 Z M66.7344225,63.7991806 L63.285636,63.7991806 L63.285636,77.7293868 L65.750401,77.7293868 L65.750401,72.2042811 L67.1772994,72.2042811 C71.5522237,72.2042811 72.4716309,69.8607821 72.4716309,67.8949655 C72.4716309,65.1751187 70.5412797,63.7991806 66.7344225,63.7991806 Z M66.9753798,70.2558138 L65.750401,70.2558138 L65.750401,65.7476478 L66.9753798,65.7476478 C68.7845793,65.7476478 69.7807159,66.5644026 69.7807159,68.0497752 C69.7807159,69.4897726 68.8101558,70.2558138 66.9753798,70.2558138 Z M82.5985711,72.8782372 L82.5985711,71.5596854 C82.5985711,70.0316066 82.2580001,68.9572805 81.556666,68.2739824 C80.855332,67.5906843 79.7393898,67.2530389 78.153648,67.2530389 C76.921392,67.2717889 75.705174,67.5330844 74.575633,68.0217493 L74.6537085,70.2478064 C75.5716236,69.5628574 76.6833324,69.1809998 77.8319228,69.1561309 C79.5118937,69.1561309 80.1970742,69.8060649 80.1970742,71.400872 L80.1970742,71.4275633 L78.6786389,71.4275633 C77.1669343,71.4275633 76.0308001,71.6237446 75.2042759,72.0241146 C74.0385269,72.5913054 73.4543062,73.5708773 73.4543062,74.9361389 C73.4411703,75.8168299 73.8558972,76.650083 74.5689023,77.1755417 C75.2887151,77.6982759 76.1603144,77.9750727 77.0525132,77.9642706 C78.3757595,77.9642706 79.6653526,77.2556157 80.2441887,76.2013081 L80.2522655,76.1866278 L80.3222643,76.1866278 L80.3222643,76.2119846 C80.3222643,76.2893895 80.3316872,76.3881474 80.3357256,76.500251 C80.3430426,76.910002 80.3776688,77.3188256 80.4393777,77.7240486 L82.7641452,77.7240486 C82.700877,76.8859407 82.6631854,76.1852933 82.6443395,75.4552853 C82.6254937,74.7252774 82.5985711,73.9378831 82.5985711,72.8782372 Z M80.1970742,72.9983482 C80.2170143,73.7754615 79.9754763,74.537048 79.5105476,75.1630153 C79.0390941,75.7712921 78.3039871,76.1210726 77.5303895,76.1052193 C76.4332931,76.1052193 75.8288805,75.6421247 75.8288805,74.8013477 C75.8288805,73.5868921 76.8829007,72.9703223 78.9599802,72.9703223 L80.1970742,72.9703223 L80.1970742,72.9983482 Z M89.7411398,75.0735993 L87.2009915,67.4372091 L84.3835402,67.4372091 L88.319626,78.1671247 C88.319626,79.3295322 87.6021384,80.0795586 86.4902345,80.0795586 C86.0438743,80.0968955 85.597499,80.0455734 85.1669882,79.9274181 L85.000068,81.7464323 C85.596235,81.9134201 86.2126489,81.9987343 86.8321517,82 C89.4032611,82 90.1274793,80.0622093 90.8934276,78.0096458 L91.072463,77.5345401 L94.9210502,67.4318709 L92.3472486,67.4318709 L89.8071002,75.0735993 L89.7411398,75.0735993 Z" id="形状结合"></path>
                </g>
            </g>
        </g>
    </g>
</svg>