<?xml version="1.0" encoding="UTF-8"?>
<svg width="154px" height="36px" viewBox="0 0 154 36" version="1.1" xmlns="http://www.w3.org/2000/svg" xmlns:xlink="http://www.w3.org/1999/xlink">
    <title>postpay_horizon</title>
    <g id="LOGO-+-SDK-+-payment-icon" stroke="none" stroke-width="1" fill="none" fill-rule="evenodd">
        <g id="payment_horizon" transform="translate(-1251.000000, -982.000000)">
            <g id="postpay_horizon" transform="translate(1251.000000, 982.000000)">
                <g id="payment-4:3bg" transform="translate(-25.666667, -6.000000)"></g>
                <g id="ゆうちょPay-logo" transform="translate(4.000000, 4.000000)" fill="#008E41" fill-rule="nonzero">
                    <path d="M28.2310747,0 L28.2310747,18.6666667 C28.2310747,23.8213243 24.0179138,28 18.8207165,28 L0,28 L0,9.33333332 C0,4.17867567 4.21316089,0 9.41035821,0 L28.2310747,0 Z M145,10.2774123 L140.574965,21.8980263 L140.369113,22.4445176 C140.303878,22.6194038 140.238907,22.7935658 140.173316,22.966151 L140.074354,23.2237399 L140.074354,23.2237399 L139.973802,23.4783245 C139.195109,25.4169907 138.217789,27.0344298 135.699533,27.0344298 C134.987239,27.0329739 134.278498,26.9348412 133.593036,26.7427631 L133.593036,26.7427631 L133.784958,24.6504386 C134.279951,24.786347 134.793186,24.8453804 135.306403,24.8254386 C136.584849,24.8254386 137.409803,23.9627193 137.409803,22.6256579 L137.409803,22.6256579 L132.884164,10.2835526 L136.123618,10.2835526 L139.044234,19.0673245 L139.120074,19.0673245 L142.04069,10.2774123 L145,10.2774123 Z M16.0703535,4.99057018 L13.2596281,4.99057018 L13.2596281,6.54868422 C11.8925681,6.79200809 10.6144402,7.38877495 9.55429959,8.27872808 L9.55429959,6.79890351 L6.74357415,6.79890351 L6.74357415,17.9850877 C8.29589495,17.9850877 9.55429959,16.7369833 9.55429959,15.1973684 L9.55429959,14.2763158 C9.55581565,12.0154462 11.0676926,10.0292638 13.2596281,9.40855263 L13.2596281,15.5489035 C13.2596281,16.8924344 12.721508,18.1809378 11.763648,19.1309576 C10.8057879,20.0809774 9.50665098,20.614693 8.15203238,20.614693 L8.15203238,23.4024256 C9.68308651,23.4043965 11.1815342,22.9637695 12.4640814,22.1344298 L14.6649908,22.1344298 C18.7663018,22.1353375 22.189815,19.0306549 22.5551441,14.9790835 C22.9204733,10.9275122 20.1067427,7.26958793 16.0703535,6.54868422 L16.0703535,4.99057018 Z M46.684973,5.19780702 L46.684973,7.4006579 C50.3454166,7.72609651 52.5556125,9.9412281 52.5525235,13.4013158 C52.5525235,17.0763158 50.1148009,19.3175439 46.1014688,19.4541667 C46.0736092,19.5247807 46.0472974,19.6076754 46.0163422,19.6782895 C45.0133961,21.9502193 43.6049379,22.5796053 39.6272042,22.7868421 L39.6272042,22.7868421 L39.6272042,21.1289474 C41.1873426,20.9232456 42.7056915,20.7436404 43.4346847,19.4695175 C43.4656398,19.4142544 43.4950472,19.3574561 43.5244546,19.2975877 C42.5132109,19.1482995 41.5273902,18.8621534 40.5945519,18.4471491 L40.5945519,18.4471491 L40.5945519,15.9910088 C41.6805101,16.4887424 42.8313229,16.8333822 44.0135456,17.0149123 C44.0770036,16.2135965 44.1002199,15.2111842 44.1002199,13.9447369 L44.1002199,13.9447369 L44.1002199,9.9105263 C40.4660882,10.9313597 38.2187461,15.2756579 38.2187461,18.3872807 L38.2187461,18.3872807 L35.8615132,18.3872807 L35.8615132,6.69144737 L38.2187461,6.69144737 L38.2187461,11.5300439 C39.622561,9.56359651 41.6346442,7.99934212 44.1110543,7.51425439 L44.1110543,7.51425439 L44.1110543,5.19780702 L46.684973,5.19780702 Z M125.721148,10.0717105 C127.544405,10.0717105 128.827495,10.4600877 129.633876,11.2460526 C130.440257,12.0320176 130.831839,13.2677632 130.831839,15.0254386 L130.831839,15.0254386 L130.831839,16.5421053 C130.831839,17.7609649 130.862794,18.6666667 130.884463,19.5063596 C130.906131,20.3460526 130.949469,21.1519737 131.022213,22.1160088 L131.022213,22.1160088 L128.349238,22.1160088 C128.278286,21.6499003 128.238474,21.1796502 128.230061,20.7083333 C128.225417,20.579386 128.214583,20.4657895 128.214583,20.3767544 L128.214583,20.3767544 L128.214583,20.3475877 L128.1341,20.3475877 L128.124814,20.3644737 C127.459278,21.577193 125.976527,22.3923246 124.455083,22.3923246 C123.429249,22.4047497 122.4271,22.0863637 121.599473,21.4850878 C120.779673,20.8806779 120.302827,19.922227 120.317931,18.9092106 C120.317931,17.3388158 120.989657,16.2120614 122.330014,15.5596491 C123.280336,15.0991228 124.586643,14.8734649 126.324773,14.8734649 L126.324773,14.8734649 L128.070642,14.8734649 L128.070642,14.8427631 C128.070642,13.0083333 127.282834,12.2607456 125.351234,12.2607456 C124.030606,12.289351 122.752383,12.7285834 121.696982,13.5164474 L121.696982,13.5164474 L121.607212,10.9559211 C122.905937,10.3938334 124.304322,10.0932777 125.721148,10.0717105 Z M99.4325071,8.27872808 L99.4325071,10.9989035 L103.301898,10.9989035 L103.301898,13.1848684 L99.4325071,13.1848684 L99.4325071,15.4475877 C100.967553,16.0193414 102.443245,16.7370102 103.83897,17.5905702 L103.83897,17.5905702 L103.83897,20.4596491 C102.481289,19.5247617 101.033196,18.7261649 99.5160859,18.0756579 L99.5160859,18.0756579 L99.4325071,18.041886 L99.4325071,18.1462719 C99.4325071,21.4912281 97.1743307,22.1927631 95.2783291,22.1927631 C93.4334037,22.1927631 91.9351756,21.0475877 91.551332,19.3589912 C91.1628455,17.6412281 92.0651875,15.9817983 93.8543934,15.1482456 C94.76757,14.7184211 95.8509995,14.6631579 96.9855045,14.8166667 L96.9855045,14.8166667 L96.9855045,8.27872808 L99.4325071,8.27872808 Z M112.591531,6.09890349 C116.968586,6.09890349 119.188069,7.68157894 119.188069,10.8100877 C119.188069,13.071272 118.130951,15.766886 113.100743,15.766886 L113.100743,15.766886 L111.460121,15.766886 L111.460121,22.1221491 L108.62618,22.1221491 L108.62618,6.09890349 L112.591531,6.09890349 Z M80.4988045,5.53399124 L79.6986146,8.11907895 L87.8119532,8.11907895 L87.8119532,10.2129386 L79.0501048,10.2129386 L78.0425154,13.4673246 C79.6351563,12.7182018 81.5930685,12.1317982 83.645393,12.3098684 C85.7503418,12.5002193 87.3383398,13.8019737 87.7887369,15.7239035 C88.2638981,17.7486842 87.3739378,19.8947369 85.6280692,20.9416667 C84.3325967,21.7199561 82.3793285,22.1129386 79.8146961,22.1129386 C79.5825326,22.1129386 79.3441785,22.1037281 79.1011809,22.1037281 C77.9499409,22.0711655 76.8013481,21.976361 75.6605182,21.8197369 L75.6605182,21.8197369 L75.6605182,19.4449561 L75.6481365,19.4449561 L75.6574229,19.3881579 C77.3769804,19.670614 82.2972973,20.1311403 84.3728387,18.8846491 C85.333995,18.3074562 85.6311645,17.1300439 85.4284084,16.2657895 C85.3045881,15.7361842 84.8805025,14.8289474 83.4333505,14.7030702 C80.9197942,14.4835526 78.4433841,15.8528509 77.0504035,16.8138158 L77.0504035,16.8138158 L74.5043445,16.8138158 L74.6467382,16.3532895 L74.9562893,15.3539474 L76.5473826,10.2129386 L73.1113639,10.2129386 L73.1113639,8.11907895 L77.1958924,8.11907895 L77.9960828,5.53399124 L80.4988045,5.53399124 Z M64.0059134,10.0532895 C66.2733768,10.0701754 68.0811561,10.8285088 69.0980319,12.2100877 C69.7635669,13.1096491 70.3950515,14.7107456 69.6165303,17.2328948 C69.1181524,18.8493421 67.5703964,20.9508772 63.018445,21.7767544 C61.71526,22.0027973 60.3946287,22.1152879 59.0716666,22.1130096 C58.6971094,22.1130096 58.4169657,22.0975877 58.2621898,22.0975877 L58.2621898,22.0975877 L58.2621898,19.8364035 L58.2714767,19.6905702 C59.7284148,19.7494471 61.1875191,19.6532098 62.6237674,19.4035088 C64.4563106,19.0657895 66.7547285,18.2936403 67.2979914,16.5298246 C67.6880255,15.277193 67.6338542,14.3039474 67.1432155,13.6407895 C66.5984055,12.9054825 65.4484225,12.477193 63.9873406,12.4649123 L63.9873406,12.4649123 L63.9145958,12.4649123 C60.8067011,12.4649123 56.186649,13.9846491 56.1386682,14 L56.1386682,14 L56.1386682,11.479386 C57.6755901,11.0157895 61.1982835,10.0532895 63.9223346,10.0532895 L63.9223346,10.0532895 L64.0059134,10.0532895 Z M128.070642,16.6480263 L126.648254,16.6480263 C124.260066,16.6480263 123.048173,17.3572368 123.048173,18.7541667 C123.048173,19.7212719 123.743116,20.2539474 125.004537,20.2539474 C125.894005,20.2721827 126.739217,19.869847 127.281286,19.1701754 C127.815852,18.4501555 128.093569,17.5741391 128.070642,16.6802631 L128.070642,16.6802631 L128.070642,16.6480263 Z M95.9098138,17.1576679 C95.5507879,17.1571116 95.1944855,17.2194738 94.8573399,17.3418859 C94.1685881,17.6013158 93.8110567,18.2429824 93.9441633,18.829386 C94.0929378,19.4349817 94.6554092,19.8496737 95.2829726,19.8164474 C96.7533409,19.8164474 96.9855045,19.1763158 96.9855045,18.1493421 L96.9855045,18.1493421 L96.9932432,17.272807 C96.6365185,17.2009524 96.2737902,17.1624067 95.9098138,17.1576679 Z M16.0703535,9.40548246 C18.4385833,10.0798265 19.9838508,12.3348971 19.7443222,14.7670518 C19.5096819,17.1495708 17.6278781,19.0366621 15.2433938,19.3073462 L15.0952829,19.3220937 L15.2106164,19.1065314 C15.7770587,18.0050222 16.0722759,16.7846949 16.0703535,15.5458333 L16.0703535,9.40548246 Z M46.6787819,9.72785089 L46.6787819,15.014693 C46.6787819,15.7868421 46.6509223,16.4868421 46.5921075,17.1008772 C48.6676487,16.8936404 49.5777294,15.9618421 49.9352611,15.0515351 L49.9352611,15.0515351 L49.9414522,15.0515351 C50.1292122,14.5256626 50.2163471,13.9696485 50.1983797,13.4120614 C50.1983797,10.516886 48.0949789,9.8644737 46.6787819,9.72785089 L46.6787819,9.72785089 Z M112.86858,8.34013157 L111.460121,8.34013157 L111.460121,13.5256579 L112.86858,13.5256579 C114.978171,13.5256579 116.094104,12.6445175 116.094104,10.9881579 C116.094104,9.27960524 114.948764,8.34013157 112.86858,8.34013157 L112.86858,8.34013157 Z M57.209716,6.00833333 C58.9308206,5.9346491 64.4176167,5.74276314 67.9573353,6.12499998 L67.9573353,6.12499998 L67.9573353,8.32478073 C64.5723926,7.91951756 58.7946181,8.12828945 57.209716,8.19583334 L57.209716,8.19583334 L57.209716,6.00833333 Z" id="形状结合"></path>
                </g>
            </g>
        </g>
    </g>
</svg>