<?xml version="1.0" encoding="UTF-8"?>
<svg width="150px" height="40px" viewBox="0 0 150 40" version="1.1" xmlns="http://www.w3.org/2000/svg" xmlns:xlink="http://www.w3.org/1999/xlink">
    <title>quopay_horizon</title>
    <g id="LOGO-+-SDK-+-payment-icon" stroke="none" stroke-width="1" fill="none" fill-rule="evenodd">
        <g id="payment_horizon" transform="translate(-1253.000000, -1180.000000)">
            <g id="quopay_horizon" transform="translate(1253.000000, 1180.000000)">
                <g id="payment-4:3bg" transform="translate(-25.000000, -6.666667)"></g>
                <g id="QUOカードPay" transform="translate(5.000000, 3.000000)" fill="#008CD7" fill-rule="nonzero">
                    <path d="M125.465766,9.302944 L131.859785,22.51616 L138.25408,9.303216 L141,9.303216 L129.048873,34 L126.302678,34 L130.486963,25.353664 L122.719846,9.302944 L125.465766,9.302944 Z M13.21875,0 C22.366125,0 27.4242246,8.45512 26.3813203,14.985296 C24.4078711,13.651136 22.4911523,12.858256 20.6606309,12.476096 C20.0905723,7.087776 13.9606523,3.835472 8.93725195,7.249344 C5.30099414,10.054208 4.99944141,14.695072 7.42398047,17.617984 C7.53385665,17.5364209 7.64246707,17.4530837 7.75105734,17.3685879 L7.91408347,17.2410522 C9.35676545,16.1081702 10.9052727,14.825904 15.4574004,14.825904 C22.0760065,14.825904 25.2604051,17.6999433 28.2354088,20.6314633 L28.5988677,20.9905207 C28.719818,21.1101746 28.8406387,21.2297327 28.9615492,21.3490035 L29.3247691,21.7057627 C32.054226,24.3721194 34.9401167,26.79608 40.4802188,26.79608 C47.3027461,26.79608 50.8194844,22.508816 50.8194844,22.508816 L50.8350611,22.5241513 C50.8453214,22.5342519 50.8605257,22.5492184 50.8803014,22.5686825 L50.9988929,22.6853838 C51.7172423,23.3921732 54.3778012,26.0080853 55.0147852,26.608128 C50.9706738,30.331808 46.317123,32.522768 40.6201172,32.522768 C32.8188516,32.522768 28.1738379,29.386064 22.2609258,22.772656 C20.6113359,24.305104 17.940873,26.375296 13.21875,26.375296 C5.31283594,26.375296 0,19.410192 0,13.100608 C0,7.217248 4.56267188,0.063648 13.21875,0 Z M110.767066,9.02904 C113.299283,9.02904 115.571256,10.18232 117.111791,12.004176 L117.111791,9.300496 L119.674852,9.300496 L119.674852,25.586768 L117.111791,25.586768 L117.111791,23.301152 C115.571256,25.12328 113.299283,26.276288 110.767066,26.276288 C106.131141,26.276288 102.367652,22.411984 102.367652,17.652528 C102.367652,12.893344 106.131141,9.02904 110.767066,9.02904 Z M67.7460938,0.208624 L67.7460938,0.208896 C75.0417422,0.208896 80.9648438,6.047104 80.9648438,13.237968 C80.9648438,20.429104 75.0417422,26.26704 67.7460938,26.26704 C60.4504453,26.26704 54.5273438,20.429104 54.5273438,13.23824 C54.5273438,6.046832 60.4504453,0.208624 67.7460938,0.208624 Z M102.525727,7.403296 C102.525727,13.788224 96.286752,14.117888 93.6328125,14.117888 L88.4003906,14.117888 L88.4003906,25.58704 L85.7585684,25.58704 L85.7585684,0.671024 L93.6328125,0.671024 C96.0091582,0.671024 102.525727,1.01864 102.525727,7.403296 Z M110.98435,11.36144 C107.602553,11.36144 104.856908,14.18072 104.856908,17.6528 C104.856908,21.12488 107.602553,23.943888 110.98435,23.943888 C114.366146,23.943888 117.111791,21.12488 117.111791,17.652528 C117.111791,14.180448 114.366146,11.36144 110.98435,11.36144 Z M35.6826387,0.892704 L35.6826387,12.669216 C35.6826387,14.306656 37.271918,17.13192 40.5047285,17.13192 C43.7375391,17.13192 45.3067148,14.282448 45.3067148,12.669216 L45.3067148,0.892704 L50.9480918,0.92616 L50.9480918,13.1104 C51.0915703,16.76336 47.792666,22.899136 40.5509941,22.899136 C33.3095977,22.899136 30.0533789,16.7008 30.0272168,13.100608 L30.0272168,0.892704 L35.6826387,0.892704 Z M67.7460938,5.768304 C63.5634609,5.768304 60.1676191,9.115536 60.1676191,13.237968 C60.1676191,17.360672 63.5634609,20.707904 67.7460938,20.707904 C71.9287266,20.707904 75.3245684,17.360672 75.3245684,13.237968 C75.3245684,9.115536 71.9287266,5.768304 67.7460938,5.768304 Z M99.8045918,7.391872 C99.8045918,2.79344 94.6861816,3.05728 93.3574219,3.05728 L93.3574219,3.05728 L88.4003906,3.05728 L88.4003906,11.726736 L93.4261395,11.7268553 C93.5664191,11.7273109 93.7235653,11.7289388 93.8940987,11.7294056 L94.0689657,11.7294056 C96.1282856,11.7228842 99.8045918,11.4599563 99.8045918,7.391872 Z" id="形状结合"></path>
                </g>
            </g>
        </g>
    </g>
</svg>