<?xml version="1.0" encoding="UTF-8"?>
<svg width="120px" height="90px" viewBox="0 0 120 90" version="1.1" xmlns="http://www.w3.org/2000/svg" xmlns:xlink="http://www.w3.org/1999/xlink">
    <title>quopay</title>
    <g id="LOGO-+-SDK-+-payment-icon" stroke="none" stroke-width="1" fill="none" fill-rule="evenodd">
        <g id="payment" transform="translate(-1268.000000, -1155.000000)">
            <g id="quopay" transform="translate(1268.000000, 1155.000000)">
                <g id="payment-4:3bg" transform="translate(-20.000000, -15.000000)"></g>
                <g id="QUOカードPay" transform="translate(12.000000, 5.000000)" fill="#008CD7">
                    <path d="M15.5430328,-3.55271368e-15 C26.2988115,-3.55271368e-15 32.2462882,10.0287344 31.0200077,17.7742662 C28.6995624,16.1918007 26.4458227,15.2513548 24.2934364,14.7980695 C23.6231431,8.40690885 16.4153855,4.54930623 10.5087092,8.59854689 C6.23307996,11.9254348 5.87850453,17.4300275 8.72935579,20.8969338 C8.8536367,20.8038711 8.97654033,20.7088612 9.09937054,20.612554 L9.34531942,20.4184022 C11.030581,19.0825093 12.8644853,17.5852092 18.1753102,17.5852092 C26.2099305,17.5852092 29.9404859,21.2187158 33.5396097,24.8094752 L34.2924125,25.5591569 C37.5585217,28.7942527 40.9559866,31.7832 47.5979474,31.7832 C55.6200952,31.7832 59.7551895,26.698017 59.7551895,26.698017 L59.789673,26.7322611 C59.8009764,26.743485 59.8149622,26.7573717 59.8314871,26.7737781 L59.9599594,26.9013083 C60.7954152,27.7305177 63.9373331,30.8468 64.6881596,31.5602675 C59.932963,35.9769757 54.4611678,38.5757036 47.7624445,38.5757036 C38.5894647,38.5757036 33.1277077,34.8552157 26.1751148,27.0109613 C24.2354739,28.828619 21.0954574,31.2841023 15.5430328,31.2841023 C6.24700393,31.2841023 -7.10542736e-15,23.0226964 -7.10542736e-15,15.5388118 C-7.10542736e-15,8.56047738 5.36493682,0.0754937705 15.5430328,-3.55271368e-15 Z M79.658043,0.247451803 C88.2365019,0.247774426 95.2010758,7.17255344 95.2010758,15.7017364 C95.2010758,24.231242 88.2365019,31.1556984 79.658043,31.1556984 C71.0795842,31.1556984 64.1150102,24.231242 64.1150102,15.702059 C64.1150102,7.17223082 71.0795842,0.247451803 79.658043,0.247451803 Z M41.9567979,1.05884852 L41.9567979,15.0271318 C41.9567979,16.969322 43.8255238,20.3204066 47.6267668,20.3204066 C51.4280097,20.3204066 53.2730973,16.9406085 53.2730973,15.0271318 L53.2730973,1.05884852 L59.9064103,1.09853115 L59.9064103,15.5504262 C60.075117,19.8832525 56.1961589,27.160981 47.6811674,27.160981 C39.1664997,27.160981 35.3377327,19.8090492 35.3069704,15.5388118 L35.3069704,1.05884852 L41.9567979,1.05884852 Z M79.658043,6.84186492 C74.7399684,6.84186492 70.747028,10.812063 70.747028,15.7017364 C70.747028,20.5917325 74.7399684,24.5619305 79.658043,24.5619305 C84.5761177,24.5619305 88.569058,20.5917325 88.569058,15.7017364 C88.569058,10.812063 84.5761177,6.84186492 79.658043,6.84186492 Z" id="形状结合"></path>
                    <path d="M37.1912568,51.2131263 C37.1912568,58.4523046 30.234237,58.9285437 27.1113526,58.9411471 L20.9593126,58.9414226 L20.9593126,72.1420765 L17.9234973,72.1420765 L17.9234973,43.4644809 L26.9720815,43.4644809 C29.7028279,43.4644809 37.1912568,43.8645766 37.1912568,51.2131263 Z M27.3962453,46.2081788 L27.1510603,46.2079631 C26.9570108,46.2086541 26.7895609,46.2109908 26.65562,46.2109908 L20.9593126,46.2109908 L20.9593126,56.1892776 L26.65562,56.1892776 C28.6657835,56.1892776 34.0643006,56.4929496 34.0643006,51.1999776 C34.0643006,46.5572944 29.538482,46.2208061 27.3962453,46.2081788 Z M46.7596197,52.8743169 C49.6442458,52.8743169 52.2324096,54.2226284 53.9873414,56.3525789 L53.9873414,53.1916789 L56.9071038,53.1916789 L56.9071038,72.2321265 L53.9873414,72.2321265 L53.9873414,69.5599894 C52.2324096,71.6902579 49.6442458,73.0382514 46.7596197,73.0382514 C41.4785108,73.0382514 37.1912568,68.5204539 37.1912568,62.9561252 C37.1912568,57.3921144 41.4785108,52.8743169 46.7596197,52.8743169 Z M47.0071423,55.6011497 C43.1546998,55.6011497 40.0269431,58.8971988 40.0269431,62.9564432 C40.0269431,67.0156875 43.1546998,70.3114186 47.0071423,70.3114186 C50.8595848,70.3114186 53.9873414,67.0156875 53.9873414,62.9561252 C53.9873414,58.8968808 50.8595848,55.6011497 47.0071423,55.6011497 Z M64.1714072,82 L68.9920176,71.9600937 L60.0437158,53.3224044 L63.2072216,53.3224044 L70.5736119,68.665256 L77.9403194,53.3227202 L81.1038251,53.3227202 L67.3352302,82 L64.1714072,82 Z" id="形状结合"></path>
                </g>
            </g>
        </g>
    </g>
</svg>