<svg width="120" height="90" viewBox="0 0 120 90" fill="none" xmlns="http://www.w3.org/2000/svg">
<g id="rabbitlinepay">
<g id="rabbitlinepay_2">
<path id="Vector" fill-rule="evenodd" clip-rule="evenodd" d="M117.765 58.5542H2.2348C2.10482 58.5542 2 58.448 2 58.3166V32.2376C2 32.1062 2.10482 32 2.2348 32H117.765C117.894 32 118 32.1062 118 32.2376V58.3166C118 58.448 117.895 58.5542 117.765 58.5542Z" fill="#08BF5B"/>
<path id="Vector_2" fill-rule="evenodd" clip-rule="evenodd" d="M4.18945 56.3251H51.3742V34.4717H4.18945V56.3251Z" fill="white"/>
<path id="Vector_3" fill-rule="evenodd" clip-rule="evenodd" d="M16.9485 43.2709C14.6614 43.2709 12.8634 45.041 12.8634 47.3044C12.8634 49.4986 14.5579 51.2861 16.6355 51.2861C17.3433 51.2861 17.7801 51.1415 18.3748 50.711L18.8835 50.3448V51.0646H20.9645V47.4679C20.9645 45.0347 19.2776 43.2709 16.9485 43.2709ZM16.9136 49.2631C15.8151 49.2631 14.9248 48.3707 14.9248 47.268C14.9248 46.1688 15.8151 45.2765 16.9136 45.2765C18.0135 45.2765 18.9093 46.1688 18.9093 47.268C18.9093 48.3707 18.0135 49.2631 16.9136 49.2631ZM26.4312 43.2556C25.8176 43.2556 25.2886 43.4163 24.7086 43.7762L24.1894 44.106V40.2305H22.128V47.0165C22.128 49.4678 23.8121 51.2533 26.1363 51.2533C28.4172 51.2533 30.2103 49.4783 30.2103 47.2114C30.2103 45.0661 28.4772 43.2556 26.4312 43.2556ZM26.167 49.2673C25.0678 49.2673 24.172 48.3735 24.172 47.268C24.172 46.1681 25.0678 45.273 26.167 45.273C27.269 45.273 28.1614 46.1674 28.1614 47.268C28.1614 48.3735 27.269 49.2673 26.167 49.2673ZM35.5162 43.2556C34.9034 43.2556 34.3737 43.4163 33.7944 43.7762L33.2745 44.106V40.2305H31.213V47.0165C31.213 49.4678 32.8971 51.2533 35.222 51.2533C37.5029 51.2533 39.296 49.4783 39.296 47.2114C39.296 45.0661 37.563 43.2556 35.5162 43.2556ZM35.2521 49.2673C34.1529 49.2673 33.2577 48.3735 33.2577 47.268C33.2577 46.1681 34.1529 45.273 35.2521 45.273C36.3548 45.273 37.2478 46.1674 37.2478 47.268C37.2478 48.3735 36.3548 49.2673 35.2521 49.2673ZM40.4336 51.0639H42.4755V43.4945H40.4336V51.0639ZM47.9527 45.3659V43.5728L45.88 43.5721V40.2305L43.8452 40.2326V48.1234C43.8452 49.3903 44.0799 50.0185 44.7571 50.5314C45.3427 50.9556 45.8213 51.0639 47.0931 51.0639H47.9527V49.261L47.3063 49.2596C46.2008 49.2596 45.8807 48.9542 45.8807 47.9109V45.3638L47.9527 45.3659ZM12.1918 43.2304C9.83339 43.2304 8.17725 45.0179 8.17725 47.4833L8.18004 51.0639H10.2275L10.2247 47.7306C10.2247 46.2129 10.9619 45.3079 12.2044 45.3079C12.2261 45.3079 12.2526 45.3079 12.2729 45.3128C12.2959 45.3156 12.3113 45.3191 12.3295 45.3191L12.3351 43.2346H12.2876C12.2491 43.2304 12.2212 43.2304 12.1918 43.2304Z" fill="#08BF5B"/>
<path id="Vector_4" fill-rule="evenodd" clip-rule="evenodd" d="M93.8624 44.2813C93.8624 43.5622 93.3544 43.0137 92.664 43.0137H91.0917V45.5489H92.664C93.3544 45.5489 93.8624 44.9983 93.8624 44.2813ZM96.2321 44.2533C96.2321 46.2379 94.636 47.8347 92.576 47.8347H91.0093V50.7123C91.0093 50.9066 90.852 51.0631 90.6585 51.0631H89.0743C88.88 51.0631 88.7214 50.9066 88.7214 50.7123V41.0242C88.7214 40.8306 88.88 40.6727 89.0743 40.6727H92.576C94.636 40.6727 96.2321 42.2688 96.2321 44.2533ZM102.324 47.3623C102.324 46.3022 101.618 45.637 100.641 45.637C99.6666 45.637 98.9602 46.3022 98.9602 47.363C98.9602 48.4224 99.6659 49.0876 100.641 49.0876C101.618 49.0876 102.324 48.4224 102.324 47.3623ZM104.644 43.8264V50.8772C104.644 50.9792 104.562 51.0617 104.46 51.0617H102.597C102.495 51.0617 102.412 50.9792 102.412 50.8765V50.3832C101.922 50.9492 101.193 51.2902 100.196 51.2902C98.2467 51.2902 96.6402 49.5789 96.6402 47.363C96.6402 45.1457 98.2474 43.4337 100.196 43.4337C101.193 43.4337 101.922 43.7761 102.412 44.3414V43.8271C102.412 43.7251 102.495 43.6426 102.597 43.6426H104.46C104.562 43.6426 104.644 43.7244 104.644 43.8264ZM111.424 43.8348L109.807 47.9821L108.099 43.8313C108.052 43.7174 107.942 43.6433 107.819 43.6433H105.814C105.685 43.6433 105.597 43.7754 105.646 43.8949L108.601 51.0994L107.514 53.8352C107.467 53.9547 107.555 54.084 107.685 54.084L109.59 54.0938C109.715 54.0938 109.827 54.0176 109.873 53.9023L113.837 43.8928C113.884 43.7726 113.797 43.6433 113.667 43.6433H111.706C111.582 43.6433 111.469 43.7202 111.424 43.8348ZM61.9429 50.7067C61.9429 50.9024 61.7843 51.0624 61.5879 51.0624H55.3169C55.2261 51.0624 55.138 51.0275 55.0611 50.9527C54.9983 50.8863 54.9619 50.799 54.9619 50.7067V41.0235C54.9619 40.8292 55.1219 40.6699 55.3183 40.6699H56.9842C57.1806 40.6699 57.3406 40.8292 57.3406 41.0235V48.6942H61.5879C61.7836 48.6942 61.9422 48.8528 61.9422 49.0499V50.7074L61.9429 50.7067ZM65.6528 50.7032C65.6528 50.8989 65.4942 51.0575 65.2971 51.0575L63.6396 51.0617C63.4446 51.0617 63.2853 50.9031 63.2853 50.7074L63.2818 41.027C63.2818 40.832 63.4418 40.6727 63.6361 40.6727H65.2964C65.4928 40.6727 65.6514 40.8327 65.6514 41.0291L65.6528 50.7032ZM76.3031 50.7095C76.3031 50.9052 76.1445 51.0631 75.9481 51.0631H74.3102C74.2808 51.0631 74.2508 51.0589 74.2144 51.0491C74.206 51.047 74.199 51.0449 74.1795 51.0372L74.1096 51.0002C74.0747 50.9765 74.0439 50.9471 74.0188 50.9122L69.5912 44.7208L69.5877 50.7081C69.5877 50.9038 69.4291 51.0631 69.2341 51.0631H67.5835C67.3879 51.0631 67.2279 50.9045 67.2279 50.7095V41.0277C67.2279 40.832 67.3879 40.6727 67.5835 40.6727H69.2739L69.2935 40.6741L69.3585 40.686L69.4535 40.7293C69.4598 40.7328 69.4661 40.7363 69.4815 40.7482L69.5066 40.7712C69.5136 40.7775 69.5213 40.7852 69.529 40.7943C69.5402 40.8055 69.5486 40.8174 69.5597 40.8327L73.9419 46.9521V41.0277C73.9419 40.832 74.1019 40.6727 74.2976 40.6727H75.9481C76.1438 40.6727 76.3031 40.832 76.3031 41.0277V50.7095ZM84.8564 42.6825C84.8564 42.8781 84.6977 43.0367 84.5021 43.0367H80.2485V44.6824H84.5021C84.6977 44.6824 84.8564 44.8417 84.8564 45.0374V46.6935C84.8564 46.8892 84.6977 47.0499 84.5021 47.0499H80.2485V48.69H84.5021C84.6977 48.69 84.8564 48.8493 84.8564 49.0457V50.7074C84.8564 50.9031 84.6977 51.0638 84.5021 51.0638H78.2269C78.1361 51.0638 78.0487 51.0275 77.9865 50.9674L77.9725 50.9534C77.9089 50.887 77.8726 50.7997 77.8726 50.7074V41.027C77.8726 40.9362 77.9076 40.8488 77.9816 40.7726C78.048 40.7084 78.1354 40.6727 78.2283 40.6727H84.5021C84.6977 40.6727 84.8564 40.8313 84.8564 41.0284V42.6825Z" fill="white"/>
</g>
</g>
</svg>
