<svg width="797" height="301" viewBox="0 0 797 301" fill="none" xmlns="http://www.w3.org/2000/svg">
<path d="M107.752 172.311L107.755 231.929C107.755 231.977 107.736 232.022 107.702 232.056C107.669 232.09 107.623 232.109 107.575 232.109L71.1992 232.105C71.1319 232.105 71.0673 232.078 71.0197 232.031C70.9721 231.983 70.9453 231.919 70.9453 231.852L70.9487 38.8192C70.9487 38.6637 71.0266 38.5859 71.1823 38.5859C90.6254 38.5768 110.064 38.5768 129.498 38.5859C132.376 38.5881 134.632 38.6535 136.266 38.782C152.461 40.0559 166.388 46.2495 178.046 57.3629C192.415 71.0634 199.952 91.1865 198.225 111.015C196.522 130.567 186.402 148.13 170.53 159.622C170.433 159.692 170.42 159.775 170.492 159.872L224.684 231.973C224.694 231.986 224.7 232.001 224.702 232.017C224.704 232.033 224.701 232.049 224.694 232.063C224.688 232.077 224.677 232.089 224.664 232.097C224.651 232.105 224.636 232.109 224.62 232.109L179.109 232.105C178.987 232.105 178.867 232.077 178.757 232.022C178.648 231.968 178.553 231.888 178.479 231.791L133.906 172.392C133.846 172.312 133.769 172.248 133.679 172.203C133.59 172.158 133.492 172.135 133.392 172.135H107.924C107.809 172.135 107.752 172.194 107.752 172.311ZM107.799 75.69L107.697 135.051C107.697 135.139 107.732 135.223 107.795 135.286C107.857 135.348 107.941 135.383 108.029 135.383L131.296 135.423C139.348 135.437 147.076 132.289 152.78 126.673C158.483 121.057 161.696 113.432 161.71 105.476V105.455C161.717 101.515 160.938 97.6121 159.419 93.9692C157.899 90.3263 155.668 87.0148 152.854 84.2238C150.039 81.4328 146.695 79.217 143.014 77.7028C139.332 76.1887 135.385 75.4059 131.397 75.3992L108.134 75.3586C108.09 75.3582 108.047 75.3664 108.006 75.3828C107.965 75.3993 107.928 75.4236 107.897 75.4545C107.866 75.4853 107.841 75.522 107.825 75.5624C107.808 75.6028 107.799 75.6462 107.799 75.69Z" fill="#BF0000"/>
<path d="M323.841 172.063L323.844 231.932C323.844 231.979 323.826 232.023 323.792 232.056C323.758 232.089 323.713 232.108 323.665 232.108L286.761 232.104C286.728 232.104 286.697 232.092 286.674 232.069C286.652 232.046 286.639 232.015 286.639 231.983L286.645 48.5587C286.645 48.4369 286.708 48.3749 286.832 48.3727C317.66 48.3276 338.827 48.3276 350.334 48.3727C383.372 48.5012 415.625 64.4136 420.043 100.527C420.919 107.685 420.817 114.807 419.738 121.891C414.453 156.648 382.495 171.678 350.504 171.84C341.671 171.885 332.841 171.903 324.014 171.894C323.968 171.894 323.924 171.912 323.892 171.944C323.859 171.976 323.841 172.019 323.841 172.063ZM370.026 86.1668C363.241 82.6461 354.99 80.9247 347.545 80.9213C339.721 80.919 331.882 80.9134 324.027 80.9044C323.903 80.9044 323.841 80.9664 323.841 81.0904L323.844 139.085C323.844 139.153 323.871 139.219 323.919 139.267C323.966 139.315 324.031 139.342 324.098 139.342C331.858 139.34 339.589 139.322 347.291 139.288C355.887 139.251 365.12 137.384 372.321 132.717C377.341 129.463 380.532 124.819 381.893 118.783C383.47 111.779 383.328 103.368 380.295 96.7728C378.168 92.1507 374.745 88.6154 370.026 86.1668Z" fill="#BF0000"/>
<path d="M547.227 208.116C547.11 207.834 546.984 207.831 546.848 208.106C532.797 236.745 495.395 242.315 469.796 226.995C448.391 214.184 436.92 190.374 435.292 166.054C434.581 155.441 435.19 144.71 437.608 134.605C445.503 101.586 473.422 76.2985 509.043 81.1788C525.43 83.4278 539.515 93.469 546.919 108.113C547.089 108.449 547.183 108.43 547.204 108.056C547.213 107.88 547.235 107.628 547.271 107.302C548.098 99.9129 548.936 92.5255 549.787 85.1391C549.823 84.8212 549.849 84.5236 549.865 84.2463C549.868 84.1894 549.893 84.1361 549.935 84.0971C549.976 84.0581 550.031 84.0365 550.088 84.0366L580.557 84.04C580.623 84.04 580.687 84.066 580.734 84.1123C580.781 84.1586 580.807 84.2214 580.807 84.2869V231.895C580.807 231.952 580.785 232.006 580.745 232.046C580.705 232.086 580.65 232.108 580.594 232.108H550.102C550.056 232.109 550.012 232.092 549.978 232.061C549.944 232.031 549.921 231.989 549.916 231.943C549.015 224.214 548.102 216.482 547.177 208.749C547.165 208.649 547.173 208.546 547.2 208.438C547.241 208.28 547.25 208.173 547.227 208.116ZM489.006 119.998C475.518 130.059 471.11 147.05 472.403 163.264C472.829 168.587 473.877 173.461 475.545 177.884C480.549 191.159 491.735 201.214 506.335 202.066C516.6 202.668 526.043 199.502 533.211 191.967C538.156 186.772 541.554 180.699 543.405 173.748C545.926 164.276 546.065 154.444 543.821 144.25C542.171 136.756 538.895 130.279 533.993 124.82C527.047 117.085 518.208 113.385 507.476 113.721C500.472 113.942 494.315 116.034 489.006 119.998Z" fill="#BF0000"/>
<path d="M681.591 172.476C681.6 172.497 681.615 172.515 681.635 172.527C681.654 172.54 681.676 172.546 681.699 172.546C681.722 172.546 681.745 172.54 681.764 172.527C681.783 172.515 681.798 172.497 681.808 172.476L719.894 84.3067C719.928 84.2266 719.984 84.1583 720.057 84.1102C720.13 84.0621 720.216 84.0363 720.303 84.0361H758.251C758.44 84.0361 758.486 84.1184 758.389 84.283C758.267 84.4859 758.061 84.655 757.949 84.885C727.338 147.876 696.732 210.857 666.132 273.828C666.117 273.859 666.095 273.885 666.066 273.903C666.037 273.921 666.003 273.93 665.969 273.93L628.699 273.933C628.627 273.933 628.607 273.901 628.638 273.835L661.723 208.64C661.749 208.59 661.762 208.536 661.763 208.48C661.763 208.424 661.751 208.369 661.727 208.319L601.651 84.1816C601.603 84.0846 601.634 84.0361 601.742 84.0361L643.204 84.0395C643.26 84.0394 643.315 84.0557 643.362 84.0864C643.409 84.1171 643.446 84.1608 643.468 84.212L681.591 172.476Z" fill="#BF0000"/>
<path d="M71.4761 279.47C71.2616 279.628 71.0348 279.607 70.7955 279.406C60.126 270.417 49.4079 261.41 38.6413 252.387C38.6328 252.382 38.6264 252.374 38.6233 252.365C38.6201 252.356 38.6204 252.346 38.6241 252.337C38.6278 252.328 38.6347 252.32 38.6435 252.316C38.6522 252.311 38.6623 252.31 38.6718 252.313C38.9155 252.331 39.1728 252.34 39.4437 252.34C113.431 252.376 187.417 252.393 261.402 252.391C262.313 252.391 263.443 252.198 264.317 252.357C264.662 252.418 264.661 252.473 264.313 252.522L71.6386 279.403C71.5785 279.412 71.5226 279.435 71.4761 279.47Z" fill="#BF0000"/>
</svg>
