<?xml version="1.0" encoding="UTF-8"?>
<svg width="120px" height="90px" viewBox="0 0 120 90" version="1.1" xmlns="http://www.w3.org/2000/svg" xmlns:xlink="http://www.w3.org/1999/xlink">
    <title>rakutenpay</title>
    <g id="LOGO-+-SDK-+-payment-icon" stroke="none" stroke-width="1" fill="none" fill-rule="evenodd">
        <g id="payment" transform="translate(-918.000000, -1355.000000)">
            <g id="rakutenpay" transform="translate(918.000000, 1355.000000)">
                <g id="payment-4:3bg" transform="translate(-20.000000, -15.000000)"></g>
                <g transform="translate(8.072000, 25.054000)" fill="#BF0000" fill-rule="nonzero" id="形状">
                    <path d="M102.816,7.416 L94.356,33.066 C93.456,35.802 91.476,37.332 88.92,37.332 C87.318,37.332 85.842,36.738 84.726,35.64 L86.292,33.21 C87.048,33.876 87.75,34.182 88.686,34.182 C90,34.182 90.63,33.624 91.278,31.86 L91.8,30.438 L83.628,7.398 L87.12,7.398 L93.384,25.722 L99.306,7.398 L102.816,7.398 L102.816,7.416 L102.816,7.416 Z M77.04,28.422 C75.204,30.6 73.116,31.608 70.38,31.608 C64.206,31.608 59.976,26.55 59.976,19.206 C59.976,11.862 64.242,6.84 70.47,6.84 C73.278,6.84 75.222,7.668 77.094,9.612 L77.58,7.398 L80.586,7.398 L80.586,30.996 L77.58,30.996 L77.04,28.422 L77.04,28.422 Z M63.558,19.206 C63.558,24.57 66.474,28.458 70.452,28.458 C74.43,28.458 77.31,24.606 77.31,19.242 C77.31,13.842 74.43,9.99 70.416,9.99 C66.474,9.99 63.558,13.932 63.558,19.206 Z M49.536,1.53 C54.81,1.53 58.572,5.166 58.572,10.368 C58.572,15.57 54.828,19.242 49.536,19.242 L43.128,19.242 L43.128,30.996 L39.762,30.996 L39.762,1.53 L49.536,1.53 Z M49.32,16.11 C52.614,16.11 54.972,13.716 54.972,10.386 C54.972,7.056 52.65,4.698 49.32,4.698 L43.146,4.698 L43.146,16.128 L49.32,16.128 L49.32,16.11 L49.32,16.11 Z M5.166,38.61 L0,34.272 L36.288,34.272 L5.166,38.61 Z M11.07,31.014 L11.07,21.384 L15.228,21.384 L22.446,31.014 L29.826,31.014 L21.096,19.404 C23.814,17.46 25.596,14.274 25.596,10.692 C25.596,4.788 20.79,0 14.886,0 L5.166,0 L5.166,31.032 L11.07,31.032 L11.07,31.014 Z M11.07,5.868 L14.922,5.868 C17.568,5.868 19.728,8.028 19.728,10.674 C19.728,13.338 17.568,15.48 14.922,15.48 L11.07,15.48 L11.07,5.868 L11.07,5.868 Z"></path>
                </g>
            </g>
        </g>
    </g>
</svg>