<?xml version="1.0" encoding="UTF-8"?>
<svg width="120px" height="90px" viewBox="0 0 120 90" version="1.1" xmlns="http://www.w3.org/2000/svg" xmlns:xlink="http://www.w3.org/1999/xlink">
    <title>tng</title>
    <g id="LOGO-+-SDK-+-payment-icon" stroke="none" stroke-width="1" fill="none" fill-rule="evenodd">
        <g id="payment" transform="translate(-2318.000000, -1355.000000)">
            <g id="tng" transform="translate(2318.000000, 1355.000000)">
                <g id="payment-4:3bg" transform="translate(-20.000000, -15.000000)"></g>
                <g id="Touch-'n-Go-eWallet" transform="translate(19.000000, 4.000000)">
                    <path d="M63.6890935,0 L18.7575831,0 C8.41633914,0 0,8.37378922 0,18.658581 L0,63.341419 C0,73.6296051 8.41633914,82 18.7575831,82 L63.6890935,82 C74.0337504,82 82.4466766,73.6296051 82.4466766,63.341419 L82.4466766,18.658581 C82.4466766,8.37378922 74.0337504,0 63.6890935,0" id="Fill-1" fill="#FFFFFF"></path>
                    <path d="M63.828342,3.18387284 L18.6203824,3.18387284 C10.1187195,3.18387284 3.19725325,10.0641609 3.19725325,18.5194139 L3.19725325,63.4805861 C3.19725325,71.9392334 10.1187195,78.8161272 18.6203824,78.8161272 L63.828342,78.8161272 C72.3300049,78.8161272 79.2480582,71.9392334 79.2480582,63.4805861 L79.2480582,18.5194139 C79.2480582,10.0641609 72.3300049,3.18387284 63.828342,3.18387284" id="Fill-3" fill="#295DAA"></path>
                    <path d="M32.7779891,34.0626873 L28.9452442,34.0626873 C27.8223831,34.0626873 26.3650527,34.853564 25.9452596,35.9058035 L26.3309231,33.8861826 L21.6483533,33.8861826 L19.5664527,45.4879709 L24.2558484,45.4879709 L25.5527701,38.1460551 L30.5936999,38.1460551 C30.5936999,38.1460551 29.952065,41.7813726 29.6619641,43.4106466 C29.3752761,45.0399205 30.4878984,45.4336617 31.0373837,45.4336617 L33.491296,45.4336617 L35.0851445,36.4115572 C34.9554523,35.1183211 34.0783237,34.0626873 32.7779891,34.0626873" id="Fill-5" fill="#FFFFFF"></path>
                    <polygon id="Fill-7" fill="#FFFFFF" points="18.2708962 33.8872009 17.3903546 38.8666694 20.9534763 33.8872009"></polygon>
                    <polygon id="Fill-9" fill="#FFFFFF" points="23.8312772 15.7174021 8.14876372 15.7174021 7.46617336 19.5597732 12.940548 19.5597732 10.74602 31.9490438 15.4695453 31.9490438 17.6743122 19.5597732 23.1486869 19.5597732"></polygon>
                    <path d="M27.0763118,28.145368 L27.7623151,24.2690537 L23.5609715,24.2690537 L22.8783811,28.145368 L27.0763118,28.145368 Z M20.4551853,31.9470072 C19.1548507,31.9470072 18.281135,30.8913735 18.5098028,29.5981373 L19.7145748,22.8128901 C19.9398296,21.5230483 21.1957959,20.4640202 22.4893046,20.4640202 L30.178685,20.4640202 C31.4790196,20.4640202 32.3561482,21.5230483 32.1206546,22.8128901 L30.9227085,29.5981373 C30.6906278,30.8913735 29.4380745,31.9470072 28.1411528,31.9470072 L20.4551853,31.9470072 Z" id="Fill-11" fill="#FFFFFF"></path>
                    <path d="M51.3888153,28.145368 L52.0782315,24.2690537 L58.1635246,24.2690537 L58.839289,20.4640202 L51.0099776,20.4640202 C49.709643,20.4640202 48.4536767,21.5230483 48.2284219,22.8128901 L47.0236499,29.5981373 C46.7949821,30.8913735 47.6721107,31.9470072 48.9758583,31.9470072 L56.5867408,31.9470072 L57.2590923,28.145368 L51.3888153,28.145368 Z" id="Fill-13" fill="#FFFFFF"></path>
                    <path d="M41.8185571,28.145368 L36.6649999,28.145368 L38.0267677,20.4640202 L33.9209866,20.4640202 L32.3066604,29.5981373 C32.0779927,30.8913735 32.9517083,31.9470072 34.252043,31.9470072 L38.2520225,31.9470072 C39.5523571,31.9470072 40.6137851,31.1798907 41.4533713,30.1819604 C41.4533713,30.1819604 41.9107068,31.5125342 42.5694065,31.8112344 C43.2315192,32.1133289 45.2349219,32.0420482 45.2349219,32.0420482 L47.2895188,20.4640202 L43.1803249,20.4640202 L41.8185571,28.145368 Z" id="Fill-15" fill="#FFFFFF"></path>
                    <path d="M71.4173816,20.5217237 L67.5880497,20.5217237 C66.4617756,20.5217237 65.373044,21.3159947 64.9532509,22.3648398 L66.0556343,16.1260783 L61.7382503,16.1260783 L58.9328039,31.9470072 L63.2536009,31.9470072 L64.5539355,24.6050915 L69.2365054,24.6050915 C69.2365054,24.6050915 68.5948705,28.240409 68.3047696,29.8696829 C68.0180816,31.4955625 69.1307039,31.8926981 69.6733632,31.8926981 L71.7655027,31.8926981 L73.3627641,22.8705936 C73.5914319,21.5773574 72.7177162,20.5217237 71.4173816,20.5217237" id="Fill-17" fill="#FFFFFF"></path>
                    <path d="M56.0246277,49.347653 C54.2771964,49.347653 53.099728,47.9186439 53.4034807,46.184146 L55.0246328,37.0670006 C55.3283855,35.3223197 57.0143837,33.9000993 58.7686409,33.9000993 L68.5501608,33.9000993 C70.2907662,33.9000993 71.4750605,35.3223197 71.1678948,37.0670006 L69.5501557,46.184146 C69.2395771,47.9186439 67.5569918,49.347653 65.8095605,49.347653 L56.0246277,49.347653 Z M65.137209,45.0843861 L66.3692846,38.1633662 L59.4375795,38.1633662 L58.2055039,45.0843861 L65.137209,45.0843861 Z" id="Fill-19" fill="#FFFFFF"></path>
                    <path d="M46.5413998,45.0857439 L39.6028688,45.0857439 L40.8315314,38.1647239 L52.0772076,38.1647239 L52.8212311,33.9014571 L40.1660058,33.9014571 C38.4151616,33.9014571 36.7325763,35.3236775 36.4288236,37.064964 L34.8076715,46.1821094 C34.5005059,47.9200017 35.6745613,49.3490107 37.4219926,49.3490107 L47.2103384,49.3490107 C48.9577697,49.3490107 50.6437679,47.9200017 50.9509335,46.1821094 L51.9406896,40.5882689 L47.3332046,40.5882689 L46.5413998,45.0857439 Z" id="Fill-21" fill="#FFFFFF"></path>
                    <polygon id="Fill-23" fill="#FDDB00" points="38.5045809 54.9523553 32.3919842 67.4807931 28.514871 67.4807931 28.0541225 59.8978806 24.3544827 67.4807931 20.4534788 67.4807931 19.7094553 54.9523553 22.4705334 54.9523553 22.9517596 64.7789138 27.7060014 54.9523553 30.5080348 54.9523553 30.989261 64.7789138 35.7435029 54.9523553"></polygon>
                    <polygon id="Fill-25" fill="#FDDB00" points="50.0478665 67.4797748 47.3550475 67.4797748 50.0239758 54.951337 52.7202077 54.951337"></polygon>
                    <polygon id="Fill-27" fill="#FDDB00" points="54.4730998 67.4797748 51.7802808 67.4797748 54.4526221 54.951337 57.1454411 54.951337"></polygon>
                    <path d="M73.0931409,67.4797748 L70.9225036,67.4797748 C69.9156828,67.4797748 69.2160277,67.3813395 68.8201253,67.1844689 C68.4276358,66.9909926 68.2296846,66.5938571 68.2296846,65.999851 C68.2296846,65.6638132 68.2808789,65.2734663 68.3832674,64.8220217 L70.4856458,54.951337 L73.1818777,54.951337 L72.5027003,58.0673235 L75.1101954,58.0673235 L74.6050786,60.3347297 L72.0419518,60.3347297 L71.2740376,63.9055551 C71.2023656,64.2687474 71.1648232,64.5097442 71.1648232,64.6251511 C71.1648232,64.8729365 71.250147,65.0324696 71.4173816,65.1037503 C71.5846162,65.1784254 71.9259114,65.2157629 72.4344412,65.2157629 L73.5743671,65.2157629 L73.0931409,67.4797748 Z" id="Fill-29" fill="#FDDB00"></path>
                    <path d="M18.0282353,58.3510887 C17.6323329,58.1474294 16.9326778,58.0455998 15.925857,58.0455998 L12.0692214,58.0455998 C10.9600121,58.0455998 10.117013,58.2526534 9.54022417,58.6667605 C8.96343531,59.0808676 8.57094586,59.7665204 8.36616875,60.7271132 L7.5129308,64.800298 C7.45491062,65.0480835 7.41054224,65.2687143 7.38323863,65.4655849 C7.35252206,65.6590612 7.33887026,65.8389602 7.33887026,65.9984933 C7.33887026,66.2904048 7.38323863,66.524613 7.46856242,66.704512 C7.55729917,66.8878053 7.7040561,67.0371554 7.90883321,67.1525623 C8.11019736,67.2679692 8.39005941,67.3494329 8.74159345,67.3935591 C9.08971453,67.4376852 9.52998531,67.4580512 10.0555799,67.4580512 L16.6050344,67.4580512 L17.0862606,65.2144052 L11.5675175,65.2144052 C11.0555748,65.2144052 10.7142796,65.1736733 10.5470449,65.0956039 C10.3798103,65.0141402 10.2944865,64.8512128 10.2944865,64.6034274 C10.2944865,64.4303171 10.3252031,64.1961089 10.3832233,63.9075917 L10.3832233,63.900803 L11.5231492,63.900803 L11.5231492,63.9075917 L17.7859157,63.9075917 L18.4650931,60.7271132 C18.5674817,60.2620912 18.618676,59.8615614 18.618676,59.528918 C18.618676,58.9450948 18.4207247,58.5547479 18.0282353,58.3510887 M15.6630597,61.6401854 L12.6494233,61.6401854 L12.6494233,61.6401854 L10.8644495,61.6401854 C10.9224696,61.3482739 10.9941416,61.1174601 11.0726395,60.9443497 C11.1545504,60.767845 11.2569389,60.6354665 11.3798052,60.5404255 C11.5026715,60.4453846 11.6630802,60.3842868 11.8610314,60.3537379 C12.0589826,60.3265833 12.3013022,60.313006 12.594816,60.313006 L14.7415627,60.313006 C15.4446308,60.313006 15.7927519,60.5302426 15.7927519,60.9647156 C15.7927519,61.0088418 15.7483835,61.232867 15.6630597,61.6401854" id="Fill-31" fill="#FDDB00"></path>
                    <path d="M46.9704079,58.8086431 C46.8748452,58.6185611 46.7212624,58.4726053 46.5096594,58.3605928 C46.2980563,58.2519745 46.0216073,58.1772994 45.6768991,58.1331733 C45.3356039,58.0890471 44.908985,58.0686812 44.3970422,58.0686812 L37.8680654,58.0686812 L37.3868392,60.3326931 L42.9055823,60.3326931 C43.417525,60.3326931 43.7588202,60.3700306 43.9260548,60.4413114 C44.0932895,60.5159864 44.1786133,60.6755195 44.1786133,60.9233049 C44.1786133,61.0387118 44.1410708,61.2763143 44.0693988,61.6395066 L41.9090003,61.6395066 L41.9090003,61.6395066 L39.7963832,61.6395066 C39.1684,61.6395066 38.6462184,61.6734498 38.2298383,61.7379419 C37.8134582,61.802434 37.4653371,61.9314182 37.188888,62.1215001 C36.9124389,62.3081878 36.690597,62.5763391 36.5301883,62.9259541 C36.3697796,63.2755692 36.2264356,63.7338025 36.0933305,64.2972597 L35.984116,64.8199851 C35.8817275,65.2714298 35.8305332,65.665171 35.8305332,65.9978144 C35.8305332,66.3033033 35.8783145,66.5510887 35.9738772,66.7377763 C36.0694398,66.9278583 36.2230226,67.0772084 36.4346256,67.1858266 C36.6462287,67.2944449 36.9226778,67.36912 37.2673859,67.4132461 C37.6086811,67.4573723 38.0353,67.4811325 38.5472428,67.4811325 L45.5130774,67.4811325 L46.960169,60.7264343 C47.0625575,60.2749897 47.1137518,59.8846428 47.1137518,59.548605 C47.1137518,59.2431162 47.0659705,58.9987251 46.9704079,58.8086431 L46.9704079,58.8086431 Z M39.2468979,65.2137263 C38.8544085,65.2137263 38.6564573,65.0474046 38.6564573,64.7113668 C38.6564573,64.5077076 38.7383681,64.3244143 38.8987768,64.1580926 C39.0591856,63.9917708 39.2707886,63.9069128 39.5335859,63.9069128 L42.4482467,63.9069128 L42.4482467,63.9001242 L43.5813467,63.9001242 L43.3014847,65.2137263 L39.2468979,65.2137263 Z" id="Fill-33" fill="#FDDB00"></path>
                    <path d="M67.2443654,58.3510887 C66.851876,58.1474294 66.1488079,58.0455998 65.1419871,58.0455998 L61.2853516,58.0455998 C60.1761423,58.0455998 59.3331432,58.2526534 58.7563543,58.6667605 C58.1795654,59.0808676 57.787076,59.7665204 57.5822989,60.7271132 L56.7290609,64.800298 C56.6710408,65.0480835 56.6266724,65.2687143 56.5993688,65.4655849 C56.5686522,65.6590612 56.5550004,65.8389602 56.5550004,65.9984933 C56.5550004,66.2904048 56.5993688,66.524613 56.6846926,66.704512 C56.7734293,66.8878053 56.9201862,67.0371554 57.1249633,67.1525623 C57.3263275,67.2679692 57.6061895,67.3494329 57.9577236,67.3935591 C58.3058447,67.4376852 58.7461154,67.4580512 59.27171,67.4580512 L65.8211645,67.4580512 L66.3023907,65.2144052 L60.7836477,65.2144052 C60.2717049,65.2144052 59.9304097,65.1736733 59.7631751,65.0956039 C59.5959404,65.0141402 59.5106166,64.8512128 59.5106166,64.6034274 C59.5106166,64.4303171 59.5413332,64.1961089 59.5993534,63.9075917 L59.5993534,63.900803 L60.7392793,63.900803 L60.7392793,63.9075917 L67.0020459,63.9075917 L67.6812233,60.7271132 C67.7836118,60.2620912 67.8348061,59.8615614 67.8348061,59.528918 C67.8348061,58.9450948 67.6368549,58.5547479 67.2443654,58.3510887 M64.8791898,61.6401854 L62.0430269,61.6401854 L62.0430269,61.6401854 L60.0805796,61.6401854 C60.1385998,61.3482739 60.2102718,61.1174601 60.2887697,60.9443497 C60.3706805,60.767845 60.4696561,60.6354665 60.5959353,60.5404255 C60.7188016,60.4453846 60.8792103,60.3842868 61.0771615,60.3537379 C61.2751127,60.3265833 61.5174323,60.313006 61.8109462,60.313006 L63.9576928,60.313006 C64.6607609,60.313006 65.008882,60.5302426 65.008882,60.9647156 C65.008882,61.0088418 64.9679266,61.232867 64.8791898,61.6401854" id="Fill-35" fill="#FDDB00"></path>
                    <polygon id="Fill-37" fill="#295DAA" points="84.959633 3.43674973 83.8401849 3.43674973 83.8401849 6.72245219 83.5671487 6.72245219 83.5671487 3.43674973 82.4477005 3.43674973 82.4477005 3.18217568 84.959633 3.18217568"></polygon>
                    <polygon id="Fill-39" fill="#295DAA" points="88.7360642 6.72347049 88.466441 6.72347049 88.466441 3.57693518 87.1490416 5.75269476 87.1046732 5.75269476 85.7872739 3.57693518 85.7872739 6.72347049 85.5176507 6.72347049 85.5176507 3.18319397 85.8521199 3.18319397 87.121738 5.27748986 88.394769 3.18319397 88.7360642 3.18319397"></polygon>
                </g>
            </g>
        </g>
    </g>
</svg>