<?xml version="1.0" encoding="UTF-8"?>
<svg width="120px" height="90px" viewBox="0 0 120 90" version="1.1" xmlns="http://www.w3.org/2000/svg" xmlns:xlink="http://www.w3.org/1999/xlink">
    <title>truemoney</title>
    <defs>
        <polygon id="path-1" points="0 0 9.93418374 0 9.93418374 17.3124695 0 17.3124695"></polygon>
    </defs>
    <g id="LOGO-+-SDK-+-payment-icon" stroke="none" stroke-width="1" fill="none" fill-rule="evenodd">
        <g id="payment" transform="translate(-2668.000000, -155.000000)">
            <g id="truemoney" transform="translate(2668.000000, 155.000000)">
                <g id="payment-4:3bg" transform="translate(-20.000000, -15.000000)"></g>
                <g transform="translate(10.000000, 6.000000)">
                    <path d="M38.8137893,1.54098379 C38.5597082,0.690134853 37.6751175,0 36.834384,0 L35.0645552,0 L22.2146853,0 C21.3747611,0 20.9002605,0.690134853 21.1523996,1.54098379 L29.408418,29.4528674 C29.6610426,30.3047013 30.5466043,30.9954928 31.3866904,30.9954928 L40.1657599,30.9954928 L43.3903245,30.9954928 C44.2310579,30.9954928 45.1747185,30.3047013 45.5013017,29.4528674 L46.3879963,27.1347432 L38.8137893,1.54098379 Z" id="Fill-1" fill="#EC1C24"></path>
                    <path d="M56.1022623,8.43377951 L46.7931829,8.43377951 L41.6670557,8.43377951 C40.7131995,8.43377951 40.303433,9.12407852 40.0075984,9.97492746 L33.2712118,29.4485828 C33.2702408,29.4520302 33.2689461,29.4561342 33.2681369,29.4595816 C32.9666381,30.3064907 32.050975,30.9907157 31.2154203,30.9907157 L38.9904647,30.9907157 L48.2940417,30.9907157 C49.1334805,30.9907157 50.0541604,30.2994317 50.3504805,29.4485828 L57.0865435,9.97492746 C57.3818926,9.12407852 56.9415392,8.43377951 56.1022623,8.43377951" id="Fill-3" fill="#9D0A0F"></path>
                    <path d="M58.2098734,9.96653881 C57.9561159,9.11552571 57.0713634,8.42539086 56.2306299,8.42539086 L54.4608011,8.42539086 L41.6107694,8.42539086 C40.7713307,8.42539086 40.2963446,9.11552571 40.5489692,9.96653881 L47.4075414,33.305212 C47.6603278,34.1570459 48.5460514,34.8473449 49.3858138,34.8473449 L58.1652069,34.8473449 L61.3894479,34.8473449 C62.2301813,34.8473449 63.1740037,34.1570459 63.5005869,33.305212 L64.3871197,30.9865952 L58.2098734,9.96653881 Z" id="Fill-5" fill="#FFCD02"></path>
                    <path d="M78.8747609,3.49737821 L72.960173,3.49737821 L63.3597904,3.49737821 C62.5201898,3.49737821 61.5762056,4.1873489 61.2488132,5.03901864 L51.467337,33.3051627 C51.4649095,33.3117292 51.4623201,33.3173107 51.4608636,33.3238771 C51.1279688,34.1670105 50.1927237,34.8472956 49.3576545,34.8472956 L52.3967561,34.8472956 L61.9981097,34.8472956 L64.6870002,34.8472956 L67.9112411,34.8472956 C68.7506799,34.8472956 69.6959588,34.1569966 70.0212473,33.3051627 L79.80418,5.03901864 C80.1304396,4.1873489 79.7137142,3.49737821 78.8747609,3.49737821" id="Fill-7" fill="#060100"></path>
                    <path d="M15.603818,48.7316466 L15.5453956,48.7316466 L15.1155615,48.7316466 C12.3650119,48.7316466 10.132011,50.991001 10.132011,53.7915958 L10.132011,61.0040304 L13.722323,61.0040304 L13.722323,53.9695469 C13.722323,52.9126753 14.5583632,52.068557 15.603818,52.068557 L17.7039523,52.068557 L17.7039523,48.7316466 L16.3553803,48.7316466 L15.603818,48.7316466 Z M33.6848461,53.5320566 C33.7198025,52.4008198 34.7550618,51.4762624 36.0384142,51.4762624 C37.3374647,51.4762624 38.3813012,52.390806 38.399103,53.5320566 L33.6848461,53.5320566 Z M41.883413,55.2347394 C41.8576812,51.4335804 39.8237375,48.444364 36.0384142,48.444364 C32.7877941,48.444364 30.1644469,51.1077198 30.1644469,54.776893 C30.1644469,58.7349904 32.5486018,61.0772464 36.0638223,61.1484925 C38.3460211,61.1484925 40.3401534,59.8468561 41.3614948,57.9363448 L38.0718724,57.0644832 C37.6732725,57.6745073 36.9134567,58.0965664 36.0384142,58.0965664 C34.7550618,58.0965664 33.7198025,57.1634726 33.6848461,56.0330567 L41.883413,56.0330567 C41.8929613,55.8547773 41.883413,55.4230326 41.883413,55.2347394 L41.883413,55.2347394 Z M25.900739,56.0507861 C25.900739,57.092719 25.0624331,57.9544026 24.0176256,57.9544026 C22.9825282,57.9544026 22.1503721,57.092719 22.1503721,56.0507861 L22.1503721,50.4889952 C22.1503721,49.5194575 21.3785804,48.7316466 20.4132339,48.7316466 L18.5427437,48.7316466 L18.5427437,55.5752103 C18.5427437,58.6535663 20.1839136,61.1484925 24.0176256,61.1484925 C27.855869,61.1484925 29.4970389,58.6535663 29.4970389,55.5752103 L29.4970389,48.7316466 L25.900739,48.7316466 L25.900739,56.0507861 L25.900739,56.0507861 Z M5.28537299,45.7169852 L1.69425181,45.7169852 L1.69425181,48.7316466 L0,48.7316466 L0,52.068557 L1.69425181,52.068557 L1.69425181,55.97954 C1.69425181,59.049688 4.1437881,61.0040304 7.17010473,61.0040304 L9.28723169,61.0040304 L9.28723169,57.8087914 L7.15926178,57.8087914 C6.12497356,57.8087914 5.28537299,56.9582708 5.28537299,55.9074731 L5.28537299,52.068557 L7.64120675,52.0603489 C8.55832634,52.0225918 9.28723169,51.2602259 9.28723169,50.3095667 L9.28723169,48.7316466 L5.28537299,48.7316466 L5.28537299,45.7169852 Z" id="Fill-9" fill="#EC1C24"></path>
                    <path d="M65.7424402,48.4081172 C64.266504,48.4081172 62.9596854,49.1123699 62.0294572,50.2422934 C61.0799706,51.3845289 60.496555,52.9269902 60.496555,54.6823689 C60.496555,56.3886633 61.0799706,58.1681737 62.0294572,59.2967838 C62.9596854,60.4249015 64.266504,61.1284976 65.7424402,61.1284976 C67.180507,61.1284976 68.4988159,60.4249015 69.4337373,59.2967838 C70.3882408,58.1681737 70.9663159,56.3886633 70.9663159,54.6823689 C70.9663159,52.9514502 70.3882408,51.3845289 69.4337373,50.2422934 C68.4988159,49.1123699 67.180507,48.4081172 65.7424402,48.4081172 M67.7377053,57.415165 C67.2515527,58.0557231 66.5707123,58.4552921 65.7424402,58.4552921 C64.9000884,58.4552921 64.2116419,58.0557231 63.7306679,57.415165 C63.2409549,56.7624589 62.9724704,55.6739042 62.9724704,54.6823689 C62.9724704,53.6783573 63.2409549,52.763157 63.7306679,52.1355677 C64.2116419,51.4841749 64.9000884,51.0690106 65.7424402,51.0690106 C66.5707123,51.0690106 67.2515527,51.4841749 67.7377053,52.1355677 C68.2175465,52.763157 68.4988159,53.6783573 68.4988159,54.6823689 C68.4988159,55.6739042 68.2175465,56.7624589 67.7377053,57.415165" id="Fill-11" fill="#F4811F"></path>
                    <path d="M77.0535333,48.4081172 C75.8904243,48.4081172 74.7553128,49.0618082 74.0571562,50.0408672 L74.0571562,50.0265852 C74.0571562,49.6265237 73.9194345,49.2372968 73.6928653,48.9624905 C73.4675908,48.6868634 73.148452,48.5107181 72.8058471,48.5107181 C72.453532,48.5107181 72.1557554,48.6868634 71.9240075,48.9728327 C71.7154021,49.2372968 71.5718543,49.6265237 71.5718543,50.0265852 L71.5718543,59.5719185 C71.5718543,59.9744424 71.7154021,60.3503722 71.9406765,60.6003901 C72.1672457,60.8535271 72.4803966,61.0285233 72.8264001,61.0285233 C73.1688432,61.0285233 73.4675908,60.8535271 73.6928653,60.6003901 C73.9194345,60.3503722 74.0571562,59.9744424 74.0571562,59.5719185 L74.0571562,54.1043563 C74.0571562,53.3032483 74.2772519,52.5251229 74.6792503,51.9845391 C75.0864275,51.4319716 75.681657,51.0690106 76.4646153,51.0690106 C77.2189288,51.0690106 77.7764507,51.3948711 78.1441401,51.9224861 C78.5359429,52.462249 78.7356475,53.227734 78.7356475,54.0813737 L78.7356475,59.5719185 C78.7356475,59.9744424 78.8618789,60.3503722 79.1049552,60.6003901 C79.328935,60.8535271 79.6378782,61.0285233 79.9842054,61.0285233 C80.3263248,61.0285233 80.6357535,60.8535271 80.8506706,60.6003901 C81.0709282,60.3503722 81.2131812,59.9744424 81.2131812,59.5719185 L81.2131812,53.9933831 C81.2131812,52.4251485 80.840475,51.0197621 80.1227362,50.016243 C79.4177825,49.0102615 78.3616465,48.3964617 77.0535333,48.4081172" id="Fill-13" fill="#F4811F"></path>
                    <path d="M91.3777858,57.3896543 L91.3777858,57.3896543 L91.3612786,57.3896543 C91.1575282,57.0770908 90.849556,56.8874843 90.535434,56.8874843 C90.3051427,56.8874843 90.0772788,56.9633269 89.8749849,57.1900339 C89.1253647,58.0556574 88.197564,58.5941071 87.1173146,58.5941071 C86.3541002,58.5941071 85.702552,58.2682465 85.2178559,57.7544211 C84.7826812,57.2780245 84.4680738,56.4145351 84.4022069,55.6492143 L91.0607508,55.6492143 C91.3127281,55.6492143 91.5417248,55.5469417 91.7199052,55.3745721 C91.8971147,55.1841448 92.016549,54.9341269 92.016549,54.6218918 C92.016549,52.8632299 91.4721357,51.3199478 90.5902961,50.1926509 C89.6919494,49.0865309 88.4191163,48.3965602 86.98639,48.4080515 C85.5335962,48.4080515 84.247978,49.1123042 83.3117619,50.2420635 C82.3763549,51.3846274 81.8186711,52.9515487 81.8186711,54.6823032 C81.8186711,56.4005814 82.4019249,58.168108 83.3431579,59.2967182 C84.2926445,60.4248359 85.6031853,61.1284319 87.0592158,61.1284319 C88.6494076,61.1284319 90.2541646,60.3248615 91.230354,59.0954562 L91.230354,59.0721453 C91.4441382,58.7945482 91.5711788,58.4437351 91.5711788,58.1039209 C91.5711788,57.8547238 91.4925269,57.615048 91.3777858,57.3896543 M86.98639,50.944018 C87.6762931,50.9578076 88.2588995,51.2457468 88.7105813,51.7219793 C89.1190531,52.1612754 89.394011,52.7630914 89.5145781,53.4555245 L84.4565835,53.4555245 C84.5904211,52.7251701 84.8603621,52.1353379 85.2560489,51.6970267 C85.702552,51.2189885 86.2853203,50.9578076 86.98639,50.944018" id="Fill-15" fill="#F4811F"></path>
                    <g id="编组" transform="translate(91.065816, 48.708713)">
                        <mask id="mask-2" fill="white">
                            <use xlink:href="#path-1"></use>
                        </mask>
                        <g id="Clip-18"></g>
                        <path d="M9.93424848,1.35466052 C9.93424848,0.77648379 9.62659992,0.275627121 9.2029156,0.0994818556 L9.1914253,0.0994818556 C9.06891612,0.0375929784 8.94834896,0 8.82600162,0 C8.37545266,0 7.97215955,0.312399292 7.79527377,0.814569253 L5.24685623,7.67701151 L2.65555239,0.801600496 C2.49031874,0.312399292 2.07310781,0 1.61996949,0 C1.47625991,0 1.3208982,0.0375929784 1.18350019,0.0994818556 L1.17977798,0.0994818556 C0.764994584,0.312399292 0.484858002,0.814569253 0.484858002,1.37879225 C0.484858002,1.45463486 0.502821699,1.53014914 0.528229812,1.62979515 C0.618695641,1.96895277 0.859344456,2.68420432 1.17977798,3.56312488 C2.08832031,6.11123934 3.63060895,10.085917 3.9502333,10.9393926 C3.27440986,12.6327182 2.1813755,14.0259567 0.688446575,14.8269005 C0.484858002,14.9537973 0.314445627,15.0925138 0.204074079,15.280807 C0.0713692853,15.4925753 0,15.7299528 0,16.0093556 C0,16.3470358 0.109724207,16.6607484 0.308134057,16.9000958 C0.484858002,17.13616 0.750914929,17.3124695 1.05273742,17.3124695 C1.19628516,17.3124695 1.34517347,17.238761 1.46104741,17.185901 C3.7474539,16.1331334 5.34962153,13.9501141 6.28632317,11.4157892 L9.83650007,1.90739221 C9.91887414,1.73141111 9.93424848,1.53014914 9.93424848,1.35466052" id="Fill-17" fill="#F4811F" mask="url(#mask-2)"></path>
                    </g>
                    <path d="M56.0661569,48.402273 C54.6730803,48.402273 53.3939355,49.2239012 52.7194068,50.4828556 C52.4407267,49.9086187 52.0845276,49.4110453 51.6205463,49.050875 C51.0740291,48.6288159 50.4339713,48.402273 49.6710805,48.402273 C48.5785317,48.402273 47.7860251,49.050875 47.1561629,49.9971018 C47.1506605,49.5981894 47.0375377,49.2349 46.8171183,48.9638694 C46.6146626,48.6780643 46.2819296,48.5042173 45.9580975,48.5042173 C45.6224515,48.5042173 45.2220714,48.6780643 45.0095819,48.9638694 C44.8046987,49.2349 44.6784673,49.6116506 44.6784673,50.021726 L44.6784673,54.055666 L44.6784673,59.5378386 C44.6784673,59.9356018 44.8046987,60.3102183 45.0053742,60.5814131 C45.2055642,60.856876 45.589599,61.0289173 45.9088996,61.0289173 C46.2502099,61.0289173 46.6099694,60.856876 46.8171183,60.5814131 C47.0393179,60.3102183 47.1624744,59.946929 47.1624744,59.5378386 L47.1624744,54.1057353 C47.1624744,53.2832862 47.1867497,52.5253527 47.530002,51.9754118 C47.8866866,51.4390962 48.3984092,51.0799109 49.1349208,51.0799109 C49.8414929,51.0933721 50.3171263,51.3932952 50.6359415,51.9261633 C50.9545948,52.4378546 51.0549326,53.1995639 51.0549326,54.069948 L51.0549326,59.5378386 C51.0549326,60.3300818 51.5601818,61.0289173 52.2204691,61.0289173 C52.540579,61.0289173 52.9293069,60.856876 53.1380742,60.5814131 C53.3379406,60.3102183 53.4979955,59.9356018 53.4979955,59.5378386 L53.4979955,53.9816292 C53.4979955,53.1995639 53.6425142,52.4614939 54.0037302,51.9396246 C54.3581491,51.4182477 54.8685771,51.0799109 55.5812989,51.0799109 C56.3032454,51.0933721 56.7563837,51.3932952 57.0813486,51.9261633 C57.3967652,52.4378546 57.40777,53.1995639 57.40777,54.069948 L57.40777,59.5378386 C57.40777,59.9356018 57.5310884,60.3102183 57.744387,60.5814131 C57.9453863,60.856876 58.2883149,61.0289173 58.6301106,61.0289173 C58.9492495,61.0289173 59.3363591,60.856876 59.5475539,60.5814131 C59.7681351,60.3102183 59.8883786,59.946929 59.8883786,59.5378386 L59.8883786,53.9190837 C59.8883786,52.3245832 59.6194087,50.9669678 58.9746576,49.9854463 C58.3549909,48.9638694 57.3755648,48.3919309 56.0661569,48.402273" id="Fill-19" fill="#F4811F"></path>
                    <path d="M40.5898488,77.2158792 C40.5616895,77.3204501 40.5264094,77.4112314 40.4841704,77.4883873 C40.4417696,77.5657073 40.386422,77.6303869 40.3178039,77.6825903 C40.2493477,77.7346295 40.1626041,77.7733716 40.0578968,77.7984883 C39.9531894,77.8232767 39.8242068,77.8359171 39.670949,77.8359171 C39.5139689,77.8359171 39.3828825,77.8232767 39.2781752,77.7984883 C39.173306,77.7733716 39.0855914,77.7346295 39.0151931,77.6825903 C38.944633,77.6303869 38.8891236,77.5645582 38.8488266,77.485104 C38.8085297,77.4056499 38.7764863,77.3137194 38.7522111,77.2091486 L37.0898408,70.1300132 L35.5180981,77.2022538 C35.4939847,77.311257 35.4606467,77.4056499 35.4184077,77.485104 C35.3760069,77.5645582 35.3185554,77.6303869 35.2460533,77.6825903 C35.1733893,77.7346295 35.0829235,77.7733716 34.9740085,77.7984883 C34.8652553,77.8232767 34.7322268,77.8359171 34.5750849,77.8359171 C34.4177812,77.8359171 34.2858856,77.8221275 34.1790744,77.7948767 C34.0722632,77.7676259 33.9835776,77.7278989 33.9130175,77.6758597 C33.8426192,77.6236563 33.7851677,77.5576634 33.7408249,77.4782092 C33.6963203,77.3987551 33.660231,77.3043622 33.6320717,77.195359 L31.2744578,68.8557918 C31.2382067,68.7333273 31.2260691,68.6105345 31.2382067,68.4880701 C31.2501825,68.3652773 31.2794747,68.2518417 31.3257595,68.1472708 C31.3720443,68.0428641 31.4356455,67.9509337 31.5162394,67.8713154 C31.5968333,67.7920254 31.689403,67.7317781 31.7942722,67.6909019 C31.9030254,67.6544581 32.0129114,67.642146 32.1237685,67.653309 C32.2344637,67.6646361 32.336258,67.6977967 32.4289895,67.7522983 C32.521721,67.8067999 32.6032859,67.8793593 32.673846,67.9703048 C32.7442443,68.0609219 32.7957078,68.167791 32.8280749,68.2904197 L34.611336,75.6011869 L36.2012041,68.3312959 C36.2453851,68.1224825 36.3350418,67.9555302 36.4701741,67.8304392 C36.6051446,67.7056765 36.8278297,67.6431309 37.1382295,67.6431309 C37.2913255,67.6431309 37.4224119,67.6590546 37.5311651,67.6909019 C37.6397565,67.7227493 37.730546,67.7669087 37.8030481,67.8237086 C37.8757121,67.8805084 37.9341346,67.9509337 37.9783155,68.0348202 C38.0228202,68.1190351 38.0571292,68.2132638 38.0812427,68.3176705 L39.7617385,75.6284377 L41.5330238,68.235918 C41.5611831,68.1224825 41.607468,68.0225081 41.6720402,67.9361592 C41.7364506,67.8498102 41.8131604,67.7816832 41.9016842,67.7317781 C41.990208,67.6817089 42.0860144,67.6521598 42.1889415,67.6431309 C42.2917068,67.6341021 42.3935011,67.6454292 42.4941626,67.6772765 C42.5907781,67.7135562 42.6765507,67.769207 42.7511567,67.8440646 C42.825439,67.9190864 42.8849944,68.0055995 42.9293372,68.1029472 C42.9738418,68.2007875 43.0010301,68.3063433 43.0110639,68.4197789 C43.0210977,68.5333786 43.0099311,68.6471425 42.9777259,68.7605781 L40.5898488,77.2158792 Z" id="Fill-21" fill="#6C6E70"></path>
                    <path d="M37.0876398,69.7665761 L38.8307658,77.1901223 C38.8537464,77.288455 38.8840096,77.3751323 38.9207461,77.4475275 C38.9550552,77.515162 39.0029584,77.5719619 39.0628374,77.6161213 C39.1244965,77.6619224 39.2031484,77.6962321 39.2965273,77.7185581 C39.3955704,77.7420332 39.5214781,77.7538528 39.6710137,77.7538528 C39.8165035,77.7538528 39.9404692,77.7420332 40.0393504,77.7183939 C40.1324056,77.6963963 40.2097628,77.6622507 40.2693181,77.616778 C40.3282261,77.572126 40.3766148,77.5154903 40.4135132,77.4485124 C40.4525155,77.3772664 40.4855299,77.2917382 40.5117471,77.1942263 L42.8999479,68.7379403 C42.9292401,68.6346827 42.9394357,68.530276 42.9305348,68.4270184 C42.9213102,68.3235967 42.8962257,68.2259206 42.8559288,68.1372734 C42.8157937,68.0491187 42.7612552,67.9699929 42.6940937,67.9023583 C42.6280649,67.8362013 42.5513551,67.7862962 42.4659061,67.7541205 C42.380619,67.7275264 42.2875639,67.71702 42.1959652,67.7250639 C42.104852,67.7329437 42.0192412,67.7592095 41.9410749,67.803369 C41.8625848,67.8478567 41.7938049,67.909089 41.7365153,67.9855882 C41.678902,68.0629083 41.6368249,68.1538537 41.6115786,68.2559622 L39.7601849,75.9827146 L38.0023319,68.3362371 C37.9799986,68.239546 37.9477934,68.151063 37.9071728,68.0735788 C37.8683324,68.0001986 37.816707,67.9379814 37.7535913,67.8887329 C37.6896664,67.8386637 37.6072924,67.7986083 37.5087348,67.7697159 C37.4079115,67.7401668 37.2831366,67.7252281 37.1381324,67.7252281 C36.8500659,67.7252281 36.6437261,67.781043 36.5246154,67.8910312 C36.4030773,68.0038101 36.3207032,68.1576294 36.2804063,68.3485492 L34.6156084,75.9605528 L32.7494877,68.3101354 C32.7205193,68.2001473 32.6735871,68.1024712 32.6103095,68.0210471 C32.5465465,67.9389663 32.4721024,67.8724809 32.3884336,67.8232325 C32.3060595,67.7748049 32.214299,67.7452558 32.1154178,67.7349136 C32.0168602,67.7253923 31.9166842,67.7362269 31.8195832,67.7687309 C31.7296028,67.8040256 31.6451249,67.8588555 31.5726228,67.9302658 C31.4996351,68.0023327 31.4412127,68.0868758 31.399621,68.1809404 C31.3570584,68.2769748 31.3297083,68.3830231 31.3187035,68.4962946 C31.3076987,68.6074319 31.3188653,68.720375 31.3518797,68.8323331 L33.7098173,77.1727212 C33.7366819,77.2766354 33.7706673,77.3651184 33.8111261,77.4376778 C33.8498047,77.5069539 33.9001354,77.5647388 33.9608236,77.6093907 C34.0226446,77.6551917 34.102753,77.6908148 34.1987212,77.7152748 C34.2992208,77.740884 34.4257758,77.7538528 34.5751497,77.7538528 C34.7248471,77.7538528 34.8530205,77.741869 34.9561095,77.7183939 C35.0535343,77.6960679 35.1354228,77.6614299 35.1995095,77.6156288 C35.2613305,77.5709769 35.3111758,77.5138487 35.347265,77.44605 C35.3857817,77.3734906 35.4168541,77.2853359 35.4391873,77.1843766 L37.0876398,69.7665761 Z M39.6710137,77.9180143 C39.5090168,77.9180143 39.3706478,77.9047172 39.2596289,77.8784513 C39.1450496,77.8510364 39.0466539,77.8073694 38.9673547,77.7489279 C38.8869226,77.6895015 38.8228359,77.6133306 38.7770366,77.5225493 C38.7341503,77.4383344 38.6993557,77.3391809 38.6734621,77.2280436 L37.0920094,70.4934831 L35.5969766,77.220328 C35.5714066,77.3358977 35.5351556,77.4381703 35.4896799,77.5240267 C35.441453,77.6144797 35.3754243,77.6903223 35.2928884,77.7495846 C35.2113235,77.8078619 35.1100147,77.8513647 34.9918751,77.8784513 C34.8769721,77.9047172 34.7368229,77.9180143 34.5751497,77.9180143 C34.4125054,77.9180143 34.272518,77.9034039 34.1592334,77.8746756 C34.0430358,77.8447982 33.9439927,77.8004746 33.8653408,77.7421973 C33.7862035,77.6835917 33.7204984,77.6084057 33.6704914,77.5186094 C33.6229118,77.4337379 33.5837477,77.3319578 33.5538083,77.2162239 L31.1966798,68.8784625 C31.1576776,68.746805 31.1444071,68.6123567 31.1576776,68.4798784 C31.1704625,68.3492059 31.2021822,68.2259206 31.2518656,68.1136342 C31.3020345,68.0005269 31.3721091,67.8992393 31.4598237,67.812562 C31.5481857,67.7253923 31.650951,67.6587427 31.7652066,67.6142549 C31.8886868,67.5728863 32.0092539,67.5589325 32.1317631,67.5717371 C32.2534631,67.5842134 32.3670714,67.6209856 32.4696748,67.6812328 C32.5709836,67.7408234 32.6611258,67.8209342 32.7373501,67.9194311 C32.8143836,68.0185847 32.8710259,68.1359601 32.906306,68.2690951 L34.6070312,75.2418539 L36.1221315,68.3134187 C36.169711,68.0890099 36.2685923,67.9059699 36.4157004,67.76988 C36.5676636,67.6293578 36.8039428,67.5610666 37.1381324,67.5610666 C37.2983491,67.5610666 37.4380128,67.5783036 37.5535631,67.6119567 C37.6717027,67.6467589 37.7723642,67.6961715 37.8526344,67.7588812 C37.9338756,67.8222475 38.000228,67.9021942 38.0495877,67.9960945 C38.0971672,68.0862192 38.1343893,68.1881635 38.1599593,68.2989725 L39.7632597,75.2741937 L41.4542749,68.2165634 C41.4851854,68.0922932 41.5366489,67.9814842 41.6075327,67.8865988 C41.6784165,67.7917135 41.7643509,67.7153784 41.862423,67.660056 C41.9604951,67.6045694 42.0679536,67.5714088 42.1820474,67.5613949 C42.2941991,67.5513811 42.4078073,67.5640215 42.5181789,67.5988238 C42.6293596,67.6405208 42.7254897,67.7030663 42.8080256,67.7858037 C42.8889431,67.8673919 42.9544864,67.9624414 43.0028751,68.0684898 C43.0509401,68.1743739 43.0807177,68.2901077 43.0917225,68.412408 C43.1024037,68.5360216 43.090266,68.6607844 43.0554715,68.783413 L40.6675944,77.2385499 C40.6381404,77.3477173 40.600271,77.4453934 40.5547953,77.5282949 C40.5070539,77.6156288 40.4434527,77.6896656 40.3664192,77.7482713 C40.2887384,77.8072053 40.1913136,77.8508722 40.0764107,77.8782872 C39.96523,77.9047172 39.8289648,77.9180143 39.6710137,77.9180143 L39.6710137,77.9180143 Z" id="Fill-23" fill="#6C6E70"></path>
                    <path d="M47.1762628,76.3777528 C47.6357127,76.3777528 48.0265445,76.3074917 48.34892,76.1666411 C48.6712956,76.0259547 48.9342776,75.8498095 49.1378662,75.6385336 C49.341293,75.427422 49.4905049,75.1957901 49.5851785,74.9436381 C49.679852,74.6916502 49.7272697,74.4542727 49.7272697,74.2316698 L49.7272697,72.6168133 C49.602333,72.7123553 49.4471331,72.7904962 49.2618319,72.8520567 C49.0763689,72.913289 48.8737513,72.9666414 48.6543029,73.0121142 C48.4345308,73.0575869 48.2047249,73.1005972 47.9650471,73.1414734 C47.7253693,73.1823496 47.4905466,73.2312697 47.2607407,73.2880696 C47.0312585,73.3448695 46.8114864,73.4164439 46.60191,73.5026287 C46.3923335,73.5889776 46.2089743,73.6979808 46.0518324,73.8298025 C45.8946905,73.96146 45.7697538,74.1238157 45.6770223,74.3167054 C45.5842908,74.5099235 45.5380059,74.7425403 45.5380059,75.0150484 C45.5380059,75.2740952 45.5821869,75.4899675 45.6710344,75.6625012 C45.7595582,75.8350349 45.879478,75.9747364 46.030632,76.0814413 C46.181786,76.1883104 46.3560824,76.2643172 46.5535213,76.3097899 C46.7509601,76.3550985 46.9585946,76.3777528 47.1762628,76.3777528 M52.181661,76.8751621 C52.2177503,77.0751107 52.2098203,77.2422271 52.1573858,77.3760187 C52.1049512,77.5101387 52.0243573,77.6168436 51.9156041,77.6961336 C51.8066891,77.7757519 51.6786775,77.8323876 51.5317312,77.8665332 C51.3846231,77.9005146 51.236544,77.9177516 51.0874938,77.9177516 C50.9060767,77.9177516 50.738901,77.8859043 50.5856431,77.8222096 C50.4323853,77.7586791 50.2995187,77.6633013 50.1867196,77.5362403 C50.0737587,77.408851 49.985073,77.2489577 49.9206627,77.0557397 C49.8562523,76.8628499 49.8238853,76.6367996 49.8238853,76.3777528 C49.6546057,76.6367996 49.4602418,76.8628499 49.2406315,77.0557397 C49.0208594,77.2489577 48.7821526,77.408851 48.5243493,77.5362403 C48.2662223,77.6633013 47.9962813,77.7586791 47.7142027,77.8222096 C47.4321241,77.8859043 47.1459996,77.9177516 46.8558293,77.9177516 C46.4569057,77.9177516 46.0819338,77.8665332 45.7313989,77.7642606 C45.380864,77.6621522 45.0735392,77.4986474 44.8095861,77.2737461 C44.5454712,77.0490091 44.3370276,76.7605773 44.1839315,76.408451 C44.0306737,76.0564888 43.9541257,75.6285198 43.9541257,75.1240516 C43.9541257,74.7425403 43.9924806,74.4110983 44.0690286,74.1295613 C44.1454148,73.8478602 44.2504458,73.6047371 44.3833124,73.4003561 C44.5163409,73.195975 44.6744538,73.0245904 44.8579748,72.8860381 C45.041334,72.74765 45.2397438,72.6306029 45.4533662,72.5350609 C45.6669885,72.4398472 45.8925867,72.359244 46.1303225,72.2932511 C46.3682201,72.2275865 46.6100017,72.1673392 46.8558293,72.1128376 C47.0330387,72.0717972 47.2275645,72.0332193 47.4392449,71.9969396 C47.6507633,71.9604957 47.8622818,71.9209328 48.0739622,71.8775942 C48.2856425,71.8344197 48.4910113,71.7835297 48.6903921,71.7242674 C48.8900967,71.6653334 49.0663351,71.5904758 49.2194311,71.4993661 C49.3725271,71.4085848 49.4955218,71.2974475 49.5882533,71.1656259 C49.6809849,71.0338042 49.7272697,70.87506 49.7272697,70.6887368 C49.7272697,70.3481017 49.6717603,70.0732954 49.5609032,69.8641537 C49.450208,69.6555044 49.3071457,69.4941337 49.1318783,69.3805339 C48.956449,69.2670984 48.7570682,69.1909274 48.5334121,69.1521853 C48.3097559,69.1137715 48.086909,69.0944005 47.8653567,69.0944005 C47.6154833,69.0944005 47.3808224,69.1149207 47.1610503,69.1556327 C46.94144,69.1966731 46.7459432,69.2680833 46.5747217,69.3703559 C46.4035001,69.4726285 46.257363,69.6088826 46.1364722,69.779118 C46.0155814,69.9495176 45.9288377,70.1639125 45.876565,70.4231235 C45.8522897,70.5409914 45.8108599,70.6455623 45.7525993,70.7363436 C45.6941768,70.8272891 45.6245877,70.9032958 45.5439938,70.964528 C45.4633999,71.0260886 45.3726104,71.0679498 45.271949,71.0906041 C45.1711257,71.1134225 45.0704643,71.1134225 44.969641,71.0906041 C44.8649337,71.0633533 44.772364,71.0168956 44.6916083,70.9509026 C44.6110144,70.8852381 44.5435292,70.8057839 44.4893144,70.7125402 C44.434776,70.6196248 44.3973921,70.5173522 44.3773245,70.4058865 C44.3570951,70.2947492 44.359199,70.1822986 44.3833124,70.0686989 C44.471998,69.6144641 44.6302728,69.2283563 44.8579748,68.9103755 C45.085515,68.5925589 45.3606347,68.333512 45.6830102,68.1337275 C46.0055476,67.933943 46.3640124,67.7884959 46.7590519,67.6977146 C47.1539295,67.6067692 47.5649907,67.5614606 47.9923973,67.5614606 C48.2502006,67.5614606 48.5110788,67.5749219 48.7751937,67.6021727 C49.0391468,67.6294235 49.2919332,67.6806418 49.5337149,67.7556636 C49.7756584,67.8305213 50.0012565,67.933943 50.210833,68.0654363 C50.4204095,68.197258 50.6039305,68.3651952 50.7609106,68.5697404 C50.9180525,68.7741214 51.0410472,69.020692 51.1297328,69.3091237 C51.2184184,69.5973913 51.2627613,69.9370414 51.2627613,70.3275815 L51.2627613,75.3489528 C51.2627613,75.5306796 51.2637323,75.6830214 51.2658361,75.8054859 C51.2676163,75.9282787 51.2797539,76.0280888 51.3019254,76.1052447 C51.3240968,76.1825648 51.3624517,76.2405138 51.4168283,76.2789276 C51.4712049,76.3178338 51.5508278,76.3414731 51.6556969,76.350502 C51.9458673,76.3777528 52.1211347,76.5527489 52.181661,76.8751621" id="Fill-25" fill="#6C6E70"></path>
                    <path d="M49.6463036,72.7695656 C49.5414344,72.8317828 49.4210291,72.8854636 49.2868678,72.9301155 C49.0996246,72.9918402 48.8923138,73.046506 48.6705997,73.0926354 C48.4509894,73.1377798 48.2182705,73.1816109 47.9784309,73.2224871 C47.7426371,73.2627067 47.5076526,73.3116268 47.2799506,73.36777 C47.0548379,73.4235849 46.8370078,73.4945027 46.6322864,73.5787175 C46.4316109,73.6614549 46.2534304,73.7671749 46.1032474,73.8930867 C45.9556538,74.0168645 45.836705,74.1715046 45.7497995,74.3527389 C45.6630559,74.5334807 45.6188749,74.7565761 45.6188749,75.0151304 C45.6188749,75.259731 45.6606284,75.4647687 45.7428406,75.6244978 C45.8247292,75.784227 45.9370428,75.915392 46.0768683,76.0142172 C46.2186359,76.1141915 46.3851642,76.1867509 46.5714364,76.2297612 C46.7619164,76.2735923 46.9653431,76.29559 47.1762142,76.29559 C47.6227173,76.29559 48.0065902,76.2269705 48.3168281,76.0912089 C48.6280371,75.9552832 48.8848694,75.7837345 49.0800425,75.5811592 C49.274892,75.3790764 49.4194108,75.1545035 49.5095529,74.9143353 C49.6003424,74.6728538 49.6463036,74.4430277 49.6463036,74.2315877 L49.6463036,72.7695656 Z M47.1762142,76.4597514 C46.9532055,76.4597514 46.7378029,76.4362763 46.5356709,76.3898186 C46.3288456,76.3422118 46.1432207,76.2611161 45.9844605,76.1488296 C45.822949,76.0347374 45.6933191,75.883873 45.5992929,75.7003404 C45.504943,75.5169721 45.4570398,75.2864894 45.4570398,75.0151304 C45.4570398,74.7312952 45.5065614,74.4842322 45.6043098,74.2808361 C45.7014108,74.078425 45.8346011,73.9053988 46.0003203,73.7663541 C46.1631264,73.6299359 46.3553865,73.5155153 46.5715983,73.426704 C46.7832786,73.3395342 47.0087149,73.2659899 47.2415956,73.2083692 C47.4730198,73.1510769 47.7120503,73.1013359 47.9515663,73.0604597 C48.1896257,73.0199118 48.4205644,72.9767374 48.6380708,72.931593 C48.853797,72.886941 49.0552818,72.8339169 49.2366989,72.7738338 C49.4130992,72.7155565 49.5616638,72.6405347 49.6785088,72.5512308 L49.8081387,72.4519131 L49.8081387,74.2315877 C49.8081387,74.4630554 49.7584553,74.7124167 49.6607069,74.9727768 C49.5626348,75.234286 49.4063021,75.4774092 49.1957546,75.6959081 C48.9856927,75.9139145 48.7117058,76.0976112 48.3809148,76.2419092 C48.0502857,76.3865354 47.6448887,76.4597514 47.1762142,76.4597514 L47.1762142,76.4597514 Z M49.9049161,76.1053268 L49.9049161,76.3776707 C49.9049161,76.6267037 49.9359884,76.8458592 49.997324,77.0293918 C50.0578503,77.2107902 50.1416809,77.3628037 50.2468737,77.4813283 C50.3509337,77.5987038 50.4753849,77.6878435 50.6163433,77.7461208 C50.8781925,77.855124 51.2038047,77.8580789 51.513719,77.7866687 C51.6496605,77.7549855 51.7689329,77.7021255 51.8682997,77.629402 C51.9650771,77.5589767 52.0351517,77.4660613 52.0822457,77.3457309 C52.1286924,77.2270422 52.1353276,77.0737154 52.1019896,76.8900187 C52.0487459,76.6058552 51.9001812,76.4558116 51.648204,76.4323365 C51.5281223,76.4219943 51.4370091,76.3937585 51.3701712,76.3461517 C51.3009058,76.2969033 51.2515461,76.2235231 51.224196,76.1281453 C51.2002444,76.0439304 51.1869739,75.935748 51.18487,75.8067171 C51.1827662,75.6839243 51.1817952,75.53109 51.1817952,75.3490349 L51.1817952,70.3274994 C51.1817952,69.9473015 51.1384233,69.6129045 51.0523271,69.3333375 C50.96704,69.0557405 50.8476056,68.8157364 50.697099,68.6203842 C50.546916,68.4247037 50.3690592,68.2615272 50.1682218,68.1352871 C49.9652806,68.0077336 49.7437283,67.906446 49.5102003,67.8342149 C49.2744065,67.7609989 49.0243712,67.7104372 48.7668916,67.683843 C48.0818435,67.6134177 47.399223,67.6347587 46.776967,67.7777434 C46.3926086,67.8660622 46.0388371,68.0093752 45.7252006,68.2039066 C45.413668,68.3967963 45.1438889,68.6507541 44.9233076,68.9585569 C44.7036974,69.2653747 44.5486593,69.6444235 44.4627249,70.0847046 C44.4405535,70.1886188 44.4387733,70.2910556 44.4568988,70.3910299 C44.4751862,70.4924817 44.5094952,70.5865462 44.5586931,70.6705969 C44.6080528,70.7551401 44.6698738,70.8278636 44.742376,70.8869617 C44.8135834,70.9452391 44.8967667,70.9869361 44.9898219,71.0110678 C45.0738143,71.0299464 45.1658985,71.030603 45.2544223,71.0104112 C45.3434316,70.9905476 45.424511,70.9531188 45.4955566,70.8989455 C45.5682206,70.8436231 45.6318218,70.7738545 45.6847418,70.6916096 C45.7375001,70.609693 45.7753695,70.5136585 45.7973791,70.4062969 C45.8515938,70.1377288 45.9435162,69.9105293 46.0707186,69.7311008 C46.1977591,69.5521648 46.3534445,69.4072102 46.5337288,69.2995203 C46.7120711,69.1931436 46.9180872,69.1174652 47.1464366,69.0747832 C47.5694736,68.9964782 48.0629088,68.9881059 48.5469577,69.0713358 C48.7800002,69.1115554 48.9915187,69.1923228 49.1753634,69.3113399 C49.3616356,69.4321627 49.5152171,69.6050248 49.6322239,69.8251653 C49.7490689,70.04547 49.8081387,70.3360358 49.8081387,70.6886547 C49.8081387,70.8915583 49.7563515,71.0680319 49.6542335,71.2133148 C49.5550286,71.3540012 49.4226475,71.4740032 49.260165,71.5702018 C49.1025376,71.6641022 48.9183692,71.7424072 48.7130005,71.803147 C48.5134578,71.8624093 48.3037195,71.9144484 48.0899353,71.9581154 C47.8774458,72.001454 47.6651181,72.0411811 47.4527905,72.0777891 C47.2407865,72.114233 47.045937,72.1529751 46.8737444,72.1927021 C46.6316391,72.2463829 46.3890482,72.3069585 46.1516361,72.372459 C45.9192409,72.4369744 45.6952611,72.5169211 45.4858465,72.6101648 C45.2790212,72.7027519 45.0840099,72.8176649 44.9063149,72.9517848 C44.7313712,73.0839348 44.5782752,73.2502304 44.4507491,73.4455825 C44.3228993,73.642248 44.2207814,73.8797897 44.1471464,74.1513127 C44.0725404,74.4248058 44.0349947,74.7519796 44.0349947,75.1241337 C44.0349947,75.6143198 44.1100862,76.035394 44.2578416,76.3753724 C44.4052734,76.7143659 44.6085383,76.9954103 44.8614866,77.2109544 C45.1155677,77.4273192 45.41561,77.5870483 45.7536836,77.685381 C46.3434107,77.8575864 47.0422148,77.8899262 47.696676,77.7420167 C47.9708247,77.680292 48.2375289,77.5862275 48.4890207,77.4622856 C48.7397033,77.3385078 48.9748497,77.1809128 49.1876629,76.9936046 C49.4004761,76.8067888 49.591927,76.5841858 49.7565133,76.3323621 L49.9049161,76.1053268 Z M51.0874453,77.9997503 C50.8966417,77.9997503 50.7173284,77.9656047 50.5550078,77.8981343 C50.3913925,77.8303356 50.2471974,77.727078 50.1266302,77.5911523 C50.0067104,77.4558833 49.9117132,77.2846629 49.8440661,77.0820876 C49.7979431,76.9446844 49.7676799,76.7898802 49.7529529,76.6203014 C49.6140984,76.8048189 49.4601932,76.9716069 49.293503,77.1177106 C49.0700087,77.3143761 48.8232102,77.4798509 48.5597426,77.6098668 C48.2969224,77.7395543 48.0182423,77.837887 47.7317942,77.9024025 C47.0512775,78.0557293 46.3246379,78.0227329 45.7090171,77.8431402 C45.3490958,77.7384052 45.028986,77.5678414 44.7575885,77.3365379 C44.48522,77.104906 44.2673899,76.8038339 44.1099243,76.4416937 C43.9527824,76.0807026 43.8731596,75.6374666 43.8731596,75.1241337 C43.8731596,74.7373692 43.9128092,74.3952567 43.9909755,74.1076458 C44.0693037,73.8195424 44.1785424,73.5664054 44.3157786,73.3551296 C44.4535003,73.1436896 44.6195431,72.9637686 44.8095375,72.8201273 C44.9969426,72.6786201 45.202635,72.5574689 45.4206269,72.459957 C45.6373241,72.3632659 45.8689102,72.2805285 46.1089117,72.2140431 C46.349075,72.1477219 46.594417,72.0866538 46.8384644,72.0326447 C47.0127608,71.992261 47.2106851,71.9528622 47.4256022,71.9159259 C47.6363115,71.8796462 47.8471826,71.8402475 48.0578919,71.797073 C48.2673066,71.754391 48.4725135,71.7035009 48.6676867,71.6455519 C48.8601086,71.5887521 49.0321393,71.515536 49.1784383,71.4285305 C49.321015,71.3439873 49.4367271,71.2395806 49.5223379,71.1177728 C49.6058448,70.9994124 49.6463036,70.8588901 49.6463036,70.6886547 C49.6463036,70.3634508 49.5937072,70.0991508 49.4896472,69.9029779 C49.3860727,69.7077899 49.2509404,69.5551197 49.0882961,69.4495638 C48.9227388,69.3425306 48.7316115,69.269807 48.5197694,69.233199 C48.0543316,69.1530882 47.5799929,69.1614605 47.1755669,69.2364823 C46.9661523,69.2755527 46.7777762,69.3443363 46.6157792,69.4410275 C46.455077,69.5370619 46.3158988,69.6669136 46.2021287,69.8269711 C46.0883586,69.987521 46.005499,70.1935437 45.9558156,70.4396217 C45.9295984,70.5671752 45.8841227,70.6819241 45.8203597,70.7812418 C45.757244,70.8795745 45.6805341,70.963461 45.5924958,71.0302747 C45.503001,71.0984017 45.4010449,71.1456802 45.2895405,71.1707969 C45.1778743,71.1960778 45.0641042,71.1960778 44.9521143,71.1707969 C44.8339746,71.1399346 44.7300765,71.0878954 44.6409053,71.0150077 C44.5531907,70.9434333 44.4787466,70.8557711 44.4195149,70.7544834 C44.3604451,70.6535241 44.3195008,70.5412377 44.2976531,70.420579 C44.2756435,70.299592 44.2779092,70.1751576 44.3042883,70.0513798 C44.3944305,69.5889369 44.5586931,69.1885471 44.7925448,68.8620299 C45.0254256,68.536826 45.3109027,68.2680937 45.6408845,68.0637127 C45.9694098,67.8599883 46.3396885,67.7099447 46.7412015,67.6176859 C47.3802883,67.4705972 48.0800634,67.4476146 48.7833988,67.5205023 C49.0512359,67.5480815 49.3117904,67.6009414 49.5574561,67.6771124 C49.8044165,67.7534475 50.0385919,67.8608091 50.2535089,67.9957498 C50.4706917,68.132168 50.6627899,68.3083133 50.8247869,68.5192608 C50.9871075,68.7305366 51.1157664,68.9879418 51.2068796,69.2845816 C51.2976691,69.5797439 51.3436303,69.930557 51.3436303,70.3274994 L51.3436303,75.3490349 C51.3436303,75.530105 51.3446013,75.6819544 51.3467051,75.8039263 C51.3483235,75.9186752 51.3594901,76.0122473 51.3797195,76.0823442 C51.3965503,76.1416065 51.4239005,76.1839602 51.4632264,76.2117034 C51.5054654,76.241745 51.5723033,76.2611161 51.6624454,76.2686675 C51.9874103,76.2992015 52.1942356,76.5035826 52.2610735,76.859813 C52.299914,77.0748645 52.2903657,77.2585612 52.2325905,77.4063065 C52.1746536,77.5545443 52.0837022,77.6745464 51.9628114,77.7628653 C51.8458046,77.8482292 51.7067883,77.9099539 51.5498082,77.9465619 C51.396874,77.9818567 51.2413505,77.9997503 51.0874453,77.9997503 L51.0874453,77.9997503 Z" id="Fill-27" fill="#6C6E70"></path>
                    <path d="M54.9411763,76.9638749 C54.9411763,77.0956966 54.9209469,77.2148778 54.8808118,77.3215828 C54.8405149,77.4282877 54.7850054,77.519069 54.7146071,77.5940908 C54.6438852,77.6689485 54.5623203,77.7268975 54.4697506,77.7676095 C54.3770191,77.8086499 54.2781378,77.8291701 54.1735924,77.8291701 C54.0685614,77.8291701 53.9688709,77.8086499 53.8741974,77.7676095 C53.7795239,77.7268975 53.6977971,77.6679635 53.6295027,77.5906434 C53.5608846,77.5134875 53.506508,77.4227063 53.4662111,77.3181354 C53.4259141,77.2135645 53.4058466,77.0956966 53.4058466,76.9638749 L53.4058466,64.8019718 C53.4058466,64.6749108 53.4259141,64.5578637 53.4662111,64.4509946 C53.506508,64.3444538 53.5608846,64.2523592 53.6295027,64.1752033 C53.6977971,64.0980474 53.7795239,64.0389493 53.8741974,63.9980731 C53.9688709,63.9570327 54.0685614,63.9368408 54.1735924,63.9368408 C54.2781378,63.9368408 54.3770191,63.9570327 54.4697506,63.9980731 C54.5623203,64.0389493 54.6438852,64.0967341 54.7146071,64.1717559 C54.7850054,64.2466136 54.8405149,64.337559 54.8808118,64.444264 C54.9209469,64.5511331 54.9411763,64.6703143 54.9411763,64.8019718 L54.9411763,76.9638749 Z" id="Fill-29" fill="#6C6E70"></path>
                    <path d="M54.1735762,64.0188395 C54.0800355,64.0188395 53.9898933,64.0372256 53.9060627,64.0735053 C53.8225558,64.1096208 53.7498918,64.1621525 53.6896892,64.2301153 C53.62803,64.2993915 53.5783466,64.3836063 53.5417719,64.4802974 C53.5051972,64.5769885 53.4867479,64.6853351 53.4867479,64.8018898 L53.4867479,76.9637928 C53.4867479,77.0847799 53.5051972,77.1939472 53.5416101,77.2883401 C53.578023,77.3828971 53.6278682,77.4662911 53.6895273,77.5357314 C53.74973,77.6036943 53.822394,77.656226 53.9059009,77.6921773 C54.0735621,77.7647367 54.2734284,77.765065 54.4373674,77.6925056 C54.5195796,77.6563901 54.5930528,77.6041868 54.6560066,77.537373 C54.7187987,77.4703952 54.7691294,77.3879861 54.8052186,77.2921158 C54.8417934,77.1952605 54.8602426,77.0847799 54.8602426,76.9637928 L54.8602426,64.8018898 C54.8602426,64.6812311 54.8417934,64.5707504 54.8052186,64.4735668 C54.7689676,64.3776965 54.7187987,64.2951233 54.6560066,64.2284737 C54.5932146,64.1618242 54.5197415,64.1096208 54.4375292,64.073177 C54.3554788,64.0370614 54.2666314,64.0188395 54.1735762,64.0188395 M54.1735762,77.9111687 C54.0578641,77.9111687 53.9465215,77.8881861 53.8424615,77.8432059 C53.7372687,77.7980615 53.6451845,77.7314119 53.5692839,77.6455555 C53.494516,77.5613406 53.4344752,77.4613663 53.3907797,77.3479307 C53.3470842,77.2346593 53.3249128,77.1053 53.3249128,76.9637928 L53.3249128,64.8018898 C53.3249128,64.6653074 53.3470842,64.5372615 53.3906179,64.4216918 C53.4344752,64.3059579 53.494516,64.2045061 53.5694457,64.1201271 C53.6453464,64.0344348 53.7374305,63.9677853 53.8424615,63.9224767 C54.051067,63.8323521 54.2972182,63.8325162 54.5019396,63.9226409 C54.6040576,63.9677853 54.6953326,64.0324649 54.7730134,64.1150381 C54.8508561,64.1976114 54.9123535,64.2984065 54.9563726,64.4149611 C54.9999063,64.5310233 55.0220777,64.6612034 55.0220777,64.8018898 L55.0220777,76.9637928 C55.0220777,77.1048076 54.9999063,77.2351518 54.9563726,77.3508856 C54.9125153,77.4671119 54.851018,77.5679071 54.7731753,77.6506445 C54.6950089,77.733546 54.6037339,77.7983898 54.5019396,77.8430417 C54.3996598,77.8881861 54.2892883,77.9111687 54.1735762,77.9111687" id="Fill-31" fill="#6C6E70"></path>
                    <path d="M58.6561175,76.9638749 C58.6561175,77.0956966 58.6358881,77.2148778 58.595753,77.3215828 C58.5554561,77.4282877 58.4999466,77.519069 58.4295484,77.5940908 C58.3588264,77.6689485 58.2772615,77.7268975 58.1846918,77.7676095 C58.0919603,77.8086499 57.9930791,77.8291701 57.8885336,77.8291701 C57.7835026,77.8291701 57.6838122,77.8086499 57.5891386,77.7676095 C57.4944651,77.7268975 57.4127383,77.6679635 57.3444439,77.5906434 C57.2758258,77.5134875 57.2214492,77.4227063 57.1811523,77.3181354 C57.1408554,77.2135645 57.1207878,77.0956966 57.1207878,76.9638749 L57.1207878,64.8019718 C57.1207878,64.6749108 57.1408554,64.5578637 57.1811523,64.4509946 C57.2214492,64.3444538 57.2758258,64.2523592 57.3444439,64.1752033 C57.4127383,64.0980474 57.4944651,64.0389493 57.5891386,63.9980731 C57.6838122,63.9570327 57.7835026,63.9368408 57.8885336,63.9368408 C57.9930791,63.9368408 58.0919603,63.9570327 58.1846918,63.9980731 C58.2772615,64.0389493 58.3588264,64.0967341 58.4295484,64.1717559 C58.4999466,64.2466136 58.5554561,64.337559 58.595753,64.444264 C58.6358881,64.5511331 58.6561175,64.6703143 58.6561175,64.8019718 L58.6561175,76.9638749 Z" id="Fill-33" fill="#6C6E70"></path>
                    <path d="M57.8885174,64.0188395 C57.7949767,64.0188395 57.7048345,64.0372256 57.621004,64.0735053 C57.537497,64.1096208 57.4648331,64.1621525 57.4046304,64.2301153 C57.3429712,64.2993915 57.2932878,64.3836063 57.2567131,64.4802974 C57.2201384,64.5769885 57.2016892,64.6853351 57.2016892,64.8018898 L57.2016892,76.9637928 C57.2016892,77.0847799 57.2201384,77.1939472 57.2565513,77.2883401 C57.2929642,77.3828971 57.3428094,77.4662911 57.4044686,77.5357314 C57.4646712,77.6036943 57.5373352,77.656226 57.6208421,77.6921773 C57.7886651,77.7647367 57.9885315,77.765065 58.1523086,77.6925056 C58.2345209,77.6563901 58.307994,77.6041868 58.3709479,77.537373 C58.4337399,77.4703952 58.4840706,77.3879861 58.5201598,77.2921158 C58.5567346,77.1952605 58.5751838,77.0847799 58.5751838,76.9637928 L58.5751838,64.8018898 C58.5751838,64.6812311 58.5567346,64.5707504 58.5201598,64.4735668 C58.4839088,64.3776965 58.4337399,64.2951233 58.3709479,64.2284737 C58.3081558,64.1618242 58.2346827,64.1096208 58.1524705,64.073177 C58.0704201,64.0370614 57.9815726,64.0188395 57.8885174,64.0188395 M57.8885174,77.9111687 C57.7728053,77.9111687 57.6614627,77.8881861 57.5574028,77.8432059 C57.4522099,77.7980615 57.3601258,77.7314119 57.2842251,77.6455555 C57.2094573,77.5613406 57.1494164,77.4613663 57.105721,77.3479307 C57.0618636,77.2346593 57.0398541,77.1053 57.0398541,76.9637928 L57.0398541,64.8018898 C57.0398541,64.6653074 57.0618636,64.5372615 57.1055591,64.4216918 C57.1494164,64.3059579 57.2094573,64.2045061 57.2843869,64.1201271 C57.3602876,64.0344348 57.4523718,63.9677853 57.5574028,63.9224767 C57.7660082,63.8323521 58.0121594,63.8325162 58.2168808,63.9226409 C58.3189988,63.9677853 58.4102738,64.0324649 58.4879547,64.1150381 C58.5657974,64.1976114 58.6272947,64.2984065 58.6713138,64.4149611 C58.7148475,64.5310233 58.7370189,64.6612034 58.7370189,64.8018898 L58.7370189,76.9637928 C58.7370189,77.1048076 58.7148475,77.2351518 58.6713138,77.3508856 C58.6274565,77.4671119 58.5657974,77.5679071 58.4881165,77.6506445 C58.4099501,77.733546 58.3186751,77.7983898 58.2168808,77.8430417 C58.1146011,77.8881861 58.0042295,77.9111687 57.8885174,77.9111687" id="Fill-35" fill="#6C6E70"></path>
                    <path d="M64.2871541,69.0943841 C63.9285275,69.0943841 63.6050191,69.1649735 63.3169526,69.3056599 C63.0288861,69.4465104 62.7809547,69.6372661 62.5734821,69.8779268 C62.3658477,70.1187517 62.2007758,70.4002886 62.0777812,70.7228659 C61.9547865,71.0454432 61.8813133,71.3882124 61.8570381,71.7515018 L66.7112823,71.7515018 C66.7112823,71.3475004 66.6548019,70.9815844 66.5421646,70.6545748 C66.4292037,70.3275651 66.2678541,70.0483264 66.0584395,69.8165304 C65.848863,69.5848986 65.5938108,69.4066192 65.2937685,69.2818565 C64.9934026,69.1569296 64.6579184,69.0943841 64.2871541,69.0943841 L64.2871541,69.0943841 Z M61.8570381,73.257355 C61.8570381,73.684339 61.9106055,74.0862063 62.0174167,74.4632852 C62.124066,74.8403641 62.2873576,75.1709853 62.5069679,75.4546564 C62.7265781,75.7386557 63.0026688,75.963557 63.3350782,76.1291959 C63.6676493,76.294999 64.059614,76.3777364 64.5109721,76.3777364 C64.9945354,76.3777364 65.4185434,76.2587193 65.7833198,76.0200285 C66.1480961,75.781666 66.4191699,75.4036022 66.5965412,74.8856727 C66.6771351,74.6540408 66.802881,74.4949684 66.9742644,74.4087836 C67.1454859,74.3225988 67.3278741,74.3203006 67.5212671,74.402053 C67.6180445,74.442765 67.7017132,74.5008782 67.7722733,74.5757358 C67.8426716,74.6507576 67.89721,74.7357933 67.9354031,74.8311711 C67.9735962,74.9265489 67.9947966,75.0276724 67.9990043,75.1343773 C68.0028884,75.2410823 67.9868667,75.3489364 67.9506156,75.4581038 C67.8054495,75.8624335 67.6201483,76.2178431 67.3943883,76.5243326 C67.1687902,76.8309862 66.9067791,77.0875706 66.608517,77.2942499 C66.3102549,77.5009292 65.9807586,77.6563901 65.62019,77.760961 C65.2594595,77.8655318 64.8736446,77.9177352 64.4625834,77.9177352 C63.7613519,77.9177352 63.15269,77.7882118 62.6369215,77.5293291 C62.1209911,77.2704465 61.6908334,76.9092912 61.3462864,76.4460275 C61.0017395,75.9827638 60.7418323,75.4318379 60.5665649,74.7937423 C60.3911356,74.1556466 60.2933872,73.4571395 60.2731578,72.6985493 C60.2731578,71.9581811 60.3720391,71.2746127 60.5694779,70.6478441 C60.7669167,70.0210756 61.0460823,69.4793427 61.4066509,69.0228097 C61.7673814,68.5662766 62.198672,68.2085687 62.7003608,67.9496861 C63.2022115,67.6908034 63.7552021,67.5614442 64.3598181,67.5614442 C64.8271979,67.5614442 65.2503967,67.6261238 65.6292527,67.7556472 C66.0081087,67.8850065 66.3434311,68.0632858 66.6358671,68.2903212 C66.9278177,68.5175206 67.179795,68.7855963 67.3914753,69.0943841 C67.6029938,69.403336 67.7763192,69.7395387 67.9112897,70.102828 C68.0462602,70.4661174 68.1461124,70.8466437 68.2105228,71.2440786 C68.2749332,71.6415136 68.3073002,72.0422317 68.3073002,72.4465615 C68.3073002,72.559997 68.2880418,72.6658812 68.2496869,72.7633931 C68.2114938,72.8610692 68.1592211,72.946269 68.0927068,73.0188284 C68.0261926,73.0917161 67.9475407,73.1495009 67.8569131,73.1926754 C67.7661236,73.236014 67.6703172,73.257355 67.5696558,73.257355 L61.8570381,73.257355 Z" id="Fill-37" fill="#6C6E70"></path>
                    <path d="M61.9446556,71.6695031 L66.6296203,71.6695031 C66.6223377,71.3086762 66.5674756,70.9765775 66.4658432,70.6815793 C66.3572518,70.3670459 66.2001099,70.094702 65.9989489,69.8720991 C65.798597,69.6504811 65.5508274,69.4774549 65.2630846,69.3577812 C64.9738853,69.2374508 64.6455218,69.1765469 64.2872189,69.1765469 C63.9426719,69.1765469 63.6279026,69.2448381 63.3519737,69.3796146 C63.0750739,69.5148837 62.8337777,69.7007145 62.6343969,69.932018 C62.434045,70.1643065 62.272048,70.4404261 62.1532611,70.7524971 C62.0436987,71.0396155 61.9737859,71.3477466 61.9446556,71.6695031 L61.9446556,71.6695031 Z M66.7922646,71.8336646 L61.770521,71.8336646 L61.7763471,71.7461665 C61.800946,71.3761465 61.8770085,71.0218861 62.0021071,70.6932348 C62.1281766,70.3632702 62.2997218,70.0707345 62.5126968,69.8239998 C62.7263192,69.5759518 62.9852554,69.3766597 63.2818991,69.2317052 C63.5799994,69.0862581 63.918073,69.0123854 64.2872189,69.0123854 C64.6665604,69.0123854 65.0156387,69.0773934 65.3244201,69.2057676 C65.6344962,69.3347986 65.9015241,69.5216143 66.1180595,69.7611259 C66.3342712,70.0003092 66.5025797,70.2916958 66.6184537,70.627406 C66.7338421,70.9621313 66.7922646,71.3403593 66.7922646,71.7515838 L66.7922646,71.8336646 Z M64.3598828,67.643607 C63.7709649,67.643607 63.2249332,67.7711605 62.7371621,68.02282 C62.2477728,68.2753004 61.8213372,68.6290684 61.4698314,69.0741101 C61.1170308,69.5206294 60.8401309,70.0585865 60.646738,70.6728788 C60.4525358,71.2886485 60.3541401,71.9702469 60.3541401,72.6986314 C60.3740458,73.4452378 60.4716324,74.1434166 60.6444723,74.7716625 C60.8161793,75.3969536 61.0739827,75.9436113 61.4109234,76.396697 C61.7460839,76.8473203 62.1707392,77.2037148 62.6727518,77.4557027 C63.175088,77.7078547 63.7772764,77.8357365 64.4626481,77.8357365 C64.8641611,77.8357365 65.2460919,77.7840257 65.5979215,77.6820814 C65.94878,77.5803013 66.2734212,77.4269745 66.5627824,77.2265333 C66.8523054,77.025928 67.1104324,76.7731193 67.3295572,76.4751662 C67.5494911,76.1765565 67.7328503,75.8249226 67.8746178,75.4299501 C67.906823,75.3330948 67.9217119,75.2341054 67.9179897,75.1374143 C67.9144293,75.0408874 67.8950091,74.9483003 67.8605382,74.8621155 C67.826391,74.777244 67.7770313,74.6997598 67.7137537,74.6322895 C67.6511236,74.5659682 67.5758702,74.5137649 67.4904213,74.4778135 C67.3191997,74.4055825 67.159954,74.4068957 67.0104183,74.48241 C66.8571605,74.5594018 66.7467889,74.7002523 66.6728303,74.9130056 C66.4902803,75.4458737 66.2057741,75.8416671 65.82708,76.0890584 C65.4509752,76.3351365 65.0081943,76.4598992 64.5110368,76.4598992 C64.0488357,76.4598992 63.6411731,76.3732219 63.2993773,76.2026581 C62.9575816,76.0324227 62.6695151,75.7978359 62.4432696,75.5053002 C62.2183188,75.2145702 62.0487156,74.8714727 61.9396387,74.4858574 C61.8312092,74.103197 61.7761852,73.6900026 61.7761852,73.2574371 L61.7761852,73.1753563 L67.5697205,73.1753563 C67.6582443,73.1753563 67.7432077,73.1561494 67.8223451,73.1183923 C67.9032627,73.0799785 67.9743083,73.027611 68.0333781,72.9630955 C68.0926097,72.8982518 68.1401893,72.8209317 68.1744983,72.7331053 C68.2089692,72.6452789 68.2264474,72.5489161 68.2264474,72.4464794 C68.2264474,72.0495369 68.1940804,71.6494754 68.1308028,71.2572936 C68.0675253,70.8675743 67.9681585,70.4890179 67.8354537,70.1316384 C67.7033963,69.7762288 67.5316892,69.442981 67.3250258,69.1412522 C67.1191715,68.8410008 66.8707546,68.5765367 66.5865722,68.3555753 C66.3025515,68.1349423 65.9717606,67.9591254 65.6034239,67.8333777 C65.2349253,67.7073017 64.8165815,67.643607 64.3598828,67.643607 L64.3598828,67.643607 Z M64.4626481,77.999898 C63.752192,77.999898 63.1258901,77.8662706 62.6010588,77.6029556 C62.0760657,77.3394764 61.632152,76.966994 61.2816171,76.4953581 C60.9325388,76.0260204 60.6658345,75.4609766 60.4886251,74.8156578 C60.3123866,74.1747714 60.2126962,73.4631314 60.192305,72.7007655 C60.192305,71.9533383 60.2932901,71.2548312 60.4923473,70.6228095 C60.6920518,69.9894745 60.9781763,69.4337879 61.3434381,68.9715092 C61.709671,68.5080814 62.1537466,68.139703 62.663689,67.8767163 C63.1746025,67.613073 63.7452331,67.4794455 64.3598828,67.4794455 C64.8342216,67.4794455 65.2700435,67.5460951 65.6552111,67.6779168 C66.0403787,67.8092459 66.3867058,67.9934351 66.6849679,68.2253953 C66.9824209,68.4565347 67.2423281,68.7331467 67.4577306,69.047516 C67.6721621,69.3604078 67.8501807,69.7056393 67.9869314,70.0736894 C68.1233584,70.4410828 68.2254764,70.8303096 68.2903723,71.2306995 C68.3552681,71.631746 68.3882825,72.0406722 68.3882825,72.4464794 C68.3882825,72.5697646 68.3669203,72.6866476 68.325005,72.7936809 C68.2832515,72.9003859 68.2249909,72.9949429 68.1518414,73.0748895 C68.0786919,73.1548362 67.9908155,73.2195158 67.891125,73.2669584 C67.7903018,73.3150578 67.6821959,73.3395178 67.5697205,73.3395178 L61.9386677,73.3395178 C61.9451411,73.7267747 61.9977375,74.0969589 62.0951623,74.440713 C62.1984131,74.8058081 62.358468,75.1298629 62.5706338,75.4040126 C62.7816668,75.6768489 63.0507986,75.8961687 63.3709085,76.0554053 C63.6902091,76.2149703 64.0737584,76.2957377 64.5110368,76.2957377 C64.9764746,76.2957377 65.3898015,76.1798397 65.7395272,75.9511628 C66.0869872,75.7239633 66.3496456,75.3565699 66.5200579,74.8588323 C66.6077726,74.6068444 66.7484073,74.4306992 66.9385635,74.3351572 C67.129529,74.2387944 67.3381344,74.2358395 67.5524041,74.3262925 C67.6587298,74.3709444 67.7524323,74.4359523 67.8307605,74.5188539 C67.9082795,74.6015913 67.968644,74.6963124 68.0102357,74.8002266 C68.0519891,74.9039767 68.0752934,75.0154423 68.0798248,75.1311762 C68.0841943,75.2480592 68.0663925,75.3667479 68.0272284,75.4842875 C67.8794729,75.8960045 67.6885075,76.2619204 67.4591871,76.5733348 C67.2292194,76.8857341 66.9583074,77.1511832 66.6542192,77.3621307 C66.3504547,77.5725857 66.0099537,77.7334639 65.642588,77.8398406 C65.2761933,77.9458889 64.8792117,77.999898 64.4626481,77.999898 L64.4626481,77.999898 Z" id="Fill-39" fill="#6C6E70"></path>
                    <path d="M71.6895408,67.7862141 L72.7474569,67.7862141 C72.8481184,67.7862141 72.9408499,67.8067343 73.0254897,67.8474463 C73.1101294,67.8884867 73.1827934,67.9441374 73.2431579,68.0145627 C73.3036842,68.084988 73.3509401,68.1667404 73.3852491,68.25982 C73.4192345,68.3528995 73.4365509,68.4538588 73.4365509,68.562862 C73.4365509,68.6718653 73.4192345,68.7731529 73.3852491,68.8660683 C73.3509401,68.959312 73.3036842,69.0420494 73.2431579,69.1149371 C73.1827934,69.1874965 73.1101294,69.2442963 73.0254897,69.2851725 C72.9408499,69.3260488 72.8481184,69.3464048 72.7474569,69.3464048 L71.6895408,69.3464048 L71.6895408,75.3217184 C71.6895408,75.5533503 71.722717,75.7396735 71.7892312,75.8805241 C71.8557455,76.0212105 71.946535,76.1257813 72.0612761,76.1939083 C72.176179,76.2620354 72.3111495,76.3017624 72.4663494,76.3130896 C72.6213874,76.3245809 72.78565,76.3188352 72.9591373,76.2960168 C73.0597987,76.2825555 73.1533394,76.2892862 73.240083,76.316537 C73.3266648,76.3437878 73.4022418,76.3879472 73.4666522,76.4493436 C73.5312244,76.5105758 73.5825261,76.5855976 73.6210429,76.6742448 C73.659236,76.762892 73.6822166,76.859419 73.6904702,76.9638257 C73.7105377,77.1773998 73.6642529,77.3624097 73.5514538,77.5190198 C73.4386547,77.675794 73.279409,77.7654262 73.0738784,77.7882446 C72.6144285,77.8471786 72.2043383,77.8414329 71.8436078,77.7711718 C71.4830392,77.7007465 71.1766853,77.5667908 70.9247081,77.3691404 C70.6728926,77.1716541 70.4814417,76.9093241 70.3506789,76.5823144 C70.2195925,76.2553047 70.1542111,75.8623022 70.1542111,75.4034708 L70.1542111,69.3464048 L69.3500524,69.3464048 C69.249391,69.3464048 69.1566594,69.3260488 69.0720197,69.2851725 C68.9873799,69.2442963 68.9147159,69.1874965 68.8543514,69.1149371 C68.7938251,69.0420494 68.7464074,68.959312 68.712422,68.8660683 C68.678113,68.7731529 68.6609585,68.6718653 68.6609585,68.562862 C68.6609585,68.4538588 68.678113,68.3528995 68.712422,68.25982 C68.7464074,68.1667404 68.7938251,68.084988 68.8543514,68.0145627 C68.9147159,67.9441374 68.9873799,67.8884867 69.0720197,67.8474463 C69.1566594,67.8067343 69.249391,67.7862141 69.3500524,67.7862141 L70.1542111,67.7862141 L70.1542111,65.5923601 C70.1542111,65.465135 70.1742786,65.3480878 70.2145756,65.2413829 C70.2548725,65.1348421 70.3092491,65.0427475 70.3778672,64.9654274 C70.4461616,64.8884357 70.5277265,64.8291734 70.6225619,64.7882972 C70.7172354,64.747421 70.8169259,64.727065 70.921795,64.727065 C71.0265023,64.727065 71.1253836,64.747421 71.2181151,64.7882972 C71.3106848,64.8291734 71.3922497,64.8871224 71.4629716,64.9621442 C71.5332081,65.0370018 71.5887175,65.1279473 71.6290145,65.2346522 C71.6693114,65.3413572 71.6895408,65.4607026 71.6895408,65.5923601 L71.6895408,67.7862141 Z" id="Fill-41" fill="#6C6E70"></path>
                    <path d="M69.3500362,67.8682948 C69.2619979,67.8682948 69.1801093,67.8861884 69.106798,67.9216473 C69.0325157,67.9575987 68.9682672,68.0070113 68.9153471,68.0684077 C68.8616178,68.1312815 68.8187315,68.2053183 68.7881447,68.2885482 C68.757396,68.3717781 68.7418599,68.464201 68.7418599,68.562862 C68.7418599,68.6618514 68.757396,68.7541102 68.7881447,68.83734 C68.8187315,68.9210624 68.8617797,68.9965767 68.9161563,69.0619129 C68.9689145,69.1252793 69.0330012,69.1753485 69.106798,69.2111357 C69.1799475,69.2464304 69.2616742,69.264324 69.3500362,69.264324 L70.2351125,69.264324 L70.2351125,75.4034708 C70.2351125,75.8496617 70.2991992,76.2359337 70.4254305,76.551452 C70.5503673,76.8633588 70.7350211,77.11666 70.9742134,77.3041324 C71.2145386,77.492754 71.5121533,77.6227698 71.858966,77.6905685 C72.2096627,77.7588597 72.6155451,77.7641129 73.0636666,77.7068205 C73.2488059,77.6863003 73.3863658,77.6091444 73.4860562,77.4705922 C73.5878505,77.3295774 73.6283093,77.1664009 73.6098601,76.9717054 C73.6022538,76.8751785 73.5812153,76.7866954 73.5469062,76.7070771 C73.5130827,76.6291004 73.4672833,76.5624509 73.4114502,76.5094267 C73.3562645,76.4567309 73.2905594,76.4183171 73.2161153,76.394842 C73.1411856,76.3713669 73.058326,76.3656212 72.9696404,76.3774409 C72.7909744,76.400916 72.6204002,76.4066616 72.4605071,76.3950062 C72.2936551,76.382694 72.1454141,76.3390271 72.0204774,76.2646619 C71.8919803,76.188491 71.7895387,76.0711156 71.7162274,75.9158188 C71.6448581,75.7647902 71.6086071,75.5650057 71.6086071,75.3217184 L71.6086071,69.264324 L72.7474408,69.264324 C72.8358027,69.264324 72.9175295,69.2464304 72.9906789,69.2111357 C73.0644758,69.1753485 73.1287243,69.1252793 73.1813207,69.0619129 C73.2355355,68.9967408 73.2784218,68.9212265 73.3093323,68.83734 C73.3399191,68.753946 73.3556171,68.6613589 73.3556171,68.562862 C73.3556171,68.4645293 73.3399191,68.3721064 73.3093323,68.2883841 C73.2785836,68.20499 73.2356973,68.1309532 73.1821299,68.0684077 C73.1293716,68.0070113 73.0649613,67.9575987 72.9905171,67.9214831 C72.9173676,67.8861884 72.8354791,67.8682948 72.7474408,67.8682948 L71.6086071,67.8682948 L71.6086071,65.5923601 C71.6086071,65.4713731 71.5901579,65.3610566 71.5534213,65.2640371 C71.5173321,65.1680027 71.4670013,65.0855936 71.4042093,65.0187799 C71.3415791,64.9521303 71.268106,64.899927 71.1858937,64.8634831 C71.0216311,64.7912521 70.8220884,64.7915804 70.6544272,64.8638115 C70.5710821,64.8997628 70.4982563,64.9522945 70.4380537,65.0204215 C70.3763945,65.0896977 70.3267111,65.1739125 70.2901364,65.2707678 C70.2535617,65.3674589 70.2351125,65.4756413 70.2351125,65.5923601 L70.2351125,67.8682948 L69.3500362,67.8682948 Z M72.4760433,77.9107091 C72.2467229,77.9107091 72.0288929,77.8908455 71.8283791,77.8517751 C71.4566439,77.7790516 71.1358867,77.6385293 70.8753322,77.4339841 C70.6131593,77.2286181 70.4113509,76.9523344 70.2757331,76.6131768 C70.1414099,76.2781232 70.0732773,75.8710027 70.0732773,75.4034708 L70.0732773,69.4284855 L69.3500362,69.4284855 C69.2375608,69.4284855 69.1322061,69.4051746 69.0372089,69.3592094 C68.9425354,69.3135725 68.8601613,69.249057 68.7926761,69.1677971 C68.7261618,69.0878504 68.6734036,68.99592 68.6365052,68.8946324 C68.5989594,68.7931806 68.5800247,68.6815508 68.5800247,68.562862 C68.5800247,68.4445016 68.5989594,68.3328718 68.6365052,68.2310917 C68.6737273,68.1294757 68.7264855,68.0383661 68.7934853,67.9605536 C68.8608087,67.8820844 68.9426972,67.8190464 69.0370471,67.7734095 C69.1325298,67.7274443 69.2378845,67.7041334 69.3500362,67.7041334 L70.0732773,67.7041334 L70.0732773,65.5923601 C70.0732773,65.4556136 70.0952869,65.3275676 70.1389824,65.211998 C70.1826779,65.0962641 70.2428805,64.9948123 70.3176484,64.9104333 C70.3938727,64.8245769 70.4859569,64.7580915 70.5909879,64.7127829 C70.7992697,64.6226583 71.0455827,64.6228224 71.2503041,64.7129471 C71.3524221,64.7582556 71.4435352,64.8227711 71.5213779,64.9053443 C71.598897,64.9880817 71.6605561,65.0888768 71.7045753,65.2052673 C71.7482708,65.3210012 71.7704422,65.4513454 71.7704422,65.5923601 L71.7704422,67.7041334 L72.7474408,67.7041334 C72.8595925,67.7041334 72.9649472,67.7274443 73.060268,67.7732453 C73.1547797,67.8190464 73.2368301,67.8820844 73.3041536,67.9605536 C73.3706678,68.0380378 73.423426,68.1289833 73.4609718,68.2310917 C73.4985175,68.3333643 73.5174522,68.4449941 73.5174522,68.562862 C73.5174522,68.6810583 73.4985175,68.7926881 73.4609718,68.8947966 C73.4237497,68.9962483 73.3711533,69.0883429 73.3048009,69.1677971 C73.2373157,69.249057 73.1551034,69.3135725 73.060268,69.3592094 C72.9652708,69.4051746 72.8599162,69.4284855 72.7474408,69.4284855 L71.7704422,69.4284855 L71.7704422,75.3217184 C71.7704422,75.5400532 71.8011909,75.7161984 71.8622027,75.8450652 C71.9214343,75.9699921 72.0021901,76.0637283 72.1022042,76.1229906 C72.2056168,76.184387 72.3302298,76.2208308 72.4721592,76.231173 C72.6218567,76.2425001 72.7812643,76.2367545 72.9486018,76.2145927 C73.0614009,76.1994898 73.1667555,76.2075337 73.2640184,76.2380678 C73.3620905,76.2690943 73.448996,76.3198202 73.5219836,76.3895888 C73.5941621,76.45788 73.6522609,76.5425873 73.6951472,76.6410842 C73.736577,76.7376112 73.7623088,76.8439878 73.7710479,76.9572592 C73.7928956,77.1892194 73.7411084,77.3949137 73.6166572,77.5674474 C73.4905876,77.7427719 73.3109506,77.8443878 73.0826013,77.8698329 C72.8722156,77.8969195 72.6676561,77.9107091 72.4760433,77.9107091 L72.4760433,77.9107091 Z" id="Fill-43" fill="#6C6E70"></path>
                </g>
            </g>
        </g>
    </g>
</svg>