<?xml version="1.0" encoding="UTF-8"?>
<svg width="120px" height="90px" viewBox="0 0 120 90" version="1.1" xmlns="http://www.w3.org/2000/svg" xmlns:xlink="http://www.w3.org/1999/xlink">
    <title>truemoney</title>
    <g id="LOGO-+-SDK-+-payment-icon" stroke="none" stroke-width="1" fill="none" fill-rule="evenodd">
        <g id="payment" transform="translate(-2638.000000, -355.000000)">
            <g id="truemoney" transform="translate(2638.000000, 355.000000)">
                <g id="payment-4:3bg" transform="translate(-20.000000, -15.000000)"></g>
                <g id="true-money" transform="translate(10.000000, 7.000000)">
                    <path d="M38.4285714,1.49578257 C38.1785714,0.676663543 37.3035714,0 36.4642857,0 L34.7142857,0 L22,0 C21.1607143,0 20.6964286,0.676663543 20.9464286,1.49578257 L29.125,28.6691659 C29.375,29.4882849 30.25,30.1649485 31.0892857,30.1649485 L39.7857143,30.1649485 L42.9821429,30.1649485 C43.8214286,30.1649485 44.75,29.4882849 45.0714286,28.6691659 L45.9464286,26.4076851 L38.4285714,1.49578257 Z" id="路径" fill="#EC1B23" fill-rule="nonzero"></path>
                    <path d="M55.5535714,8.19119025 L46.3392857,8.19119025 L41.25,8.19119025 C40.3035714,8.19119025 39.8928571,8.8678538 39.6071429,9.68697282 L32.9285714,28.651359 L32.9285714,28.651359 C32.625,29.470478 31.7142857,30.1471415 30.8928571,30.1471415 L38.5892857,30.1471415 L47.8035714,30.1471415 C48.625,30.1471415 49.5357143,29.470478 49.8392857,28.651359 L56.5178571,9.68697282 C56.8035714,8.8678538 56.375,8.19119025 55.5535714,8.19119025" id="路径" fill="#9C080D" fill-rule="nonzero"></path>
                    <path d="M57.6428571,9.68697282 C57.3928571,8.8678538 56.5178571,8.19119025 55.6785714,8.19119025 L53.9285714,8.19119025 L41.2142857,8.19119025 C40.3928571,8.19119025 39.9107143,8.8678538 40.1607143,9.68697282 L46.9642857,32.4086223 C47.2142857,33.2277413 48.0892857,33.9044049 48.9107143,33.9044049 L57.6071429,33.9044049 L60.8035714,33.9044049 C61.6428571,33.9044049 62.5714286,33.2277413 62.8928571,32.4086223 L63.7678571,30.1471415 L57.6428571,9.68697282 Z" id="路径" fill="#FED300" fill-rule="nonzero"></path>
                    <path d="M78.0892857,3.38331771 L72.2321429,3.38331771 L62.7321429,3.38331771 C61.9107143,3.38331771 60.9642857,4.05998126 60.6428571,4.87910028 L50.9642857,32.3908154 C50.9642857,32.3908154 50.9642857,32.4086223 50.9642857,32.4086223 C50.6428571,33.2277413 49.6964286,33.8865979 48.875,33.8865979 L51.8928571,33.8865979 L61.3928571,33.8865979 L64.0535714,33.8865979 L67.25,33.8865979 C68.0714286,33.8865979 69.0178571,33.2099344 69.3392857,32.3908154 L79.0178571,4.87910028 C79.3392857,4.05998126 78.9285714,3.38331771 78.0892857,3.38331771" id="路径" fill="#FF8300" fill-rule="nonzero"></path>
                    <path d="M5.23214286,44.4817245 L1.67857143,44.4817245 L1.67857143,47.4198688 L0,47.4198688 L0,50.660731 L1.67857143,50.660731 L1.67857143,54.4714152 C1.67857143,57.4629803 4.10714286,59.3683224 7.10714286,59.3683224 L9.19642857,59.3683224 L9.19642857,56.2521087 L7.08928571,56.2521087 C6.07142857,56.2521087 5.23214286,55.4329897 5.23214286,54.4001874 L5.23214286,50.660731 L7.55357143,50.660731 C8.46428571,50.6251172 9.17857143,49.8772259 9.17857143,48.9690722 L9.17857143,47.4198688 L5.23214286,47.4198688 L5.23214286,44.4817245 Z M25.6428571,54.5426429 C25.6428571,55.5576382 24.8214286,56.3945642 23.7857143,56.3945642 C22.7678571,56.3945642 21.9285714,55.5576382 21.9285714,54.5426429 L21.9285714,49.1293346 C21.9285714,48.185567 21.1607143,47.4198688 20.2142857,47.4198688 L18.3571429,47.4198688 L18.3571429,54.0796626 C18.3571429,57.0712277 19.9821429,59.5107779 23.7857143,59.5107779 C27.5892857,59.5107779 29.2142857,57.0890347 29.2142857,54.0796626 L29.2142857,47.4198688 L25.6607143,47.4198688 L25.6607143,54.5426429 M41.4642857,53.7413308 C41.4464286,50.0374883 39.4285714,47.1349578 35.6785714,47.1349578 C32.4642857,47.1349578 29.8571429,49.7347704 29.8571429,53.2961575 C29.8571429,57.1424555 32.2142857,59.4217432 35.6964286,59.4929709 C37.9642857,59.4929709 39.9285714,58.2286785 40.9464286,56.3589503 L37.6785714,55.5042174 C37.2857143,56.0918463 36.5357143,56.5014058 35.6607143,56.5014058 C34.3928571,56.5014058 33.3571429,55.5932521 33.3392857,54.4892221 L41.4464286,54.4892221 C41.4821429,54.3467666 41.4642857,53.9372071 41.4642857,53.7413308 M33.3571429,52.0852858 C33.3928571,50.9812559 34.4107143,50.0909091 35.6785714,50.0909091 C36.9642857,50.0909091 38,50.9812559 38.0178571,52.0852858 L33.3571429,52.0852858 Z M15.4464286,47.4198688 L15.3928571,47.4198688 L14.9642857,47.4198688 C12.25,47.4198688 10.0357143,49.6101218 10.0357143,52.3523899 L10.0357143,59.3683224 L13.5892857,59.3683224 L13.5892857,52.5126523 C13.5892857,51.47985 14.4107143,50.660731 15.4464286,50.660731 L17.5178571,50.660731 L17.5178571,47.4198688 L16.1785714,47.4198688 L15.4464286,47.4198688 Z" id="形状" fill="#E60012"></path>
                    <path d="M67.0714286,55.8781631 C66.5892857,56.5014058 65.9107143,56.8931584 65.0892857,56.8931584 C64.25,56.8931584 63.5714286,56.5014058 63.1071429,55.8781631 C62.625,55.2371134 62.3571429,54.1865042 62.3571429,53.2249297 C62.3571429,52.2455483 62.625,51.3552015 63.1071429,50.7497657 C63.5892857,50.108716 64.2678571,49.7169634 65.0892857,49.7169634 C65.9107143,49.7169634 66.5892857,50.126523 67.0714286,50.7497657 C67.5357143,51.3552015 67.8214286,52.2455483 67.8214286,53.2249297 C67.8214286,54.1686973 67.5357143,55.2371134 67.0714286,55.8781631 M65.0892857,47.099344 C63.625,47.099344 62.3392857,47.7760075 61.4107143,48.8800375 C60.4642857,50.0018744 59.8928571,51.497657 59.8928571,53.2071228 C59.8928571,54.8631678 60.4642857,56.5904405 61.4107143,57.6944705 C62.3392857,58.7985005 63.625,59.475164 65.0892857,59.475164 C66.5178571,59.475164 67.8214286,58.7985005 68.75,57.6944705 C69.6964286,56.5904405 70.2678571,54.8631678 70.2678571,53.2071228 C70.2678571,51.5154639 69.6964286,50.0018744 68.75,48.8800375 C67.8214286,47.7938144 66.5178571,47.099344 65.0892857,47.099344" id="形状" fill="#F4811F" fill-rule="nonzero"></path>
                    <path d="M76.2857143,47.099344 C75.1428571,47.099344 74.0178571,47.7403936 73.3214286,48.6841612 L73.3214286,48.6663543 C73.3214286,48.2746017 73.1785714,47.900656 72.9642857,47.633552 C72.75,47.366448 72.4285714,47.2061856 72.0892857,47.2061856 C71.7321429,47.2061856 71.4464286,47.3842549 71.2142857,47.651359 C71.0178571,47.900656 70.875,48.2924086 70.875,48.6663543 L70.875,57.9615745 C70.875,58.3533271 71.0178571,58.7272727 71.2321429,58.9587629 C71.4642857,59.20806 71.7678571,59.3683224 72.1071429,59.3683224 C72.4464286,59.3683224 72.75,59.190253 72.9642857,58.9587629 C73.1964286,58.7094658 73.3214286,58.3533271 73.3214286,57.9615745 L73.3214286,52.6373008 C73.3214286,51.8537957 73.5357143,51.1059044 73.9464286,50.5716963 C74.3392857,50.0374883 74.9285714,49.6813496 75.7142857,49.6813496 C76.4642857,49.6813496 77.0178571,50.0018744 77.375,50.5004686 C77.7678571,51.0168697 77.9642857,51.764761 77.9642857,52.601687 L77.9642857,57.9437676 C77.9642857,58.3355201 78.0892857,58.7094658 78.3214286,58.940956 C78.5357143,59.190253 78.8571429,59.3505155 79.1964286,59.3505155 C79.5357143,59.3505155 79.8392857,59.1724461 80.0535714,58.940956 C80.2678571,58.6916589 80.4107143,58.3355201 80.4107143,57.9437676 L80.4107143,52.5482662 C80.4107143,51.0168697 80.0357143,49.6635426 79.3214286,48.6663543 C78.625,47.6869728 77.5892857,47.099344 76.2857143,47.099344" id="路径" fill="#F4811F" fill-rule="nonzero"></path>
                    <path d="M86.125,49.574508 C86.8035714,49.5923149 87.3928571,49.8772259 87.8392857,50.3402062 C88.25,50.7675726 88.5178571,51.3552015 88.6428571,52.031865 L83.625,52.031865 C83.7678571,51.3195876 84.0178571,50.7497657 84.4285714,50.3223993 C84.8571429,49.841612 85.4285714,49.574508 86.125,49.574508 M90.4821429,55.8425492 L90.4821429,55.8425492 L90.4821429,55.8425492 C90.2678571,55.5398313 89.9642857,55.3617619 89.6428571,55.3617619 C89.4107143,55.3617619 89.1964286,55.4329897 88.9821429,55.6644799 C88.25,56.5014058 87.3214286,57.0356139 86.25,57.0356139 C85.5,57.0356139 84.8571429,56.715089 84.375,56.2164948 C83.9464286,55.7535145 83.6428571,54.9165886 83.5714286,54.1686973 L90.1607143,54.1686973 C90.4107143,54.1686973 90.6428571,54.0796626 90.8035714,53.9015933 C90.9821429,53.7235239 91.1071429,53.4742268 91.1071429,53.1715089 C91.1071429,51.4620431 90.5714286,49.9484536 89.6964286,48.8622306 C88.8035714,47.7938144 87.5535714,47.1171509 86.125,47.1349578 C84.6964286,47.1349578 83.4107143,47.8116214 82.4821429,48.9156514 C81.5535714,50.0374883 81,51.5510778 81,53.2427366 C81,54.9165886 81.5714286,56.6260544 82.5178571,57.7300843 C83.4642857,58.8341143 84.75,59.5107779 86.1964286,59.5107779 C87.7678571,59.5107779 89.3571429,58.7272727 90.3214286,57.5342081 L90.3214286,57.5164011 C90.5357143,57.2492971 90.6607143,56.9109653 90.6607143,56.5726336 C90.6607143,56.3055295 90.5892857,56.0562324 90.4821429,55.8425492" id="形状" fill="#F4811F" fill-rule="nonzero"></path>
                    <path d="M100,48.7197751 C100,48.1499531 99.6964286,47.6691659 99.2678571,47.4910965 L99.25,47.4910965 C99.125,47.4198688 99.0178571,47.3842549 98.8928571,47.3842549 C98.4464286,47.3842549 98.0357143,47.6869728 97.875,48.185567 L95.3571429,54.8631678 L92.7857143,48.185567 C92.625,47.7047798 92.2142857,47.4020619 91.7678571,47.4020619 C91.625,47.4020619 91.4642857,47.4376757 91.3392857,47.5089035 C90.9285714,47.7047798 90.6428571,48.2033739 90.6428571,48.7553889 C90.6428571,48.8266167 90.6607143,48.8978444 90.6785714,49.004686 C90.7678571,49.3252109 91,50.0196813 91.3214286,50.8922212 C92.2142857,53.3673852 93.75,57.2314902 94.0535714,58.0684161 C93.375,59.7066542 92.3035714,61.0777882 90.8214286,61.8612933 C90.625,61.9859419 90.4464286,62.1283974 90.3392857,62.3064667 C90.2142857,62.52015 90.1428571,62.7516401 90.1428571,63.0187441 C90.1428571,63.339269 90.25,63.6597938 90.4464286,63.891284 C90.625,64.1227741 90.8928571,64.3008435 91.1785714,64.3008435 C91.3214286,64.3008435 91.4642857,64.2296157 91.5892857,64.1761949 C93.8571429,63.1611996 95.4464286,61.0243674 96.375,58.5670103 L99.8928571,49.3074039 C99.9821429,49.0759138 100,48.8800375 100,48.7197751" id="路径" fill="#F4811F" fill-rule="nonzero"></path>
                    <path d="M55.5178571,47.099344 C54.1428571,47.099344 52.875,47.900656 52.1964286,49.1115276 C51.9285714,48.5595127 51.5714286,48.0609185 51.1071429,47.7225867 C50.5714286,47.3130272 49.9285714,47.099344 49.1785714,47.099344 C48.1071429,47.099344 47.3035714,47.7225867 46.6964286,48.6485473 C46.6964286,48.2567948 46.5714286,47.900656 46.3571429,47.633552 C46.1607143,47.366448 45.8392857,47.1883786 45.5178571,47.1883786 C45.1785714,47.1883786 44.7857143,47.366448 44.5714286,47.633552 C44.375,47.900656 44.25,48.2567948 44.25,48.6663543 L44.25,52.601687 L44.25,57.9259606 C44.25,58.3177132 44.375,58.6738519 44.5714286,58.940956 C44.7678571,59.20806 45.1428571,59.3861293 45.4642857,59.3861293 C45.8035714,59.3861293 46.1607143,59.20806 46.3571429,58.940956 C46.5892857,58.6738519 46.6964286,58.3177132 46.6964286,57.9259606 L46.6964286,52.6373008 C46.6964286,51.8359888 46.7142857,51.1059044 47.0535714,50.5716963 C47.4107143,50.0552952 47.9107143,49.6991565 48.6428571,49.6991565 C49.3392857,49.7169634 49.8214286,50.0018744 50.125,50.5182755 C50.4464286,51.0168697 50.5357143,51.764761 50.5357143,52.601687 L50.5357143,57.9259606 C50.5357143,58.6916589 51.0357143,59.3861293 51.6964286,59.3861293 C52.0178571,59.3861293 52.3928571,59.20806 52.6071429,58.940956 C52.8035714,58.6738519 52.9642857,58.3177132 52.9642857,57.9259606 L52.9642857,52.5126523 C52.9642857,51.7469541 53.1071429,51.0346767 53.4642857,50.5182755 C53.8214286,50.0018744 54.3214286,49.6813496 55.0178571,49.6813496 C55.7321429,49.6991565 56.1785714,49.9840675 56.5,50.5004686 C56.8214286,50.9990628 56.8214286,51.7469541 56.8214286,52.58388 L56.8214286,57.9081537 C56.8214286,58.2999063 56.9464286,58.656045 57.1607143,58.923149 C57.3571429,59.190253 57.6964286,59.3683224 58.0357143,59.3683224 C58.3571429,59.3683224 58.7321429,59.190253 58.9464286,58.923149 C59.1607143,58.656045 59.2857143,58.2999063 59.2857143,57.9081537 L59.2857143,52.4414246 C59.2857143,50.8922212 59.0178571,49.574508 58.375,48.6129335 C57.7857143,47.651359 56.8035714,47.081537 55.5178571,47.099344" id="路径" fill="#F4811F" fill-rule="nonzero"></path>
                    <path d="M40.1964286,75.1452671 C40.1785714,75.2521087 40.125,75.3411434 40.0892857,75.4123711 C40.0535714,75.4835989 39.9821429,75.5548266 39.9285714,75.6082474 C39.8571429,75.6616682 39.7857143,75.6972821 39.6785714,75.715089 C39.5714286,75.732896 39.4464286,75.7507029 39.2857143,75.7507029 C39.125,75.7507029 39,75.732896 38.8928571,75.715089 C38.7857143,75.6972821 38.6964286,75.6616682 38.625,75.6082474 C38.5535714,75.5548266 38.5,75.4835989 38.4642857,75.4123711 C38.4285714,75.3411434 38.3928571,75.2521087 38.375,75.1452671 L36.7321429,68.2539831 L35.1785714,75.1452671 C35.1607143,75.2521087 35.125,75.3411434 35.0714286,75.4123711 C35.0357143,75.4835989 34.9642857,75.5548266 34.8928571,75.6082474 C34.8214286,75.6616682 34.7321429,75.6972821 34.625,75.715089 C34.5178571,75.732896 34.3928571,75.7507029 34.2321429,75.7507029 C34.0714286,75.7507029 33.9464286,75.732896 33.8392857,75.715089 C33.7321429,75.6972821 33.6428571,75.6616682 33.5714286,75.6082474 C33.5,75.5548266 33.4464286,75.5014058 33.3928571,75.4123711 C33.3392857,75.3411434 33.3214286,75.2343018 33.2857143,75.1274602 L30.9464286,67.0074977 C30.9107143,66.900656 30.8928571,66.7760075 30.9107143,66.651359 C30.9285714,66.5267104 30.9464286,66.4198688 31,66.3130272 C31.0535714,66.2061856 31.1071429,66.1171509 31.1785714,66.0459231 C31.25,65.9746954 31.3571429,65.9034677 31.4464286,65.8678538 C31.5535714,65.8322399 31.6607143,65.814433 31.7678571,65.8322399 C31.875,65.8500469 31.9821429,65.8856607 32.0714286,65.9212746 C32.1607143,65.9746954 32.25,66.0459231 32.3214286,66.1349578 C32.3928571,66.2239925 32.4464286,66.3308341 32.4642857,66.4554827 L34.2321429,73.5782568 L35.8035714,66.4910965 C35.8571429,66.2952202 35.9285714,66.1171509 36.0714286,66.0103093 C36.2142857,65.8856607 36.4285714,65.8322399 36.7321429,65.8322399 C36.8928571,65.8322399 37.0178571,65.8500469 37.125,65.8856607 C37.2321429,65.9212746 37.3214286,65.9568885 37.3928571,66.0103093 C37.4642857,66.0637301 37.5178571,66.1349578 37.5714286,66.2061856 C37.625,66.2952202 37.6428571,66.3842549 37.6785714,66.4910965 L39.3392857,73.5960637 L41.0892857,66.4020619 C41.1071429,66.2952202 41.1607143,66.2061856 41.2321429,66.099344 C41.3035714,66.0281162 41.375,65.9568885 41.4642857,65.9034677 C41.5535714,65.8500469 41.6428571,65.8322399 41.75,65.8322399 C41.8571429,65.814433 41.9464286,65.8322399 42.0535714,65.8678538 C42.1428571,65.9034677 42.2321429,65.9568885 42.3035714,66.0281162 C42.375,66.099344 42.4464286,66.1883786 42.4821429,66.2774133 C42.5357143,66.366448 42.5535714,66.4732896 42.5535714,66.5801312 C42.5714286,66.6869728 42.5535714,66.7938144 42.5178571,66.918463 L40.1964286,75.1452671 Z" id="路径" fill="#6C6E70" fill-rule="nonzero"></path>
                    <path d="M39.2678571,75.8219306 C39.1071429,75.8219306 38.9642857,75.8041237 38.8571429,75.7863168 C38.75,75.7507029 38.6428571,75.715089 38.5714286,75.6616682 C38.5,75.6082474 38.4285714,75.5192127 38.375,75.447985 C38.3392857,75.3589503 38.3035714,75.2699157 38.2678571,75.163074 L36.6964286,68.6101218 L35.2142857,75.1452671 C35.1964286,75.2521087 35.1428571,75.3589503 35.1071429,75.447985 C35.0535714,75.5370197 35,75.6082474 34.9107143,75.6616682 C34.8214286,75.715089 34.7321429,75.7507029 34.6071429,75.7863168 C34.5,75.8041237 34.3571429,75.8219306 34.1964286,75.8219306 C34.0357143,75.8219306 33.8928571,75.8041237 33.7857143,75.7685098 C33.6785714,75.732896 33.5714286,75.6972821 33.5,75.6438613 C33.4285714,75.5904405 33.3571429,75.5014058 33.3035714,75.4301781 C33.25,75.3411434 33.2142857,75.2521087 33.1964286,75.1274602 L30.8571429,67.0074977 C30.8214286,66.8828491 30.8035714,66.7403936 30.8214286,66.6157451 C30.8392857,66.4910965 30.8571429,66.366448 30.9107143,66.2596064 C30.9642857,66.1527648 31.0357143,66.0459231 31.1071429,65.9568885 C31.1964286,65.8678538 31.3035714,65.814433 31.4107143,65.7610122 C31.5357143,65.7253983 31.6428571,65.7075914 31.7678571,65.7075914 C31.875,65.7253983 32,65.7610122 32.0892857,65.814433 C32.1964286,65.8678538 32.2857143,65.9568885 32.3571429,66.0459231 C32.4285714,66.1349578 32.5,66.2596064 32.5357143,66.3842549 L34.2142857,73.1686973 L35.7142857,66.4198688 C35.7678571,66.2061856 35.8571429,66.0281162 36,65.8856607 C36.1428571,65.7432052 36.3928571,65.6897844 36.7142857,65.6897844 C36.875,65.6897844 37.0178571,65.7075914 37.125,65.7432052 C37.25,65.7788191 37.3392857,65.8322399 37.4285714,65.8856607 C37.5,65.9568885 37.5714286,66.0281162 37.625,66.1171509 C37.6785714,66.2061856 37.7142857,66.3130272 37.7321429,66.4198688 L39.3214286,73.2043112 L41,66.3308341 C41.0357143,66.2239925 41.0714286,66.099344 41.1428571,66.0103093 C41.2142857,65.9212746 41.3035714,65.8500469 41.3928571,65.7966261 C41.5,65.7432052 41.5892857,65.7075914 41.7142857,65.6897844 C41.8214286,65.6719775 41.9285714,65.6897844 42.0357143,65.7253983 C42.1428571,65.7610122 42.2321429,65.8322399 42.3214286,65.9034677 C42.3928571,65.9925023 42.4642857,66.081537 42.5178571,66.1883786 C42.5714286,66.2952202 42.5892857,66.4020619 42.6071429,66.5267104 C42.625,66.651359 42.6071429,66.7582006 42.5714286,66.8828491 L40.2142857,75.1096532 C40.1785714,75.2164948 40.1428571,75.3055295 40.1071429,75.3945642 C40.0535714,75.4657919 40,75.5548266 39.9107143,75.6082474 C39.8392857,75.6616682 39.7321429,75.6972821 39.625,75.732896 C39.5714286,75.8219306 39.4285714,75.8219306 39.2678571,75.8219306 M36.7142857,67.8978444 L38.4464286,75.1274602 C38.4642857,75.2343018 38.5,75.3055295 38.5357143,75.3767573 C38.5714286,75.447985 38.6071429,75.4835989 38.6785714,75.5370197 C38.7321429,75.5904405 38.8214286,75.6082474 38.9107143,75.6438613 C39.0178571,75.6616682 39.1428571,75.6794752 39.2857143,75.6794752 C39.4285714,75.6794752 39.5535714,75.6616682 39.6428571,75.6438613 C39.7321429,75.6260544 39.8214286,75.5904405 39.875,75.5370197 C39.9285714,75.5014058 39.9821429,75.447985 40.0178571,75.3767573 C40.0535714,75.3055295 40.0892857,75.2164948 40.125,75.1274602 L42.4821429,66.900656 C42.5178571,66.7938144 42.5178571,66.7047798 42.5178571,66.5979381 C42.5,66.5089035 42.4821429,66.4020619 42.4464286,66.3308341 C42.4107143,66.2417994 42.3571429,66.1527648 42.2857143,66.099344 C42.2142857,66.0281162 42.1428571,65.9746954 42.0535714,65.9568885 C41.9642857,65.9390815 41.875,65.9212746 41.7857143,65.9390815 C41.6964286,65.9568885 41.6071429,65.9746954 41.5357143,66.0103093 C41.4642857,66.0637301 41.3928571,66.1171509 41.3392857,66.1883786 C41.2857143,66.2596064 41.25,66.366448 41.2142857,66.4554827 L39.375,73.9878163 L37.6428571,66.5445173 C37.625,66.4554827 37.5892857,66.366448 37.5535714,66.2952202 C37.5178571,66.2239925 37.4642857,66.1705717 37.4107143,66.1171509 C37.3392857,66.0637301 37.2678571,66.0281162 37.1607143,65.9925023 C37.0535714,65.9568885 36.9464286,65.9568885 36.8035714,65.9568885 C36.5178571,65.9568885 36.3214286,66.0103093 36.1964286,66.1171509 C36.0714286,66.2239925 36,66.3842549 35.9642857,66.5623243 L34.3214286,73.9700094 L32.4821429,66.5267104 C32.4464286,66.4198688 32.4107143,66.3308341 32.3392857,66.2417994 C32.2857143,66.1705717 32.1964286,66.099344 32.125,66.0459231 C32.0535714,65.9925023 31.9464286,65.9746954 31.8571429,65.9568885 C31.7678571,65.9390815 31.6607143,65.9568885 31.5714286,65.9925023 C31.4821429,66.0281162 31.3928571,66.081537 31.3214286,66.1527648 C31.25,66.2239925 31.1964286,66.2952202 31.1428571,66.3842549 C31.0892857,66.4732896 31.0714286,66.5801312 31.0535714,66.6869728 C31.0357143,66.7938144 31.0535714,66.900656 31.0892857,67.0074977 L33.4285714,75.1274602 C33.4464286,75.2343018 33.4821429,75.3055295 33.5357143,75.3945642 C33.5714286,75.4657919 33.625,75.5192127 33.6785714,75.5548266 C33.7321429,75.6082474 33.8214286,75.6260544 33.9107143,75.6616682 C34.0178571,75.6794752 34.1428571,75.6972821 34.2857143,75.6972821 C34.4285714,75.6972821 34.5535714,75.6794752 34.6607143,75.6616682 C34.75,75.6438613 34.8392857,75.6082474 34.8928571,75.5548266 C34.9464286,75.5014058 35,75.4657919 35.0357143,75.3945642 C35.0714286,75.3233365 35.1071429,75.2343018 35.125,75.1452671 L36.7142857,67.8978444 Z" id="形状" fill="#6C6E70" fill-rule="nonzero"></path>
                    <path d="M51.6607143,74.8069353 C51.6964286,75.0028116 51.6964286,75.163074 51.6428571,75.2877226 C51.5892857,75.4301781 51.5178571,75.5192127 51.4107143,75.6082474 C51.3035714,75.6794752 51.1785714,75.7507029 51.0357143,75.7685098 C50.8928571,75.8041237 50.75,75.8219306 50.5892857,75.8219306 C50.4107143,75.8219306 50.25,75.7863168 50.0892857,75.732896 C49.9464286,75.6794752 49.8035714,75.5726336 49.6964286,75.447985 C49.5892857,75.3233365 49.5,75.163074 49.4285714,74.9850047 C49.375,74.8069353 49.3392857,74.5754452 49.3392857,74.3261481 C49.1785714,74.5754452 48.9821429,74.8069353 48.7678571,74.9850047 C48.5535714,75.180881 48.3214286,75.3233365 48.0535714,75.447985 C47.8035714,75.5726336 47.5357143,75.6616682 47.25,75.732896 C46.9821429,75.7863168 46.6964286,75.8219306 46.4107143,75.8219306 C46.0178571,75.8219306 45.6428571,75.7685098 45.3035714,75.6794752 C44.9642857,75.5726336 44.6428571,75.4123711 44.3928571,75.1986879 C44.1428571,74.9850047 43.9285714,74.7000937 43.7857143,74.3617619 C43.625,74.0234302 43.5535714,73.5960637 43.5535714,73.1152765 C43.5535714,72.7413308 43.5892857,72.420806 43.6607143,72.153702 C43.7321429,71.8865979 43.8392857,71.6373008 43.9642857,71.4414246 C44.0892857,71.2455483 44.25,71.0674789 44.4285714,70.9428304 C44.6071429,70.8003749 44.8035714,70.6935333 45.0178571,70.6044986 C45.2321429,70.5154639 45.4464286,70.4264292 45.6964286,70.3730084 C45.9285714,70.3017807 46.1785714,70.2483599 46.4107143,70.1949391 C46.5892857,70.1593252 46.7678571,70.1237113 46.9821429,70.0880975 C47.1964286,70.0524836 47.4107143,70.0168697 47.6071429,69.9634489 C47.8214286,69.9278351 48.0178571,69.8744142 48.2142857,69.8209934 C48.4107143,69.7675726 48.5892857,69.678538 48.7321429,69.6073102 C48.875,69.5182755 49,69.4114339 49.0892857,69.2867854 C49.1785714,69.1621368 49.2321429,69.0018744 49.2321429,68.8238051 C49.2321429,68.4854733 49.1785714,68.2183693 49.0714286,68.022493 C48.9642857,67.8266167 48.8214286,67.6663543 48.6428571,67.5417057 C48.4642857,67.4348641 48.2678571,67.3636364 48.0535714,67.3102156 C47.8392857,67.2746017 47.6071429,67.2567948 47.3928571,67.2567948 C47.1428571,67.2567948 46.9107143,67.2746017 46.6964286,67.3102156 C46.4821429,67.3458294 46.2857143,67.4170572 46.125,67.5238988 C45.9464286,67.6129335 45.8035714,67.7553889 45.6964286,67.9156514 C45.5892857,68.0759138 45.5,68.289597 45.4464286,68.5388941 C45.4285714,68.6457357 45.375,68.7525773 45.3214286,68.841612 C45.2678571,68.9306467 45.1964286,69.0018744 45.125,69.0731022 C45.0535714,69.126523 44.9464286,69.1799438 44.8571429,69.1977507 C44.75,69.2155576 44.6607143,69.2155576 44.5535714,69.1977507 C44.4464286,69.1621368 44.3571429,69.126523 44.2857143,69.0552952 C44.2142857,69.0018744 44.1428571,68.9128397 44.0892857,68.8238051 C44.0357143,68.7347704 44,68.6279288 43.9821429,68.5210872 C43.9642857,68.4142455 43.9642857,68.3074039 43.9821429,68.2005623 C44.0714286,67.7553889 44.2321429,67.3814433 44.4464286,67.0609185 C44.6785714,66.7582006 44.9464286,66.5089035 45.2678571,66.3130272 C45.5892857,66.1171509 45.9464286,65.9746954 46.3214286,65.8856607 C46.7142857,65.7966261 47.125,65.7432052 47.5535714,65.7432052 C47.8035714,65.7432052 48.0714286,65.7610122 48.3214286,65.7966261 C48.5892857,65.814433 48.8392857,65.8678538 49.0714286,65.9390815 C49.3035714,66.0103093 49.5357143,66.1171509 49.75,66.2417994 C49.9642857,66.366448 50.1428571,66.5445173 50.3035714,66.7403936 C50.4642857,66.9362699 50.5714286,67.1677601 50.6607143,67.452671 C50.75,67.737582 50.7857143,68.0581068 50.7857143,68.4320525 L50.7857143,73.3289597 C50.7857143,73.5070291 50.7857143,73.6494845 50.7857143,73.7741331 C50.7857143,73.8987816 50.8035714,73.9878163 50.8214286,74.059044 C50.8392857,74.1302718 50.875,74.2014995 50.9285714,74.2371134 C50.9821429,74.2727273 51.0535714,74.3083411 51.1607143,74.3083411 C51.4285714,74.3261481 51.6071429,74.5042174 51.6607143,74.8069353 M46.7142857,74.3261481 C47.1607143,74.3261481 47.5535714,74.2549203 47.875,74.1302718 C48.1964286,73.9878163 48.4464286,73.809747 48.6607143,73.6138707 C48.8571429,73.4179944 49,73.1865042 49.1071429,72.9372071 C49.1964286,72.68791 49.25,72.4564199 49.25,72.2427366 L49.25,70.6757263 C49.125,70.764761 48.9821429,70.8537957 48.7857143,70.9072165 C48.6071429,70.9606373 48.3928571,71.0140581 48.1785714,71.0674789 C47.9642857,71.1208997 47.7321429,71.1565136 47.5,71.1921275 C47.2678571,71.2277413 47.0357143,71.2811621 46.8035714,71.3345829 C46.5714286,71.3880037 46.3571429,71.4592315 46.1428571,71.5482662 C45.9464286,71.6373008 45.75,71.7441425 45.5892857,71.868791 C45.4285714,71.9934396 45.3214286,72.153702 45.2142857,72.3495783 C45.125,72.5276476 45.0714286,72.7591378 45.0714286,73.0262418 C45.0714286,73.2755389 45.125,73.4892221 45.1964286,73.6672915 C45.2857143,73.8453608 45.3928571,73.9700094 45.5535714,74.076851 C45.7142857,74.1836926 45.875,74.2549203 46.0714286,74.2905342 C46.2857143,74.3083411 46.5,74.3261481 46.7142857,74.3261481" id="形状" fill="#6C6E70" fill-rule="nonzero"></path>
                    <path d="M50.5892857,75.9109653 C50.4107143,75.9109653 50.2321429,75.8753515 50.0714286,75.8219306 C49.9107143,75.7507029 49.7678571,75.6616682 49.6428571,75.5192127 C49.5178571,75.3945642 49.4285714,75.2164948 49.3571429,75.0384255 C49.3035714,74.89597 49.2857143,74.7535145 49.2678571,74.5932521 C49.125,74.7713215 48.9821429,74.9315839 48.8214286,75.0740394 C48.6071429,75.2699157 48.3571429,75.4301781 48.0892857,75.5548266 C47.8214286,75.6794752 47.5535714,75.7863168 47.2678571,75.8397376 C46.5892857,75.9821931 45.875,75.9465792 45.2678571,75.7863168 C44.9107143,75.6794752 44.5892857,75.5192127 44.3214286,75.2877226 C44.0535714,75.0562324 43.8392857,74.7713215 43.6785714,74.4151828 C43.5178571,74.059044 43.4464286,73.6316776 43.4464286,73.1330834 C43.4464286,72.7591378 43.4821429,72.420806 43.5535714,72.153702 C43.625,71.868791 43.7321429,71.6194939 43.875,71.4236176 C44.0178571,71.2099344 44.1785714,71.031865 44.3571429,70.9072165 C44.5357143,70.764761 44.75,70.6401125 44.9642857,70.5510778 C45.1785714,70.4620431 45.4107143,70.3730084 45.6428571,70.3195876 C45.875,70.2483599 46.125,70.1949391 46.375,70.1415183 C46.5535714,70.1059044 46.75,70.0702905 46.9464286,70.0346767 C47.1607143,69.9990628 47.375,69.9634489 47.5714286,69.9278351 C47.7678571,69.8922212 47.9821429,69.8388004 48.1785714,69.7853796 C48.375,69.7319588 48.5357143,69.660731 48.6785714,69.5716963 C48.8214286,69.5004686 48.9285714,69.393627 49.0178571,69.2689784 C49.0892857,69.1621368 49.1428571,69.0196813 49.1428571,68.8594189 C49.1428571,68.5388941 49.0892857,68.289597 48.9821429,68.0937207 C48.875,67.8978444 48.75,67.7553889 48.5892857,67.6663543 C48.4285714,67.5595127 48.2321429,67.4882849 48.0357143,67.452671 C47.5714286,67.3814433 47.1071429,67.3814433 46.7142857,67.452671 C46.5,67.4882849 46.3214286,67.5595127 46.1607143,67.6485473 C46,67.737582 45.8571429,67.8622306 45.75,68.022493 C45.6428571,68.1827554 45.5535714,68.3786317 45.5,68.6279288 C45.4821429,68.7525773 45.4285714,68.8594189 45.3571429,68.9484536 C45.3035714,69.0552952 45.2142857,69.126523 45.125,69.1977507 C45.0357143,69.2689784 44.9285714,69.3045923 44.8214286,69.3402062 C44.7142857,69.3580131 44.6071429,69.3580131 44.4821429,69.3402062 C44.375,69.3223993 44.2678571,69.2689784 44.1785714,69.1977507 C44.0892857,69.126523 44.0178571,69.0374883 43.9642857,68.9484536 C43.9107143,68.8594189 43.8571429,68.7347704 43.8392857,68.6279288 C43.8214286,68.5210872 43.8214286,68.3964386 43.8392857,68.2717901 C43.9285714,67.8266167 44.0892857,67.4348641 44.3214286,67.1143393 C44.5535714,66.7938144 44.8392857,66.5445173 45.1607143,66.348641 C45.4821429,66.1527648 45.8571429,66.0103093 46.25,65.9212746 C46.875,65.7788191 47.5714286,65.7610122 48.2678571,65.8322399 C48.5357143,65.8500469 48.7857143,65.9034677 49.0357143,65.9925023 C49.2857143,66.0637301 49.5178571,66.1705717 49.7321429,66.2952202 C49.9464286,66.4376757 50.1428571,66.5979381 50.3035714,66.8116214 C50.4642857,67.0074977 50.5892857,67.2746017 50.6785714,67.5595127 C50.7678571,67.8444236 50.8214286,68.1827554 50.8214286,68.574508 L50.8214286,73.4714152 C50.8214286,73.6494845 50.8214286,73.79194 50.8214286,73.9165886 C50.8214286,74.0234302 50.8392857,74.1124649 50.8571429,74.1836926 C50.875,74.2371134 50.9107143,74.2905342 50.9464286,74.3083411 C50.9821429,74.343955 51.0535714,74.3617619 51.1428571,74.3617619 C51.4642857,74.3795689 51.6607143,74.5932521 51.7321429,74.9315839 C51.7678571,75.1452671 51.75,75.3233365 51.6964286,75.4657919 C51.6428571,75.6082474 51.5535714,75.732896 51.4285714,75.8219306 C51.3214286,75.8931584 51.1785714,75.9643861 51.0178571,76 C50.8928571,75.8931584 50.7321429,75.9109653 50.5892857,75.9109653 M49.4107143,74.059044 L49.4107143,74.3261481 C49.4107143,74.5754452 49.4464286,74.7713215 49.5,74.9671978 C49.5714286,75.1452671 49.6428571,75.2877226 49.75,75.4123711 C49.8571429,75.5192127 49.9821429,75.6082474 50.1071429,75.6794752 C50.375,75.7863168 50.6785714,75.7863168 51,75.715089 C51.125,75.6972821 51.25,75.6438613 51.3571429,75.5726336 C51.4464286,75.5014058 51.5178571,75.4123711 51.5714286,75.3055295 C51.625,75.1986879 51.625,75.0384255 51.5892857,74.8603561 C51.5357143,74.5754452 51.3928571,74.4329897 51.1428571,74.4151828 C51.0357143,74.3973758 50.9285714,74.3795689 50.875,74.3261481 C50.8035714,74.2727273 50.7678571,74.2193065 50.7321429,74.1124649 C50.7142857,74.0412371 50.6964286,73.9165886 50.6964286,73.809747 C50.6964286,73.6850984 50.6964286,73.5426429 50.6964286,73.3645736 L50.6964286,68.4676664 C50.6964286,68.0937207 50.6428571,67.7731959 50.5714286,67.5060918 C50.4821429,67.2389878 50.375,67.0074977 50.2142857,66.8116214 C50.0714286,66.6157451 49.8928571,66.4554827 49.6964286,66.348641 C49.5,66.2239925 49.2678571,66.1171509 49.0535714,66.0459231 C48.8214286,65.9746954 48.5714286,65.9212746 48.3214286,65.9034677 C47.6428571,65.8322399 46.9642857,65.8500469 46.3571429,65.9925023 C45.9642857,66.081537 45.625,66.2239925 45.3214286,66.4020619 C45.0178571,66.5801312 44.75,66.8294283 44.5178571,67.1321462 C44.3035714,67.4348641 44.1428571,67.8088097 44.0714286,68.2361762 C44.0535714,68.3430178 44.0535714,68.4320525 44.0535714,68.5388941 C44.0714286,68.6457357 44.1071429,68.7347704 44.1607143,68.8059981 C44.2142857,68.8772259 44.2678571,68.9484536 44.3392857,69.0196813 C44.4107143,69.0731022 44.5,69.108716 44.5892857,69.1443299 C44.6607143,69.1621368 44.7678571,69.1621368 44.8571429,69.1443299 C44.9464286,69.126523 45.0357143,69.0909091 45.0892857,69.0374883 C45.1607143,68.9840675 45.2321429,68.9128397 45.2678571,68.841612 C45.3214286,68.7703843 45.3571429,68.6635426 45.375,68.556701 C45.4285714,68.289597 45.5178571,68.0759138 45.6428571,67.8978444 C45.7678571,67.7197751 45.9285714,67.5773196 46.0892857,67.470478 C46.2678571,67.3636364 46.4642857,67.2924086 46.6964286,67.2567948 C47.125,67.185567 47.6071429,67.185567 48.0892857,67.2567948 C48.3214286,67.2924086 48.5357143,67.3814433 48.7142857,67.4882849 C48.8928571,67.6129335 49.0535714,67.7731959 49.1607143,67.9868791 C49.2678571,68.2005623 49.3392857,68.4854733 49.3392857,68.8238051 C49.3392857,69.0196813 49.2857143,69.1799438 49.1785714,69.3223993 C49.0892857,69.4648547 48.9464286,69.5895033 48.7857143,69.678538 C48.625,69.7675726 48.4464286,69.8388004 48.25,69.9100281 C48.0535714,69.9634489 47.8392857,70.0168697 47.6428571,70.0524836 C47.4285714,70.1059044 47.2142857,70.1237113 47,70.1593252 C46.7857143,70.1949391 46.6071429,70.230553 46.4285714,70.2661668 C46.1964286,70.3195876 45.9464286,70.3730084 45.7142857,70.4442362 C45.4821429,70.5154639 45.2678571,70.5866917 45.0535714,70.6757263 C44.8571429,70.764761 44.6607143,70.8716026 44.4821429,70.9962512 C44.3035714,71.1208997 44.1607143,71.2989691 44.0357143,71.4770384 C43.9107143,71.6729147 43.8035714,71.9044049 43.7321429,72.1715089 C43.6607143,72.4386129 43.625,72.7591378 43.625,73.1152765 C43.625,73.5960637 43.6964286,74.0056232 43.8392857,74.3261481 C43.9821429,74.6644799 44.1785714,74.9315839 44.4285714,75.1452671 C44.6785714,75.3589503 44.9821429,75.5014058 45.3214286,75.6082474 C45.9107143,75.7863168 46.5892857,75.8041237 47.25,75.6616682 C47.5178571,75.6082474 47.7857143,75.5014058 48.0357143,75.3945642 C48.2857143,75.2699157 48.5178571,75.1096532 48.7321429,74.9315839 C48.9464286,74.7535145 49.125,74.5398313 49.2857143,74.2905342 L49.4107143,74.059044 Z M46.7142857,74.4151828 C46.5,74.4151828 46.2857143,74.3973758 46.0714286,74.343955 C45.875,74.2905342 45.6785714,74.2193065 45.5178571,74.1124649 C45.3571429,74.0056232 45.2321429,73.8453608 45.1428571,73.6672915 C45.0535714,73.4892221 45,73.2755389 45,72.9906279 C45,72.7235239 45.0535714,72.4742268 45.1428571,72.2783505 C45.2321429,72.0824742 45.375,71.9222118 45.5357143,71.7797563 C45.6964286,71.6373008 45.8928571,71.5304592 46.1071429,71.4592315 C46.3214286,71.3701968 46.5357143,71.2989691 46.7678571,71.2455483 C47,71.1921275 47.2321429,71.1387067 47.4642857,71.1030928 C47.6964286,71.0674789 47.9285714,71.0140581 48.1428571,70.9784442 C48.3571429,70.9250234 48.5535714,70.8894096 48.7321429,70.8181818 C48.9107143,70.764761 49.0535714,70.6935333 49.1607143,70.6044986 L49.2857143,70.497657 L49.2857143,72.2249297 C49.2857143,72.4564199 49.2321429,72.68791 49.1428571,72.9550141 C49.0357143,73.2043112 48.8928571,73.4358013 48.6785714,73.6494845 C48.4642857,73.8631678 48.1964286,74.0412371 47.875,74.1836926 C47.5714286,74.343955 47.1785714,74.4151828 46.7142857,74.4151828 M49.1607143,70.8181818 C49.0535714,70.8894096 48.9285714,70.9250234 48.8035714,70.9784442 C48.625,71.031865 48.4107143,71.0852858 48.1964286,71.1387067 C47.9821429,71.1921275 47.75,71.2277413 47.5,71.2633552 C47.2678571,71.2989691 47.0357143,71.3523899 46.8035714,71.4058107 C46.5892857,71.4592315 46.3571429,71.5304592 46.1607143,71.601687 C45.9642857,71.6907216 45.7857143,71.7797563 45.6428571,71.9044049 C45.5,72.0290534 45.375,72.1715089 45.3035714,72.3495783 C45.2142857,72.5276476 45.1607143,72.7413308 45.1607143,72.9906279 C45.1607143,73.2221181 45.1964286,73.4358013 45.2857143,73.5960637 C45.3571429,73.7563261 45.4821429,73.8809747 45.6071429,73.9700094 C45.75,74.059044 45.9107143,74.1480787 46.0892857,74.1836926 C46.2857143,74.2371134 46.4821429,74.2371134 46.6964286,74.2371134 C47.1428571,74.2371134 47.5178571,74.1836926 47.8214286,74.0412371 C48.125,73.8987816 48.375,73.7385192 48.5714286,73.5426429 C48.7678571,73.3467666 48.9107143,73.1152765 49,72.8837863 C49.0892857,72.6522962 49.1428571,72.420806 49.1428571,72.2249297 L49.1428571,70.8181818 L49.1607143,70.8181818 Z" id="形状" fill="#6C6E70" fill-rule="nonzero"></path>
                    <path d="M54.3928571,74.89597 C54.3928571,75.0206186 54.375,75.1452671 54.3392857,75.2343018 C54.3035714,75.3411434 54.25,75.4301781 54.1785714,75.5014058 C54.1071429,75.5726336 54.0357143,75.6260544 53.9464286,75.6794752 C53.8571429,75.715089 53.75,75.732896 53.6428571,75.732896 C53.5357143,75.732896 53.4464286,75.715089 53.3392857,75.6794752 C53.25,75.6260544 53.1607143,75.5904405 53.0892857,75.5014058 C53.0178571,75.4301781 52.9642857,75.3411434 52.9285714,75.2343018 C52.8928571,75.1274602 52.875,75.0206186 52.875,74.89597 L52.875,63.054358 C52.875,62.9297095 52.8928571,62.8228679 52.9285714,62.7160262 C52.9642857,62.6091846 53.0178571,62.52015 53.0892857,62.4489222 C53.1607143,62.3776945 53.2321429,62.3242737 53.3392857,62.2708529 C53.4285714,62.235239 53.5357143,62.2174321 53.6428571,62.2174321 C53.75,62.2174321 53.8392857,62.235239 53.9464286,62.2708529 C54.0357143,62.3064667 54.125,62.3598875 54.1785714,62.4489222 C54.25,62.52015 54.3035714,62.6091846 54.3392857,62.7160262 C54.375,62.8228679 54.3928571,62.9297095 54.3928571,63.0721649 L54.3928571,74.89597 Z" id="路径" fill="#6C6E70" fill-rule="nonzero"></path>
                    <path d="M53.6428571,75.8219306 C53.5357143,75.8219306 53.4107143,75.8041237 53.3214286,75.7507029 C53.2142857,75.6972821 53.125,75.6438613 53.0535714,75.5548266 C52.9821429,75.4835989 52.9285714,75.3767573 52.875,75.2699157 C52.8214286,75.163074 52.8035714,75.0384255 52.8035714,74.89597 L52.8035714,63.054358 C52.8035714,62.9119025 52.8214286,62.8050609 52.875,62.6804124 C52.9285714,62.5735708 52.9821429,62.4667291 53.0535714,62.3776945 C53.125,62.2886598 53.2321429,62.235239 53.3214286,62.1818182 C53.5178571,62.0927835 53.7678571,62.0927835 53.9642857,62.1818182 C54.0714286,62.235239 54.1607143,62.2886598 54.2321429,62.3776945 C54.3035714,62.4489222 54.375,62.5557638 54.4107143,62.6626054 C54.4642857,62.787254 54.4821429,62.9119025 54.4821429,63.0365511 L54.4821429,74.8781631 C54.4821429,75.0206186 54.4642857,75.1452671 54.4107143,75.2521087 C54.3571429,75.3589503 54.3035714,75.4657919 54.2321429,75.5370197 C54.1607143,75.6260544 54.0535714,75.6794752 53.9642857,75.732896 C53.8571429,75.8041237 53.75,75.8219306 53.6428571,75.8219306 M53.6428571,62.2886598 C53.5535714,62.2886598 53.4642857,62.3064667 53.375,62.3420806 C53.2857143,62.3776945 53.2142857,62.4311153 53.1607143,62.4845361 C53.1071429,62.5557638 53.0535714,62.6269916 53.0178571,62.7338332 C52.9821429,62.8228679 52.9642857,62.9297095 52.9642857,63.0365511 L52.9642857,74.8781631 C52.9642857,75.0028116 52.9821429,75.1096532 53.0178571,75.1986879 C53.0535714,75.2877226 53.1071429,75.3767573 53.1607143,75.4301781 C53.2142857,75.5014058 53.2857143,75.5370197 53.375,75.5904405 C53.5357143,75.6616682 53.7321429,75.6616682 53.8928571,75.5904405 C53.9642857,75.5548266 54.0535714,75.5014058 54.1071429,75.447985 C54.1785714,75.3767573 54.2142857,75.3055295 54.25,75.2164948 C54.2857143,75.1096532 54.3035714,75.0206186 54.3035714,74.89597 L54.3035714,63.054358 C54.3035714,62.9475164 54.2857143,62.8228679 54.25,62.7338332 C54.2142857,62.6447985 54.1607143,62.5557638 54.1071429,62.502343 C54.0535714,62.4311153 53.9642857,62.3955014 53.8928571,62.3598875 C53.8214286,62.3242737 53.7321429,62.2886598 53.6428571,62.2886598" id="形状" fill="#6C6E70" fill-rule="nonzero"></path>
                    <path d="M58.0714286,74.89597 C58.0714286,75.0206186 58.0535714,75.1452671 58.0178571,75.2343018 C57.9821429,75.3411434 57.9285714,75.4301781 57.8571429,75.5014058 C57.7857143,75.5726336 57.7142857,75.6260544 57.6071429,75.6794752 C57.5178571,75.715089 57.4285714,75.732896 57.3214286,75.732896 C57.2142857,75.732896 57.125,75.715089 57.0178571,75.6794752 C56.9285714,75.6260544 56.8392857,75.5904405 56.7678571,75.5014058 C56.6964286,75.4301781 56.6428571,75.3411434 56.6071429,75.2343018 C56.5714286,75.1274602 56.5535714,75.0206186 56.5535714,74.89597 L56.5535714,63.054358 C56.5535714,62.9297095 56.5714286,62.8228679 56.6071429,62.7160262 C56.6428571,62.6091846 56.6964286,62.52015 56.7678571,62.4489222 C56.8392857,62.3776945 56.9107143,62.3242737 57.0178571,62.2708529 C57.1071429,62.235239 57.2142857,62.2174321 57.3214286,62.2174321 C57.4285714,62.2174321 57.5178571,62.235239 57.6071429,62.2708529 C57.6964286,62.3064667 57.7857143,62.3598875 57.8571429,62.4489222 C57.9285714,62.52015 57.9821429,62.6091846 58.0178571,62.7160262 C58.0535714,62.8228679 58.0714286,62.9297095 58.0714286,63.0721649 L58.0714286,74.89597 Z" id="路径" fill="#6C6E70" fill-rule="nonzero"></path>
                    <path d="M57.3214286,75.8219306 C57.2142857,75.8219306 57.0892857,75.8041237 57,75.7507029 C56.8928571,75.6972821 56.8035714,75.6438613 56.7321429,75.5548266 C56.6607143,75.4835989 56.6071429,75.3767573 56.5535714,75.2699157 C56.5,75.163074 56.4821429,75.0384255 56.4821429,74.89597 L56.4821429,63.054358 C56.4821429,62.9119025 56.5,62.8050609 56.5535714,62.6804124 C56.6071429,62.5735708 56.6607143,62.4667291 56.7321429,62.3776945 C56.8035714,62.2886598 56.9107143,62.235239 57,62.1818182 C57.1964286,62.0927835 57.4464286,62.0927835 57.6428571,62.1818182 C57.75,62.235239 57.8392857,62.2886598 57.9107143,62.3776945 C57.9821429,62.4489222 58.0535714,62.5557638 58.0892857,62.6626054 C58.1428571,62.787254 58.1607143,62.9119025 58.1607143,63.0365511 L58.1607143,74.8781631 C58.1607143,75.0206186 58.1428571,75.1452671 58.0892857,75.2521087 C58.0357143,75.3589503 57.9821429,75.4657919 57.9107143,75.5370197 C57.8392857,75.6260544 57.7321429,75.6794752 57.6428571,75.732896 C57.5357143,75.8041237 57.4285714,75.8219306 57.3214286,75.8219306 M57.3214286,62.2886598 C57.2321429,62.2886598 57.1428571,62.3064667 57.0535714,62.3420806 C56.9821429,62.3776945 56.9107143,62.4311153 56.8392857,62.4845361 C56.7857143,62.5557638 56.7321429,62.6269916 56.6964286,62.7338332 C56.6607143,62.8228679 56.6428571,62.9297095 56.6428571,63.0365511 L56.6428571,74.8781631 C56.6428571,75.0028116 56.6607143,75.1096532 56.6964286,75.1986879 C56.7321429,75.2877226 56.7857143,75.3767573 56.8392857,75.4301781 C56.8928571,75.5014058 56.9821429,75.5370197 57.0535714,75.5904405 C57.2142857,75.6616682 57.4107143,75.6616682 57.5714286,75.5904405 C57.6607143,75.5548266 57.7321429,75.5014058 57.7857143,75.447985 C57.8392857,75.3767573 57.8928571,75.3055295 57.9285714,75.2164948 C57.9642857,75.1096532 57.9821429,75.0206186 57.9821429,74.89597 L57.9821429,63.054358 C57.9821429,62.9475164 57.9642857,62.8228679 57.9285714,62.7338332 C57.8928571,62.6447985 57.8392857,62.5557638 57.7857143,62.502343 C57.7142857,62.4311153 57.6428571,62.3955014 57.5714286,62.3598875 C57.5,62.3242737 57.4107143,62.2886598 57.3214286,62.2886598" id="形状" fill="#6C6E70" fill-rule="nonzero"></path>
                    <path d="M61.25,71.2811621 C61.25,71.7085286 61.3035714,72.1002812 61.4107143,72.4564199 C61.5178571,72.8125586 61.6785714,73.1508903 61.8928571,73.4179944 C62.1071429,73.7029053 62.3928571,73.9165886 62.7142857,74.076851 C63.0357143,74.2371134 63.4285714,74.3261481 63.875,74.3261481 C64.3571429,74.3261481 64.7678571,74.2014995 65.1428571,73.9700094 C65.5,73.7385192 65.7678571,73.3645736 65.9464286,72.8659794 C66.0178571,72.6344892 66.1428571,72.4742268 66.3214286,72.4029991 C66.5,72.3317713 66.6785714,72.3139644 66.875,72.4029991 C66.9642857,72.4386129 67.0535714,72.5098407 67.125,72.5810684 C67.1964286,72.6522962 67.25,72.7413308 67.2857143,72.8303655 C67.3214286,72.9194002 67.3392857,73.0262418 67.3392857,73.1330834 C67.3392857,73.239925 67.3214286,73.3467666 67.2857143,73.4536082 C67.1428571,73.8453608 66.9642857,74.2014995 66.7321429,74.4864105 C66.5178571,74.7891284 66.25,75.0384255 65.9642857,75.2343018 C65.6607143,75.4301781 65.3392857,75.5904405 64.9821429,75.6794752 C64.625,75.7863168 64.25,75.8397376 63.8392857,75.8397376 C63.1428571,75.8397376 62.5357143,75.715089 62.0357143,75.447985 C61.5178571,75.1986879 61.1071429,74.8425492 60.7678571,74.3973758 C60.4285714,73.9522024 60.1607143,73.4179944 60,72.7947516 C59.8214286,72.1715089 59.7321429,71.4948454 59.7142857,70.7469541 C59.7142857,70.0346767 59.8214286,69.3580131 60.0178571,68.7525773 C60.2142857,68.1471415 60.4821429,67.6129335 60.8392857,67.1677601 C61.1964286,66.7225867 61.625,66.366448 62.125,66.1171509 C62.625,65.8678538 63.1785714,65.7432052 63.7678571,65.7432052 C64.2321429,65.7432052 64.6428571,65.814433 65.0178571,65.9390815 C65.3928571,66.0637301 65.7142857,66.2417994 66.0178571,66.4554827 C66.3035714,66.6869728 66.5535714,66.9362699 66.7678571,67.2389878 C66.9821429,67.5417057 67.1428571,67.8622306 67.2857143,68.2183693 C67.4285714,68.574508 67.5178571,68.9484536 67.5892857,69.3402062 C67.6607143,69.7319588 67.6785714,70.1059044 67.6785714,70.5154639 C67.6785714,70.6223055 67.6607143,70.7291471 67.625,70.8181818 C67.5892857,70.9072165 67.5357143,70.9962512 67.4642857,71.0674789 C67.3928571,71.1387067 67.3214286,71.1921275 67.2321429,71.2455483 C67.1428571,71.2989691 67.0535714,71.2989691 66.9464286,71.2989691 L61.25,71.2989691 L61.25,71.2811621 Z M63.6428571,67.2389878 C63.2857143,67.2389878 62.9642857,67.3102156 62.6785714,67.4348641 C62.3928571,67.5773196 62.1428571,67.7553889 61.9464286,67.9868791 C61.75,68.2183693 61.5714286,68.5032802 61.4642857,68.8059981 C61.3392857,69.126523 61.2678571,69.4470478 61.25,69.8209934 L66.0535714,69.8209934 C66.0535714,69.4292409 66,69.0731022 65.8928571,68.7525773 C65.7857143,68.4320525 65.625,68.1649485 65.4107143,67.9334583 C65.2142857,67.7019681 64.9464286,67.5417057 64.6607143,67.4170572 C64.3571429,67.2924086 64.0178571,67.2389878 63.6428571,67.2389878" id="形状" fill="#6C6E70" fill-rule="nonzero"></path>
                    <path d="M63.8214286,75.9109653 C63.125,75.9109653 62.5,75.7863168 61.9821429,75.5192127 C61.4642857,75.2521087 61.0178571,74.89597 60.6785714,74.4329897 C60.3392857,73.9878163 60.0714286,73.4179944 59.8928571,72.7947516 C59.7142857,72.1715089 59.625,71.4770384 59.5892857,70.7291471 C59.5892857,69.9990628 59.6964286,69.3223993 59.8928571,68.6991565 C60.0892857,68.0937207 60.375,67.5417057 60.7321429,67.0965323 C61.0892857,66.651359 61.5357143,66.2952202 62.0357143,66.0281162 C62.5357143,65.7788191 63.1071429,65.6363636 63.7142857,65.6363636 C64.1785714,65.6363636 64.6071429,65.6897844 65,65.8322399 C65.375,65.9568885 65.7321429,66.1349578 66.0178571,66.366448 C66.3214286,66.5979381 66.5714286,66.8650422 66.7857143,67.1677601 C67,67.470478 67.1785714,67.8088097 67.3035714,68.1649485 C67.4464286,68.5210872 67.5357143,68.8950328 67.6071429,69.2867854 C67.6785714,69.678538 67.6964286,70.0702905 67.6964286,70.4620431 C67.6964286,70.5866917 67.6785714,70.6935333 67.6428571,70.8003749 C67.5892857,70.9072165 67.5357143,70.9962512 67.4642857,71.0674789 C67.3928571,71.1387067 67.3035714,71.2099344 67.2142857,71.2633552 C67.1071429,71.316776 67,71.3345829 66.8928571,71.3345829 L61.3214286,71.3345829 C61.3214286,71.7085286 61.375,72.0824742 61.4821429,72.4029991 C61.5892857,72.7591378 61.75,73.0796626 61.9464286,73.3467666 C62.1607143,73.6138707 62.4285714,73.8275539 62.75,73.9700094 C63.0714286,74.1302718 63.4464286,74.2014995 63.875,74.2014995 C64.3392857,74.2014995 64.75,74.0946579 65.0892857,73.8631678 C65.4285714,73.6494845 65.6964286,73.2933458 65.8571429,72.7947516 C65.9464286,72.5454545 66.0892857,72.3851921 66.2678571,72.2783505 C66.4642857,72.1893158 66.6607143,72.1893158 66.875,72.2783505 C66.9821429,72.3139644 67.0714286,72.3851921 67.1428571,72.4564199 C67.2142857,72.5276476 67.2857143,72.6344892 67.3214286,72.7235239 C67.3571429,72.8303655 67.3928571,72.9372071 67.3928571,73.0440487 C67.3928571,73.1508903 67.375,73.2755389 67.3392857,73.3823805 C67.1964286,73.7741331 67,74.1480787 66.7678571,74.4507966 C66.5357143,74.7535145 66.2678571,75.0028116 65.9642857,75.2164948 C65.6607143,75.4123711 65.3214286,75.5726336 64.9642857,75.6794752 C64.625,75.8575445 64.2321429,75.9109653 63.8214286,75.9109653 M63.7321429,65.8322399 C63.1428571,65.8322399 62.6071429,65.9568885 62.125,66.2061856 C61.6428571,66.4554827 61.2142857,66.7938144 60.875,67.2211809 C60.5178571,67.6485473 60.25,68.1827554 60.0535714,68.7703843 C59.8571429,69.3758201 59.7678571,70.0346767 59.7678571,70.7469541 C59.7857143,71.4770384 59.875,72.153702 60.0535714,72.7591378 C60.2321429,73.3645736 60.4821429,73.8987816 60.8214286,74.343955 C61.1428571,74.7891284 61.5714286,75.1274602 62.0714286,75.3767573 C62.5714286,75.6260544 63.1607143,75.7507029 63.8392857,75.7507029 C64.2321429,75.7507029 64.6071429,75.6972821 64.9642857,75.6082474 C65.3035714,75.5014058 65.625,75.3589503 65.9107143,75.163074 C66.1964286,74.9671978 66.4464286,74.7179007 66.6607143,74.4329897 C66.875,74.1480787 67.0535714,73.809747 67.1964286,73.4179944 C67.2321429,73.3289597 67.25,73.2221181 67.25,73.1330834 C67.25,73.0440487 67.2321429,72.9550141 67.1964286,72.8659794 C67.1607143,72.7769447 67.125,72.705717 67.0535714,72.6344892 C66.9821429,72.5632615 66.9107143,72.5276476 66.8214286,72.4920337 C66.6428571,72.420806 66.5,72.420806 66.3392857,72.4920337 C66.1964286,72.5632615 66.0714286,72.705717 66.0178571,72.9194002 C65.8392857,73.4358013 65.5535714,73.8275539 65.1785714,74.059044 C64.8035714,74.2905342 64.375,74.4151828 63.875,74.4151828 C63.4285714,74.4151828 63.0178571,74.3261481 62.6785714,74.1658857 C62.3392857,74.0056232 62.0535714,73.7741331 61.8214286,73.4892221 C61.5892857,73.2043112 61.4285714,72.8837863 61.3214286,72.5098407 C61.2142857,72.135895 61.1607143,71.7263355 61.1607143,71.316776 L61.1607143,71.2455483 L66.8928571,71.2455483 C66.9821429,71.2455483 67.0714286,71.2277413 67.1428571,71.1921275 C67.2142857,71.1565136 67.2857143,71.1030928 67.3571429,71.049672 C67.4107143,70.9784442 67.4642857,70.9072165 67.5,70.8181818 C67.5357143,70.7291471 67.5535714,70.6401125 67.5535714,70.5332709 C67.5535714,70.1415183 67.5178571,69.7675726 67.4642857,69.3758201 C67.3928571,69.0018744 67.3035714,68.6279288 67.1785714,68.2717901 C67.0535714,67.9334583 66.875,67.5951265 66.6607143,67.3102156 C66.4642857,67.0074977 66.2142857,66.7582006 65.9285714,66.5445173 C65.6428571,66.3308341 65.3214286,66.1527648 64.9642857,66.0281162 C64.5892857,65.8856607 64.1785714,65.8322399 63.7321429,65.8322399 M66.125,69.8922212 L61.1607143,69.8922212 L61.1607143,69.8209934 C61.1785714,69.4648547 61.2678571,69.108716 61.3928571,68.7881912 C61.5178571,68.4676664 61.6785714,68.1827554 61.8928571,67.9512652 C62.1071429,67.7019681 62.3571429,67.5060918 62.6607143,67.3636364 C62.9642857,67.2211809 63.2857143,67.1499531 63.6607143,67.1499531 C64.0357143,67.1499531 64.375,67.2211809 64.6785714,67.3458294 C64.9821429,67.470478 65.25,67.6485473 65.4642857,67.8800375 C65.6785714,68.1115276 65.8392857,68.3964386 65.9642857,68.7169634 C66.0714286,69.0374883 66.1428571,69.4114339 66.1428571,69.8209934 L66.1428571,69.8922212 L66.125,69.8922212 Z M61.3392857,69.7497657 L65.9821429,69.7497657 C65.9642857,69.393627 65.9285714,69.0731022 65.8214286,68.7881912 C65.7142857,68.4854733 65.5535714,68.2183693 65.3571429,67.9868791 C65.1607143,67.7731959 64.9107143,67.5951265 64.625,67.4882849 C64.3392857,67.3636364 64.0178571,67.3102156 63.6607143,67.3102156 C63.3214286,67.3102156 63,67.3814433 62.7321429,67.5060918 C62.4642857,67.6307404 62.2142857,67.8088097 62.0178571,68.0402999 C61.8214286,68.2717901 61.6607143,68.5388941 61.5357143,68.841612 C61.4285714,69.126523 61.3571429,69.4292409 61.3392857,69.7497657" id="形状" fill="#6C6E70" fill-rule="nonzero"></path>
                    <path d="M70.9821429,65.9568885 L72.0357143,65.9568885 C72.1428571,65.9568885 72.2321429,65.9746954 72.3214286,66.0281162 C72.3928571,66.0637301 72.4821429,66.1171509 72.5357143,66.1883786 C72.5892857,66.2596064 72.6428571,66.3308341 72.6785714,66.4198688 C72.7142857,66.5089035 72.7321429,66.6157451 72.7321429,66.7225867 C72.7321429,66.8294283 72.7142857,66.918463 72.6785714,67.0253046 C72.6428571,67.1143393 72.6071429,67.2033739 72.5357143,67.2746017 C72.4821429,67.3458294 72.3928571,67.3992502 72.3214286,67.4348641 C72.2321429,67.470478 72.1428571,67.4882849 72.0357143,67.4882849 L70.9821429,67.4882849 L70.9821429,73.3111528 C70.9821429,73.5426429 71.0178571,73.7207123 71.0892857,73.8453608 C71.1607143,73.9878163 71.25,74.076851 71.3571429,74.1480787 C71.4642857,74.2193065 71.6071429,74.2549203 71.75,74.2549203 C71.9107143,74.2727273 72.0714286,74.2549203 72.2321429,74.2371134 C72.3392857,74.2193065 72.4285714,74.2371134 72.5178571,74.2549203 C72.6071429,74.2727273 72.6785714,74.3261481 72.75,74.3795689 C72.8214286,74.4329897 72.8571429,74.5220244 72.9107143,74.5932521 C72.9464286,74.6822868 72.9642857,74.7713215 72.9821429,74.8781631 C73,75.0918463 72.9642857,75.2699157 72.8392857,75.4123711 C72.7321429,75.5726336 72.5714286,75.6438613 72.3571429,75.6794752 C71.9107143,75.732896 71.5,75.732896 71.1428571,75.6616682 C70.7857143,75.5904405 70.4821429,75.4657919 70.2321429,75.2699157 C69.9821429,75.0740394 69.7857143,74.8247423 69.6607143,74.5042174 C69.5357143,74.1836926 69.4642857,73.809747 69.4642857,73.3467666 L69.4642857,67.452671 L68.6607143,67.452671 C68.5535714,67.452671 68.4642857,67.4348641 68.3928571,67.3992502 C68.3035714,67.3636364 68.2321429,67.2924086 68.1785714,67.2389878 C68.125,67.1677601 68.0714286,67.0787254 68.0357143,66.9896907 C68,66.900656 67.9821429,66.7938144 67.9821429,66.6869728 C67.9821429,66.5801312 68,66.4910965 68.0357143,66.3842549 C68.0714286,66.2952202 68.1071429,66.2061856 68.1785714,66.1527648 C68.2321429,66.081537 68.3035714,66.0281162 68.3928571,65.9925023 C68.4821429,65.9390815 68.5714286,65.9212746 68.6607143,65.9212746 L69.4642857,65.9212746 L69.4642857,63.7844424 C69.4642857,63.6597938 69.4821429,63.5529522 69.5178571,63.4461106 C69.5535714,63.339269 69.6071429,63.2502343 69.6785714,63.1790066 C69.75,63.1077788 69.8214286,63.054358 69.9285714,63.0009372 C70.0178571,62.9653233 70.125,62.9475164 70.2321429,62.9475164 C70.3392857,62.9475164 70.4285714,62.9653233 70.5357143,63.0009372 C70.625,63.0365511 70.7142857,63.1077788 70.7678571,63.1790066 C70.8392857,63.2502343 70.8928571,63.339269 70.9285714,63.4461106 C70.9642857,63.5529522 70.9821429,63.6597938 70.9821429,63.8022493 L70.9821429,65.9568885 L70.9821429,65.9568885 Z" id="路径" fill="#6C6E70" fill-rule="nonzero"></path>
                    <path d="M71.7678571,75.8219306 C71.5357143,75.8219306 71.3214286,75.8041237 71.125,75.7685098 C70.75,75.6972821 70.4464286,75.5726336 70.1785714,75.3589503 C69.9107143,75.163074 69.7142857,74.89597 69.5892857,74.5576382 C69.4464286,74.2371134 69.3928571,73.8275539 69.3928571,73.3823805 L69.3928571,67.5773196 L68.6785714,67.5773196 C68.5714286,67.5773196 68.4642857,67.5595127 68.375,67.5060918 C68.2857143,67.452671 68.1964286,67.3992502 68.125,67.3280225 C68.0535714,67.2567948 68.0178571,67.1499531 67.9642857,67.0609185 C67.9285714,66.9718838 67.9107143,66.8472352 67.9107143,66.7403936 C67.9107143,66.6157451 67.9285714,66.5089035 67.9642857,66.4198688 C68,66.3308341 68.0535714,66.2417994 68.125,66.1527648 C68.1964286,66.081537 68.2678571,66.0103093 68.3571429,65.9746954 C68.4464286,65.9390815 68.5535714,65.9034677 68.6607143,65.9034677 L69.375,65.9034677 L69.375,63.8556701 C69.375,63.7132146 69.3928571,63.5885661 69.4464286,63.4817245 C69.5,63.3748828 69.5535714,63.2680412 69.625,63.1790066 C69.6964286,63.0899719 69.8035714,63.0365511 69.8928571,62.9831303 C70.0892857,62.8940956 70.3392857,62.8940956 70.5357143,62.9831303 C70.6428571,63.0365511 70.7321429,63.0899719 70.8035714,63.1611996 C70.875,63.2502343 70.9464286,63.339269 70.9821429,63.4461106 C71.0357143,63.5707591 71.0535714,63.6954077 71.0535714,63.8378632 L71.0535714,65.8856607 L72.0178571,65.8856607 C72.125,65.8856607 72.2321429,65.9034677 72.3214286,65.9568885 C72.4107143,66.0103093 72.5,66.0637301 72.5714286,66.1349578 C72.6428571,66.2061856 72.6785714,66.2952202 72.7321429,66.4020619 C72.7678571,66.5089035 72.7857143,66.6157451 72.7857143,66.7225867 C72.7857143,66.8294283 72.7678571,66.9540769 72.7321429,67.0431115 C72.6964286,67.1499531 72.6428571,67.2389878 72.5714286,67.3102156 C72.5,67.3814433 72.4285714,67.452671 72.3214286,67.4882849 C72.2321429,67.5417057 72.125,67.5595127 72.0178571,67.5595127 L71.0535714,67.5595127 L71.0535714,73.2933458 C71.0535714,73.5070291 71.0892857,73.6850984 71.1428571,73.809747 C71.1964286,73.9343955 71.2857143,74.0234302 71.375,74.076851 C71.4821429,74.1302718 71.6071429,74.1658857 71.7321429,74.1836926 C71.875,74.2014995 72.0357143,74.2014995 72.1964286,74.1658857 C72.3035714,74.1480787 72.4107143,74.1658857 72.5178571,74.1836926 C72.6071429,74.2193065 72.6964286,74.2549203 72.7678571,74.3261481 C72.8392857,74.3973758 72.8928571,74.4686036 72.9464286,74.5754452 C72.9821429,74.6644799 73.0178571,74.7713215 73.0178571,74.8781631 C73.0357143,75.1096532 72.9821429,75.3055295 72.875,75.4835989 C72.75,75.6616682 72.5714286,75.7507029 72.3392857,75.7685098 C72.1428571,75.8041237 71.9464286,75.8219306 71.7678571,75.8219306 M68.6607143,66.0459231 C68.5714286,66.0459231 68.4821429,66.0637301 68.4285714,66.099344 C68.3571429,66.1349578 68.2857143,66.1705717 68.2321429,66.2417994 C68.1785714,66.2952202 68.1428571,66.366448 68.1071429,66.4554827 C68.0714286,66.5267104 68.0535714,66.633552 68.0535714,66.7225867 C68.0535714,66.8116214 68.0714286,66.900656 68.1071429,66.9896907 C68.1428571,67.0787254 68.1785714,67.1499531 68.2321429,67.2033739 C68.2857143,67.2746017 68.3392857,67.3102156 68.4285714,67.3458294 C68.5,67.3814433 68.5714286,67.3992502 68.6607143,67.3992502 L69.5357143,67.3992502 L69.5357143,73.3823805 C69.5357143,73.809747 69.5892857,74.1836926 69.7321429,74.4864105 C69.8571429,74.7891284 70.0357143,75.0384255 70.2678571,75.2164948 C70.5,75.3945642 70.8035714,75.5192127 71.1428571,75.5904405 C71.4821429,75.6616682 71.8928571,75.6616682 72.3392857,75.6082474 C72.5178571,75.5904405 72.6607143,75.5192127 72.7678571,75.3767573 C72.875,75.2343018 72.9107143,75.0740394 72.8928571,74.89597 C72.8928571,74.8069353 72.8571429,74.7179007 72.8392857,74.6466729 C72.8035714,74.5754452 72.7678571,74.5042174 72.6964286,74.4507966 C72.6428571,74.3973758 72.5714286,74.3617619 72.5,74.343955 C72.4285714,74.3261481 72.3392857,74.3083411 72.25,74.3261481 C72.0714286,74.343955 71.9107143,74.3617619 71.75,74.343955 C71.5892857,74.3261481 71.4285714,74.2905342 71.3035714,74.2193065 C71.1785714,74.1480787 71.0714286,74.0234302 71,73.8809747 C70.9285714,73.7385192 70.8928571,73.5426429 70.8928571,73.3111528 L70.8928571,67.4170572 L72.0178571,67.4170572 C72.1071429,67.4170572 72.1964286,67.3992502 72.2678571,67.3636364 C72.3392857,67.3280225 72.4107143,67.2746017 72.4464286,67.2211809 C72.5,67.1677601 72.5535714,67.0787254 72.5714286,67.0074977 C72.6071429,66.9362699 72.625,66.8294283 72.625,66.7403936 C72.625,66.633552 72.6071429,66.5445173 72.5714286,66.4732896 C72.5357143,66.3842549 72.5,66.3130272 72.4464286,66.2596064 C72.3928571,66.1883786 72.3214286,66.1527648 72.25,66.1171509 C72.1785714,66.081537 72.0892857,66.0637301 72,66.0637301 L70.8928571,66.0637301 L70.8928571,63.8556701 C70.8928571,63.7310216 70.875,63.6241799 70.8392857,63.5351453 C70.8035714,63.4461106 70.75,63.3570759 70.6964286,63.3036551 C70.625,63.2502343 70.5535714,63.1968135 70.4821429,63.1611996 C70.3214286,63.0899719 70.125,63.0899719 69.9642857,63.1611996 C69.8928571,63.1968135 69.8035714,63.2502343 69.75,63.3036551 C69.6964286,63.3748828 69.6428571,63.4639175 69.6071429,63.5529522 C69.5714286,63.6597938 69.5535714,63.7488285 69.5535714,63.873477 L69.5535714,66.081537 L68.6607143,66.081537 L68.6607143,66.0459231 Z" id="形状" fill="#6C6E70" fill-rule="nonzero"></path>
                </g>
            </g>
        </g>
    </g>
</svg>