<?xml version="1.0" encoding="UTF-8"?>
<svg width="161px" height="62px" viewBox="0 0 161 62" version="1.1" xmlns="http://www.w3.org/2000/svg" xmlns:xlink="http://www.w3.org/1999/xlink">
    <title>unionpay_horizon</title>
    <defs>
        <polygon id="path-1" points="0 0 53.0487776 0 53.0487776 21.2284859 0 21.2284859"></polygon>
        <polygon id="path-3" points="0 0 53.0487776 0 53.0487776 21.2294775 0 21.2294775"></polygon>
    </defs>
    <g id="LOGO-+-SDK-+-payment-icon" stroke="none" stroke-width="1" fill="none" fill-rule="evenodd">
        <g id="payment_horizon" transform="translate(-548.000000, -769.000000)">
            <g id="unionpay_horizon" transform="translate(548.000000, 769.000000)">
                <g id="payment-4:3bg" transform="translate(-26.833333, -10.333333)"></g>
                <g id="编组" transform="translate(4.410959, 4.428571)">
                    <path d="M88.1815295,40.4187555 C87.048199,37.5877618 85.276442,34.1320656 82.8712078,30.0467088 L85.9742569,30.0467088 C87.40453,32.2579577 89.2752677,35.7186119 91.5815211,40.4187555 L88.1815295,40.4187555 Z M68.6674582,18.3013079 L90.1512481,18.3013079 L90.1512481,16.0603112 L68.6674582,16.0603112 L68.6674582,18.3013079 Z M66.3117144,26.3728624 L66.3117144,24.09716 L92.1209667,24.09716 L92.1209667,26.3728624 L78.1844653,26.3728624 L71.0875396,36.982891 L86.5087534,36.982891 L85.9148684,39.1643923 L69.6226233,39.1643923 C68.6872544,39.1842241 68.0834713,38.8718728 67.8013759,38.2372543 C67.5836181,37.7216267 67.7122932,37.101882 68.1923502,36.3829782 L74.6360025,26.3728624 L66.3117144,26.3728624 Z" id="Fill-1" fill="#4C4948"></path>
                    <path d="M114.646035,40.4787468 L113.928424,38.2080023 L117.209638,38.2080023 C118.164804,38.1881705 118.654759,37.7171645 118.674555,36.7999424 L118.674555,19.075245 C118.59537,18.1233172 118.085619,17.5928158 117.15025,17.4936566 L105.455665,17.4936566 L105.455665,15.2526599 L117.92725,15.2526599 C120.134522,15.4113145 121.317343,16.5268549 121.480661,18.5992811 L121.480661,37.3701075 C121.356935,39.3235427 120.263197,40.3597558 118.194498,40.4787468 L114.646035,40.4787468 Z M114.047201,35.7538134 C111.839928,33.2847507 110.271082,30.6471174 109.335713,27.8359556 C108.479529,30.4041775 106.638485,33.0666006 103.817532,35.8133089 L101.308368,34.4697025 C103.77299,32.0204716 105.435868,29.759643 106.292053,27.6872169 C107.207625,25.6742862 107.662937,23.0316949 107.662937,19.7644011 L110.469044,19.7644011 C110.449248,21.9161545 110.300776,23.7010192 110.02363,25.114037 L110.825375,25.114037 C112.03789,28.5449435 113.94822,31.6287929 116.556365,34.3804593 L114.047201,35.7538134 Z M101.39745,19.1991939 C100.343304,17.2259269 99.457426,15.6790442 98.744764,14.5635038 L101.427145,14.5635038 C102.204144,15.7187079 103.119717,17.2655906 104.173863,19.1991939 L101.39745,19.1991939 Z M96.715657,40.4787468 L99.5217636,40.4787468 L99.5217636,19.7644011 L96.715657,19.7644011 L96.715657,40.4787468 Z" id="Fill-3" fill="#4C4948"></path>
                    <path d="M138.276224,33.3050783 C137.42004,30.1369436 136.346098,26.8993974 135.054398,23.5924399 L137.890199,23.5924399 C139.063122,26.259821 140.20635,29.4973671 141.319885,33.3050783 L138.276224,33.3050783 Z M141.112025,40.3602516 L140.305331,38.0597594 L144.036909,38.0597594 C145.091055,38.0002639 145.645347,37.3606874 145.704736,36.1459879 L145.704736,21.5596774 L133.114374,21.5596774 L133.114374,19.2294375 L145.704736,19.2294375 L145.704736,14.2665222 L148.629619,14.2665222 L148.629619,19.2294375 L152.178082,19.2294375 L152.178082,21.5596774 L148.629619,21.5596774 L148.629619,36.3542221 C148.510842,38.9026121 147.209244,40.2412606 144.719876,40.3602516 L141.112025,40.3602516 Z M128.521663,40.7172245 L128.521663,24.8468031 C127.982217,25.7045297 127.457619,26.4928449 126.93797,27.2067908 L124.730697,25.446716 C127.338842,21.6390047 129.283815,17.8709572 130.580464,14.1475312 L133.713208,14.1475312 C132.594724,17.1768431 131.204044,20.1714494 129.536217,23.1412658 L131.382209,23.1412658 L131.382209,40.7172245 L128.521663,40.7172245 Z" id="Fill-5" fill="#4C4948"></path>
                    <path d="M0,32.058152 C7.99270229,36.0294759 16.9999581,38.2605567 26.5268633,38.2605567 C36.0488195,38.2605567 45.0560753,36.0294759 53.0487776,32.058152 L53.0487776,10.8975902 C53.0487776,4.87863 48.1789206,0 42.165835,0 L10.8829426,0 C4.869857,0 0,4.87863 0,10.8975902 L0,32.058152 Z" id="Fill-7" fill="#E62327"></path>
                    <g transform="translate(0.000000, 31.914371)">
                        <mask id="mask-2" fill="white">
                            <use xlink:href="#path-1"></use>
                        </mask>
                        <g id="Clip-10"></g>
                        <path d="M53.0487776,0.143780762 L53.0487776,0.143780762 C45.0560753,4.11510458 36.0488195,6.25198418 26.5268633,6.25198418 C16.9999581,6.25198418 7.99270229,3.96636586 0,0 L0,0.143780762 L0,10.3274251 C0,16.3463853 4.869857,21.2299733 10.8829426,21.2299733 L42.165835,21.2299733 C48.1789206,21.2299733 53.0487776,16.3463853 53.0487776,10.3274251 L53.0487776,0.143780762 Z" id="Fill-9" fill="#FFFFFF" mask="url(#mask-2)"></path>
                    </g>
                    <g transform="translate(0.000000, 31.913380)">
                        <mask id="mask-4" fill="white">
                            <use xlink:href="#path-3"></use>
                        </mask>
                        <g id="Clip-12"></g>
                        <path d="M0,0 L0,0.143780762 L0,10.3274251 C0,16.3463853 4.869857,21.2299733 10.8829426,21.2299733 L42.170784,21.2299733 C48.1789206,21.2299733 53.0487776,16.3463853 53.0487776,10.3274251 L53.0487776,0.143780762 C45.0560753,4.11510458 36.0488195,6.25198418 26.5268633,6.25198418 C16.9999581,6.25198418 7.99270229,3.97132381 0,0 L0,0 Z M0.494904167,0.793273171 C8.71526237,4.74476516 17.4701171,6.74777991 26.5268633,6.74777991 C35.7617751,6.74777991 44.5166298,4.79434473 52.5538735,0.937053934 L52.5538735,10.3274251 C52.5538735,16.0687397 47.8968252,20.7341775 42.170784,20.7341775 L10.8829426,20.7341775 C5.15195237,20.7341775 0.494904167,16.0687397 0.494904167,10.3274251 L0.494904167,0.793273171 Z" id="Fill-11" fill="#E62327" mask="url(#mask-4)"></path>
                    </g>
                    <path d="M13.4826742,31.1166359 C12.5225601,31.1166359 11.9237261,30.5613447 12.146433,29.5846271 L12.9432287,26.0942252 L13.9033428,26.0942252 L13.106547,29.594543 C13.0075662,30.0308433 13.2698654,30.2886571 13.6707378,30.2886571 C14.0716102,30.2886571 14.4526864,30.0308433 14.5516672,29.594543 L15.353412,26.0942252 L16.313526,26.0942252 L15.5167303,29.5846271 C15.2940235,30.5613447 14.4427883,31.1166359 13.4826742,31.1166359" id="Fill-13" fill="#FFFFFF"></path>
                    <path d="M18.2387033,31.0487119 L18.7929959,28.6193128 C18.8771296,28.252424 18.7039132,28.024358 18.2782956,28.024358 C18.0605378,28.024358 17.8427799,28.0689796 17.7091558,28.1136012 L17.0360861,31.0487119 L16.1106153,31.0487119 L16.9123601,27.5483941 C17.3330286,27.3897394 17.8279328,27.2806644 18.4366649,27.2806644 C19.5304031,27.2806644 19.9312755,27.7318385 19.748161,28.5251117 L19.1740721,31.0487119 L18.2387033,31.0487119 Z" id="Fill-15" fill="#FFFFFF"></path>
                    <path d="M21.5129892,26.7739611 C21.2209958,26.7739611 21.0329322,26.5458951 21.0972697,26.2682495 C21.1616073,25.9906039 21.4486517,25.7674958 21.7406451,25.7674958 C22.0375876,25.7674958 22.2256512,25.9906039 22.1613137,26.2682495 C22.0969761,26.5458951 21.8049827,26.7739611 21.5129892,26.7739611 L21.5129892,26.7739611 Z M20.0728181,31.0477203 L20.9141552,27.363958 L21.839626,27.363958 L20.9982889,31.0477203 L20.0728181,31.0477203 Z" id="Fill-17" fill="#FFFFFF"></path>
                    <path d="M24.1275679,28.0114673 C23.6376128,28.0114673 23.2911799,28.4576834 23.1229125,29.1964191 C22.9546451,29.9351547 23.0981673,30.371455 23.5881224,30.371455 C24.0830266,30.371455 24.4245104,29.9351547 24.5927778,29.1964191 C24.7610453,28.4576834 24.6175231,28.0114673 24.1275679,28.0114673 M23.4149059,31.1300224 C22.3459129,31.1300224 21.9400915,30.3020436 22.1924926,29.201377 C22.4448938,28.1007105 23.2268423,27.2826475 24.2958353,27.2826475 C25.3648283,27.2826475 25.7706498,28.1007105 25.5182486,29.201377 C25.2707966,30.3020436 24.488848,31.1300224 23.4149059,31.1300224" id="Fill-19" fill="#FFFFFF"></path>
                    <path d="M27.9833663,31.0487119 L28.537659,28.6193128 C28.6217927,28.252424 28.4485762,28.024358 28.0229586,28.024358 C27.8052008,28.024358 27.587443,28.0689796 27.4538188,28.1136012 L26.7807492,31.0487119 L25.8552784,31.0487119 L26.6570231,27.5483941 C27.0776917,27.3897394 27.5725958,27.2806644 28.181328,27.2806644 C29.2750662,27.2806644 29.6759385,27.7318385 29.492824,28.5251117 L28.9187352,31.0487119 L27.9833663,31.0487119 Z" id="Fill-21" fill="#FFFFFF"></path>
                    <path d="M32.2647822,26.7536335 C32.0717696,26.7536335 31.8738079,26.7883392 31.7500819,26.8280029 L31.3937509,28.3947174 C31.4828337,28.4145492 31.6362539,28.4294231 31.7946233,28.4294231 C32.4676929,28.4294231 32.9032086,28.1121138 33.0219856,27.5964862 C33.1506607,27.0263212 32.8834124,26.7536335 32.2647822,26.7536335 M31.6758463,29.1632008 C31.5125279,29.1632008 31.3294134,29.1483269 31.2254835,29.1284951 L30.7850188,31.0472245 L29.8447009,31.0472245 L30.93349,26.2826276 C31.3442605,26.119015 31.8639099,26.0148979 32.4182025,26.0148979 C33.6455649,26.0148979 34.1800614,26.6346425 33.9623035,27.6014442 C33.7544438,28.4988345 32.94775,29.1632008 31.6758463,29.1632008" id="Fill-23" fill="#FFFFFF"></path>
                    <path d="M36.1576984,29.2702926 C35.4697816,29.3049983 34.8561005,29.3644938 34.7274254,29.919785 C34.6482407,30.2718 34.8758966,30.4651604 35.3609027,30.4651604 C35.5588644,30.4651604 35.7964184,30.4304547 35.9003482,30.390791 L36.1576984,29.2702926 Z M35.2371767,31.1295266 C34.1285913,31.1295266 33.6782285,30.6932264 33.851445,29.9396169 C34.0791009,28.9331515 35.1678901,28.7348332 36.2962716,28.6753378 L36.3358639,28.4819774 C36.4249467,28.1002147 36.1923417,27.9564339 35.7716732,27.9564339 C35.4202912,27.9564339 34.9748775,28.065509 34.687833,28.1745841 L34.6036993,27.5449235 C34.9352851,27.4160166 35.4945268,27.2821518 36.0240743,27.2821518 C36.9643922,27.2821518 37.409806,27.6490406 37.1920481,28.5910525 L36.6723987,30.8617969 C36.3705072,31.0055777 35.7865203,31.1295266 35.2371767,31.1295266 L35.2371767,31.1295266 Z" id="Fill-25" fill="#FFFFFF"></path>
                    <path d="M38.5807492,32.5182505 L37.605788,32.5182505 L38.4916665,31.0506951 L37.9522209,27.3619749 L39.0014178,27.3619749 L39.1597871,29.6822989 C39.1795833,29.9549865 39.149889,30.2623799 39.149889,30.2623799 L39.1647361,30.2623799 C39.1647361,30.2623799 39.273615,29.9549865 39.4171373,29.6822989 L40.6346015,27.3619749 L41.6788493,27.3619749 L38.5807492,32.5182505 Z" id="Fill-27" fill="#FFFFFF"></path>
                    <path d="M21.8821877,40.9195092 L26.9104141,40.9195092 C27.4449106,40.9195092 27.7764964,41.3558094 27.6478213,41.8863108 L25.8760644,49.5166072 C25.7523383,50.0520665 25.2178418,50.4834088 24.6882944,50.4834088 L19.655119,50.4834088 C19.1255715,50.4834088 18.7939857,50.0520665 18.9177118,49.5166072 L20.6944177,41.8863108 C20.8181438,41.3558094 21.3476912,40.9195092 21.8821877,40.9195092" id="Fill-29" fill="#DE3232"></path>
                    <path d="M26.2551609,40.9195092 L31.2437949,40.9195092 C31.7733424,40.9195092 31.5357884,41.3558094 31.4071133,41.8863108 L29.6353564,49.5166072 C29.5116304,50.0520665 29.5512227,50.4834088 29.0167262,50.4834088 L24.0280922,50.4834088 C23.4985447,50.4834088 23.1669589,50.0520665 23.290685,49.5166072 L25.0673909,41.8863108 C25.191117,41.3558094 25.5078557,40.9195092 26.0374031,40.9195092" id="Fill-31" fill="#004888"></path>
                    <path d="M31.3789038,40.9195092 L33.3931637,40.9195092 C33.9227112,40.9195092 34.254297,41.3558094 34.1305709,41.8863108 L32.358814,49.5166072 C32.2301389,50.0520665 31.7005915,50.4834088 31.166095,50.4834088 L28.5084596,50.4834088 C27.9739631,50.4834088 27.6473264,50.0520665 27.7710524,49.5166072 L29.5428093,41.8863108 C29.6665354,41.3558094 30.2010319,40.9195092 30.7355284,40.9195092 L31.3789038,40.9195092 Z" id="Fill-33" fill="#008089"></path>
                    <path d="M5.28161727,11.7568042 L5.28161727,11.7568042 L16.0903243,11.7568042 L16.0952733,11.7568042 C16.5703813,11.7568042 16.9564066,11.3700835 16.9564066,10.8891617 C16.9564066,10.4131978 16.5703813,10.0264771 16.0952733,10.0264771 L16.0903243,10.0264771 L5.28161727,10.0264771 L5.28161727,10.0264771 C4.80156022,10.0264771 4.41553497,10.4131978 4.41553497,10.8891617 C4.41553497,11.3700835 4.80156022,11.7568042 5.28161727,11.7568042" id="Fill-35" fill="#FFFFFF"></path>
                    <path d="M21.6901649,13.3403758 C21.6901649,12.84458 21.2892925,12.4380275 20.7894393,12.4380275 C20.2945352,12.4380275 19.8887137,12.84458 19.8887137,13.3403758 L19.8887137,13.3403758 L19.8887137,21.6895759 L19.8887137,21.6895759 C19.8887137,22.1903296 20.2945352,22.5919241 20.7894393,22.5919241 C21.2892925,22.5919241 21.6901649,22.1903296 21.6901649,21.6895759 L21.6901649,21.6895759 L21.6901649,13.3403758 Z" id="Fill-37" fill="#FFFFFF"></path>
                    <path d="M44.0736906,17.2898846 L44.0736906,17.2898846 L41.4556475,14.6671251 L41.4506985,14.6671251 C41.1042656,14.3151102 40.5351258,14.3151102 40.1837438,14.6671251 C39.8323618,15.0141822 39.8323618,15.5843472 40.1837438,15.9363622 L40.1837438,15.9363622 L42.8017868,18.5591216 L42.8017868,18.5640796 C43.1531688,18.9160946 43.7223086,18.9160946 44.0736906,18.5640796 C44.4250725,18.2120646 44.4250725,17.6418995 44.0736906,17.2898846" id="Fill-39" fill="#FFFFFF"></path>
                    <path d="M16.9514575,14.5481342 L16.9514575,14.5481342 L4.44522922,14.5481342 L4.44028018,14.5481342 C3.96517218,14.5481342 3.57914693,14.9348548 3.57914693,15.4157767 C3.57914693,15.8917406 3.96517218,16.2834192 4.44028018,16.2834192 L4.44522922,16.2834192 L6.46938727,16.2834192 L5.00941997,19.9919713 C4.93518435,20.1952476 4.89559202,20.4133977 4.89559202,20.6414637 C4.89559202,21.6776768 5.73198006,22.5205295 6.77127881,22.5205295 L14.9767899,22.5205295 C16.0853752,22.5205295 16.9910498,21.6181813 16.9910498,20.5075989 C16.9910498,20.2150794 16.9267123,19.9423917 16.8178334,19.6944939 L16.1398147,18.2418124 L16.1398147,18.2368544 C15.9270059,17.7807223 15.3826113,17.582404 14.9272995,17.7955962 C14.4719876,18.0087884 14.274026,18.5541637 14.4868348,19.0102958 L14.4868348,19.0102958 L14.9619428,20.026677 C14.9965861,20.1010464 15.0163822,20.1754157 15.0163822,20.259701 C15.0163822,20.5522205 14.7788282,20.7902024 14.4868348,20.7902024 L7.5185841,20.7902024 C7.18699831,20.7902024 6.91480102,20.5224727 6.91480102,20.1902896 C6.91480102,20.1109623 6.93459718,20.031635 6.96429143,19.9622236 L6.95934239,19.9622236 L8.4094116,16.2834192 L16.9514575,16.2834192 L16.9514575,16.2834192 C17.4265655,16.2834192 17.8175398,15.8917406 17.8175398,15.4157767 C17.8175398,14.9348548 17.4265655,14.5481342 16.9514575,14.5481342" id="Fill-41" fill="#FFFFFF"></path>
                    <path d="M49.0712328,11.502461 L49.0712328,11.502461 L47.9379023,11.502461 L47.9379023,10.228266 L47.9428513,10.228266 C47.9428513,9.72751226 47.5370299,9.32095976 47.0371767,9.32095976 C46.5373235,9.32095976 46.1364511,9.72751226 46.1364511,10.228266 L46.1364511,10.228266 L46.1364511,11.502461 L40.3807157,11.502461 L40.3807157,11.502461 C39.9105567,11.502461 39.5294805,11.8842237 39.5294805,12.3552296 C39.5294805,12.8262356 39.9105567,13.2079983 40.3807157,13.2079983 L40.3807157,13.2079983 L46.1364511,13.2079983 L46.1364511,20.2929193 C46.1364511,20.6201445 45.8692029,20.8878742 45.5376171,20.8878742 L44.7754647,20.8878742 L44.7754647,20.8878742 C44.3053057,20.8878742 43.9242295,21.2696369 43.9242295,21.7406429 C43.9242295,22.2116488 44.3053057,22.5934115 44.7754647,22.5934115 L44.7754647,22.5934115 L46.0325212,22.5934115 C47.0866671,22.5934115 47.9428513,21.7356849 47.9428513,20.67964 L47.9379023,20.67964 L47.9379023,13.2079983 L49.0712328,13.2079983 L49.0712328,13.2079983 C49.5413918,13.2079983 49.922468,12.8262356 49.922468,12.3552296 C49.922468,11.8842237 49.5413918,11.502461 49.0712328,11.502461" id="Fill-43" fill="#FFFFFF"></path>
                    <path d="M31.0982931,20.2909361 C31.0982931,20.6231193 30.8310449,20.890849 30.4994591,20.890849 L29.7422557,20.890849 L29.7373067,20.890849 C29.2671477,20.890849 28.8910205,21.2726117 28.8910205,21.7386597 C28.8910205,22.2096656 29.2671477,22.5914283 29.7373067,22.5914283 L29.7422557,22.5914283 L30.9943632,22.5914283 C32.0485091,22.5914283 32.9046933,21.7386597 32.9046933,20.6826148 L32.9046933,17.3706993 L31.0982931,19.1753957 L31.0982931,20.2909361 Z" id="Fill-45" fill="#FFFFFF"></path>
                    <path d="M38.2263978,12.036433 L36.4298957,13.8361715 L36.4298957,21.6895759 L36.4298957,21.6945339 C36.4298957,22.1903296 36.8307681,22.5919241 37.3256722,22.5919241 C37.8255255,22.5919241 38.2263978,22.1903296 38.2263978,21.6945339 L38.2263978,21.6895759 L38.2263978,12.036433 Z" id="Fill-47" fill="#FFFFFF"></path>
                    <path d="M38.261536,9.69875611 C37.9151031,9.34674114 37.3459633,9.34674114 36.9995304,9.69875611 L36.9995304,9.69875611 L32.9017239,13.8039448 L32.9017239,11.9397528 L32.8967749,11.9397528 L32.9017239,11.9397528 C32.9017239,10.8837079 32.0504887,10.0259813 30.9913938,10.0259813 L22.9442521,10.0259813 C22.7908318,10.0259813 22.6572077,9.96648581 22.5532778,9.87228462 L22.226641,9.54505944 C21.8851572,9.20296038 21.3358135,9.20296038 20.9992787,9.54505944 C20.6577948,9.88715849 20.6577948,10.4374918 20.9992787,10.7746329 L21.5832656,11.3646298 L21.5832656,11.3646298 C21.8356667,11.5877379 22.1623035,11.7216027 22.5285326,11.7216027 L30.5014387,11.7216027 C30.8330245,11.7216027 31.1002727,11.9893324 31.1002727,12.3215155 L31.1002727,15.6086412 L30.2193433,16.4911576 L27.3241539,13.5907526 L27.3192049,13.5907526 C26.972772,13.2387376 26.4085812,13.2387376 26.0571993,13.5907526 L26.0571993,13.5907526 L25.428671,14.2204132 L29.4175986,18.2165268 L29.4175986,18.2165268 L29.4175986,18.2165268 C29.8630123,18.657785 30.5756743,18.657785 31.0210881,18.2165268 L31.0210881,18.2165268 L38.261536,10.9630352 L38.261536,10.9630352 C38.6079689,10.6110203 38.6079689,10.0458131 38.261536,9.69875611" id="Fill-49" fill="#FFFFFF"></path>
                    <path d="M25.428671,14.2204132 L22.5334816,17.1208182 L22.5285326,17.1257762 C22.1820997,17.4728332 22.1820997,18.0380403 22.5285326,18.3900553 C22.8799145,18.7371123 23.4441053,18.7371123 23.7905382,18.3900553 L23.7954872,18.3850973 L26.1017407,16.0746892 L25.428671,14.2204132 Z" id="Fill-51" fill="#FFFFFF"></path>
                </g>
            </g>
        </g>
    </g>
</svg>