<?xml version="1.0" encoding="UTF-8"?>
<svg width="120px" height="90px" viewBox="0 0 120 90" version="1.1" xmlns="http://www.w3.org/2000/svg" xmlns:xlink="http://www.w3.org/1999/xlink">
    <title>unionpay</title>
    <g id="LOGO-+-SDK-+-payment-icon" stroke="none" stroke-width="1" fill="none" fill-rule="evenodd">
        <g id="payment" transform="translate(-568.000000, -755.000000)">
            <g id="unionpay" transform="translate(568.000000, 755.000000)">
                <g id="payment-4:3bg" transform="translate(-20.000000, -15.000000)"></g>
                <g id="UnionPay-app" transform="translate(19.000000, 4.000000)" fill-rule="nonzero">
                    <path d="M6.17234702,9.8686383 L75.852255,9.8686383 C79.0279254,9.8686383 81.6026557,12.4421939 81.6026557,15.6170099 L81.6026557,65.006533 C81.6026557,69.4227025 79.8478672,73.6579971 76.7243235,76.7807004 C73.6007799,79.9034038 69.3643456,81.6577202 64.9469878,81.6577202 L17.0776143,81.6577202 C12.6602565,81.6577202 8.42382217,79.9034038 5.30027851,76.7807004 C2.17673486,73.6579971 0.421946309,69.4227025 0.421946309,65.006533 L0.421946309,15.6170099 C0.421946309,12.4421939 2.99667671,9.8686383 6.17234702,9.8686383 Z" id="路径" fill="#FFFFFF"></path>
                    <path d="M81.9310434,15.4048929 C81.8288141,13.5049992 81.3451535,11.6962194 80.5490184,9.97951766 C78.4340282,5.41900142 74.98427,2.34973221 70.1997437,0.77171003 C68.9755062,0.366091391 67.7023436,0.126606642 66.4143647,0.0596717124 C65.7768779,0.0278541572 65.1379445,0.00133952791 64.4999755,0.00133952791 C48.6473544,-0.00123158766 32.7945725,-1.22435626e-05 16.94163,0.00423203293 C12.4517364,0.00760662211 8.54146389,1.55268638 5.27880467,4.63465048 C2.47858858,7.27984631 0.774444667,10.5310219 0.208325553,14.3496106 C0.0804547341,15.2194078 0.0159897166,16.0973463 0.0154399946,16.9764873 C3.03801632e-05,27.5704476 -0.00320560937,38.1642472 0.00290243332,48.7578861 C0.00290243332,54.21765 0.00836752415,59.6770926 0.0192977058,65.1362137 C0.0192977058,65.303979 0.023155417,65.4707801 0.0279775559,65.6366171 L0.00290243332,66.163535 C0.0347285505,66.4836389 0.060285887,66.804707 0.0993452126,67.1243288 C0.260158547,68.4870432 0.586616432,69.8250632 1.07148843,71.1087545 C3.30847869,76.9863246 8.63694225,81.129356 14.7398413,81.8679089 C15.0364029,81.9035832 15.3310356,81.9556483 15.6266327,82 L15.6314548,81.9758958 L15.6714786,81.9869837 L66.3762698,81.9869837 C66.6718669,81.942632 66.9664996,81.8905669 67.2630611,81.8548927 C73.3659602,81.1158576 78.6944237,76.97138 80.931414,71.0957382 C81.4162309,69.8120299 81.7426871,68.4740166 81.9035572,67.1113125 C81.9421343,66.7916907 81.9681739,66.4706227 82,66.1505188 L82,15.6763063 C81.9758893,15.5861565 81.9353833,15.4964889 81.9310434,15.4048929 Z M62.0590087,17.9252289 C62.2151317,17.9109179 62.3719593,17.9057668 62.5286851,17.9098022 C65.2049722,17.9098022 67.8810986,17.9098022 70.5570642,17.9098022 L71.0330094,17.9098022 C71.0416892,17.7753008 71.054709,17.6610468 71.0551912,17.5463108 C71.0580845,16.9557577 71.0513335,16.3652046 71.0600133,15.7751335 C71.0720687,14.9753559 71.6796582,14.3674478 72.4536115,14.3669651 C73.2275648,14.3664836 73.8385298,14.975838 73.8520318,15.7751335 C73.8607116,16.3536345 73.8520318,16.9321355 73.8520318,17.5106365 C73.8520318,17.6287472 73.8636049,17.7468578 73.8718026,17.9131768 C74.3284591,17.9131768 74.7397876,17.9001606 75.1462939,17.9160693 C75.7302549,17.9396915 76.1589431,18.2154436 76.3720816,18.7698404 C76.5244147,19.1516204 76.4869064,19.5829665 76.2709601,19.9327395 C76.0550138,20.2825126 75.6861426,20.5093886 75.2764916,20.5443922 C74.9538905,20.5742814 74.6264673,20.5598189 74.3014551,20.5646398 C74.1712574,20.5646398 74.0415419,20.5646398 73.8751781,20.5646398 C73.8650516,20.7690434 73.8501029,20.9334341 73.8496207,21.0978248 C73.8496207,24.6652477 73.8505852,28.2326705 73.852514,31.8000934 C73.852514,32.4446399 73.728585,33.0433885 73.3635491,33.5838048 C72.7873035,34.432755 71.9757375,34.8680771 70.9597128,34.9051975 C70.3096885,34.9288197 69.6577353,34.9167676 69.0072288,34.907608 C68.2356865,34.89652 67.668603,34.3324815 67.6661919,33.5900719 C67.6637809,32.8476623 68.2154336,32.2841059 68.9927624,32.2585554 C69.3303121,32.2474675 69.6678618,32.2392721 70.0054115,32.2585554 C70.7417522,32.3009789 71.0662821,31.7461 71.0595311,31.213397 C71.041207,29.7435223 71.0527801,28.2726835 71.0532623,26.8028089 L71.0532623,21.0177989 L71.0532623,20.5921186 C70.8651989,20.5819948 70.7157126,20.5670502 70.5614042,20.5670502 C67.8973331,20.5651218 65.2332621,20.563997 62.569191,20.5636756 C62.4124715,20.5636756 62.2552698,20.5636756 62.0995147,20.5511414 C61.4190393,20.5009004 60.8892478,19.9400565 60.8779754,19.2580046 C60.8667029,18.5759527 61.3776718,17.9979171 62.0561155,17.9252289 L62.0590087,17.9252289 Z M67.5470851,29.2006956 C67.0002545,29.4730731 66.3796453,29.3935292 65.9427595,28.9649564 C65.3158814,28.3512633 64.6962365,27.725518 64.0741806,27.1041115 C63.3161404,26.3462752 62.5508669,25.5956701 61.8029532,24.8281921 C61.0434663,24.0491441 61.3858381,22.7749957 62.4206692,22.4934585 C62.5378448,22.4682598 62.6563306,22.4495904 62.7755786,22.4375368 C63.2172865,22.4322338 63.567856,22.6188004 63.8702041,22.9196209 C64.6780732,23.7295223 65.4865851,24.538781 66.29574,25.3473968 C66.7982069,25.8497285 67.2992272,26.3535065 67.8036229,26.8534277 C68.0582318,27.1060398 68.2453308,27.3899874 68.2921056,27.7558893 C68.3687776,28.3623512 68.0751093,28.9369955 67.5470851,29.2006956 Z M60.5279796,46.1122082 C60.6306912,45.8822541 60.7030233,45.7106321 60.7825886,45.5423847 C61.3173638,44.4109332 61.85889,43.2828562 62.3845031,42.147548 C62.4809459,41.941216 62.5986061,41.8621542 62.8228356,41.8703496 C63.240915,41.8852942 63.6599589,41.8746884 64.1445838,41.8746884 C64.0736984,42.0308836 64.0336747,42.1374242 63.9796667,42.2357694 C62.9361558,44.1345383 61.891359,46.0329857 60.8452764,47.9311118 C60.5381061,48.4903294 60.2241849,49.0461725 59.92907,49.6111751 C59.8258762,49.8078654 59.6980895,49.8874093 59.4757889,49.8782497 C59.0929111,49.862823 58.7085866,49.873911 58.2490368,49.873911 C58.3363175,49.6969861 58.3840566,49.5904455 58.4419223,49.4882436 C58.7481281,48.929026 59.0538517,48.3688442 59.3663263,47.8130012 C59.4546937,47.6714984 59.4834707,47.5007896 59.4463739,47.3381482 C59.1054486,45.6778504 58.7780254,44.0151421 58.4481911,42.3529159 C58.4207049,42.2135935 58.4043096,42.0723429 58.3777879,41.9002388 L60.0226195,41.9002388 C60.1880188,43.2838204 60.3539004,44.6630632 60.5279796,46.1122082 L60.5279796,46.1122082 Z M43.3727381,42.9473256 C43.3245167,42.9473256 43.2762953,42.9473256 43.2280739,42.9473256 C42.5076463,42.9584136 42.4845001,42.983964 42.3629822,43.6916636 C42.1527369,44.9132649 41.9352584,46.1334199 41.7187444,47.3555033 C41.7001516,47.4328765 41.6772919,47.5091624 41.65027,47.5840112 L40.2195414,47.5840112 C40.2571541,47.3429691 40.2875335,47.119282 40.3265929,46.8984875 C40.5889172,45.4078832 40.8570282,43.9177611 41.1130837,42.4261927 C41.142981,42.2526424 41.196989,42.1436913 41.3749259,42.0887337 C42.3663577,41.7744149 43.3732203,41.6625713 44.4032291,41.8404604 C44.5570762,41.8685708 44.7073232,41.9136813 44.8512059,41.9749619 C45.4255226,42.216004 45.7109932,42.6556647 45.7003845,43.2736966 C45.6897723,43.5140596 45.6605918,43.753243 45.6131038,43.9891095 C45.4227901,45.0921181 45.2287793,46.1943232 45.0310716,47.2957248 C45.0146764,47.388285 44.9828503,47.4789168 44.9543996,47.5897962 L43.5029358,47.5897962 C43.5646592,47.2041289 43.6172205,46.8387091 43.6808727,46.4766638 C43.8337345,45.6132511 43.9952762,44.7508025 44.1466914,43.8873898 C44.251814,43.2838204 43.9808098,42.9593777 43.3727381,42.9473256 Z M44.8323995,33.0568868 C45.0518068,32.5265942 45.4891748,32.2744642 46.057705,32.2575913 C46.4434761,32.2460213 46.8292473,32.2527704 47.2150184,32.2489138 C47.5892164,32.2455392 47.8655249,32.0681322 48.0164579,31.73453 C48.0830034,31.5874943 48.0984342,31.4086411 48.1018097,31.2437683 C48.1119362,30.6782835 48.1172406,30.1123167 48.1018097,29.546832 C48.0945765,29.2840961 48.1837861,29.0980116 48.3704029,28.9157838 C49.1028858,28.2018172 49.8209023,27.4724238 50.5451875,26.7497796 C50.636326,26.6591478 50.7313221,26.5723727 50.8248716,26.4841513 L50.9150456,26.5212717 L50.9150456,26.8741574 C50.9150456,28.5469894 50.9150456,30.2199822 50.9150456,31.8931356 C50.9150456,33.6334595 49.6130681,34.9162855 47.867936,34.9090542 C47.2535955,34.9090542 46.639255,34.9235167 46.0258789,34.9037513 C45.0609689,34.87338 44.4630237,33.9482605 44.8323995,33.0568868 Z M46.3436579,47.267764 C46.7451813,44.9961834 47.1470262,42.7244421 47.5491926,40.4525401 C47.5737855,40.3136998 47.597414,40.2018563 47.7522047,40.1497912 C48.7884823,39.8012444 49.8469418,39.667707 50.9164922,39.9222475 C52.1099716,40.2086055 52.6418536,41.0739466 52.4070154,42.2844599 C52.1741061,43.4872599 51.3943662,44.1872461 50.2582703,44.5285617 C49.7451947,44.6828286 49.216206,44.702112 48.6848063,44.6828286 C48.5661817,44.6784899 48.4475571,44.6828286 48.3028929,44.6828286 C48.1278493,45.6532641 47.9552167,46.6082728 47.7792086,47.5835291 L46.3252924,47.5835291 C46.3248981,47.4779963 46.331018,47.3725383 46.3436579,47.267764 L46.3436579,47.267764 Z M52.3713316,45.6142153 C52.5618061,44.994255 52.9982096,44.6018385 53.5768663,44.3511547 C54.2157997,44.0729922 54.8962035,43.9886274 55.5819117,43.9336698 C56.024584,43.8979956 56.0723232,43.8502693 56.0443548,43.4120548 C56.0236196,43.0919509 55.848576,42.9164723 55.4830578,42.8677818 C55.0104882,42.8051108 54.5475629,42.8677818 54.0899419,42.9883028 C53.8970563,43.0398858 53.7012775,43.0933971 53.4717437,43.1560681 C53.4080914,42.8306613 53.3487791,42.5293587 53.287538,42.2155219 C53.3337643,42.1758253 53.3846016,42.1418349 53.4389531,42.1142842 C54.3754125,41.7936982 55.3311605,41.6466626 56.315359,41.83805 C56.6644819,41.9060238 56.9798498,42.0535416 57.201186,42.3509875 C57.4297553,42.6580751 57.4905143,43.0143353 57.4524194,43.3797551 C57.4114312,43.78567 57.3386169,44.1891745 57.2696603,44.5921968 C57.1298183,45.4117399 56.980332,46.2274263 56.8400077,47.0450411 C56.8120393,47.2065393 56.7739444,47.3415228 56.5892565,47.4013013 C55.5626231,47.7324931 54.5186301,47.8621737 53.4625816,47.5941349 C52.4480036,47.3420049 52.0617502,46.609237 52.3674739,45.6142153 L52.3713316,45.6142153 Z M56.466292,33.5813944 C56.4605054,33.4849776 56.466292,33.3885607 56.466292,33.2921439 C56.466292,29.2693122 56.4642024,25.2464805 56.4600232,21.2236488 C56.4600232,20.9503071 56.5328375,20.7526526 56.7310274,20.560301 C57.4746012,19.8371747 58.2008154,19.1000681 58.9347449,18.3687464 C59.0167213,18.2872741 59.1059308,18.2125511 59.2477017,18.0838346 C59.2602393,18.2708833 59.2747057,18.3856193 59.2747057,18.5003553 C59.2747057,23.4744998 59.2747057,28.448805 59.2747057,33.4232708 C59.2747057,34.146397 58.880737,34.6766896 58.2336059,34.8521683 C57.8255262,34.9636135 57.3889358,34.8851303 57.0452516,34.6385451 C56.7015676,34.3919598 56.4874458,34.0035724 56.4624343,33.5813944 L56.466292,33.5813944 Z M32.5624669,14.8249456 C33.0580423,14.3573693 33.8276635,14.3421437 34.341354,14.7897535 C34.4774887,14.9086596 34.6063137,15.035679 34.7271251,15.1701179 C34.9880028,15.4593684 35.3057818,15.565909 35.6915529,15.5649448 C39.0541911,15.5562673 42.4168294,15.5546604 45.7794676,15.560124 C46.4786778,15.560124 47.1778879,15.5634986 47.8766158,15.560124 C48.5869169,15.560124 49.2354946,15.7452443 49.7929339,16.1955109 C50.5085393,16.7740119 50.895757,17.524617 50.909259,18.4487723 C50.9208322,19.2311949 50.909259,20.0136176 50.909259,20.8138773 C51.0843027,20.8172519 51.150366,20.6841966 51.2333068,20.5993498 C53.1361228,18.7031521 55.03701,16.8035798 56.9359683,14.9006329 C57.16068,14.6754995 57.3969648,14.4821838 57.717637,14.4069787 C58.2845261,14.2657734 58.8791102,14.4951352 59.2041985,14.9804224 C59.529287,15.4657096 59.5150559,16.1026904 59.1686187,16.5729828 C59.0872526,16.6774232 58.9982834,16.7757142 58.9024366,16.8670542 C55.2334318,20.5414997 51.5626589,24.2151418 47.8901178,27.8879804 C47.6007895,28.1772309 47.2873505,28.3980254 46.8605912,28.42454 C46.3933259,28.4534651 46.0205746,28.2799148 45.6965268,27.9530617 C44.6867709,26.9352214 43.673318,25.9207556 42.6561682,24.9096644 C41.7100645,23.964458 40.7634787,23.0202158 39.8164106,22.0769378 C39.7440785,22.0046252 39.6649954,21.9390617 39.5892878,21.8706058 L39.5482996,21.8990487 C39.5839835,22.0104102 39.6162918,22.1232179 39.6558333,22.2331331 C39.8887427,22.8791259 40.1139365,23.5280111 40.3622767,24.1682189 C40.4476286,24.3880493 40.4336444,24.5331566 40.2571541,24.707189 C39.1583493,25.7889859 38.0669386,26.8789782 36.9829217,27.9771659 C36.4216247,28.5489178 35.6621379,28.5074585 35.2286276,28.2456868 C34.8629198,28.0324639 34.6154811,27.6630835 34.5575073,27.2438282 C34.4995336,26.8245729 34.6374539,26.4019344 34.9315838,26.0975198 C35.3757028,25.6226669 35.8477902,25.1733644 36.30734,24.7134561 C37.6279632,23.3925455 38.9490685,22.072117 40.2706561,20.7521705 C40.9481666,20.0748422 41.7462306,20.0738781 42.4319387,20.7574734 C43.797247,22.1188791 45.1604657,23.4822131 46.5215948,24.8474755 C46.5891047,24.9154494 46.6339506,25.0055991 46.6985673,25.0996055 C46.8249073,24.9949933 46.9010971,24.9405178 46.9671604,24.8749543 C47.283975,24.5615996 47.5940385,24.2400495 47.9156752,23.9324798 C48.0430037,23.820657 48.1137377,23.6578361 48.1085607,23.4884802 C48.1037386,22.0542798 48.111454,20.6205615 48.1013275,19.1868432 C48.0974698,18.5519384 47.741596,18.2183361 47.1002515,18.2183361 C43.219394,18.2164078 39.3385366,18.2164078 35.4576792,18.2183361 C34.7637734,18.2183361 34.1021759,18.0997434 33.5529343,17.6644214 C33.1474804,17.3427664 32.7730902,16.9838101 32.4346802,16.5922662 C31.9842925,16.069687 32.06434,15.2959419 32.5624669,14.8249456 Z M39.7026081,44.0218913 C39.7074302,44.9788283 39.4446237,45.8538111 38.8442674,46.6048982 C38.101658,47.5333923 37.1237282,47.8843496 35.9586994,47.6654834 C35.1509911,47.5136269 34.6437021,46.9905656 34.4918047,46.2062146 C34.2222472,44.8202226 34.5752277,43.5745171 35.5690706,42.5582837 C36.2354902,41.8761346 37.0885266,41.6553401 38.0240215,41.786949 C38.9884493,41.9209684 39.6230428,42.6301143 39.7011614,43.6270643 C39.7117702,43.756745 39.7026081,43.8893181 39.7026081,44.0218913 Z M33.3320803,41.0006698 C32.76789,41.0006698 32.4549332,40.5214781 32.684467,40.0070943 C32.8732653,39.6000039 33.3092007,39.3674364 33.7525708,39.4372708 C34.1629348,39.5124759 34.3886109,39.8600586 34.2907215,40.2659735 C34.1918677,40.6853867 33.7805392,40.9997056 33.3320803,41.0006698 Z M33.8943417,41.8978284 C33.5823493,43.8059175 33.229851,45.6788145 32.9004989,47.5979916 C32.4086543,47.6200321 31.9160115,47.6172968 31.4244421,47.5897962 C31.7619919,45.6686908 32.0927906,43.7943475 32.4269648,41.8978284 L33.8943417,41.8978284 Z M31.259525,19.5315334 C31.6520471,19.1367064 32.1337788,19.0263092 32.6579453,19.1747911 C33.1821118,19.323273 33.516286,19.6930316 33.6257486,20.2353763 C33.6540671,20.3894257 33.6669897,20.5459091 33.6643257,20.7025158 C33.6668975,24.9300726 33.6668975,29.1577901 33.6643257,33.3856682 C33.6643257,34.16327 33.2713214,34.6872955 32.5856132,34.8613279 C31.7590986,35.0700703 30.921493,34.4698755 30.8573586,33.6204432 C30.8481965,33.5004043 30.8530187,33.3794011 30.8530187,33.2588801 C30.8530187,31.1753123 30.8530187,29.0915838 30.8530187,27.0076947 L30.8530187,27.0076947 C30.8530187,24.8759185 30.8568764,22.7436602 30.8500784,20.611884 C30.8481965,20.1934349 30.9634456,19.8294614 31.259525,19.5315334 Z M29.5761163,41.8346754 C29.6708068,41.8520134 29.764118,41.8761807 29.8553181,41.906988 C30.5849077,42.1422451 30.9335484,42.6440947 30.8747183,43.4106085 C30.8506076,43.7220349 30.7850265,44.0300867 30.7300541,44.3386206 C30.5609578,45.3114664 30.3894504,46.2841516 30.2155319,47.256676 C30.1967255,47.3612883 30.163935,47.4639722 30.1325911,47.5869037 L28.6763051,47.5869037 C28.7399574,47.2094318 28.7963764,46.8584745 28.858582,46.5079993 C29.011926,45.6436224 29.1681633,44.7797276 29.3215073,43.9148686 C29.3328564,43.8435719 29.3391409,43.7715613 29.3403137,43.6993769 C29.3533334,43.2548953 29.1295862,42.9810715 28.6888427,42.9579315 C28.4274828,42.9444331 28.1632295,42.9955341 27.8999408,43.012407 C27.7070552,43.0244591 27.6414741,43.1334101 27.6106124,43.3137096 C27.4746281,44.1212006 27.325624,44.9267632 27.1824065,45.7332901 C27.0893392,46.2549051 26.9991652,46.7774844 26.9051335,47.2990994 C26.8887382,47.3911775 26.8569121,47.4803631 26.8308726,47.5883499 L25.409306,47.5883499 C25.4194325,47.4581872 25.4189503,47.3420049 25.438721,47.2296793 C25.722745,45.618554 26.0115911,44.0083929 26.2912752,42.3963034 C26.320208,42.2314306 26.387718,42.1407988 26.5458841,42.0896979 C27.5373159,41.7642911 28.5446607,41.6640176 29.5761163,41.8346754 Z M7.40729681,16.6216733 C7.52451683,16.0477184 8.00708037,15.6203077 8.59113193,15.5731403 C8.7705155,15.5562673 8.95231013,15.5572115 9.13265813,15.5572115 C11.7687608,15.5572115 14.4066315,15.5572115 17.0462704,15.5572115 L17.0462704,15.5572115 C19.6846233,15.5572115 22.3224941,15.5572115 24.9598826,15.5572115 C25.1286575,15.5572115 25.2974324,15.5572115 25.4652428,15.5712119 C26.1456466,15.629062 26.6630621,16.1521234 26.7001926,16.8125787 C26.7397341,17.5178678 26.3144215,18.0838346 25.6272667,18.2303882 C25.4860945,18.2596948 25.3422799,18.2743955 25.1980963,18.2742579 C19.7651531,18.2765076 14.3322098,18.2777932 8.89926661,18.2781145 C8.593543,18.2781145 8.30083916,18.2352091 8.03128159,18.0741929 C7.52804575,17.7791511 7.27522107,17.1912086 7.40729681,16.6231196 L7.40729681,16.6216733 Z M6.22731941,23.252259 C6.44962001,22.811152 6.82092471,22.5662532 7.31519396,22.5199731 C7.434783,22.5088852 7.5563009,22.5146702 7.67637216,22.5146702 L26.4402793,22.5146702 C26.5367221,22.5146702 26.6331649,22.5122598 26.7296076,22.5146702 C27.4166234,22.5360735 27.9766705,23.0724476 28.0275283,23.7577283 C28.0783862,24.443009 27.6036492,25.056138 26.9273153,25.1786673 C26.7612994,25.2061797 26.5930942,25.2182833 26.4248485,25.2148237 C22.2311949,25.2173948 18.0373807,25.2183589 13.8434057,25.2177162 L13.391089,25.2177162 C13.3312945,25.3724652 13.2729466,25.5151621 13.2203853,25.6593053 C12.6095811,27.3340657 12.0002234,29.0088261 11.3923124,30.6835865 C11.3590397,30.7742183 11.3233559,30.8638859 11.298763,30.9569282 C11.2256,31.2098248 11.2691677,31.48217 11.4175762,31.6996404 C11.5659847,31.9171109 11.8037425,32.0570061 12.0659653,32.0811485 C12.1381298,32.0871763 12.2105782,32.0891077 12.2829615,32.0869335 L22.5502598,32.0869335 C22.6587579,32.0869335 22.767256,32.0869335 22.8757542,32.0830768 C23.4857548,32.0551159 23.8353598,31.5310904 23.599075,30.9742832 C23.3922053,30.4868961 23.1462762,30.016382 22.9365131,29.5280307 C22.8473036,29.3212166 22.7677383,29.0965654 22.7518252,28.8752887 C22.6969867,28.1992763 23.1372156,27.5820632 23.7943716,27.4136095 C24.4490872,27.2350639 25.1381203,27.5482869 25.4338989,28.1589117 C25.742998,28.7856211 26.0289508,29.4229364 26.3226191,30.056877 C26.4264281,30.2602229 26.5182066,30.469486 26.597481,30.6835865 C27.3010311,32.8331998 25.6330532,34.7890152 23.6993755,34.7813019 C19.4935059,34.7673215 15.2876363,34.7581619 11.0817667,34.7881876 C9.24019183,34.8010674 7.5423167,32.9609521 8.31193008,30.801215 C8.7844997,29.4750015 9.27635787,28.1545729 9.75519627,26.8312519 C9.94374191,26.3134935 10.1303587,25.7947709 10.3410862,25.2138595 L8.93832593,25.2138595 C8.43200134,25.2138595 7.92567675,25.2297683 7.41983437,25.2095207 C6.39416541,25.1757748 5.77403834,24.1498997 6.22731941,23.252259 Z M21.5255553,46.3869962 C22.2257298,46.4554521 22.8106553,46.0114526 22.9480863,45.2859159 C23.0855172,44.5603793 23.202213,43.8396634 23.328553,43.1194297 C23.5002212,42.135978 23.6714071,41.152687 23.8421108,40.1695567 C23.8676682,40.0249314 23.9173362,39.9174266 24.0885221,39.9179055 C24.5080482,39.9179055 24.9270921,39.9179055 25.3948396,39.9179055 C25.3784443,40.0813353 25.3741044,40.2071592 25.3524047,40.3325011 C25.0678985,41.9576068 24.7665149,43.5798201 24.4979217,45.2073362 C24.1685696,47.2055751 22.4195798,47.8549425 21.0047643,47.6866951 C20.8015043,47.6625788 20.6014861,47.6163462 20.4082657,47.548819 C19.5735534,47.2528194 19.1318455,46.5981491 19.1877823,45.7168992 C19.2114108,45.3461765 19.2813318,44.9778642 19.3454662,44.6109981 C19.6068262,43.1184655 19.8717223,41.6265757 20.1401547,40.1353287 C20.1502812,40.0774786 20.1695698,40.0210747 20.1883761,39.942495 L21.6658795,39.942495 C21.6547886,40.0610877 21.6523775,40.1637716 21.6350178,40.263081 C21.351476,41.8886688 21.0666484,43.5137745 20.7805348,45.1383982 C20.7589687,45.2445241 20.7428737,45.3516882 20.7323134,45.4594662 C20.7000051,45.9830097 21.0028354,46.3358953 21.5255553,46.3869962 Z M81.2048293,65.3430278 C81.1638411,71.4683892 77.5674899,77.0350151 72.0157613,79.6527322 C70.1775619,80.5204837 68.2453308,81.0343854 66.2103882,81.1365873 C65.6799529,81.163584 65.1495176,81.1847957 64.6190823,81.1847957 C48.7664612,81.1876882 32.9136794,81.1892951 17.0607368,81.1896165 C13.7011526,81.1896165 10.6183591,80.2948683 7.83164504,78.4084729 C7.57269618,78.2329943 7.32387381,78.0416069 7.07215815,77.8550403 C7.02288453,77.8155763 6.96706548,77.7850636 6.907241,77.7648906 C6.59508787,77.519349 6.29306123,77.263523 6.00116109,76.9974126 L6.01032315,76.9901813 L5.53437804,76.5428072 L5.53148475,76.5505206 C5.36431727,76.3846836 5.20084676,76.2156328 5.04107322,76.043368 C5.01840917,75.9262216 4.91859089,75.8669252 4.85397423,75.7941305 C3.50593352,74.2766018 2.4586324,72.5167913 1.76780529,70.6083511 C1.30729102,69.3351668 0.99626306,68.0272724 0.894998141,66.6750264 C0.859796527,66.2069226 0.827005982,65.7373726 0.826523768,65.2683047 C0.820469899,60.3275848 0.819129822,55.3863828 0.821701629,50.4446986 L0.821701629,49.8729468 C1.80156027,50.3183926 2.72307102,50.7484117 3.65374384,51.156737 C4.59164987,51.5679547 5.53437804,51.9700129 6.48337499,52.3532699 C7.43237193,52.7365268 8.38956652,53.104357 9.35158324,53.4553143 C10.3136,53.8062715 11.2828499,54.1384275 12.2564398,54.456121 C13.2300296,54.7738145 14.2089238,55.0760812 15.192158,55.3614751 C16.1753921,55.6468689 17.1639306,55.9173181 18.1563268,56.1694481 C19.1609391,56.4249528 20.1694091,56.663263 21.1817368,56.884379 C22.1824913,57.1032452 23.1864607,57.3055598 24.1936448,57.4913229 C25.2008288,57.677086 26.2109062,57.8462976 27.2238769,57.9989576 C28.2368475,58.150332 29.25239,58.2841907 30.2705043,58.4005337 C31.2886185,58.5168767 32.3076972,58.6176322 33.3277404,58.7028004 C34.3484265,58.7873259 35.3705592,58.8544963 36.3941385,58.9043116 C37.4177179,58.954127 38.4416187,58.9878729 39.4658411,59.0055493 C40.4900634,59.0222616 41.5144464,59.0222616 42.5389902,59.0055493 C43.563534,58.9888371 44.5872741,58.9546091 45.6102105,58.9028654 C46.6334684,58.8527286 47.6556011,58.786201 48.6766087,58.7032825 C49.6976163,58.6203641 50.7168557,58.5207333 51.734327,58.4043903 C52.7517983,58.2874046 53.7671801,58.1532245 54.7804722,58.0018501 C55.7937643,57.8504756 56.8041632,57.682389 57.8116687,57.49759 C58.8185314,57.3124697 59.8225007,57.1103157 60.8235767,56.8911281 C61.835583,56.6693694 62.8438922,56.4305771 63.8485045,56.1747511 C64.8409007,55.9224604 65.8291177,55.6536181 66.8131556,55.3682243 C67.7971934,55.0828304 68.7760876,54.7816885 69.7498382,54.4647985 C70.7229458,54.1472657 71.6907491,53.8130207 72.653248,53.4620634 C73.615747,53.1111062 74.5718164,52.7439187 75.5214563,52.3605011 C76.4710962,51.9777263 77.4146281,51.5796855 78.3520519,51.1663786 C79.2865824,50.7566071 80.2114687,50.3241776 81.1763787,49.8849989 C81.1903629,50.0137154 81.2091692,50.103383 81.2091692,50.1930507 C81.2120625,55.2443286 81.238102,60.2936782 81.2048293,65.3430278 Z" id="形状" fill="#D73028"></path>
                    <path d="M49.935187,43.3937356 C50.5360255,43.1917423 50.956516,42.6706093 50.9478361,41.8934896 C50.9425318,41.4726302 50.7260178,41.1925393 50.325298,41.065269 C49.9491712,40.9461943 49.5667755,40.9727089 49.1834155,41.0252561 C48.9866722,41.0522528 48.909518,41.1578292 48.880103,41.3564479 C48.8029487,41.8790271 48.6978261,42.3972676 48.6066877,42.9179185 C48.575826,43.0929151 48.5546086,43.2688758 48.5237469,43.4771361 C49.0204272,43.5388429 49.4780482,43.5470383 49.935187,43.3937356 Z" id="路径" fill="#D73028"></path>
                    <path d="M37.409681,42.9290064 C36.9525422,42.915026 36.6328344,43.144016 36.3931741,43.5046149 C36.1207233,43.9139044 36.0025809,44.3791156 35.9283199,44.8583073 C35.8747942,45.20589 35.8482724,45.5520264 35.9447152,45.8957524 C36.0739485,46.3566249 36.4331979,46.5846507 36.9038386,46.5084814 C37.2577836,46.4515955 37.5244479,46.2635826 37.7236023,45.9690292 C38.0982825,45.4088474 38.2058162,44.7744246 38.2540375,44.0406925 C38.2352312,43.9129402 38.2255869,43.7066082 38.1720612,43.5103999 C38.061152,43.1175013 37.813294,42.9415406 37.409681,42.9290064 Z" id="路径" fill="#D73028"></path>
                    <path d="M54.3117603,46.6290024 C54.7091045,46.7162597 55.0963223,46.6617842 55.5115085,46.5571719 C55.6079512,46.0148272 55.7072873,45.4763392 55.8119277,44.8978382 C55.2718482,44.8742161 54.7992785,44.9089261 54.349373,45.1017598 C54.183821,45.1704942 54.0345046,45.2731319 53.9110405,45.4030624 C53.477048,45.8856286 53.6815067,46.4906443 54.3117603,46.6290024 Z" id="路径" fill="#D73028"></path>
                    <path d="M33.6464838,62.9306786 L39.6948927,62.9306786 C40.5392492,62.9306786 41.0643801,63.6186127 40.8676369,64.4656346 L38.0495789,76.5524489 C37.8509067,77.3960962 37.0055858,78.0849945 36.160747,78.0849945 L30.1147492,78.0849945 C29.2713571,78.0849945 28.7452617,77.3960962 28.942005,76.5524489 L31.7590986,64.4651525 C31.9563241,63.6181306 32.8011628,62.9301965 33.6464838,62.9301965" id="路径" fill="#D31F35"></path>
                    <path d="M39.1919436,62.9306786 L46.1473968,62.9306786 C46.9917533,62.9306786 46.6108044,63.6186127 46.4126145,64.4656346 L43.5950387,76.5524489 C43.397331,77.3960962 43.4590543,78.0849945 42.6132512,78.0849945 L35.6592446,78.0849945 C34.8134414,78.0849945 34.2897571,77.3960962 34.4884292,76.5524489 L37.3040762,64.4651525 C37.5037127,63.6181306 38.3471048,62.9301965 39.1919436,62.9301965" id="路径" fill="#004276"></path>
                    <path d="M45.8715705,62.9306786 L51.9199794,62.9306786 C52.7657825,62.9306786 53.2909135,63.6186127 53.0922413,64.4656346 L50.2765944,76.5524489 C50.0779223,77.3960962 49.2321191,78.0849945 48.3867981,78.0849945 L42.3412825,78.0849945 C41.4954794,78.0849945 40.9708306,77.3960962 41.1690205,76.5524489 L43.9846675,64.4651525 C44.181893,63.6181306 45.0262495,62.9301965 45.8720527,62.9301965" id="路径" fill="#09777F"></path>
                </g>
            </g>
        </g>
    </g>
</svg>