<?xml version="1.0" encoding="UTF-8"?>
<svg width="120px" height="90px" viewBox="0 0 120 90" version="1.1" xmlns="http://www.w3.org/2000/svg" xmlns:xlink="http://www.w3.org/1999/xlink">
    <title>wechatpay</title>
    <g id="LOGO-+-SDK-+-payment-icon" stroke="none" stroke-width="1" fill="none" fill-rule="evenodd">
        <g id="payment" transform="translate(-218.000000, -955.000000)">
            <g id="wechatpay" transform="translate(218.000000, 955.000000)">
                <g id="payment-4:3bg" transform="translate(-20.000000, -15.000000)"></g>
                <g id="WeChat-Pay" transform="translate(15.000000, 5.000000)" fill="#09BB07" fill-rule="nonzero">
                    <path d="M32.9566265,50.5915493 C31.4843373,51.2676056 29.6722892,50.7042254 28.9927711,49.3521127 L28.7662651,48.9014085 L20.4987952,30.8732394 C20.3855422,30.6478873 20.3855422,30.4225352 20.3855422,30.1971831 C20.3855422,29.4084507 21.0650602,28.7323944 21.8578313,28.7323944 C22.1975904,28.7323944 22.5373494,28.8450704 22.7638554,29.0704225 L32.5036145,35.943662 C33.7493976,36.7323944 35.2216867,36.8450704 36.4674699,36.3943662 L82.2216867,16 C74.1807229,6.42253521 60.5903614,0 45.3012048,0 C20.2722892,0 0,16.9014085 0,37.7464789 C0,49.1267606 6.11566265,59.3802817 15.6289157,66.3661972 C16.4216867,66.9295775 16.8746988,67.8309859 16.8746988,68.8450704 C16.8746988,69.1830986 16.7614458,69.5211268 16.7614458,69.7464789 C15.9686747,72.5633803 14.8361446,77.1830986 14.7228916,77.4084507 C14.6096386,77.7464789 14.4963855,78.084507 14.4963855,78.5352113 C14.4963855,79.3239437 15.1759036,80 15.9686747,80 C16.3084337,80 16.5349398,79.8873239 16.8746988,79.7746479 L26.8409639,74.028169 C27.5204819,73.5774648 28.426506,73.3521127 29.2192771,73.3521127 C29.6722892,73.3521127 30.1253012,73.4647887 30.4650602,73.5774648 C35.3349398,74.8169014 40.3180723,75.4929577 45.3012048,75.4929577 C70.3301205,75.4929577 90.6024096,58.5915493 90.6024096,37.7464789 C90.6024096,31.5492958 88.7903614,25.4647887 85.5060241,20.2816901 L33.2963855,50.3661972 L32.9566265,50.5915493 Z" id="路径"></path>
                </g>
            </g>
        </g>
    </g>
</svg>