<?xml version="1.0" encoding="UTF-8"?>
<svg width="180px" height="58px" viewBox="0 0 180 58" version="1.1" xmlns="http://www.w3.org/2000/svg" xmlns:xlink="http://www.w3.org/1999/xlink">
    <title>wechatpay_horizon</title>
    <defs>
        <path d="M0,23.142108 C0,30.1154756 3.71046968,36.3884833 9.52120522,40.6309512 L9.52120522,40.6309512 C9.98626408,40.9685347 10.2913027,41.5177378 10.2913027,42.1425193 L10.2913027,42.1425193 C10.2913027,42.3491003 10.2512976,42.535527 10.1962907,42.7320308 L10.1962907,42.7320308 C9.7312318,44.4753728 8.99113812,47.2667352 8.95613369,47.3977378 L8.95613369,47.3977378 C8.89612609,47.6194344 8.8061147,47.8461697 8.8061147,48.0729049 L8.8061147,48.0729049 C8.8061147,48.586838 9.2161666,49 9.72623117,49 L9.72623117,49 C9.92125586,49 10.0912774,48.9294602 10.2562983,48.8286889 L10.2562983,48.8286889 L16.2920623,45.3168123 C16.7421193,45.0548072 17.22218,44.8935733 17.7522471,44.8935733 L17.7522471,44.8935733 C18.0372832,44.8935733 18.3073174,44.9389203 18.5623497,45.0144987 L18.5623497,45.0144987 C21.377706,45.8307455 24.4130903,46.2842159 27.5584884,46.2842159 L27.5584884,46.2842159 C42.7804152,46.2842159 55.1219775,35.9198972 55.1219775,23.142108 L55.1219775,23.142108 C55.1219775,19.2724936 53.9818331,15.6245758 51.9815799,12.4200514 L51.9815799,12.4200514 L20.247563,30.8813368 L20.042537,30.9972237 C19.797506,31.1231877 19.5174706,31.1987661 19.2224332,31.1987661 L19.2224332,31.1987661 C18.5273452,31.1987661 17.9272693,30.8158355 17.6122294,30.2515167 L17.6122294,30.2515167 L17.4972148,29.9794344 L12.4765793,18.889563 C12.426573,18.7686375 12.3865679,18.6325964 12.3865679,18.5015938 L12.3865679,18.5015938 C12.3865679,17.9876607 12.8016205,17.5744987 13.3066844,17.5744987 L13.3066844,17.5744987 C13.5117103,17.5744987 13.706735,17.6450386 13.8617547,17.7558869 L13.8617547,17.7558869 L19.7775035,22.0033933 C20.2125586,22.2905913 20.7276237,22.4568638 21.2876946,22.4568638 L21.2876946,22.4568638 C21.6177364,22.4568638 21.9327763,22.396401 22.2278136,22.2855527 L22.2278136,22.2855527 L50.0713381,9.8 C45.0807064,3.8696144 36.8646664,0 27.5584884,0 L27.5584884,0 C12.3365616,0 0,10.3592802 0,23.142108 L0,23.142108 Z" id="path-1"></path>
        <path d="M0,10.591054 L0.980124066,12.2940874 C1.59020129,11.4879177 2.07526269,10.5860154 2.79535384,9.21552699 L2.79535384,9.21552699 L2.79535384,21.7413882 L4.60058235,21.7413882 L4.59558172,5.69861183 C5.43068743,3.87969152 6.51582479,0.428277635 6.51582479,0.428277635 L6.51582479,0.428277635 L4.8056083,0 C4.8056083,0 2.53032029,7.37141388 0,10.591054 L0,10.591054 Z" id="path-3"></path>
        <path d="M0,5.89511568 L0.855108242,7.38652956 C2.81035574,5.58272494 4.48556779,3.22467866 5.55570325,0.937172237 L5.55570325,0.937172237 L4.14052412,0 C3.02538296,2.26231362 1.55019623,4.38858612 0,5.89511568 L0,5.89511568 Z" id="path-5"></path>
        <path d="M0,7.07917738 C0,7.07917738 0.720091151,8.34385604 0.915115837,8.68143959 L0.915115837,8.68143959 C1.18515002,8.36904884 1.73521965,7.70899743 2.66033675,6.45439589 L2.66033675,6.45439589 L2.66033675,15.7858098 L4.28554247,15.7858098 L4.28554247,3.88473008 C4.46056463,3.53203085 5.10064565,2.41347044 5.78573237,0.775938303 L5.78573237,0.775938303 L4.34555007,0 C3.28041524,2.67547558 1.74022028,5.22498715 0,7.07917738 L0,7.07917738 Z" id="path-7"></path>
        <path d="M1.79022661,0 C1.79022661,3.00298201 2.02525636,5.2048329 0,6.81717224 L0,6.81717224 C0.255032283,7.23537275 0.825104444,8.24812339 0.825104444,8.24812339 L0.825104444,8.24812339 C3.18040258,6.39393316 3.32542094,5.1040617 3.32542094,1.54683805 L3.32542094,1.54683805 L6.43081403,1.54683805 L6.43081403,3.93007712 C6.43081403,4.82190231 6.16077985,5.29048843 5.96075453,5.51218509 L5.96075453,5.51218509 C6.11077352,5.75403599 6.8358653,7.01367609 6.8358653,7.01367609 L6.8358653,7.01367609 L10.2612989,4.10138817 L9.51620458,2.79136247 C9.2011647,3.07352185 8.27104697,3.89984576 7.96600836,4.15681234 L7.96600836,4.15681234 L7.96600836,0 L1.79022661,0 Z" id="path-9"></path>
        <path d="M3.52044563,0.136041131 C2.79035321,3.46652956 1.77022408,6.3133162 0.410051905,8.73182519 L0.410051905,8.73182519 C0.560070895,8.97871465 1.31516648,10.3088946 1.31516648,10.3088946 L1.31516648,10.3088946 C1.60520319,9.87557841 1.75522218,9.60349614 2.04025826,9.0996401 L2.04025826,9.0996401 C2.30029118,11.4879177 2.85036081,13.7804627 3.68046588,15.9117738 L3.68046588,15.9117738 C2.34529687,18.2798972 0,20.2499743 0,20.2499743 L0,20.2499743 L0.870110141,21.7867352 C2.59032789,20.2398972 3.86048867,18.7333676 4.55057602,17.5694602 L4.55057602,17.5694602 C5.16065325,18.9197943 7.86099506,21.7061183 7.86099506,21.7061183 L7.86099506,21.7061183 C7.86099506,21.7061183 8.67109761,20.3053985 8.78611217,20.0786632 L8.78611217,20.0786632 C8.2610457,19.5949614 6.3958096,17.8163496 5.43068743,15.9168123 L5.43068743,15.9168123 C6.65084188,13.5990746 7.42093936,10.1980463 7.72097734,5.80442159 L7.72097734,5.80442159 L8.89612609,5.80442159 L8.89612609,4.25758355 L4.03551082,4.25758355 C4.43056083,3.03825193 4.80060767,1.7685347 5.13565008,0.473624679 L5.13565008,0.473624679 L5.17565515,0.322467866 L3.55044942,0 L3.52044563,0.136041131 Z M3.18040258,6.67105398 C3.23540955,6.55012853 3.4854412,5.91023136 3.51544499,5.80442159 L3.51544499,5.80442159 L6.18578301,5.80442159 C5.95575389,9.341491 5.44068869,12.1026221 4.64558805,14.0223136 L4.64558805,14.0223136 C4.00550703,12.3646272 3.51544499,9.89573265 3.18040258,6.67105398 L3.18040258,6.67105398 Z" id="path-11"></path>
        <path d="M5.21065958,0.12092545 C3.910495,4.05100257 2.12026839,7.59311054 0,10.5053985 L0,10.5053985 L0.995125965,12.2588175 C1.80522851,11.2107969 2.53032029,10.1678149 3.14539815,9.14498715 L3.14539815,9.14498715 L3.14539815,21.7363496 L4.95062666,21.7363496 L4.95062666,5.6885347 C5.60570958,4.31804627 6.3208001,2.59485861 7.09089758,0.579434447 L7.09089758,0.579434447 L7.15090518,0.423239075 L5.25566527,0 L5.21065958,0.12092545 Z" id="path-13"></path>
        <path d="M3.74047348,0 L3.74047348,18.0934704 C3.74047348,18.8391774 3.14539815,19.4438046 2.40530447,19.4438046 L2.40530447,19.4438046 L0,19.4438046 L1.08013673,21.3332648 L2.40530447,21.3332648 C4.18052918,21.3332648 5.62071148,19.8821594 5.62071148,18.0934704 L5.62071148,18.0934704 L5.62071148,0 L3.74047348,0 Z" id="path-15"></path>
        <path d="M9.81124193,0 L9.81124193,3.14910026 L0.205025953,3.14910026 L0.205025953,4.78663239 L9.81124193,4.78663239 L9.81124193,8.20781491 L2.3652994,8.20781491 C2.3652994,8.20781491 3.45043676,13.216144 9.07114825,17.2822622 L9.07114825,17.2822622 C6.78585897,18.5217481 3.72547158,19.4689974 0,20.058509 L0,20.058509 C0,20.058509 0.780098747,21.4441131 1.07013546,21.8723907 L1.07013546,21.8723907 C5.17065451,21.1518766 8.34105583,19.8771208 10.7963666,18.4058612 L10.7963666,18.4058612 C13.2266743,19.8368123 16.337068,21.0611825 20.3125712,21.7514653 L20.3125712,21.7514653 C20.8176351,20.9402571 21.4077098,19.8821594 21.4077098,19.8821594 L21.4077098,19.8821594 C17.7722497,19.3128021 14.7918724,18.4612853 12.5265856,17.2570694 L12.5265856,17.2570694 C18.122294,13.1204113 19.0774149,8.20781491 19.0774149,8.20781491 L19.0774149,8.20781491 L11.6114698,8.20781491 L11.6114698,4.78663239 L20.8626408,4.78663239 L20.8626408,3.14910026 L11.6114698,3.14910026 L11.6114698,0 L9.81124193,0 Z M4.94562603,9.82015424 L16.5570958,9.82015424 C15.9320167,11.1604113 14.3368148,13.8661183 10.8013673,16.2443188 L10.8013673,16.2443188 C7.25091784,13.9013882 5.60570958,11.2158355 4.94562603,9.82015424 L4.94562603,9.82015424 Z" id="path-17"></path>
        <path d="M12.9616407,0 L11.391442,6.05131105 C11.0163945,7.54272494 10.6863527,8.87794344 10.4363211,10.1980463 L10.4363211,10.1980463 L10.4013166,10.1980463 C10.2262945,8.92832905 9.90625396,7.50745501 9.56621091,6.08658098 L9.56621091,6.08658098 L8.12602861,0 L6.51582479,0 L4.9256235,6.05131105 C4.52057222,7.5981491 4.15052538,9.01902314 3.9555007,10.213162 L3.9555007,10.213162 L3.92049627,10.213162 C3.71046968,9.05933162 3.39042917,7.56287918 3.04038486,6.0714653 L3.04038486,6.0714653 L1.62520572,0 L0,0 L3.02038233,11.9917738 L4.62558552,11.9917738 L6.3208001,5.74899743 C6.7608558,4.20215938 7.02588935,3.02817481 7.24091657,1.83403599 L7.24091657,1.83403599 L7.27092037,1.83403599 C7.43594126,3.04329049 7.68097227,4.21727506 8.05101912,5.74899743 L8.05101912,5.74899743 L9.55120901,11.9917738 L11.1614128,11.9917738 L14.5318395,0 L12.9616407,0 Z" id="path-19"></path>
        <path d="M0,4.6455527 C0,7.24041131 1.57519939,8.98879177 4.20553235,8.98879177 L4.20553235,8.98879177 C5.56570452,8.98879177 6.50082289,8.70159383 7.05089252,8.45470437 L7.05089252,8.45470437 C7.05089252,8.45470437 6.61083681,7.69388175 6.46581846,7.45706941 L6.46581846,7.45706941 C5.95075326,7.6485347 5.3356754,7.77953728 4.41555893,7.77953728 L4.41555893,7.77953728 C2.8653627,7.77953728 1.52519306,6.90282776 1.485188,4.79167095 L1.485188,4.79167095 L7.49094822,4.79167095 C7.50595012,4.62539846 7.54595518,4.378509 7.54595518,4.06107969 L7.54595518,4.06107969 C7.54595518,2.47393316 6.80086087,0 4.01050766,0 L4.01050766,0 C1.52519306,0 0,2.04565553 0,4.6455527 L0,4.6455527 Z M3.89049247,1.11856041 C5.63571338,1.11856041 6.06076719,2.67043702 6.04076465,3.66303342 L6.04076465,3.66303342 L1.50519053,3.66303342 C1.62520572,2.57974293 2.31529308,1.11856041 3.89049247,1.11856041 L3.89049247,1.11856041 Z" id="path-21"></path>
        <path d="M0,6.30323907 C0,10.2333162 2.52531966,12.3696658 5.87574377,12.3696658 L5.87574377,12.3696658 C7.32592733,12.3696658 8.45607039,12.0824679 9.02114192,11.8003085 L9.02114192,11.8003085 C9.02114192,11.8003085 8.53107988,10.9487918 8.39106216,10.7069409 L8.39106216,10.7069409 C7.7909862,10.9286375 6.98588429,11.0697172 6.19578428,11.0697172 L6.19578428,11.0697172 C3.29541714,11.0697172 1.62520572,9.18025707 1.62520572,6.24781491 L1.62520572,6.24781491 C1.62520572,3.09367609 3.47543993,1.29994859 6.26579314,1.29994859 L6.26579314,1.29994859 C7.10089885,1.29994859 7.82099,1.45614396 8.37606026,1.67280206 L8.37606026,1.67280206 C8.56608431,1.36041131 9.04114445,0.534087404 9.04114445,0.534087404 L9.04114445,0.534087404 C8.63109254,0.322467866 7.70097481,0 6.21578681,0 L6.21578681,0 C2.52531966,0 0,2.54951157 0,6.30323907 L0,6.30323907 Z" id="path-23"></path>
        <path d="M0,0 L0,12.631671 L1.55019623,12.631671 L1.55019623,7.43691517 C1.55019623,7.13460154 1.57019876,6.90282776 1.66021015,6.69120823 L1.66021015,6.69120823 C1.94524623,5.83465296 2.73534625,5.12421594 3.74547411,5.12421594 L3.74547411,5.12421594 C5.21065958,5.12421594 5.72072414,6.30323907 5.72072414,7.68884319 L5.72072414,7.68884319 L5.72072414,12.631671 L7.275921,12.631671 L7.275921,7.50745501 C7.275921,4.53470437 5.44068869,3.82426735 4.29054311,3.82426735 L4.29054311,3.82426735 C3.70546905,3.82426735 3.16040005,4.00061697 2.70034182,4.26766067 L2.70034182,4.26766067 C2.22528168,4.53470437 1.83523231,4.92771208 1.59020129,5.37614396 L1.59020129,5.37614396 L1.55019623,5.37614396 L1.55019623,0 L0,0 Z" id="path-25"></path>
        <path d="M0.620078491,0.765861183 C0.620078491,0.765861183 1.00512723,1.43598972 1.15014559,1.6929563 L1.15014559,1.6929563 C1.73021902,1.36041131 2.47531333,1.15886889 3.19540448,1.15886889 L3.19540448,1.15886889 C4.94562603,1.15886889 5.14065072,2.43866324 5.14065072,3.15413882 L5.14065072,3.15413882 L5.14065072,3.33048843 C1.84023294,3.31033419 0,4.44904884 0,6.52997429 L0,6.52997429 C0,7.77953728 0.885112039,9.00894602 2.61533105,9.00894602 L2.61533105,9.00894602 C3.83048487,9.00894602 4.75560197,8.39928021 5.22566148,7.72411311 L5.22566148,7.72411311 L5.28066844,7.72411311 L5.40568426,8.8074036 L6.8208634,8.8074036 C6.71084947,8.22293059 6.67584504,7.49233933 6.67584504,6.74159383 L6.67584504,6.74159383 L6.67584504,3.52195373 C6.67584504,1.79876607 6.04076465,0 3.4254336,0 L3.4254336,0 C2.35029751,0 1.32516774,0.302313625 0.620078491,0.765861183 L0.620078491,0.765861183 Z M1.55519686,6.35362468 C1.55519686,4.68082262 3.48044056,4.378509 5.17565515,4.41377892 L5.17565515,4.41377892 L5.17565515,5.91023136 C5.17565515,6.06642674 5.14065072,6.24277635 5.08564375,6.40904884 L5.08564375,6.40904884 C4.84061274,7.13460154 4.13052285,7.84503856 3.02038233,7.84503856 L3.02038233,7.84503856 C2.22528168,7.84503856 1.55519686,7.37141388 1.55519686,6.35362468 L1.55519686,6.35362468 Z" id="path-27"></path>
        <path d="M0.620078491,0.765861183 C0.620078491,0.765861183 1.01012786,1.43598972 1.15514622,1.6929563 L1.15514622,1.6929563 C1.73521965,1.36041131 2.48031396,1.15886889 3.20040511,1.15886889 L3.20040511,1.15886889 C4.94562603,1.15886889 5.14065072,2.43866324 5.14065072,3.15413882 L5.14065072,3.15413882 L5.14065072,3.33048843 C1.84023294,3.31033419 0,4.44904884 0,6.52997429 L0,6.52997429 C0,7.77953728 0.890112672,9.00894602 2.61533105,9.00894602 L2.61533105,9.00894602 C3.8354855,9.00894602 4.75560197,8.39928021 5.23066211,7.72411311 L5.23066211,7.72411311 L5.28566907,7.72411311 L5.40568426,8.8074036 L6.8208634,8.8074036 C6.71585011,8.22293059 6.68084568,7.49233933 6.68084568,6.74159383 L6.68084568,6.74159383 L6.68084568,3.52195373 C6.68084568,1.79876607 6.04576529,0 3.43043423,0 L3.43043423,0 C2.35029751,0 1.33016838,0.302313625 0.620078491,0.765861183 L0.620078491,0.765861183 Z M1.56019749,6.35362468 C1.56019749,4.68082262 3.4854412,4.378509 5.17565515,4.41377892 L5.17565515,4.41377892 L5.17565515,5.91023136 C5.17565515,6.06642674 5.14065072,6.24277635 5.09064439,6.40904884 L5.09064439,6.40904884 C4.84561337,7.13460154 4.13552348,7.84503856 3.02538296,7.84503856 L3.02538296,7.84503856 C2.23028231,7.84503856 1.56019749,7.37141388 1.56019749,6.35362468 L1.56019749,6.35362468 Z" id="path-29"></path>
        <path d="M1.32516774,0 L1.32516774,2.47393316 L0,2.47393316 L0,3.66807198 L1.32516774,3.66807198 L1.32516774,8.36401028 C1.32516774,9.38179949 1.485188,10.1426221 1.9252437,10.6011311 L1.9252437,10.6011311 C2.29529054,11.0344473 2.8803646,11.2662211 3.60545639,11.2662211 L3.60545639,11.2662211 C4.20053171,11.2662211 4.68059248,11.175527 4.98063046,11.0546015 L4.98063046,11.0546015 C4.98063046,11.0546015 4.54057476,10.2786632 4.36055197,9.97131105 L4.36055197,9.97131105 C4.25053804,9.97634961 4.13552348,9.98138817 4.01050766,9.98138817 L4.01050766,9.98138817 C3.14539815,9.98138817 2.84536017,9.38179949 2.84536017,8.30858612 L2.84536017,8.30858612 L2.84536017,3.66807198 L5.07064185,3.66807198 L5.07064185,2.47393316 L2.84536017,2.47393316 L2.84536017,0 L1.32516774,0 Z" id="path-31"></path>
        <path d="M0,0.231773779 L0,12.0824679 L1.53519433,12.0824679 L1.53519433,7.28071979 C1.88523864,7.37141388 2.31529308,7.381491 2.77535131,7.381491 L2.77535131,7.381491 C4.27054057,7.381491 5.59570832,6.93809769 6.4108115,6.0714653 L6.4108115,6.0714653 C7.01088745,5.4466838 7.32592733,4.59012853 7.32592733,3.50683805 L7.32592733,3.50683805 C7.32592733,2.4437018 6.94087859,1.56699229 6.28579567,0.997634961 L6.28579567,0.997634961 C5.57570579,0.357737789 4.46556526,0 2.95037346,0 L2.95037346,0 C1.71021648,0 0.740093683,0.110848329 0,0.231773779 L0,0.231773779 Z M1.53519433,6.01604113 L1.53519433,1.35537275 C1.80022788,1.2848329 2.31529308,1.22940874 2.9853779,1.22940874 L2.9853779,1.22940874 C4.67559185,1.22940874 5.79573364,1.99526992 5.79573364,3.57737789 L5.79573364,3.57737789 C5.79573364,5.23506427 4.66559058,6.14200514 2.80535511,6.14200514 L2.80535511,6.14200514 C2.29529054,6.14200514 1.87023674,6.10673522 1.53519433,6.01604113 L1.53519433,6.01604113 Z" id="path-33"></path>
        <path d="M6.39080896,0 L4.69559438,5.05367609 C4.48556779,5.67845758 4.30554501,6.33347044 4.14552475,6.85244216 L4.14552475,6.85244216 L4.11052032,6.85244216 C3.9705026,6.33347044 3.76047601,5.65830334 3.56545132,5.09398458 L3.56545132,5.09398458 L1.69521458,0 L0,0 L3.15539942,7.93573265 C3.23040891,8.12719794 3.26541334,8.25820051 3.26541334,8.34385604 L3.26541334,8.34385604 C3.26541334,8.43455013 3.21040638,8.56051414 3.14039752,8.72174807 L3.14039752,8.72174807 C2.79035321,9.51784062 2.25528548,10.1224679 1.83523231,10.4600514 L1.83523231,10.4600514 C1.37517407,10.8530591 0.860108875,11.1049871 0.475060134,11.2259126 L0.475060134,11.2259126 C0.475060134,11.2259126 1.05513356,12.2336247 1.18515002,12.4603599 L1.18515002,12.4603599 C1.60020256,12.3293573 2.18527662,12.0522365 2.77035068,11.5332648 L2.77035068,11.5332648 C3.82548424,10.6061697 4.59058109,9.08956298 5.70072161,6.13696658 L5.70072161,6.13696658 L8.03101658,0 L6.39080896,0 Z" id="path-35"></path>
    </defs>
    <g id="LOGO-+-SDK-+-payment-icon" stroke="none" stroke-width="1" fill="none" fill-rule="evenodd">
        <g id="payment_horizon" transform="translate(-188.000000, -971.000000)">
            <g id="wechatpay_horizon" transform="translate(188.000000, 971.000000)">
                <g id="payment-4:3bg" transform="translate(-30.000000, -9.666667)"></g>
                <g id="编组" transform="translate(11.000000, 4.000000)">
                    <g>
                        <mask id="mask-2" fill="white">
                            <use xlink:href="#path-1"></use>
                        </mask>
                        <g id="Clip-2"></g>
                        <polygon id="Fill-1" fill="#1AAC19" mask="url(#mask-2)" points="-3.41543233 52.4362982 58.5324092 52.4362982 58.5324092 -3.44133676 -3.41543233 -3.44133676"></polygon>
                    </g>
                    <g transform="translate(89.441322, 3.310334)">
                        <mask id="mask-4" fill="white">
                            <use xlink:href="#path-3"></use>
                        </mask>
                        <g id="Clip-4"></g>
                        <polygon id="Fill-3" fill="#030100" mask="url(#mask-4)" points="-3.4104317 25.1776864 9.92625649 25.1776864 9.92625649 -3.44133676 -3.4104317 -3.44133676"></polygon>
                    </g>
                    <path d="M97.2423092,24.6486375 L109.948918,24.6486375 L109.948918,17.1109512 L97.2423092,17.1109512 L97.2423092,24.6486375 Z M99.0475377,23.0967609 L108.2337,23.0967609 L108.2337,18.7484833 L99.0475377,18.7484833 L99.0475377,23.0967609 Z" id="Fill-5" fill="#030100"></path>
                    <polygon id="Fill-6" fill="#030100" points="97.0622864 15.0602571 110.12894 15.0602571 110.12894 13.513419 97.0622864 13.513419"></polygon>
                    <polygon id="Fill-7" fill="#030100" points="97.0622864 11.4576864 110.12894 11.4576864 110.12894 9.91084833 97.0622864 9.91084833"></polygon>
                    <polygon id="Fill-8" fill="#030100" points="95.9021395 7.85511568 111.374098 7.85511568 111.374098 6.21758355 95.9021395 6.21758355"></polygon>
                    <polygon id="Fill-9" fill="#030100" points="102.125427 3.94771208 103.445594 7.17239075 105.040796 6.63830334 103.585612 3.30781491"></polygon>
                    <g transform="translate(66.148373, 3.229717)">
                        <mask id="mask-6" fill="white">
                            <use xlink:href="#path-5"></use>
                        </mask>
                        <g id="Clip-11"></g>
                        <polygon id="Fill-10" fill="#030100" mask="url(#mask-6)" points="-3.41543233 10.8278663 8.97113559 10.8278663 8.97113559 -3.4362982 -3.41543233 -3.4362982"></polygon>
                    </g>
                    <g transform="translate(65.863337, 9.265913)">
                        <mask id="mask-8" fill="white">
                            <use xlink:href="#path-7"></use>
                        </mask>
                        <g id="Clip-13"></g>
                        <polygon id="Fill-12" fill="#030100" mask="url(#mask-8)" points="-3.41543233 19.222108 9.19616407 19.222108 9.19616407 -3.4362982 -3.41543233 -3.4362982"></polygon>
                    </g>
                    <g transform="translate(70.758957, 16.214087)">
                        <mask id="mask-10" fill="white">
                            <use xlink:href="#path-9"></use>
                        </mask>
                        <g id="Clip-15"></g>
                        <polygon id="Fill-14" fill="#030100" mask="url(#mask-10)" points="-3.4104317 11.6844216 13.6717306 11.6844216 13.6717306 -3.44133676 -3.4104317 -3.44133676"></polygon>
                    </g>
                    <polygon id="Fill-16" fill="#030100" points="75.2255222 3.60760925 75.2255222 9.28102828 73.5703127 9.28102828 73.5703127 5.31568123 72.0351184 5.31568123 72.0351184 10.7371722 79.8661096 10.7371722 79.8661096 5.22498715 78.4209267 5.22498715 78.4209267 9.28102828 76.7607165 9.28102828 76.7607165 3.60760925"></polygon>
                    <g transform="translate(79.215027, 3.224679)">
                        <mask id="mask-12" fill="white">
                            <use xlink:href="#path-11"></use>
                        </mask>
                        <g id="Clip-18"></g>
                        <polygon id="Fill-17" fill="#030100" mask="url(#mask-12)" points="-3.41543233 25.2230334 12.3065578 25.2230334 12.3065578 -3.44133676 -3.41543233 -3.44133676"></polygon>
                    </g>
                    <polygon id="Fill-19" fill="#030100" points="72.1891379 14.2440103 79.5350677 14.2440103 79.5350677 12.6971722 72.1891379 12.6971722"></polygon>
                    <g transform="translate(136.427269, 3.315373)">
                        <mask id="mask-14" fill="white">
                            <use xlink:href="#path-13"></use>
                        </mask>
                        <g id="Clip-21"></g>
                        <polygon id="Fill-20" fill="#030100" mask="url(#mask-14)" points="-3.41543233 25.1726478 10.5563362 25.1726478 10.5563362 -3.44133676 -3.41543233 -3.44133676"></polygon>
                    </g>
                    <polygon id="Fill-22" fill="#030100" points="142.973098 10.2887404 158 10.2887404 158 8.56051414 142.973098 8.56051414"></polygon>
                    <polygon id="Fill-23" fill="#030100" points="145.12387 13.8560411 148.189258 19.1364524 149.899475 18.1942416 146.629061 12.9591774"></polygon>
                    <g transform="translate(149.248892, 3.406067)">
                        <mask id="mask-16" fill="white">
                            <use xlink:href="#path-15"></use>
                        </mask>
                        <g id="Clip-25"></g>
                        <polygon id="Fill-24" fill="#030100" mask="url(#mask-16)" points="-3.41543233 24.7746015 9.03114318 24.7746015 9.03114318 -3.4362982 -3.41543233 -3.4362982"></polygon>
                    </g>
                    <g transform="translate(113.379352, 3.249871)">
                        <mask id="mask-18" fill="white">
                            <use xlink:href="#path-17"></use>
                        </mask>
                        <g id="Clip-27"></g>
                        <polygon id="Fill-26" fill="#030100" mask="url(#mask-18)" points="-3.4104317 25.3086889 24.8181415 25.3086889 24.8181415 -3.44133676 -3.4104317 -3.44133676"></polygon>
                    </g>
                    <g transform="translate(66.413407, 31.208843)">
                        <mask id="mask-20" fill="white">
                            <use xlink:href="#path-19"></use>
                        </mask>
                        <g id="Clip-29"></g>
                        <polygon id="Fill-28" fill="#030100" mask="url(#mask-20)" points="-3.41543233 15.4331105 17.9422712 15.4331105 17.9422712 -3.4362982 -3.41543233 -3.4362982"></polygon>
                    </g>
                    <g transform="translate(81.700342, 34.393213)">
                        <mask id="mask-22" fill="white">
                            <use xlink:href="#path-21"></use>
                        </mask>
                        <g id="Clip-31"></g>
                        <polygon id="Fill-30" fill="#030100" mask="url(#mask-22)" points="-3.4104317 12.42509 10.9563869 12.42509 10.9563869 -3.4362982 -3.4104317 -3.4362982"></polygon>
                    </g>
                    <g transform="translate(91.046525, 31.012339)">
                        <mask id="mask-24" fill="white">
                            <use xlink:href="#path-23"></use>
                        </mask>
                        <g id="Clip-33"></g>
                        <polygon id="Fill-32" fill="#030100" mask="url(#mask-24)" points="-3.41543233 15.805964 12.4515761 15.805964 12.4515761 -3.4362982 -3.41543233 -3.4362982"></polygon>
                    </g>
                    <g transform="translate(102.467971, 30.568946)">
                        <mask id="mask-26" fill="white">
                            <use xlink:href="#path-25"></use>
                        </mask>
                        <g id="Clip-35"></g>
                        <polygon id="Fill-34" fill="#030100" mask="url(#mask-26)" points="-3.4104317 16.0679692 10.6913533 16.0679692 10.6913533 -3.44133676 -3.4104317 -3.44133676"></polygon>
                    </g>
                    <g transform="translate(112.124193, 34.393213)">
                        <mask id="mask-28" fill="white">
                            <use xlink:href="#path-27"></use>
                        </mask>
                        <g id="Clip-37"></g>
                        <polygon id="Fill-36" fill="#030100" mask="url(#mask-28)" points="-3.4104317 12.4452442 10.2312951 12.4452442 10.2312951 -3.4362982 -3.4104317 -3.4362982"></polygon>
                    </g>
                    <g transform="translate(141.202874, 34.393213)">
                        <mask id="mask-30" fill="white">
                            <use xlink:href="#path-29"></use>
                        </mask>
                        <g id="Clip-39"></g>
                        <polygon id="Fill-38" fill="#030100" mask="url(#mask-30)" points="-3.4104317 12.4452442 10.2312951 12.4452442 10.2312951 -3.4362982 -3.4104317 -3.4362982"></polygon>
                    </g>
                    <g transform="translate(120.795291, 32.115784)">
                        <mask id="mask-32" fill="white">
                            <use xlink:href="#path-31"></use>
                        </mask>
                        <g id="Clip-41"></g>
                        <polygon id="Fill-40" fill="#030100" mask="url(#mask-32)" points="-3.4104317 14.7025193 8.48107355 14.7025193 8.48107355 -3.4362982 -3.4104317 -3.4362982"></polygon>
                    </g>
                    <g transform="translate(132.466768, 31.118149)">
                        <mask id="mask-34" fill="white">
                            <use xlink:href="#path-33"></use>
                        </mask>
                        <g id="Clip-43"></g>
                        <polygon id="Fill-42" fill="#030100" mask="url(#mask-34)" points="-3.41543233 15.5238046 10.7413597 15.5238046 10.7413597 -3.4362982 -3.41543233 -3.4362982"></polygon>
                    </g>
                    <g transform="translate(149.648943, 34.589717)">
                        <mask id="mask-36" fill="white">
                            <use xlink:href="#path-35"></use>
                        </mask>
                        <g id="Clip-45"></g>
                        <polygon id="Fill-44" fill="#030100" mask="url(#mask-36)" points="-3.41543233 15.9016967 11.4464489 15.9016967 11.4464489 -3.4362982 -3.41543233 -3.4362982"></polygon>
                    </g>
                </g>
            </g>
        </g>
    </g>
</svg>