<?xml version="1.0" encoding="UTF-8"?>
<svg width="172px" height="226px" viewBox="0 0 172 226" version="1.1" xmlns="http://www.w3.org/2000/svg" xmlns:xlink="http://www.w3.org/1999/xlink">
    <title>elepay</title>
    <defs>
        <linearGradient x1="50.0004748%" y1="0.00472171122%" x2="50.0097818%" y2="100.002926%" id="linearGradient-1">
            <stop stop-color="#1098FF" offset="0%"></stop>
            <stop stop-color="#0F44EC" offset="100%"></stop>
        </linearGradient>
        <linearGradient x1="100%" y1="50.0788193%" x2="1.84234229e-06%" y2="50.0788193%" id="linearGradient-2">
            <stop stop-color="#1098FF" offset="0%"></stop>
            <stop stop-color="#0F44EC" offset="100%"></stop>
        </linearGradient>
        <linearGradient x1="30.5452062%" y1="98.0494146%" x2="69.4549133%" y2="1.84820655%" id="linearGradient-3">
            <stop stop-color="#1098FF" offset="0%"></stop>
            <stop stop-color="#0F44EC" offset="100%"></stop>
        </linearGradient>
        <rect id="path-4" x="0" y="0" width="88.0110195" height="106.48214"></rect>
        <linearGradient x1="30.6986815%" y1="1.98170035%" x2="69.4117281%" y2="98.1814148%" id="linearGradient-6">
            <stop stop-color="#1098FF" offset="0%"></stop>
            <stop stop-color="#0F44EC" offset="100%"></stop>
        </linearGradient>
    </defs>
    <g id="LOGO-+-SDK-阐释图" stroke="none" stroke-width="1" fill="none" fill-rule="evenodd">
        <g id="elepay">
            <path d="M74.3877135,3.15576099 L74.5032806,3.08879516 C85.2562927,-3.14208529 98.9786356,0.355365109 105.458298,10.8675084 L105.834302,11.4996654 L168.712395,121.13564 C174.834221,131.809826 171.426885,145.368387 161.08703,151.910735 L160.269871,152.407411 C149.760816,158.670308 136.211449,155.393294 129.706395,145.124222 L129.295121,144.44949 L66.0028631,34.4260087 C59.7026067,23.4738744 63.4515155,9.49278928 74.3877135,3.15576099 Z" id="矩形" fill="url(#linearGradient-1)" fill-rule="nonzero"></path>
            <path d="M149.020684,109.946252 L22.9599694,109.946252 C16.8665841,109.946252 11.022944,112.376488 6.71540067,116.702 C2.40785732,121.027512 0.243377543,126.893723 0.246565574,133.009315 C0.246565574,144.456145 11.5064806,154.862355 22.9599694,156 L149.020684,156 C161.686353,156.006494 171.966759,145.721102 172,133.009315 C172,120.271937 161.71181,109.946252 149.020684,109.946252 Z" id="路径" fill="url(#linearGradient-2)" fill-rule="nonzero"></path>
            <path d="M97.5267283,3.65337264 C97.3463837,3.58994285 97.1560423,3.48605535 96.955704,3.34171013 C86.3461564,-3.03511805 72.1617462,1.63067518 66.1335942,11.5528746 L3.07912407,121.096377 C0.0285703516,126.388559 -0.796008944,132.682301 0.787697769,138.586079 C2.37140448,144.489856 6.23294163,149.517354 11.5185369,152.557009 C22.5069927,158.890926 36.5303232,155.101654 42.8649274,144.086839 L105.895285,34.5433368 C112.217369,23.5220971 108.498487,10.0149601 97.5267283,3.65337264 Z" id="路径" fill="url(#linearGradient-3)" fill-rule="nonzero"></path>
            <g id="编组-2" transform="translate(62.685488, 0.030459)">
                <mask id="mask-5" fill="white">
                    <use xlink:href="#path-4"></use>
                </mask>
                <g id="矩形"></g>
                <path d="M11.8151811,3.05224569 C22.8036369,-3.28167128 36.8269675,0.50760065 43.1615716,11.522416 L106.191929,121.090118 C112.533545,132.12554 107.698967,146.875737 97.7525163,152.550751 C87.4564327,158.346767 72.7115728,155.140203 66.4061258,144.080581 L3.41193721,34.5128781 C-2.90505372,23.4938688 0.853495262,9.42235913 11.8151811,3.05224569 Z" id="路径" fill="url(#linearGradient-6)" fill-rule="nonzero" mask="url(#mask-5)"></path>
            </g>
            <g id="编组-6" transform="translate(1.992736, 178.407857)" fill="#002E6A" fill-rule="nonzero">
                <path d="M26.8508198,25.7304672 L4.90313089,25.7304672 C5.14622815,27.9597151 6.27899433,30.0009644 8.05022296,31.4015399 C9.95035825,32.8685605 12.3117663,33.6285043 14.7214025,33.548446 C17.6835704,33.661244 20.5449578,32.4752643 22.5399594,30.307833 L25.2444916,33.4350246 C24.0091719,34.8665467 22.4394985,35.9788521 20.6713734,36.6756376 C18.7282484,37.4442823 16.6501886,37.8242855 14.5574915,37.7936491 C11.9120135,37.8440337 9.29545597,37.2426422 6.9438234,36.0437181 C4.79142639,34.9487864 3.00645915,33.2602793 1.80521214,31.1827986 C0.580371436,29.0250206 -0.041903699,26.5840476 0.00219064155,24.1101607 C-0.0380283607,21.6572219 0.569286183,19.2362861 1.76423438,17.086132 C2.89166694,15.0505545 4.57211863,13.3669327 6.61600131,12.2252125 C8.74387844,11.0446352 11.1506339,10.4435586 13.5904163,10.483383 C16.0152072,10.4384534 18.4074558,11.0401492 20.5156579,12.2252125 C22.533362,13.3684349 24.1816299,15.0539786 25.2690783,17.086132 C26.4435415,19.2946868 27.0328312,21.7613778 26.9819487,24.2559883 C26.9637581,24.7493735 26.9199911,25.2415124 26.8508198,25.7304672 Z M7.68961866,16.6729539 C6.08890005,18.1147384 5.09439825,20.0982727 4.90313089,22.2306052 L22.2858972,22.2306052 C22.0779357,20.109923 21.0857451,18.1396524 19.4994095,16.6972585 C17.8839325,15.2544545 15.7665819,14.4851605 13.5904163,14.5503524 C11.4206841,14.4823144 9.30769633,15.2423864 7.68961866,16.6729539 L7.68961866,16.6729539 Z" id="形状"></path>
                <polygon id="路径" points="33.784257 0 38.7015884 0 38.7015884 37.4857908 33.784257 37.4857908"></polygon>
                <path d="M72.4180904,25.7304672 L50.4458148,25.7304672 C50.6859578,27.9587387 51.8158394,30.000106 53.5847113,31.4015399 C55.4861729,32.8660942 57.8466513,33.6257388 60.2558908,33.548446 C63.2180587,33.661244 66.0794462,32.4752643 68.0744477,30.307833 L70.7871755,33.4350246 C69.5485243,34.8629588 67.9798149,35.9745812 66.2140573,36.6756376 C61.7479487,38.3583896 56.7750907,38.1294743 52.4865073,36.0437181 C50.3373923,34.9442411 48.5535924,33.2568381 47.347896,31.1827986 C46.1238667,29.0243599 45.4990059,26.5843352 45.536679,24.1101607 C45.5117137,21.6513462 46.1329897,19.2282503 47.3397005,17.0780305 C48.4700648,15.0418846 50.1532936,13.3583244 52.199663,12.217111 C54.3270996,11.0354421 56.7341587,10.4342896 59.1740779,10.4752815 C61.5988689,10.4303518 63.9911174,11.0320477 66.0993196,12.217111 C68.1148068,13.3631466 69.7623723,15.0479719 70.8527399,17.0780305 C72.0235228,19.2879445 72.6125862,21.7536882 72.5656103,24.2478867 C72.5457997,24.7445061 72.4965418,25.2395496 72.4180904,25.7304672 Z M53.2323026,16.6729539 C51.6289704,18.1127891 50.6339303,20.0973973 50.4458148,22.2306052 L67.8285811,22.2306052 C67.6274759,20.1079854 66.6341259,18.1354127 65.0420934,16.6972585 C61.6356469,13.8494785 56.6469445,13.8494785 53.2404981,16.6972585 L53.2323026,16.6729539 Z" id="形状"></path>
                <path d="M100.733723,12.1766033 C102.797168,13.2854564 104.501738,14.9480049 105.651055,16.9727106 C107.99979,21.4477839 107.99979,26.7725375 105.651055,31.2476108 C104.512695,33.2970399 102.806937,34.9832301 100.733723,36.1085303 C98.5739513,37.2735068 96.1456089,37.8652541 93.6855485,37.8260552 C91.8428356,37.8468441 90.0182185,37.4650826 88.3420484,36.7080437 C86.7328216,35.9685923 85.3273054,34.8570787 84.2442723,33.4674307 L84.2442723,47.3129497 L79.3023543,47.3129497 L79.3023543,10.710226 L84.0066013,10.710226 L84.0066013,14.955429 C85.0569595,13.5046902 86.4684364,12.3466041 88.1043774,11.593293 C89.8396024,10.820514 91.7251671,10.4333469 93.6281796,10.4590784 C96.1080203,10.4062214 98.5583695,10.9985104 100.733723,12.1766033 Z M97.9554312,32.3575208 C99.3353599,31.5644863 100.469136,30.4128959 101.233652,29.0277909 C102.829127,25.9304868 102.829127,22.26553 101.233652,19.1682259 C100.473109,17.7865108 99.3378485,16.6418291 97.9554312,15.8628006 C96.5258944,15.0761762 94.9116227,14.6765394 93.2757709,14.7042815 C91.6554692,14.6807247 90.0586996,15.0893309 88.6534794,15.8871052 C87.2749602,16.6747282 86.141157,17.8207423 85.3752585,19.200632 C84.5683582,20.7113005 84.1702854,22.4025396 84.2196856,24.1101607 C84.1884036,25.8230222 84.5913,27.5163846 85.3916496,29.0358924 C86.1463668,30.4281161 87.2824774,31.5820778 88.6698705,32.3656223 C91.5742701,33.9530049 95.100205,33.9530049 98.0046045,32.3656223 L97.9554312,32.3575208 Z" id="形状"></path>
                <path d="M132.401337,13.1811934 C134.395588,15.0067387 135.392714,17.7072495 135.392714,21.2827259 L135.392714,37.4857908 L130.73764,37.4857908 L130.73764,33.9535227 C129.882894,35.2260012 128.664814,36.2186134 127.238139,36.8052621 C125.529082,37.4998748 123.69283,37.8364291 121.845466,37.7936491 C119.22937,37.9263635 116.647964,37.1559572 114.543229,35.6143368 C112.77335,34.2602632 111.760214,32.1549807 111.81411,29.9432641 C111.743627,27.755167 112.706856,25.659175 114.420296,24.2721913 C116.157753,22.8409206 118.916922,22.1252852 122.697803,22.1252852 L130.467187,22.1252852 L130.467187,21.1693044 C130.585708,19.3809881 129.916359,17.6293367 128.631383,16.3650956 C127.40205,15.2524852 125.593565,14.6961799 123.205928,14.6961799 C121.605943,14.7067435 120.018899,14.9805371 118.509876,15.5063332 C117.095286,15.9632576 115.778281,16.6746316 114.625185,17.6046301 L112.576296,13.967042 C114.066532,12.8100019 115.765933,11.9439294 117.583779,11.4150593 C119.589949,10.8160397 121.675775,10.5183619 123.771421,10.5319922 C127.530447,10.483383 130.407086,11.3664501 132.401337,13.1811934 Z M127.484006,32.8112066 C128.83898,31.9993269 129.882597,30.7653428 130.450796,29.303243 L130.450796,25.560335 L122.886301,25.560335 C118.733888,25.560335 116.65495,26.9429966 116.649486,29.7083196 C116.607074,30.9657644 117.203842,32.1608113 118.239423,32.8922219 C119.540252,33.7338017 121.080207,34.1399346 122.632239,34.0507411 C124.346055,34.1008447 126.039305,33.6711548 127.516788,32.8112066 L127.484006,32.8112066 Z" id="形状"></path>
                <path d="M167.945448,10.710226 L154.832564,40.1673981 C153.668795,42.8679089 152.30287,44.7879721 150.734788,45.9275877 C149.098402,47.0623331 147.135277,47.6447983 145.137226,47.5884019 C143.82398,47.5907913 142.519478,47.3772374 141.27712,46.9564823 C140.117303,46.5876913 139.059727,45.9582067 138.187397,45.1174344 L140.277263,41.4798464 C141.567881,42.7489443 143.316835,43.4574099 145.137226,43.4485188 C146.212896,43.4860172 147.268951,43.1571045 148.128602,42.5168425 C149.109889,41.6285919 149.855644,40.5158388 150.300424,39.2762295 L151.169152,37.4047755 L139.211841,10.6697183 L144.31767,10.6697183 L153.775338,32.0901702 L163.126463,10.6697183 L167.945448,10.710226 Z" id="路径"></path>
            </g>
        </g>
    </g>
</svg>