<?xml version="1.0" encoding="UTF-8"?>
<svg width="348px" height="78px" viewBox="0 0 348 78" version="1.1" xmlns="http://www.w3.org/2000/svg" xmlns:xlink="http://www.w3.org/1999/xlink">
    <title>elepay horizontal</title>
    <defs>
        <linearGradient x1="50.0004721%" y1="0.00472171122%" x2="50.009726%" y2="100.002926%" id="linearGradient-1">
            <stop stop-color="#1098FF" offset="0%"></stop>
            <stop stop-color="#0F44EC" offset="100%"></stop>
        </linearGradient>
        <linearGradient x1="100%" y1="50.0788193%" x2="1.84234229e-06%" y2="50.0788193%" id="linearGradient-2">
            <stop stop-color="#1098FF" offset="0%"></stop>
            <stop stop-color="#0F44EC" offset="100%"></stop>
        </linearGradient>
        <linearGradient x1="30.6563389%" y1="98.0494146%" x2="69.3437799%" y2="1.84820655%" id="linearGradient-3">
            <stop stop-color="#1098FF" offset="0%"></stop>
            <stop stop-color="#0F44EC" offset="100%"></stop>
        </linearGradient>
        <rect id="path-4" x="0" y="0" width="43.8302275" height="53.1811133"></rect>
        <linearGradient x1="30.8089375%" y1="1.98170035%" x2="69.3008413%" y2="98.1814148%" id="linearGradient-6">
            <stop stop-color="#1098FF" offset="0%"></stop>
            <stop stop-color="#0F44EC" offset="100%"></stop>
        </linearGradient>
    </defs>
    <g id="LOGO-+-SDK-阐释图" stroke="none" stroke-width="1" fill="none" fill-rule="evenodd">
        <g id="elepay-horizontal">
            <g id="elepay">
                <path d="M37.0457067,1.57610358 L37.10326,1.54265837 C42.4583505,-1.56927343 49.2921926,0.177482459 52.519119,5.42763501 L52.7063722,5.74335758 L84.0201907,60.499612 C87.068912,65.8306947 85.37203,72.602341 80.2226949,75.8698312 L79.815743,76.1178897 C74.5821452,79.2458113 67.8344467,77.6091495 64.5948752,72.4803958 L64.3900569,72.14341 L32.8699807,17.1936201 C29.7324,11.7237198 31.5993881,4.74104953 37.0457067,1.57610358 Z" id="矩形" fill="url(#linearGradient-1)" fill-rule="nonzero"></path>
                <path d="M74.2135536,54.9112184 L11.4342578,54.9112184 C8.39970067,54.9112184 5.48951878,56.1249684 3.34432599,58.2852886 C1.19913319,60.4456088 0.121204062,63.3754117 0.122791729,66.4297641 C0.122791729,72.1467337 5.73032406,77.3439789 11.4342578,77.9121611 L74.2135536,77.9121611 C80.5211629,77.9154044 85.6408913,72.7784996 85.6574459,66.4297641 C85.6574459,60.0682469 80.5338408,54.9112184 74.2135536,54.9112184 Z" id="路径" fill="url(#linearGradient-2)" fill-rule="nonzero"></path>
                <path d="M48.5691305,1.82462922 C48.4793174,1.79295004 48.3845258,1.74106478 48.2847556,1.66897345 C43.0011117,-1.51585004 35.9371562,0.814419407 32.9350858,5.76993224 L1.53342967,60.4800026 C0.0142282753,63.123114 -0.396419145,66.2664413 0.392280111,69.2150058 C1.18097937,72.1635702 3.10405733,74.6744881 5.7363282,76.1926042 C11.2086715,79.3559963 18.192408,77.4634939 21.3470942,71.9622884 L52.7367421,17.2522181 C55.8851932,11.747804 54.0331588,5.00184093 48.5691305,1.82462922 Z" id="路径" fill="url(#linearGradient-3)" fill-rule="nonzero"></path>
                <g id="编组-2" transform="translate(31.217900, 0.015212)">
                    <mask id="mask-5" fill="white">
                        <use xlink:href="#path-4"></use>
                    </mask>
                    <g id="矩形"></g>
                    <path d="M5.88405952,1.52440422 C11.3564029,-1.63898783 18.3401394,0.25351451 21.4948255,5.75472005 L52.8844734,60.476877 C56.0426514,65.9883742 53.634991,73.3551671 48.6815749,76.1894787 C43.5540386,79.0842234 36.2109745,77.4827467 33.0708089,71.9591628 L1.69917341,17.2370059 C-1.44674117,11.7337057 0.425047815,4.70587412 5.88405952,1.52440422 Z" id="路径" fill="url(#linearGradient-6)" fill-rule="nonzero" mask="url(#mask-5)"></path>
                </g>
            </g>
            <path d="M146.873293,46.2369918 L115.537682,46.2369918 C115.876795,49.4782697 117.489552,52.4484749 120.016771,54.4861077 C122.570532,56.5650057 125.740719,57.6044548 129.52733,57.6044548 C134.142513,57.6044548 137.859076,56.0392379 140.67702,52.9088042 L144.537682,57.4594154 C142.773015,59.5377005 140.536233,61.1567824 138.017185,62.1792392 C131.649276,64.6107368 124.565104,64.2781751 118.44969,61.2606563 C115.383132,59.6592222 112.839994,57.2023034 111.124639,54.1839422 C109.376015,51.0496773 108.485098,47.5044725 108.542858,43.9103181 C108.495084,40.3406662 109.368098,36.8195849 111.076606,33.6910837 C112.6848,30.7296011 115.082354,28.2787331 117.99938,26.6143696 C121.03116,24.9149103 124.454444,24.0498586 127.924225,24.1063967 C131.382149,24.0469429 134.792719,24.9213205 137.801036,26.6385429 C140.673834,28.3107641 143.020912,30.7632088 144.573707,33.7152569 C146.244214,36.9266328 147.084602,40.5096302 147.017392,44.1339205 C147.005312,44.8369715 146.957215,45.5389277 146.873293,46.2369918 L146.873293,46.2369918 Z M119.482403,33.1048828 C117.2026,35.1991776 115.786372,38.0781462 115.513666,41.1726994 L140.28675,41.1726994 C139.994362,38.1080174 138.58994,35.259335 136.34203,33.1713592 C131.491085,29.0500129 124.398884,29.0347162 119.530436,33.1350993 L119.482403,33.1048828 Z" id="形状" fill="#002E6A" fill-rule="nonzero"></path>
            <polygon id="路径" fill="#002E6A" fill-rule="nonzero" points="156.708075 8.90143291 163.702899 8.90143291 163.702899 63.3274678 156.708075 63.3274678"></polygon>
            <path d="M211.802071,46.2369918 L180.46646,46.2369918 C180.798418,49.4762841 182.404962,52.4469957 184.927537,54.4861077 C187.481298,56.5650057 190.651484,57.6044548 194.438096,57.6044548 C199.053279,57.6044548 202.769842,56.0392379 205.587785,52.9088042 L209.448448,57.4594154 C207.687175,59.5361272 205.45467,61.1550948 202.939959,62.1792392 C196.57205,64.6107368 189.487878,64.2781751 183.372465,61.2606563 C180.305906,59.6592222 177.762768,57.2023034 176.047413,54.1839422 C174.298789,51.0496773 173.407872,47.5044725 173.465632,43.9103181 C173.414665,40.3509789 174.279242,36.8388836 175.975363,33.7152569 C177.583558,30.7537743 179.981112,28.3029063 182.898137,26.6385429 C185.936448,24.9254968 189.370904,24.0518992 192.853003,24.1063967 C196.309138,24.0459557 199.718029,24.9204342 202.72381,26.6385429 C205.599631,28.308831 207.949124,30.7616241 209.502485,33.7152569 C211.169069,36.91942 212.009339,40.4936064 211.94617,44.1097473 C211.93492,44.8208684 211.886821,45.5309147 211.802071,46.2369918 L211.802071,46.2369918 Z M184.435197,33.1048828 C182.155395,35.1991776 180.739167,38.0781462 180.46646,41.1726994 L205.239545,41.1726994 C204.940802,38.1046444 203.527597,35.2554929 201.270808,33.1713592 C196.419863,29.0500129 189.327663,29.0347162 184.459214,33.1350993 L184.435197,33.1048828 Z" id="形状" fill="#002E6A" fill-rule="nonzero"></path>
            <path d="M252.173913,26.5781098 C255.096037,28.1990067 257.507176,30.6133112 259.132713,33.5460443 C260.8571,36.7112747 261.724661,40.2770961 261.648448,43.8861448 C261.722219,47.5083768 260.855038,51.0872211 259.132713,54.2685486 C257.515442,57.2168374 255.103094,59.6449219 252.173913,61.2727429 C249.094308,62.9652771 245.631325,63.8252184 242.122982,63.7686293 C239.496142,63.8085258 236.892783,63.265888 234.497723,62.1792392 C232.197428,61.1087204 230.185806,59.4984577 228.631678,57.4835886 L228.631678,77.5775888 L221.636854,77.5775888 L221.636854,24.4508653 L228.343479,24.4508653 L228.343479,30.6150398 C229.854205,28.4972665 231.888861,26.8139227 234.245549,25.7320466 C236.72147,24.6229145 239.407176,24.0682479 242.116978,24.1063967 C245.625213,24.0413532 249.090267,24.8929665 252.173913,26.5781098 Z M248.205176,55.8821119 C250.174053,54.7352064 251.788825,53.06179 252.870394,51.0474652 C254.039895,48.8471812 254.627121,46.3809784 254.57557,43.8861448 C254.622671,41.394914 254.033465,38.9332377 252.86439,36.7369111 C251.784716,34.7367862 250.168148,33.0824491 248.199172,31.9626975 C246.161406,30.8206097 243.860655,30.2390642 241.528572,30.2766145 C239.213432,30.2441733 236.932237,30.8390659 234.924017,31.9989574 C232.957269,33.1486083 231.343157,34.8213409 230.2588,36.833604 C229.087075,39.0158323 228.497499,41.4665607 228.54762,43.9465779 C228.49899,46.4355428 229.075162,48.8966137 230.222775,51.101855 C231.290965,53.1260262 232.908947,54.8027699 234.887992,55.9365017 C239.02738,58.2333624 244.047776,58.2333624 248.187164,55.9365017 L248.205176,55.8821119 Z" id="形状" fill="#002E6A" fill-rule="nonzero"></path>
            <path d="M297.313044,28.0466337 C300.159006,30.6895739 301.579986,34.625782 301.575992,39.8552582 L301.575992,63.3274678 L294.971429,63.3274678 L294.971429,58.1906557 C293.75471,60.0434364 292.014913,61.4872904 289.975984,62.3363652 C287.54029,63.34394 284.923319,63.8316494 282.290684,63.7686293 C277.967702,63.7686293 274.507316,62.7170936 271.909524,60.6140223 C269.36746,58.6363512 267.917194,55.5552056 268.006833,52.3226033 C267.88782,49.1360108 269.253499,46.0761559 271.699379,44.0493142 C274.177088,41.9704161 278.111802,40.9309671 283.50352,40.9309671 L294.58116,40.9309671 L294.58116,39.5591361 C294.58116,36.533453 293.706556,34.2108082 291.95735,32.5912016 C290.208144,30.9715949 287.634369,30.1577628 284.236025,30.149705 C281.953244,30.1501214 279.686548,30.5341132 277.5294,31.285847 C275.506663,31.9605468 273.627094,33.0099696 271.987578,34.3800208 L269.069566,29.0981694 C271.194504,27.4156947 273.619794,26.1582148 276.214493,25.3936214 C279.073688,24.5214934 282.047031,24.0875565 285.034576,24.1063967 C290.378261,24.1063967 294.471084,25.419809 297.313044,28.0466337 Z M290.354245,56.5408325 C292.275449,55.356107 293.753212,53.5648489 294.557143,51.4463236 L294.557143,46.0073461 L283.74969,46.0073461 C277.821601,46.0073461 274.857557,48.0217822 274.857557,52.0506544 C274.793394,53.8733162 275.641103,55.6070256 277.115114,56.667742 C278.622154,57.7978406 280.717599,58.353825 283.383437,58.353825 C285.830212,58.4214964 288.246329,57.793104 290.354245,56.5408325 L290.354245,56.5408325 Z" id="形状" fill="#002E6A" fill-rule="nonzero"></path>
            <path d="M348,24.4508653 L329.267081,67.213315 C327.617944,71.1736964 325.686612,73.961676 323.473085,75.5772537 C321.142055,77.2285056 318.342877,78.0764932 315.493582,77.9945771 C313.622174,78 311.763095,77.6896882 309.993789,77.0759942 C308.338617,76.5391544 306.829959,75.6226759 305.58675,74.3988086 L308.58882,69.1169571 C310.425542,70.9613087 312.917155,71.9922962 315.511594,71.9814853 C317.04752,72.0353392 318.555019,71.5551706 319.780538,70.6217409 C320.91332,69.7233024 321.94403,68.1721866 322.872671,65.9683935 L324.115528,63.2549481 L307.063768,24.4508653 L314.346791,24.4508653 L327.826087,55.5316 L341.161284,24.4327353 L348,24.4508653 Z" id="路径" fill="#002E6A" fill-rule="nonzero"></path>
        </g>
    </g>
</svg>