<?xml version="1.0" encoding="UTF-8"?>
<svg width="168px" height="198px" viewBox="0 0 168 198" version="1.1" xmlns="http://www.w3.org/2000/svg" xmlns:xlink="http://www.w3.org/1999/xlink">
    <title>OneQR</title>
    <defs>
        <linearGradient x1="50%" y1="99.9924812%" x2="50%" y2="0%" id="linearGradient-1">
            <stop stop-color="#1098FF" offset="0%"></stop>
            <stop stop-color="#0F44EC" offset="100%"></stop>
        </linearGradient>
        <linearGradient x1="100.166275%" y1="7221.14506%" x2="0.166965034%" y2="7221.14506%" id="linearGradient-2">
            <stop stop-color="#0F44EC" offset="0%"></stop>
            <stop stop-color="#1098FF" offset="100%"></stop>
        </linearGradient>
        <linearGradient x1="50%" y1="3.06151588e-15%" x2="50%" y2="99.9924812%" id="linearGradient-3">
            <stop stop-color="#1098FF" offset="0%"></stop>
            <stop stop-color="#0F44EC" offset="100%"></stop>
        </linearGradient>
        <linearGradient x1="99.044431%" y1="7221.14506%" x2="0.166965034%" y2="7221.14506%" id="linearGradient-4">
            <stop stop-color="#1098FF" offset="0%"></stop>
            <stop stop-color="#0F44EC" offset="100%"></stop>
        </linearGradient>
        <rect id="path-5" x="0" y="0" width="45.5490285" height="75.7894737"></rect>
        <linearGradient x1="50%" y1="99.9924812%" x2="50%" y2="0%" id="linearGradient-7">
            <stop stop-color="#1098FF" offset="0%"></stop>
            <stop stop-color="#0F44EC" offset="100%"></stop>
        </linearGradient>
    </defs>
    <g id="LOGO-+-SDK-阐释图" stroke="none" stroke-width="1" fill="none" fill-rule="evenodd">
        <g id="OneQR">
            <g id="编组-4" transform="translate(12.000000, 0.000000)">
                <path d="M22.5359241,0.403902614 C28.5128228,0.403902614 34.2449232,2.37038632 38.4712288,6.58970103 C42.6975344,10.8090157 45.0718482,16.5316345 45.0718482,22.4986466 L45.0718482,121.501353 C45.0718482,127.468365 42.6975344,133.190984 38.4712288,137.410299 C34.2449232,141.629614 28.5128228,144 22.5359241,144 C10.0967013,144 0.509715319,133.92 0.509715319,121.501353 L0,22.4986466 C0,11.1518797 11.4414822,0.403902614 22.5359241,0.403902614 Z" id="路径" fill="url(#linearGradient-1)" fill-rule="nonzero"></path>
                <path d="M142.676909,22.4986466 C142.670931,34.9235861 132.586507,44.9961747 120.140985,45.0081203 L21.4514234,45.0081203 C9.00590163,44.9961747 0.00597767478,34.9235861 0,22.4986466 C0,10.0729872 9.00517621,0 21.4514234,0 L120.140985,0 C130.725712,0 142.676909,12.1696241 142.676909,22.4986466 Z" id="路径" fill="url(#linearGradient-2)" fill-rule="nonzero"></path>
                <path d="M121.464076,143.742289 C109.016073,143.742289 98.9232943,133.928764 98.9173068,121.501353 L98.9173068,22.4986466 C98.9232943,10.071236 109.016073,0 121.464076,0 C133.907844,0.00597412175 143.994016,10.0754626 144,22.4986466 L144,121.501353 C144,131.830376 132.818798,143.742289 121.464076,143.742289 Z" id="路径" fill="url(#linearGradient-3)" fill-rule="nonzero"></path>
                <path d="M22.5359241,98.9918797 L121.464076,98.9918797 C133.912077,98.9978573 144,109.073941 144,121.501353 C143.988043,133.922065 133.905367,143.988063 121.464076,144 L22.5359241,144 C10.2415312,143.833605 0.925279892,133.776004 1.03882427,121.501353 C1.03882427,109.07188 10.0967013,98.9918797 22.5359241,98.9918797 Z" id="路径" fill="url(#linearGradient-4)" fill-rule="nonzero"></path>
                <g id="编组-3" transform="translate(0.000000, 68.210526)">
                    <mask id="mask-6" fill="white">
                        <use xlink:href="#path-5"></use>
                    </mask>
                    <g id="矩形"></g>
                    <path d="M22.5359241,-68.2105263 L22.5359241,-68.2105263 C28.5128228,-68.2105263 34.2449232,-65.84014 38.4712288,-61.6208253 C42.6975344,-57.4015106 45.0718482,-51.6788918 45.0718482,-45.7118797 L45.0718482,53.2908271 C45.0718482,59.2578391 42.6975344,64.980458 38.4712288,69.1997727 C34.2449232,73.4190874 28.5128228,75.7894737 22.5359241,75.7894737 L22.5359241,75.7894737 C10.0967013,75.7894737 0.509715319,65.7094737 0.509715319,53.2908271 L0,-45.7118797 C0,-57.0586466 11.4414822,-68.2105263 22.5359241,-68.2105263 Z" id="路径" fill="url(#linearGradient-7)" fill-rule="nonzero" mask="url(#mask-6)"></path>
                </g>
            </g>
            <path d="M8.6151199,195.833597 C5.99078153,194.412073 3.80561265,192.297194 2.29710569,189.718813 C-0.765701897,184.339399 -0.765701897,177.739885 2.29710569,172.360471 C3.8049935,169.781602 5.99031632,167.666574 8.6151199,166.245687 C11.395521,164.751604 14.5099569,163.991395 17.6648359,164.036721 C20.8021777,163.996127 23.8981848,164.756326 26.6611387,166.245687 C29.2750255,167.65263 31.452683,169.752039 32.9562616,172.31461 C35.9877988,177.718623 35.9877988,184.3148 32.9562616,189.718813 C31.4531603,192.283709 29.2755582,194.385708 26.6611387,195.79538 C23.8976007,197.282401 20.80155,198.039979 17.6648359,197.996702 C14.513946,198.056123 11.3997429,197.311752 8.6151199,195.833597 Z M24.2193941,192.157083 C26.1297127,191.068992 27.7114281,189.484576 28.7976653,187.570995 C31.0354337,183.513407 31.0354337,178.588808 28.7976653,174.531219 C27.7114281,172.617639 26.1297127,171.033223 24.2193941,169.945131 C22.2193007,168.821637 19.957637,168.249321 17.6648359,168.286496 C15.3555358,168.253226 13.0776385,168.82499 11.0568645,169.945131 C9.11845107,171.016868 7.51303901,172.603861 6.41754974,174.531219 C4.17978132,178.588808 4.17978132,183.513407 6.41754974,187.570995 C7.51524489,189.496656 9.12011649,191.083115 11.0568645,192.157083 C13.0776385,193.277224 15.3555358,193.848989 17.6648359,193.815718 C19.957637,193.852893 22.2193007,193.280578 24.2193941,192.157083 L24.2193941,192.157083 Z" id="形状" fill="#002E6A" fill-rule="nonzero"></path>
            <path d="M60.9981725,175.035689 C62.8752636,176.885411 63.8138092,179.596298 63.8138092,183.168351 L63.8138092,197.660389 L59.2736903,197.660389 L59.2736903,183.711038 C59.2736903,181.280412 58.688689,179.448524 57.5186864,178.215376 C56.1828006,176.913261 54.3576332,176.240853 52.497849,176.365654 C50.343586,176.249906 48.2371186,177.029772 46.6758142,178.521115 C45.2565501,179.95809 44.5469181,182.021829 44.5469181,184.712334 L44.5469181,197.660389 L39.9686469,197.660389 L39.9686469,172.520984 L44.325635,172.520984 L44.325635,176.342724 C45.2727312,175.009584 46.5693476,173.9647 48.0721869,173.323549 C49.7592385,172.602682 51.5797215,172.248384 53.4135032,172.284036 C56.5928582,172.284036 59.1210813,173.201253 60.9981725,175.035689 Z" id="路径" fill="#002E6A" fill-rule="nonzero"></path>
            <path d="M93.5954631,186.607917 L73.2526783,186.607917 C73.4682712,188.709133 74.5153626,190.636208 76.1598805,191.958353 C77.9187955,193.338702 80.1074447,194.053257 82.3405465,193.976231 C85.0883342,194.075642 87.7402435,192.957142 89.5894759,190.91884 L92.0922641,193.853936 C90.9465147,195.199265 89.4938306,196.248032 87.8573633,196.911328 C83.7218144,198.489666 79.1176108,198.276504 75.1450304,196.32278 C73.1494938,195.28617 71.4959025,193.693463 70.3836283,191.736692 C69.2457496,189.711004 68.6663677,187.418538 68.7049289,185.094508 C68.6707327,182.793722 69.2333894,180.52345 70.3378456,178.505828 C71.3814174,176.585922 72.9409872,174.997211 74.8398123,173.91974 C76.8116351,172.811087 79.0419165,172.24663 81.3028051,172.284036 C83.5471151,172.243566 85.7609772,172.808537 87.7123847,173.91974 C89.5825155,175.001738 91.1088877,176.591664 92.1151555,178.505828 C93.2025346,180.580514 93.7485035,182.896955 93.7022895,185.239734 C93.6896283,185.697302 93.6539744,186.153941 93.5954631,186.607917 L93.5954631,186.607917 Z M75.8165101,178.09308 C74.3362423,179.457377 73.4212602,181.328655 73.2526783,183.336508 L89.3453014,183.336508 C89.1587245,181.343576 88.2395463,179.491185 86.7662087,178.138941 C83.6107308,175.463401 78.9872489,175.463401 75.831771,178.138941 L75.8165101,178.09308 Z" id="形状" fill="#002E6A" fill-rule="nonzero"></path>
            <path d="M106.826667,195.833597 C104.198591,194.414474 102.010371,192.299197 100.501022,189.718813 C97.4382146,184.339399 97.4382146,177.739885 100.501022,172.360471 C102.009437,169.779351 104.19789,167.663848 106.826667,166.245687 C112.480118,163.300827 119.211603,163.300827 124.865055,166.245687 C127.478942,167.65263 129.656599,169.752039 131.160178,172.31461 C134.191715,177.718623 134.191715,184.3148 131.160178,189.718813 C129.657077,192.283709 127.479475,194.385708 124.865055,195.79538 C119.209088,198.729913 112.482634,198.729913 106.826667,195.79538 L106.826667,195.833597 Z M122.423311,192.157083 C124.333629,191.068992 125.915345,189.484576 127.001582,187.570995 C129.23935,183.513407 129.23935,178.588808 127.001582,174.531219 C125.919013,172.614841 124.336422,171.029548 122.423311,169.945131 C120.423217,168.821637 118.161553,168.249321 115.868752,168.286496 C113.559575,168.254288 111.281946,168.825985 109.260781,169.945131 C107.324033,171.0191 105.719161,172.605558 104.621466,174.531219 C102.383698,178.588808 102.383698,183.513407 104.621466,187.570995 C105.721345,189.494973 107.325684,191.080905 109.260781,192.157083 C111.281946,193.276229 113.559575,193.847926 115.868752,193.815718 C118.153819,193.848834 120.407065,193.276651 122.400419,192.157083 L122.423311,192.157083 Z" id="形状" fill="#002E6A" fill-rule="nonzero"></path>
            <path d="M162.841814,197.660389 L155.661559,187.463987 C154.776427,187.525135 154.082056,187.555708 153.578446,187.555708 L145.413862,187.555708 L145.413862,197.660389 L140.682982,197.660389 L140.682982,164.457113 L153.608968,164.457113 C157.902369,164.457113 161.280115,165.476243 163.742208,167.514504 C166.2043,169.552766 167.435347,172.383401 167.435347,176.00641 C167.503805,178.332002 166.841921,180.620472 165.542994,182.549229 C164.20862,184.406147 162.315219,185.78576 160.140635,186.485621 L168,197.637458 L162.841814,197.660389 Z M160.331396,181.609081 C161.845362,180.166265 162.70237,178.164619 162.70237,176.07138 C162.70237,173.978142 161.845362,171.976496 160.331396,170.533679 C158.754436,169.259766 156.4653,168.620261 153.463989,168.615166 L145.413862,168.615166 L145.413862,183.519951 L153.463989,183.519951 C156.462757,183.519951 158.751892,182.877899 160.331396,181.578507 L160.331396,181.609081 Z" id="形状" fill="#002E6A" fill-rule="nonzero"></path>
            <polygon id="路径" fill="#002E6A" fill-rule="nonzero" points="115.578795 183.527595 129.588305 197.561023 136.287842 197.561023 122.270702 183.527595"></polygon>
        </g>
    </g>
</svg>