<?xml version="1.0" encoding="UTF-8"?>
<svg width="336px" height="72px" viewBox="0 0 336 72" version="1.1" xmlns="http://www.w3.org/2000/svg" xmlns:xlink="http://www.w3.org/1999/xlink">
    <title>OneQR horizontal</title>
    <defs>
        <linearGradient x1="50%" y1="99.9924812%" x2="50%" y2="0%" id="linearGradient-1">
            <stop stop-color="#1098FF" offset="0%"></stop>
            <stop stop-color="#0F44EC" offset="100%"></stop>
        </linearGradient>
        <linearGradient x1="100.166275%" y1="7221.14506%" x2="0.166965034%" y2="7221.14506%" id="linearGradient-2">
            <stop stop-color="#0F44EC" offset="0%"></stop>
            <stop stop-color="#1098FF" offset="100%"></stop>
        </linearGradient>
        <linearGradient x1="50%" y1="3.06151588e-15%" x2="50%" y2="99.9924812%" id="linearGradient-3">
            <stop stop-color="#1098FF" offset="0%"></stop>
            <stop stop-color="#0F44EC" offset="100%"></stop>
        </linearGradient>
        <linearGradient x1="99.044431%" y1="7221.14506%" x2="0.166965034%" y2="7221.14506%" id="linearGradient-4">
            <stop stop-color="#1098FF" offset="0%"></stop>
            <stop stop-color="#0F44EC" offset="100%"></stop>
        </linearGradient>
        <rect id="path-5" x="0" y="0" width="22.6961305" height="37.8947368"></rect>
        <linearGradient x1="50%" y1="99.9924812%" x2="50%" y2="0%" id="linearGradient-7">
            <stop stop-color="#1098FF" offset="0%"></stop>
            <stop stop-color="#0F44EC" offset="100%"></stop>
        </linearGradient>
    </defs>
    <g id="LOGO-+-SDK-阐释图" stroke="none" stroke-width="1" fill="none" fill-rule="evenodd">
        <g id="OneQR-horizontal">
            <g id="编组-4">
                <path d="M11.2291807,0 C14.2073446,0 17.0635307,1.18519316 19.1694106,3.29485051 C21.2752905,5.40450787 22.4583615,8.26581727 22.4583615,11.2493233 L22.4583615,60.7506767 C22.4583615,63.7341827 21.2752905,66.5954921 19.1694106,68.7051495 C17.0635307,70.8148068 14.2073446,72 11.2291807,72 C5.03097559,72 0.253980508,66.96 0.253980508,60.7506767 L0,11.2493233 C0,5.57593985 5.70105182,0 11.2291807,0 Z" id="路径" fill="url(#linearGradient-1)" fill-rule="nonzero"></path>
                <path d="M71.0929268,11.2493233 C71.0899482,17.4617931 66.0650898,22.4980873 59.863746,22.5040602 L10.6887967,22.5040602 C4.48745287,22.4980873 0.00297855061,17.4617931 0,11.2493233 C0,5.0364936 4.48709141,0 10.6887967,0 L59.863746,0 C65.1378944,0 71.0929268,6.08481203 71.0929268,11.2493233 Z" id="路径" fill="url(#linearGradient-2)" fill-rule="nonzero"></path>
                <path d="M60.5230146,71.8711443 C54.3204346,71.8711443 49.2914134,66.964382 49.28843,60.7506767 L49.28843,11.2493233 C49.2914134,5.03561801 54.3204346,0 60.5230146,0 C66.7234844,0.00298706087 71.7492136,5.0377313 71.7521953,11.2493233 L71.7521953,60.7506767 C71.7521953,65.915188 66.1808357,71.8711443 60.5230146,71.8711443 Z" id="路径" fill="url(#linearGradient-3)" fill-rule="nonzero"></path>
                <path d="M11.2291807,49.4959398 L60.5230146,49.4959398 C66.7255939,49.4989286 71.7521953,54.5369707 71.7521953,60.7506767 C71.7462374,66.9610324 66.7222503,71.9940314 60.5230146,72 L11.2291807,72 C5.10314128,71.9168025 0.461047663,66.8880022 0.517624458,60.7506767 C0.517624458,54.5359398 5.03097559,49.4959398 11.2291807,49.4959398 Z" id="路径" fill="url(#linearGradient-4)" fill-rule="nonzero"></path>
                <g id="编组-3" transform="translate(0.000000, 34.105263)">
                    <mask id="mask-6" fill="white">
                        <use xlink:href="#path-5"></use>
                    </mask>
                    <g id="矩形"></g>
                    <path d="M11.2291807,-34.0241812 C14.2073446,-34.0241812 17.0635307,-32.92007 19.1694106,-30.8104126 C21.2752905,-28.7007553 22.4583615,-25.8394459 22.4583615,-22.8559398 L22.4583615,26.6454135 C22.4583615,29.6289196 21.2752905,32.490229 19.1694106,34.5998863 C17.0635307,36.7095437 14.2073446,37.8947368 11.2291807,37.8947368 C5.03097559,37.8947368 0.253980508,32.8547368 0.253980508,26.6454135 L0,-22.8559398 C0,-28.5293233 5.70105182,-34.0241812 11.2291807,-34.0241812 Z" id="路径" fill="url(#linearGradient-7)" fill-rule="nonzero" mask="url(#mask-6)"></path>
                </g>
            </g>
            <path d="M106.282737,57.2535338 C102.500826,55.2165968 99.3508417,52.1770747 97.1772653,48.4673684 C94.9539384,44.6801752 93.8083226,40.3553471 93.864711,35.9621053 C93.8089878,31.5672366 94.9545225,27.2408429 97.1772653,23.4514286 C99.3524994,19.744411 102.502193,16.7070417 106.282737,14.6706767 C114.432587,10.4333951 124.130764,10.4333951 132.280614,14.6706767 C136.049943,16.6961501 139.189208,19.7230423 141.353662,23.4189474 C143.561498,27.2247141 144.693544,31.5607826 144.628389,35.9621053 C144.692999,40.3633617 143.56099,44.6992867 141.353662,48.5052632 C139.187735,52.2018985 136.046527,55.2288619 132.27521,57.2535338 C124.12536,61.4908154 114.427183,61.4908154 106.277333,57.2535338 L106.282737,57.2535338 Z M128.768117,51.9699248 C131.527855,50.4121222 133.813862,48.1332403 135.382418,45.3762406 C137.014086,42.5167436 137.85186,39.2717872 137.808743,35.9783459 C137.852652,32.684809 137.014824,29.4396474 135.382418,26.5804511 C133.812691,23.8229518 131.527082,21.5425959 128.768117,19.9813534 C125.880677,18.3580984 122.616702,17.5271022 119.305992,17.5723308 C115.98038,17.5288403 112.70076,18.353481 109.789829,19.9651128 C106.995568,21.5072594 104.679121,23.7904025 103.094471,26.5642105 C101.462718,29.4234361 100.626676,32.6689084 100.67355,35.9621053 C100.628525,39.25508 101.464443,42.5000722 103.094471,45.36 C104.678477,48.1408011 106.999448,50.4284628 109.800637,51.9699248 C112.708994,53.576416 115.985191,54.3955349 119.305992,54.3464662 C122.61406,54.4041771 125.878506,53.5842671 128.768117,51.9699248 Z" id="形状" fill="#002E6A" fill-rule="nonzero"></path>
            <path d="M181.768986,27.3166917 C184.478111,29.9801504 185.830873,33.8869173 185.827277,39.0369925 L185.827277,59.8845113 L179.288623,59.8845113 L179.288623,39.7894737 C179.288623,36.2815038 178.447425,33.6378947 176.765029,31.8586466 C175.082634,30.0793985 172.67072,29.1915789 169.529287,29.195188 C165.984367,29.195188 163.186979,30.2309774 161.137122,32.3025564 C159.087266,34.3741353 158.064138,37.3479699 158.067741,41.2240602 L158.067741,59.8845113 L151.507479,59.8845113 L151.507479,23.6571429 L157.786741,23.6571429 L157.786741,29.124812 C159.143721,27.2250661 160.996444,25.7361084 163.141947,24.8210526 C165.565446,23.7836935 168.180336,23.2708461 170.815401,23.3160902 C175.408665,23.3160902 179.05986,24.6496241 181.768986,27.3166917 Z" id="路径" fill="#002E6A" fill-rule="nonzero"></path>
            <path d="M228.739168,43.9578947 L199.396314,43.9578947 C199.715621,46.9830516 201.231849,49.7538147 203.605906,51.6505263 C205.994403,53.5849624 208.962913,54.5521805 212.511435,54.5521805 C216.834507,54.5521805 220.312779,53.0941353 222.946251,50.1780451 L226.566824,54.4168421 C224.909815,56.3430799 222.815798,57.8430802 220.460484,58.7909774 C214.493192,61.0613247 207.852803,60.7476294 202.125253,57.924812 C199.253884,56.4354508 196.87413,54.1454356 195.273183,51.3311278 C193.632213,48.4124585 192.794868,45.1093838 192.846859,41.76 C192.798417,38.4422049 193.610233,35.1685979 195.202934,32.2592481 C196.708002,29.4982701 198.95422,27.2142688 201.687542,25.6655639 C204.530296,24.0681652 207.744751,23.2537705 211.003763,23.3052632 C214.241239,23.2474414 217.434689,24.0626616 220.249735,25.6655639 C222.940923,27.2225619 225.139658,29.5077943 226.593843,32.2592481 C228.157622,35.2509977 228.94376,38.5892328 228.879668,41.9657143 C228.874264,42.48 228.82563,43.1404511 228.739168,43.9578947 Z M203.11956,31.7233083 C200.98429,33.6757348 199.656031,36.3582619 199.396314,39.2427068 L222.595001,39.2427068 C222.32481,36.3717103 220.999866,33.7035636 218.877159,31.7557895 C214.334199,27.8999591 207.678321,27.8862393 203.11956,31.7233083 L203.11956,31.7233083 Z" id="形状" fill="#002E6A" fill-rule="nonzero"></path>
            <path d="M247.766091,57.2535338 C243.982523,55.216942 240.830706,52.1774552 238.655216,48.4673684 C236.436083,44.6786673 235.292519,40.3545295 235.348065,35.9621053 C235.293179,31.568053 236.436663,27.2423477 238.655216,23.4514286 C240.832582,19.7442041 243.984054,16.7069227 247.766091,14.6706767 C255.915941,10.4333951 265.614118,10.4333951 273.763968,14.6706767 C277.533297,16.6961501 280.672562,19.7230423 282.837016,23.4189474 C285.044852,27.2247141 286.176899,31.5607826 286.111744,35.9621053 C286.176353,40.3633617 285.044344,44.6992867 282.837016,48.5052632 C280.672562,52.2011682 277.533297,55.2280605 273.763968,57.2535338 C265.614118,61.4908154 255.915941,61.4908154 247.766091,57.2535338 L247.766091,57.2535338 Z M270.246068,51.9699248 C273.008618,50.4139955 275.296824,48.1347843 276.865772,45.3762406 C278.4958,42.5163128 279.331718,39.2713206 279.286693,35.9783459 C279.333567,32.6851491 278.497526,29.4396767 276.865772,26.5804511 C275.295429,23.8215799 273.007676,21.5409487 270.246068,19.9813534 C267.362413,18.3650924 264.104097,17.5397154 260.800154,17.5885714 C257.472832,17.5451359 254.191482,18.3697434 251.278587,19.9813534 C248.489142,21.5262135 246.17685,23.8089461 244.594036,26.5804511 C242.962283,29.4396767 242.126242,32.6851491 242.173116,35.9783459 C242.128091,39.2713206 242.964009,42.5163128 244.594036,45.3762406 C246.175411,48.1474676 248.488178,50.4287952 251.278587,51.9699248 C254.190469,53.5841097 257.472512,54.4088912 260.800154,54.3627068 C264.104427,54.4143924 267.363466,53.5888323 270.246068,51.9699248 L270.246068,51.9699248 Z" id="形状" fill="#002E6A" fill-rule="nonzero"></path>
            <path d="M328.521085,59.8845113 L318.221364,45.1867669 C316.946058,45.278797 315.946348,45.3275188 315.216829,45.3275188 L303.414841,45.3275188 L303.414841,59.8845113 L296.589791,59.8845113 L296.589791,12.0396992 L315.216829,12.0396992 C321.406028,12.0396992 326.269484,13.5193985 329.807199,16.478797 C333.344913,19.4381955 335.122777,23.5091729 335.140789,28.6917293 C335.140789,32.3837594 334.240149,35.5290226 332.438869,38.1275188 C330.520806,40.8200027 327.791594,42.8255205 324.651935,43.8496241 L336,59.9115789 L328.521085,59.8845113 Z M324.905915,36.7145865 C327.179131,34.8487218 328.315739,32.1816541 328.315739,28.7133835 C328.315739,25.2451128 327.179131,22.5906767 324.905915,20.7500752 C322.629097,18.9094737 319.330953,17.9873684 315.011483,17.9837594 L303.414841,17.9837594 L303.414841,39.518797 L315.011483,39.518797 C319.334556,39.518797 322.6327,38.5840602 324.905915,36.7145865 L324.905915,36.7145865 Z" id="形状" fill="#002E6A" fill-rule="nonzero"></path>
            <polygon id="路径" fill="#002E6A" fill-rule="nonzero" points="277.95434 59.9278195 285.984447 59.9278195 271.683489 39.518797 263.653382 39.518797"></polygon>
        </g>
    </g>
</svg>